  0
SECTION
  2
HEADER
  9
$ACADVER
  1
AC1009
  9
$EXTMIN
 10
0.0
 20
0.0
 30
0.0
  9
$EXTMAX
 10
1000.0
 20
1000.0
 30
0.0
  9
$FILLMODE
 70
 0
  9
$SPLFRAME
 70
 1
  0
ENDSEC
  0
SECTION
  2
TABLES
  0
TABLE
  2
LAYER
 70
1
  0
LAYER
  2
0
 70
     0
 62
     7
  6
CONTINUOUS
  0
ENDTAB
  0
ENDSEC
  0
SECTION
  2
ENTITIES
  0
LINE
  8
0
 62
     0
 10
0.0950846
 20
129.374
 30
0.0
 11
400.621
 21
129.374
 31
0.0
  0
LINE
  8
0
 62
     0
 10
400.621
 20
129.374
 30
0.0
 11
400.621
 21
0.311437
 31
0.0
  0
LINE
  8
0
 62
     0
 10
400.621
 20
0.311437
 30
0.0
 11
0.0950846
 21
0.311437
 31
0.0
  0
LINE
  8
0
 62
     0
 10
0.0950846
 20
0.311437
 30
0.0
 11
0.0950846
 21
129.374
 31
0.0
  0
LINE
  8
0
 62
     0
 10
379.095
 20
21.8378
 30
0.0
 11
379.095
 21
20.8373
 31
0.0
  0
LINE
  8
0
 62
     0
 10
379.095
 20
20.8373
 30
0.0
 11
378.294
 21
20.8373
 31
0.0
  0
LINE
  8
0
 62
     0
 10
378.294
 20
20.8373
 30
0.0
 11
378.294
 21
17.7381
 31
0.0
  0
LINE
  8
0
 62
     0
 10
378.294
 20
17.7381
 30
0.0
 11
379.095
 21
17.7381
 31
0.0
  0
LINE
  8
0
 62
     0
 10
379.095
 20
17.7381
 30
0.0
 11
379.095
 21
11.9379
 31
0.0
  0
LINE
  8
0
 62
     0
 10
379.095
 20
11.9379
 30
0.0
 11
378.294
 21
11.9379
 31
0.0
  0
LINE
  8
0
 62
     0
 10
378.294
 20
11.9379
 30
0.0
 11
378.294
 21
8.83737
 31
0.0
  0
LINE
  8
0
 62
     0
 10
378.294
 20
8.83737
 30
0.0
 11
379.095
 21
8.83737
 31
0.0
  0
LINE
  8
0
 62
     0
 10
379.095
 20
8.83737
 30
0.0
 11
379.095
 21
7.8383
 31
0.0
  0
LINE
  8
0
 62
     0
 10
379.095
 20
7.8383
 30
0.0
 11
393.097
 21
7.8383
 31
0.0
  0
LINE
  8
0
 62
     0
 10
393.097
 20
7.8383
 30
0.0
 11
393.097
 21
8.83737
 31
0.0
  0
LINE
  8
0
 62
     0
 10
393.097
 20
8.83737
 30
0.0
 11
393.894
 21
8.83737
 31
0.0
  0
LINE
  8
0
 62
     0
 10
393.894
 20
8.83737
 30
0.0
 11
393.894
 21
11.9379
 31
0.0
  0
LINE
  8
0
 62
     0
 10
393.894
 20
11.9379
 30
0.0
 11
393.097
 21
11.9379
 31
0.0
  0
LINE
  8
0
 62
     0
 10
393.097
 20
11.9379
 30
0.0
 11
393.097
 21
17.7381
 31
0.0
  0
LINE
  8
0
 62
     0
 10
393.097
 20
17.7381
 30
0.0
 11
393.894
 21
17.7381
 31
0.0
  0
LINE
  8
0
 62
     0
 10
393.894
 20
17.7381
 30
0.0
 11
393.894
 21
20.8373
 31
0.0
  0
LINE
  8
0
 62
     0
 10
393.894
 20
20.8373
 30
0.0
 11
393.097
 21
20.8373
 31
0.0
  0
LINE
  8
0
 62
     0
 10
393.097
 20
20.8373
 30
0.0
 11
393.097
 21
21.8378
 31
0.0
  0
LINE
  8
0
 62
     0
 10
393.097
 20
21.8378
 30
0.0
 11
379.095
 21
21.8378
 31
0.0
  0
LINE
  8
0
 62
     0
 10
360.045
 20
21.8378
 30
0.0
 11
360.045
 21
20.8373
 31
0.0
  0
LINE
  8
0
 62
     0
 10
360.045
 20
20.8373
 30
0.0
 11
359.244
 21
20.8373
 31
0.0
  0
LINE
  8
0
 62
     0
 10
359.244
 20
20.8373
 30
0.0
 11
359.244
 21
17.7381
 31
0.0
  0
LINE
  8
0
 62
     0
 10
359.244
 20
17.7381
 30
0.0
 11
360.045
 21
17.7381
 31
0.0
  0
LINE
  8
0
 62
     0
 10
360.045
 20
17.7381
 30
0.0
 11
360.045
 21
11.9379
 31
0.0
  0
LINE
  8
0
 62
     0
 10
360.045
 20
11.9379
 30
0.0
 11
359.244
 21
11.9379
 31
0.0
  0
LINE
  8
0
 62
     0
 10
359.244
 20
11.9379
 30
0.0
 11
359.244
 21
8.83737
 31
0.0
  0
LINE
  8
0
 62
     0
 10
359.244
 20
8.83737
 30
0.0
 11
360.045
 21
8.83737
 31
0.0
  0
LINE
  8
0
 62
     0
 10
360.045
 20
8.83737
 30
0.0
 11
360.045
 21
7.8383
 31
0.0
  0
LINE
  8
0
 62
     0
 10
360.045
 20
7.8383
 30
0.0
 11
374.047
 21
7.8383
 31
0.0
  0
LINE
  8
0
 62
     0
 10
374.047
 20
7.8383
 30
0.0
 11
374.047
 21
8.83737
 31
0.0
  0
LINE
  8
0
 62
     0
 10
374.047
 20
8.83737
 30
0.0
 11
374.844
 21
8.83737
 31
0.0
  0
LINE
  8
0
 62
     0
 10
374.844
 20
8.83737
 30
0.0
 11
374.844
 21
11.9379
 31
0.0
  0
LINE
  8
0
 62
     0
 10
374.844
 20
11.9379
 30
0.0
 11
374.047
 21
11.9379
 31
0.0
  0
LINE
  8
0
 62
     0
 10
374.047
 20
11.9379
 30
0.0
 11
374.047
 21
17.7381
 31
0.0
  0
LINE
  8
0
 62
     0
 10
374.047
 20
17.7381
 30
0.0
 11
374.844
 21
17.7381
 31
0.0
  0
LINE
  8
0
 62
     0
 10
374.844
 20
17.7381
 30
0.0
 11
374.844
 21
20.8373
 31
0.0
  0
LINE
  8
0
 62
     0
 10
374.844
 20
20.8373
 30
0.0
 11
374.047
 21
20.8373
 31
0.0
  0
LINE
  8
0
 62
     0
 10
374.047
 20
20.8373
 30
0.0
 11
374.047
 21
21.8378
 31
0.0
  0
LINE
  8
0
 62
     0
 10
374.047
 20
21.8378
 30
0.0
 11
360.045
 21
21.8378
 31
0.0
  0
LINE
  8
0
 62
     0
 10
340.994
 20
21.8378
 30
0.0
 11
340.994
 21
20.8373
 31
0.0
  0
LINE
  8
0
 62
     0
 10
340.994
 20
20.8373
 30
0.0
 11
340.193
 21
20.8373
 31
0.0
  0
LINE
  8
0
 62
     0
 10
340.193
 20
20.8373
 30
0.0
 11
340.193
 21
17.7381
 31
0.0
  0
LINE
  8
0
 62
     0
 10
340.193
 20
17.7381
 30
0.0
 11
340.994
 21
17.7381
 31
0.0
  0
LINE
  8
0
 62
     0
 10
340.994
 20
17.7381
 30
0.0
 11
340.994
 21
11.9379
 31
0.0
  0
LINE
  8
0
 62
     0
 10
340.994
 20
11.9379
 30
0.0
 11
340.193
 21
11.9379
 31
0.0
  0
LINE
  8
0
 62
     0
 10
340.193
 20
11.9379
 30
0.0
 11
340.193
 21
8.83737
 31
0.0
  0
LINE
  8
0
 62
     0
 10
340.193
 20
8.83737
 30
0.0
 11
340.994
 21
8.83737
 31
0.0
  0
LINE
  8
0
 62
     0
 10
340.994
 20
8.83737
 30
0.0
 11
340.994
 21
7.8383
 31
0.0
  0
LINE
  8
0
 62
     0
 10
340.994
 20
7.8383
 30
0.0
 11
354.997
 21
7.8383
 31
0.0
  0
LINE
  8
0
 62
     0
 10
354.997
 20
7.8383
 30
0.0
 11
354.997
 21
8.83737
 31
0.0
  0
LINE
  8
0
 62
     0
 10
354.997
 20
8.83737
 30
0.0
 11
355.794
 21
8.83737
 31
0.0
  0
LINE
  8
0
 62
     0
 10
355.794
 20
8.83737
 30
0.0
 11
355.794
 21
11.9379
 31
0.0
  0
LINE
  8
0
 62
     0
 10
355.794
 20
11.9379
 30
0.0
 11
354.997
 21
11.9379
 31
0.0
  0
LINE
  8
0
 62
     0
 10
354.997
 20
11.9379
 30
0.0
 11
354.997
 21
17.7381
 31
0.0
  0
LINE
  8
0
 62
     0
 10
354.997
 20
17.7381
 30
0.0
 11
355.794
 21
17.7381
 31
0.0
  0
LINE
  8
0
 62
     0
 10
355.794
 20
17.7381
 30
0.0
 11
355.794
 21
20.8373
 31
0.0
  0
LINE
  8
0
 62
     0
 10
355.794
 20
20.8373
 30
0.0
 11
354.997
 21
20.8373
 31
0.0
  0
LINE
  8
0
 62
     0
 10
354.997
 20
20.8373
 30
0.0
 11
354.997
 21
21.8378
 31
0.0
  0
LINE
  8
0
 62
     0
 10
354.997
 20
21.8378
 30
0.0
 11
340.994
 21
21.8378
 31
0.0
  0
LINE
  8
0
 62
     0
 10
307.657
 20
21.8378
 30
0.0
 11
307.657
 21
20.8373
 31
0.0
  0
LINE
  8
0
 62
     0
 10
307.657
 20
20.8373
 30
0.0
 11
306.856
 21
20.8373
 31
0.0
  0
LINE
  8
0
 62
     0
 10
306.856
 20
20.8373
 30
0.0
 11
306.856
 21
17.7381
 31
0.0
  0
LINE
  8
0
 62
     0
 10
306.856
 20
17.7381
 30
0.0
 11
307.657
 21
17.7381
 31
0.0
  0
LINE
  8
0
 62
     0
 10
307.657
 20
17.7381
 30
0.0
 11
307.657
 21
11.9379
 31
0.0
  0
LINE
  8
0
 62
     0
 10
307.657
 20
11.9379
 30
0.0
 11
306.856
 21
11.9379
 31
0.0
  0
LINE
  8
0
 62
     0
 10
306.856
 20
11.9379
 30
0.0
 11
306.856
 21
8.83737
 31
0.0
  0
LINE
  8
0
 62
     0
 10
306.856
 20
8.83737
 30
0.0
 11
307.657
 21
8.83737
 31
0.0
  0
LINE
  8
0
 62
     0
 10
307.657
 20
8.83737
 30
0.0
 11
307.657
 21
7.8383
 31
0.0
  0
LINE
  8
0
 62
     0
 10
307.657
 20
7.8383
 30
0.0
 11
321.656
 21
7.8383
 31
0.0
  0
LINE
  8
0
 62
     0
 10
321.656
 20
7.8383
 30
0.0
 11
321.656
 21
8.83737
 31
0.0
  0
LINE
  8
0
 62
     0
 10
321.656
 20
8.83737
 30
0.0
 11
322.457
 21
8.83737
 31
0.0
  0
LINE
  8
0
 62
     0
 10
322.457
 20
8.83737
 30
0.0
 11
322.457
 21
11.9379
 31
0.0
  0
LINE
  8
0
 62
     0
 10
322.457
 20
11.9379
 30
0.0
 11
321.656
 21
11.9379
 31
0.0
  0
LINE
  8
0
 62
     0
 10
321.656
 20
11.9379
 30
0.0
 11
321.656
 21
17.7381
 31
0.0
  0
LINE
  8
0
 62
     0
 10
321.656
 20
17.7381
 30
0.0
 11
322.457
 21
17.7381
 31
0.0
  0
LINE
  8
0
 62
     0
 10
322.457
 20
17.7381
 30
0.0
 11
322.457
 21
20.8373
 31
0.0
  0
LINE
  8
0
 62
     0
 10
322.457
 20
20.8373
 30
0.0
 11
321.656
 21
20.8373
 31
0.0
  0
LINE
  8
0
 62
     0
 10
321.656
 20
20.8373
 30
0.0
 11
321.656
 21
21.8378
 31
0.0
  0
LINE
  8
0
 62
     0
 10
321.656
 20
21.8378
 30
0.0
 11
307.657
 21
21.8378
 31
0.0
  0
LINE
  8
0
 62
     0
 10
283.844
 20
21.8378
 30
0.0
 11
283.844
 21
20.8373
 31
0.0
  0
LINE
  8
0
 62
     0
 10
283.844
 20
20.8373
 30
0.0
 11
283.045
 21
20.8373
 31
0.0
  0
LINE
  8
0
 62
     0
 10
283.045
 20
20.8373
 30
0.0
 11
283.045
 21
17.7381
 31
0.0
  0
LINE
  8
0
 62
     0
 10
283.045
 20
17.7381
 30
0.0
 11
283.844
 21
17.7381
 31
0.0
  0
LINE
  8
0
 62
     0
 10
283.844
 20
17.7381
 30
0.0
 11
283.844
 21
11.9379
 31
0.0
  0
LINE
  8
0
 62
     0
 10
283.844
 20
11.9379
 30
0.0
 11
283.045
 21
11.9379
 31
0.0
  0
LINE
  8
0
 62
     0
 10
283.045
 20
11.9379
 30
0.0
 11
283.045
 21
8.83737
 31
0.0
  0
LINE
  8
0
 62
     0
 10
283.045
 20
8.83737
 30
0.0
 11
283.844
 21
8.83737
 31
0.0
  0
LINE
  8
0
 62
     0
 10
283.844
 20
8.83737
 30
0.0
 11
283.844
 21
7.8383
 31
0.0
  0
LINE
  8
0
 62
     0
 10
283.844
 20
7.8383
 30
0.0
 11
297.845
 21
7.8383
 31
0.0
  0
LINE
  8
0
 62
     0
 10
297.845
 20
7.8383
 30
0.0
 11
297.845
 21
8.83737
 31
0.0
  0
LINE
  8
0
 62
     0
 10
297.845
 20
8.83737
 30
0.0
 11
298.644
 21
8.83737
 31
0.0
  0
LINE
  8
0
 62
     0
 10
298.644
 20
8.83737
 30
0.0
 11
298.644
 21
11.9379
 31
0.0
  0
LINE
  8
0
 62
     0
 10
298.644
 20
11.9379
 30
0.0
 11
297.845
 21
11.9379
 31
0.0
  0
LINE
  8
0
 62
     0
 10
297.845
 20
11.9379
 30
0.0
 11
297.845
 21
17.7381
 31
0.0
  0
LINE
  8
0
 62
     0
 10
297.845
 20
17.7381
 30
0.0
 11
298.644
 21
17.7381
 31
0.0
  0
LINE
  8
0
 62
     0
 10
298.644
 20
17.7381
 30
0.0
 11
298.644
 21
20.8373
 31
0.0
  0
LINE
  8
0
 62
     0
 10
298.644
 20
20.8373
 30
0.0
 11
297.845
 21
20.8373
 31
0.0
  0
LINE
  8
0
 62
     0
 10
297.845
 20
20.8373
 30
0.0
 11
297.845
 21
21.8378
 31
0.0
  0
LINE
  8
0
 62
     0
 10
297.845
 20
21.8378
 30
0.0
 11
283.844
 21
21.8378
 31
0.0
  0
LINE
  8
0
 62
     0
 10
264.794
 20
21.8378
 30
0.0
 11
264.794
 21
20.8373
 31
0.0
  0
LINE
  8
0
 62
     0
 10
264.794
 20
20.8373
 30
0.0
 11
263.995
 21
20.8373
 31
0.0
  0
LINE
  8
0
 62
     0
 10
263.995
 20
20.8373
 30
0.0
 11
263.995
 21
17.7381
 31
0.0
  0
LINE
  8
0
 62
     0
 10
263.995
 20
17.7381
 30
0.0
 11
264.794
 21
17.7381
 31
0.0
  0
LINE
  8
0
 62
     0
 10
264.794
 20
17.7381
 30
0.0
 11
264.794
 21
11.9379
 31
0.0
  0
LINE
  8
0
 62
     0
 10
264.794
 20
11.9379
 30
0.0
 11
263.995
 21
11.9379
 31
0.0
  0
LINE
  8
0
 62
     0
 10
263.995
 20
11.9379
 30
0.0
 11
263.995
 21
8.83737
 31
0.0
  0
LINE
  8
0
 62
     0
 10
263.995
 20
8.83737
 30
0.0
 11
264.794
 21
8.83737
 31
0.0
  0
LINE
  8
0
 62
     0
 10
264.794
 20
8.83737
 30
0.0
 11
264.794
 21
7.8383
 31
0.0
  0
LINE
  8
0
 62
     0
 10
264.794
 20
7.8383
 30
0.0
 11
278.795
 21
7.8383
 31
0.0
  0
LINE
  8
0
 62
     0
 10
278.795
 20
7.8383
 30
0.0
 11
278.795
 21
8.83737
 31
0.0
  0
LINE
  8
0
 62
     0
 10
278.795
 20
8.83737
 30
0.0
 11
279.594
 21
8.83737
 31
0.0
  0
LINE
  8
0
 62
     0
 10
279.594
 20
8.83737
 30
0.0
 11
279.594
 21
11.9379
 31
0.0
  0
LINE
  8
0
 62
     0
 10
279.594
 20
11.9379
 30
0.0
 11
278.795
 21
11.9379
 31
0.0
  0
LINE
  8
0
 62
     0
 10
278.795
 20
11.9379
 30
0.0
 11
278.795
 21
17.7381
 31
0.0
  0
LINE
  8
0
 62
     0
 10
278.795
 20
17.7381
 30
0.0
 11
279.594
 21
17.7381
 31
0.0
  0
LINE
  8
0
 62
     0
 10
279.594
 20
17.7381
 30
0.0
 11
279.594
 21
20.8373
 31
0.0
  0
LINE
  8
0
 62
     0
 10
279.594
 20
20.8373
 30
0.0
 11
278.795
 21
20.8373
 31
0.0
  0
LINE
  8
0
 62
     0
 10
278.795
 20
20.8373
 30
0.0
 11
278.795
 21
21.8378
 31
0.0
  0
LINE
  8
0
 62
     0
 10
278.795
 20
21.8378
 30
0.0
 11
264.794
 21
21.8378
 31
0.0
  0
LINE
  8
0
 62
     0
 10
243.363
 20
21.8378
 30
0.0
 11
243.363
 21
20.8373
 31
0.0
  0
LINE
  8
0
 62
     0
 10
243.363
 20
20.8373
 30
0.0
 11
242.562
 21
20.8373
 31
0.0
  0
LINE
  8
0
 62
     0
 10
242.562
 20
20.8373
 30
0.0
 11
242.562
 21
17.7381
 31
0.0
  0
LINE
  8
0
 62
     0
 10
242.562
 20
17.7381
 30
0.0
 11
243.363
 21
17.7381
 31
0.0
  0
LINE
  8
0
 62
     0
 10
243.363
 20
17.7381
 30
0.0
 11
243.363
 21
11.9379
 31
0.0
  0
LINE
  8
0
 62
     0
 10
243.363
 20
11.9379
 30
0.0
 11
242.562
 21
11.9379
 31
0.0
  0
LINE
  8
0
 62
     0
 10
242.562
 20
11.9379
 30
0.0
 11
242.562
 21
8.83737
 31
0.0
  0
LINE
  8
0
 62
     0
 10
242.562
 20
8.83737
 30
0.0
 11
243.363
 21
8.83737
 31
0.0
  0
LINE
  8
0
 62
     0
 10
243.363
 20
8.83737
 30
0.0
 11
243.363
 21
7.8383
 31
0.0
  0
LINE
  8
0
 62
     0
 10
243.363
 20
7.8383
 30
0.0
 11
257.362
 21
7.8383
 31
0.0
  0
LINE
  8
0
 62
     0
 10
257.362
 20
7.8383
 30
0.0
 11
257.362
 21
8.83737
 31
0.0
  0
LINE
  8
0
 62
     0
 10
257.362
 20
8.83737
 30
0.0
 11
258.163
 21
8.83737
 31
0.0
  0
LINE
  8
0
 62
     0
 10
258.163
 20
8.83737
 30
0.0
 11
258.163
 21
11.9379
 31
0.0
  0
LINE
  8
0
 62
     0
 10
258.163
 20
11.9379
 30
0.0
 11
257.362
 21
11.9379
 31
0.0
  0
LINE
  8
0
 62
     0
 10
257.362
 20
11.9379
 30
0.0
 11
257.362
 21
17.7381
 31
0.0
  0
LINE
  8
0
 62
     0
 10
257.362
 20
17.7381
 30
0.0
 11
258.163
 21
17.7381
 31
0.0
  0
LINE
  8
0
 62
     0
 10
258.163
 20
17.7381
 30
0.0
 11
258.163
 21
20.8373
 31
0.0
  0
LINE
  8
0
 62
     0
 10
258.163
 20
20.8373
 30
0.0
 11
257.362
 21
20.8373
 31
0.0
  0
LINE
  8
0
 62
     0
 10
257.362
 20
20.8373
 30
0.0
 11
257.362
 21
21.8378
 31
0.0
  0
LINE
  8
0
 62
     0
 10
257.362
 20
21.8378
 30
0.0
 11
243.363
 21
21.8378
 31
0.0
  0
LINE
  8
0
 62
     0
 10
219.551
 20
21.8378
 30
0.0
 11
219.551
 21
20.8373
 31
0.0
  0
LINE
  8
0
 62
     0
 10
219.551
 20
20.8373
 30
0.0
 11
218.751
 21
20.8373
 31
0.0
  0
LINE
  8
0
 62
     0
 10
218.751
 20
20.8373
 30
0.0
 11
218.751
 21
17.7381
 31
0.0
  0
LINE
  8
0
 62
     0
 10
218.751
 20
17.7381
 30
0.0
 11
219.551
 21
17.7381
 31
0.0
  0
LINE
  8
0
 62
     0
 10
219.551
 20
17.7381
 30
0.0
 11
219.551
 21
11.9379
 31
0.0
  0
LINE
  8
0
 62
     0
 10
219.551
 20
11.9379
 30
0.0
 11
218.751
 21
11.9379
 31
0.0
  0
LINE
  8
0
 62
     0
 10
218.751
 20
11.9379
 30
0.0
 11
218.751
 21
8.83737
 31
0.0
  0
LINE
  8
0
 62
     0
 10
218.751
 20
8.83737
 30
0.0
 11
219.551
 21
8.83737
 31
0.0
  0
LINE
  8
0
 62
     0
 10
219.551
 20
8.83737
 30
0.0
 11
219.551
 21
7.8383
 31
0.0
  0
LINE
  8
0
 62
     0
 10
219.551
 20
7.8383
 30
0.0
 11
233.55
 21
7.8383
 31
0.0
  0
LINE
  8
0
 62
     0
 10
233.55
 20
7.8383
 30
0.0
 11
233.55
 21
8.83737
 31
0.0
  0
LINE
  8
0
 62
     0
 10
233.55
 20
8.83737
 30
0.0
 11
234.351
 21
8.83737
 31
0.0
  0
LINE
  8
0
 62
     0
 10
234.351
 20
8.83737
 30
0.0
 11
234.351
 21
11.9379
 31
0.0
  0
LINE
  8
0
 62
     0
 10
234.351
 20
11.9379
 30
0.0
 11
233.55
 21
11.9379
 31
0.0
  0
LINE
  8
0
 62
     0
 10
233.55
 20
11.9379
 30
0.0
 11
233.55
 21
17.7381
 31
0.0
  0
LINE
  8
0
 62
     0
 10
233.55
 20
17.7381
 30
0.0
 11
234.351
 21
17.7381
 31
0.0
  0
LINE
  8
0
 62
     0
 10
234.351
 20
17.7381
 30
0.0
 11
234.351
 21
20.8373
 31
0.0
  0
LINE
  8
0
 62
     0
 10
234.351
 20
20.8373
 30
0.0
 11
233.55
 21
20.8373
 31
0.0
  0
LINE
  8
0
 62
     0
 10
233.55
 20
20.8373
 30
0.0
 11
233.55
 21
21.8378
 31
0.0
  0
LINE
  8
0
 62
     0
 10
233.55
 20
21.8378
 30
0.0
 11
219.551
 21
21.8378
 31
0.0
  0
LINE
  8
0
 62
     0
 10
195.738
 20
21.8378
 30
0.0
 11
195.738
 21
20.8373
 31
0.0
  0
LINE
  8
0
 62
     0
 10
195.738
 20
20.8373
 30
0.0
 11
194.937
 21
20.8373
 31
0.0
  0
LINE
  8
0
 62
     0
 10
194.937
 20
20.8373
 30
0.0
 11
194.937
 21
17.7381
 31
0.0
  0
LINE
  8
0
 62
     0
 10
194.937
 20
17.7381
 30
0.0
 11
195.738
 21
17.7381
 31
0.0
  0
LINE
  8
0
 62
     0
 10
195.738
 20
17.7381
 30
0.0
 11
195.738
 21
11.9379
 31
0.0
  0
LINE
  8
0
 62
     0
 10
195.738
 20
11.9379
 30
0.0
 11
194.937
 21
11.9379
 31
0.0
  0
LINE
  8
0
 62
     0
 10
194.937
 20
11.9379
 30
0.0
 11
194.937
 21
8.83737
 31
0.0
  0
LINE
  8
0
 62
     0
 10
194.937
 20
8.83737
 30
0.0
 11
195.738
 21
8.83737
 31
0.0
  0
LINE
  8
0
 62
     0
 10
195.738
 20
8.83737
 30
0.0
 11
195.738
 21
7.8383
 31
0.0
  0
LINE
  8
0
 62
     0
 10
195.738
 20
7.8383
 30
0.0
 11
209.737
 21
7.8383
 31
0.0
  0
LINE
  8
0
 62
     0
 10
209.737
 20
7.8383
 30
0.0
 11
209.737
 21
8.83737
 31
0.0
  0
LINE
  8
0
 62
     0
 10
209.737
 20
8.83737
 30
0.0
 11
210.538
 21
8.83737
 31
0.0
  0
LINE
  8
0
 62
     0
 10
210.538
 20
8.83737
 30
0.0
 11
210.538
 21
11.9379
 31
0.0
  0
LINE
  8
0
 62
     0
 10
210.538
 20
11.9379
 30
0.0
 11
209.737
 21
11.9379
 31
0.0
  0
LINE
  8
0
 62
     0
 10
209.737
 20
11.9379
 30
0.0
 11
209.737
 21
17.7381
 31
0.0
  0
LINE
  8
0
 62
     0
 10
209.737
 20
17.7381
 30
0.0
 11
210.538
 21
17.7381
 31
0.0
  0
LINE
  8
0
 62
     0
 10
210.538
 20
17.7381
 30
0.0
 11
210.538
 21
20.8373
 31
0.0
  0
LINE
  8
0
 62
     0
 10
210.538
 20
20.8373
 30
0.0
 11
209.737
 21
20.8373
 31
0.0
  0
LINE
  8
0
 62
     0
 10
209.737
 20
20.8373
 30
0.0
 11
209.737
 21
21.8378
 31
0.0
  0
LINE
  8
0
 62
     0
 10
209.737
 20
21.8378
 30
0.0
 11
195.738
 21
21.8378
 31
0.0
  0
LINE
  8
0
 62
     0
 10
167.163
 20
21.8378
 30
0.0
 11
167.163
 21
20.8373
 31
0.0
  0
LINE
  8
0
 62
     0
 10
167.163
 20
20.8373
 30
0.0
 11
166.362
 21
20.8373
 31
0.0
  0
LINE
  8
0
 62
     0
 10
166.362
 20
20.8373
 30
0.0
 11
166.362
 21
17.7381
 31
0.0
  0
LINE
  8
0
 62
     0
 10
166.362
 20
17.7381
 30
0.0
 11
167.163
 21
17.7381
 31
0.0
  0
LINE
  8
0
 62
     0
 10
167.163
 20
17.7381
 30
0.0
 11
167.163
 21
11.9379
 31
0.0
  0
LINE
  8
0
 62
     0
 10
167.163
 20
11.9379
 30
0.0
 11
166.362
 21
11.9379
 31
0.0
  0
LINE
  8
0
 62
     0
 10
166.362
 20
11.9379
 30
0.0
 11
166.362
 21
8.83737
 31
0.0
  0
LINE
  8
0
 62
     0
 10
166.362
 20
8.83737
 30
0.0
 11
167.163
 21
8.83737
 31
0.0
  0
LINE
  8
0
 62
     0
 10
167.163
 20
8.83737
 30
0.0
 11
167.163
 21
7.8383
 31
0.0
  0
LINE
  8
0
 62
     0
 10
167.163
 20
7.8383
 30
0.0
 11
181.162
 21
7.8383
 31
0.0
  0
LINE
  8
0
 62
     0
 10
181.162
 20
7.8383
 30
0.0
 11
181.162
 21
8.83737
 31
0.0
  0
LINE
  8
0
 62
     0
 10
181.162
 20
8.83737
 30
0.0
 11
181.963
 21
8.83737
 31
0.0
  0
LINE
  8
0
 62
     0
 10
181.963
 20
8.83737
 30
0.0
 11
181.963
 21
11.9379
 31
0.0
  0
LINE
  8
0
 62
     0
 10
181.963
 20
11.9379
 30
0.0
 11
181.162
 21
11.9379
 31
0.0
  0
LINE
  8
0
 62
     0
 10
181.162
 20
11.9379
 30
0.0
 11
181.162
 21
17.7381
 31
0.0
  0
LINE
  8
0
 62
     0
 10
181.162
 20
17.7381
 30
0.0
 11
181.963
 21
17.7381
 31
0.0
  0
LINE
  8
0
 62
     0
 10
181.963
 20
17.7381
 30
0.0
 11
181.963
 21
20.8373
 31
0.0
  0
LINE
  8
0
 62
     0
 10
181.963
 20
20.8373
 30
0.0
 11
181.162
 21
20.8373
 31
0.0
  0
LINE
  8
0
 62
     0
 10
181.162
 20
20.8373
 30
0.0
 11
181.162
 21
21.8378
 31
0.0
  0
LINE
  8
0
 62
     0
 10
181.162
 20
21.8378
 30
0.0
 11
167.163
 21
21.8378
 31
0.0
  0
LINE
  8
0
 62
     0
 10
114.776
 20
21.8378
 30
0.0
 11
114.776
 21
20.8373
 31
0.0
  0
LINE
  8
0
 62
     0
 10
114.776
 20
20.8373
 30
0.0
 11
113.976
 21
20.8373
 31
0.0
  0
LINE
  8
0
 62
     0
 10
113.976
 20
20.8373
 30
0.0
 11
113.976
 21
17.7381
 31
0.0
  0
LINE
  8
0
 62
     0
 10
113.976
 20
17.7381
 30
0.0
 11
114.776
 21
17.7381
 31
0.0
  0
LINE
  8
0
 62
     0
 10
114.776
 20
17.7381
 30
0.0
 11
114.776
 21
11.9379
 31
0.0
  0
LINE
  8
0
 62
     0
 10
114.776
 20
11.9379
 30
0.0
 11
113.976
 21
11.9379
 31
0.0
  0
LINE
  8
0
 62
     0
 10
113.976
 20
11.9379
 30
0.0
 11
113.976
 21
8.83737
 31
0.0
  0
LINE
  8
0
 62
     0
 10
113.976
 20
8.83737
 30
0.0
 11
114.776
 21
8.83737
 31
0.0
  0
LINE
  8
0
 62
     0
 10
114.776
 20
8.83737
 30
0.0
 11
114.776
 21
7.8383
 31
0.0
  0
LINE
  8
0
 62
     0
 10
114.776
 20
7.8383
 30
0.0
 11
128.775
 21
7.8383
 31
0.0
  0
LINE
  8
0
 62
     0
 10
128.775
 20
7.8383
 30
0.0
 11
128.775
 21
8.83737
 31
0.0
  0
LINE
  8
0
 62
     0
 10
128.775
 20
8.83737
 30
0.0
 11
129.576
 21
8.83737
 31
0.0
  0
LINE
  8
0
 62
     0
 10
129.576
 20
8.83737
 30
0.0
 11
129.576
 21
11.9379
 31
0.0
  0
LINE
  8
0
 62
     0
 10
129.576
 20
11.9379
 30
0.0
 11
128.775
 21
11.9379
 31
0.0
  0
LINE
  8
0
 62
     0
 10
128.775
 20
11.9379
 30
0.0
 11
128.775
 21
17.7381
 31
0.0
  0
LINE
  8
0
 62
     0
 10
128.775
 20
17.7381
 30
0.0
 11
129.576
 21
17.7381
 31
0.0
  0
LINE
  8
0
 62
     0
 10
129.576
 20
17.7381
 30
0.0
 11
129.576
 21
20.8373
 31
0.0
  0
LINE
  8
0
 62
     0
 10
129.576
 20
20.8373
 30
0.0
 11
128.775
 21
20.8373
 31
0.0
  0
LINE
  8
0
 62
     0
 10
128.775
 20
20.8373
 30
0.0
 11
128.775
 21
21.8378
 31
0.0
  0
LINE
  8
0
 62
     0
 10
128.775
 20
21.8378
 30
0.0
 11
114.776
 21
21.8378
 31
0.0
  0
LINE
  8
0
 62
     0
 10
86.2005
 20
21.8378
 30
0.0
 11
86.2005
 21
20.8373
 31
0.0
  0
LINE
  8
0
 62
     0
 10
86.2005
 20
20.8373
 30
0.0
 11
85.4012
 21
20.8373
 31
0.0
  0
LINE
  8
0
 62
     0
 10
85.4012
 20
20.8373
 30
0.0
 11
85.4012
 21
17.7381
 31
0.0
  0
LINE
  8
0
 62
     0
 10
85.4012
 20
17.7381
 30
0.0
 11
86.2005
 21
17.7381
 31
0.0
  0
LINE
  8
0
 62
     0
 10
86.2005
 20
17.7381
 30
0.0
 11
86.2005
 21
11.9379
 31
0.0
  0
LINE
  8
0
 62
     0
 10
86.2005
 20
11.9379
 30
0.0
 11
85.4012
 21
11.9379
 31
0.0
  0
LINE
  8
0
 62
     0
 10
85.4012
 20
11.9379
 30
0.0
 11
85.4012
 21
8.83737
 31
0.0
  0
LINE
  8
0
 62
     0
 10
85.4012
 20
8.83737
 30
0.0
 11
86.2005
 21
8.83737
 31
0.0
  0
LINE
  8
0
 62
     0
 10
86.2005
 20
8.83737
 30
0.0
 11
86.2005
 21
7.8383
 31
0.0
  0
LINE
  8
0
 62
     0
 10
86.2005
 20
7.8383
 30
0.0
 11
100.2
 21
7.8383
 31
0.0
  0
LINE
  8
0
 62
     0
 10
100.2
 20
7.8383
 30
0.0
 11
100.2
 21
8.83737
 31
0.0
  0
LINE
  8
0
 62
     0
 10
100.2
 20
8.83737
 30
0.0
 11
101.001
 21
8.83737
 31
0.0
  0
LINE
  8
0
 62
     0
 10
101.001
 20
8.83737
 30
0.0
 11
101.001
 21
11.9379
 31
0.0
  0
LINE
  8
0
 62
     0
 10
101.001
 20
11.9379
 30
0.0
 11
100.2
 21
11.9379
 31
0.0
  0
LINE
  8
0
 62
     0
 10
100.2
 20
11.9379
 30
0.0
 11
100.2
 21
17.7381
 31
0.0
  0
LINE
  8
0
 62
     0
 10
100.2
 20
17.7381
 30
0.0
 11
101.001
 21
17.7381
 31
0.0
  0
LINE
  8
0
 62
     0
 10
101.001
 20
17.7381
 30
0.0
 11
101.001
 21
20.8373
 31
0.0
  0
LINE
  8
0
 62
     0
 10
101.001
 20
20.8373
 30
0.0
 11
100.2
 21
20.8373
 31
0.0
  0
LINE
  8
0
 62
     0
 10
100.2
 20
20.8373
 30
0.0
 11
100.2
 21
21.8378
 31
0.0
  0
LINE
  8
0
 62
     0
 10
100.2
 20
21.8378
 30
0.0
 11
86.2005
 21
21.8378
 31
0.0
  0
LINE
  8
0
 62
     0
 10
62.388
 20
21.8378
 30
0.0
 11
62.388
 21
20.8373
 31
0.0
  0
LINE
  8
0
 62
     0
 10
62.388
 20
20.8373
 30
0.0
 11
61.5872
 21
20.8373
 31
0.0
  0
LINE
  8
0
 62
     0
 10
61.5872
 20
20.8373
 30
0.0
 11
61.5872
 21
17.7381
 31
0.0
  0
LINE
  8
0
 62
     0
 10
61.5872
 20
17.7381
 30
0.0
 11
62.388
 21
17.7381
 31
0.0
  0
LINE
  8
0
 62
     0
 10
62.388
 20
17.7381
 30
0.0
 11
62.388
 21
11.9379
 31
0.0
  0
LINE
  8
0
 62
     0
 10
62.388
 20
11.9379
 30
0.0
 11
61.5872
 21
11.9379
 31
0.0
  0
LINE
  8
0
 62
     0
 10
61.5872
 20
11.9379
 30
0.0
 11
61.5872
 21
8.83737
 31
0.0
  0
LINE
  8
0
 62
     0
 10
61.5872
 20
8.83737
 30
0.0
 11
62.388
 21
8.83737
 31
0.0
  0
LINE
  8
0
 62
     0
 10
62.388
 20
8.83737
 30
0.0
 11
62.388
 21
7.8383
 31
0.0
  0
LINE
  8
0
 62
     0
 10
62.388
 20
7.8383
 30
0.0
 11
76.3873
 21
7.8383
 31
0.0
  0
LINE
  8
0
 62
     0
 10
76.3873
 20
7.8383
 30
0.0
 11
76.3873
 21
8.83737
 31
0.0
  0
LINE
  8
0
 62
     0
 10
76.3873
 20
8.83737
 30
0.0
 11
77.1881
 21
8.83737
 31
0.0
  0
LINE
  8
0
 62
     0
 10
77.1881
 20
8.83737
 30
0.0
 11
77.1881
 21
11.9379
 31
0.0
  0
LINE
  8
0
 62
     0
 10
77.1881
 20
11.9379
 30
0.0
 11
76.3873
 21
11.9379
 31
0.0
  0
LINE
  8
0
 62
     0
 10
76.3873
 20
11.9379
 30
0.0
 11
76.3873
 21
17.7381
 31
0.0
  0
LINE
  8
0
 62
     0
 10
76.3873
 20
17.7381
 30
0.0
 11
77.1881
 21
17.7381
 31
0.0
  0
LINE
  8
0
 62
     0
 10
77.1881
 20
17.7381
 30
0.0
 11
77.1881
 21
20.8373
 31
0.0
  0
LINE
  8
0
 62
     0
 10
77.1881
 20
20.8373
 30
0.0
 11
76.3873
 21
20.8373
 31
0.0
  0
LINE
  8
0
 62
     0
 10
76.3873
 20
20.8373
 30
0.0
 11
76.3873
 21
21.8378
 31
0.0
  0
LINE
  8
0
 62
     0
 10
76.3873
 20
21.8378
 30
0.0
 11
62.388
 21
21.8378
 31
0.0
  0
LINE
  8
0
 62
     0
 10
40.9568
 20
21.8378
 30
0.0
 11
40.9568
 21
20.8373
 31
0.0
  0
LINE
  8
0
 62
     0
 10
40.9568
 20
20.8373
 30
0.0
 11
40.156
 21
20.8373
 31
0.0
  0
LINE
  8
0
 62
     0
 10
40.156
 20
20.8373
 30
0.0
 11
40.156
 21
17.7381
 31
0.0
  0
LINE
  8
0
 62
     0
 10
40.156
 20
17.7381
 30
0.0
 11
40.9568
 21
17.7381
 31
0.0
  0
LINE
  8
0
 62
     0
 10
40.9568
 20
17.7381
 30
0.0
 11
40.9568
 21
11.9379
 31
0.0
  0
LINE
  8
0
 62
     0
 10
40.9568
 20
11.9379
 30
0.0
 11
40.156
 21
11.9379
 31
0.0
  0
LINE
  8
0
 62
     0
 10
40.156
 20
11.9379
 30
0.0
 11
40.156
 21
8.83737
 31
0.0
  0
LINE
  8
0
 62
     0
 10
40.156
 20
8.83737
 30
0.0
 11
40.9568
 21
8.83737
 31
0.0
  0
LINE
  8
0
 62
     0
 10
40.9568
 20
8.83737
 30
0.0
 11
40.9568
 21
7.8383
 31
0.0
  0
LINE
  8
0
 62
     0
 10
40.9568
 20
7.8383
 30
0.0
 11
54.9561
 21
7.8383
 31
0.0
  0
LINE
  8
0
 62
     0
 10
54.9561
 20
7.8383
 30
0.0
 11
54.9561
 21
8.83737
 31
0.0
  0
LINE
  8
0
 62
     0
 10
54.9561
 20
8.83737
 30
0.0
 11
55.7569
 21
8.83737
 31
0.0
  0
LINE
  8
0
 62
     0
 10
55.7569
 20
8.83737
 30
0.0
 11
55.7569
 21
11.9379
 31
0.0
  0
LINE
  8
0
 62
     0
 10
55.7569
 20
11.9379
 30
0.0
 11
54.9561
 21
11.9379
 31
0.0
  0
LINE
  8
0
 62
     0
 10
54.9561
 20
11.9379
 30
0.0
 11
54.9561
 21
17.7381
 31
0.0
  0
LINE
  8
0
 62
     0
 10
54.9561
 20
17.7381
 30
0.0
 11
55.7569
 21
17.7381
 31
0.0
  0
LINE
  8
0
 62
     0
 10
55.7569
 20
17.7381
 30
0.0
 11
55.7569
 21
20.8373
 31
0.0
  0
LINE
  8
0
 62
     0
 10
55.7569
 20
20.8373
 30
0.0
 11
54.9561
 21
20.8373
 31
0.0
  0
LINE
  8
0
 62
     0
 10
54.9561
 20
20.8373
 30
0.0
 11
54.9561
 21
21.8378
 31
0.0
  0
LINE
  8
0
 62
     0
 10
54.9561
 20
21.8378
 30
0.0
 11
40.9568
 21
21.8378
 31
0.0
  0
LINE
  8
0
 62
     0
 10
14.7629
 20
21.8378
 30
0.0
 11
14.7629
 21
20.8373
 31
0.0
  0
LINE
  8
0
 62
     0
 10
14.7629
 20
20.8373
 30
0.0
 11
13.9623
 21
20.8373
 31
0.0
  0
LINE
  8
0
 62
     0
 10
13.9623
 20
20.8373
 30
0.0
 11
13.9623
 21
17.7381
 31
0.0
  0
LINE
  8
0
 62
     0
 10
13.9623
 20
17.7381
 30
0.0
 11
14.7629
 21
17.7381
 31
0.0
  0
LINE
  8
0
 62
     0
 10
14.7629
 20
17.7381
 30
0.0
 11
14.7629
 21
11.9379
 31
0.0
  0
LINE
  8
0
 62
     0
 10
14.7629
 20
11.9379
 30
0.0
 11
13.9623
 21
11.9379
 31
0.0
  0
LINE
  8
0
 62
     0
 10
13.9623
 20
11.9379
 30
0.0
 11
13.9623
 21
8.83737
 31
0.0
  0
LINE
  8
0
 62
     0
 10
13.9623
 20
8.83737
 30
0.0
 11
14.7629
 21
8.83737
 31
0.0
  0
LINE
  8
0
 62
     0
 10
14.7629
 20
8.83737
 30
0.0
 11
14.7629
 21
7.8383
 31
0.0
  0
LINE
  8
0
 62
     0
 10
14.7629
 20
7.8383
 30
0.0
 11
28.7624
 21
7.8383
 31
0.0
  0
LINE
  8
0
 62
     0
 10
28.7624
 20
7.8383
 30
0.0
 11
28.7624
 21
8.83737
 31
0.0
  0
LINE
  8
0
 62
     0
 10
28.7624
 20
8.83737
 30
0.0
 11
29.5631
 21
8.83737
 31
0.0
  0
LINE
  8
0
 62
     0
 10
29.5631
 20
8.83737
 30
0.0
 11
29.5631
 21
11.9379
 31
0.0
  0
LINE
  8
0
 62
     0
 10
29.5631
 20
11.9379
 30
0.0
 11
28.7624
 21
11.9379
 31
0.0
  0
LINE
  8
0
 62
     0
 10
28.7624
 20
11.9379
 30
0.0
 11
28.7624
 21
17.7381
 31
0.0
  0
LINE
  8
0
 62
     0
 10
28.7624
 20
17.7381
 30
0.0
 11
29.5631
 21
17.7381
 31
0.0
  0
LINE
  8
0
 62
     0
 10
29.5631
 20
17.7381
 30
0.0
 11
29.5631
 21
20.8373
 31
0.0
  0
LINE
  8
0
 62
     0
 10
29.5631
 20
20.8373
 30
0.0
 11
28.7624
 21
20.8373
 31
0.0
  0
LINE
  8
0
 62
     0
 10
28.7624
 20
20.8373
 30
0.0
 11
28.7624
 21
21.8378
 31
0.0
  0
LINE
  8
0
 62
     0
 10
28.7624
 20
21.8378
 30
0.0
 11
14.7629
 21
21.8378
 31
0.0
  0
LINE
  8
0
 62
     0
 10
19.5254
 20
40.8877
 30
0.0
 11
19.5254
 21
39.8872
 31
0.0
  0
LINE
  8
0
 62
     0
 10
19.5254
 20
39.8872
 30
0.0
 11
18.7262
 21
39.8872
 31
0.0
  0
LINE
  8
0
 62
     0
 10
18.7262
 20
39.8872
 30
0.0
 11
18.7262
 21
36.788
 31
0.0
  0
LINE
  8
0
 62
     0
 10
18.7262
 20
36.788
 30
0.0
 11
19.5254
 21
36.788
 31
0.0
  0
LINE
  8
0
 62
     0
 10
19.5254
 20
36.788
 30
0.0
 11
19.5254
 21
36.1872
 31
0.0
  0
LINE
  8
0
 62
     0
 10
19.5254
 20
36.1872
 30
0.0
 11
17.9999
 21
36.1872
 31
0.0
  0
LINE
  8
0
 62
     0
 10
17.9999
 20
36.1872
 30
0.0
 11
17.9999
 21
39.4173
 31
0.0
  0
LINE
  8
0
 62
     0
 10
17.9999
 20
39.4173
 30
0.0
 11
11.2489
 21
39.4173
 31
0.0
  0
LINE
  8
0
 62
     0
 10
11.2489
 20
39.4173
 30
0.0
 11
11.2489
 21
36.1872
 31
0.0
  0
LINE
  8
0
 62
     0
 10
11.2489
 20
36.1872
 30
0.0
 11
10.4249
 21
36.1872
 31
0.0
  0
LINE
  8
0
 62
     0
 10
10.4249
 20
36.1872
 30
0.0
 11
10.4249
 21
33.3885
 31
0.0
  0
LINE
  8
0
 62
     0
 10
10.4249
 20
33.3885
 30
0.0
 11
11.2489
 21
33.3885
 31
0.0
  0
LINE
  8
0
 62
     0
 10
11.2489
 20
33.3885
 30
0.0
 11
11.2489
 21
27.1184
 31
0.0
  0
LINE
  8
0
 62
     0
 10
11.2489
 20
27.1184
 30
0.0
 11
12.9756
 21
27.1184
 31
0.0
  0
LINE
  8
0
 62
     0
 10
12.9756
 20
27.1184
 30
0.0
 11
12.9756
 21
25.9182
 31
0.0
  0
LINE
  8
0
 62
     0
 10
12.9756
 20
25.9182
 30
0.0
 11
16.276
 21
25.9182
 31
0.0
  0
LINE
  8
0
 62
     0
 10
16.276
 20
25.9182
 30
0.0
 11
16.276
 21
27.1184
 31
0.0
  0
LINE
  8
0
 62
     0
 10
16.276
 20
27.1184
 30
0.0
 11
17.9999
 21
27.1184
 31
0.0
  0
LINE
  8
0
 62
     0
 10
17.9999
 20
27.1184
 30
0.0
 11
17.9999
 21
31.5874
 31
0.0
  0
LINE
  8
0
 62
     0
 10
17.9999
 20
31.5874
 30
0.0
 11
19.5254
 21
31.5874
 31
0.0
  0
LINE
  8
0
 62
     0
 10
19.5254
 20
31.5874
 30
0.0
 11
19.5254
 21
30.9879
 31
0.0
  0
LINE
  8
0
 62
     0
 10
19.5254
 20
30.9879
 30
0.0
 11
18.7262
 21
30.9879
 31
0.0
  0
LINE
  8
0
 62
     0
 10
18.7262
 20
30.9879
 30
0.0
 11
18.7262
 21
27.8874
 31
0.0
  0
LINE
  8
0
 62
     0
 10
18.7262
 20
27.8874
 30
0.0
 11
19.5254
 21
27.8874
 31
0.0
  0
LINE
  8
0
 62
     0
 10
19.5254
 20
27.8874
 30
0.0
 11
19.5254
 21
26.8883
 31
0.0
  0
LINE
  8
0
 62
     0
 10
19.5254
 20
26.8883
 30
0.0
 11
33.5249
 21
26.8883
 31
0.0
  0
LINE
  8
0
 62
     0
 10
33.5249
 20
26.8883
 30
0.0
 11
33.5249
 21
27.8874
 31
0.0
  0
LINE
  8
0
 62
     0
 10
33.5249
 20
27.8874
 30
0.0
 11
34.3256
 21
27.8874
 31
0.0
  0
LINE
  8
0
 62
     0
 10
34.3256
 20
27.8874
 30
0.0
 11
34.3256
 21
30.9879
 31
0.0
  0
LINE
  8
0
 62
     0
 10
34.3256
 20
30.9879
 30
0.0
 11
33.5249
 21
30.9879
 31
0.0
  0
LINE
  8
0
 62
     0
 10
33.5249
 20
30.9879
 30
0.0
 11
33.5249
 21
31.5874
 31
0.0
  0
LINE
  8
0
 62
     0
 10
33.5249
 20
31.5874
 30
0.0
 11
35.0504
 21
31.5874
 31
0.0
  0
LINE
  8
0
 62
     0
 10
35.0504
 20
31.5874
 30
0.0
 11
35.0504
 21
27.1184
 31
0.0
  0
LINE
  8
0
 62
     0
 10
35.0504
 20
27.1184
 30
0.0
 11
36.7757
 21
27.1184
 31
0.0
  0
LINE
  8
0
 62
     0
 10
36.7757
 20
27.1184
 30
0.0
 11
36.7757
 21
25.9182
 31
0.0
  0
LINE
  8
0
 62
     0
 10
36.7757
 20
25.9182
 30
0.0
 11
40.0763
 21
25.9182
 31
0.0
  0
LINE
  8
0
 62
     0
 10
40.0763
 20
25.9182
 30
0.0
 11
40.0763
 21
27.1184
 31
0.0
  0
LINE
  8
0
 62
     0
 10
40.0763
 20
27.1184
 30
0.0
 11
41.7999
 21
27.1184
 31
0.0
  0
LINE
  8
0
 62
     0
 10
41.7999
 20
27.1184
 30
0.0
 11
41.7999
 21
33.3885
 31
0.0
  0
LINE
  8
0
 62
     0
 10
41.7999
 20
33.3885
 30
0.0
 11
42.6254
 21
33.3885
 31
0.0
  0
LINE
  8
0
 62
     0
 10
42.6254
 20
33.3885
 30
0.0
 11
42.6254
 21
36.1872
 31
0.0
  0
LINE
  8
0
 62
     0
 10
42.6254
 20
36.1872
 30
0.0
 11
41.7999
 21
36.1872
 31
0.0
  0
LINE
  8
0
 62
     0
 10
41.7999
 20
36.1872
 30
0.0
 11
41.7999
 21
39.4173
 31
0.0
  0
LINE
  8
0
 62
     0
 10
41.7999
 20
39.4173
 30
0.0
 11
35.0504
 21
39.4173
 31
0.0
  0
LINE
  8
0
 62
     0
 10
35.0504
 20
39.4173
 30
0.0
 11
35.0504
 21
36.1872
 31
0.0
  0
LINE
  8
0
 62
     0
 10
35.0504
 20
36.1872
 30
0.0
 11
33.5249
 21
36.1872
 31
0.0
  0
LINE
  8
0
 62
     0
 10
33.5249
 20
36.1872
 30
0.0
 11
33.5249
 21
36.788
 31
0.0
  0
LINE
  8
0
 62
     0
 10
33.5249
 20
36.788
 30
0.0
 11
34.3256
 21
36.788
 31
0.0
  0
LINE
  8
0
 62
     0
 10
34.3256
 20
36.788
 30
0.0
 11
34.3256
 21
39.8872
 31
0.0
  0
LINE
  8
0
 62
     0
 10
34.3256
 20
39.8872
 30
0.0
 11
33.5249
 21
39.8872
 31
0.0
  0
LINE
  8
0
 62
     0
 10
33.5249
 20
39.8872
 30
0.0
 11
33.5249
 21
40.8877
 31
0.0
  0
LINE
  8
0
 62
     0
 10
33.5249
 20
40.8877
 30
0.0
 11
19.5254
 21
40.8877
 31
0.0
  0
LINE
  8
0
 62
     0
 10
379.095
 20
40.8877
 30
0.0
 11
379.095
 21
39.8872
 31
0.0
  0
LINE
  8
0
 62
     0
 10
379.095
 20
39.8872
 30
0.0
 11
378.294
 21
39.8872
 31
0.0
  0
LINE
  8
0
 62
     0
 10
378.294
 20
39.8872
 30
0.0
 11
378.294
 21
36.788
 31
0.0
  0
LINE
  8
0
 62
     0
 10
378.294
 20
36.788
 30
0.0
 11
379.095
 21
36.788
 31
0.0
  0
LINE
  8
0
 62
     0
 10
379.095
 20
36.788
 30
0.0
 11
379.095
 21
30.9879
 31
0.0
  0
LINE
  8
0
 62
     0
 10
379.095
 20
30.9879
 30
0.0
 11
378.294
 21
30.9879
 31
0.0
  0
LINE
  8
0
 62
     0
 10
378.294
 20
30.9879
 30
0.0
 11
378.294
 21
27.8874
 31
0.0
  0
LINE
  8
0
 62
     0
 10
378.294
 20
27.8874
 30
0.0
 11
379.095
 21
27.8874
 31
0.0
  0
LINE
  8
0
 62
     0
 10
379.095
 20
27.8874
 30
0.0
 11
379.095
 21
26.8883
 31
0.0
  0
LINE
  8
0
 62
     0
 10
379.095
 20
26.8883
 30
0.0
 11
393.097
 21
26.8883
 31
0.0
  0
LINE
  8
0
 62
     0
 10
393.097
 20
26.8883
 30
0.0
 11
393.097
 21
27.8874
 31
0.0
  0
LINE
  8
0
 62
     0
 10
393.097
 20
27.8874
 30
0.0
 11
393.894
 21
27.8874
 31
0.0
  0
LINE
  8
0
 62
     0
 10
393.894
 20
27.8874
 30
0.0
 11
393.894
 21
30.9879
 31
0.0
  0
LINE
  8
0
 62
     0
 10
393.894
 20
30.9879
 30
0.0
 11
393.097
 21
30.9879
 31
0.0
  0
LINE
  8
0
 62
     0
 10
393.097
 20
30.9879
 30
0.0
 11
393.097
 21
36.788
 31
0.0
  0
LINE
  8
0
 62
     0
 10
393.097
 20
36.788
 30
0.0
 11
393.894
 21
36.788
 31
0.0
  0
LINE
  8
0
 62
     0
 10
393.894
 20
36.788
 30
0.0
 11
393.894
 21
39.8872
 31
0.0
  0
LINE
  8
0
 62
     0
 10
393.894
 20
39.8872
 30
0.0
 11
393.097
 21
39.8872
 31
0.0
  0
LINE
  8
0
 62
     0
 10
393.097
 20
39.8872
 30
0.0
 11
393.097
 21
40.8877
 31
0.0
  0
LINE
  8
0
 62
     0
 10
393.097
 20
40.8877
 30
0.0
 11
379.095
 21
40.8877
 31
0.0
  0
LINE
  8
0
 62
     0
 10
360.045
 20
40.8877
 30
0.0
 11
360.045
 21
39.8872
 31
0.0
  0
LINE
  8
0
 62
     0
 10
360.045
 20
39.8872
 30
0.0
 11
359.244
 21
39.8872
 31
0.0
  0
LINE
  8
0
 62
     0
 10
359.244
 20
39.8872
 30
0.0
 11
359.244
 21
36.788
 31
0.0
  0
LINE
  8
0
 62
     0
 10
359.244
 20
36.788
 30
0.0
 11
360.045
 21
36.788
 31
0.0
  0
LINE
  8
0
 62
     0
 10
360.045
 20
36.788
 30
0.0
 11
360.045
 21
30.9879
 31
0.0
  0
LINE
  8
0
 62
     0
 10
360.045
 20
30.9879
 30
0.0
 11
359.244
 21
30.9879
 31
0.0
  0
LINE
  8
0
 62
     0
 10
359.244
 20
30.9879
 30
0.0
 11
359.244
 21
27.8874
 31
0.0
  0
LINE
  8
0
 62
     0
 10
359.244
 20
27.8874
 30
0.0
 11
360.045
 21
27.8874
 31
0.0
  0
LINE
  8
0
 62
     0
 10
360.045
 20
27.8874
 30
0.0
 11
360.045
 21
26.8883
 31
0.0
  0
LINE
  8
0
 62
     0
 10
360.045
 20
26.8883
 30
0.0
 11
374.047
 21
26.8883
 31
0.0
  0
LINE
  8
0
 62
     0
 10
374.047
 20
26.8883
 30
0.0
 11
374.047
 21
27.8874
 31
0.0
  0
LINE
  8
0
 62
     0
 10
374.047
 20
27.8874
 30
0.0
 11
374.844
 21
27.8874
 31
0.0
  0
LINE
  8
0
 62
     0
 10
374.844
 20
27.8874
 30
0.0
 11
374.844
 21
30.9879
 31
0.0
  0
LINE
  8
0
 62
     0
 10
374.844
 20
30.9879
 30
0.0
 11
374.047
 21
30.9879
 31
0.0
  0
LINE
  8
0
 62
     0
 10
374.047
 20
30.9879
 30
0.0
 11
374.047
 21
36.788
 31
0.0
  0
LINE
  8
0
 62
     0
 10
374.047
 20
36.788
 30
0.0
 11
374.844
 21
36.788
 31
0.0
  0
LINE
  8
0
 62
     0
 10
374.844
 20
36.788
 30
0.0
 11
374.844
 21
39.8872
 31
0.0
  0
LINE
  8
0
 62
     0
 10
374.844
 20
39.8872
 30
0.0
 11
374.047
 21
39.8872
 31
0.0
  0
LINE
  8
0
 62
     0
 10
374.047
 20
39.8872
 30
0.0
 11
374.047
 21
40.8877
 31
0.0
  0
LINE
  8
0
 62
     0
 10
374.047
 20
40.8877
 30
0.0
 11
360.045
 21
40.8877
 31
0.0
  0
LINE
  8
0
 62
     0
 10
340.994
 20
40.8877
 30
0.0
 11
340.994
 21
39.8872
 31
0.0
  0
LINE
  8
0
 62
     0
 10
340.994
 20
39.8872
 30
0.0
 11
340.195
 21
39.8872
 31
0.0
  0
LINE
  8
0
 62
     0
 10
340.195
 20
39.8872
 30
0.0
 11
340.195
 21
36.788
 31
0.0
  0
LINE
  8
0
 62
     0
 10
340.195
 20
36.788
 30
0.0
 11
340.994
 21
36.788
 31
0.0
  0
LINE
  8
0
 62
     0
 10
340.994
 20
36.788
 30
0.0
 11
340.994
 21
30.9879
 31
0.0
  0
LINE
  8
0
 62
     0
 10
340.994
 20
30.9879
 30
0.0
 11
340.195
 21
30.9879
 31
0.0
  0
LINE
  8
0
 62
     0
 10
340.195
 20
30.9879
 30
0.0
 11
340.195
 21
27.8874
 31
0.0
  0
LINE
  8
0
 62
     0
 10
340.195
 20
27.8874
 30
0.0
 11
340.994
 21
27.8874
 31
0.0
  0
LINE
  8
0
 62
     0
 10
340.994
 20
27.8874
 30
0.0
 11
340.994
 21
26.8883
 31
0.0
  0
LINE
  8
0
 62
     0
 10
340.994
 20
26.8883
 30
0.0
 11
354.997
 21
26.8883
 31
0.0
  0
LINE
  8
0
 62
     0
 10
354.997
 20
26.8883
 30
0.0
 11
354.997
 21
27.8874
 31
0.0
  0
LINE
  8
0
 62
     0
 10
354.997
 20
27.8874
 30
0.0
 11
355.794
 21
27.8874
 31
0.0
  0
LINE
  8
0
 62
     0
 10
355.794
 20
27.8874
 30
0.0
 11
355.794
 21
30.9879
 31
0.0
  0
LINE
  8
0
 62
     0
 10
355.794
 20
30.9879
 30
0.0
 11
354.997
 21
30.9879
 31
0.0
  0
LINE
  8
0
 62
     0
 10
354.997
 20
30.9879
 30
0.0
 11
354.997
 21
36.788
 31
0.0
  0
LINE
  8
0
 62
     0
 10
354.997
 20
36.788
 30
0.0
 11
355.794
 21
36.788
 31
0.0
  0
LINE
  8
0
 62
     0
 10
355.794
 20
36.788
 30
0.0
 11
355.794
 21
39.8872
 31
0.0
  0
LINE
  8
0
 62
     0
 10
355.794
 20
39.8872
 30
0.0
 11
354.997
 21
39.8872
 31
0.0
  0
LINE
  8
0
 62
     0
 10
354.997
 20
39.8872
 30
0.0
 11
354.997
 21
40.8877
 31
0.0
  0
LINE
  8
0
 62
     0
 10
354.997
 20
40.8877
 30
0.0
 11
340.994
 21
40.8877
 31
0.0
  0
LINE
  8
0
 62
     0
 10
305.276
 20
40.8877
 30
0.0
 11
305.276
 21
39.8872
 31
0.0
  0
LINE
  8
0
 62
     0
 10
305.276
 20
39.8872
 30
0.0
 11
304.476
 21
39.8872
 31
0.0
  0
LINE
  8
0
 62
     0
 10
304.476
 20
39.8872
 30
0.0
 11
304.476
 21
36.788
 31
0.0
  0
LINE
  8
0
 62
     0
 10
304.476
 20
36.788
 30
0.0
 11
305.276
 21
36.788
 31
0.0
  0
LINE
  8
0
 62
     0
 10
305.276
 20
36.788
 30
0.0
 11
305.276
 21
30.9879
 31
0.0
  0
LINE
  8
0
 62
     0
 10
305.276
 20
30.9879
 30
0.0
 11
304.476
 21
30.9879
 31
0.0
  0
LINE
  8
0
 62
     0
 10
304.476
 20
30.9879
 30
0.0
 11
304.476
 21
27.8874
 31
0.0
  0
LINE
  8
0
 62
     0
 10
304.476
 20
27.8874
 30
0.0
 11
305.276
 21
27.8874
 31
0.0
  0
LINE
  8
0
 62
     0
 10
305.276
 20
27.8874
 30
0.0
 11
305.276
 21
26.8883
 31
0.0
  0
LINE
  8
0
 62
     0
 10
305.276
 20
26.8883
 30
0.0
 11
319.275
 21
26.8883
 31
0.0
  0
LINE
  8
0
 62
     0
 10
319.275
 20
26.8883
 30
0.0
 11
319.275
 21
27.8874
 31
0.0
  0
LINE
  8
0
 62
     0
 10
319.275
 20
27.8874
 30
0.0
 11
320.076
 21
27.8874
 31
0.0
  0
LINE
  8
0
 62
     0
 10
320.076
 20
27.8874
 30
0.0
 11
320.076
 21
30.9879
 31
0.0
  0
LINE
  8
0
 62
     0
 10
320.076
 20
30.9879
 30
0.0
 11
319.275
 21
30.9879
 31
0.0
  0
LINE
  8
0
 62
     0
 10
319.275
 20
30.9879
 30
0.0
 11
319.275
 21
36.788
 31
0.0
  0
LINE
  8
0
 62
     0
 10
319.275
 20
36.788
 30
0.0
 11
320.076
 21
36.788
 31
0.0
  0
LINE
  8
0
 62
     0
 10
320.076
 20
36.788
 30
0.0
 11
320.076
 21
39.8872
 31
0.0
  0
LINE
  8
0
 62
     0
 10
320.076
 20
39.8872
 30
0.0
 11
319.275
 21
39.8872
 31
0.0
  0
LINE
  8
0
 62
     0
 10
319.275
 20
39.8872
 30
0.0
 11
319.275
 21
40.8877
 31
0.0
  0
LINE
  8
0
 62
     0
 10
319.275
 20
40.8877
 30
0.0
 11
305.276
 21
40.8877
 31
0.0
  0
LINE
  8
0
 62
     0
 10
279.082
 20
40.8877
 30
0.0
 11
279.082
 21
39.8872
 31
0.0
  0
LINE
  8
0
 62
     0
 10
279.082
 20
39.8872
 30
0.0
 11
278.281
 21
39.8872
 31
0.0
  0
LINE
  8
0
 62
     0
 10
278.281
 20
39.8872
 30
0.0
 11
278.281
 21
36.788
 31
0.0
  0
LINE
  8
0
 62
     0
 10
278.281
 20
36.788
 30
0.0
 11
279.082
 21
36.788
 31
0.0
  0
LINE
  8
0
 62
     0
 10
279.082
 20
36.788
 30
0.0
 11
279.082
 21
30.9879
 31
0.0
  0
LINE
  8
0
 62
     0
 10
279.082
 20
30.9879
 30
0.0
 11
278.281
 21
30.9879
 31
0.0
  0
LINE
  8
0
 62
     0
 10
278.281
 20
30.9879
 30
0.0
 11
278.281
 21
27.8874
 31
0.0
  0
LINE
  8
0
 62
     0
 10
278.281
 20
27.8874
 30
0.0
 11
279.082
 21
27.8874
 31
0.0
  0
LINE
  8
0
 62
     0
 10
279.082
 20
27.8874
 30
0.0
 11
279.082
 21
26.8883
 31
0.0
  0
LINE
  8
0
 62
     0
 10
279.082
 20
26.8883
 30
0.0
 11
293.081
 21
26.8883
 31
0.0
  0
LINE
  8
0
 62
     0
 10
293.081
 20
26.8883
 30
0.0
 11
293.081
 21
27.8874
 31
0.0
  0
LINE
  8
0
 62
     0
 10
293.081
 20
27.8874
 30
0.0
 11
293.882
 21
27.8874
 31
0.0
  0
LINE
  8
0
 62
     0
 10
293.882
 20
27.8874
 30
0.0
 11
293.882
 21
30.9879
 31
0.0
  0
LINE
  8
0
 62
     0
 10
293.882
 20
30.9879
 30
0.0
 11
293.081
 21
30.9879
 31
0.0
  0
LINE
  8
0
 62
     0
 10
293.081
 20
30.9879
 30
0.0
 11
293.081
 21
36.788
 31
0.0
  0
LINE
  8
0
 62
     0
 10
293.081
 20
36.788
 30
0.0
 11
293.882
 21
36.788
 31
0.0
  0
LINE
  8
0
 62
     0
 10
293.882
 20
36.788
 30
0.0
 11
293.882
 21
39.8872
 31
0.0
  0
LINE
  8
0
 62
     0
 10
293.882
 20
39.8872
 30
0.0
 11
293.081
 21
39.8872
 31
0.0
  0
LINE
  8
0
 62
     0
 10
293.081
 20
39.8872
 30
0.0
 11
293.081
 21
40.8877
 31
0.0
  0
LINE
  8
0
 62
     0
 10
293.081
 20
40.8877
 30
0.0
 11
279.082
 21
40.8877
 31
0.0
  0
LINE
  8
0
 62
     0
 10
260.032
 20
40.8877
 30
0.0
 11
260.032
 21
39.8872
 31
0.0
  0
LINE
  8
0
 62
     0
 10
260.032
 20
39.8872
 30
0.0
 11
259.231
 21
39.8872
 31
0.0
  0
LINE
  8
0
 62
     0
 10
259.231
 20
39.8872
 30
0.0
 11
259.231
 21
36.788
 31
0.0
  0
LINE
  8
0
 62
     0
 10
259.231
 20
36.788
 30
0.0
 11
260.032
 21
36.788
 31
0.0
  0
LINE
  8
0
 62
     0
 10
260.032
 20
36.788
 30
0.0
 11
260.032
 21
30.9879
 31
0.0
  0
LINE
  8
0
 62
     0
 10
260.032
 20
30.9879
 30
0.0
 11
259.231
 21
30.9879
 31
0.0
  0
LINE
  8
0
 62
     0
 10
259.231
 20
30.9879
 30
0.0
 11
259.231
 21
27.8874
 31
0.0
  0
LINE
  8
0
 62
     0
 10
259.231
 20
27.8874
 30
0.0
 11
260.032
 21
27.8874
 31
0.0
  0
LINE
  8
0
 62
     0
 10
260.032
 20
27.8874
 30
0.0
 11
260.032
 21
26.8883
 31
0.0
  0
LINE
  8
0
 62
     0
 10
260.032
 20
26.8883
 30
0.0
 11
274.031
 21
26.8883
 31
0.0
  0
LINE
  8
0
 62
     0
 10
274.031
 20
26.8883
 30
0.0
 11
274.031
 21
27.8874
 31
0.0
  0
LINE
  8
0
 62
     0
 10
274.031
 20
27.8874
 30
0.0
 11
274.832
 21
27.8874
 31
0.0
  0
LINE
  8
0
 62
     0
 10
274.832
 20
27.8874
 30
0.0
 11
274.832
 21
30.9879
 31
0.0
  0
LINE
  8
0
 62
     0
 10
274.832
 20
30.9879
 30
0.0
 11
274.031
 21
30.9879
 31
0.0
  0
LINE
  8
0
 62
     0
 10
274.031
 20
30.9879
 30
0.0
 11
274.031
 21
36.788
 31
0.0
  0
LINE
  8
0
 62
     0
 10
274.031
 20
36.788
 30
0.0
 11
274.832
 21
36.788
 31
0.0
  0
LINE
  8
0
 62
     0
 10
274.832
 20
36.788
 30
0.0
 11
274.832
 21
39.8872
 31
0.0
  0
LINE
  8
0
 62
     0
 10
274.832
 20
39.8872
 30
0.0
 11
274.031
 21
39.8872
 31
0.0
  0
LINE
  8
0
 62
     0
 10
274.031
 20
39.8872
 30
0.0
 11
274.031
 21
40.8877
 31
0.0
  0
LINE
  8
0
 62
     0
 10
274.031
 20
40.8877
 30
0.0
 11
260.032
 21
40.8877
 31
0.0
  0
LINE
  8
0
 62
     0
 10
240.982
 20
40.8877
 30
0.0
 11
240.982
 21
39.8872
 31
0.0
  0
LINE
  8
0
 62
     0
 10
240.982
 20
39.8872
 30
0.0
 11
240.181
 21
39.8872
 31
0.0
  0
LINE
  8
0
 62
     0
 10
240.181
 20
39.8872
 30
0.0
 11
240.181
 21
36.788
 31
0.0
  0
LINE
  8
0
 62
     0
 10
240.181
 20
36.788
 30
0.0
 11
240.982
 21
36.788
 31
0.0
  0
LINE
  8
0
 62
     0
 10
240.982
 20
36.788
 30
0.0
 11
240.982
 21
30.9879
 31
0.0
  0
LINE
  8
0
 62
     0
 10
240.982
 20
30.9879
 30
0.0
 11
240.181
 21
30.9879
 31
0.0
  0
LINE
  8
0
 62
     0
 10
240.181
 20
30.9879
 30
0.0
 11
240.181
 21
27.8874
 31
0.0
  0
LINE
  8
0
 62
     0
 10
240.181
 20
27.8874
 30
0.0
 11
240.982
 21
27.8874
 31
0.0
  0
LINE
  8
0
 62
     0
 10
240.982
 20
27.8874
 30
0.0
 11
240.982
 21
26.8883
 31
0.0
  0
LINE
  8
0
 62
     0
 10
240.982
 20
26.8883
 30
0.0
 11
254.981
 21
26.8883
 31
0.0
  0
LINE
  8
0
 62
     0
 10
254.981
 20
26.8883
 30
0.0
 11
254.981
 21
27.8874
 31
0.0
  0
LINE
  8
0
 62
     0
 10
254.981
 20
27.8874
 30
0.0
 11
255.782
 21
27.8874
 31
0.0
  0
LINE
  8
0
 62
     0
 10
255.782
 20
27.8874
 30
0.0
 11
255.782
 21
30.9879
 31
0.0
  0
LINE
  8
0
 62
     0
 10
255.782
 20
30.9879
 30
0.0
 11
254.981
 21
30.9879
 31
0.0
  0
LINE
  8
0
 62
     0
 10
254.981
 20
30.9879
 30
0.0
 11
254.981
 21
36.788
 31
0.0
  0
LINE
  8
0
 62
     0
 10
254.981
 20
36.788
 30
0.0
 11
255.782
 21
36.788
 31
0.0
  0
LINE
  8
0
 62
     0
 10
255.782
 20
36.788
 30
0.0
 11
255.782
 21
39.8872
 31
0.0
  0
LINE
  8
0
 62
     0
 10
255.782
 20
39.8872
 30
0.0
 11
254.981
 21
39.8872
 31
0.0
  0
LINE
  8
0
 62
     0
 10
254.981
 20
39.8872
 30
0.0
 11
254.981
 21
40.8877
 31
0.0
  0
LINE
  8
0
 62
     0
 10
254.981
 20
40.8877
 30
0.0
 11
240.982
 21
40.8877
 31
0.0
  0
LINE
  8
0
 62
     0
 10
221.932
 20
40.8877
 30
0.0
 11
221.932
 21
39.8872
 31
0.0
  0
LINE
  8
0
 62
     0
 10
221.932
 20
39.8872
 30
0.0
 11
221.131
 21
39.8872
 31
0.0
  0
LINE
  8
0
 62
     0
 10
221.131
 20
39.8872
 30
0.0
 11
221.131
 21
36.788
 31
0.0
  0
LINE
  8
0
 62
     0
 10
221.131
 20
36.788
 30
0.0
 11
221.932
 21
36.788
 31
0.0
  0
LINE
  8
0
 62
     0
 10
221.932
 20
36.788
 30
0.0
 11
221.932
 21
30.9879
 31
0.0
  0
LINE
  8
0
 62
     0
 10
221.932
 20
30.9879
 30
0.0
 11
221.131
 21
30.9879
 31
0.0
  0
LINE
  8
0
 62
     0
 10
221.131
 20
30.9879
 30
0.0
 11
221.131
 21
27.8874
 31
0.0
  0
LINE
  8
0
 62
     0
 10
221.131
 20
27.8874
 30
0.0
 11
221.932
 21
27.8874
 31
0.0
  0
LINE
  8
0
 62
     0
 10
221.932
 20
27.8874
 30
0.0
 11
221.932
 21
26.8883
 31
0.0
  0
LINE
  8
0
 62
     0
 10
221.932
 20
26.8883
 30
0.0
 11
235.931
 21
26.8883
 31
0.0
  0
LINE
  8
0
 62
     0
 10
235.931
 20
26.8883
 30
0.0
 11
235.931
 21
27.8874
 31
0.0
  0
LINE
  8
0
 62
     0
 10
235.931
 20
27.8874
 30
0.0
 11
236.732
 21
27.8874
 31
0.0
  0
LINE
  8
0
 62
     0
 10
236.732
 20
27.8874
 30
0.0
 11
236.732
 21
30.9879
 31
0.0
  0
LINE
  8
0
 62
     0
 10
236.732
 20
30.9879
 30
0.0
 11
235.931
 21
30.9879
 31
0.0
  0
LINE
  8
0
 62
     0
 10
235.931
 20
30.9879
 30
0.0
 11
235.931
 21
36.788
 31
0.0
  0
LINE
  8
0
 62
     0
 10
235.931
 20
36.788
 30
0.0
 11
236.732
 21
36.788
 31
0.0
  0
LINE
  8
0
 62
     0
 10
236.732
 20
36.788
 30
0.0
 11
236.732
 21
39.8872
 31
0.0
  0
LINE
  8
0
 62
     0
 10
236.732
 20
39.8872
 30
0.0
 11
235.931
 21
39.8872
 31
0.0
  0
LINE
  8
0
 62
     0
 10
235.931
 20
39.8872
 30
0.0
 11
235.931
 21
40.8877
 31
0.0
  0
LINE
  8
0
 62
     0
 10
235.931
 20
40.8877
 30
0.0
 11
221.932
 21
40.8877
 31
0.0
  0
LINE
  8
0
 62
     0
 10
202.882
 20
40.8877
 30
0.0
 11
202.882
 21
39.8872
 31
0.0
  0
LINE
  8
0
 62
     0
 10
202.882
 20
39.8872
 30
0.0
 11
202.081
 21
39.8872
 31
0.0
  0
LINE
  8
0
 62
     0
 10
202.081
 20
39.8872
 30
0.0
 11
202.081
 21
36.788
 31
0.0
  0
LINE
  8
0
 62
     0
 10
202.081
 20
36.788
 30
0.0
 11
202.882
 21
36.788
 31
0.0
  0
LINE
  8
0
 62
     0
 10
202.882
 20
36.788
 30
0.0
 11
202.882
 21
30.9879
 31
0.0
  0
LINE
  8
0
 62
     0
 10
202.882
 20
30.9879
 30
0.0
 11
202.081
 21
30.9879
 31
0.0
  0
LINE
  8
0
 62
     0
 10
202.081
 20
30.9879
 30
0.0
 11
202.081
 21
27.8874
 31
0.0
  0
LINE
  8
0
 62
     0
 10
202.081
 20
27.8874
 30
0.0
 11
202.882
 21
27.8874
 31
0.0
  0
LINE
  8
0
 62
     0
 10
202.882
 20
27.8874
 30
0.0
 11
202.882
 21
26.8883
 31
0.0
  0
LINE
  8
0
 62
     0
 10
202.882
 20
26.8883
 30
0.0
 11
216.881
 21
26.8883
 31
0.0
  0
LINE
  8
0
 62
     0
 10
216.881
 20
26.8883
 30
0.0
 11
216.881
 21
27.8874
 31
0.0
  0
LINE
  8
0
 62
     0
 10
216.881
 20
27.8874
 30
0.0
 11
217.682
 21
27.8874
 31
0.0
  0
LINE
  8
0
 62
     0
 10
217.682
 20
27.8874
 30
0.0
 11
217.682
 21
30.9879
 31
0.0
  0
LINE
  8
0
 62
     0
 10
217.682
 20
30.9879
 30
0.0
 11
216.881
 21
30.9879
 31
0.0
  0
LINE
  8
0
 62
     0
 10
216.881
 20
30.9879
 30
0.0
 11
216.881
 21
36.788
 31
0.0
  0
LINE
  8
0
 62
     0
 10
216.881
 20
36.788
 30
0.0
 11
217.682
 21
36.788
 31
0.0
  0
LINE
  8
0
 62
     0
 10
217.682
 20
36.788
 30
0.0
 11
217.682
 21
39.8872
 31
0.0
  0
LINE
  8
0
 62
     0
 10
217.682
 20
39.8872
 30
0.0
 11
216.881
 21
39.8872
 31
0.0
  0
LINE
  8
0
 62
     0
 10
216.881
 20
39.8872
 30
0.0
 11
216.881
 21
40.8877
 31
0.0
  0
LINE
  8
0
 62
     0
 10
216.881
 20
40.8877
 30
0.0
 11
202.882
 21
40.8877
 31
0.0
  0
LINE
  8
0
 62
     0
 10
183.832
 20
40.8877
 30
0.0
 11
183.832
 21
39.8872
 31
0.0
  0
LINE
  8
0
 62
     0
 10
183.832
 20
39.8872
 30
0.0
 11
183.031
 21
39.8872
 31
0.0
  0
LINE
  8
0
 62
     0
 10
183.031
 20
39.8872
 30
0.0
 11
183.031
 21
36.788
 31
0.0
  0
LINE
  8
0
 62
     0
 10
183.031
 20
36.788
 30
0.0
 11
183.832
 21
36.788
 31
0.0
  0
LINE
  8
0
 62
     0
 10
183.832
 20
36.788
 30
0.0
 11
183.832
 21
30.9879
 31
0.0
  0
LINE
  8
0
 62
     0
 10
183.832
 20
30.9879
 30
0.0
 11
183.031
 21
30.9879
 31
0.0
  0
LINE
  8
0
 62
     0
 10
183.031
 20
30.9879
 30
0.0
 11
183.031
 21
27.8874
 31
0.0
  0
LINE
  8
0
 62
     0
 10
183.031
 20
27.8874
 30
0.0
 11
183.832
 21
27.8874
 31
0.0
  0
LINE
  8
0
 62
     0
 10
183.832
 20
27.8874
 30
0.0
 11
183.832
 21
26.8883
 31
0.0
  0
LINE
  8
0
 62
     0
 10
183.832
 20
26.8883
 30
0.0
 11
197.831
 21
26.8883
 31
0.0
  0
LINE
  8
0
 62
     0
 10
197.831
 20
26.8883
 30
0.0
 11
197.831
 21
27.8874
 31
0.0
  0
LINE
  8
0
 62
     0
 10
197.831
 20
27.8874
 30
0.0
 11
198.632
 21
27.8874
 31
0.0
  0
LINE
  8
0
 62
     0
 10
198.632
 20
27.8874
 30
0.0
 11
198.632
 21
30.9879
 31
0.0
  0
LINE
  8
0
 62
     0
 10
198.632
 20
30.9879
 30
0.0
 11
197.831
 21
30.9879
 31
0.0
  0
LINE
  8
0
 62
     0
 10
197.831
 20
30.9879
 30
0.0
 11
197.831
 21
36.788
 31
0.0
  0
LINE
  8
0
 62
     0
 10
197.831
 20
36.788
 30
0.0
 11
198.632
 21
36.788
 31
0.0
  0
LINE
  8
0
 62
     0
 10
198.632
 20
36.788
 30
0.0
 11
198.632
 21
39.8872
 31
0.0
  0
LINE
  8
0
 62
     0
 10
198.632
 20
39.8872
 30
0.0
 11
197.831
 21
39.8872
 31
0.0
  0
LINE
  8
0
 62
     0
 10
197.831
 20
39.8872
 30
0.0
 11
197.831
 21
40.8877
 31
0.0
  0
LINE
  8
0
 62
     0
 10
197.831
 20
40.8877
 30
0.0
 11
183.832
 21
40.8877
 31
0.0
  0
LINE
  8
0
 62
     0
 10
164.782
 20
40.8877
 30
0.0
 11
164.782
 21
39.8872
 31
0.0
  0
LINE
  8
0
 62
     0
 10
164.782
 20
39.8872
 30
0.0
 11
163.981
 21
39.8872
 31
0.0
  0
LINE
  8
0
 62
     0
 10
163.981
 20
39.8872
 30
0.0
 11
163.981
 21
36.788
 31
0.0
  0
LINE
  8
0
 62
     0
 10
163.981
 20
36.788
 30
0.0
 11
164.782
 21
36.788
 31
0.0
  0
LINE
  8
0
 62
     0
 10
164.782
 20
36.788
 30
0.0
 11
164.782
 21
30.9879
 31
0.0
  0
LINE
  8
0
 62
     0
 10
164.782
 20
30.9879
 30
0.0
 11
163.981
 21
30.9879
 31
0.0
  0
LINE
  8
0
 62
     0
 10
163.981
 20
30.9879
 30
0.0
 11
163.981
 21
27.8874
 31
0.0
  0
LINE
  8
0
 62
     0
 10
163.981
 20
27.8874
 30
0.0
 11
164.782
 21
27.8874
 31
0.0
  0
LINE
  8
0
 62
     0
 10
164.782
 20
27.8874
 30
0.0
 11
164.782
 21
26.8883
 31
0.0
  0
LINE
  8
0
 62
     0
 10
164.782
 20
26.8883
 30
0.0
 11
178.781
 21
26.8883
 31
0.0
  0
LINE
  8
0
 62
     0
 10
178.781
 20
26.8883
 30
0.0
 11
178.781
 21
27.8874
 31
0.0
  0
LINE
  8
0
 62
     0
 10
178.781
 20
27.8874
 30
0.0
 11
179.582
 21
27.8874
 31
0.0
  0
LINE
  8
0
 62
     0
 10
179.582
 20
27.8874
 30
0.0
 11
179.582
 21
30.9879
 31
0.0
  0
LINE
  8
0
 62
     0
 10
179.582
 20
30.9879
 30
0.0
 11
178.781
 21
30.9879
 31
0.0
  0
LINE
  8
0
 62
     0
 10
178.781
 20
30.9879
 30
0.0
 11
178.781
 21
36.788
 31
0.0
  0
LINE
  8
0
 62
     0
 10
178.781
 20
36.788
 30
0.0
 11
179.582
 21
36.788
 31
0.0
  0
LINE
  8
0
 62
     0
 10
179.582
 20
36.788
 30
0.0
 11
179.582
 21
39.8872
 31
0.0
  0
LINE
  8
0
 62
     0
 10
179.582
 20
39.8872
 30
0.0
 11
178.781
 21
39.8872
 31
0.0
  0
LINE
  8
0
 62
     0
 10
178.781
 20
39.8872
 30
0.0
 11
178.781
 21
40.8877
 31
0.0
  0
LINE
  8
0
 62
     0
 10
178.781
 20
40.8877
 30
0.0
 11
164.782
 21
40.8877
 31
0.0
  0
LINE
  8
0
 62
     0
 10
107.632
 20
40.8877
 30
0.0
 11
107.632
 21
39.8872
 31
0.0
  0
LINE
  8
0
 62
     0
 10
107.632
 20
39.8872
 30
0.0
 11
106.831
 21
39.8872
 31
0.0
  0
LINE
  8
0
 62
     0
 10
106.831
 20
39.8872
 30
0.0
 11
106.831
 21
36.788
 31
0.0
  0
LINE
  8
0
 62
     0
 10
106.831
 20
36.788
 30
0.0
 11
107.632
 21
36.788
 31
0.0
  0
LINE
  8
0
 62
     0
 10
107.632
 20
36.788
 30
0.0
 11
107.632
 21
30.9879
 31
0.0
  0
LINE
  8
0
 62
     0
 10
107.632
 20
30.9879
 30
0.0
 11
106.831
 21
30.9879
 31
0.0
  0
LINE
  8
0
 62
     0
 10
106.831
 20
30.9879
 30
0.0
 11
106.831
 21
27.8874
 31
0.0
  0
LINE
  8
0
 62
     0
 10
106.831
 20
27.8874
 30
0.0
 11
107.632
 21
27.8874
 31
0.0
  0
LINE
  8
0
 62
     0
 10
107.632
 20
27.8874
 30
0.0
 11
107.632
 21
26.8883
 31
0.0
  0
LINE
  8
0
 62
     0
 10
107.632
 20
26.8883
 30
0.0
 11
121.631
 21
26.8883
 31
0.0
  0
LINE
  8
0
 62
     0
 10
121.631
 20
26.8883
 30
0.0
 11
121.631
 21
27.8874
 31
0.0
  0
LINE
  8
0
 62
     0
 10
121.631
 20
27.8874
 30
0.0
 11
122.432
 21
27.8874
 31
0.0
  0
LINE
  8
0
 62
     0
 10
122.432
 20
27.8874
 30
0.0
 11
122.432
 21
30.9879
 31
0.0
  0
LINE
  8
0
 62
     0
 10
122.432
 20
30.9879
 30
0.0
 11
121.631
 21
30.9879
 31
0.0
  0
LINE
  8
0
 62
     0
 10
121.631
 20
30.9879
 30
0.0
 11
121.631
 21
36.788
 31
0.0
  0
LINE
  8
0
 62
     0
 10
121.631
 20
36.788
 30
0.0
 11
122.432
 21
36.788
 31
0.0
  0
LINE
  8
0
 62
     0
 10
122.432
 20
36.788
 30
0.0
 11
122.432
 21
39.8872
 31
0.0
  0
LINE
  8
0
 62
     0
 10
122.432
 20
39.8872
 30
0.0
 11
121.631
 21
39.8872
 31
0.0
  0
LINE
  8
0
 62
     0
 10
121.631
 20
39.8872
 30
0.0
 11
121.631
 21
40.8877
 31
0.0
  0
LINE
  8
0
 62
     0
 10
121.631
 20
40.8877
 30
0.0
 11
107.632
 21
40.8877
 31
0.0
  0
LINE
  8
0
 62
     0
 10
88.5818
 20
40.8877
 30
0.0
 11
88.5818
 21
39.8872
 31
0.0
  0
LINE
  8
0
 62
     0
 10
88.5818
 20
39.8872
 30
0.0
 11
87.781
 21
39.8872
 31
0.0
  0
LINE
  8
0
 62
     0
 10
87.781
 20
39.8872
 30
0.0
 11
87.781
 21
36.788
 31
0.0
  0
LINE
  8
0
 62
     0
 10
87.781
 20
36.788
 30
0.0
 11
88.5818
 21
36.788
 31
0.0
  0
LINE
  8
0
 62
     0
 10
88.5818
 20
36.788
 30
0.0
 11
88.5818
 21
30.9879
 31
0.0
  0
LINE
  8
0
 62
     0
 10
88.5818
 20
30.9879
 30
0.0
 11
87.781
 21
30.9879
 31
0.0
  0
LINE
  8
0
 62
     0
 10
87.781
 20
30.9879
 30
0.0
 11
87.781
 21
27.8874
 31
0.0
  0
LINE
  8
0
 62
     0
 10
87.781
 20
27.8874
 30
0.0
 11
88.5818
 21
27.8874
 31
0.0
  0
LINE
  8
0
 62
     0
 10
88.5818
 20
27.8874
 30
0.0
 11
88.5818
 21
26.8883
 31
0.0
  0
LINE
  8
0
 62
     0
 10
88.5818
 20
26.8883
 30
0.0
 11
102.581
 21
26.8883
 31
0.0
  0
LINE
  8
0
 62
     0
 10
102.581
 20
26.8883
 30
0.0
 11
102.581
 21
27.8874
 31
0.0
  0
LINE
  8
0
 62
     0
 10
102.581
 20
27.8874
 30
0.0
 11
103.382
 21
27.8874
 31
0.0
  0
LINE
  8
0
 62
     0
 10
103.382
 20
27.8874
 30
0.0
 11
103.382
 21
30.9879
 31
0.0
  0
LINE
  8
0
 62
     0
 10
103.382
 20
30.9879
 30
0.0
 11
102.581
 21
30.9879
 31
0.0
  0
LINE
  8
0
 62
     0
 10
102.581
 20
30.9879
 30
0.0
 11
102.581
 21
36.788
 31
0.0
  0
LINE
  8
0
 62
     0
 10
102.581
 20
36.788
 30
0.0
 11
103.382
 21
36.788
 31
0.0
  0
LINE
  8
0
 62
     0
 10
103.382
 20
36.788
 30
0.0
 11
103.382
 21
39.8872
 31
0.0
  0
LINE
  8
0
 62
     0
 10
103.382
 20
39.8872
 30
0.0
 11
102.581
 21
39.8872
 31
0.0
  0
LINE
  8
0
 62
     0
 10
102.581
 20
39.8872
 30
0.0
 11
102.581
 21
40.8877
 31
0.0
  0
LINE
  8
0
 62
     0
 10
102.581
 20
40.8877
 30
0.0
 11
88.5818
 21
40.8877
 31
0.0
  0
LINE
  8
0
 62
     0
 10
69.5318
 20
40.8877
 30
0.0
 11
69.5318
 21
39.8872
 31
0.0
  0
LINE
  8
0
 62
     0
 10
69.5318
 20
39.8872
 30
0.0
 11
68.731
 21
39.8872
 31
0.0
  0
LINE
  8
0
 62
     0
 10
68.731
 20
39.8872
 30
0.0
 11
68.731
 21
36.788
 31
0.0
  0
LINE
  8
0
 62
     0
 10
68.731
 20
36.788
 30
0.0
 11
69.5318
 21
36.788
 31
0.0
  0
LINE
  8
0
 62
     0
 10
69.5318
 20
36.788
 30
0.0
 11
69.5318
 21
30.9879
 31
0.0
  0
LINE
  8
0
 62
     0
 10
69.5318
 20
30.9879
 30
0.0
 11
68.731
 21
30.9879
 31
0.0
  0
LINE
  8
0
 62
     0
 10
68.731
 20
30.9879
 30
0.0
 11
68.731
 21
27.8874
 31
0.0
  0
LINE
  8
0
 62
     0
 10
68.731
 20
27.8874
 30
0.0
 11
69.5318
 21
27.8874
 31
0.0
  0
LINE
  8
0
 62
     0
 10
69.5318
 20
27.8874
 30
0.0
 11
69.5318
 21
26.8883
 31
0.0
  0
LINE
  8
0
 62
     0
 10
69.5318
 20
26.8883
 30
0.0
 11
83.5311
 21
26.8883
 31
0.0
  0
LINE
  8
0
 62
     0
 10
83.5311
 20
26.8883
 30
0.0
 11
83.5311
 21
27.8874
 31
0.0
  0
LINE
  8
0
 62
     0
 10
83.5311
 20
27.8874
 30
0.0
 11
84.3319
 21
27.8874
 31
0.0
  0
LINE
  8
0
 62
     0
 10
84.3319
 20
27.8874
 30
0.0
 11
84.3319
 21
30.9879
 31
0.0
  0
LINE
  8
0
 62
     0
 10
84.3319
 20
30.9879
 30
0.0
 11
83.5311
 21
30.9879
 31
0.0
  0
LINE
  8
0
 62
     0
 10
83.5311
 20
30.9879
 30
0.0
 11
83.5311
 21
36.788
 31
0.0
  0
LINE
  8
0
 62
     0
 10
83.5311
 20
36.788
 30
0.0
 11
84.3319
 21
36.788
 31
0.0
  0
LINE
  8
0
 62
     0
 10
84.3319
 20
36.788
 30
0.0
 11
84.3319
 21
39.8872
 31
0.0
  0
LINE
  8
0
 62
     0
 10
84.3319
 20
39.8872
 30
0.0
 11
83.5311
 21
39.8872
 31
0.0
  0
LINE
  8
0
 62
     0
 10
83.5311
 20
39.8872
 30
0.0
 11
83.5311
 21
40.8877
 31
0.0
  0
LINE
  8
0
 62
     0
 10
83.5311
 20
40.8877
 30
0.0
 11
69.5318
 21
40.8877
 31
0.0
  0
LINE
  8
0
 62
     0
 10
50.4818
 20
40.8877
 30
0.0
 11
50.4818
 21
39.8872
 31
0.0
  0
LINE
  8
0
 62
     0
 10
50.4818
 20
39.8872
 30
0.0
 11
49.681
 21
39.8872
 31
0.0
  0
LINE
  8
0
 62
     0
 10
49.681
 20
39.8872
 30
0.0
 11
49.681
 21
36.788
 31
0.0
  0
LINE
  8
0
 62
     0
 10
49.681
 20
36.788
 30
0.0
 11
50.4818
 21
36.788
 31
0.0
  0
LINE
  8
0
 62
     0
 10
50.4818
 20
36.788
 30
0.0
 11
50.4818
 21
30.9879
 31
0.0
  0
LINE
  8
0
 62
     0
 10
50.4818
 20
30.9879
 30
0.0
 11
49.681
 21
30.9879
 31
0.0
  0
LINE
  8
0
 62
     0
 10
49.681
 20
30.9879
 30
0.0
 11
49.681
 21
27.8874
 31
0.0
  0
LINE
  8
0
 62
     0
 10
49.681
 20
27.8874
 30
0.0
 11
50.4818
 21
27.8874
 31
0.0
  0
LINE
  8
0
 62
     0
 10
50.4818
 20
27.8874
 30
0.0
 11
50.4818
 21
26.8883
 31
0.0
  0
LINE
  8
0
 62
     0
 10
50.4818
 20
26.8883
 30
0.0
 11
64.4811
 21
26.8883
 31
0.0
  0
LINE
  8
0
 62
     0
 10
64.4811
 20
26.8883
 30
0.0
 11
64.4811
 21
27.8874
 31
0.0
  0
LINE
  8
0
 62
     0
 10
64.4811
 20
27.8874
 30
0.0
 11
65.2819
 21
27.8874
 31
0.0
  0
LINE
  8
0
 62
     0
 10
65.2819
 20
27.8874
 30
0.0
 11
65.2819
 21
30.9879
 31
0.0
  0
LINE
  8
0
 62
     0
 10
65.2819
 20
30.9879
 30
0.0
 11
64.4811
 21
30.9879
 31
0.0
  0
LINE
  8
0
 62
     0
 10
64.4811
 20
30.9879
 30
0.0
 11
64.4811
 21
36.788
 31
0.0
  0
LINE
  8
0
 62
     0
 10
64.4811
 20
36.788
 30
0.0
 11
65.2819
 21
36.788
 31
0.0
  0
LINE
  8
0
 62
     0
 10
65.2819
 20
36.788
 30
0.0
 11
65.2819
 21
39.8872
 31
0.0
  0
LINE
  8
0
 62
     0
 10
65.2819
 20
39.8872
 30
0.0
 11
64.4811
 21
39.8872
 31
0.0
  0
LINE
  8
0
 62
     0
 10
64.4811
 20
39.8872
 30
0.0
 11
64.4811
 21
40.8877
 31
0.0
  0
LINE
  8
0
 62
     0
 10
64.4811
 20
40.8877
 30
0.0
 11
50.4818
 21
40.8877
 31
0.0
  0
LINE
  8
0
 62
     0
 10
379.095
 20
59.9376
 30
0.0
 11
379.095
 21
58.9372
 31
0.0
  0
LINE
  8
0
 62
     0
 10
379.095
 20
58.9372
 30
0.0
 11
378.294
 21
58.9372
 31
0.0
  0
LINE
  8
0
 62
     0
 10
378.294
 20
58.9372
 30
0.0
 11
378.294
 21
55.838
 31
0.0
  0
LINE
  8
0
 62
     0
 10
378.294
 20
55.838
 30
0.0
 11
379.095
 21
55.838
 31
0.0
  0
LINE
  8
0
 62
     0
 10
379.095
 20
55.838
 30
0.0
 11
379.095
 21
50.038
 31
0.0
  0
LINE
  8
0
 62
     0
 10
379.095
 20
50.038
 30
0.0
 11
378.294
 21
50.038
 31
0.0
  0
LINE
  8
0
 62
     0
 10
378.294
 20
50.038
 30
0.0
 11
378.294
 21
46.9374
 31
0.0
  0
LINE
  8
0
 62
     0
 10
378.294
 20
46.9374
 30
0.0
 11
379.095
 21
46.9374
 31
0.0
  0
LINE
  8
0
 62
     0
 10
379.095
 20
46.9374
 30
0.0
 11
379.095
 21
45.9384
 31
0.0
  0
LINE
  8
0
 62
     0
 10
379.095
 20
45.9384
 30
0.0
 11
393.097
 21
45.9384
 31
0.0
  0
LINE
  8
0
 62
     0
 10
393.097
 20
45.9384
 30
0.0
 11
393.097
 21
46.9374
 31
0.0
  0
LINE
  8
0
 62
     0
 10
393.097
 20
46.9374
 30
0.0
 11
393.894
 21
46.9374
 31
0.0
  0
LINE
  8
0
 62
     0
 10
393.894
 20
46.9374
 30
0.0
 11
393.894
 21
50.038
 31
0.0
  0
LINE
  8
0
 62
     0
 10
393.894
 20
50.038
 30
0.0
 11
393.097
 21
50.038
 31
0.0
  0
LINE
  8
0
 62
     0
 10
393.097
 20
50.038
 30
0.0
 11
393.097
 21
55.838
 31
0.0
  0
LINE
  8
0
 62
     0
 10
393.097
 20
55.838
 30
0.0
 11
393.894
 21
55.838
 31
0.0
  0
LINE
  8
0
 62
     0
 10
393.894
 20
55.838
 30
0.0
 11
393.894
 21
58.9372
 31
0.0
  0
LINE
  8
0
 62
     0
 10
393.894
 20
58.9372
 30
0.0
 11
393.097
 21
58.9372
 31
0.0
  0
LINE
  8
0
 62
     0
 10
393.097
 20
58.9372
 30
0.0
 11
393.097
 21
59.9376
 31
0.0
  0
LINE
  8
0
 62
     0
 10
393.097
 20
59.9376
 30
0.0
 11
379.095
 21
59.9376
 31
0.0
  0
LINE
  8
0
 62
     0
 10
360.045
 20
59.9376
 30
0.0
 11
360.045
 21
58.9372
 31
0.0
  0
LINE
  8
0
 62
     0
 10
360.045
 20
58.9372
 30
0.0
 11
359.244
 21
58.9372
 31
0.0
  0
LINE
  8
0
 62
     0
 10
359.244
 20
58.9372
 30
0.0
 11
359.244
 21
55.838
 31
0.0
  0
LINE
  8
0
 62
     0
 10
359.244
 20
55.838
 30
0.0
 11
360.045
 21
55.838
 31
0.0
  0
LINE
  8
0
 62
     0
 10
360.045
 20
55.838
 30
0.0
 11
360.045
 21
50.038
 31
0.0
  0
LINE
  8
0
 62
     0
 10
360.045
 20
50.038
 30
0.0
 11
359.244
 21
50.038
 31
0.0
  0
LINE
  8
0
 62
     0
 10
359.244
 20
50.038
 30
0.0
 11
359.244
 21
46.9374
 31
0.0
  0
LINE
  8
0
 62
     0
 10
359.244
 20
46.9374
 30
0.0
 11
360.045
 21
46.9374
 31
0.0
  0
LINE
  8
0
 62
     0
 10
360.045
 20
46.9374
 30
0.0
 11
360.045
 21
45.9384
 31
0.0
  0
LINE
  8
0
 62
     0
 10
360.045
 20
45.9384
 30
0.0
 11
374.047
 21
45.9384
 31
0.0
  0
LINE
  8
0
 62
     0
 10
374.047
 20
45.9384
 30
0.0
 11
374.047
 21
46.9374
 31
0.0
  0
LINE
  8
0
 62
     0
 10
374.047
 20
46.9374
 30
0.0
 11
374.844
 21
46.9374
 31
0.0
  0
LINE
  8
0
 62
     0
 10
374.844
 20
46.9374
 30
0.0
 11
374.844
 21
50.038
 31
0.0
  0
LINE
  8
0
 62
     0
 10
374.844
 20
50.038
 30
0.0
 11
374.047
 21
50.038
 31
0.0
  0
LINE
  8
0
 62
     0
 10
374.047
 20
50.038
 30
0.0
 11
374.047
 21
55.838
 31
0.0
  0
LINE
  8
0
 62
     0
 10
374.047
 20
55.838
 30
0.0
 11
374.844
 21
55.838
 31
0.0
  0
LINE
  8
0
 62
     0
 10
374.844
 20
55.838
 30
0.0
 11
374.844
 21
58.9372
 31
0.0
  0
LINE
  8
0
 62
     0
 10
374.844
 20
58.9372
 30
0.0
 11
374.047
 21
58.9372
 31
0.0
  0
LINE
  8
0
 62
     0
 10
374.047
 20
58.9372
 30
0.0
 11
374.047
 21
59.9376
 31
0.0
  0
LINE
  8
0
 62
     0
 10
374.047
 20
59.9376
 30
0.0
 11
360.045
 21
59.9376
 31
0.0
  0
LINE
  8
0
 62
     0
 10
340.994
 20
59.9376
 30
0.0
 11
340.994
 21
58.9372
 31
0.0
  0
LINE
  8
0
 62
     0
 10
340.994
 20
58.9372
 30
0.0
 11
340.195
 21
58.9372
 31
0.0
  0
LINE
  8
0
 62
     0
 10
340.195
 20
58.9372
 30
0.0
 11
340.195
 21
55.838
 31
0.0
  0
LINE
  8
0
 62
     0
 10
340.195
 20
55.838
 30
0.0
 11
340.994
 21
55.838
 31
0.0
  0
LINE
  8
0
 62
     0
 10
340.994
 20
55.838
 30
0.0
 11
340.994
 21
50.038
 31
0.0
  0
LINE
  8
0
 62
     0
 10
340.994
 20
50.038
 30
0.0
 11
340.195
 21
50.038
 31
0.0
  0
LINE
  8
0
 62
     0
 10
340.195
 20
50.038
 30
0.0
 11
340.195
 21
46.9374
 31
0.0
  0
LINE
  8
0
 62
     0
 10
340.195
 20
46.9374
 30
0.0
 11
340.994
 21
46.9374
 31
0.0
  0
LINE
  8
0
 62
     0
 10
340.994
 20
46.9374
 30
0.0
 11
340.994
 21
45.9384
 31
0.0
  0
LINE
  8
0
 62
     0
 10
340.994
 20
45.9384
 30
0.0
 11
354.997
 21
45.9384
 31
0.0
  0
LINE
  8
0
 62
     0
 10
354.997
 20
45.9384
 30
0.0
 11
354.997
 21
46.9374
 31
0.0
  0
LINE
  8
0
 62
     0
 10
354.997
 20
46.9374
 30
0.0
 11
355.794
 21
46.9374
 31
0.0
  0
LINE
  8
0
 62
     0
 10
355.794
 20
46.9374
 30
0.0
 11
355.794
 21
50.038
 31
0.0
  0
LINE
  8
0
 62
     0
 10
355.794
 20
50.038
 30
0.0
 11
354.997
 21
50.038
 31
0.0
  0
LINE
  8
0
 62
     0
 10
354.997
 20
50.038
 30
0.0
 11
354.997
 21
55.838
 31
0.0
  0
LINE
  8
0
 62
     0
 10
354.997
 20
55.838
 30
0.0
 11
355.794
 21
55.838
 31
0.0
  0
LINE
  8
0
 62
     0
 10
355.794
 20
55.838
 30
0.0
 11
355.794
 21
58.9372
 31
0.0
  0
LINE
  8
0
 62
     0
 10
355.794
 20
58.9372
 30
0.0
 11
354.997
 21
58.9372
 31
0.0
  0
LINE
  8
0
 62
     0
 10
354.997
 20
58.9372
 30
0.0
 11
354.997
 21
59.9376
 31
0.0
  0
LINE
  8
0
 62
     0
 10
354.997
 20
59.9376
 30
0.0
 11
340.994
 21
59.9376
 31
0.0
  0
LINE
  8
0
 62
     0
 10
288.607
 20
59.9376
 30
0.0
 11
288.607
 21
58.9372
 31
0.0
  0
LINE
  8
0
 62
     0
 10
288.607
 20
58.9372
 30
0.0
 11
287.806
 21
58.9372
 31
0.0
  0
LINE
  8
0
 62
     0
 10
287.806
 20
58.9372
 30
0.0
 11
287.806
 21
55.838
 31
0.0
  0
LINE
  8
0
 62
     0
 10
287.806
 20
55.838
 30
0.0
 11
288.607
 21
55.838
 31
0.0
  0
LINE
  8
0
 62
     0
 10
288.607
 20
55.838
 30
0.0
 11
288.607
 21
50.038
 31
0.0
  0
LINE
  8
0
 62
     0
 10
288.607
 20
50.038
 30
0.0
 11
287.806
 21
50.038
 31
0.0
  0
LINE
  8
0
 62
     0
 10
287.806
 20
50.038
 30
0.0
 11
287.806
 21
46.9374
 31
0.0
  0
LINE
  8
0
 62
     0
 10
287.806
 20
46.9374
 30
0.0
 11
288.607
 21
46.9374
 31
0.0
  0
LINE
  8
0
 62
     0
 10
288.607
 20
46.9374
 30
0.0
 11
288.607
 21
45.9384
 31
0.0
  0
LINE
  8
0
 62
     0
 10
288.607
 20
45.9384
 30
0.0
 11
302.606
 21
45.9384
 31
0.0
  0
LINE
  8
0
 62
     0
 10
302.606
 20
45.9384
 30
0.0
 11
302.606
 21
46.9374
 31
0.0
  0
LINE
  8
0
 62
     0
 10
302.606
 20
46.9374
 30
0.0
 11
303.407
 21
46.9374
 31
0.0
  0
LINE
  8
0
 62
     0
 10
303.407
 20
46.9374
 30
0.0
 11
303.407
 21
50.038
 31
0.0
  0
LINE
  8
0
 62
     0
 10
303.407
 20
50.038
 30
0.0
 11
302.606
 21
50.038
 31
0.0
  0
LINE
  8
0
 62
     0
 10
302.606
 20
50.038
 30
0.0
 11
302.606
 21
55.838
 31
0.0
  0
LINE
  8
0
 62
     0
 10
302.606
 20
55.838
 30
0.0
 11
303.407
 21
55.838
 31
0.0
  0
LINE
  8
0
 62
     0
 10
303.407
 20
55.838
 30
0.0
 11
303.407
 21
58.9372
 31
0.0
  0
LINE
  8
0
 62
     0
 10
303.407
 20
58.9372
 30
0.0
 11
302.606
 21
58.9372
 31
0.0
  0
LINE
  8
0
 62
     0
 10
302.606
 20
58.9372
 30
0.0
 11
302.606
 21
59.9376
 31
0.0
  0
LINE
  8
0
 62
     0
 10
302.606
 20
59.9376
 30
0.0
 11
288.607
 21
59.9376
 31
0.0
  0
LINE
  8
0
 62
     0
 10
269.557
 20
59.9376
 30
0.0
 11
269.557
 21
58.9372
 31
0.0
  0
LINE
  8
0
 62
     0
 10
269.557
 20
58.9372
 30
0.0
 11
268.756
 21
58.9372
 31
0.0
  0
LINE
  8
0
 62
     0
 10
268.756
 20
58.9372
 30
0.0
 11
268.756
 21
55.838
 31
0.0
  0
LINE
  8
0
 62
     0
 10
268.756
 20
55.838
 30
0.0
 11
269.557
 21
55.838
 31
0.0
  0
LINE
  8
0
 62
     0
 10
269.557
 20
55.838
 30
0.0
 11
269.557
 21
50.038
 31
0.0
  0
LINE
  8
0
 62
     0
 10
269.557
 20
50.038
 30
0.0
 11
268.756
 21
50.038
 31
0.0
  0
LINE
  8
0
 62
     0
 10
268.756
 20
50.038
 30
0.0
 11
268.756
 21
46.9374
 31
0.0
  0
LINE
  8
0
 62
     0
 10
268.756
 20
46.9374
 30
0.0
 11
269.557
 21
46.9374
 31
0.0
  0
LINE
  8
0
 62
     0
 10
269.557
 20
46.9374
 30
0.0
 11
269.557
 21
45.9384
 31
0.0
  0
LINE
  8
0
 62
     0
 10
269.557
 20
45.9384
 30
0.0
 11
283.556
 21
45.9384
 31
0.0
  0
LINE
  8
0
 62
     0
 10
283.556
 20
45.9384
 30
0.0
 11
283.556
 21
46.9374
 31
0.0
  0
LINE
  8
0
 62
     0
 10
283.556
 20
46.9374
 30
0.0
 11
284.357
 21
46.9374
 31
0.0
  0
LINE
  8
0
 62
     0
 10
284.357
 20
46.9374
 30
0.0
 11
284.357
 21
50.038
 31
0.0
  0
LINE
  8
0
 62
     0
 10
284.357
 20
50.038
 30
0.0
 11
283.556
 21
50.038
 31
0.0
  0
LINE
  8
0
 62
     0
 10
283.556
 20
50.038
 30
0.0
 11
283.556
 21
55.838
 31
0.0
  0
LINE
  8
0
 62
     0
 10
283.556
 20
55.838
 30
0.0
 11
284.357
 21
55.838
 31
0.0
  0
LINE
  8
0
 62
     0
 10
284.357
 20
55.838
 30
0.0
 11
284.357
 21
58.9372
 31
0.0
  0
LINE
  8
0
 62
     0
 10
284.357
 20
58.9372
 30
0.0
 11
283.556
 21
58.9372
 31
0.0
  0
LINE
  8
0
 62
     0
 10
283.556
 20
58.9372
 30
0.0
 11
283.556
 21
59.9376
 31
0.0
  0
LINE
  8
0
 62
     0
 10
283.556
 20
59.9376
 30
0.0
 11
269.557
 21
59.9376
 31
0.0
  0
LINE
  8
0
 62
     0
 10
250.507
 20
59.9376
 30
0.0
 11
250.507
 21
58.9372
 31
0.0
  0
LINE
  8
0
 62
     0
 10
250.507
 20
58.9372
 30
0.0
 11
249.706
 21
58.9372
 31
0.0
  0
LINE
  8
0
 62
     0
 10
249.706
 20
58.9372
 30
0.0
 11
249.706
 21
55.838
 31
0.0
  0
LINE
  8
0
 62
     0
 10
249.706
 20
55.838
 30
0.0
 11
250.507
 21
55.838
 31
0.0
  0
LINE
  8
0
 62
     0
 10
250.507
 20
55.838
 30
0.0
 11
250.507
 21
50.038
 31
0.0
  0
LINE
  8
0
 62
     0
 10
250.507
 20
50.038
 30
0.0
 11
249.706
 21
50.038
 31
0.0
  0
LINE
  8
0
 62
     0
 10
249.706
 20
50.038
 30
0.0
 11
249.706
 21
46.9374
 31
0.0
  0
LINE
  8
0
 62
     0
 10
249.706
 20
46.9374
 30
0.0
 11
250.507
 21
46.9374
 31
0.0
  0
LINE
  8
0
 62
     0
 10
250.507
 20
46.9374
 30
0.0
 11
250.507
 21
45.9384
 31
0.0
  0
LINE
  8
0
 62
     0
 10
250.507
 20
45.9384
 30
0.0
 11
264.506
 21
45.9384
 31
0.0
  0
LINE
  8
0
 62
     0
 10
264.506
 20
45.9384
 30
0.0
 11
264.506
 21
46.9374
 31
0.0
  0
LINE
  8
0
 62
     0
 10
264.506
 20
46.9374
 30
0.0
 11
265.307
 21
46.9374
 31
0.0
  0
LINE
  8
0
 62
     0
 10
265.307
 20
46.9374
 30
0.0
 11
265.307
 21
50.038
 31
0.0
  0
LINE
  8
0
 62
     0
 10
265.307
 20
50.038
 30
0.0
 11
264.506
 21
50.038
 31
0.0
  0
LINE
  8
0
 62
     0
 10
264.506
 20
50.038
 30
0.0
 11
264.506
 21
55.838
 31
0.0
  0
LINE
  8
0
 62
     0
 10
264.506
 20
55.838
 30
0.0
 11
265.307
 21
55.838
 31
0.0
  0
LINE
  8
0
 62
     0
 10
265.307
 20
55.838
 30
0.0
 11
265.307
 21
58.9372
 31
0.0
  0
LINE
  8
0
 62
     0
 10
265.307
 20
58.9372
 30
0.0
 11
264.506
 21
58.9372
 31
0.0
  0
LINE
  8
0
 62
     0
 10
264.506
 20
58.9372
 30
0.0
 11
264.506
 21
59.9376
 31
0.0
  0
LINE
  8
0
 62
     0
 10
264.506
 20
59.9376
 30
0.0
 11
250.507
 21
59.9376
 31
0.0
  0
LINE
  8
0
 62
     0
 10
231.457
 20
59.9376
 30
0.0
 11
231.457
 21
58.9372
 31
0.0
  0
LINE
  8
0
 62
     0
 10
231.457
 20
58.9372
 30
0.0
 11
230.656
 21
58.9372
 31
0.0
  0
LINE
  8
0
 62
     0
 10
230.656
 20
58.9372
 30
0.0
 11
230.656
 21
55.838
 31
0.0
  0
LINE
  8
0
 62
     0
 10
230.656
 20
55.838
 30
0.0
 11
231.457
 21
55.838
 31
0.0
  0
LINE
  8
0
 62
     0
 10
231.457
 20
55.838
 30
0.0
 11
231.457
 21
50.038
 31
0.0
  0
LINE
  8
0
 62
     0
 10
231.457
 20
50.038
 30
0.0
 11
230.656
 21
50.038
 31
0.0
  0
LINE
  8
0
 62
     0
 10
230.656
 20
50.038
 30
0.0
 11
230.656
 21
46.9374
 31
0.0
  0
LINE
  8
0
 62
     0
 10
230.656
 20
46.9374
 30
0.0
 11
231.457
 21
46.9374
 31
0.0
  0
LINE
  8
0
 62
     0
 10
231.457
 20
46.9374
 30
0.0
 11
231.457
 21
45.9384
 31
0.0
  0
LINE
  8
0
 62
     0
 10
231.457
 20
45.9384
 30
0.0
 11
245.456
 21
45.9384
 31
0.0
  0
LINE
  8
0
 62
     0
 10
245.456
 20
45.9384
 30
0.0
 11
245.456
 21
46.9374
 31
0.0
  0
LINE
  8
0
 62
     0
 10
245.456
 20
46.9374
 30
0.0
 11
246.257
 21
46.9374
 31
0.0
  0
LINE
  8
0
 62
     0
 10
246.257
 20
46.9374
 30
0.0
 11
246.257
 21
50.038
 31
0.0
  0
LINE
  8
0
 62
     0
 10
246.257
 20
50.038
 30
0.0
 11
245.456
 21
50.038
 31
0.0
  0
LINE
  8
0
 62
     0
 10
245.456
 20
50.038
 30
0.0
 11
245.456
 21
55.838
 31
0.0
  0
LINE
  8
0
 62
     0
 10
245.456
 20
55.838
 30
0.0
 11
246.257
 21
55.838
 31
0.0
  0
LINE
  8
0
 62
     0
 10
246.257
 20
55.838
 30
0.0
 11
246.257
 21
58.9372
 31
0.0
  0
LINE
  8
0
 62
     0
 10
246.257
 20
58.9372
 30
0.0
 11
245.456
 21
58.9372
 31
0.0
  0
LINE
  8
0
 62
     0
 10
245.456
 20
58.9372
 30
0.0
 11
245.456
 21
59.9376
 31
0.0
  0
LINE
  8
0
 62
     0
 10
245.456
 20
59.9376
 30
0.0
 11
231.457
 21
59.9376
 31
0.0
  0
LINE
  8
0
 62
     0
 10
212.407
 20
59.9376
 30
0.0
 11
212.407
 21
58.9372
 31
0.0
  0
LINE
  8
0
 62
     0
 10
212.407
 20
58.9372
 30
0.0
 11
211.606
 21
58.9372
 31
0.0
  0
LINE
  8
0
 62
     0
 10
211.606
 20
58.9372
 30
0.0
 11
211.606
 21
55.838
 31
0.0
  0
LINE
  8
0
 62
     0
 10
211.606
 20
55.838
 30
0.0
 11
212.407
 21
55.838
 31
0.0
  0
LINE
  8
0
 62
     0
 10
212.407
 20
55.838
 30
0.0
 11
212.407
 21
50.038
 31
0.0
  0
LINE
  8
0
 62
     0
 10
212.407
 20
50.038
 30
0.0
 11
211.606
 21
50.038
 31
0.0
  0
LINE
  8
0
 62
     0
 10
211.606
 20
50.038
 30
0.0
 11
211.606
 21
46.9374
 31
0.0
  0
LINE
  8
0
 62
     0
 10
211.606
 20
46.9374
 30
0.0
 11
212.407
 21
46.9374
 31
0.0
  0
LINE
  8
0
 62
     0
 10
212.407
 20
46.9374
 30
0.0
 11
212.407
 21
45.9384
 31
0.0
  0
LINE
  8
0
 62
     0
 10
212.407
 20
45.9384
 30
0.0
 11
226.406
 21
45.9384
 31
0.0
  0
LINE
  8
0
 62
     0
 10
226.406
 20
45.9384
 30
0.0
 11
226.406
 21
46.9374
 31
0.0
  0
LINE
  8
0
 62
     0
 10
226.406
 20
46.9374
 30
0.0
 11
227.207
 21
46.9374
 31
0.0
  0
LINE
  8
0
 62
     0
 10
227.207
 20
46.9374
 30
0.0
 11
227.207
 21
50.038
 31
0.0
  0
LINE
  8
0
 62
     0
 10
227.207
 20
50.038
 30
0.0
 11
226.406
 21
50.038
 31
0.0
  0
LINE
  8
0
 62
     0
 10
226.406
 20
50.038
 30
0.0
 11
226.406
 21
55.838
 31
0.0
  0
LINE
  8
0
 62
     0
 10
226.406
 20
55.838
 30
0.0
 11
227.207
 21
55.838
 31
0.0
  0
LINE
  8
0
 62
     0
 10
227.207
 20
55.838
 30
0.0
 11
227.207
 21
58.9372
 31
0.0
  0
LINE
  8
0
 62
     0
 10
227.207
 20
58.9372
 30
0.0
 11
226.406
 21
58.9372
 31
0.0
  0
LINE
  8
0
 62
     0
 10
226.406
 20
58.9372
 30
0.0
 11
226.406
 21
59.9376
 31
0.0
  0
LINE
  8
0
 62
     0
 10
226.406
 20
59.9376
 30
0.0
 11
212.407
 21
59.9376
 31
0.0
  0
LINE
  8
0
 62
     0
 10
193.357
 20
59.9376
 30
0.0
 11
193.357
 21
58.9372
 31
0.0
  0
LINE
  8
0
 62
     0
 10
193.357
 20
58.9372
 30
0.0
 11
192.556
 21
58.9372
 31
0.0
  0
LINE
  8
0
 62
     0
 10
192.556
 20
58.9372
 30
0.0
 11
192.556
 21
55.838
 31
0.0
  0
LINE
  8
0
 62
     0
 10
192.556
 20
55.838
 30
0.0
 11
193.357
 21
55.838
 31
0.0
  0
LINE
  8
0
 62
     0
 10
193.357
 20
55.838
 30
0.0
 11
193.357
 21
50.038
 31
0.0
  0
LINE
  8
0
 62
     0
 10
193.357
 20
50.038
 30
0.0
 11
192.556
 21
50.038
 31
0.0
  0
LINE
  8
0
 62
     0
 10
192.556
 20
50.038
 30
0.0
 11
192.556
 21
46.9374
 31
0.0
  0
LINE
  8
0
 62
     0
 10
192.556
 20
46.9374
 30
0.0
 11
193.357
 21
46.9374
 31
0.0
  0
LINE
  8
0
 62
     0
 10
193.357
 20
46.9374
 30
0.0
 11
193.357
 21
45.9384
 31
0.0
  0
LINE
  8
0
 62
     0
 10
193.357
 20
45.9384
 30
0.0
 11
207.356
 21
45.9384
 31
0.0
  0
LINE
  8
0
 62
     0
 10
207.356
 20
45.9384
 30
0.0
 11
207.356
 21
46.9374
 31
0.0
  0
LINE
  8
0
 62
     0
 10
207.356
 20
46.9374
 30
0.0
 11
208.157
 21
46.9374
 31
0.0
  0
LINE
  8
0
 62
     0
 10
208.157
 20
46.9374
 30
0.0
 11
208.157
 21
50.038
 31
0.0
  0
LINE
  8
0
 62
     0
 10
208.157
 20
50.038
 30
0.0
 11
207.356
 21
50.038
 31
0.0
  0
LINE
  8
0
 62
     0
 10
207.356
 20
50.038
 30
0.0
 11
207.356
 21
55.838
 31
0.0
  0
LINE
  8
0
 62
     0
 10
207.356
 20
55.838
 30
0.0
 11
208.157
 21
55.838
 31
0.0
  0
LINE
  8
0
 62
     0
 10
208.157
 20
55.838
 30
0.0
 11
208.157
 21
58.9372
 31
0.0
  0
LINE
  8
0
 62
     0
 10
208.157
 20
58.9372
 30
0.0
 11
207.356
 21
58.9372
 31
0.0
  0
LINE
  8
0
 62
     0
 10
207.356
 20
58.9372
 30
0.0
 11
207.356
 21
59.9376
 31
0.0
  0
LINE
  8
0
 62
     0
 10
207.356
 20
59.9376
 30
0.0
 11
193.357
 21
59.9376
 31
0.0
  0
LINE
  8
0
 62
     0
 10
174.307
 20
59.9376
 30
0.0
 11
174.307
 21
58.9372
 31
0.0
  0
LINE
  8
0
 62
     0
 10
174.307
 20
58.9372
 30
0.0
 11
173.506
 21
58.9372
 31
0.0
  0
LINE
  8
0
 62
     0
 10
173.506
 20
58.9372
 30
0.0
 11
173.506
 21
55.838
 31
0.0
  0
LINE
  8
0
 62
     0
 10
173.506
 20
55.838
 30
0.0
 11
174.307
 21
55.838
 31
0.0
  0
LINE
  8
0
 62
     0
 10
174.307
 20
55.838
 30
0.0
 11
174.307
 21
50.038
 31
0.0
  0
LINE
  8
0
 62
     0
 10
174.307
 20
50.038
 30
0.0
 11
173.506
 21
50.038
 31
0.0
  0
LINE
  8
0
 62
     0
 10
173.506
 20
50.038
 30
0.0
 11
173.506
 21
46.9374
 31
0.0
  0
LINE
  8
0
 62
     0
 10
173.506
 20
46.9374
 30
0.0
 11
174.307
 21
46.9374
 31
0.0
  0
LINE
  8
0
 62
     0
 10
174.307
 20
46.9374
 30
0.0
 11
174.307
 21
45.9384
 31
0.0
  0
LINE
  8
0
 62
     0
 10
174.307
 20
45.9384
 30
0.0
 11
188.306
 21
45.9384
 31
0.0
  0
LINE
  8
0
 62
     0
 10
188.306
 20
45.9384
 30
0.0
 11
188.306
 21
46.9374
 31
0.0
  0
LINE
  8
0
 62
     0
 10
188.306
 20
46.9374
 30
0.0
 11
189.107
 21
46.9374
 31
0.0
  0
LINE
  8
0
 62
     0
 10
189.107
 20
46.9374
 30
0.0
 11
189.107
 21
50.038
 31
0.0
  0
LINE
  8
0
 62
     0
 10
189.107
 20
50.038
 30
0.0
 11
188.306
 21
50.038
 31
0.0
  0
LINE
  8
0
 62
     0
 10
188.306
 20
50.038
 30
0.0
 11
188.306
 21
55.838
 31
0.0
  0
LINE
  8
0
 62
     0
 10
188.306
 20
55.838
 30
0.0
 11
189.107
 21
55.838
 31
0.0
  0
LINE
  8
0
 62
     0
 10
189.107
 20
55.838
 30
0.0
 11
189.107
 21
58.9372
 31
0.0
  0
LINE
  8
0
 62
     0
 10
189.107
 20
58.9372
 30
0.0
 11
188.306
 21
58.9372
 31
0.0
  0
LINE
  8
0
 62
     0
 10
188.306
 20
58.9372
 30
0.0
 11
188.306
 21
59.9376
 31
0.0
  0
LINE
  8
0
 62
     0
 10
188.306
 20
59.9376
 30
0.0
 11
174.307
 21
59.9376
 31
0.0
  0
LINE
  8
0
 62
     0
 10
117.157
 20
59.9376
 30
0.0
 11
117.157
 21
58.9372
 31
0.0
  0
LINE
  8
0
 62
     0
 10
117.157
 20
58.9372
 30
0.0
 11
116.356
 21
58.9372
 31
0.0
  0
LINE
  8
0
 62
     0
 10
116.356
 20
58.9372
 30
0.0
 11
116.356
 21
55.838
 31
0.0
  0
LINE
  8
0
 62
     0
 10
116.356
 20
55.838
 30
0.0
 11
117.157
 21
55.838
 31
0.0
  0
LINE
  8
0
 62
     0
 10
117.157
 20
55.838
 30
0.0
 11
117.157
 21
50.038
 31
0.0
  0
LINE
  8
0
 62
     0
 10
117.157
 20
50.038
 30
0.0
 11
116.356
 21
50.038
 31
0.0
  0
LINE
  8
0
 62
     0
 10
116.356
 20
50.038
 30
0.0
 11
116.356
 21
46.9374
 31
0.0
  0
LINE
  8
0
 62
     0
 10
116.356
 20
46.9374
 30
0.0
 11
117.157
 21
46.9374
 31
0.0
  0
LINE
  8
0
 62
     0
 10
117.157
 20
46.9374
 30
0.0
 11
117.157
 21
45.9384
 31
0.0
  0
LINE
  8
0
 62
     0
 10
117.157
 20
45.9384
 30
0.0
 11
131.156
 21
45.9384
 31
0.0
  0
LINE
  8
0
 62
     0
 10
131.156
 20
45.9384
 30
0.0
 11
131.156
 21
46.9374
 31
0.0
  0
LINE
  8
0
 62
     0
 10
131.156
 20
46.9374
 30
0.0
 11
131.957
 21
46.9374
 31
0.0
  0
LINE
  8
0
 62
     0
 10
131.957
 20
46.9374
 30
0.0
 11
131.957
 21
50.038
 31
0.0
  0
LINE
  8
0
 62
     0
 10
131.957
 20
50.038
 30
0.0
 11
131.156
 21
50.038
 31
0.0
  0
LINE
  8
0
 62
     0
 10
131.156
 20
50.038
 30
0.0
 11
131.156
 21
55.838
 31
0.0
  0
LINE
  8
0
 62
     0
 10
131.156
 20
55.838
 30
0.0
 11
131.957
 21
55.838
 31
0.0
  0
LINE
  8
0
 62
     0
 10
131.957
 20
55.838
 30
0.0
 11
131.957
 21
58.9372
 31
0.0
  0
LINE
  8
0
 62
     0
 10
131.957
 20
58.9372
 30
0.0
 11
131.156
 21
58.9372
 31
0.0
  0
LINE
  8
0
 62
     0
 10
131.156
 20
58.9372
 30
0.0
 11
131.156
 21
59.9376
 31
0.0
  0
LINE
  8
0
 62
     0
 10
131.156
 20
59.9376
 30
0.0
 11
117.157
 21
59.9376
 31
0.0
  0
LINE
  8
0
 62
     0
 10
98.1068
 20
59.9376
 30
0.0
 11
98.1068
 21
58.9372
 31
0.0
  0
LINE
  8
0
 62
     0
 10
98.1068
 20
58.9372
 30
0.0
 11
97.306
 21
58.9372
 31
0.0
  0
LINE
  8
0
 62
     0
 10
97.306
 20
58.9372
 30
0.0
 11
97.306
 21
55.838
 31
0.0
  0
LINE
  8
0
 62
     0
 10
97.306
 20
55.838
 30
0.0
 11
98.1068
 21
55.838
 31
0.0
  0
LINE
  8
0
 62
     0
 10
98.1068
 20
55.838
 30
0.0
 11
98.1068
 21
50.038
 31
0.0
  0
LINE
  8
0
 62
     0
 10
98.1068
 20
50.038
 30
0.0
 11
97.306
 21
50.038
 31
0.0
  0
LINE
  8
0
 62
     0
 10
97.306
 20
50.038
 30
0.0
 11
97.306
 21
46.9374
 31
0.0
  0
LINE
  8
0
 62
     0
 10
97.306
 20
46.9374
 30
0.0
 11
98.1068
 21
46.9374
 31
0.0
  0
LINE
  8
0
 62
     0
 10
98.1068
 20
46.9374
 30
0.0
 11
98.1068
 21
45.9384
 31
0.0
  0
LINE
  8
0
 62
     0
 10
98.1068
 20
45.9384
 30
0.0
 11
112.106
 21
45.9384
 31
0.0
  0
LINE
  8
0
 62
     0
 10
112.106
 20
45.9384
 30
0.0
 11
112.106
 21
46.9374
 31
0.0
  0
LINE
  8
0
 62
     0
 10
112.106
 20
46.9374
 30
0.0
 11
112.907
 21
46.9374
 31
0.0
  0
LINE
  8
0
 62
     0
 10
112.907
 20
46.9374
 30
0.0
 11
112.907
 21
50.038
 31
0.0
  0
LINE
  8
0
 62
     0
 10
112.907
 20
50.038
 30
0.0
 11
112.106
 21
50.038
 31
0.0
  0
LINE
  8
0
 62
     0
 10
112.106
 20
50.038
 30
0.0
 11
112.106
 21
55.838
 31
0.0
  0
LINE
  8
0
 62
     0
 10
112.106
 20
55.838
 30
0.0
 11
112.907
 21
55.838
 31
0.0
  0
LINE
  8
0
 62
     0
 10
112.907
 20
55.838
 30
0.0
 11
112.907
 21
58.9372
 31
0.0
  0
LINE
  8
0
 62
     0
 10
112.907
 20
58.9372
 30
0.0
 11
112.106
 21
58.9372
 31
0.0
  0
LINE
  8
0
 62
     0
 10
112.106
 20
58.9372
 30
0.0
 11
112.106
 21
59.9376
 31
0.0
  0
LINE
  8
0
 62
     0
 10
112.106
 20
59.9376
 30
0.0
 11
98.1068
 21
59.9376
 31
0.0
  0
LINE
  8
0
 62
     0
 10
79.0568
 20
59.9376
 30
0.0
 11
79.0568
 21
58.9372
 31
0.0
  0
LINE
  8
0
 62
     0
 10
79.0568
 20
58.9372
 30
0.0
 11
78.256
 21
58.9372
 31
0.0
  0
LINE
  8
0
 62
     0
 10
78.256
 20
58.9372
 30
0.0
 11
78.256
 21
55.838
 31
0.0
  0
LINE
  8
0
 62
     0
 10
78.256
 20
55.838
 30
0.0
 11
79.0568
 21
55.838
 31
0.0
  0
LINE
  8
0
 62
     0
 10
79.0568
 20
55.838
 30
0.0
 11
79.0568
 21
50.038
 31
0.0
  0
LINE
  8
0
 62
     0
 10
79.0568
 20
50.038
 30
0.0
 11
78.256
 21
50.038
 31
0.0
  0
LINE
  8
0
 62
     0
 10
78.256
 20
50.038
 30
0.0
 11
78.256
 21
46.9374
 31
0.0
  0
LINE
  8
0
 62
     0
 10
78.256
 20
46.9374
 30
0.0
 11
79.0568
 21
46.9374
 31
0.0
  0
LINE
  8
0
 62
     0
 10
79.0568
 20
46.9374
 30
0.0
 11
79.0568
 21
45.9384
 31
0.0
  0
LINE
  8
0
 62
     0
 10
79.0568
 20
45.9384
 30
0.0
 11
93.0561
 21
45.9384
 31
0.0
  0
LINE
  8
0
 62
     0
 10
93.0561
 20
45.9384
 30
0.0
 11
93.0561
 21
46.9374
 31
0.0
  0
LINE
  8
0
 62
     0
 10
93.0561
 20
46.9374
 30
0.0
 11
93.8569
 21
46.9374
 31
0.0
  0
LINE
  8
0
 62
     0
 10
93.8569
 20
46.9374
 30
0.0
 11
93.8569
 21
50.038
 31
0.0
  0
LINE
  8
0
 62
     0
 10
93.8569
 20
50.038
 30
0.0
 11
93.0561
 21
50.038
 31
0.0
  0
LINE
  8
0
 62
     0
 10
93.0561
 20
50.038
 30
0.0
 11
93.0561
 21
55.838
 31
0.0
  0
LINE
  8
0
 62
     0
 10
93.0561
 20
55.838
 30
0.0
 11
93.8569
 21
55.838
 31
0.0
  0
LINE
  8
0
 62
     0
 10
93.8569
 20
55.838
 30
0.0
 11
93.8569
 21
58.9372
 31
0.0
  0
LINE
  8
0
 62
     0
 10
93.8569
 20
58.9372
 30
0.0
 11
93.0561
 21
58.9372
 31
0.0
  0
LINE
  8
0
 62
     0
 10
93.0561
 20
58.9372
 30
0.0
 11
93.0561
 21
59.9376
 31
0.0
  0
LINE
  8
0
 62
     0
 10
93.0561
 20
59.9376
 30
0.0
 11
79.0568
 21
59.9376
 31
0.0
  0
LINE
  8
0
 62
     0
 10
60.0068
 20
59.9376
 30
0.0
 11
60.0068
 21
58.9372
 31
0.0
  0
LINE
  8
0
 62
     0
 10
60.0068
 20
58.9372
 30
0.0
 11
59.206
 21
58.9372
 31
0.0
  0
LINE
  8
0
 62
     0
 10
59.206
 20
58.9372
 30
0.0
 11
59.206
 21
55.838
 31
0.0
  0
LINE
  8
0
 62
     0
 10
59.206
 20
55.838
 30
0.0
 11
60.0068
 21
55.838
 31
0.0
  0
LINE
  8
0
 62
     0
 10
60.0068
 20
55.838
 30
0.0
 11
60.0068
 21
50.038
 31
0.0
  0
LINE
  8
0
 62
     0
 10
60.0068
 20
50.038
 30
0.0
 11
59.206
 21
50.038
 31
0.0
  0
LINE
  8
0
 62
     0
 10
59.206
 20
50.038
 30
0.0
 11
59.206
 21
46.9374
 31
0.0
  0
LINE
  8
0
 62
     0
 10
59.206
 20
46.9374
 30
0.0
 11
60.0068
 21
46.9374
 31
0.0
  0
LINE
  8
0
 62
     0
 10
60.0068
 20
46.9374
 30
0.0
 11
60.0068
 21
45.9384
 31
0.0
  0
LINE
  8
0
 62
     0
 10
60.0068
 20
45.9384
 30
0.0
 11
74.0061
 21
45.9384
 31
0.0
  0
LINE
  8
0
 62
     0
 10
74.0061
 20
45.9384
 30
0.0
 11
74.0061
 21
46.9374
 31
0.0
  0
LINE
  8
0
 62
     0
 10
74.0061
 20
46.9374
 30
0.0
 11
74.8069
 21
46.9374
 31
0.0
  0
LINE
  8
0
 62
     0
 10
74.8069
 20
46.9374
 30
0.0
 11
74.8069
 21
50.038
 31
0.0
  0
LINE
  8
0
 62
     0
 10
74.8069
 20
50.038
 30
0.0
 11
74.0061
 21
50.038
 31
0.0
  0
LINE
  8
0
 62
     0
 10
74.0061
 20
50.038
 30
0.0
 11
74.0061
 21
55.838
 31
0.0
  0
LINE
  8
0
 62
     0
 10
74.0061
 20
55.838
 30
0.0
 11
74.8069
 21
55.838
 31
0.0
  0
LINE
  8
0
 62
     0
 10
74.8069
 20
55.838
 30
0.0
 11
74.8069
 21
58.9372
 31
0.0
  0
LINE
  8
0
 62
     0
 10
74.8069
 20
58.9372
 30
0.0
 11
74.0061
 21
58.9372
 31
0.0
  0
LINE
  8
0
 62
     0
 10
74.0061
 20
58.9372
 30
0.0
 11
74.0061
 21
59.9376
 31
0.0
  0
LINE
  8
0
 62
     0
 10
74.0061
 20
59.9376
 30
0.0
 11
60.0068
 21
59.9376
 31
0.0
  0
LINE
  8
0
 62
     0
 10
40.9568
 20
59.9376
 30
0.0
 11
40.9568
 21
58.9372
 31
0.0
  0
LINE
  8
0
 62
     0
 10
40.9568
 20
58.9372
 30
0.0
 11
40.156
 21
58.9372
 31
0.0
  0
LINE
  8
0
 62
     0
 10
40.156
 20
58.9372
 30
0.0
 11
40.156
 21
55.838
 31
0.0
  0
LINE
  8
0
 62
     0
 10
40.156
 20
55.838
 30
0.0
 11
40.9568
 21
55.838
 31
0.0
  0
LINE
  8
0
 62
     0
 10
40.9568
 20
55.838
 30
0.0
 11
40.9568
 21
50.038
 31
0.0
  0
LINE
  8
0
 62
     0
 10
40.9568
 20
50.038
 30
0.0
 11
40.156
 21
50.038
 31
0.0
  0
LINE
  8
0
 62
     0
 10
40.156
 20
50.038
 30
0.0
 11
40.156
 21
46.9374
 31
0.0
  0
LINE
  8
0
 62
     0
 10
40.156
 20
46.9374
 30
0.0
 11
40.9568
 21
46.9374
 31
0.0
  0
LINE
  8
0
 62
     0
 10
40.9568
 20
46.9374
 30
0.0
 11
40.9568
 21
45.9384
 31
0.0
  0
LINE
  8
0
 62
     0
 10
40.9568
 20
45.9384
 30
0.0
 11
54.9561
 21
45.9384
 31
0.0
  0
LINE
  8
0
 62
     0
 10
54.9561
 20
45.9384
 30
0.0
 11
54.9561
 21
46.9374
 31
0.0
  0
LINE
  8
0
 62
     0
 10
54.9561
 20
46.9374
 30
0.0
 11
55.7569
 21
46.9374
 31
0.0
  0
LINE
  8
0
 62
     0
 10
55.7569
 20
46.9374
 30
0.0
 11
55.7569
 21
50.038
 31
0.0
  0
LINE
  8
0
 62
     0
 10
55.7569
 20
50.038
 30
0.0
 11
54.9561
 21
50.038
 31
0.0
  0
LINE
  8
0
 62
     0
 10
54.9561
 20
50.038
 30
0.0
 11
54.9561
 21
55.838
 31
0.0
  0
LINE
  8
0
 62
     0
 10
54.9561
 20
55.838
 30
0.0
 11
55.7569
 21
55.838
 31
0.0
  0
LINE
  8
0
 62
     0
 10
55.7569
 20
55.838
 30
0.0
 11
55.7569
 21
58.9372
 31
0.0
  0
LINE
  8
0
 62
     0
 10
55.7569
 20
58.9372
 30
0.0
 11
54.9561
 21
58.9372
 31
0.0
  0
LINE
  8
0
 62
     0
 10
54.9561
 20
58.9372
 30
0.0
 11
54.9561
 21
59.9376
 31
0.0
  0
LINE
  8
0
 62
     0
 10
54.9561
 20
59.9376
 30
0.0
 11
40.9568
 21
59.9376
 31
0.0
  0
LINE
  8
0
 62
     0
 10
14.7629
 20
59.9376
 30
0.0
 11
14.7629
 21
58.9372
 31
0.0
  0
LINE
  8
0
 62
     0
 10
14.7629
 20
58.9372
 30
0.0
 11
13.9623
 21
58.9372
 31
0.0
  0
LINE
  8
0
 62
     0
 10
13.9623
 20
58.9372
 30
0.0
 11
13.9623
 21
55.838
 31
0.0
  0
LINE
  8
0
 62
     0
 10
13.9623
 20
55.838
 30
0.0
 11
14.7629
 21
55.838
 31
0.0
  0
LINE
  8
0
 62
     0
 10
14.7629
 20
55.838
 30
0.0
 11
14.7629
 21
50.038
 31
0.0
  0
LINE
  8
0
 62
     0
 10
14.7629
 20
50.038
 30
0.0
 11
13.9623
 21
50.038
 31
0.0
  0
LINE
  8
0
 62
     0
 10
13.9623
 20
50.038
 30
0.0
 11
13.9623
 21
46.9374
 31
0.0
  0
LINE
  8
0
 62
     0
 10
13.9623
 20
46.9374
 30
0.0
 11
14.7629
 21
46.9374
 31
0.0
  0
LINE
  8
0
 62
     0
 10
14.7629
 20
46.9374
 30
0.0
 11
14.7629
 21
45.9384
 31
0.0
  0
LINE
  8
0
 62
     0
 10
14.7629
 20
45.9384
 30
0.0
 11
28.7624
 21
45.9384
 31
0.0
  0
LINE
  8
0
 62
     0
 10
28.7624
 20
45.9384
 30
0.0
 11
28.7624
 21
46.9374
 31
0.0
  0
LINE
  8
0
 62
     0
 10
28.7624
 20
46.9374
 30
0.0
 11
29.5631
 21
46.9374
 31
0.0
  0
LINE
  8
0
 62
     0
 10
29.5631
 20
46.9374
 30
0.0
 11
29.5631
 21
50.038
 31
0.0
  0
LINE
  8
0
 62
     0
 10
29.5631
 20
50.038
 30
0.0
 11
28.7624
 21
50.038
 31
0.0
  0
LINE
  8
0
 62
     0
 10
28.7624
 20
50.038
 30
0.0
 11
28.7624
 21
55.838
 31
0.0
  0
LINE
  8
0
 62
     0
 10
28.7624
 20
55.838
 30
0.0
 11
29.5631
 21
55.838
 31
0.0
  0
LINE
  8
0
 62
     0
 10
29.5631
 20
55.838
 30
0.0
 11
29.5631
 21
58.9372
 31
0.0
  0
LINE
  8
0
 62
     0
 10
29.5631
 20
58.9372
 30
0.0
 11
28.7624
 21
58.9372
 31
0.0
  0
LINE
  8
0
 62
     0
 10
28.7624
 20
58.9372
 30
0.0
 11
28.7624
 21
59.9376
 31
0.0
  0
LINE
  8
0
 62
     0
 10
28.7624
 20
59.9376
 30
0.0
 11
14.7629
 21
59.9376
 31
0.0
  0
LINE
  8
0
 62
     0
 10
316.538
 20
78.5633
 30
0.0
 11
316.538
 21
77.7378
 31
0.0
  0
LINE
  8
0
 62
     0
 10
316.538
 20
77.7378
 30
0.0
 11
310.268
 21
77.7378
 31
0.0
  0
LINE
  8
0
 62
     0
 10
310.268
 20
77.7378
 30
0.0
 11
310.268
 21
76.0127
 31
0.0
  0
LINE
  8
0
 62
     0
 10
310.268
 20
76.0127
 30
0.0
 11
309.068
 21
76.0127
 31
0.0
  0
LINE
  8
0
 62
     0
 10
309.068
 20
76.0127
 30
0.0
 11
309.068
 21
72.7135
 31
0.0
  0
LINE
  8
0
 62
     0
 10
309.068
 20
72.7135
 30
0.0
 11
310.268
 21
72.7135
 31
0.0
  0
LINE
  8
0
 62
     0
 10
310.268
 20
72.7135
 30
0.0
 11
310.268
 21
70.9884
 31
0.0
  0
LINE
  8
0
 62
     0
 10
310.268
 20
70.9884
 30
0.0
 11
314.737
 21
70.9884
 31
0.0
  0
LINE
  8
0
 62
     0
 10
314.737
 20
70.9884
 30
0.0
 11
314.737
 21
69.4626
 31
0.0
  0
LINE
  8
0
 62
     0
 10
314.737
 20
69.4626
 30
0.0
 11
314.138
 21
69.4626
 31
0.0
  0
LINE
  8
0
 62
     0
 10
314.138
 20
69.4626
 30
0.0
 11
314.138
 21
70.2635
 31
0.0
  0
LINE
  8
0
 62
     0
 10
314.138
 20
70.2635
 30
0.0
 11
311.037
 21
70.2635
 31
0.0
  0
LINE
  8
0
 62
     0
 10
311.037
 20
70.2635
 30
0.0
 11
311.037
 21
69.4626
 31
0.0
  0
LINE
  8
0
 62
     0
 10
311.037
 20
69.4626
 30
0.0
 11
310.038
 21
69.4626
 31
0.0
  0
LINE
  8
0
 62
     0
 10
310.038
 20
69.4626
 30
0.0
 11
310.038
 21
55.4634
 31
0.0
  0
LINE
  8
0
 62
     0
 10
310.038
 20
55.4634
 30
0.0
 11
311.037
 21
55.4634
 31
0.0
  0
LINE
  8
0
 62
     0
 10
311.037
 20
55.4634
 30
0.0
 11
311.037
 21
54.6626
 31
0.0
  0
LINE
  8
0
 62
     0
 10
311.037
 20
54.6626
 30
0.0
 11
314.138
 21
54.6626
 31
0.0
  0
LINE
  8
0
 62
     0
 10
314.138
 20
54.6626
 30
0.0
 11
314.138
 21
55.4634
 31
0.0
  0
LINE
  8
0
 62
     0
 10
314.138
 20
55.4634
 30
0.0
 11
314.737
 21
55.4634
 31
0.0
  0
LINE
  8
0
 62
     0
 10
314.737
 20
55.4634
 30
0.0
 11
314.737
 21
53.938
 31
0.0
  0
LINE
  8
0
 62
     0
 10
314.737
 20
53.938
 30
0.0
 11
310.268
 21
53.938
 31
0.0
  0
LINE
  8
0
 62
     0
 10
310.268
 20
53.938
 30
0.0
 11
310.268
 21
52.2125
 31
0.0
  0
LINE
  8
0
 62
     0
 10
310.268
 20
52.2125
 30
0.0
 11
309.068
 21
52.2125
 31
0.0
  0
LINE
  8
0
 62
     0
 10
309.068
 20
52.2125
 30
0.0
 11
309.068
 21
48.9133
 31
0.0
  0
LINE
  8
0
 62
     0
 10
309.068
 20
48.9133
 30
0.0
 11
310.268
 21
48.9133
 31
0.0
  0
LINE
  8
0
 62
     0
 10
310.268
 20
48.9133
 30
0.0
 11
310.268
 21
47.1883
 31
0.0
  0
LINE
  8
0
 62
     0
 10
310.268
 20
47.1883
 30
0.0
 11
316.538
 21
47.1883
 31
0.0
  0
LINE
  8
0
 62
     0
 10
316.538
 20
47.1883
 30
0.0
 11
316.538
 21
46.3628
 31
0.0
  0
LINE
  8
0
 62
     0
 10
316.538
 20
46.3628
 30
0.0
 11
319.337
 21
46.3628
 31
0.0
  0
LINE
  8
0
 62
     0
 10
319.337
 20
46.3628
 30
0.0
 11
319.337
 21
47.1883
 31
0.0
  0
LINE
  8
0
 62
     0
 10
319.337
 20
47.1883
 30
0.0
 11
322.567
 21
47.1883
 31
0.0
  0
LINE
  8
0
 62
     0
 10
322.567
 20
47.1883
 30
0.0
 11
322.567
 21
53.938
 31
0.0
  0
LINE
  8
0
 62
     0
 10
322.567
 20
53.938
 30
0.0
 11
319.337
 21
53.938
 31
0.0
  0
LINE
  8
0
 62
     0
 10
319.337
 20
53.938
 30
0.0
 11
319.337
 21
55.4634
 31
0.0
  0
LINE
  8
0
 62
     0
 10
319.337
 20
55.4634
 30
0.0
 11
319.938
 21
55.4634
 31
0.0
  0
LINE
  8
0
 62
     0
 10
319.938
 20
55.4634
 30
0.0
 11
319.938
 21
54.6626
 31
0.0
  0
LINE
  8
0
 62
     0
 10
319.938
 20
54.6626
 30
0.0
 11
323.037
 21
54.6626
 31
0.0
  0
LINE
  8
0
 62
     0
 10
323.037
 20
54.6626
 30
0.0
 11
323.037
 21
55.4634
 31
0.0
  0
LINE
  8
0
 62
     0
 10
323.037
 20
55.4634
 30
0.0
 11
324.037
 21
55.4634
 31
0.0
  0
LINE
  8
0
 62
     0
 10
324.037
 20
55.4634
 30
0.0
 11
324.037
 21
69.4626
 31
0.0
  0
LINE
  8
0
 62
     0
 10
324.037
 20
69.4626
 30
0.0
 11
323.037
 21
69.4626
 31
0.0
  0
LINE
  8
0
 62
     0
 10
323.037
 20
69.4626
 30
0.0
 11
323.037
 21
70.2635
 31
0.0
  0
LINE
  8
0
 62
     0
 10
323.037
 20
70.2635
 30
0.0
 11
319.938
 21
70.2635
 31
0.0
  0
LINE
  8
0
 62
     0
 10
319.938
 20
70.2635
 30
0.0
 11
319.938
 21
69.4626
 31
0.0
  0
LINE
  8
0
 62
     0
 10
319.938
 20
69.4626
 30
0.0
 11
319.337
 21
69.4626
 31
0.0
  0
LINE
  8
0
 62
     0
 10
319.337
 20
69.4626
 30
0.0
 11
319.337
 21
70.9884
 31
0.0
  0
LINE
  8
0
 62
     0
 10
319.337
 20
70.9884
 30
0.0
 11
322.567
 21
70.9884
 31
0.0
  0
LINE
  8
0
 62
     0
 10
322.567
 20
70.9884
 30
0.0
 11
322.567
 21
77.7378
 31
0.0
  0
LINE
  8
0
 62
     0
 10
322.567
 20
77.7378
 30
0.0
 11
319.337
 21
77.7378
 31
0.0
  0
LINE
  8
0
 62
     0
 10
319.337
 20
77.7378
 30
0.0
 11
319.337
 21
78.5633
 31
0.0
  0
LINE
  8
0
 62
     0
 10
319.337
 20
78.5633
 30
0.0
 11
316.538
 21
78.5633
 31
0.0
  0
LINE
  8
0
 62
     0
 10
379.095
 20
78.9876
 30
0.0
 11
379.095
 21
77.9872
 31
0.0
  0
LINE
  8
0
 62
     0
 10
379.095
 20
77.9872
 30
0.0
 11
378.294
 21
77.9872
 31
0.0
  0
LINE
  8
0
 62
     0
 10
378.294
 20
77.9872
 30
0.0
 11
378.294
 21
74.888
 31
0.0
  0
LINE
  8
0
 62
     0
 10
378.294
 20
74.888
 30
0.0
 11
379.095
 21
74.888
 31
0.0
  0
LINE
  8
0
 62
     0
 10
379.095
 20
74.888
 30
0.0
 11
379.095
 21
69.088
 31
0.0
  0
LINE
  8
0
 62
     0
 10
379.095
 20
69.088
 30
0.0
 11
378.294
 21
69.088
 31
0.0
  0
LINE
  8
0
 62
     0
 10
378.294
 20
69.088
 30
0.0
 11
378.294
 21
65.9874
 31
0.0
  0
LINE
  8
0
 62
     0
 10
378.294
 20
65.9874
 30
0.0
 11
379.095
 21
65.9874
 31
0.0
  0
LINE
  8
0
 62
     0
 10
379.095
 20
65.9874
 30
0.0
 11
379.095
 21
64.9884
 31
0.0
  0
LINE
  8
0
 62
     0
 10
379.095
 20
64.9884
 30
0.0
 11
393.097
 21
64.9884
 31
0.0
  0
LINE
  8
0
 62
     0
 10
393.097
 20
64.9884
 30
0.0
 11
393.097
 21
65.9874
 31
0.0
  0
LINE
  8
0
 62
     0
 10
393.097
 20
65.9874
 30
0.0
 11
393.894
 21
65.9874
 31
0.0
  0
LINE
  8
0
 62
     0
 10
393.894
 20
65.9874
 30
0.0
 11
393.894
 21
69.088
 31
0.0
  0
LINE
  8
0
 62
     0
 10
393.894
 20
69.088
 30
0.0
 11
393.097
 21
69.088
 31
0.0
  0
LINE
  8
0
 62
     0
 10
393.097
 20
69.088
 30
0.0
 11
393.097
 21
74.888
 31
0.0
  0
LINE
  8
0
 62
     0
 10
393.097
 20
74.888
 30
0.0
 11
393.894
 21
74.888
 31
0.0
  0
LINE
  8
0
 62
     0
 10
393.894
 20
74.888
 30
0.0
 11
393.894
 21
77.9872
 31
0.0
  0
LINE
  8
0
 62
     0
 10
393.894
 20
77.9872
 30
0.0
 11
393.097
 21
77.9872
 31
0.0
  0
LINE
  8
0
 62
     0
 10
393.097
 20
77.9872
 30
0.0
 11
393.097
 21
78.9876
 31
0.0
  0
LINE
  8
0
 62
     0
 10
393.097
 20
78.9876
 30
0.0
 11
379.095
 21
78.9876
 31
0.0
  0
LINE
  8
0
 62
     0
 10
360.045
 20
78.9876
 30
0.0
 11
360.045
 21
77.9872
 31
0.0
  0
LINE
  8
0
 62
     0
 10
360.045
 20
77.9872
 30
0.0
 11
359.244
 21
77.9872
 31
0.0
  0
LINE
  8
0
 62
     0
 10
359.244
 20
77.9872
 30
0.0
 11
359.244
 21
74.888
 31
0.0
  0
LINE
  8
0
 62
     0
 10
359.244
 20
74.888
 30
0.0
 11
360.045
 21
74.888
 31
0.0
  0
LINE
  8
0
 62
     0
 10
360.045
 20
74.888
 30
0.0
 11
360.045
 21
69.088
 31
0.0
  0
LINE
  8
0
 62
     0
 10
360.045
 20
69.088
 30
0.0
 11
359.244
 21
69.088
 31
0.0
  0
LINE
  8
0
 62
     0
 10
359.244
 20
69.088
 30
0.0
 11
359.244
 21
65.9874
 31
0.0
  0
LINE
  8
0
 62
     0
 10
359.244
 20
65.9874
 30
0.0
 11
360.045
 21
65.9874
 31
0.0
  0
LINE
  8
0
 62
     0
 10
360.045
 20
65.9874
 30
0.0
 11
360.045
 21
64.9884
 31
0.0
  0
LINE
  8
0
 62
     0
 10
360.045
 20
64.9884
 30
0.0
 11
374.047
 21
64.9884
 31
0.0
  0
LINE
  8
0
 62
     0
 10
374.047
 20
64.9884
 30
0.0
 11
374.047
 21
65.9874
 31
0.0
  0
LINE
  8
0
 62
     0
 10
374.047
 20
65.9874
 30
0.0
 11
374.844
 21
65.9874
 31
0.0
  0
LINE
  8
0
 62
     0
 10
374.844
 20
65.9874
 30
0.0
 11
374.844
 21
69.088
 31
0.0
  0
LINE
  8
0
 62
     0
 10
374.844
 20
69.088
 30
0.0
 11
374.047
 21
69.088
 31
0.0
  0
LINE
  8
0
 62
     0
 10
374.047
 20
69.088
 30
0.0
 11
374.047
 21
74.888
 31
0.0
  0
LINE
  8
0
 62
     0
 10
374.047
 20
74.888
 30
0.0
 11
374.844
 21
74.888
 31
0.0
  0
LINE
  8
0
 62
     0
 10
374.844
 20
74.888
 30
0.0
 11
374.844
 21
77.9872
 31
0.0
  0
LINE
  8
0
 62
     0
 10
374.844
 20
77.9872
 30
0.0
 11
374.047
 21
77.9872
 31
0.0
  0
LINE
  8
0
 62
     0
 10
374.047
 20
77.9872
 30
0.0
 11
374.047
 21
78.9876
 31
0.0
  0
LINE
  8
0
 62
     0
 10
374.047
 20
78.9876
 30
0.0
 11
360.045
 21
78.9876
 31
0.0
  0
LINE
  8
0
 62
     0
 10
340.994
 20
78.9876
 30
0.0
 11
340.994
 21
77.9872
 31
0.0
  0
LINE
  8
0
 62
     0
 10
340.994
 20
77.9872
 30
0.0
 11
340.195
 21
77.9872
 31
0.0
  0
LINE
  8
0
 62
     0
 10
340.195
 20
77.9872
 30
0.0
 11
340.195
 21
74.888
 31
0.0
  0
LINE
  8
0
 62
     0
 10
340.195
 20
74.888
 30
0.0
 11
340.994
 21
74.888
 31
0.0
  0
LINE
  8
0
 62
     0
 10
340.994
 20
74.888
 30
0.0
 11
340.994
 21
69.088
 31
0.0
  0
LINE
  8
0
 62
     0
 10
340.994
 20
69.088
 30
0.0
 11
340.195
 21
69.088
 31
0.0
  0
LINE
  8
0
 62
     0
 10
340.195
 20
69.088
 30
0.0
 11
340.195
 21
65.9874
 31
0.0
  0
LINE
  8
0
 62
     0
 10
340.195
 20
65.9874
 30
0.0
 11
340.994
 21
65.9874
 31
0.0
  0
LINE
  8
0
 62
     0
 10
340.994
 20
65.9874
 30
0.0
 11
340.994
 21
64.9884
 31
0.0
  0
LINE
  8
0
 62
     0
 10
340.994
 20
64.9884
 30
0.0
 11
354.997
 21
64.9884
 31
0.0
  0
LINE
  8
0
 62
     0
 10
354.997
 20
64.9884
 30
0.0
 11
354.997
 21
65.9874
 31
0.0
  0
LINE
  8
0
 62
     0
 10
354.997
 20
65.9874
 30
0.0
 11
355.794
 21
65.9874
 31
0.0
  0
LINE
  8
0
 62
     0
 10
355.794
 20
65.9874
 30
0.0
 11
355.794
 21
69.088
 31
0.0
  0
LINE
  8
0
 62
     0
 10
355.794
 20
69.088
 30
0.0
 11
354.997
 21
69.088
 31
0.0
  0
LINE
  8
0
 62
     0
 10
354.997
 20
69.088
 30
0.0
 11
354.997
 21
74.888
 31
0.0
  0
LINE
  8
0
 62
     0
 10
354.997
 20
74.888
 30
0.0
 11
355.794
 21
74.888
 31
0.0
  0
LINE
  8
0
 62
     0
 10
355.794
 20
74.888
 30
0.0
 11
355.794
 21
77.9872
 31
0.0
  0
LINE
  8
0
 62
     0
 10
355.794
 20
77.9872
 30
0.0
 11
354.997
 21
77.9872
 31
0.0
  0
LINE
  8
0
 62
     0
 10
354.997
 20
77.9872
 30
0.0
 11
354.997
 21
78.9876
 31
0.0
  0
LINE
  8
0
 62
     0
 10
354.997
 20
78.9876
 30
0.0
 11
340.994
 21
78.9876
 31
0.0
  0
LINE
  8
0
 62
     0
 10
283.844
 20
78.9876
 30
0.0
 11
283.844
 21
77.9872
 31
0.0
  0
LINE
  8
0
 62
     0
 10
283.844
 20
77.9872
 30
0.0
 11
283.045
 21
77.9872
 31
0.0
  0
LINE
  8
0
 62
     0
 10
283.045
 20
77.9872
 30
0.0
 11
283.045
 21
74.888
 31
0.0
  0
LINE
  8
0
 62
     0
 10
283.045
 20
74.888
 30
0.0
 11
283.844
 21
74.888
 31
0.0
  0
LINE
  8
0
 62
     0
 10
283.844
 20
74.888
 30
0.0
 11
283.844
 21
69.088
 31
0.0
  0
LINE
  8
0
 62
     0
 10
283.844
 20
69.088
 30
0.0
 11
283.045
 21
69.088
 31
0.0
  0
LINE
  8
0
 62
     0
 10
283.045
 20
69.088
 30
0.0
 11
283.045
 21
65.9874
 31
0.0
  0
LINE
  8
0
 62
     0
 10
283.045
 20
65.9874
 30
0.0
 11
283.844
 21
65.9874
 31
0.0
  0
LINE
  8
0
 62
     0
 10
283.844
 20
65.9874
 30
0.0
 11
283.844
 21
64.9884
 31
0.0
  0
LINE
  8
0
 62
     0
 10
283.844
 20
64.9884
 30
0.0
 11
297.845
 21
64.9884
 31
0.0
  0
LINE
  8
0
 62
     0
 10
297.845
 20
64.9884
 30
0.0
 11
297.845
 21
65.9874
 31
0.0
  0
LINE
  8
0
 62
     0
 10
297.845
 20
65.9874
 30
0.0
 11
298.644
 21
65.9874
 31
0.0
  0
LINE
  8
0
 62
     0
 10
298.644
 20
65.9874
 30
0.0
 11
298.644
 21
69.088
 31
0.0
  0
LINE
  8
0
 62
     0
 10
298.644
 20
69.088
 30
0.0
 11
297.845
 21
69.088
 31
0.0
  0
LINE
  8
0
 62
     0
 10
297.845
 20
69.088
 30
0.0
 11
297.845
 21
74.888
 31
0.0
  0
LINE
  8
0
 62
     0
 10
297.845
 20
74.888
 30
0.0
 11
298.644
 21
74.888
 31
0.0
  0
LINE
  8
0
 62
     0
 10
298.644
 20
74.888
 30
0.0
 11
298.644
 21
77.9872
 31
0.0
  0
LINE
  8
0
 62
     0
 10
298.644
 20
77.9872
 30
0.0
 11
297.845
 21
77.9872
 31
0.0
  0
LINE
  8
0
 62
     0
 10
297.845
 20
77.9872
 30
0.0
 11
297.845
 21
78.9876
 31
0.0
  0
LINE
  8
0
 62
     0
 10
297.845
 20
78.9876
 30
0.0
 11
283.844
 21
78.9876
 31
0.0
  0
LINE
  8
0
 62
     0
 10
264.794
 20
78.9876
 30
0.0
 11
264.794
 21
77.9872
 31
0.0
  0
LINE
  8
0
 62
     0
 10
264.794
 20
77.9872
 30
0.0
 11
263.995
 21
77.9872
 31
0.0
  0
LINE
  8
0
 62
     0
 10
263.995
 20
77.9872
 30
0.0
 11
263.995
 21
74.888
 31
0.0
  0
LINE
  8
0
 62
     0
 10
263.995
 20
74.888
 30
0.0
 11
264.794
 21
74.888
 31
0.0
  0
LINE
  8
0
 62
     0
 10
264.794
 20
74.888
 30
0.0
 11
264.794
 21
69.088
 31
0.0
  0
LINE
  8
0
 62
     0
 10
264.794
 20
69.088
 30
0.0
 11
263.995
 21
69.088
 31
0.0
  0
LINE
  8
0
 62
     0
 10
263.995
 20
69.088
 30
0.0
 11
263.995
 21
65.9874
 31
0.0
  0
LINE
  8
0
 62
     0
 10
263.995
 20
65.9874
 30
0.0
 11
264.794
 21
65.9874
 31
0.0
  0
LINE
  8
0
 62
     0
 10
264.794
 20
65.9874
 30
0.0
 11
264.794
 21
64.9884
 31
0.0
  0
LINE
  8
0
 62
     0
 10
264.794
 20
64.9884
 30
0.0
 11
278.795
 21
64.9884
 31
0.0
  0
LINE
  8
0
 62
     0
 10
278.795
 20
64.9884
 30
0.0
 11
278.795
 21
65.9874
 31
0.0
  0
LINE
  8
0
 62
     0
 10
278.795
 20
65.9874
 30
0.0
 11
279.594
 21
65.9874
 31
0.0
  0
LINE
  8
0
 62
     0
 10
279.594
 20
65.9874
 30
0.0
 11
279.594
 21
69.088
 31
0.0
  0
LINE
  8
0
 62
     0
 10
279.594
 20
69.088
 30
0.0
 11
278.795
 21
69.088
 31
0.0
  0
LINE
  8
0
 62
     0
 10
278.795
 20
69.088
 30
0.0
 11
278.795
 21
74.888
 31
0.0
  0
LINE
  8
0
 62
     0
 10
278.795
 20
74.888
 30
0.0
 11
279.594
 21
74.888
 31
0.0
  0
LINE
  8
0
 62
     0
 10
279.594
 20
74.888
 30
0.0
 11
279.594
 21
77.9872
 31
0.0
  0
LINE
  8
0
 62
     0
 10
279.594
 20
77.9872
 30
0.0
 11
278.795
 21
77.9872
 31
0.0
  0
LINE
  8
0
 62
     0
 10
278.795
 20
77.9872
 30
0.0
 11
278.795
 21
78.9876
 31
0.0
  0
LINE
  8
0
 62
     0
 10
278.795
 20
78.9876
 30
0.0
 11
264.794
 21
78.9876
 31
0.0
  0
LINE
  8
0
 62
     0
 10
245.744
 20
78.9876
 30
0.0
 11
245.744
 21
77.9872
 31
0.0
  0
LINE
  8
0
 62
     0
 10
245.744
 20
77.9872
 30
0.0
 11
244.945
 21
77.9872
 31
0.0
  0
LINE
  8
0
 62
     0
 10
244.945
 20
77.9872
 30
0.0
 11
244.945
 21
74.888
 31
0.0
  0
LINE
  8
0
 62
     0
 10
244.945
 20
74.888
 30
0.0
 11
245.744
 21
74.888
 31
0.0
  0
LINE
  8
0
 62
     0
 10
245.744
 20
74.888
 30
0.0
 11
245.744
 21
69.088
 31
0.0
  0
LINE
  8
0
 62
     0
 10
245.744
 20
69.088
 30
0.0
 11
244.945
 21
69.088
 31
0.0
  0
LINE
  8
0
 62
     0
 10
244.945
 20
69.088
 30
0.0
 11
244.945
 21
65.9874
 31
0.0
  0
LINE
  8
0
 62
     0
 10
244.945
 20
65.9874
 30
0.0
 11
245.744
 21
65.9874
 31
0.0
  0
LINE
  8
0
 62
     0
 10
245.744
 20
65.9874
 30
0.0
 11
245.744
 21
64.9884
 31
0.0
  0
LINE
  8
0
 62
     0
 10
245.744
 20
64.9884
 30
0.0
 11
259.745
 21
64.9884
 31
0.0
  0
LINE
  8
0
 62
     0
 10
259.745
 20
64.9884
 30
0.0
 11
259.745
 21
65.9874
 31
0.0
  0
LINE
  8
0
 62
     0
 10
259.745
 20
65.9874
 30
0.0
 11
260.544
 21
65.9874
 31
0.0
  0
LINE
  8
0
 62
     0
 10
260.544
 20
65.9874
 30
0.0
 11
260.544
 21
69.088
 31
0.0
  0
LINE
  8
0
 62
     0
 10
260.544
 20
69.088
 30
0.0
 11
259.745
 21
69.088
 31
0.0
  0
LINE
  8
0
 62
     0
 10
259.745
 20
69.088
 30
0.0
 11
259.745
 21
74.888
 31
0.0
  0
LINE
  8
0
 62
     0
 10
259.745
 20
74.888
 30
0.0
 11
260.544
 21
74.888
 31
0.0
  0
LINE
  8
0
 62
     0
 10
260.544
 20
74.888
 30
0.0
 11
260.544
 21
77.9872
 31
0.0
  0
LINE
  8
0
 62
     0
 10
260.544
 20
77.9872
 30
0.0
 11
259.745
 21
77.9872
 31
0.0
  0
LINE
  8
0
 62
     0
 10
259.745
 20
77.9872
 30
0.0
 11
259.745
 21
78.9876
 31
0.0
  0
LINE
  8
0
 62
     0
 10
259.745
 20
78.9876
 30
0.0
 11
245.744
 21
78.9876
 31
0.0
  0
LINE
  8
0
 62
     0
 10
226.694
 20
78.9876
 30
0.0
 11
226.694
 21
77.9872
 31
0.0
  0
LINE
  8
0
 62
     0
 10
226.694
 20
77.9872
 30
0.0
 11
225.895
 21
77.9872
 31
0.0
  0
LINE
  8
0
 62
     0
 10
225.895
 20
77.9872
 30
0.0
 11
225.895
 21
74.888
 31
0.0
  0
LINE
  8
0
 62
     0
 10
225.895
 20
74.888
 30
0.0
 11
226.694
 21
74.888
 31
0.0
  0
LINE
  8
0
 62
     0
 10
226.694
 20
74.888
 30
0.0
 11
226.694
 21
69.088
 31
0.0
  0
LINE
  8
0
 62
     0
 10
226.694
 20
69.088
 30
0.0
 11
225.895
 21
69.088
 31
0.0
  0
LINE
  8
0
 62
     0
 10
225.895
 20
69.088
 30
0.0
 11
225.895
 21
65.9874
 31
0.0
  0
LINE
  8
0
 62
     0
 10
225.895
 20
65.9874
 30
0.0
 11
226.694
 21
65.9874
 31
0.0
  0
LINE
  8
0
 62
     0
 10
226.694
 20
65.9874
 30
0.0
 11
226.694
 21
64.9884
 31
0.0
  0
LINE
  8
0
 62
     0
 10
226.694
 20
64.9884
 30
0.0
 11
240.695
 21
64.9884
 31
0.0
  0
LINE
  8
0
 62
     0
 10
240.695
 20
64.9884
 30
0.0
 11
240.695
 21
65.9874
 31
0.0
  0
LINE
  8
0
 62
     0
 10
240.695
 20
65.9874
 30
0.0
 11
241.494
 21
65.9874
 31
0.0
  0
LINE
  8
0
 62
     0
 10
241.494
 20
65.9874
 30
0.0
 11
241.494
 21
69.088
 31
0.0
  0
LINE
  8
0
 62
     0
 10
241.494
 20
69.088
 30
0.0
 11
240.695
 21
69.088
 31
0.0
  0
LINE
  8
0
 62
     0
 10
240.695
 20
69.088
 30
0.0
 11
240.695
 21
74.888
 31
0.0
  0
LINE
  8
0
 62
     0
 10
240.695
 20
74.888
 30
0.0
 11
241.494
 21
74.888
 31
0.0
  0
LINE
  8
0
 62
     0
 10
241.494
 20
74.888
 30
0.0
 11
241.494
 21
77.9872
 31
0.0
  0
LINE
  8
0
 62
     0
 10
241.494
 20
77.9872
 30
0.0
 11
240.695
 21
77.9872
 31
0.0
  0
LINE
  8
0
 62
     0
 10
240.695
 20
77.9872
 30
0.0
 11
240.695
 21
78.9876
 31
0.0
  0
LINE
  8
0
 62
     0
 10
240.695
 20
78.9876
 30
0.0
 11
226.694
 21
78.9876
 31
0.0
  0
LINE
  8
0
 62
     0
 10
207.644
 20
78.9876
 30
0.0
 11
207.644
 21
77.9872
 31
0.0
  0
LINE
  8
0
 62
     0
 10
207.644
 20
77.9872
 30
0.0
 11
206.845
 21
77.9872
 31
0.0
  0
LINE
  8
0
 62
     0
 10
206.845
 20
77.9872
 30
0.0
 11
206.845
 21
74.888
 31
0.0
  0
LINE
  8
0
 62
     0
 10
206.845
 20
74.888
 30
0.0
 11
207.644
 21
74.888
 31
0.0
  0
LINE
  8
0
 62
     0
 10
207.644
 20
74.888
 30
0.0
 11
207.644
 21
69.088
 31
0.0
  0
LINE
  8
0
 62
     0
 10
207.644
 20
69.088
 30
0.0
 11
206.845
 21
69.088
 31
0.0
  0
LINE
  8
0
 62
     0
 10
206.845
 20
69.088
 30
0.0
 11
206.845
 21
65.9874
 31
0.0
  0
LINE
  8
0
 62
     0
 10
206.845
 20
65.9874
 30
0.0
 11
207.644
 21
65.9874
 31
0.0
  0
LINE
  8
0
 62
     0
 10
207.644
 20
65.9874
 30
0.0
 11
207.644
 21
64.9884
 31
0.0
  0
LINE
  8
0
 62
     0
 10
207.644
 20
64.9884
 30
0.0
 11
221.645
 21
64.9884
 31
0.0
  0
LINE
  8
0
 62
     0
 10
221.645
 20
64.9884
 30
0.0
 11
221.645
 21
65.9874
 31
0.0
  0
LINE
  8
0
 62
     0
 10
221.645
 20
65.9874
 30
0.0
 11
222.444
 21
65.9874
 31
0.0
  0
LINE
  8
0
 62
     0
 10
222.444
 20
65.9874
 30
0.0
 11
222.444
 21
69.088
 31
0.0
  0
LINE
  8
0
 62
     0
 10
222.444
 20
69.088
 30
0.0
 11
221.645
 21
69.088
 31
0.0
  0
LINE
  8
0
 62
     0
 10
221.645
 20
69.088
 30
0.0
 11
221.645
 21
74.888
 31
0.0
  0
LINE
  8
0
 62
     0
 10
221.645
 20
74.888
 30
0.0
 11
222.444
 21
74.888
 31
0.0
  0
LINE
  8
0
 62
     0
 10
222.444
 20
74.888
 30
0.0
 11
222.444
 21
77.9872
 31
0.0
  0
LINE
  8
0
 62
     0
 10
222.444
 20
77.9872
 30
0.0
 11
221.645
 21
77.9872
 31
0.0
  0
LINE
  8
0
 62
     0
 10
221.645
 20
77.9872
 30
0.0
 11
221.645
 21
78.9876
 31
0.0
  0
LINE
  8
0
 62
     0
 10
221.645
 20
78.9876
 30
0.0
 11
207.644
 21
78.9876
 31
0.0
  0
LINE
  8
0
 62
     0
 10
188.594
 20
78.9876
 30
0.0
 11
188.594
 21
77.9872
 31
0.0
  0
LINE
  8
0
 62
     0
 10
188.594
 20
77.9872
 30
0.0
 11
187.795
 21
77.9872
 31
0.0
  0
LINE
  8
0
 62
     0
 10
187.795
 20
77.9872
 30
0.0
 11
187.795
 21
74.888
 31
0.0
  0
LINE
  8
0
 62
     0
 10
187.795
 20
74.888
 30
0.0
 11
188.594
 21
74.888
 31
0.0
  0
LINE
  8
0
 62
     0
 10
188.594
 20
74.888
 30
0.0
 11
188.594
 21
69.088
 31
0.0
  0
LINE
  8
0
 62
     0
 10
188.594
 20
69.088
 30
0.0
 11
187.795
 21
69.088
 31
0.0
  0
LINE
  8
0
 62
     0
 10
187.795
 20
69.088
 30
0.0
 11
187.795
 21
65.9874
 31
0.0
  0
LINE
  8
0
 62
     0
 10
187.795
 20
65.9874
 30
0.0
 11
188.594
 21
65.9874
 31
0.0
  0
LINE
  8
0
 62
     0
 10
188.594
 20
65.9874
 30
0.0
 11
188.594
 21
64.9884
 31
0.0
  0
LINE
  8
0
 62
     0
 10
188.594
 20
64.9884
 30
0.0
 11
202.595
 21
64.9884
 31
0.0
  0
LINE
  8
0
 62
     0
 10
202.595
 20
64.9884
 30
0.0
 11
202.595
 21
65.9874
 31
0.0
  0
LINE
  8
0
 62
     0
 10
202.595
 20
65.9874
 30
0.0
 11
203.394
 21
65.9874
 31
0.0
  0
LINE
  8
0
 62
     0
 10
203.394
 20
65.9874
 30
0.0
 11
203.394
 21
69.088
 31
0.0
  0
LINE
  8
0
 62
     0
 10
203.394
 20
69.088
 30
0.0
 11
202.595
 21
69.088
 31
0.0
  0
LINE
  8
0
 62
     0
 10
202.595
 20
69.088
 30
0.0
 11
202.595
 21
74.888
 31
0.0
  0
LINE
  8
0
 62
     0
 10
202.595
 20
74.888
 30
0.0
 11
203.394
 21
74.888
 31
0.0
  0
LINE
  8
0
 62
     0
 10
203.394
 20
74.888
 30
0.0
 11
203.394
 21
77.9872
 31
0.0
  0
LINE
  8
0
 62
     0
 10
203.394
 20
77.9872
 30
0.0
 11
202.595
 21
77.9872
 31
0.0
  0
LINE
  8
0
 62
     0
 10
202.595
 20
77.9872
 30
0.0
 11
202.595
 21
78.9876
 31
0.0
  0
LINE
  8
0
 62
     0
 10
202.595
 20
78.9876
 30
0.0
 11
188.594
 21
78.9876
 31
0.0
  0
LINE
  8
0
 62
     0
 10
169.544
 20
78.9876
 30
0.0
 11
169.544
 21
77.9872
 31
0.0
  0
LINE
  8
0
 62
     0
 10
169.544
 20
77.9872
 30
0.0
 11
168.743
 21
77.9872
 31
0.0
  0
LINE
  8
0
 62
     0
 10
168.743
 20
77.9872
 30
0.0
 11
168.743
 21
74.888
 31
0.0
  0
LINE
  8
0
 62
     0
 10
168.743
 20
74.888
 30
0.0
 11
169.544
 21
74.888
 31
0.0
  0
LINE
  8
0
 62
     0
 10
169.544
 20
74.888
 30
0.0
 11
169.544
 21
69.088
 31
0.0
  0
LINE
  8
0
 62
     0
 10
169.544
 20
69.088
 30
0.0
 11
168.743
 21
69.088
 31
0.0
  0
LINE
  8
0
 62
     0
 10
168.743
 20
69.088
 30
0.0
 11
168.743
 21
65.9874
 31
0.0
  0
LINE
  8
0
 62
     0
 10
168.743
 20
65.9874
 30
0.0
 11
169.544
 21
65.9874
 31
0.0
  0
LINE
  8
0
 62
     0
 10
169.544
 20
65.9874
 30
0.0
 11
169.544
 21
64.9884
 31
0.0
  0
LINE
  8
0
 62
     0
 10
169.544
 20
64.9884
 30
0.0
 11
183.545
 21
64.9884
 31
0.0
  0
LINE
  8
0
 62
     0
 10
183.545
 20
64.9884
 30
0.0
 11
183.545
 21
65.9874
 31
0.0
  0
LINE
  8
0
 62
     0
 10
183.545
 20
65.9874
 30
0.0
 11
184.344
 21
65.9874
 31
0.0
  0
LINE
  8
0
 62
     0
 10
184.344
 20
65.9874
 30
0.0
 11
184.344
 21
69.088
 31
0.0
  0
LINE
  8
0
 62
     0
 10
184.344
 20
69.088
 30
0.0
 11
183.545
 21
69.088
 31
0.0
  0
LINE
  8
0
 62
     0
 10
183.545
 20
69.088
 30
0.0
 11
183.545
 21
74.888
 31
0.0
  0
LINE
  8
0
 62
     0
 10
183.545
 20
74.888
 30
0.0
 11
184.344
 21
74.888
 31
0.0
  0
LINE
  8
0
 62
     0
 10
184.344
 20
74.888
 30
0.0
 11
184.344
 21
77.9872
 31
0.0
  0
LINE
  8
0
 62
     0
 10
184.344
 20
77.9872
 30
0.0
 11
183.545
 21
77.9872
 31
0.0
  0
LINE
  8
0
 62
     0
 10
183.545
 20
77.9872
 30
0.0
 11
183.545
 21
78.9876
 31
0.0
  0
LINE
  8
0
 62
     0
 10
183.545
 20
78.9876
 30
0.0
 11
169.544
 21
78.9876
 31
0.0
  0
LINE
  8
0
 62
     0
 10
112.394
 20
78.9876
 30
0.0
 11
112.394
 21
77.9872
 31
0.0
  0
LINE
  8
0
 62
     0
 10
112.394
 20
77.9872
 30
0.0
 11
111.595
 21
77.9872
 31
0.0
  0
LINE
  8
0
 62
     0
 10
111.595
 20
77.9872
 30
0.0
 11
111.595
 21
74.888
 31
0.0
  0
LINE
  8
0
 62
     0
 10
111.595
 20
74.888
 30
0.0
 11
112.394
 21
74.888
 31
0.0
  0
LINE
  8
0
 62
     0
 10
112.394
 20
74.888
 30
0.0
 11
112.394
 21
69.088
 31
0.0
  0
LINE
  8
0
 62
     0
 10
112.394
 20
69.088
 30
0.0
 11
111.595
 21
69.088
 31
0.0
  0
LINE
  8
0
 62
     0
 10
111.595
 20
69.088
 30
0.0
 11
111.595
 21
65.9874
 31
0.0
  0
LINE
  8
0
 62
     0
 10
111.595
 20
65.9874
 30
0.0
 11
112.394
 21
65.9874
 31
0.0
  0
LINE
  8
0
 62
     0
 10
112.394
 20
65.9874
 30
0.0
 11
112.394
 21
64.9884
 31
0.0
  0
LINE
  8
0
 62
     0
 10
112.394
 20
64.9884
 30
0.0
 11
126.395
 21
64.9884
 31
0.0
  0
LINE
  8
0
 62
     0
 10
126.395
 20
64.9884
 30
0.0
 11
126.395
 21
65.9874
 31
0.0
  0
LINE
  8
0
 62
     0
 10
126.395
 20
65.9874
 30
0.0
 11
127.194
 21
65.9874
 31
0.0
  0
LINE
  8
0
 62
     0
 10
127.194
 20
65.9874
 30
0.0
 11
127.194
 21
69.088
 31
0.0
  0
LINE
  8
0
 62
     0
 10
127.194
 20
69.088
 30
0.0
 11
126.395
 21
69.088
 31
0.0
  0
LINE
  8
0
 62
     0
 10
126.395
 20
69.088
 30
0.0
 11
126.395
 21
74.888
 31
0.0
  0
LINE
  8
0
 62
     0
 10
126.395
 20
74.888
 30
0.0
 11
127.194
 21
74.888
 31
0.0
  0
LINE
  8
0
 62
     0
 10
127.194
 20
74.888
 30
0.0
 11
127.194
 21
77.9872
 31
0.0
  0
LINE
  8
0
 62
     0
 10
127.194
 20
77.9872
 30
0.0
 11
126.395
 21
77.9872
 31
0.0
  0
LINE
  8
0
 62
     0
 10
126.395
 20
77.9872
 30
0.0
 11
126.395
 21
78.9876
 31
0.0
  0
LINE
  8
0
 62
     0
 10
126.395
 20
78.9876
 30
0.0
 11
112.394
 21
78.9876
 31
0.0
  0
LINE
  8
0
 62
     0
 10
93.3443
 20
78.9876
 30
0.0
 11
93.3443
 21
77.9872
 31
0.0
  0
LINE
  8
0
 62
     0
 10
93.3443
 20
77.9872
 30
0.0
 11
92.5449
 21
77.9872
 31
0.0
  0
LINE
  8
0
 62
     0
 10
92.5449
 20
77.9872
 30
0.0
 11
92.5449
 21
74.888
 31
0.0
  0
LINE
  8
0
 62
     0
 10
92.5449
 20
74.888
 30
0.0
 11
93.3443
 21
74.888
 31
0.0
  0
LINE
  8
0
 62
     0
 10
93.3443
 20
74.888
 30
0.0
 11
93.3443
 21
69.088
 31
0.0
  0
LINE
  8
0
 62
     0
 10
93.3443
 20
69.088
 30
0.0
 11
92.5449
 21
69.088
 31
0.0
  0
LINE
  8
0
 62
     0
 10
92.5449
 20
69.088
 30
0.0
 11
92.5449
 21
65.9874
 31
0.0
  0
LINE
  8
0
 62
     0
 10
92.5449
 20
65.9874
 30
0.0
 11
93.3443
 21
65.9874
 31
0.0
  0
LINE
  8
0
 62
     0
 10
93.3443
 20
65.9874
 30
0.0
 11
93.3443
 21
64.9884
 31
0.0
  0
LINE
  8
0
 62
     0
 10
93.3443
 20
64.9884
 30
0.0
 11
107.345
 21
64.9884
 31
0.0
  0
LINE
  8
0
 62
     0
 10
107.345
 20
64.9884
 30
0.0
 11
107.345
 21
65.9874
 31
0.0
  0
LINE
  8
0
 62
     0
 10
107.345
 20
65.9874
 30
0.0
 11
108.144
 21
65.9874
 31
0.0
  0
LINE
  8
0
 62
     0
 10
108.144
 20
65.9874
 30
0.0
 11
108.144
 21
69.088
 31
0.0
  0
LINE
  8
0
 62
     0
 10
108.144
 20
69.088
 30
0.0
 11
107.345
 21
69.088
 31
0.0
  0
LINE
  8
0
 62
     0
 10
107.345
 20
69.088
 30
0.0
 11
107.345
 21
74.888
 31
0.0
  0
LINE
  8
0
 62
     0
 10
107.345
 20
74.888
 30
0.0
 11
108.144
 21
74.888
 31
0.0
  0
LINE
  8
0
 62
     0
 10
108.144
 20
74.888
 30
0.0
 11
108.144
 21
77.9872
 31
0.0
  0
LINE
  8
0
 62
     0
 10
108.144
 20
77.9872
 30
0.0
 11
107.345
 21
77.9872
 31
0.0
  0
LINE
  8
0
 62
     0
 10
107.345
 20
77.9872
 30
0.0
 11
107.345
 21
78.9876
 31
0.0
  0
LINE
  8
0
 62
     0
 10
107.345
 20
78.9876
 30
0.0
 11
93.3443
 21
78.9876
 31
0.0
  0
LINE
  8
0
 62
     0
 10
74.2943
 20
78.9876
 30
0.0
 11
74.2943
 21
77.9872
 31
0.0
  0
LINE
  8
0
 62
     0
 10
74.2943
 20
77.9872
 30
0.0
 11
73.4949
 21
77.9872
 31
0.0
  0
LINE
  8
0
 62
     0
 10
73.4949
 20
77.9872
 30
0.0
 11
73.4949
 21
74.888
 31
0.0
  0
LINE
  8
0
 62
     0
 10
73.4949
 20
74.888
 30
0.0
 11
74.2943
 21
74.888
 31
0.0
  0
LINE
  8
0
 62
     0
 10
74.2943
 20
74.888
 30
0.0
 11
74.2943
 21
69.088
 31
0.0
  0
LINE
  8
0
 62
     0
 10
74.2943
 20
69.088
 30
0.0
 11
73.4949
 21
69.088
 31
0.0
  0
LINE
  8
0
 62
     0
 10
73.4949
 20
69.088
 30
0.0
 11
73.4949
 21
65.9874
 31
0.0
  0
LINE
  8
0
 62
     0
 10
73.4949
 20
65.9874
 30
0.0
 11
74.2943
 21
65.9874
 31
0.0
  0
LINE
  8
0
 62
     0
 10
74.2943
 20
65.9874
 30
0.0
 11
74.2943
 21
64.9884
 31
0.0
  0
LINE
  8
0
 62
     0
 10
74.2943
 20
64.9884
 30
0.0
 11
88.295
 21
64.9884
 31
0.0
  0
LINE
  8
0
 62
     0
 10
88.295
 20
64.9884
 30
0.0
 11
88.295
 21
65.9874
 31
0.0
  0
LINE
  8
0
 62
     0
 10
88.295
 20
65.9874
 30
0.0
 11
89.0944
 21
65.9874
 31
0.0
  0
LINE
  8
0
 62
     0
 10
89.0944
 20
65.9874
 30
0.0
 11
89.0944
 21
69.088
 31
0.0
  0
LINE
  8
0
 62
     0
 10
89.0944
 20
69.088
 30
0.0
 11
88.295
 21
69.088
 31
0.0
  0
LINE
  8
0
 62
     0
 10
88.295
 20
69.088
 30
0.0
 11
88.295
 21
74.888
 31
0.0
  0
LINE
  8
0
 62
     0
 10
88.295
 20
74.888
 30
0.0
 11
89.0944
 21
74.888
 31
0.0
  0
LINE
  8
0
 62
     0
 10
89.0944
 20
74.888
 30
0.0
 11
89.0944
 21
77.9872
 31
0.0
  0
LINE
  8
0
 62
     0
 10
89.0944
 20
77.9872
 30
0.0
 11
88.295
 21
77.9872
 31
0.0
  0
LINE
  8
0
 62
     0
 10
88.295
 20
77.9872
 30
0.0
 11
88.295
 21
78.9876
 31
0.0
  0
LINE
  8
0
 62
     0
 10
88.295
 20
78.9876
 30
0.0
 11
74.2943
 21
78.9876
 31
0.0
  0
LINE
  8
0
 62
     0
 10
55.2443
 20
78.9876
 30
0.0
 11
55.2443
 21
77.9872
 31
0.0
  0
LINE
  8
0
 62
     0
 10
55.2443
 20
77.9872
 30
0.0
 11
54.4449
 21
77.9872
 31
0.0
  0
LINE
  8
0
 62
     0
 10
54.4449
 20
77.9872
 30
0.0
 11
54.4449
 21
74.888
 31
0.0
  0
LINE
  8
0
 62
     0
 10
54.4449
 20
74.888
 30
0.0
 11
55.2443
 21
74.888
 31
0.0
  0
LINE
  8
0
 62
     0
 10
55.2443
 20
74.888
 30
0.0
 11
55.2443
 21
69.088
 31
0.0
  0
LINE
  8
0
 62
     0
 10
55.2443
 20
69.088
 30
0.0
 11
54.4449
 21
69.088
 31
0.0
  0
LINE
  8
0
 62
     0
 10
54.4449
 20
69.088
 30
0.0
 11
54.4449
 21
65.9874
 31
0.0
  0
LINE
  8
0
 62
     0
 10
54.4449
 20
65.9874
 30
0.0
 11
55.2443
 21
65.9874
 31
0.0
  0
LINE
  8
0
 62
     0
 10
55.2443
 20
65.9874
 30
0.0
 11
55.2443
 21
64.9884
 31
0.0
  0
LINE
  8
0
 62
     0
 10
55.2443
 20
64.9884
 30
0.0
 11
69.245
 21
64.9884
 31
0.0
  0
LINE
  8
0
 62
     0
 10
69.245
 20
64.9884
 30
0.0
 11
69.245
 21
65.9874
 31
0.0
  0
LINE
  8
0
 62
     0
 10
69.245
 20
65.9874
 30
0.0
 11
70.0444
 21
65.9874
 31
0.0
  0
LINE
  8
0
 62
     0
 10
70.0444
 20
65.9874
 30
0.0
 11
70.0444
 21
69.088
 31
0.0
  0
LINE
  8
0
 62
     0
 10
70.0444
 20
69.088
 30
0.0
 11
69.245
 21
69.088
 31
0.0
  0
LINE
  8
0
 62
     0
 10
69.245
 20
69.088
 30
0.0
 11
69.245
 21
74.888
 31
0.0
  0
LINE
  8
0
 62
     0
 10
69.245
 20
74.888
 30
0.0
 11
70.0444
 21
74.888
 31
0.0
  0
LINE
  8
0
 62
     0
 10
70.0444
 20
74.888
 30
0.0
 11
70.0444
 21
77.9872
 31
0.0
  0
LINE
  8
0
 62
     0
 10
70.0444
 20
77.9872
 30
0.0
 11
69.245
 21
77.9872
 31
0.0
  0
LINE
  8
0
 62
     0
 10
69.245
 20
77.9872
 30
0.0
 11
69.245
 21
78.9876
 31
0.0
  0
LINE
  8
0
 62
     0
 10
69.245
 20
78.9876
 30
0.0
 11
55.2443
 21
78.9876
 31
0.0
  0
LINE
  8
0
 62
     0
 10
36.1943
 20
78.9876
 30
0.0
 11
36.1943
 21
77.9872
 31
0.0
  0
LINE
  8
0
 62
     0
 10
36.1943
 20
77.9872
 30
0.0
 11
35.3949
 21
77.9872
 31
0.0
  0
LINE
  8
0
 62
     0
 10
35.3949
 20
77.9872
 30
0.0
 11
35.3949
 21
74.888
 31
0.0
  0
LINE
  8
0
 62
     0
 10
35.3949
 20
74.888
 30
0.0
 11
36.1943
 21
74.888
 31
0.0
  0
LINE
  8
0
 62
     0
 10
36.1943
 20
74.888
 30
0.0
 11
36.1943
 21
69.088
 31
0.0
  0
LINE
  8
0
 62
     0
 10
36.1943
 20
69.088
 30
0.0
 11
35.3949
 21
69.088
 31
0.0
  0
LINE
  8
0
 62
     0
 10
35.3949
 20
69.088
 30
0.0
 11
35.3949
 21
65.9874
 31
0.0
  0
LINE
  8
0
 62
     0
 10
35.3949
 20
65.9874
 30
0.0
 11
36.1943
 21
65.9874
 31
0.0
  0
LINE
  8
0
 62
     0
 10
36.1943
 20
65.9874
 30
0.0
 11
36.1943
 21
64.9884
 31
0.0
  0
LINE
  8
0
 62
     0
 10
36.1943
 20
64.9884
 30
0.0
 11
50.195
 21
64.9884
 31
0.0
  0
LINE
  8
0
 62
     0
 10
50.195
 20
64.9884
 30
0.0
 11
50.195
 21
65.9874
 31
0.0
  0
LINE
  8
0
 62
     0
 10
50.195
 20
65.9874
 30
0.0
 11
50.9944
 21
65.9874
 31
0.0
  0
LINE
  8
0
 62
     0
 10
50.9944
 20
65.9874
 30
0.0
 11
50.9944
 21
69.088
 31
0.0
  0
LINE
  8
0
 62
     0
 10
50.9944
 20
69.088
 30
0.0
 11
50.195
 21
69.088
 31
0.0
  0
LINE
  8
0
 62
     0
 10
50.195
 20
69.088
 30
0.0
 11
50.195
 21
74.888
 31
0.0
  0
LINE
  8
0
 62
     0
 10
50.195
 20
74.888
 30
0.0
 11
50.9944
 21
74.888
 31
0.0
  0
LINE
  8
0
 62
     0
 10
50.9944
 20
74.888
 30
0.0
 11
50.9944
 21
77.9872
 31
0.0
  0
LINE
  8
0
 62
     0
 10
50.9944
 20
77.9872
 30
0.0
 11
50.195
 21
77.9872
 31
0.0
  0
LINE
  8
0
 62
     0
 10
50.195
 20
77.9872
 30
0.0
 11
50.195
 21
78.9876
 31
0.0
  0
LINE
  8
0
 62
     0
 10
50.195
 20
78.9876
 30
0.0
 11
36.1943
 21
78.9876
 31
0.0
  0
LINE
  8
0
 62
     0
 10
12.3817
 20
78.9876
 30
0.0
 11
12.3817
 21
77.9872
 31
0.0
  0
LINE
  8
0
 62
     0
 10
12.3817
 20
77.9872
 30
0.0
 11
11.581
 21
77.9872
 31
0.0
  0
LINE
  8
0
 62
     0
 10
11.581
 20
77.9872
 30
0.0
 11
11.581
 21
74.888
 31
0.0
  0
LINE
  8
0
 62
     0
 10
11.581
 20
74.888
 30
0.0
 11
12.3817
 21
74.888
 31
0.0
  0
LINE
  8
0
 62
     0
 10
12.3817
 20
74.888
 30
0.0
 11
12.3817
 21
69.088
 31
0.0
  0
LINE
  8
0
 62
     0
 10
12.3817
 20
69.088
 30
0.0
 11
11.581
 21
69.088
 31
0.0
  0
LINE
  8
0
 62
     0
 10
11.581
 20
69.088
 30
0.0
 11
11.581
 21
65.9874
 31
0.0
  0
LINE
  8
0
 62
     0
 10
11.581
 20
65.9874
 30
0.0
 11
12.3817
 21
65.9874
 31
0.0
  0
LINE
  8
0
 62
     0
 10
12.3817
 20
65.9874
 30
0.0
 11
12.3817
 21
64.9884
 31
0.0
  0
LINE
  8
0
 62
     0
 10
12.3817
 20
64.9884
 30
0.0
 11
26.3812
 21
64.9884
 31
0.0
  0
LINE
  8
0
 62
     0
 10
26.3812
 20
64.9884
 30
0.0
 11
26.3812
 21
65.9874
 31
0.0
  0
LINE
  8
0
 62
     0
 10
26.3812
 20
65.9874
 30
0.0
 11
27.1818
 21
65.9874
 31
0.0
  0
LINE
  8
0
 62
     0
 10
27.1818
 20
65.9874
 30
0.0
 11
27.1818
 21
69.088
 31
0.0
  0
LINE
  8
0
 62
     0
 10
27.1818
 20
69.088
 30
0.0
 11
26.3812
 21
69.088
 31
0.0
  0
LINE
  8
0
 62
     0
 10
26.3812
 20
69.088
 30
0.0
 11
26.3812
 21
74.888
 31
0.0
  0
LINE
  8
0
 62
     0
 10
26.3812
 20
74.888
 30
0.0
 11
27.1818
 21
74.888
 31
0.0
  0
LINE
  8
0
 62
     0
 10
27.1818
 20
74.888
 30
0.0
 11
27.1818
 21
77.9872
 31
0.0
  0
LINE
  8
0
 62
     0
 10
27.1818
 20
77.9872
 30
0.0
 11
26.3812
 21
77.9872
 31
0.0
  0
LINE
  8
0
 62
     0
 10
26.3812
 20
77.9872
 30
0.0
 11
26.3812
 21
78.9876
 31
0.0
  0
LINE
  8
0
 62
     0
 10
26.3812
 20
78.9876
 30
0.0
 11
12.3817
 21
78.9876
 31
0.0
  0
LINE
  8
0
 62
     0
 10
379.095
 20
98.0377
 30
0.0
 11
379.095
 21
97.0372
 31
0.0
  0
LINE
  8
0
 62
     0
 10
379.095
 20
97.0372
 30
0.0
 11
378.294
 21
97.0372
 31
0.0
  0
LINE
  8
0
 62
     0
 10
378.294
 20
97.0372
 30
0.0
 11
378.294
 21
93.938
 31
0.0
  0
LINE
  8
0
 62
     0
 10
378.294
 20
93.938
 30
0.0
 11
379.095
 21
93.938
 31
0.0
  0
LINE
  8
0
 62
     0
 10
379.095
 20
93.938
 30
0.0
 11
379.095
 21
88.138
 31
0.0
  0
LINE
  8
0
 62
     0
 10
379.095
 20
88.138
 30
0.0
 11
378.294
 21
88.138
 31
0.0
  0
LINE
  8
0
 62
     0
 10
378.294
 20
88.138
 30
0.0
 11
378.294
 21
85.0374
 31
0.0
  0
LINE
  8
0
 62
     0
 10
378.294
 20
85.0374
 30
0.0
 11
379.095
 21
85.0374
 31
0.0
  0
LINE
  8
0
 62
     0
 10
379.095
 20
85.0374
 30
0.0
 11
379.095
 21
84.0384
 31
0.0
  0
LINE
  8
0
 62
     0
 10
379.095
 20
84.0384
 30
0.0
 11
393.097
 21
84.0384
 31
0.0
  0
LINE
  8
0
 62
     0
 10
393.097
 20
84.0384
 30
0.0
 11
393.097
 21
85.0374
 31
0.0
  0
LINE
  8
0
 62
     0
 10
393.097
 20
85.0374
 30
0.0
 11
393.894
 21
85.0374
 31
0.0
  0
LINE
  8
0
 62
     0
 10
393.894
 20
85.0374
 30
0.0
 11
393.894
 21
88.138
 31
0.0
  0
LINE
  8
0
 62
     0
 10
393.894
 20
88.138
 30
0.0
 11
393.097
 21
88.138
 31
0.0
  0
LINE
  8
0
 62
     0
 10
393.097
 20
88.138
 30
0.0
 11
393.097
 21
93.938
 31
0.0
  0
LINE
  8
0
 62
     0
 10
393.097
 20
93.938
 30
0.0
 11
393.894
 21
93.938
 31
0.0
  0
LINE
  8
0
 62
     0
 10
393.894
 20
93.938
 30
0.0
 11
393.894
 21
97.0372
 31
0.0
  0
LINE
  8
0
 62
     0
 10
393.894
 20
97.0372
 30
0.0
 11
393.097
 21
97.0372
 31
0.0
  0
LINE
  8
0
 62
     0
 10
393.097
 20
97.0372
 30
0.0
 11
393.097
 21
98.0377
 31
0.0
  0
LINE
  8
0
 62
     0
 10
393.097
 20
98.0377
 30
0.0
 11
379.095
 21
98.0377
 31
0.0
  0
LINE
  8
0
 62
     0
 10
360.045
 20
98.0377
 30
0.0
 11
360.045
 21
97.0372
 31
0.0
  0
LINE
  8
0
 62
     0
 10
360.045
 20
97.0372
 30
0.0
 11
359.244
 21
97.0372
 31
0.0
  0
LINE
  8
0
 62
     0
 10
359.244
 20
97.0372
 30
0.0
 11
359.244
 21
93.938
 31
0.0
  0
LINE
  8
0
 62
     0
 10
359.244
 20
93.938
 30
0.0
 11
360.045
 21
93.938
 31
0.0
  0
LINE
  8
0
 62
     0
 10
360.045
 20
93.938
 30
0.0
 11
360.045
 21
88.138
 31
0.0
  0
LINE
  8
0
 62
     0
 10
360.045
 20
88.138
 30
0.0
 11
359.244
 21
88.138
 31
0.0
  0
LINE
  8
0
 62
     0
 10
359.244
 20
88.138
 30
0.0
 11
359.244
 21
85.0374
 31
0.0
  0
LINE
  8
0
 62
     0
 10
359.244
 20
85.0374
 30
0.0
 11
360.045
 21
85.0374
 31
0.0
  0
LINE
  8
0
 62
     0
 10
360.045
 20
85.0374
 30
0.0
 11
360.045
 21
84.0384
 31
0.0
  0
LINE
  8
0
 62
     0
 10
360.045
 20
84.0384
 30
0.0
 11
374.047
 21
84.0384
 31
0.0
  0
LINE
  8
0
 62
     0
 10
374.047
 20
84.0384
 30
0.0
 11
374.047
 21
85.0374
 31
0.0
  0
LINE
  8
0
 62
     0
 10
374.047
 20
85.0374
 30
0.0
 11
374.844
 21
85.0374
 31
0.0
  0
LINE
  8
0
 62
     0
 10
374.844
 20
85.0374
 30
0.0
 11
374.844
 21
88.138
 31
0.0
  0
LINE
  8
0
 62
     0
 10
374.844
 20
88.138
 30
0.0
 11
374.047
 21
88.138
 31
0.0
  0
LINE
  8
0
 62
     0
 10
374.047
 20
88.138
 30
0.0
 11
374.047
 21
93.938
 31
0.0
  0
LINE
  8
0
 62
     0
 10
374.047
 20
93.938
 30
0.0
 11
374.844
 21
93.938
 31
0.0
  0
LINE
  8
0
 62
     0
 10
374.844
 20
93.938
 30
0.0
 11
374.844
 21
97.0372
 31
0.0
  0
LINE
  8
0
 62
     0
 10
374.844
 20
97.0372
 30
0.0
 11
374.047
 21
97.0372
 31
0.0
  0
LINE
  8
0
 62
     0
 10
374.047
 20
97.0372
 30
0.0
 11
374.047
 21
98.0377
 31
0.0
  0
LINE
  8
0
 62
     0
 10
374.047
 20
98.0377
 30
0.0
 11
360.045
 21
98.0377
 31
0.0
  0
LINE
  8
0
 62
     0
 10
340.994
 20
98.0377
 30
0.0
 11
340.994
 21
97.0372
 31
0.0
  0
LINE
  8
0
 62
     0
 10
340.994
 20
97.0372
 30
0.0
 11
340.195
 21
97.0372
 31
0.0
  0
LINE
  8
0
 62
     0
 10
340.195
 20
97.0372
 30
0.0
 11
340.195
 21
93.938
 31
0.0
  0
LINE
  8
0
 62
     0
 10
340.195
 20
93.938
 30
0.0
 11
340.994
 21
93.938
 31
0.0
  0
LINE
  8
0
 62
     0
 10
340.994
 20
93.938
 30
0.0
 11
340.994
 21
88.138
 31
0.0
  0
LINE
  8
0
 62
     0
 10
340.994
 20
88.138
 30
0.0
 11
340.195
 21
88.138
 31
0.0
  0
LINE
  8
0
 62
     0
 10
340.195
 20
88.138
 30
0.0
 11
340.195
 21
85.0374
 31
0.0
  0
LINE
  8
0
 62
     0
 10
340.195
 20
85.0374
 30
0.0
 11
340.994
 21
85.0374
 31
0.0
  0
LINE
  8
0
 62
     0
 10
340.994
 20
85.0374
 30
0.0
 11
340.994
 21
84.0384
 31
0.0
  0
LINE
  8
0
 62
     0
 10
340.994
 20
84.0384
 30
0.0
 11
354.997
 21
84.0384
 31
0.0
  0
LINE
  8
0
 62
     0
 10
354.997
 20
84.0384
 30
0.0
 11
354.997
 21
85.0374
 31
0.0
  0
LINE
  8
0
 62
     0
 10
354.997
 20
85.0374
 30
0.0
 11
355.794
 21
85.0374
 31
0.0
  0
LINE
  8
0
 62
     0
 10
355.794
 20
85.0374
 30
0.0
 11
355.794
 21
88.138
 31
0.0
  0
LINE
  8
0
 62
     0
 10
355.794
 20
88.138
 30
0.0
 11
354.997
 21
88.138
 31
0.0
  0
LINE
  8
0
 62
     0
 10
354.997
 20
88.138
 30
0.0
 11
354.997
 21
93.938
 31
0.0
  0
LINE
  8
0
 62
     0
 10
354.997
 20
93.938
 30
0.0
 11
355.794
 21
93.938
 31
0.0
  0
LINE
  8
0
 62
     0
 10
355.794
 20
93.938
 30
0.0
 11
355.794
 21
97.0372
 31
0.0
  0
LINE
  8
0
 62
     0
 10
355.794
 20
97.0372
 30
0.0
 11
354.997
 21
97.0372
 31
0.0
  0
LINE
  8
0
 62
     0
 10
354.997
 20
97.0372
 30
0.0
 11
354.997
 21
98.0377
 31
0.0
  0
LINE
  8
0
 62
     0
 10
354.997
 20
98.0377
 30
0.0
 11
340.994
 21
98.0377
 31
0.0
  0
LINE
  8
0
 62
     0
 10
312.419
 20
98.0377
 30
0.0
 11
312.419
 21
97.0372
 31
0.0
  0
LINE
  8
0
 62
     0
 10
312.419
 20
97.0372
 30
0.0
 11
311.62
 21
97.0372
 31
0.0
  0
LINE
  8
0
 62
     0
 10
311.62
 20
97.0372
 30
0.0
 11
311.62
 21
93.938
 31
0.0
  0
LINE
  8
0
 62
     0
 10
311.62
 20
93.938
 30
0.0
 11
312.419
 21
93.938
 31
0.0
  0
LINE
  8
0
 62
     0
 10
312.419
 20
93.938
 30
0.0
 11
312.419
 21
88.138
 31
0.0
  0
LINE
  8
0
 62
     0
 10
312.419
 20
88.138
 30
0.0
 11
311.62
 21
88.138
 31
0.0
  0
LINE
  8
0
 62
     0
 10
311.62
 20
88.138
 30
0.0
 11
311.62
 21
85.0374
 31
0.0
  0
LINE
  8
0
 62
     0
 10
311.62
 20
85.0374
 30
0.0
 11
312.419
 21
85.0374
 31
0.0
  0
LINE
  8
0
 62
     0
 10
312.419
 20
85.0374
 30
0.0
 11
312.419
 21
84.0384
 31
0.0
  0
LINE
  8
0
 62
     0
 10
312.419
 20
84.0384
 30
0.0
 11
326.42
 21
84.0384
 31
0.0
  0
LINE
  8
0
 62
     0
 10
326.42
 20
84.0384
 30
0.0
 11
326.42
 21
85.0374
 31
0.0
  0
LINE
  8
0
 62
     0
 10
326.42
 20
85.0374
 30
0.0
 11
327.219
 21
85.0374
 31
0.0
  0
LINE
  8
0
 62
     0
 10
327.219
 20
85.0374
 30
0.0
 11
327.219
 21
88.138
 31
0.0
  0
LINE
  8
0
 62
     0
 10
327.219
 20
88.138
 30
0.0
 11
326.42
 21
88.138
 31
0.0
  0
LINE
  8
0
 62
     0
 10
326.42
 20
88.138
 30
0.0
 11
326.42
 21
93.938
 31
0.0
  0
LINE
  8
0
 62
     0
 10
326.42
 20
93.938
 30
0.0
 11
327.219
 21
93.938
 31
0.0
  0
LINE
  8
0
 62
     0
 10
327.219
 20
93.938
 30
0.0
 11
327.219
 21
97.0372
 31
0.0
  0
LINE
  8
0
 62
     0
 10
327.219
 20
97.0372
 30
0.0
 11
326.42
 21
97.0372
 31
0.0
  0
LINE
  8
0
 62
     0
 10
326.42
 20
97.0372
 30
0.0
 11
326.42
 21
98.0377
 31
0.0
  0
LINE
  8
0
 62
     0
 10
326.42
 20
98.0377
 30
0.0
 11
312.419
 21
98.0377
 31
0.0
  0
LINE
  8
0
 62
     0
 10
293.369
 20
98.0377
 30
0.0
 11
293.369
 21
97.0372
 31
0.0
  0
LINE
  8
0
 62
     0
 10
293.369
 20
97.0372
 30
0.0
 11
292.57
 21
97.0372
 31
0.0
  0
LINE
  8
0
 62
     0
 10
292.57
 20
97.0372
 30
0.0
 11
292.57
 21
93.938
 31
0.0
  0
LINE
  8
0
 62
     0
 10
292.57
 20
93.938
 30
0.0
 11
293.369
 21
93.938
 31
0.0
  0
LINE
  8
0
 62
     0
 10
293.369
 20
93.938
 30
0.0
 11
293.369
 21
88.138
 31
0.0
  0
LINE
  8
0
 62
     0
 10
293.369
 20
88.138
 30
0.0
 11
292.57
 21
88.138
 31
0.0
  0
LINE
  8
0
 62
     0
 10
292.57
 20
88.138
 30
0.0
 11
292.57
 21
85.0374
 31
0.0
  0
LINE
  8
0
 62
     0
 10
292.57
 20
85.0374
 30
0.0
 11
293.369
 21
85.0374
 31
0.0
  0
LINE
  8
0
 62
     0
 10
293.369
 20
85.0374
 30
0.0
 11
293.369
 21
84.0384
 31
0.0
  0
LINE
  8
0
 62
     0
 10
293.369
 20
84.0384
 30
0.0
 11
307.37
 21
84.0384
 31
0.0
  0
LINE
  8
0
 62
     0
 10
307.37
 20
84.0384
 30
0.0
 11
307.37
 21
85.0374
 31
0.0
  0
LINE
  8
0
 62
     0
 10
307.37
 20
85.0374
 30
0.0
 11
308.169
 21
85.0374
 31
0.0
  0
LINE
  8
0
 62
     0
 10
308.169
 20
85.0374
 30
0.0
 11
308.169
 21
88.138
 31
0.0
  0
LINE
  8
0
 62
     0
 10
308.169
 20
88.138
 30
0.0
 11
307.37
 21
88.138
 31
0.0
  0
LINE
  8
0
 62
     0
 10
307.37
 20
88.138
 30
0.0
 11
307.37
 21
93.938
 31
0.0
  0
LINE
  8
0
 62
     0
 10
307.37
 20
93.938
 30
0.0
 11
308.169
 21
93.938
 31
0.0
  0
LINE
  8
0
 62
     0
 10
308.169
 20
93.938
 30
0.0
 11
308.169
 21
97.0372
 31
0.0
  0
LINE
  8
0
 62
     0
 10
308.169
 20
97.0372
 30
0.0
 11
307.37
 21
97.0372
 31
0.0
  0
LINE
  8
0
 62
     0
 10
307.37
 20
97.0372
 30
0.0
 11
307.37
 21
98.0377
 31
0.0
  0
LINE
  8
0
 62
     0
 10
307.37
 20
98.0377
 30
0.0
 11
293.369
 21
98.0377
 31
0.0
  0
LINE
  8
0
 62
     0
 10
274.319
 20
98.0377
 30
0.0
 11
274.319
 21
97.0372
 31
0.0
  0
LINE
  8
0
 62
     0
 10
274.319
 20
97.0372
 30
0.0
 11
273.52
 21
97.0372
 31
0.0
  0
LINE
  8
0
 62
     0
 10
273.52
 20
97.0372
 30
0.0
 11
273.52
 21
93.938
 31
0.0
  0
LINE
  8
0
 62
     0
 10
273.52
 20
93.938
 30
0.0
 11
274.319
 21
93.938
 31
0.0
  0
LINE
  8
0
 62
     0
 10
274.319
 20
93.938
 30
0.0
 11
274.319
 21
88.138
 31
0.0
  0
LINE
  8
0
 62
     0
 10
274.319
 20
88.138
 30
0.0
 11
273.52
 21
88.138
 31
0.0
  0
LINE
  8
0
 62
     0
 10
273.52
 20
88.138
 30
0.0
 11
273.52
 21
85.0374
 31
0.0
  0
LINE
  8
0
 62
     0
 10
273.52
 20
85.0374
 30
0.0
 11
274.319
 21
85.0374
 31
0.0
  0
LINE
  8
0
 62
     0
 10
274.319
 20
85.0374
 30
0.0
 11
274.319
 21
84.0384
 31
0.0
  0
LINE
  8
0
 62
     0
 10
274.319
 20
84.0384
 30
0.0
 11
288.32
 21
84.0384
 31
0.0
  0
LINE
  8
0
 62
     0
 10
288.32
 20
84.0384
 30
0.0
 11
288.32
 21
85.0374
 31
0.0
  0
LINE
  8
0
 62
     0
 10
288.32
 20
85.0374
 30
0.0
 11
289.119
 21
85.0374
 31
0.0
  0
LINE
  8
0
 62
     0
 10
289.119
 20
85.0374
 30
0.0
 11
289.119
 21
88.138
 31
0.0
  0
LINE
  8
0
 62
     0
 10
289.119
 20
88.138
 30
0.0
 11
288.32
 21
88.138
 31
0.0
  0
LINE
  8
0
 62
     0
 10
288.32
 20
88.138
 30
0.0
 11
288.32
 21
93.938
 31
0.0
  0
LINE
  8
0
 62
     0
 10
288.32
 20
93.938
 30
0.0
 11
289.119
 21
93.938
 31
0.0
  0
LINE
  8
0
 62
     0
 10
289.119
 20
93.938
 30
0.0
 11
289.119
 21
97.0372
 31
0.0
  0
LINE
  8
0
 62
     0
 10
289.119
 20
97.0372
 30
0.0
 11
288.32
 21
97.0372
 31
0.0
  0
LINE
  8
0
 62
     0
 10
288.32
 20
97.0372
 30
0.0
 11
288.32
 21
98.0377
 31
0.0
  0
LINE
  8
0
 62
     0
 10
288.32
 20
98.0377
 30
0.0
 11
274.319
 21
98.0377
 31
0.0
  0
LINE
  8
0
 62
     0
 10
255.269
 20
98.0377
 30
0.0
 11
255.269
 21
97.0372
 31
0.0
  0
LINE
  8
0
 62
     0
 10
255.269
 20
97.0372
 30
0.0
 11
254.47
 21
97.0372
 31
0.0
  0
LINE
  8
0
 62
     0
 10
254.47
 20
97.0372
 30
0.0
 11
254.47
 21
93.938
 31
0.0
  0
LINE
  8
0
 62
     0
 10
254.47
 20
93.938
 30
0.0
 11
255.269
 21
93.938
 31
0.0
  0
LINE
  8
0
 62
     0
 10
255.269
 20
93.938
 30
0.0
 11
255.269
 21
88.138
 31
0.0
  0
LINE
  8
0
 62
     0
 10
255.269
 20
88.138
 30
0.0
 11
254.47
 21
88.138
 31
0.0
  0
LINE
  8
0
 62
     0
 10
254.47
 20
88.138
 30
0.0
 11
254.47
 21
85.0374
 31
0.0
  0
LINE
  8
0
 62
     0
 10
254.47
 20
85.0374
 30
0.0
 11
255.269
 21
85.0374
 31
0.0
  0
LINE
  8
0
 62
     0
 10
255.269
 20
85.0374
 30
0.0
 11
255.269
 21
84.0384
 31
0.0
  0
LINE
  8
0
 62
     0
 10
255.269
 20
84.0384
 30
0.0
 11
269.27
 21
84.0384
 31
0.0
  0
LINE
  8
0
 62
     0
 10
269.27
 20
84.0384
 30
0.0
 11
269.27
 21
85.0374
 31
0.0
  0
LINE
  8
0
 62
     0
 10
269.27
 20
85.0374
 30
0.0
 11
270.069
 21
85.0374
 31
0.0
  0
LINE
  8
0
 62
     0
 10
270.069
 20
85.0374
 30
0.0
 11
270.069
 21
88.138
 31
0.0
  0
LINE
  8
0
 62
     0
 10
270.069
 20
88.138
 30
0.0
 11
269.27
 21
88.138
 31
0.0
  0
LINE
  8
0
 62
     0
 10
269.27
 20
88.138
 30
0.0
 11
269.27
 21
93.938
 31
0.0
  0
LINE
  8
0
 62
     0
 10
269.27
 20
93.938
 30
0.0
 11
270.069
 21
93.938
 31
0.0
  0
LINE
  8
0
 62
     0
 10
270.069
 20
93.938
 30
0.0
 11
270.069
 21
97.0372
 31
0.0
  0
LINE
  8
0
 62
     0
 10
270.069
 20
97.0372
 30
0.0
 11
269.27
 21
97.0372
 31
0.0
  0
LINE
  8
0
 62
     0
 10
269.27
 20
97.0372
 30
0.0
 11
269.27
 21
98.0377
 31
0.0
  0
LINE
  8
0
 62
     0
 10
269.27
 20
98.0377
 30
0.0
 11
255.269
 21
98.0377
 31
0.0
  0
LINE
  8
0
 62
     0
 10
236.219
 20
98.0377
 30
0.0
 11
236.219
 21
97.0372
 31
0.0
  0
LINE
  8
0
 62
     0
 10
236.219
 20
97.0372
 30
0.0
 11
235.42
 21
97.0372
 31
0.0
  0
LINE
  8
0
 62
     0
 10
235.42
 20
97.0372
 30
0.0
 11
235.42
 21
93.938
 31
0.0
  0
LINE
  8
0
 62
     0
 10
235.42
 20
93.938
 30
0.0
 11
236.219
 21
93.938
 31
0.0
  0
LINE
  8
0
 62
     0
 10
236.219
 20
93.938
 30
0.0
 11
236.219
 21
88.138
 31
0.0
  0
LINE
  8
0
 62
     0
 10
236.219
 20
88.138
 30
0.0
 11
235.42
 21
88.138
 31
0.0
  0
LINE
  8
0
 62
     0
 10
235.42
 20
88.138
 30
0.0
 11
235.42
 21
85.0374
 31
0.0
  0
LINE
  8
0
 62
     0
 10
235.42
 20
85.0374
 30
0.0
 11
236.219
 21
85.0374
 31
0.0
  0
LINE
  8
0
 62
     0
 10
236.219
 20
85.0374
 30
0.0
 11
236.219
 21
84.0384
 31
0.0
  0
LINE
  8
0
 62
     0
 10
236.219
 20
84.0384
 30
0.0
 11
250.22
 21
84.0384
 31
0.0
  0
LINE
  8
0
 62
     0
 10
250.22
 20
84.0384
 30
0.0
 11
250.22
 21
85.0374
 31
0.0
  0
LINE
  8
0
 62
     0
 10
250.22
 20
85.0374
 30
0.0
 11
251.019
 21
85.0374
 31
0.0
  0
LINE
  8
0
 62
     0
 10
251.019
 20
85.0374
 30
0.0
 11
251.019
 21
88.138
 31
0.0
  0
LINE
  8
0
 62
     0
 10
251.019
 20
88.138
 30
0.0
 11
250.22
 21
88.138
 31
0.0
  0
LINE
  8
0
 62
     0
 10
250.22
 20
88.138
 30
0.0
 11
250.22
 21
93.938
 31
0.0
  0
LINE
  8
0
 62
     0
 10
250.22
 20
93.938
 30
0.0
 11
251.019
 21
93.938
 31
0.0
  0
LINE
  8
0
 62
     0
 10
251.019
 20
93.938
 30
0.0
 11
251.019
 21
97.0372
 31
0.0
  0
LINE
  8
0
 62
     0
 10
251.019
 20
97.0372
 30
0.0
 11
250.22
 21
97.0372
 31
0.0
  0
LINE
  8
0
 62
     0
 10
250.22
 20
97.0372
 30
0.0
 11
250.22
 21
98.0377
 31
0.0
  0
LINE
  8
0
 62
     0
 10
250.22
 20
98.0377
 30
0.0
 11
236.219
 21
98.0377
 31
0.0
  0
LINE
  8
0
 62
     0
 10
217.169
 20
98.0377
 30
0.0
 11
217.169
 21
97.0372
 31
0.0
  0
LINE
  8
0
 62
     0
 10
217.169
 20
97.0372
 30
0.0
 11
216.37
 21
97.0372
 31
0.0
  0
LINE
  8
0
 62
     0
 10
216.37
 20
97.0372
 30
0.0
 11
216.37
 21
93.938
 31
0.0
  0
LINE
  8
0
 62
     0
 10
216.37
 20
93.938
 30
0.0
 11
217.169
 21
93.938
 31
0.0
  0
LINE
  8
0
 62
     0
 10
217.169
 20
93.938
 30
0.0
 11
217.169
 21
88.138
 31
0.0
  0
LINE
  8
0
 62
     0
 10
217.169
 20
88.138
 30
0.0
 11
216.37
 21
88.138
 31
0.0
  0
LINE
  8
0
 62
     0
 10
216.37
 20
88.138
 30
0.0
 11
216.37
 21
85.0374
 31
0.0
  0
LINE
  8
0
 62
     0
 10
216.37
 20
85.0374
 30
0.0
 11
217.169
 21
85.0374
 31
0.0
  0
LINE
  8
0
 62
     0
 10
217.169
 20
85.0374
 30
0.0
 11
217.169
 21
84.0384
 31
0.0
  0
LINE
  8
0
 62
     0
 10
217.169
 20
84.0384
 30
0.0
 11
231.17
 21
84.0384
 31
0.0
  0
LINE
  8
0
 62
     0
 10
231.17
 20
84.0384
 30
0.0
 11
231.17
 21
85.0374
 31
0.0
  0
LINE
  8
0
 62
     0
 10
231.17
 20
85.0374
 30
0.0
 11
231.969
 21
85.0374
 31
0.0
  0
LINE
  8
0
 62
     0
 10
231.969
 20
85.0374
 30
0.0
 11
231.969
 21
88.138
 31
0.0
  0
LINE
  8
0
 62
     0
 10
231.969
 20
88.138
 30
0.0
 11
231.17
 21
88.138
 31
0.0
  0
LINE
  8
0
 62
     0
 10
231.17
 20
88.138
 30
0.0
 11
231.17
 21
93.938
 31
0.0
  0
LINE
  8
0
 62
     0
 10
231.17
 20
93.938
 30
0.0
 11
231.969
 21
93.938
 31
0.0
  0
LINE
  8
0
 62
     0
 10
231.969
 20
93.938
 30
0.0
 11
231.969
 21
97.0372
 31
0.0
  0
LINE
  8
0
 62
     0
 10
231.969
 20
97.0372
 30
0.0
 11
231.17
 21
97.0372
 31
0.0
  0
LINE
  8
0
 62
     0
 10
231.17
 20
97.0372
 30
0.0
 11
231.17
 21
98.0377
 31
0.0
  0
LINE
  8
0
 62
     0
 10
231.17
 20
98.0377
 30
0.0
 11
217.169
 21
98.0377
 31
0.0
  0
LINE
  8
0
 62
     0
 10
198.119
 20
98.0377
 30
0.0
 11
198.119
 21
97.0372
 31
0.0
  0
LINE
  8
0
 62
     0
 10
198.119
 20
97.0372
 30
0.0
 11
197.32
 21
97.0372
 31
0.0
  0
LINE
  8
0
 62
     0
 10
197.32
 20
97.0372
 30
0.0
 11
197.32
 21
93.938
 31
0.0
  0
LINE
  8
0
 62
     0
 10
197.32
 20
93.938
 30
0.0
 11
198.119
 21
93.938
 31
0.0
  0
LINE
  8
0
 62
     0
 10
198.119
 20
93.938
 30
0.0
 11
198.119
 21
88.138
 31
0.0
  0
LINE
  8
0
 62
     0
 10
198.119
 20
88.138
 30
0.0
 11
197.32
 21
88.138
 31
0.0
  0
LINE
  8
0
 62
     0
 10
197.32
 20
88.138
 30
0.0
 11
197.32
 21
85.0374
 31
0.0
  0
LINE
  8
0
 62
     0
 10
197.32
 20
85.0374
 30
0.0
 11
198.119
 21
85.0374
 31
0.0
  0
LINE
  8
0
 62
     0
 10
198.119
 20
85.0374
 30
0.0
 11
198.119
 21
84.0384
 31
0.0
  0
LINE
  8
0
 62
     0
 10
198.119
 20
84.0384
 30
0.0
 11
212.12
 21
84.0384
 31
0.0
  0
LINE
  8
0
 62
     0
 10
212.12
 20
84.0384
 30
0.0
 11
212.12
 21
85.0374
 31
0.0
  0
LINE
  8
0
 62
     0
 10
212.12
 20
85.0374
 30
0.0
 11
212.919
 21
85.0374
 31
0.0
  0
LINE
  8
0
 62
     0
 10
212.919
 20
85.0374
 30
0.0
 11
212.919
 21
88.138
 31
0.0
  0
LINE
  8
0
 62
     0
 10
212.919
 20
88.138
 30
0.0
 11
212.12
 21
88.138
 31
0.0
  0
LINE
  8
0
 62
     0
 10
212.12
 20
88.138
 30
0.0
 11
212.12
 21
93.938
 31
0.0
  0
LINE
  8
0
 62
     0
 10
212.12
 20
93.938
 30
0.0
 11
212.919
 21
93.938
 31
0.0
  0
LINE
  8
0
 62
     0
 10
212.919
 20
93.938
 30
0.0
 11
212.919
 21
97.0372
 31
0.0
  0
LINE
  8
0
 62
     0
 10
212.919
 20
97.0372
 30
0.0
 11
212.12
 21
97.0372
 31
0.0
  0
LINE
  8
0
 62
     0
 10
212.12
 20
97.0372
 30
0.0
 11
212.12
 21
98.0377
 31
0.0
  0
LINE
  8
0
 62
     0
 10
212.12
 20
98.0377
 30
0.0
 11
198.119
 21
98.0377
 31
0.0
  0
LINE
  8
0
 62
     0
 10
179.069
 20
98.0377
 30
0.0
 11
179.069
 21
97.0372
 31
0.0
  0
LINE
  8
0
 62
     0
 10
179.069
 20
97.0372
 30
0.0
 11
178.268
 21
97.0372
 31
0.0
  0
LINE
  8
0
 62
     0
 10
178.268
 20
97.0372
 30
0.0
 11
178.268
 21
93.938
 31
0.0
  0
LINE
  8
0
 62
     0
 10
178.268
 20
93.938
 30
0.0
 11
179.069
 21
93.938
 31
0.0
  0
LINE
  8
0
 62
     0
 10
179.069
 20
93.938
 30
0.0
 11
179.069
 21
88.138
 31
0.0
  0
LINE
  8
0
 62
     0
 10
179.069
 20
88.138
 30
0.0
 11
178.268
 21
88.138
 31
0.0
  0
LINE
  8
0
 62
     0
 10
178.268
 20
88.138
 30
0.0
 11
178.268
 21
85.0374
 31
0.0
  0
LINE
  8
0
 62
     0
 10
178.268
 20
85.0374
 30
0.0
 11
179.069
 21
85.0374
 31
0.0
  0
LINE
  8
0
 62
     0
 10
179.069
 20
85.0374
 30
0.0
 11
179.069
 21
84.0384
 31
0.0
  0
LINE
  8
0
 62
     0
 10
179.069
 20
84.0384
 30
0.0
 11
193.07
 21
84.0384
 31
0.0
  0
LINE
  8
0
 62
     0
 10
193.07
 20
84.0384
 30
0.0
 11
193.07
 21
85.0374
 31
0.0
  0
LINE
  8
0
 62
     0
 10
193.07
 20
85.0374
 30
0.0
 11
193.869
 21
85.0374
 31
0.0
  0
LINE
  8
0
 62
     0
 10
193.869
 20
85.0374
 30
0.0
 11
193.869
 21
88.138
 31
0.0
  0
LINE
  8
0
 62
     0
 10
193.869
 20
88.138
 30
0.0
 11
193.07
 21
88.138
 31
0.0
  0
LINE
  8
0
 62
     0
 10
193.07
 20
88.138
 30
0.0
 11
193.07
 21
93.938
 31
0.0
  0
LINE
  8
0
 62
     0
 10
193.07
 20
93.938
 30
0.0
 11
193.869
 21
93.938
 31
0.0
  0
LINE
  8
0
 62
     0
 10
193.869
 20
93.938
 30
0.0
 11
193.869
 21
97.0372
 31
0.0
  0
LINE
  8
0
 62
     0
 10
193.869
 20
97.0372
 30
0.0
 11
193.07
 21
97.0372
 31
0.0
  0
LINE
  8
0
 62
     0
 10
193.07
 20
97.0372
 30
0.0
 11
193.07
 21
98.0377
 31
0.0
  0
LINE
  8
0
 62
     0
 10
193.07
 20
98.0377
 30
0.0
 11
179.069
 21
98.0377
 31
0.0
  0
LINE
  8
0
 62
     0
 10
160.019
 20
98.0377
 30
0.0
 11
160.019
 21
97.0372
 31
0.0
  0
LINE
  8
0
 62
     0
 10
160.019
 20
97.0372
 30
0.0
 11
159.218
 21
97.0372
 31
0.0
  0
LINE
  8
0
 62
     0
 10
159.218
 20
97.0372
 30
0.0
 11
159.218
 21
93.938
 31
0.0
  0
LINE
  8
0
 62
     0
 10
159.218
 20
93.938
 30
0.0
 11
160.019
 21
93.938
 31
0.0
  0
LINE
  8
0
 62
     0
 10
160.019
 20
93.938
 30
0.0
 11
160.019
 21
88.138
 31
0.0
  0
LINE
  8
0
 62
     0
 10
160.019
 20
88.138
 30
0.0
 11
159.218
 21
88.138
 31
0.0
  0
LINE
  8
0
 62
     0
 10
159.218
 20
88.138
 30
0.0
 11
159.218
 21
85.0374
 31
0.0
  0
LINE
  8
0
 62
     0
 10
159.218
 20
85.0374
 30
0.0
 11
160.019
 21
85.0374
 31
0.0
  0
LINE
  8
0
 62
     0
 10
160.019
 20
85.0374
 30
0.0
 11
160.019
 21
84.0384
 31
0.0
  0
LINE
  8
0
 62
     0
 10
160.019
 20
84.0384
 30
0.0
 11
174.019
 21
84.0384
 31
0.0
  0
LINE
  8
0
 62
     0
 10
174.019
 20
84.0384
 30
0.0
 11
174.019
 21
85.0374
 31
0.0
  0
LINE
  8
0
 62
     0
 10
174.019
 20
85.0374
 30
0.0
 11
174.819
 21
85.0374
 31
0.0
  0
LINE
  8
0
 62
     0
 10
174.819
 20
85.0374
 30
0.0
 11
174.819
 21
88.138
 31
0.0
  0
LINE
  8
0
 62
     0
 10
174.819
 20
88.138
 30
0.0
 11
174.019
 21
88.138
 31
0.0
  0
LINE
  8
0
 62
     0
 10
174.019
 20
88.138
 30
0.0
 11
174.019
 21
93.938
 31
0.0
  0
LINE
  8
0
 62
     0
 10
174.019
 20
93.938
 30
0.0
 11
174.819
 21
93.938
 31
0.0
  0
LINE
  8
0
 62
     0
 10
174.819
 20
93.938
 30
0.0
 11
174.819
 21
97.0372
 31
0.0
  0
LINE
  8
0
 62
     0
 10
174.819
 20
97.0372
 30
0.0
 11
174.019
 21
97.0372
 31
0.0
  0
LINE
  8
0
 62
     0
 10
174.019
 20
97.0372
 30
0.0
 11
174.019
 21
98.0377
 31
0.0
  0
LINE
  8
0
 62
     0
 10
174.019
 20
98.0377
 30
0.0
 11
160.019
 21
98.0377
 31
0.0
  0
LINE
  8
0
 62
     0
 10
102.869
 20
98.0377
 30
0.0
 11
102.869
 21
97.0372
 31
0.0
  0
LINE
  8
0
 62
     0
 10
102.869
 20
97.0372
 30
0.0
 11
102.07
 21
97.0372
 31
0.0
  0
LINE
  8
0
 62
     0
 10
102.07
 20
97.0372
 30
0.0
 11
102.07
 21
93.938
 31
0.0
  0
LINE
  8
0
 62
     0
 10
102.07
 20
93.938
 30
0.0
 11
102.869
 21
93.938
 31
0.0
  0
LINE
  8
0
 62
     0
 10
102.869
 20
93.938
 30
0.0
 11
102.869
 21
88.138
 31
0.0
  0
LINE
  8
0
 62
     0
 10
102.869
 20
88.138
 30
0.0
 11
102.07
 21
88.138
 31
0.0
  0
LINE
  8
0
 62
     0
 10
102.07
 20
88.138
 30
0.0
 11
102.07
 21
85.0374
 31
0.0
  0
LINE
  8
0
 62
     0
 10
102.07
 20
85.0374
 30
0.0
 11
102.869
 21
85.0374
 31
0.0
  0
LINE
  8
0
 62
     0
 10
102.869
 20
85.0374
 30
0.0
 11
102.869
 21
84.0384
 31
0.0
  0
LINE
  8
0
 62
     0
 10
102.869
 20
84.0384
 30
0.0
 11
116.869
 21
84.0384
 31
0.0
  0
LINE
  8
0
 62
     0
 10
116.869
 20
84.0384
 30
0.0
 11
116.869
 21
85.0374
 31
0.0
  0
LINE
  8
0
 62
     0
 10
116.869
 20
85.0374
 30
0.0
 11
117.668
 21
85.0374
 31
0.0
  0
LINE
  8
0
 62
     0
 10
117.668
 20
85.0374
 30
0.0
 11
117.668
 21
88.138
 31
0.0
  0
LINE
  8
0
 62
     0
 10
117.668
 20
88.138
 30
0.0
 11
116.869
 21
88.138
 31
0.0
  0
LINE
  8
0
 62
     0
 10
116.869
 20
88.138
 30
0.0
 11
116.869
 21
93.938
 31
0.0
  0
LINE
  8
0
 62
     0
 10
116.869
 20
93.938
 30
0.0
 11
117.668
 21
93.938
 31
0.0
  0
LINE
  8
0
 62
     0
 10
117.668
 20
93.938
 30
0.0
 11
117.668
 21
97.0372
 31
0.0
  0
LINE
  8
0
 62
     0
 10
117.668
 20
97.0372
 30
0.0
 11
116.869
 21
97.0372
 31
0.0
  0
LINE
  8
0
 62
     0
 10
116.869
 20
97.0372
 30
0.0
 11
116.869
 21
98.0377
 31
0.0
  0
LINE
  8
0
 62
     0
 10
116.869
 20
98.0377
 30
0.0
 11
102.869
 21
98.0377
 31
0.0
  0
LINE
  8
0
 62
     0
 10
83.8193
 20
98.0377
 30
0.0
 11
83.8193
 21
97.0372
 31
0.0
  0
LINE
  8
0
 62
     0
 10
83.8193
 20
97.0372
 30
0.0
 11
83.0199
 21
97.0372
 31
0.0
  0
LINE
  8
0
 62
     0
 10
83.0199
 20
97.0372
 30
0.0
 11
83.0199
 21
93.938
 31
0.0
  0
LINE
  8
0
 62
     0
 10
83.0199
 20
93.938
 30
0.0
 11
83.8193
 21
93.938
 31
0.0
  0
LINE
  8
0
 62
     0
 10
83.8193
 20
93.938
 30
0.0
 11
83.8193
 21
88.138
 31
0.0
  0
LINE
  8
0
 62
     0
 10
83.8193
 20
88.138
 30
0.0
 11
83.0199
 21
88.138
 31
0.0
  0
LINE
  8
0
 62
     0
 10
83.0199
 20
88.138
 30
0.0
 11
83.0199
 21
85.0374
 31
0.0
  0
LINE
  8
0
 62
     0
 10
83.0199
 20
85.0374
 30
0.0
 11
83.8193
 21
85.0374
 31
0.0
  0
LINE
  8
0
 62
     0
 10
83.8193
 20
85.0374
 30
0.0
 11
83.8193
 21
84.0384
 31
0.0
  0
LINE
  8
0
 62
     0
 10
83.8193
 20
84.0384
 30
0.0
 11
97.82
 21
84.0384
 31
0.0
  0
LINE
  8
0
 62
     0
 10
97.82
 20
84.0384
 30
0.0
 11
97.82
 21
85.0374
 31
0.0
  0
LINE
  8
0
 62
     0
 10
97.82
 20
85.0374
 30
0.0
 11
98.618
 21
85.0374
 31
0.0
  0
LINE
  8
0
 62
     0
 10
98.618
 20
85.0374
 30
0.0
 11
98.618
 21
88.138
 31
0.0
  0
LINE
  8
0
 62
     0
 10
98.618
 20
88.138
 30
0.0
 11
97.82
 21
88.138
 31
0.0
  0
LINE
  8
0
 62
     0
 10
97.82
 20
88.138
 30
0.0
 11
97.82
 21
93.938
 31
0.0
  0
LINE
  8
0
 62
     0
 10
97.82
 20
93.938
 30
0.0
 11
98.618
 21
93.938
 31
0.0
  0
LINE
  8
0
 62
     0
 10
98.618
 20
93.938
 30
0.0
 11
98.618
 21
97.0372
 31
0.0
  0
LINE
  8
0
 62
     0
 10
98.618
 20
97.0372
 30
0.0
 11
97.82
 21
97.0372
 31
0.0
  0
LINE
  8
0
 62
     0
 10
97.82
 20
97.0372
 30
0.0
 11
97.82
 21
98.0377
 31
0.0
  0
LINE
  8
0
 62
     0
 10
97.82
 20
98.0377
 30
0.0
 11
83.8193
 21
98.0377
 31
0.0
  0
LINE
  8
0
 62
     0
 10
64.7693
 20
98.0377
 30
0.0
 11
64.7693
 21
97.0372
 31
0.0
  0
LINE
  8
0
 62
     0
 10
64.7693
 20
97.0372
 30
0.0
 11
63.9699
 21
97.0372
 31
0.0
  0
LINE
  8
0
 62
     0
 10
63.9699
 20
97.0372
 30
0.0
 11
63.9699
 21
93.938
 31
0.0
  0
LINE
  8
0
 62
     0
 10
63.9699
 20
93.938
 30
0.0
 11
64.7693
 21
93.938
 31
0.0
  0
LINE
  8
0
 62
     0
 10
64.7693
 20
93.938
 30
0.0
 11
64.7693
 21
88.138
 31
0.0
  0
LINE
  8
0
 62
     0
 10
64.7693
 20
88.138
 30
0.0
 11
63.9699
 21
88.138
 31
0.0
  0
LINE
  8
0
 62
     0
 10
63.9699
 20
88.138
 30
0.0
 11
63.9699
 21
85.0374
 31
0.0
  0
LINE
  8
0
 62
     0
 10
63.9699
 20
85.0374
 30
0.0
 11
64.7693
 21
85.0374
 31
0.0
  0
LINE
  8
0
 62
     0
 10
64.7693
 20
85.0374
 30
0.0
 11
64.7693
 21
84.0384
 31
0.0
  0
LINE
  8
0
 62
     0
 10
64.7693
 20
84.0384
 30
0.0
 11
78.77
 21
84.0384
 31
0.0
  0
LINE
  8
0
 62
     0
 10
78.77
 20
84.0384
 30
0.0
 11
78.77
 21
85.0374
 31
0.0
  0
LINE
  8
0
 62
     0
 10
78.77
 20
85.0374
 30
0.0
 11
79.5694
 21
85.0374
 31
0.0
  0
LINE
  8
0
 62
     0
 10
79.5694
 20
85.0374
 30
0.0
 11
79.5694
 21
88.138
 31
0.0
  0
LINE
  8
0
 62
     0
 10
79.5694
 20
88.138
 30
0.0
 11
78.77
 21
88.138
 31
0.0
  0
LINE
  8
0
 62
     0
 10
78.77
 20
88.138
 30
0.0
 11
78.77
 21
93.938
 31
0.0
  0
LINE
  8
0
 62
     0
 10
78.77
 20
93.938
 30
0.0
 11
79.5694
 21
93.938
 31
0.0
  0
LINE
  8
0
 62
     0
 10
79.5694
 20
93.938
 30
0.0
 11
79.5694
 21
97.0372
 31
0.0
  0
LINE
  8
0
 62
     0
 10
79.5694
 20
97.0372
 30
0.0
 11
78.77
 21
97.0372
 31
0.0
  0
LINE
  8
0
 62
     0
 10
78.77
 20
97.0372
 30
0.0
 11
78.77
 21
98.0377
 31
0.0
  0
LINE
  8
0
 62
     0
 10
78.77
 20
98.0377
 30
0.0
 11
64.7693
 21
98.0377
 31
0.0
  0
LINE
  8
0
 62
     0
 10
45.7193
 20
98.0377
 30
0.0
 11
45.7193
 21
97.0372
 31
0.0
  0
LINE
  8
0
 62
     0
 10
45.7193
 20
97.0372
 30
0.0
 11
44.9199
 21
97.0372
 31
0.0
  0
LINE
  8
0
 62
     0
 10
44.9199
 20
97.0372
 30
0.0
 11
44.9199
 21
93.938
 31
0.0
  0
LINE
  8
0
 62
     0
 10
44.9199
 20
93.938
 30
0.0
 11
45.7193
 21
93.938
 31
0.0
  0
LINE
  8
0
 62
     0
 10
45.7193
 20
93.938
 30
0.0
 11
45.7193
 21
88.138
 31
0.0
  0
LINE
  8
0
 62
     0
 10
45.7193
 20
88.138
 30
0.0
 11
44.9199
 21
88.138
 31
0.0
  0
LINE
  8
0
 62
     0
 10
44.9199
 20
88.138
 30
0.0
 11
44.9199
 21
85.0374
 31
0.0
  0
LINE
  8
0
 62
     0
 10
44.9199
 20
85.0374
 30
0.0
 11
45.7193
 21
85.0374
 31
0.0
  0
LINE
  8
0
 62
     0
 10
45.7193
 20
85.0374
 30
0.0
 11
45.7193
 21
84.0384
 31
0.0
  0
LINE
  8
0
 62
     0
 10
45.7193
 20
84.0384
 30
0.0
 11
59.72
 21
84.0384
 31
0.0
  0
LINE
  8
0
 62
     0
 10
59.72
 20
84.0384
 30
0.0
 11
59.72
 21
85.0374
 31
0.0
  0
LINE
  8
0
 62
     0
 10
59.72
 20
85.0374
 30
0.0
 11
60.5194
 21
85.0374
 31
0.0
  0
LINE
  8
0
 62
     0
 10
60.5194
 20
85.0374
 30
0.0
 11
60.5194
 21
88.138
 31
0.0
  0
LINE
  8
0
 62
     0
 10
60.5194
 20
88.138
 30
0.0
 11
59.72
 21
88.138
 31
0.0
  0
LINE
  8
0
 62
     0
 10
59.72
 20
88.138
 30
0.0
 11
59.72
 21
93.938
 31
0.0
  0
LINE
  8
0
 62
     0
 10
59.72
 20
93.938
 30
0.0
 11
60.5194
 21
93.938
 31
0.0
  0
LINE
  8
0
 62
     0
 10
60.5194
 20
93.938
 30
0.0
 11
60.5194
 21
97.0372
 31
0.0
  0
LINE
  8
0
 62
     0
 10
60.5194
 20
97.0372
 30
0.0
 11
59.72
 21
97.0372
 31
0.0
  0
LINE
  8
0
 62
     0
 10
59.72
 20
97.0372
 30
0.0
 11
59.72
 21
98.0377
 31
0.0
  0
LINE
  8
0
 62
     0
 10
59.72
 20
98.0377
 30
0.0
 11
45.7193
 21
98.0377
 31
0.0
  0
LINE
  8
0
 62
     0
 10
26.6692
 20
98.0377
 30
0.0
 11
26.6692
 21
97.0372
 31
0.0
  0
LINE
  8
0
 62
     0
 10
26.6692
 20
97.0372
 30
0.0
 11
25.8699
 21
97.0372
 31
0.0
  0
LINE
  8
0
 62
     0
 10
25.8699
 20
97.0372
 30
0.0
 11
25.8699
 21
93.938
 31
0.0
  0
LINE
  8
0
 62
     0
 10
25.8699
 20
93.938
 30
0.0
 11
26.6692
 21
93.938
 31
0.0
  0
LINE
  8
0
 62
     0
 10
26.6692
 20
93.938
 30
0.0
 11
26.6692
 21
88.138
 31
0.0
  0
LINE
  8
0
 62
     0
 10
26.6692
 20
88.138
 30
0.0
 11
25.8699
 21
88.138
 31
0.0
  0
LINE
  8
0
 62
     0
 10
25.8699
 20
88.138
 30
0.0
 11
25.8699
 21
85.0374
 31
0.0
  0
LINE
  8
0
 62
     0
 10
25.8699
 20
85.0374
 30
0.0
 11
26.6692
 21
85.0374
 31
0.0
  0
LINE
  8
0
 62
     0
 10
26.6692
 20
85.0374
 30
0.0
 11
26.6692
 21
84.0384
 31
0.0
  0
LINE
  8
0
 62
     0
 10
26.6692
 20
84.0384
 30
0.0
 11
40.67
 21
84.0384
 31
0.0
  0
LINE
  8
0
 62
     0
 10
40.67
 20
84.0384
 30
0.0
 11
40.67
 21
85.0374
 31
0.0
  0
LINE
  8
0
 62
     0
 10
40.67
 20
85.0374
 30
0.0
 11
41.4694
 21
85.0374
 31
0.0
  0
LINE
  8
0
 62
     0
 10
41.4694
 20
85.0374
 30
0.0
 11
41.4694
 21
88.138
 31
0.0
  0
LINE
  8
0
 62
     0
 10
41.4694
 20
88.138
 30
0.0
 11
40.67
 21
88.138
 31
0.0
  0
LINE
  8
0
 62
     0
 10
40.67
 20
88.138
 30
0.0
 11
40.67
 21
93.938
 31
0.0
  0
LINE
  8
0
 62
     0
 10
40.67
 20
93.938
 30
0.0
 11
41.4694
 21
93.938
 31
0.0
  0
LINE
  8
0
 62
     0
 10
41.4694
 20
93.938
 30
0.0
 11
41.4694
 21
97.0372
 31
0.0
  0
LINE
  8
0
 62
     0
 10
41.4694
 20
97.0372
 30
0.0
 11
40.67
 21
97.0372
 31
0.0
  0
LINE
  8
0
 62
     0
 10
40.67
 20
97.0372
 30
0.0
 11
40.67
 21
98.0377
 31
0.0
  0
LINE
  8
0
 62
     0
 10
40.67
 20
98.0377
 30
0.0
 11
26.6692
 21
98.0377
 31
0.0
  0
LINE
  8
0
 62
     0
 10
7.61919
 20
98.0377
 30
0.0
 11
7.61919
 21
97.0372
 31
0.0
  0
LINE
  8
0
 62
     0
 10
7.61919
 20
97.0372
 30
0.0
 11
6.81852
 21
97.0372
 31
0.0
  0
LINE
  8
0
 62
     0
 10
6.81852
 20
97.0372
 30
0.0
 11
6.81852
 21
93.938
 31
0.0
  0
LINE
  8
0
 62
     0
 10
6.81852
 20
93.938
 30
0.0
 11
7.61919
 21
93.938
 31
0.0
  0
LINE
  8
0
 62
     0
 10
7.61919
 20
93.938
 30
0.0
 11
7.61919
 21
88.138
 31
0.0
  0
LINE
  8
0
 62
     0
 10
7.61919
 20
88.138
 30
0.0
 11
6.81852
 21
88.138
 31
0.0
  0
LINE
  8
0
 62
     0
 10
6.81852
 20
88.138
 30
0.0
 11
6.81852
 21
85.0374
 31
0.0
  0
LINE
  8
0
 62
     0
 10
6.81852
 20
85.0374
 30
0.0
 11
7.61919
 21
85.0374
 31
0.0
  0
LINE
  8
0
 62
     0
 10
7.61919
 20
85.0374
 30
0.0
 11
7.61919
 21
84.0384
 31
0.0
  0
LINE
  8
0
 62
     0
 10
7.61919
 20
84.0384
 30
0.0
 11
21.6201
 21
84.0384
 31
0.0
  0
LINE
  8
0
 62
     0
 10
21.6201
 20
84.0384
 30
0.0
 11
21.6201
 21
85.0374
 31
0.0
  0
LINE
  8
0
 62
     0
 10
21.6201
 20
85.0374
 30
0.0
 11
22.4193
 21
85.0374
 31
0.0
  0
LINE
  8
0
 62
     0
 10
22.4193
 20
85.0374
 30
0.0
 11
22.4193
 21
88.138
 31
0.0
  0
LINE
  8
0
 62
     0
 10
22.4193
 20
88.138
 30
0.0
 11
21.6201
 21
88.138
 31
0.0
  0
LINE
  8
0
 62
     0
 10
21.6201
 20
88.138
 30
0.0
 11
21.6201
 21
93.938
 31
0.0
  0
LINE
  8
0
 62
     0
 10
21.6201
 20
93.938
 30
0.0
 11
22.4193
 21
93.938
 31
0.0
  0
LINE
  8
0
 62
     0
 10
22.4193
 20
93.938
 30
0.0
 11
22.4193
 21
97.0372
 31
0.0
  0
LINE
  8
0
 62
     0
 10
22.4193
 20
97.0372
 30
0.0
 11
21.6201
 21
97.0372
 31
0.0
  0
LINE
  8
0
 62
     0
 10
21.6201
 20
97.0372
 30
0.0
 11
21.6201
 21
98.0377
 31
0.0
  0
LINE
  8
0
 62
     0
 10
21.6201
 20
98.0377
 30
0.0
 11
7.61919
 21
98.0377
 31
0.0
  0
LINE
  8
0
 62
     0
 10
379.095
 20
121.85
 30
0.0
 11
379.095
 21
120.851
 31
0.0
  0
LINE
  8
0
 62
     0
 10
379.095
 20
120.851
 30
0.0
 11
378.294
 21
120.851
 31
0.0
  0
LINE
  8
0
 62
     0
 10
378.294
 20
120.851
 30
0.0
 11
378.294
 21
117.751
 31
0.0
  0
LINE
  8
0
 62
     0
 10
378.294
 20
117.751
 30
0.0
 11
379.095
 21
117.751
 31
0.0
  0
LINE
  8
0
 62
     0
 10
379.095
 20
117.751
 30
0.0
 11
379.095
 21
111.95
 31
0.0
  0
LINE
  8
0
 62
     0
 10
379.095
 20
111.95
 30
0.0
 11
378.294
 21
111.95
 31
0.0
  0
LINE
  8
0
 62
     0
 10
378.294
 20
111.95
 30
0.0
 11
378.294
 21
108.85
 31
0.0
  0
LINE
  8
0
 62
     0
 10
378.294
 20
108.85
 30
0.0
 11
379.095
 21
108.85
 31
0.0
  0
LINE
  8
0
 62
     0
 10
379.095
 20
108.85
 30
0.0
 11
379.095
 21
107.849
 31
0.0
  0
LINE
  8
0
 62
     0
 10
379.095
 20
107.849
 30
0.0
 11
393.097
 21
107.849
 31
0.0
  0
LINE
  8
0
 62
     0
 10
393.097
 20
107.849
 30
0.0
 11
393.097
 21
108.85
 31
0.0
  0
LINE
  8
0
 62
     0
 10
393.097
 20
108.85
 30
0.0
 11
393.894
 21
108.85
 31
0.0
  0
LINE
  8
0
 62
     0
 10
393.894
 20
108.85
 30
0.0
 11
393.894
 21
111.95
 31
0.0
  0
LINE
  8
0
 62
     0
 10
393.894
 20
111.95
 30
0.0
 11
393.097
 21
111.95
 31
0.0
  0
LINE
  8
0
 62
     0
 10
393.097
 20
111.95
 30
0.0
 11
393.097
 21
117.751
 31
0.0
  0
LINE
  8
0
 62
     0
 10
393.097
 20
117.751
 30
0.0
 11
393.894
 21
117.751
 31
0.0
  0
LINE
  8
0
 62
     0
 10
393.894
 20
117.751
 30
0.0
 11
393.894
 21
120.851
 31
0.0
  0
LINE
  8
0
 62
     0
 10
393.894
 20
120.851
 30
0.0
 11
393.097
 21
120.851
 31
0.0
  0
LINE
  8
0
 62
     0
 10
393.097
 20
120.851
 30
0.0
 11
393.097
 21
121.85
 31
0.0
  0
LINE
  8
0
 62
     0
 10
393.097
 20
121.85
 30
0.0
 11
379.095
 21
121.85
 31
0.0
  0
LINE
  8
0
 62
     0
 10
360.045
 20
121.85
 30
0.0
 11
360.045
 21
120.851
 31
0.0
  0
LINE
  8
0
 62
     0
 10
360.045
 20
120.851
 30
0.0
 11
359.244
 21
120.851
 31
0.0
  0
LINE
  8
0
 62
     0
 10
359.244
 20
120.851
 30
0.0
 11
359.244
 21
117.751
 31
0.0
  0
LINE
  8
0
 62
     0
 10
359.244
 20
117.751
 30
0.0
 11
360.045
 21
117.751
 31
0.0
  0
LINE
  8
0
 62
     0
 10
360.045
 20
117.751
 30
0.0
 11
360.045
 21
111.95
 31
0.0
  0
LINE
  8
0
 62
     0
 10
360.045
 20
111.95
 30
0.0
 11
359.244
 21
111.95
 31
0.0
  0
LINE
  8
0
 62
     0
 10
359.244
 20
111.95
 30
0.0
 11
359.244
 21
108.85
 31
0.0
  0
LINE
  8
0
 62
     0
 10
359.244
 20
108.85
 30
0.0
 11
360.045
 21
108.85
 31
0.0
  0
LINE
  8
0
 62
     0
 10
360.045
 20
108.85
 30
0.0
 11
360.045
 21
107.849
 31
0.0
  0
LINE
  8
0
 62
     0
 10
360.045
 20
107.849
 30
0.0
 11
374.047
 21
107.849
 31
0.0
  0
LINE
  8
0
 62
     0
 10
374.047
 20
107.849
 30
0.0
 11
374.047
 21
108.85
 31
0.0
  0
LINE
  8
0
 62
     0
 10
374.047
 20
108.85
 30
0.0
 11
374.844
 21
108.85
 31
0.0
  0
LINE
  8
0
 62
     0
 10
374.844
 20
108.85
 30
0.0
 11
374.844
 21
111.95
 31
0.0
  0
LINE
  8
0
 62
     0
 10
374.844
 20
111.95
 30
0.0
 11
374.047
 21
111.95
 31
0.0
  0
LINE
  8
0
 62
     0
 10
374.047
 20
111.95
 30
0.0
 11
374.047
 21
117.751
 31
0.0
  0
LINE
  8
0
 62
     0
 10
374.047
 20
117.751
 30
0.0
 11
374.844
 21
117.751
 31
0.0
  0
LINE
  8
0
 62
     0
 10
374.844
 20
117.751
 30
0.0
 11
374.844
 21
120.851
 31
0.0
  0
LINE
  8
0
 62
     0
 10
374.844
 20
120.851
 30
0.0
 11
374.047
 21
120.851
 31
0.0
  0
LINE
  8
0
 62
     0
 10
374.047
 20
120.851
 30
0.0
 11
374.047
 21
121.85
 31
0.0
  0
LINE
  8
0
 62
     0
 10
374.047
 20
121.85
 30
0.0
 11
360.045
 21
121.85
 31
0.0
  0
LINE
  8
0
 62
     0
 10
340.994
 20
121.85
 30
0.0
 11
340.994
 21
120.851
 31
0.0
  0
LINE
  8
0
 62
     0
 10
340.994
 20
120.851
 30
0.0
 11
340.195
 21
120.851
 31
0.0
  0
LINE
  8
0
 62
     0
 10
340.195
 20
120.851
 30
0.0
 11
340.195
 21
117.751
 31
0.0
  0
LINE
  8
0
 62
     0
 10
340.195
 20
117.751
 30
0.0
 11
340.994
 21
117.751
 31
0.0
  0
LINE
  8
0
 62
     0
 10
340.994
 20
117.751
 30
0.0
 11
340.994
 21
111.95
 31
0.0
  0
LINE
  8
0
 62
     0
 10
340.994
 20
111.95
 30
0.0
 11
340.195
 21
111.95
 31
0.0
  0
LINE
  8
0
 62
     0
 10
340.195
 20
111.95
 30
0.0
 11
340.195
 21
108.85
 31
0.0
  0
LINE
  8
0
 62
     0
 10
340.195
 20
108.85
 30
0.0
 11
340.994
 21
108.85
 31
0.0
  0
LINE
  8
0
 62
     0
 10
340.994
 20
108.85
 30
0.0
 11
340.994
 21
107.849
 31
0.0
  0
LINE
  8
0
 62
     0
 10
340.994
 20
107.849
 30
0.0
 11
354.997
 21
107.849
 31
0.0
  0
LINE
  8
0
 62
     0
 10
354.997
 20
107.849
 30
0.0
 11
354.997
 21
108.85
 31
0.0
  0
LINE
  8
0
 62
     0
 10
354.997
 20
108.85
 30
0.0
 11
355.794
 21
108.85
 31
0.0
  0
LINE
  8
0
 62
     0
 10
355.794
 20
108.85
 30
0.0
 11
355.794
 21
111.95
 31
0.0
  0
LINE
  8
0
 62
     0
 10
355.794
 20
111.95
 30
0.0
 11
354.997
 21
111.95
 31
0.0
  0
LINE
  8
0
 62
     0
 10
354.997
 20
111.95
 30
0.0
 11
354.997
 21
117.751
 31
0.0
  0
LINE
  8
0
 62
     0
 10
354.997
 20
117.751
 30
0.0
 11
355.794
 21
117.751
 31
0.0
  0
LINE
  8
0
 62
     0
 10
355.794
 20
117.751
 30
0.0
 11
355.794
 21
120.851
 31
0.0
  0
LINE
  8
0
 62
     0
 10
355.794
 20
120.851
 30
0.0
 11
354.997
 21
120.851
 31
0.0
  0
LINE
  8
0
 62
     0
 10
354.997
 20
120.851
 30
0.0
 11
354.997
 21
121.85
 31
0.0
  0
LINE
  8
0
 62
     0
 10
354.997
 20
121.85
 30
0.0
 11
340.994
 21
121.85
 31
0.0
  0
LINE
  8
0
 62
     0
 10
312.419
 20
121.85
 30
0.0
 11
312.419
 21
120.851
 31
0.0
  0
LINE
  8
0
 62
     0
 10
312.419
 20
120.851
 30
0.0
 11
311.62
 21
120.851
 31
0.0
  0
LINE
  8
0
 62
     0
 10
311.62
 20
120.851
 30
0.0
 11
311.62
 21
117.751
 31
0.0
  0
LINE
  8
0
 62
     0
 10
311.62
 20
117.751
 30
0.0
 11
312.419
 21
117.751
 31
0.0
  0
LINE
  8
0
 62
     0
 10
312.419
 20
117.751
 30
0.0
 11
312.419
 21
111.95
 31
0.0
  0
LINE
  8
0
 62
     0
 10
312.419
 20
111.95
 30
0.0
 11
311.62
 21
111.95
 31
0.0
  0
LINE
  8
0
 62
     0
 10
311.62
 20
111.95
 30
0.0
 11
311.62
 21
108.85
 31
0.0
  0
LINE
  8
0
 62
     0
 10
311.62
 20
108.85
 30
0.0
 11
312.419
 21
108.85
 31
0.0
  0
LINE
  8
0
 62
     0
 10
312.419
 20
108.85
 30
0.0
 11
312.419
 21
107.849
 31
0.0
  0
LINE
  8
0
 62
     0
 10
312.419
 20
107.849
 30
0.0
 11
326.42
 21
107.849
 31
0.0
  0
LINE
  8
0
 62
     0
 10
326.42
 20
107.849
 30
0.0
 11
326.42
 21
108.85
 31
0.0
  0
LINE
  8
0
 62
     0
 10
326.42
 20
108.85
 30
0.0
 11
327.219
 21
108.85
 31
0.0
  0
LINE
  8
0
 62
     0
 10
327.219
 20
108.85
 30
0.0
 11
327.219
 21
111.95
 31
0.0
  0
LINE
  8
0
 62
     0
 10
327.219
 20
111.95
 30
0.0
 11
326.42
 21
111.95
 31
0.0
  0
LINE
  8
0
 62
     0
 10
326.42
 20
111.95
 30
0.0
 11
326.42
 21
117.751
 31
0.0
  0
LINE
  8
0
 62
     0
 10
326.42
 20
117.751
 30
0.0
 11
327.219
 21
117.751
 31
0.0
  0
LINE
  8
0
 62
     0
 10
327.219
 20
117.751
 30
0.0
 11
327.219
 21
120.851
 31
0.0
  0
LINE
  8
0
 62
     0
 10
327.219
 20
120.851
 30
0.0
 11
326.42
 21
120.851
 31
0.0
  0
LINE
  8
0
 62
     0
 10
326.42
 20
120.851
 30
0.0
 11
326.42
 21
121.85
 31
0.0
  0
LINE
  8
0
 62
     0
 10
326.42
 20
121.85
 30
0.0
 11
312.419
 21
121.85
 31
0.0
  0
LINE
  8
0
 62
     0
 10
293.369
 20
121.85
 30
0.0
 11
293.369
 21
120.851
 31
0.0
  0
LINE
  8
0
 62
     0
 10
293.369
 20
120.851
 30
0.0
 11
292.57
 21
120.851
 31
0.0
  0
LINE
  8
0
 62
     0
 10
292.57
 20
120.851
 30
0.0
 11
292.57
 21
117.751
 31
0.0
  0
LINE
  8
0
 62
     0
 10
292.57
 20
117.751
 30
0.0
 11
293.369
 21
117.751
 31
0.0
  0
LINE
  8
0
 62
     0
 10
293.369
 20
117.751
 30
0.0
 11
293.369
 21
111.95
 31
0.0
  0
LINE
  8
0
 62
     0
 10
293.369
 20
111.95
 30
0.0
 11
292.57
 21
111.95
 31
0.0
  0
LINE
  8
0
 62
     0
 10
292.57
 20
111.95
 30
0.0
 11
292.57
 21
108.85
 31
0.0
  0
LINE
  8
0
 62
     0
 10
292.57
 20
108.85
 30
0.0
 11
293.369
 21
108.85
 31
0.0
  0
LINE
  8
0
 62
     0
 10
293.369
 20
108.85
 30
0.0
 11
293.369
 21
107.849
 31
0.0
  0
LINE
  8
0
 62
     0
 10
293.369
 20
107.849
 30
0.0
 11
307.37
 21
107.849
 31
0.0
  0
LINE
  8
0
 62
     0
 10
307.37
 20
107.849
 30
0.0
 11
307.37
 21
108.85
 31
0.0
  0
LINE
  8
0
 62
     0
 10
307.37
 20
108.85
 30
0.0
 11
308.169
 21
108.85
 31
0.0
  0
LINE
  8
0
 62
     0
 10
308.169
 20
108.85
 30
0.0
 11
308.169
 21
111.95
 31
0.0
  0
LINE
  8
0
 62
     0
 10
308.169
 20
111.95
 30
0.0
 11
307.37
 21
111.95
 31
0.0
  0
LINE
  8
0
 62
     0
 10
307.37
 20
111.95
 30
0.0
 11
307.37
 21
117.751
 31
0.0
  0
LINE
  8
0
 62
     0
 10
307.37
 20
117.751
 30
0.0
 11
308.169
 21
117.751
 31
0.0
  0
LINE
  8
0
 62
     0
 10
308.169
 20
117.751
 30
0.0
 11
308.169
 21
120.851
 31
0.0
  0
LINE
  8
0
 62
     0
 10
308.169
 20
120.851
 30
0.0
 11
307.37
 21
120.851
 31
0.0
  0
LINE
  8
0
 62
     0
 10
307.37
 20
120.851
 30
0.0
 11
307.37
 21
121.85
 31
0.0
  0
LINE
  8
0
 62
     0
 10
307.37
 20
121.85
 30
0.0
 11
293.369
 21
121.85
 31
0.0
  0
LINE
  8
0
 62
     0
 10
274.319
 20
121.85
 30
0.0
 11
274.319
 21
120.851
 31
0.0
  0
LINE
  8
0
 62
     0
 10
274.319
 20
120.851
 30
0.0
 11
273.52
 21
120.851
 31
0.0
  0
LINE
  8
0
 62
     0
 10
273.52
 20
120.851
 30
0.0
 11
273.52
 21
117.751
 31
0.0
  0
LINE
  8
0
 62
     0
 10
273.52
 20
117.751
 30
0.0
 11
274.319
 21
117.751
 31
0.0
  0
LINE
  8
0
 62
     0
 10
274.319
 20
117.751
 30
0.0
 11
274.319
 21
111.95
 31
0.0
  0
LINE
  8
0
 62
     0
 10
274.319
 20
111.95
 30
0.0
 11
273.52
 21
111.95
 31
0.0
  0
LINE
  8
0
 62
     0
 10
273.52
 20
111.95
 30
0.0
 11
273.52
 21
108.85
 31
0.0
  0
LINE
  8
0
 62
     0
 10
273.52
 20
108.85
 30
0.0
 11
274.319
 21
108.85
 31
0.0
  0
LINE
  8
0
 62
     0
 10
274.319
 20
108.85
 30
0.0
 11
274.319
 21
107.849
 31
0.0
  0
LINE
  8
0
 62
     0
 10
274.319
 20
107.849
 30
0.0
 11
288.32
 21
107.849
 31
0.0
  0
LINE
  8
0
 62
     0
 10
288.32
 20
107.849
 30
0.0
 11
288.32
 21
108.85
 31
0.0
  0
LINE
  8
0
 62
     0
 10
288.32
 20
108.85
 30
0.0
 11
289.119
 21
108.85
 31
0.0
  0
LINE
  8
0
 62
     0
 10
289.119
 20
108.85
 30
0.0
 11
289.119
 21
111.95
 31
0.0
  0
LINE
  8
0
 62
     0
 10
289.119
 20
111.95
 30
0.0
 11
288.32
 21
111.95
 31
0.0
  0
LINE
  8
0
 62
     0
 10
288.32
 20
111.95
 30
0.0
 11
288.32
 21
117.751
 31
0.0
  0
LINE
  8
0
 62
     0
 10
288.32
 20
117.751
 30
0.0
 11
289.119
 21
117.751
 31
0.0
  0
LINE
  8
0
 62
     0
 10
289.119
 20
117.751
 30
0.0
 11
289.119
 21
120.851
 31
0.0
  0
LINE
  8
0
 62
     0
 10
289.119
 20
120.851
 30
0.0
 11
288.32
 21
120.851
 31
0.0
  0
LINE
  8
0
 62
     0
 10
288.32
 20
120.851
 30
0.0
 11
288.32
 21
121.85
 31
0.0
  0
LINE
  8
0
 62
     0
 10
288.32
 20
121.85
 30
0.0
 11
274.319
 21
121.85
 31
0.0
  0
LINE
  8
0
 62
     0
 10
255.269
 20
121.85
 30
0.0
 11
255.269
 21
120.851
 31
0.0
  0
LINE
  8
0
 62
     0
 10
255.269
 20
120.851
 30
0.0
 11
254.47
 21
120.851
 31
0.0
  0
LINE
  8
0
 62
     0
 10
254.47
 20
120.851
 30
0.0
 11
254.47
 21
117.751
 31
0.0
  0
LINE
  8
0
 62
     0
 10
254.47
 20
117.751
 30
0.0
 11
255.269
 21
117.751
 31
0.0
  0
LINE
  8
0
 62
     0
 10
255.269
 20
117.751
 30
0.0
 11
255.269
 21
111.95
 31
0.0
  0
LINE
  8
0
 62
     0
 10
255.269
 20
111.95
 30
0.0
 11
254.47
 21
111.95
 31
0.0
  0
LINE
  8
0
 62
     0
 10
254.47
 20
111.95
 30
0.0
 11
254.47
 21
108.85
 31
0.0
  0
LINE
  8
0
 62
     0
 10
254.47
 20
108.85
 30
0.0
 11
255.269
 21
108.85
 31
0.0
  0
LINE
  8
0
 62
     0
 10
255.269
 20
108.85
 30
0.0
 11
255.269
 21
107.849
 31
0.0
  0
LINE
  8
0
 62
     0
 10
255.269
 20
107.849
 30
0.0
 11
269.27
 21
107.849
 31
0.0
  0
LINE
  8
0
 62
     0
 10
269.27
 20
107.849
 30
0.0
 11
269.27
 21
108.85
 31
0.0
  0
LINE
  8
0
 62
     0
 10
269.27
 20
108.85
 30
0.0
 11
270.069
 21
108.85
 31
0.0
  0
LINE
  8
0
 62
     0
 10
270.069
 20
108.85
 30
0.0
 11
270.069
 21
111.95
 31
0.0
  0
LINE
  8
0
 62
     0
 10
270.069
 20
111.95
 30
0.0
 11
269.27
 21
111.95
 31
0.0
  0
LINE
  8
0
 62
     0
 10
269.27
 20
111.95
 30
0.0
 11
269.27
 21
117.751
 31
0.0
  0
LINE
  8
0
 62
     0
 10
269.27
 20
117.751
 30
0.0
 11
270.069
 21
117.751
 31
0.0
  0
LINE
  8
0
 62
     0
 10
270.069
 20
117.751
 30
0.0
 11
270.069
 21
120.851
 31
0.0
  0
LINE
  8
0
 62
     0
 10
270.069
 20
120.851
 30
0.0
 11
269.27
 21
120.851
 31
0.0
  0
LINE
  8
0
 62
     0
 10
269.27
 20
120.851
 30
0.0
 11
269.27
 21
121.85
 31
0.0
  0
LINE
  8
0
 62
     0
 10
269.27
 20
121.85
 30
0.0
 11
255.269
 21
121.85
 31
0.0
  0
LINE
  8
0
 62
     0
 10
226.694
 20
121.85
 30
0.0
 11
226.694
 21
120.851
 31
0.0
  0
LINE
  8
0
 62
     0
 10
226.694
 20
120.851
 30
0.0
 11
225.895
 21
120.851
 31
0.0
  0
LINE
  8
0
 62
     0
 10
225.895
 20
120.851
 30
0.0
 11
225.895
 21
117.751
 31
0.0
  0
LINE
  8
0
 62
     0
 10
225.895
 20
117.751
 30
0.0
 11
226.694
 21
117.751
 31
0.0
  0
LINE
  8
0
 62
     0
 10
226.694
 20
117.751
 30
0.0
 11
226.694
 21
111.95
 31
0.0
  0
LINE
  8
0
 62
     0
 10
226.694
 20
111.95
 30
0.0
 11
225.895
 21
111.95
 31
0.0
  0
LINE
  8
0
 62
     0
 10
225.895
 20
111.95
 30
0.0
 11
225.895
 21
108.85
 31
0.0
  0
LINE
  8
0
 62
     0
 10
225.895
 20
108.85
 30
0.0
 11
226.694
 21
108.85
 31
0.0
  0
LINE
  8
0
 62
     0
 10
226.694
 20
108.85
 30
0.0
 11
226.694
 21
107.849
 31
0.0
  0
LINE
  8
0
 62
     0
 10
226.694
 20
107.849
 30
0.0
 11
240.695
 21
107.849
 31
0.0
  0
LINE
  8
0
 62
     0
 10
240.695
 20
107.849
 30
0.0
 11
240.695
 21
108.85
 31
0.0
  0
LINE
  8
0
 62
     0
 10
240.695
 20
108.85
 30
0.0
 11
241.494
 21
108.85
 31
0.0
  0
LINE
  8
0
 62
     0
 10
241.494
 20
108.85
 30
0.0
 11
241.494
 21
111.95
 31
0.0
  0
LINE
  8
0
 62
     0
 10
241.494
 20
111.95
 30
0.0
 11
240.695
 21
111.95
 31
0.0
  0
LINE
  8
0
 62
     0
 10
240.695
 20
111.95
 30
0.0
 11
240.695
 21
117.751
 31
0.0
  0
LINE
  8
0
 62
     0
 10
240.695
 20
117.751
 30
0.0
 11
241.494
 21
117.751
 31
0.0
  0
LINE
  8
0
 62
     0
 10
241.494
 20
117.751
 30
0.0
 11
241.494
 21
120.851
 31
0.0
  0
LINE
  8
0
 62
     0
 10
241.494
 20
120.851
 30
0.0
 11
240.695
 21
120.851
 31
0.0
  0
LINE
  8
0
 62
     0
 10
240.695
 20
120.851
 30
0.0
 11
240.695
 21
121.85
 31
0.0
  0
LINE
  8
0
 62
     0
 10
240.695
 20
121.85
 30
0.0
 11
226.694
 21
121.85
 31
0.0
  0
LINE
  8
0
 62
     0
 10
207.644
 20
121.85
 30
0.0
 11
207.644
 21
120.851
 31
0.0
  0
LINE
  8
0
 62
     0
 10
207.644
 20
120.851
 30
0.0
 11
206.845
 21
120.851
 31
0.0
  0
LINE
  8
0
 62
     0
 10
206.845
 20
120.851
 30
0.0
 11
206.845
 21
117.751
 31
0.0
  0
LINE
  8
0
 62
     0
 10
206.845
 20
117.751
 30
0.0
 11
207.644
 21
117.751
 31
0.0
  0
LINE
  8
0
 62
     0
 10
207.644
 20
117.751
 30
0.0
 11
207.644
 21
111.95
 31
0.0
  0
LINE
  8
0
 62
     0
 10
207.644
 20
111.95
 30
0.0
 11
206.845
 21
111.95
 31
0.0
  0
LINE
  8
0
 62
     0
 10
206.845
 20
111.95
 30
0.0
 11
206.845
 21
108.85
 31
0.0
  0
LINE
  8
0
 62
     0
 10
206.845
 20
108.85
 30
0.0
 11
207.644
 21
108.85
 31
0.0
  0
LINE
  8
0
 62
     0
 10
207.644
 20
108.85
 30
0.0
 11
207.644
 21
107.849
 31
0.0
  0
LINE
  8
0
 62
     0
 10
207.644
 20
107.849
 30
0.0
 11
221.645
 21
107.849
 31
0.0
  0
LINE
  8
0
 62
     0
 10
221.645
 20
107.849
 30
0.0
 11
221.645
 21
108.85
 31
0.0
  0
LINE
  8
0
 62
     0
 10
221.645
 20
108.85
 30
0.0
 11
222.444
 21
108.85
 31
0.0
  0
LINE
  8
0
 62
     0
 10
222.444
 20
108.85
 30
0.0
 11
222.444
 21
111.95
 31
0.0
  0
LINE
  8
0
 62
     0
 10
222.444
 20
111.95
 30
0.0
 11
221.645
 21
111.95
 31
0.0
  0
LINE
  8
0
 62
     0
 10
221.645
 20
111.95
 30
0.0
 11
221.645
 21
117.751
 31
0.0
  0
LINE
  8
0
 62
     0
 10
221.645
 20
117.751
 30
0.0
 11
222.444
 21
117.751
 31
0.0
  0
LINE
  8
0
 62
     0
 10
222.444
 20
117.751
 30
0.0
 11
222.444
 21
120.851
 31
0.0
  0
LINE
  8
0
 62
     0
 10
222.444
 20
120.851
 30
0.0
 11
221.645
 21
120.851
 31
0.0
  0
LINE
  8
0
 62
     0
 10
221.645
 20
120.851
 30
0.0
 11
221.645
 21
121.85
 31
0.0
  0
LINE
  8
0
 62
     0
 10
221.645
 20
121.85
 30
0.0
 11
207.644
 21
121.85
 31
0.0
  0
LINE
  8
0
 62
     0
 10
188.594
 20
121.85
 30
0.0
 11
188.594
 21
120.851
 31
0.0
  0
LINE
  8
0
 62
     0
 10
188.594
 20
120.851
 30
0.0
 11
187.795
 21
120.851
 31
0.0
  0
LINE
  8
0
 62
     0
 10
187.795
 20
120.851
 30
0.0
 11
187.795
 21
117.751
 31
0.0
  0
LINE
  8
0
 62
     0
 10
187.795
 20
117.751
 30
0.0
 11
188.594
 21
117.751
 31
0.0
  0
LINE
  8
0
 62
     0
 10
188.594
 20
117.751
 30
0.0
 11
188.594
 21
111.95
 31
0.0
  0
LINE
  8
0
 62
     0
 10
188.594
 20
111.95
 30
0.0
 11
187.795
 21
111.95
 31
0.0
  0
LINE
  8
0
 62
     0
 10
187.795
 20
111.95
 30
0.0
 11
187.795
 21
108.85
 31
0.0
  0
LINE
  8
0
 62
     0
 10
187.795
 20
108.85
 30
0.0
 11
188.594
 21
108.85
 31
0.0
  0
LINE
  8
0
 62
     0
 10
188.594
 20
108.85
 30
0.0
 11
188.594
 21
107.849
 31
0.0
  0
LINE
  8
0
 62
     0
 10
188.594
 20
107.849
 30
0.0
 11
202.595
 21
107.849
 31
0.0
  0
LINE
  8
0
 62
     0
 10
202.595
 20
107.849
 30
0.0
 11
202.595
 21
108.85
 31
0.0
  0
LINE
  8
0
 62
     0
 10
202.595
 20
108.85
 30
0.0
 11
203.394
 21
108.85
 31
0.0
  0
LINE
  8
0
 62
     0
 10
203.394
 20
108.85
 30
0.0
 11
203.394
 21
111.95
 31
0.0
  0
LINE
  8
0
 62
     0
 10
203.394
 20
111.95
 30
0.0
 11
202.595
 21
111.95
 31
0.0
  0
LINE
  8
0
 62
     0
 10
202.595
 20
111.95
 30
0.0
 11
202.595
 21
117.751
 31
0.0
  0
LINE
  8
0
 62
     0
 10
202.595
 20
117.751
 30
0.0
 11
203.394
 21
117.751
 31
0.0
  0
LINE
  8
0
 62
     0
 10
203.394
 20
117.751
 30
0.0
 11
203.394
 21
120.851
 31
0.0
  0
LINE
  8
0
 62
     0
 10
203.394
 20
120.851
 30
0.0
 11
202.595
 21
120.851
 31
0.0
  0
LINE
  8
0
 62
     0
 10
202.595
 20
120.851
 30
0.0
 11
202.595
 21
121.85
 31
0.0
  0
LINE
  8
0
 62
     0
 10
202.595
 20
121.85
 30
0.0
 11
188.594
 21
121.85
 31
0.0
  0
LINE
  8
0
 62
     0
 10
169.544
 20
121.85
 30
0.0
 11
169.544
 21
120.851
 31
0.0
  0
LINE
  8
0
 62
     0
 10
169.544
 20
120.851
 30
0.0
 11
168.743
 21
120.851
 31
0.0
  0
LINE
  8
0
 62
     0
 10
168.743
 20
120.851
 30
0.0
 11
168.743
 21
117.751
 31
0.0
  0
LINE
  8
0
 62
     0
 10
168.743
 20
117.751
 30
0.0
 11
169.544
 21
117.751
 31
0.0
  0
LINE
  8
0
 62
     0
 10
169.544
 20
117.751
 30
0.0
 11
169.544
 21
111.95
 31
0.0
  0
LINE
  8
0
 62
     0
 10
169.544
 20
111.95
 30
0.0
 11
168.743
 21
111.95
 31
0.0
  0
LINE
  8
0
 62
     0
 10
168.743
 20
111.95
 30
0.0
 11
168.743
 21
108.85
 31
0.0
  0
LINE
  8
0
 62
     0
 10
168.743
 20
108.85
 30
0.0
 11
169.544
 21
108.85
 31
0.0
  0
LINE
  8
0
 62
     0
 10
169.544
 20
108.85
 30
0.0
 11
169.544
 21
107.849
 31
0.0
  0
LINE
  8
0
 62
     0
 10
169.544
 20
107.849
 30
0.0
 11
183.545
 21
107.849
 31
0.0
  0
LINE
  8
0
 62
     0
 10
183.545
 20
107.849
 30
0.0
 11
183.545
 21
108.85
 31
0.0
  0
LINE
  8
0
 62
     0
 10
183.545
 20
108.85
 30
0.0
 11
184.344
 21
108.85
 31
0.0
  0
LINE
  8
0
 62
     0
 10
184.344
 20
108.85
 30
0.0
 11
184.344
 21
111.95
 31
0.0
  0
LINE
  8
0
 62
     0
 10
184.344
 20
111.95
 30
0.0
 11
183.545
 21
111.95
 31
0.0
  0
LINE
  8
0
 62
     0
 10
183.545
 20
111.95
 30
0.0
 11
183.545
 21
117.751
 31
0.0
  0
LINE
  8
0
 62
     0
 10
183.545
 20
117.751
 30
0.0
 11
184.344
 21
117.751
 31
0.0
  0
LINE
  8
0
 62
     0
 10
184.344
 20
117.751
 30
0.0
 11
184.344
 21
120.851
 31
0.0
  0
LINE
  8
0
 62
     0
 10
184.344
 20
120.851
 30
0.0
 11
183.545
 21
120.851
 31
0.0
  0
LINE
  8
0
 62
     0
 10
183.545
 20
120.851
 30
0.0
 11
183.545
 21
121.85
 31
0.0
  0
LINE
  8
0
 62
     0
 10
183.545
 20
121.85
 30
0.0
 11
169.544
 21
121.85
 31
0.0
  0
LINE
  8
0
 62
     0
 10
102.869
 20
121.85
 30
0.0
 11
102.869
 21
120.851
 31
0.0
  0
LINE
  8
0
 62
     0
 10
102.869
 20
120.851
 30
0.0
 11
102.07
 21
120.851
 31
0.0
  0
LINE
  8
0
 62
     0
 10
102.07
 20
120.851
 30
0.0
 11
102.07
 21
117.751
 31
0.0
  0
LINE
  8
0
 62
     0
 10
102.07
 20
117.751
 30
0.0
 11
102.869
 21
117.751
 31
0.0
  0
LINE
  8
0
 62
     0
 10
102.869
 20
117.751
 30
0.0
 11
102.869
 21
111.95
 31
0.0
  0
LINE
  8
0
 62
     0
 10
102.869
 20
111.95
 30
0.0
 11
102.07
 21
111.95
 31
0.0
  0
LINE
  8
0
 62
     0
 10
102.07
 20
111.95
 30
0.0
 11
102.07
 21
108.85
 31
0.0
  0
LINE
  8
0
 62
     0
 10
102.07
 20
108.85
 30
0.0
 11
102.869
 21
108.85
 31
0.0
  0
LINE
  8
0
 62
     0
 10
102.869
 20
108.85
 30
0.0
 11
102.869
 21
107.849
 31
0.0
  0
LINE
  8
0
 62
     0
 10
102.869
 20
107.849
 30
0.0
 11
116.869
 21
107.849
 31
0.0
  0
LINE
  8
0
 62
     0
 10
116.869
 20
107.849
 30
0.0
 11
116.869
 21
108.85
 31
0.0
  0
LINE
  8
0
 62
     0
 10
116.869
 20
108.85
 30
0.0
 11
117.668
 21
108.85
 31
0.0
  0
LINE
  8
0
 62
     0
 10
117.668
 20
108.85
 30
0.0
 11
117.668
 21
111.95
 31
0.0
  0
LINE
  8
0
 62
     0
 10
117.668
 20
111.95
 30
0.0
 11
116.869
 21
111.95
 31
0.0
  0
LINE
  8
0
 62
     0
 10
116.869
 20
111.95
 30
0.0
 11
116.869
 21
117.751
 31
0.0
  0
LINE
  8
0
 62
     0
 10
116.869
 20
117.751
 30
0.0
 11
117.668
 21
117.751
 31
0.0
  0
LINE
  8
0
 62
     0
 10
117.668
 20
117.751
 30
0.0
 11
117.668
 21
120.851
 31
0.0
  0
LINE
  8
0
 62
     0
 10
117.668
 20
120.851
 30
0.0
 11
116.869
 21
120.851
 31
0.0
  0
LINE
  8
0
 62
     0
 10
116.869
 20
120.851
 30
0.0
 11
116.869
 21
121.85
 31
0.0
  0
LINE
  8
0
 62
     0
 10
116.869
 20
121.85
 30
0.0
 11
102.869
 21
121.85
 31
0.0
  0
LINE
  8
0
 62
     0
 10
83.8193
 20
121.85
 30
0.0
 11
83.8193
 21
120.851
 31
0.0
  0
LINE
  8
0
 62
     0
 10
83.8193
 20
120.851
 30
0.0
 11
83.0199
 21
120.851
 31
0.0
  0
LINE
  8
0
 62
     0
 10
83.0199
 20
120.851
 30
0.0
 11
83.0199
 21
117.751
 31
0.0
  0
LINE
  8
0
 62
     0
 10
83.0199
 20
117.751
 30
0.0
 11
83.8193
 21
117.751
 31
0.0
  0
LINE
  8
0
 62
     0
 10
83.8193
 20
117.751
 30
0.0
 11
83.8193
 21
111.95
 31
0.0
  0
LINE
  8
0
 62
     0
 10
83.8193
 20
111.95
 30
0.0
 11
83.0199
 21
111.95
 31
0.0
  0
LINE
  8
0
 62
     0
 10
83.0199
 20
111.95
 30
0.0
 11
83.0199
 21
108.85
 31
0.0
  0
LINE
  8
0
 62
     0
 10
83.0199
 20
108.85
 30
0.0
 11
83.8193
 21
108.85
 31
0.0
  0
LINE
  8
0
 62
     0
 10
83.8193
 20
108.85
 30
0.0
 11
83.8193
 21
107.849
 31
0.0
  0
LINE
  8
0
 62
     0
 10
83.8193
 20
107.849
 30
0.0
 11
97.82
 21
107.849
 31
0.0
  0
LINE
  8
0
 62
     0
 10
97.82
 20
107.849
 30
0.0
 11
97.82
 21
108.85
 31
0.0
  0
LINE
  8
0
 62
     0
 10
97.82
 20
108.85
 30
0.0
 11
98.618
 21
108.85
 31
0.0
  0
LINE
  8
0
 62
     0
 10
98.618
 20
108.85
 30
0.0
 11
98.618
 21
111.95
 31
0.0
  0
LINE
  8
0
 62
     0
 10
98.618
 20
111.95
 30
0.0
 11
97.82
 21
111.95
 31
0.0
  0
LINE
  8
0
 62
     0
 10
97.82
 20
111.95
 30
0.0
 11
97.82
 21
117.751
 31
0.0
  0
LINE
  8
0
 62
     0
 10
97.82
 20
117.751
 30
0.0
 11
98.618
 21
117.751
 31
0.0
  0
LINE
  8
0
 62
     0
 10
98.618
 20
117.751
 30
0.0
 11
98.618
 21
120.851
 31
0.0
  0
LINE
  8
0
 62
     0
 10
98.618
 20
120.851
 30
0.0
 11
97.82
 21
120.851
 31
0.0
  0
LINE
  8
0
 62
     0
 10
97.82
 20
120.851
 30
0.0
 11
97.82
 21
121.85
 31
0.0
  0
LINE
  8
0
 62
     0
 10
97.82
 20
121.85
 30
0.0
 11
83.8193
 21
121.85
 31
0.0
  0
LINE
  8
0
 62
     0
 10
64.7693
 20
121.85
 30
0.0
 11
64.7693
 21
120.851
 31
0.0
  0
LINE
  8
0
 62
     0
 10
64.7693
 20
120.851
 30
0.0
 11
63.9699
 21
120.851
 31
0.0
  0
LINE
  8
0
 62
     0
 10
63.9699
 20
120.851
 30
0.0
 11
63.9699
 21
117.751
 31
0.0
  0
LINE
  8
0
 62
     0
 10
63.9699
 20
117.751
 30
0.0
 11
64.7693
 21
117.751
 31
0.0
  0
LINE
  8
0
 62
     0
 10
64.7693
 20
117.751
 30
0.0
 11
64.7693
 21
111.95
 31
0.0
  0
LINE
  8
0
 62
     0
 10
64.7693
 20
111.95
 30
0.0
 11
63.9699
 21
111.95
 31
0.0
  0
LINE
  8
0
 62
     0
 10
63.9699
 20
111.95
 30
0.0
 11
63.9699
 21
108.85
 31
0.0
  0
LINE
  8
0
 62
     0
 10
63.9699
 20
108.85
 30
0.0
 11
64.7693
 21
108.85
 31
0.0
  0
LINE
  8
0
 62
     0
 10
64.7693
 20
108.85
 30
0.0
 11
64.7693
 21
107.849
 31
0.0
  0
LINE
  8
0
 62
     0
 10
64.7693
 20
107.849
 30
0.0
 11
78.77
 21
107.849
 31
0.0
  0
LINE
  8
0
 62
     0
 10
78.77
 20
107.849
 30
0.0
 11
78.77
 21
108.85
 31
0.0
  0
LINE
  8
0
 62
     0
 10
78.77
 20
108.85
 30
0.0
 11
79.5694
 21
108.85
 31
0.0
  0
LINE
  8
0
 62
     0
 10
79.5694
 20
108.85
 30
0.0
 11
79.5694
 21
111.95
 31
0.0
  0
LINE
  8
0
 62
     0
 10
79.5694
 20
111.95
 30
0.0
 11
78.77
 21
111.95
 31
0.0
  0
LINE
  8
0
 62
     0
 10
78.77
 20
111.95
 30
0.0
 11
78.77
 21
117.751
 31
0.0
  0
LINE
  8
0
 62
     0
 10
78.77
 20
117.751
 30
0.0
 11
79.5694
 21
117.751
 31
0.0
  0
LINE
  8
0
 62
     0
 10
79.5694
 20
117.751
 30
0.0
 11
79.5694
 21
120.851
 31
0.0
  0
LINE
  8
0
 62
     0
 10
79.5694
 20
120.851
 30
0.0
 11
78.77
 21
120.851
 31
0.0
  0
LINE
  8
0
 62
     0
 10
78.77
 20
120.851
 30
0.0
 11
78.77
 21
121.85
 31
0.0
  0
LINE
  8
0
 62
     0
 10
78.77
 20
121.85
 30
0.0
 11
64.7693
 21
121.85
 31
0.0
  0
LINE
  8
0
 62
     0
 10
45.7193
 20
121.85
 30
0.0
 11
45.7193
 21
120.851
 31
0.0
  0
LINE
  8
0
 62
     0
 10
45.7193
 20
120.851
 30
0.0
 11
44.9199
 21
120.851
 31
0.0
  0
LINE
  8
0
 62
     0
 10
44.9199
 20
120.851
 30
0.0
 11
44.9199
 21
117.751
 31
0.0
  0
LINE
  8
0
 62
     0
 10
44.9199
 20
117.751
 30
0.0
 11
45.7193
 21
117.751
 31
0.0
  0
LINE
  8
0
 62
     0
 10
45.7193
 20
117.751
 30
0.0
 11
45.7193
 21
111.95
 31
0.0
  0
LINE
  8
0
 62
     0
 10
45.7193
 20
111.95
 30
0.0
 11
44.9199
 21
111.95
 31
0.0
  0
LINE
  8
0
 62
     0
 10
44.9199
 20
111.95
 30
0.0
 11
44.9199
 21
108.85
 31
0.0
  0
LINE
  8
0
 62
     0
 10
44.9199
 20
108.85
 30
0.0
 11
45.7193
 21
108.85
 31
0.0
  0
LINE
  8
0
 62
     0
 10
45.7193
 20
108.85
 30
0.0
 11
45.7193
 21
107.849
 31
0.0
  0
LINE
  8
0
 62
     0
 10
45.7193
 20
107.849
 30
0.0
 11
59.72
 21
107.849
 31
0.0
  0
LINE
  8
0
 62
     0
 10
59.72
 20
107.849
 30
0.0
 11
59.72
 21
108.85
 31
0.0
  0
LINE
  8
0
 62
     0
 10
59.72
 20
108.85
 30
0.0
 11
60.5194
 21
108.85
 31
0.0
  0
LINE
  8
0
 62
     0
 10
60.5194
 20
108.85
 30
0.0
 11
60.5194
 21
111.95
 31
0.0
  0
LINE
  8
0
 62
     0
 10
60.5194
 20
111.95
 30
0.0
 11
59.72
 21
111.95
 31
0.0
  0
LINE
  8
0
 62
     0
 10
59.72
 20
111.95
 30
0.0
 11
59.72
 21
117.751
 31
0.0
  0
LINE
  8
0
 62
     0
 10
59.72
 20
117.751
 30
0.0
 11
60.5194
 21
117.751
 31
0.0
  0
LINE
  8
0
 62
     0
 10
60.5194
 20
117.751
 30
0.0
 11
60.5194
 21
120.851
 31
0.0
  0
LINE
  8
0
 62
     0
 10
60.5194
 20
120.851
 30
0.0
 11
59.72
 21
120.851
 31
0.0
  0
LINE
  8
0
 62
     0
 10
59.72
 20
120.851
 30
0.0
 11
59.72
 21
121.85
 31
0.0
  0
LINE
  8
0
 62
     0
 10
59.72
 20
121.85
 30
0.0
 11
45.7193
 21
121.85
 31
0.0
  0
LINE
  8
0
 62
     0
 10
7.61919
 20
121.85
 30
0.0
 11
7.61919
 21
120.851
 31
0.0
  0
LINE
  8
0
 62
     0
 10
7.61919
 20
120.851
 30
0.0
 11
6.81852
 21
120.851
 31
0.0
  0
LINE
  8
0
 62
     0
 10
6.81852
 20
120.851
 30
0.0
 11
6.81852
 21
117.751
 31
0.0
  0
LINE
  8
0
 62
     0
 10
6.81852
 20
117.751
 30
0.0
 11
7.61919
 21
117.751
 31
0.0
  0
LINE
  8
0
 62
     0
 10
7.61919
 20
117.751
 30
0.0
 11
7.61919
 21
111.95
 31
0.0
  0
LINE
  8
0
 62
     0
 10
7.61919
 20
111.95
 30
0.0
 11
6.81852
 21
111.95
 31
0.0
  0
LINE
  8
0
 62
     0
 10
6.81852
 20
111.95
 30
0.0
 11
6.81852
 21
108.85
 31
0.0
  0
LINE
  8
0
 62
     0
 10
6.81852
 20
108.85
 30
0.0
 11
7.61919
 21
108.85
 31
0.0
  0
LINE
  8
0
 62
     0
 10
7.61919
 20
108.85
 30
0.0
 11
7.61919
 21
107.849
 31
0.0
  0
LINE
  8
0
 62
     0
 10
7.61919
 20
107.849
 30
0.0
 11
21.6201
 21
107.849
 31
0.0
  0
LINE
  8
0
 62
     0
 10
21.6201
 20
107.849
 30
0.0
 11
21.6201
 21
108.85
 31
0.0
  0
LINE
  8
0
 62
     0
 10
21.6201
 20
108.85
 30
0.0
 11
22.4193
 21
108.85
 31
0.0
  0
LINE
  8
0
 62
     0
 10
22.4193
 20
108.85
 30
0.0
 11
22.4193
 21
111.95
 31
0.0
  0
LINE
  8
0
 62
     0
 10
22.4193
 20
111.95
 30
0.0
 11
21.6201
 21
111.95
 31
0.0
  0
LINE
  8
0
 62
     0
 10
21.6201
 20
111.95
 30
0.0
 11
21.6201
 21
117.751
 31
0.0
  0
LINE
  8
0
 62
     0
 10
21.6201
 20
117.751
 30
0.0
 11
22.4193
 21
117.751
 31
0.0
  0
LINE
  8
0
 62
     0
 10
22.4193
 20
117.751
 30
0.0
 11
22.4193
 21
120.851
 31
0.0
  0
LINE
  8
0
 62
     0
 10
22.4193
 20
120.851
 30
0.0
 11
21.6201
 21
120.851
 31
0.0
  0
LINE
  8
0
 62
     0
 10
21.6201
 20
120.851
 30
0.0
 11
21.6201
 21
121.85
 31
0.0
  0
LINE
  8
0
 62
     0
 10
21.6201
 20
121.85
 30
0.0
 11
7.61919
 21
121.85
 31
0.0
  0
ENDSEC
  0
EOF
