G04 #@! TF.GenerationSoftware,KiCad,Pcbnew,(5.1.8)-1*
G04 #@! TF.CreationDate,2020-12-12T14:40:11+09:00*
G04 #@! TF.ProjectId,keyboard-layouter-playground,6b657962-6f61-4726-942d-6c61796f7574,rev?*
G04 #@! TF.SameCoordinates,Original*
G04 #@! TF.FileFunction,Soldermask,Top*
G04 #@! TF.FilePolarity,Negative*
%FSLAX46Y46*%
G04 Gerber Fmt 4.6, Leading zero omitted, Abs format (unit mm)*
G04 Created by KiCad (PCBNEW (5.1.8)-1) date 2020-12-12 14:40:11*
%MOMM*%
%LPD*%
G01*
G04 APERTURE LIST*
%ADD10C,4.000000*%
%ADD11C,2.200000*%
%ADD12C,1.397000*%
%ADD13O,1.700000X2.500000*%
%ADD14C,1.752600*%
%ADD15R,1.752600X1.752600*%
%ADD16C,2.000000*%
%ADD17R,1.300000X0.950000*%
%ADD18R,1.397000X1.397000*%
G04 APERTURE END LIST*
D10*
X41190600Y-209042000D03*
D11*
X37380600Y-206502000D03*
X43730600Y-203962000D03*
D10*
X136366000Y-228092000D03*
D11*
X132556000Y-225552000D03*
X138906000Y-223012000D03*
D10*
X36354000Y-228092000D03*
D11*
X32544000Y-225552000D03*
X38894000Y-223012000D03*
D10*
X36354000Y-189992000D03*
D11*
X32544000Y-187452000D03*
X38894000Y-184912000D03*
D10*
X33973000Y-170942000D03*
D11*
X30163000Y-168402000D03*
X36513000Y-165862000D03*
D10*
X107791000Y-228092000D03*
D11*
X103981000Y-225552000D03*
X110331000Y-223012000D03*
D10*
X83978500Y-228092000D03*
D11*
X80168500Y-225552000D03*
X86518500Y-223012000D03*
D10*
X62547500Y-228092000D03*
D11*
X58737500Y-225552000D03*
X65087500Y-223012000D03*
D10*
X129222000Y-209042000D03*
D11*
X125412000Y-206502000D03*
X131762000Y-203962000D03*
D10*
X110172000Y-209042000D03*
D11*
X106362000Y-206502000D03*
X112712000Y-203962000D03*
D10*
X91122500Y-209042000D03*
D11*
X87312500Y-206502000D03*
X93662500Y-203962000D03*
D10*
X72072500Y-209042000D03*
D11*
X68262500Y-206502000D03*
X74612500Y-203962000D03*
D10*
X138748000Y-189992000D03*
D11*
X134938000Y-187452000D03*
X141288000Y-184912000D03*
D10*
X119698000Y-189992000D03*
D11*
X115888000Y-187452000D03*
X122238000Y-184912000D03*
D10*
X100648000Y-189992000D03*
D11*
X96838000Y-187452000D03*
X103188000Y-184912000D03*
D10*
X81597500Y-189992000D03*
D11*
X77787500Y-187452000D03*
X84137500Y-184912000D03*
D10*
X62547500Y-189992000D03*
D11*
X58737500Y-187452000D03*
X65087500Y-184912000D03*
D10*
X133985000Y-170942000D03*
D11*
X130175000Y-168402000D03*
X136525000Y-165862000D03*
D10*
X114935000Y-170942000D03*
D11*
X111125000Y-168402000D03*
X117475000Y-165862000D03*
D10*
X95885000Y-170942000D03*
D11*
X92075000Y-168402000D03*
X98425000Y-165862000D03*
D10*
X76835000Y-170942000D03*
D11*
X73025000Y-168402000D03*
X79375000Y-165862000D03*
D10*
X57785000Y-170942000D03*
D11*
X53975000Y-168402000D03*
X60325000Y-165862000D03*
D10*
X124460000Y-151892000D03*
D11*
X120650000Y-149352000D03*
X127000000Y-146812000D03*
D10*
X105410000Y-151892000D03*
D11*
X101600000Y-149352000D03*
X107950000Y-146812000D03*
D10*
X86360000Y-151892000D03*
D11*
X82550000Y-149352000D03*
X88900000Y-146812000D03*
D10*
X67310000Y-151892000D03*
D11*
X63500000Y-149352000D03*
X69850000Y-146812000D03*
D10*
X48260000Y-151892000D03*
D11*
X44450000Y-149352000D03*
X50800000Y-146812000D03*
D10*
X29210000Y-151892000D03*
D11*
X25400000Y-149352000D03*
X31750000Y-146812000D03*
D10*
X124460000Y-128080000D03*
D11*
X120650000Y-125540000D03*
X127000000Y-123000000D03*
D10*
X105410000Y-128080000D03*
D11*
X101600000Y-125540000D03*
X107950000Y-123000000D03*
D10*
X86360000Y-128080000D03*
D11*
X82550000Y-125540000D03*
X88900000Y-123000000D03*
D10*
X67310000Y-128080000D03*
D11*
X63500000Y-125540000D03*
X69850000Y-123000000D03*
D10*
X29210000Y-128080000D03*
D11*
X25400000Y-125540000D03*
X31750000Y-123000000D03*
D12*
X141160000Y-116450000D03*
X146240000Y-116450000D03*
X141160000Y-121350000D03*
X146240000Y-121350000D03*
D13*
X141650000Y-106300000D03*
X145850000Y-107800000D03*
X141650000Y-99300000D03*
X141650000Y-102300000D03*
X147600000Y-99300000D03*
X147600000Y-102300000D03*
X147600000Y-106300000D03*
X143400000Y-107800000D03*
D14*
X48220000Y-113080000D03*
X48220000Y-110540000D03*
X48220000Y-108000000D03*
X48220000Y-105460000D03*
X48220000Y-102920000D03*
X20280000Y-100380000D03*
X48220000Y-115391400D03*
X22820000Y-100380000D03*
X25360000Y-100380000D03*
X27900000Y-100380000D03*
X30440000Y-100380000D03*
X32980000Y-100380000D03*
X35520000Y-100380000D03*
X38060000Y-100380000D03*
X40600000Y-100380000D03*
X43140000Y-100380000D03*
X45680000Y-100380000D03*
X48220000Y-100380000D03*
X45680000Y-115620000D03*
X43140000Y-115620000D03*
X40600000Y-115620000D03*
X38060000Y-115620000D03*
X35520000Y-115620000D03*
X32980000Y-115620000D03*
X30440000Y-115620000D03*
X27900000Y-115620000D03*
X25360000Y-115620000D03*
X22820000Y-115620000D03*
D15*
X20280000Y-115620000D03*
D16*
X25350000Y-111350000D03*
X25350000Y-104850000D03*
D17*
X37358820Y-217211900D03*
D12*
X35323820Y-217211900D03*
D18*
X42943820Y-217211900D03*
D17*
X40908820Y-217211900D03*
X132558820Y-236211900D03*
D12*
X130523820Y-236211900D03*
D18*
X138143820Y-236211900D03*
D17*
X136108820Y-236211900D03*
X32558820Y-236211900D03*
D12*
X30523820Y-236211900D03*
D18*
X38143820Y-236211900D03*
D17*
X36108820Y-236211900D03*
X32558820Y-198211900D03*
D12*
X30523820Y-198211900D03*
D18*
X38143820Y-198211900D03*
D17*
X36108820Y-198211900D03*
X30058820Y-179211900D03*
D12*
X28023820Y-179211900D03*
D18*
X35643820Y-179211900D03*
D17*
X33608820Y-179211900D03*
X103958820Y-236211900D03*
D12*
X101923820Y-236211900D03*
D18*
X109543820Y-236211900D03*
D17*
X107508820Y-236211900D03*
X80158820Y-236211900D03*
D12*
X78123820Y-236211900D03*
D18*
X85743820Y-236211900D03*
D17*
X83708820Y-236211900D03*
X58758820Y-236211900D03*
D12*
X56723820Y-236211900D03*
D18*
X64343820Y-236211900D03*
D17*
X62308820Y-236211900D03*
X127458820Y-217211900D03*
D12*
X125423820Y-217211900D03*
D18*
X133043820Y-217211900D03*
D17*
X131008820Y-217211900D03*
X108358820Y-217211900D03*
D12*
X106323820Y-217211900D03*
D18*
X113943820Y-217211900D03*
D17*
X111908820Y-217211900D03*
X89358820Y-217211900D03*
D12*
X87323820Y-217211900D03*
D18*
X94943820Y-217211900D03*
D17*
X92908820Y-217211900D03*
X70308820Y-217211900D03*
D12*
X68273820Y-217211900D03*
D18*
X75893820Y-217211900D03*
D17*
X73858820Y-217211900D03*
X137008820Y-198211900D03*
D12*
X134973820Y-198211900D03*
D18*
X142593820Y-198211900D03*
D17*
X140558820Y-198211900D03*
X117958820Y-198211900D03*
D12*
X115923820Y-198211900D03*
D18*
X123543820Y-198211900D03*
D17*
X121508820Y-198211900D03*
X98908820Y-198211900D03*
D12*
X96873820Y-198211900D03*
D18*
X104493820Y-198211900D03*
D17*
X102458820Y-198211900D03*
X79808820Y-198211900D03*
D12*
X77773820Y-198211900D03*
D18*
X85393820Y-198211900D03*
D17*
X83358820Y-198211900D03*
X58758820Y-198211900D03*
D12*
X56723820Y-198211900D03*
D18*
X64343820Y-198211900D03*
D17*
X62308820Y-198211900D03*
X130208820Y-179211900D03*
D12*
X128173820Y-179211900D03*
D18*
X135793820Y-179211900D03*
D17*
X133758820Y-179211900D03*
X111108820Y-179211900D03*
D12*
X109073820Y-179211900D03*
D18*
X116693820Y-179211900D03*
D17*
X114658820Y-179211900D03*
X92108820Y-179211900D03*
D12*
X90073820Y-179211900D03*
D18*
X97693820Y-179211900D03*
D17*
X95658820Y-179211900D03*
X73058820Y-179211900D03*
D12*
X71023820Y-179211900D03*
D18*
X78643820Y-179211900D03*
D17*
X76608820Y-179211900D03*
X53958820Y-179211900D03*
D12*
X51923820Y-179211900D03*
D18*
X59543820Y-179211900D03*
D17*
X57508820Y-179211900D03*
X122708820Y-160211900D03*
D12*
X120673820Y-160211900D03*
D18*
X128293820Y-160211900D03*
D17*
X126258820Y-160211900D03*
X103558820Y-160211900D03*
D12*
X101523820Y-160211900D03*
D18*
X109143820Y-160211900D03*
D17*
X107108820Y-160211900D03*
X84558820Y-160211900D03*
D12*
X82523820Y-160211900D03*
D18*
X90143820Y-160211900D03*
D17*
X88108820Y-160211900D03*
X65508820Y-160211900D03*
D12*
X63473820Y-160211900D03*
D18*
X71093820Y-160211900D03*
D17*
X69058820Y-160211900D03*
X44408820Y-160211900D03*
D12*
X42373820Y-160211900D03*
D18*
X49993820Y-160211900D03*
D17*
X47958820Y-160211900D03*
X25408820Y-160211900D03*
D12*
X23373820Y-160211900D03*
D18*
X30993820Y-160211900D03*
D17*
X28958820Y-160211900D03*
X120633820Y-136211900D03*
D12*
X118598820Y-136211900D03*
D18*
X126218820Y-136211900D03*
D17*
X124183820Y-136211900D03*
X101608820Y-136211900D03*
D12*
X99573820Y-136211900D03*
D18*
X107193820Y-136211900D03*
D17*
X105158820Y-136211900D03*
X82558820Y-136211900D03*
D12*
X80523820Y-136211900D03*
D18*
X88143820Y-136211900D03*
D17*
X86108820Y-136211900D03*
X63508820Y-136311900D03*
D12*
X61473820Y-136311900D03*
D18*
X69093820Y-136311900D03*
D17*
X67058820Y-136311900D03*
X25408820Y-136461900D03*
D12*
X23373820Y-136461900D03*
D18*
X30993820Y-136461900D03*
D17*
X28958820Y-136461900D03*
M02*
