G04 #@! TF.GenerationSoftware,KiCad,Pcbnew,(5.1.8)-1*
G04 #@! TF.CreationDate,2020-12-12T14:40:11+09:00*
G04 #@! TF.ProjectId,keyboard-layouter-playground,6b657962-6f61-4726-942d-6c61796f7574,rev?*
G04 #@! TF.SameCoordinates,Original*
G04 #@! TF.FileFunction,Legend,Top*
G04 #@! TF.FilePolarity,Positive*
%FSLAX46Y46*%
G04 Gerber Fmt 4.6, Leading zero omitted, Abs format (unit mm)*
G04 Created by KiCad (PCBNEW (5.1.8)-1) date 2020-12-12 14:40:11*
%MOMM*%
%LPD*%
G01*
G04 APERTURE LIST*
%ADD10C,0.120000*%
%ADD11C,0.150000*%
%ADD12C,0.381000*%
G04 APERTURE END LIST*
D10*
X34205600Y-216027000D02*
X34205600Y-202057000D01*
X48175600Y-216027000D02*
X34205600Y-216027000D01*
X48175600Y-202057000D02*
X48175600Y-216027000D01*
X34205600Y-202057000D02*
X48175600Y-202057000D01*
X129381000Y-235077000D02*
X129381000Y-221107000D01*
X143351000Y-235077000D02*
X129381000Y-235077000D01*
X143351000Y-221107000D02*
X143351000Y-235077000D01*
X129381000Y-221107000D02*
X143351000Y-221107000D01*
X29369000Y-235077000D02*
X29369000Y-221107000D01*
X43339000Y-235077000D02*
X29369000Y-235077000D01*
X43339000Y-221107000D02*
X43339000Y-235077000D01*
X29369000Y-221107000D02*
X43339000Y-221107000D01*
X29369000Y-196977000D02*
X29369000Y-183007000D01*
X43339000Y-196977000D02*
X29369000Y-196977000D01*
X43339000Y-183007000D02*
X43339000Y-196977000D01*
X29369000Y-183007000D02*
X43339000Y-183007000D01*
X26988000Y-177927000D02*
X26988000Y-163957000D01*
X40958000Y-177927000D02*
X26988000Y-177927000D01*
X40958000Y-163957000D02*
X40958000Y-177927000D01*
X26988000Y-163957000D02*
X40958000Y-163957000D01*
X100806000Y-235077000D02*
X100806000Y-221107000D01*
X114776000Y-235077000D02*
X100806000Y-235077000D01*
X114776000Y-221107000D02*
X114776000Y-235077000D01*
X100806000Y-221107000D02*
X114776000Y-221107000D01*
X76993500Y-235077000D02*
X76993500Y-221107000D01*
X90963500Y-235077000D02*
X76993500Y-235077000D01*
X90963500Y-221107000D02*
X90963500Y-235077000D01*
X76993500Y-221107000D02*
X90963500Y-221107000D01*
X55562500Y-221107000D02*
X69532500Y-221107000D01*
X69532500Y-221107000D02*
X69532500Y-235077000D01*
X69532500Y-235077000D02*
X55562500Y-235077000D01*
X55562500Y-235077000D02*
X55562500Y-221107000D01*
X122237000Y-202057000D02*
X136207000Y-202057000D01*
X136207000Y-202057000D02*
X136207000Y-216027000D01*
X136207000Y-216027000D02*
X122237000Y-216027000D01*
X122237000Y-216027000D02*
X122237000Y-202057000D01*
X103187000Y-202057000D02*
X117157000Y-202057000D01*
X117157000Y-202057000D02*
X117157000Y-216027000D01*
X117157000Y-216027000D02*
X103187000Y-216027000D01*
X103187000Y-216027000D02*
X103187000Y-202057000D01*
X84137500Y-202057000D02*
X98107500Y-202057000D01*
X98107500Y-202057000D02*
X98107500Y-216027000D01*
X98107500Y-216027000D02*
X84137500Y-216027000D01*
X84137500Y-216027000D02*
X84137500Y-202057000D01*
X65087500Y-202057000D02*
X79057500Y-202057000D01*
X79057500Y-202057000D02*
X79057500Y-216027000D01*
X79057500Y-216027000D02*
X65087500Y-216027000D01*
X65087500Y-216027000D02*
X65087500Y-202057000D01*
X131763000Y-183007000D02*
X145733000Y-183007000D01*
X145733000Y-183007000D02*
X145733000Y-196977000D01*
X145733000Y-196977000D02*
X131763000Y-196977000D01*
X131763000Y-196977000D02*
X131763000Y-183007000D01*
X112713000Y-183007000D02*
X126683000Y-183007000D01*
X126683000Y-183007000D02*
X126683000Y-196977000D01*
X126683000Y-196977000D02*
X112713000Y-196977000D01*
X112713000Y-196977000D02*
X112713000Y-183007000D01*
X93663000Y-183007000D02*
X107633000Y-183007000D01*
X107633000Y-183007000D02*
X107633000Y-196977000D01*
X107633000Y-196977000D02*
X93663000Y-196977000D01*
X93663000Y-196977000D02*
X93663000Y-183007000D01*
X74612500Y-183007000D02*
X88582500Y-183007000D01*
X88582500Y-183007000D02*
X88582500Y-196977000D01*
X88582500Y-196977000D02*
X74612500Y-196977000D01*
X74612500Y-196977000D02*
X74612500Y-183007000D01*
X55562500Y-183007000D02*
X69532500Y-183007000D01*
X69532500Y-183007000D02*
X69532500Y-196977000D01*
X69532500Y-196977000D02*
X55562500Y-196977000D01*
X55562500Y-196977000D02*
X55562500Y-183007000D01*
X127000000Y-163957000D02*
X140970000Y-163957000D01*
X140970000Y-163957000D02*
X140970000Y-177927000D01*
X140970000Y-177927000D02*
X127000000Y-177927000D01*
X127000000Y-177927000D02*
X127000000Y-163957000D01*
X107950000Y-163957000D02*
X121920000Y-163957000D01*
X121920000Y-163957000D02*
X121920000Y-177927000D01*
X121920000Y-177927000D02*
X107950000Y-177927000D01*
X107950000Y-177927000D02*
X107950000Y-163957000D01*
X88900000Y-163957000D02*
X102870000Y-163957000D01*
X102870000Y-163957000D02*
X102870000Y-177927000D01*
X102870000Y-177927000D02*
X88900000Y-177927000D01*
X88900000Y-177927000D02*
X88900000Y-163957000D01*
X69850000Y-163957000D02*
X83820000Y-163957000D01*
X83820000Y-163957000D02*
X83820000Y-177927000D01*
X83820000Y-177927000D02*
X69850000Y-177927000D01*
X69850000Y-177927000D02*
X69850000Y-163957000D01*
X50800000Y-163957000D02*
X64770000Y-163957000D01*
X64770000Y-163957000D02*
X64770000Y-177927000D01*
X64770000Y-177927000D02*
X50800000Y-177927000D01*
X50800000Y-177927000D02*
X50800000Y-163957000D01*
X117475000Y-144907000D02*
X131445000Y-144907000D01*
X131445000Y-144907000D02*
X131445000Y-158877000D01*
X131445000Y-158877000D02*
X117475000Y-158877000D01*
X117475000Y-158877000D02*
X117475000Y-144907000D01*
X98425000Y-144907000D02*
X112395000Y-144907000D01*
X112395000Y-144907000D02*
X112395000Y-158877000D01*
X112395000Y-158877000D02*
X98425000Y-158877000D01*
X98425000Y-158877000D02*
X98425000Y-144907000D01*
X79375000Y-144907000D02*
X93345000Y-144907000D01*
X93345000Y-144907000D02*
X93345000Y-158877000D01*
X93345000Y-158877000D02*
X79375000Y-158877000D01*
X79375000Y-158877000D02*
X79375000Y-144907000D01*
X60325000Y-144907000D02*
X74295000Y-144907000D01*
X74295000Y-144907000D02*
X74295000Y-158877000D01*
X74295000Y-158877000D02*
X60325000Y-158877000D01*
X60325000Y-158877000D02*
X60325000Y-144907000D01*
X41275000Y-144907000D02*
X55245000Y-144907000D01*
X55245000Y-144907000D02*
X55245000Y-158877000D01*
X55245000Y-158877000D02*
X41275000Y-158877000D01*
X41275000Y-158877000D02*
X41275000Y-144907000D01*
X22225000Y-144907000D02*
X36195000Y-144907000D01*
X36195000Y-144907000D02*
X36195000Y-158877000D01*
X36195000Y-158877000D02*
X22225000Y-158877000D01*
X22225000Y-158877000D02*
X22225000Y-144907000D01*
X117475000Y-121095000D02*
X131445000Y-121095000D01*
X131445000Y-121095000D02*
X131445000Y-135065000D01*
X131445000Y-135065000D02*
X117475000Y-135065000D01*
X117475000Y-135065000D02*
X117475000Y-121095000D01*
X98425000Y-121095000D02*
X112395000Y-121095000D01*
X112395000Y-121095000D02*
X112395000Y-135065000D01*
X112395000Y-135065000D02*
X98425000Y-135065000D01*
X98425000Y-135065000D02*
X98425000Y-121095000D01*
X79375000Y-121095000D02*
X93345000Y-121095000D01*
X93345000Y-121095000D02*
X93345000Y-135065000D01*
X93345000Y-135065000D02*
X79375000Y-135065000D01*
X79375000Y-135065000D02*
X79375000Y-121095000D01*
X60325000Y-121095000D02*
X74295000Y-121095000D01*
X74295000Y-121095000D02*
X74295000Y-135065000D01*
X74295000Y-135065000D02*
X60325000Y-135065000D01*
X60325000Y-135065000D02*
X60325000Y-121095000D01*
X22225000Y-121095000D02*
X36195000Y-121095000D01*
X36195000Y-121095000D02*
X36195000Y-135065000D01*
X36195000Y-135065000D02*
X22225000Y-135065000D01*
X22225000Y-135065000D02*
X22225000Y-121095000D01*
D11*
X145201140Y-117450760D02*
X145201140Y-115449240D01*
X145201140Y-115449240D02*
X142198860Y-115449240D01*
X142198860Y-115449240D02*
X142198860Y-117450760D01*
X142198860Y-117450760D02*
X145201140Y-117450760D01*
X145201140Y-122350760D02*
X145201140Y-120349240D01*
X145201140Y-120349240D02*
X142198860Y-120349240D01*
X142198860Y-120349240D02*
X142198860Y-122350760D01*
X142198860Y-122350760D02*
X145201140Y-122350760D01*
X142500000Y-108000000D02*
X142500000Y-96000000D01*
X148500000Y-108000000D02*
X142500000Y-108000000D01*
X148500000Y-96000000D02*
X148500000Y-108000000D01*
X142500000Y-96000000D02*
X148500000Y-96000000D01*
D12*
X19010000Y-116890000D02*
X49490000Y-116890000D01*
X49490000Y-116890000D02*
X49490000Y-99110000D01*
X49490000Y-99110000D02*
X19010000Y-99110000D01*
X19010000Y-114350000D02*
X21550000Y-114350000D01*
X21550000Y-114350000D02*
X21550000Y-116890000D01*
D11*
G36*
X24889360Y-103068432D02*
G01*
X25189360Y-103068432D01*
X25189360Y-103168432D01*
X24889360Y-103168432D01*
X24889360Y-103068432D01*
G37*
X24889360Y-103068432D02*
X25189360Y-103068432D01*
X25189360Y-103168432D01*
X24889360Y-103168432D01*
X24889360Y-103068432D01*
G36*
X25289360Y-103268432D02*
G01*
X25389360Y-103268432D01*
X25389360Y-103368432D01*
X25289360Y-103368432D01*
X25289360Y-103268432D01*
G37*
X25289360Y-103268432D02*
X25389360Y-103268432D01*
X25389360Y-103368432D01*
X25289360Y-103368432D01*
X25289360Y-103268432D01*
G36*
X24889360Y-103068432D02*
G01*
X24989360Y-103068432D01*
X24989360Y-103568432D01*
X24889360Y-103568432D01*
X24889360Y-103068432D01*
G37*
X24889360Y-103068432D02*
X24989360Y-103068432D01*
X24989360Y-103568432D01*
X24889360Y-103568432D01*
X24889360Y-103068432D01*
G36*
X24889360Y-103468432D02*
G01*
X25689360Y-103468432D01*
X25689360Y-103568432D01*
X24889360Y-103568432D01*
X24889360Y-103468432D01*
G37*
X24889360Y-103468432D02*
X25689360Y-103468432D01*
X25689360Y-103568432D01*
X24889360Y-103568432D01*
X24889360Y-103468432D01*
G36*
X25489360Y-103068432D02*
G01*
X25689360Y-103068432D01*
X25689360Y-103168432D01*
X25489360Y-103168432D01*
X25489360Y-103068432D01*
G37*
X25489360Y-103068432D02*
X25689360Y-103068432D01*
X25689360Y-103168432D01*
X25489360Y-103168432D01*
X25489360Y-103068432D01*
D12*
X19010000Y-99110000D02*
X16470000Y-99110000D01*
X16470000Y-99110000D02*
X16470000Y-116890000D01*
X16470000Y-116890000D02*
X19010000Y-116890000D01*
X19010000Y-114350000D02*
X19010000Y-116890000D01*
D11*
X27100000Y-111100000D02*
X27100000Y-105100000D01*
X27100000Y-105100000D02*
X26850000Y-105100000D01*
X27100000Y-111100000D02*
X26850000Y-111100000D01*
X23600000Y-111100000D02*
X23850000Y-111100000D01*
X23600000Y-111100000D02*
X23600000Y-105100000D01*
X23600000Y-105100000D02*
X23850000Y-105100000D01*
X39617640Y-217219520D02*
X38717640Y-217719520D01*
X38717640Y-217719520D02*
X38717640Y-216719520D01*
X38717640Y-216719520D02*
X39617640Y-217219520D01*
X39634200Y-216722440D02*
X39634200Y-217722440D01*
X41833820Y-216461900D02*
X36433820Y-216461900D01*
X36433820Y-216461900D02*
X36433820Y-217961900D01*
X36433820Y-217961900D02*
X41833820Y-217961900D01*
X41833820Y-217961900D02*
X41833820Y-216461900D01*
X134817640Y-236219520D02*
X133917640Y-236719520D01*
X133917640Y-236719520D02*
X133917640Y-235719520D01*
X133917640Y-235719520D02*
X134817640Y-236219520D01*
X134834200Y-235722440D02*
X134834200Y-236722440D01*
X137033820Y-235461900D02*
X131633820Y-235461900D01*
X131633820Y-235461900D02*
X131633820Y-236961900D01*
X131633820Y-236961900D02*
X137033820Y-236961900D01*
X137033820Y-236961900D02*
X137033820Y-235461900D01*
X34817640Y-236219520D02*
X33917640Y-236719520D01*
X33917640Y-236719520D02*
X33917640Y-235719520D01*
X33917640Y-235719520D02*
X34817640Y-236219520D01*
X34834200Y-235722440D02*
X34834200Y-236722440D01*
X37033820Y-235461900D02*
X31633820Y-235461900D01*
X31633820Y-235461900D02*
X31633820Y-236961900D01*
X31633820Y-236961900D02*
X37033820Y-236961900D01*
X37033820Y-236961900D02*
X37033820Y-235461900D01*
X34817640Y-198219520D02*
X33917640Y-198719520D01*
X33917640Y-198719520D02*
X33917640Y-197719520D01*
X33917640Y-197719520D02*
X34817640Y-198219520D01*
X34834200Y-197722440D02*
X34834200Y-198722440D01*
X37033820Y-197461900D02*
X31633820Y-197461900D01*
X31633820Y-197461900D02*
X31633820Y-198961900D01*
X31633820Y-198961900D02*
X37033820Y-198961900D01*
X37033820Y-198961900D02*
X37033820Y-197461900D01*
X32317640Y-179219520D02*
X31417640Y-179719520D01*
X31417640Y-179719520D02*
X31417640Y-178719520D01*
X31417640Y-178719520D02*
X32317640Y-179219520D01*
X32334200Y-178722440D02*
X32334200Y-179722440D01*
X34533820Y-178461900D02*
X29133820Y-178461900D01*
X29133820Y-178461900D02*
X29133820Y-179961900D01*
X29133820Y-179961900D02*
X34533820Y-179961900D01*
X34533820Y-179961900D02*
X34533820Y-178461900D01*
X106217640Y-236219520D02*
X105317640Y-236719520D01*
X105317640Y-236719520D02*
X105317640Y-235719520D01*
X105317640Y-235719520D02*
X106217640Y-236219520D01*
X106234200Y-235722440D02*
X106234200Y-236722440D01*
X108433820Y-235461900D02*
X103033820Y-235461900D01*
X103033820Y-235461900D02*
X103033820Y-236961900D01*
X103033820Y-236961900D02*
X108433820Y-236961900D01*
X108433820Y-236961900D02*
X108433820Y-235461900D01*
X82417640Y-236219520D02*
X81517640Y-236719520D01*
X81517640Y-236719520D02*
X81517640Y-235719520D01*
X81517640Y-235719520D02*
X82417640Y-236219520D01*
X82434200Y-235722440D02*
X82434200Y-236722440D01*
X84633820Y-235461900D02*
X79233820Y-235461900D01*
X79233820Y-235461900D02*
X79233820Y-236961900D01*
X79233820Y-236961900D02*
X84633820Y-236961900D01*
X84633820Y-236961900D02*
X84633820Y-235461900D01*
X61017640Y-236219520D02*
X60117640Y-236719520D01*
X60117640Y-236719520D02*
X60117640Y-235719520D01*
X60117640Y-235719520D02*
X61017640Y-236219520D01*
X61034200Y-235722440D02*
X61034200Y-236722440D01*
X63233820Y-235461900D02*
X57833820Y-235461900D01*
X57833820Y-235461900D02*
X57833820Y-236961900D01*
X57833820Y-236961900D02*
X63233820Y-236961900D01*
X63233820Y-236961900D02*
X63233820Y-235461900D01*
X129717640Y-217219520D02*
X128817640Y-217719520D01*
X128817640Y-217719520D02*
X128817640Y-216719520D01*
X128817640Y-216719520D02*
X129717640Y-217219520D01*
X129734200Y-216722440D02*
X129734200Y-217722440D01*
X131933820Y-216461900D02*
X126533820Y-216461900D01*
X126533820Y-216461900D02*
X126533820Y-217961900D01*
X126533820Y-217961900D02*
X131933820Y-217961900D01*
X131933820Y-217961900D02*
X131933820Y-216461900D01*
X110617640Y-217219520D02*
X109717640Y-217719520D01*
X109717640Y-217719520D02*
X109717640Y-216719520D01*
X109717640Y-216719520D02*
X110617640Y-217219520D01*
X110634200Y-216722440D02*
X110634200Y-217722440D01*
X112833820Y-216461900D02*
X107433820Y-216461900D01*
X107433820Y-216461900D02*
X107433820Y-217961900D01*
X107433820Y-217961900D02*
X112833820Y-217961900D01*
X112833820Y-217961900D02*
X112833820Y-216461900D01*
X91617640Y-217219520D02*
X90717640Y-217719520D01*
X90717640Y-217719520D02*
X90717640Y-216719520D01*
X90717640Y-216719520D02*
X91617640Y-217219520D01*
X91634200Y-216722440D02*
X91634200Y-217722440D01*
X93833820Y-216461900D02*
X88433820Y-216461900D01*
X88433820Y-216461900D02*
X88433820Y-217961900D01*
X88433820Y-217961900D02*
X93833820Y-217961900D01*
X93833820Y-217961900D02*
X93833820Y-216461900D01*
X72567640Y-217219520D02*
X71667640Y-217719520D01*
X71667640Y-217719520D02*
X71667640Y-216719520D01*
X71667640Y-216719520D02*
X72567640Y-217219520D01*
X72584200Y-216722440D02*
X72584200Y-217722440D01*
X74783820Y-216461900D02*
X69383820Y-216461900D01*
X69383820Y-216461900D02*
X69383820Y-217961900D01*
X69383820Y-217961900D02*
X74783820Y-217961900D01*
X74783820Y-217961900D02*
X74783820Y-216461900D01*
X139267640Y-198219520D02*
X138367640Y-198719520D01*
X138367640Y-198719520D02*
X138367640Y-197719520D01*
X138367640Y-197719520D02*
X139267640Y-198219520D01*
X139284200Y-197722440D02*
X139284200Y-198722440D01*
X141483820Y-197461900D02*
X136083820Y-197461900D01*
X136083820Y-197461900D02*
X136083820Y-198961900D01*
X136083820Y-198961900D02*
X141483820Y-198961900D01*
X141483820Y-198961900D02*
X141483820Y-197461900D01*
X120217640Y-198219520D02*
X119317640Y-198719520D01*
X119317640Y-198719520D02*
X119317640Y-197719520D01*
X119317640Y-197719520D02*
X120217640Y-198219520D01*
X120234200Y-197722440D02*
X120234200Y-198722440D01*
X122433820Y-197461900D02*
X117033820Y-197461900D01*
X117033820Y-197461900D02*
X117033820Y-198961900D01*
X117033820Y-198961900D02*
X122433820Y-198961900D01*
X122433820Y-198961900D02*
X122433820Y-197461900D01*
X101167640Y-198219520D02*
X100267640Y-198719520D01*
X100267640Y-198719520D02*
X100267640Y-197719520D01*
X100267640Y-197719520D02*
X101167640Y-198219520D01*
X101184200Y-197722440D02*
X101184200Y-198722440D01*
X103383820Y-197461900D02*
X97983820Y-197461900D01*
X97983820Y-197461900D02*
X97983820Y-198961900D01*
X97983820Y-198961900D02*
X103383820Y-198961900D01*
X103383820Y-198961900D02*
X103383820Y-197461900D01*
X82067640Y-198219520D02*
X81167640Y-198719520D01*
X81167640Y-198719520D02*
X81167640Y-197719520D01*
X81167640Y-197719520D02*
X82067640Y-198219520D01*
X82084200Y-197722440D02*
X82084200Y-198722440D01*
X84283820Y-197461900D02*
X78883820Y-197461900D01*
X78883820Y-197461900D02*
X78883820Y-198961900D01*
X78883820Y-198961900D02*
X84283820Y-198961900D01*
X84283820Y-198961900D02*
X84283820Y-197461900D01*
X61017640Y-198219520D02*
X60117640Y-198719520D01*
X60117640Y-198719520D02*
X60117640Y-197719520D01*
X60117640Y-197719520D02*
X61017640Y-198219520D01*
X61034200Y-197722440D02*
X61034200Y-198722440D01*
X63233820Y-197461900D02*
X57833820Y-197461900D01*
X57833820Y-197461900D02*
X57833820Y-198961900D01*
X57833820Y-198961900D02*
X63233820Y-198961900D01*
X63233820Y-198961900D02*
X63233820Y-197461900D01*
X132467640Y-179219520D02*
X131567640Y-179719520D01*
X131567640Y-179719520D02*
X131567640Y-178719520D01*
X131567640Y-178719520D02*
X132467640Y-179219520D01*
X132484200Y-178722440D02*
X132484200Y-179722440D01*
X134683820Y-178461900D02*
X129283820Y-178461900D01*
X129283820Y-178461900D02*
X129283820Y-179961900D01*
X129283820Y-179961900D02*
X134683820Y-179961900D01*
X134683820Y-179961900D02*
X134683820Y-178461900D01*
X113367640Y-179219520D02*
X112467640Y-179719520D01*
X112467640Y-179719520D02*
X112467640Y-178719520D01*
X112467640Y-178719520D02*
X113367640Y-179219520D01*
X113384200Y-178722440D02*
X113384200Y-179722440D01*
X115583820Y-178461900D02*
X110183820Y-178461900D01*
X110183820Y-178461900D02*
X110183820Y-179961900D01*
X110183820Y-179961900D02*
X115583820Y-179961900D01*
X115583820Y-179961900D02*
X115583820Y-178461900D01*
X94367640Y-179219520D02*
X93467640Y-179719520D01*
X93467640Y-179719520D02*
X93467640Y-178719520D01*
X93467640Y-178719520D02*
X94367640Y-179219520D01*
X94384200Y-178722440D02*
X94384200Y-179722440D01*
X96583820Y-178461900D02*
X91183820Y-178461900D01*
X91183820Y-178461900D02*
X91183820Y-179961900D01*
X91183820Y-179961900D02*
X96583820Y-179961900D01*
X96583820Y-179961900D02*
X96583820Y-178461900D01*
X75317640Y-179219520D02*
X74417640Y-179719520D01*
X74417640Y-179719520D02*
X74417640Y-178719520D01*
X74417640Y-178719520D02*
X75317640Y-179219520D01*
X75334200Y-178722440D02*
X75334200Y-179722440D01*
X77533820Y-178461900D02*
X72133820Y-178461900D01*
X72133820Y-178461900D02*
X72133820Y-179961900D01*
X72133820Y-179961900D02*
X77533820Y-179961900D01*
X77533820Y-179961900D02*
X77533820Y-178461900D01*
X56217640Y-179219520D02*
X55317640Y-179719520D01*
X55317640Y-179719520D02*
X55317640Y-178719520D01*
X55317640Y-178719520D02*
X56217640Y-179219520D01*
X56234200Y-178722440D02*
X56234200Y-179722440D01*
X58433820Y-178461900D02*
X53033820Y-178461900D01*
X53033820Y-178461900D02*
X53033820Y-179961900D01*
X53033820Y-179961900D02*
X58433820Y-179961900D01*
X58433820Y-179961900D02*
X58433820Y-178461900D01*
X124967640Y-160219520D02*
X124067640Y-160719520D01*
X124067640Y-160719520D02*
X124067640Y-159719520D01*
X124067640Y-159719520D02*
X124967640Y-160219520D01*
X124984200Y-159722440D02*
X124984200Y-160722440D01*
X127183820Y-159461900D02*
X121783820Y-159461900D01*
X121783820Y-159461900D02*
X121783820Y-160961900D01*
X121783820Y-160961900D02*
X127183820Y-160961900D01*
X127183820Y-160961900D02*
X127183820Y-159461900D01*
X105817640Y-160219520D02*
X104917640Y-160719520D01*
X104917640Y-160719520D02*
X104917640Y-159719520D01*
X104917640Y-159719520D02*
X105817640Y-160219520D01*
X105834200Y-159722440D02*
X105834200Y-160722440D01*
X108033820Y-159461900D02*
X102633820Y-159461900D01*
X102633820Y-159461900D02*
X102633820Y-160961900D01*
X102633820Y-160961900D02*
X108033820Y-160961900D01*
X108033820Y-160961900D02*
X108033820Y-159461900D01*
X86817640Y-160219520D02*
X85917640Y-160719520D01*
X85917640Y-160719520D02*
X85917640Y-159719520D01*
X85917640Y-159719520D02*
X86817640Y-160219520D01*
X86834200Y-159722440D02*
X86834200Y-160722440D01*
X89033820Y-159461900D02*
X83633820Y-159461900D01*
X83633820Y-159461900D02*
X83633820Y-160961900D01*
X83633820Y-160961900D02*
X89033820Y-160961900D01*
X89033820Y-160961900D02*
X89033820Y-159461900D01*
X67767640Y-160219520D02*
X66867640Y-160719520D01*
X66867640Y-160719520D02*
X66867640Y-159719520D01*
X66867640Y-159719520D02*
X67767640Y-160219520D01*
X67784200Y-159722440D02*
X67784200Y-160722440D01*
X69983820Y-159461900D02*
X64583820Y-159461900D01*
X64583820Y-159461900D02*
X64583820Y-160961900D01*
X64583820Y-160961900D02*
X69983820Y-160961900D01*
X69983820Y-160961900D02*
X69983820Y-159461900D01*
X46667640Y-160219520D02*
X45767640Y-160719520D01*
X45767640Y-160719520D02*
X45767640Y-159719520D01*
X45767640Y-159719520D02*
X46667640Y-160219520D01*
X46684200Y-159722440D02*
X46684200Y-160722440D01*
X48883820Y-159461900D02*
X43483820Y-159461900D01*
X43483820Y-159461900D02*
X43483820Y-160961900D01*
X43483820Y-160961900D02*
X48883820Y-160961900D01*
X48883820Y-160961900D02*
X48883820Y-159461900D01*
X27667640Y-160219520D02*
X26767640Y-160719520D01*
X26767640Y-160719520D02*
X26767640Y-159719520D01*
X26767640Y-159719520D02*
X27667640Y-160219520D01*
X27684200Y-159722440D02*
X27684200Y-160722440D01*
X29883820Y-159461900D02*
X24483820Y-159461900D01*
X24483820Y-159461900D02*
X24483820Y-160961900D01*
X24483820Y-160961900D02*
X29883820Y-160961900D01*
X29883820Y-160961900D02*
X29883820Y-159461900D01*
X122892640Y-136219520D02*
X121992640Y-136719520D01*
X121992640Y-136719520D02*
X121992640Y-135719520D01*
X121992640Y-135719520D02*
X122892640Y-136219520D01*
X122909200Y-135722440D02*
X122909200Y-136722440D01*
X125108820Y-135461900D02*
X119708820Y-135461900D01*
X119708820Y-135461900D02*
X119708820Y-136961900D01*
X119708820Y-136961900D02*
X125108820Y-136961900D01*
X125108820Y-136961900D02*
X125108820Y-135461900D01*
X103867640Y-136219520D02*
X102967640Y-136719520D01*
X102967640Y-136719520D02*
X102967640Y-135719520D01*
X102967640Y-135719520D02*
X103867640Y-136219520D01*
X103884200Y-135722440D02*
X103884200Y-136722440D01*
X106083820Y-135461900D02*
X100683820Y-135461900D01*
X100683820Y-135461900D02*
X100683820Y-136961900D01*
X100683820Y-136961900D02*
X106083820Y-136961900D01*
X106083820Y-136961900D02*
X106083820Y-135461900D01*
X84817640Y-136219520D02*
X83917640Y-136719520D01*
X83917640Y-136719520D02*
X83917640Y-135719520D01*
X83917640Y-135719520D02*
X84817640Y-136219520D01*
X84834200Y-135722440D02*
X84834200Y-136722440D01*
X87033820Y-135461900D02*
X81633820Y-135461900D01*
X81633820Y-135461900D02*
X81633820Y-136961900D01*
X81633820Y-136961900D02*
X87033820Y-136961900D01*
X87033820Y-136961900D02*
X87033820Y-135461900D01*
X65767640Y-136319520D02*
X64867640Y-136819520D01*
X64867640Y-136819520D02*
X64867640Y-135819520D01*
X64867640Y-135819520D02*
X65767640Y-136319520D01*
X65784200Y-135822440D02*
X65784200Y-136822440D01*
X67983820Y-135561900D02*
X62583820Y-135561900D01*
X62583820Y-135561900D02*
X62583820Y-137061900D01*
X62583820Y-137061900D02*
X67983820Y-137061900D01*
X67983820Y-137061900D02*
X67983820Y-135561900D01*
X27667640Y-136469520D02*
X26767640Y-136969520D01*
X26767640Y-136969520D02*
X26767640Y-135969520D01*
X26767640Y-135969520D02*
X27667640Y-136469520D01*
X27684200Y-135972440D02*
X27684200Y-136972440D01*
X29883820Y-135711900D02*
X24483820Y-135711900D01*
X24483820Y-135711900D02*
X24483820Y-137211900D01*
X24483820Y-137211900D02*
X29883820Y-137211900D01*
X29883820Y-137211900D02*
X29883820Y-135711900D01*
X38904885Y-201572761D02*
X39047742Y-201620380D01*
X39285838Y-201620380D01*
X39381076Y-201572761D01*
X39428695Y-201525142D01*
X39476314Y-201429904D01*
X39476314Y-201334666D01*
X39428695Y-201239428D01*
X39381076Y-201191809D01*
X39285838Y-201144190D01*
X39095361Y-201096571D01*
X39000123Y-201048952D01*
X38952504Y-201001333D01*
X38904885Y-200906095D01*
X38904885Y-200810857D01*
X38952504Y-200715619D01*
X39000123Y-200668000D01*
X39095361Y-200620380D01*
X39333457Y-200620380D01*
X39476314Y-200668000D01*
X39809647Y-200620380D02*
X40047742Y-201620380D01*
X40238219Y-200906095D01*
X40428695Y-201620380D01*
X40666790Y-200620380D01*
X41476314Y-200620380D02*
X41285838Y-200620380D01*
X41190600Y-200668000D01*
X41142980Y-200715619D01*
X41047742Y-200858476D01*
X41000123Y-201048952D01*
X41000123Y-201429904D01*
X41047742Y-201525142D01*
X41095361Y-201572761D01*
X41190600Y-201620380D01*
X41381076Y-201620380D01*
X41476314Y-201572761D01*
X41523933Y-201525142D01*
X41571552Y-201429904D01*
X41571552Y-201191809D01*
X41523933Y-201096571D01*
X41476314Y-201048952D01*
X41381076Y-201001333D01*
X41190600Y-201001333D01*
X41095361Y-201048952D01*
X41047742Y-201096571D01*
X41000123Y-201191809D01*
X42190600Y-200620380D02*
X42285838Y-200620380D01*
X42381076Y-200668000D01*
X42428695Y-200715619D01*
X42476314Y-200810857D01*
X42523933Y-201001333D01*
X42523933Y-201239428D01*
X42476314Y-201429904D01*
X42428695Y-201525142D01*
X42381076Y-201572761D01*
X42285838Y-201620380D01*
X42190600Y-201620380D01*
X42095361Y-201572761D01*
X42047742Y-201525142D01*
X42000123Y-201429904D01*
X41952504Y-201239428D01*
X41952504Y-201001333D01*
X42000123Y-200810857D01*
X42047742Y-200715619D01*
X42095361Y-200668000D01*
X42190600Y-200620380D01*
X43476314Y-201620380D02*
X42904885Y-201620380D01*
X43190600Y-201620380D02*
X43190600Y-200620380D01*
X43095361Y-200763238D01*
X43000123Y-200858476D01*
X42904885Y-200906095D01*
X134080285Y-220622761D02*
X134223142Y-220670380D01*
X134461238Y-220670380D01*
X134556476Y-220622761D01*
X134604095Y-220575142D01*
X134651714Y-220479904D01*
X134651714Y-220384666D01*
X134604095Y-220289428D01*
X134556476Y-220241809D01*
X134461238Y-220194190D01*
X134270761Y-220146571D01*
X134175523Y-220098952D01*
X134127904Y-220051333D01*
X134080285Y-219956095D01*
X134080285Y-219860857D01*
X134127904Y-219765619D01*
X134175523Y-219718000D01*
X134270761Y-219670380D01*
X134508857Y-219670380D01*
X134651714Y-219718000D01*
X134985047Y-219670380D02*
X135223142Y-220670380D01*
X135413619Y-219956095D01*
X135604095Y-220670380D01*
X135842190Y-219670380D01*
X136127904Y-219670380D02*
X136746952Y-219670380D01*
X136413619Y-220051333D01*
X136556476Y-220051333D01*
X136651714Y-220098952D01*
X136699333Y-220146571D01*
X136746952Y-220241809D01*
X136746952Y-220479904D01*
X136699333Y-220575142D01*
X136651714Y-220622761D01*
X136556476Y-220670380D01*
X136270761Y-220670380D01*
X136175523Y-220622761D01*
X136127904Y-220575142D01*
X137366000Y-219670380D02*
X137461238Y-219670380D01*
X137556476Y-219718000D01*
X137604095Y-219765619D01*
X137651714Y-219860857D01*
X137699333Y-220051333D01*
X137699333Y-220289428D01*
X137651714Y-220479904D01*
X137604095Y-220575142D01*
X137556476Y-220622761D01*
X137461238Y-220670380D01*
X137366000Y-220670380D01*
X137270761Y-220622761D01*
X137223142Y-220575142D01*
X137175523Y-220479904D01*
X137127904Y-220289428D01*
X137127904Y-220051333D01*
X137175523Y-219860857D01*
X137223142Y-219765619D01*
X137270761Y-219718000D01*
X137366000Y-219670380D01*
X138556476Y-220003714D02*
X138556476Y-220670380D01*
X138318380Y-219622761D02*
X138080285Y-220337047D01*
X138699333Y-220337047D01*
X34068285Y-220622761D02*
X34211142Y-220670380D01*
X34449238Y-220670380D01*
X34544476Y-220622761D01*
X34592095Y-220575142D01*
X34639714Y-220479904D01*
X34639714Y-220384666D01*
X34592095Y-220289428D01*
X34544476Y-220241809D01*
X34449238Y-220194190D01*
X34258761Y-220146571D01*
X34163523Y-220098952D01*
X34115904Y-220051333D01*
X34068285Y-219956095D01*
X34068285Y-219860857D01*
X34115904Y-219765619D01*
X34163523Y-219718000D01*
X34258761Y-219670380D01*
X34496857Y-219670380D01*
X34639714Y-219718000D01*
X34973047Y-219670380D02*
X35211142Y-220670380D01*
X35401619Y-219956095D01*
X35592095Y-220670380D01*
X35830190Y-219670380D01*
X36115904Y-219670380D02*
X36734952Y-219670380D01*
X36401619Y-220051333D01*
X36544476Y-220051333D01*
X36639714Y-220098952D01*
X36687333Y-220146571D01*
X36734952Y-220241809D01*
X36734952Y-220479904D01*
X36687333Y-220575142D01*
X36639714Y-220622761D01*
X36544476Y-220670380D01*
X36258761Y-220670380D01*
X36163523Y-220622761D01*
X36115904Y-220575142D01*
X37354000Y-219670380D02*
X37449238Y-219670380D01*
X37544476Y-219718000D01*
X37592095Y-219765619D01*
X37639714Y-219860857D01*
X37687333Y-220051333D01*
X37687333Y-220289428D01*
X37639714Y-220479904D01*
X37592095Y-220575142D01*
X37544476Y-220622761D01*
X37449238Y-220670380D01*
X37354000Y-220670380D01*
X37258761Y-220622761D01*
X37211142Y-220575142D01*
X37163523Y-220479904D01*
X37115904Y-220289428D01*
X37115904Y-220051333D01*
X37163523Y-219860857D01*
X37211142Y-219765619D01*
X37258761Y-219718000D01*
X37354000Y-219670380D01*
X38068285Y-219765619D02*
X38115904Y-219718000D01*
X38211142Y-219670380D01*
X38449238Y-219670380D01*
X38544476Y-219718000D01*
X38592095Y-219765619D01*
X38639714Y-219860857D01*
X38639714Y-219956095D01*
X38592095Y-220098952D01*
X38020666Y-220670380D01*
X38639714Y-220670380D01*
X34068285Y-182522761D02*
X34211142Y-182570380D01*
X34449238Y-182570380D01*
X34544476Y-182522761D01*
X34592095Y-182475142D01*
X34639714Y-182379904D01*
X34639714Y-182284666D01*
X34592095Y-182189428D01*
X34544476Y-182141809D01*
X34449238Y-182094190D01*
X34258761Y-182046571D01*
X34163523Y-181998952D01*
X34115904Y-181951333D01*
X34068285Y-181856095D01*
X34068285Y-181760857D01*
X34115904Y-181665619D01*
X34163523Y-181618000D01*
X34258761Y-181570380D01*
X34496857Y-181570380D01*
X34639714Y-181618000D01*
X34973047Y-181570380D02*
X35211142Y-182570380D01*
X35401619Y-181856095D01*
X35592095Y-182570380D01*
X35830190Y-181570380D01*
X36115904Y-181570380D02*
X36734952Y-181570380D01*
X36401619Y-181951333D01*
X36544476Y-181951333D01*
X36639714Y-181998952D01*
X36687333Y-182046571D01*
X36734952Y-182141809D01*
X36734952Y-182379904D01*
X36687333Y-182475142D01*
X36639714Y-182522761D01*
X36544476Y-182570380D01*
X36258761Y-182570380D01*
X36163523Y-182522761D01*
X36115904Y-182475142D01*
X37354000Y-181570380D02*
X37449238Y-181570380D01*
X37544476Y-181618000D01*
X37592095Y-181665619D01*
X37639714Y-181760857D01*
X37687333Y-181951333D01*
X37687333Y-182189428D01*
X37639714Y-182379904D01*
X37592095Y-182475142D01*
X37544476Y-182522761D01*
X37449238Y-182570380D01*
X37354000Y-182570380D01*
X37258761Y-182522761D01*
X37211142Y-182475142D01*
X37163523Y-182379904D01*
X37115904Y-182189428D01*
X37115904Y-181951333D01*
X37163523Y-181760857D01*
X37211142Y-181665619D01*
X37258761Y-181618000D01*
X37354000Y-181570380D01*
X38639714Y-182570380D02*
X38068285Y-182570380D01*
X38354000Y-182570380D02*
X38354000Y-181570380D01*
X38258761Y-181713238D01*
X38163523Y-181808476D01*
X38068285Y-181856095D01*
X31687285Y-163472761D02*
X31830142Y-163520380D01*
X32068238Y-163520380D01*
X32163476Y-163472761D01*
X32211095Y-163425142D01*
X32258714Y-163329904D01*
X32258714Y-163234666D01*
X32211095Y-163139428D01*
X32163476Y-163091809D01*
X32068238Y-163044190D01*
X31877761Y-162996571D01*
X31782523Y-162948952D01*
X31734904Y-162901333D01*
X31687285Y-162806095D01*
X31687285Y-162710857D01*
X31734904Y-162615619D01*
X31782523Y-162568000D01*
X31877761Y-162520380D01*
X32115857Y-162520380D01*
X32258714Y-162568000D01*
X32592047Y-162520380D02*
X32830142Y-163520380D01*
X33020619Y-162806095D01*
X33211095Y-163520380D01*
X33449190Y-162520380D01*
X33782523Y-162615619D02*
X33830142Y-162568000D01*
X33925380Y-162520380D01*
X34163476Y-162520380D01*
X34258714Y-162568000D01*
X34306333Y-162615619D01*
X34353952Y-162710857D01*
X34353952Y-162806095D01*
X34306333Y-162948952D01*
X33734904Y-163520380D01*
X34353952Y-163520380D01*
X34973000Y-162520380D02*
X35068238Y-162520380D01*
X35163476Y-162568000D01*
X35211095Y-162615619D01*
X35258714Y-162710857D01*
X35306333Y-162901333D01*
X35306333Y-163139428D01*
X35258714Y-163329904D01*
X35211095Y-163425142D01*
X35163476Y-163472761D01*
X35068238Y-163520380D01*
X34973000Y-163520380D01*
X34877761Y-163472761D01*
X34830142Y-163425142D01*
X34782523Y-163329904D01*
X34734904Y-163139428D01*
X34734904Y-162901333D01*
X34782523Y-162710857D01*
X34830142Y-162615619D01*
X34877761Y-162568000D01*
X34973000Y-162520380D01*
X36258714Y-163520380D02*
X35687285Y-163520380D01*
X35973000Y-163520380D02*
X35973000Y-162520380D01*
X35877761Y-162663238D01*
X35782523Y-162758476D01*
X35687285Y-162806095D01*
X105505285Y-220622761D02*
X105648142Y-220670380D01*
X105886238Y-220670380D01*
X105981476Y-220622761D01*
X106029095Y-220575142D01*
X106076714Y-220479904D01*
X106076714Y-220384666D01*
X106029095Y-220289428D01*
X105981476Y-220241809D01*
X105886238Y-220194190D01*
X105695761Y-220146571D01*
X105600523Y-220098952D01*
X105552904Y-220051333D01*
X105505285Y-219956095D01*
X105505285Y-219860857D01*
X105552904Y-219765619D01*
X105600523Y-219718000D01*
X105695761Y-219670380D01*
X105933857Y-219670380D01*
X106076714Y-219718000D01*
X106410047Y-219670380D02*
X106648142Y-220670380D01*
X106838619Y-219956095D01*
X107029095Y-220670380D01*
X107267190Y-219670380D01*
X108171952Y-220670380D02*
X107600523Y-220670380D01*
X107886238Y-220670380D02*
X107886238Y-219670380D01*
X107791000Y-219813238D01*
X107695761Y-219908476D01*
X107600523Y-219956095D01*
X108791000Y-219670380D02*
X108886238Y-219670380D01*
X108981476Y-219718000D01*
X109029095Y-219765619D01*
X109076714Y-219860857D01*
X109124333Y-220051333D01*
X109124333Y-220289428D01*
X109076714Y-220479904D01*
X109029095Y-220575142D01*
X108981476Y-220622761D01*
X108886238Y-220670380D01*
X108791000Y-220670380D01*
X108695761Y-220622761D01*
X108648142Y-220575142D01*
X108600523Y-220479904D01*
X108552904Y-220289428D01*
X108552904Y-220051333D01*
X108600523Y-219860857D01*
X108648142Y-219765619D01*
X108695761Y-219718000D01*
X108791000Y-219670380D01*
X109505285Y-219765619D02*
X109552904Y-219718000D01*
X109648142Y-219670380D01*
X109886238Y-219670380D01*
X109981476Y-219718000D01*
X110029095Y-219765619D01*
X110076714Y-219860857D01*
X110076714Y-219956095D01*
X110029095Y-220098952D01*
X109457666Y-220670380D01*
X110076714Y-220670380D01*
X81692785Y-220622761D02*
X81835642Y-220670380D01*
X82073738Y-220670380D01*
X82168976Y-220622761D01*
X82216595Y-220575142D01*
X82264214Y-220479904D01*
X82264214Y-220384666D01*
X82216595Y-220289428D01*
X82168976Y-220241809D01*
X82073738Y-220194190D01*
X81883261Y-220146571D01*
X81788023Y-220098952D01*
X81740404Y-220051333D01*
X81692785Y-219956095D01*
X81692785Y-219860857D01*
X81740404Y-219765619D01*
X81788023Y-219718000D01*
X81883261Y-219670380D01*
X82121357Y-219670380D01*
X82264214Y-219718000D01*
X82597547Y-219670380D02*
X82835642Y-220670380D01*
X83026119Y-219956095D01*
X83216595Y-220670380D01*
X83454690Y-219670380D01*
X84359452Y-220670380D02*
X83788023Y-220670380D01*
X84073738Y-220670380D02*
X84073738Y-219670380D01*
X83978500Y-219813238D01*
X83883261Y-219908476D01*
X83788023Y-219956095D01*
X84978500Y-219670380D02*
X85073738Y-219670380D01*
X85168976Y-219718000D01*
X85216595Y-219765619D01*
X85264214Y-219860857D01*
X85311833Y-220051333D01*
X85311833Y-220289428D01*
X85264214Y-220479904D01*
X85216595Y-220575142D01*
X85168976Y-220622761D01*
X85073738Y-220670380D01*
X84978500Y-220670380D01*
X84883261Y-220622761D01*
X84835642Y-220575142D01*
X84788023Y-220479904D01*
X84740404Y-220289428D01*
X84740404Y-220051333D01*
X84788023Y-219860857D01*
X84835642Y-219765619D01*
X84883261Y-219718000D01*
X84978500Y-219670380D01*
X86264214Y-220670380D02*
X85692785Y-220670380D01*
X85978500Y-220670380D02*
X85978500Y-219670380D01*
X85883261Y-219813238D01*
X85788023Y-219908476D01*
X85692785Y-219956095D01*
X60737976Y-220622761D02*
X60880833Y-220670380D01*
X61118928Y-220670380D01*
X61214166Y-220622761D01*
X61261785Y-220575142D01*
X61309404Y-220479904D01*
X61309404Y-220384666D01*
X61261785Y-220289428D01*
X61214166Y-220241809D01*
X61118928Y-220194190D01*
X60928452Y-220146571D01*
X60833214Y-220098952D01*
X60785595Y-220051333D01*
X60737976Y-219956095D01*
X60737976Y-219860857D01*
X60785595Y-219765619D01*
X60833214Y-219718000D01*
X60928452Y-219670380D01*
X61166547Y-219670380D01*
X61309404Y-219718000D01*
X61642738Y-219670380D02*
X61880833Y-220670380D01*
X62071309Y-219956095D01*
X62261785Y-220670380D01*
X62499880Y-219670380D01*
X62785595Y-219670380D02*
X63404642Y-219670380D01*
X63071309Y-220051333D01*
X63214166Y-220051333D01*
X63309404Y-220098952D01*
X63357023Y-220146571D01*
X63404642Y-220241809D01*
X63404642Y-220479904D01*
X63357023Y-220575142D01*
X63309404Y-220622761D01*
X63214166Y-220670380D01*
X62928452Y-220670380D01*
X62833214Y-220622761D01*
X62785595Y-220575142D01*
X64023690Y-219670380D02*
X64118928Y-219670380D01*
X64214166Y-219718000D01*
X64261785Y-219765619D01*
X64309404Y-219860857D01*
X64357023Y-220051333D01*
X64357023Y-220289428D01*
X64309404Y-220479904D01*
X64261785Y-220575142D01*
X64214166Y-220622761D01*
X64118928Y-220670380D01*
X64023690Y-220670380D01*
X63928452Y-220622761D01*
X63880833Y-220575142D01*
X63833214Y-220479904D01*
X63785595Y-220289428D01*
X63785595Y-220051333D01*
X63833214Y-219860857D01*
X63880833Y-219765619D01*
X63928452Y-219718000D01*
X64023690Y-219670380D01*
X127412476Y-201572761D02*
X127555333Y-201620380D01*
X127793428Y-201620380D01*
X127888666Y-201572761D01*
X127936285Y-201525142D01*
X127983904Y-201429904D01*
X127983904Y-201334666D01*
X127936285Y-201239428D01*
X127888666Y-201191809D01*
X127793428Y-201144190D01*
X127602952Y-201096571D01*
X127507714Y-201048952D01*
X127460095Y-201001333D01*
X127412476Y-200906095D01*
X127412476Y-200810857D01*
X127460095Y-200715619D01*
X127507714Y-200668000D01*
X127602952Y-200620380D01*
X127841047Y-200620380D01*
X127983904Y-200668000D01*
X128317238Y-200620380D02*
X128555333Y-201620380D01*
X128745809Y-200906095D01*
X128936285Y-201620380D01*
X129174380Y-200620380D01*
X129507714Y-200715619D02*
X129555333Y-200668000D01*
X129650571Y-200620380D01*
X129888666Y-200620380D01*
X129983904Y-200668000D01*
X130031523Y-200715619D01*
X130079142Y-200810857D01*
X130079142Y-200906095D01*
X130031523Y-201048952D01*
X129460095Y-201620380D01*
X130079142Y-201620380D01*
X130555333Y-201620380D02*
X130745809Y-201620380D01*
X130841047Y-201572761D01*
X130888666Y-201525142D01*
X130983904Y-201382285D01*
X131031523Y-201191809D01*
X131031523Y-200810857D01*
X130983904Y-200715619D01*
X130936285Y-200668000D01*
X130841047Y-200620380D01*
X130650571Y-200620380D01*
X130555333Y-200668000D01*
X130507714Y-200715619D01*
X130460095Y-200810857D01*
X130460095Y-201048952D01*
X130507714Y-201144190D01*
X130555333Y-201191809D01*
X130650571Y-201239428D01*
X130841047Y-201239428D01*
X130936285Y-201191809D01*
X130983904Y-201144190D01*
X131031523Y-201048952D01*
X108362476Y-201572761D02*
X108505333Y-201620380D01*
X108743428Y-201620380D01*
X108838666Y-201572761D01*
X108886285Y-201525142D01*
X108933904Y-201429904D01*
X108933904Y-201334666D01*
X108886285Y-201239428D01*
X108838666Y-201191809D01*
X108743428Y-201144190D01*
X108552952Y-201096571D01*
X108457714Y-201048952D01*
X108410095Y-201001333D01*
X108362476Y-200906095D01*
X108362476Y-200810857D01*
X108410095Y-200715619D01*
X108457714Y-200668000D01*
X108552952Y-200620380D01*
X108791047Y-200620380D01*
X108933904Y-200668000D01*
X109267238Y-200620380D02*
X109505333Y-201620380D01*
X109695809Y-200906095D01*
X109886285Y-201620380D01*
X110124380Y-200620380D01*
X110457714Y-200715619D02*
X110505333Y-200668000D01*
X110600571Y-200620380D01*
X110838666Y-200620380D01*
X110933904Y-200668000D01*
X110981523Y-200715619D01*
X111029142Y-200810857D01*
X111029142Y-200906095D01*
X110981523Y-201048952D01*
X110410095Y-201620380D01*
X111029142Y-201620380D01*
X111600571Y-201048952D02*
X111505333Y-201001333D01*
X111457714Y-200953714D01*
X111410095Y-200858476D01*
X111410095Y-200810857D01*
X111457714Y-200715619D01*
X111505333Y-200668000D01*
X111600571Y-200620380D01*
X111791047Y-200620380D01*
X111886285Y-200668000D01*
X111933904Y-200715619D01*
X111981523Y-200810857D01*
X111981523Y-200858476D01*
X111933904Y-200953714D01*
X111886285Y-201001333D01*
X111791047Y-201048952D01*
X111600571Y-201048952D01*
X111505333Y-201096571D01*
X111457714Y-201144190D01*
X111410095Y-201239428D01*
X111410095Y-201429904D01*
X111457714Y-201525142D01*
X111505333Y-201572761D01*
X111600571Y-201620380D01*
X111791047Y-201620380D01*
X111886285Y-201572761D01*
X111933904Y-201525142D01*
X111981523Y-201429904D01*
X111981523Y-201239428D01*
X111933904Y-201144190D01*
X111886285Y-201096571D01*
X111791047Y-201048952D01*
X89312976Y-201572761D02*
X89455833Y-201620380D01*
X89693928Y-201620380D01*
X89789166Y-201572761D01*
X89836785Y-201525142D01*
X89884404Y-201429904D01*
X89884404Y-201334666D01*
X89836785Y-201239428D01*
X89789166Y-201191809D01*
X89693928Y-201144190D01*
X89503452Y-201096571D01*
X89408214Y-201048952D01*
X89360595Y-201001333D01*
X89312976Y-200906095D01*
X89312976Y-200810857D01*
X89360595Y-200715619D01*
X89408214Y-200668000D01*
X89503452Y-200620380D01*
X89741547Y-200620380D01*
X89884404Y-200668000D01*
X90217738Y-200620380D02*
X90455833Y-201620380D01*
X90646309Y-200906095D01*
X90836785Y-201620380D01*
X91074880Y-200620380D01*
X91408214Y-200715619D02*
X91455833Y-200668000D01*
X91551071Y-200620380D01*
X91789166Y-200620380D01*
X91884404Y-200668000D01*
X91932023Y-200715619D01*
X91979642Y-200810857D01*
X91979642Y-200906095D01*
X91932023Y-201048952D01*
X91360595Y-201620380D01*
X91979642Y-201620380D01*
X92312976Y-200620380D02*
X92979642Y-200620380D01*
X92551071Y-201620380D01*
X70262976Y-201572761D02*
X70405833Y-201620380D01*
X70643928Y-201620380D01*
X70739166Y-201572761D01*
X70786785Y-201525142D01*
X70834404Y-201429904D01*
X70834404Y-201334666D01*
X70786785Y-201239428D01*
X70739166Y-201191809D01*
X70643928Y-201144190D01*
X70453452Y-201096571D01*
X70358214Y-201048952D01*
X70310595Y-201001333D01*
X70262976Y-200906095D01*
X70262976Y-200810857D01*
X70310595Y-200715619D01*
X70358214Y-200668000D01*
X70453452Y-200620380D01*
X70691547Y-200620380D01*
X70834404Y-200668000D01*
X71167738Y-200620380D02*
X71405833Y-201620380D01*
X71596309Y-200906095D01*
X71786785Y-201620380D01*
X72024880Y-200620380D01*
X72358214Y-200715619D02*
X72405833Y-200668000D01*
X72501071Y-200620380D01*
X72739166Y-200620380D01*
X72834404Y-200668000D01*
X72882023Y-200715619D01*
X72929642Y-200810857D01*
X72929642Y-200906095D01*
X72882023Y-201048952D01*
X72310595Y-201620380D01*
X72929642Y-201620380D01*
X73786785Y-200620380D02*
X73596309Y-200620380D01*
X73501071Y-200668000D01*
X73453452Y-200715619D01*
X73358214Y-200858476D01*
X73310595Y-201048952D01*
X73310595Y-201429904D01*
X73358214Y-201525142D01*
X73405833Y-201572761D01*
X73501071Y-201620380D01*
X73691547Y-201620380D01*
X73786785Y-201572761D01*
X73834404Y-201525142D01*
X73882023Y-201429904D01*
X73882023Y-201191809D01*
X73834404Y-201096571D01*
X73786785Y-201048952D01*
X73691547Y-201001333D01*
X73501071Y-201001333D01*
X73405833Y-201048952D01*
X73358214Y-201096571D01*
X73310595Y-201191809D01*
X136938476Y-182522761D02*
X137081333Y-182570380D01*
X137319428Y-182570380D01*
X137414666Y-182522761D01*
X137462285Y-182475142D01*
X137509904Y-182379904D01*
X137509904Y-182284666D01*
X137462285Y-182189428D01*
X137414666Y-182141809D01*
X137319428Y-182094190D01*
X137128952Y-182046571D01*
X137033714Y-181998952D01*
X136986095Y-181951333D01*
X136938476Y-181856095D01*
X136938476Y-181760857D01*
X136986095Y-181665619D01*
X137033714Y-181618000D01*
X137128952Y-181570380D01*
X137367047Y-181570380D01*
X137509904Y-181618000D01*
X137843238Y-181570380D02*
X138081333Y-182570380D01*
X138271809Y-181856095D01*
X138462285Y-182570380D01*
X138700380Y-181570380D01*
X139033714Y-181665619D02*
X139081333Y-181618000D01*
X139176571Y-181570380D01*
X139414666Y-181570380D01*
X139509904Y-181618000D01*
X139557523Y-181665619D01*
X139605142Y-181760857D01*
X139605142Y-181856095D01*
X139557523Y-181998952D01*
X138986095Y-182570380D01*
X139605142Y-182570380D01*
X140509904Y-181570380D02*
X140033714Y-181570380D01*
X139986095Y-182046571D01*
X140033714Y-181998952D01*
X140128952Y-181951333D01*
X140367047Y-181951333D01*
X140462285Y-181998952D01*
X140509904Y-182046571D01*
X140557523Y-182141809D01*
X140557523Y-182379904D01*
X140509904Y-182475142D01*
X140462285Y-182522761D01*
X140367047Y-182570380D01*
X140128952Y-182570380D01*
X140033714Y-182522761D01*
X139986095Y-182475142D01*
X117888476Y-182522761D02*
X118031333Y-182570380D01*
X118269428Y-182570380D01*
X118364666Y-182522761D01*
X118412285Y-182475142D01*
X118459904Y-182379904D01*
X118459904Y-182284666D01*
X118412285Y-182189428D01*
X118364666Y-182141809D01*
X118269428Y-182094190D01*
X118078952Y-182046571D01*
X117983714Y-181998952D01*
X117936095Y-181951333D01*
X117888476Y-181856095D01*
X117888476Y-181760857D01*
X117936095Y-181665619D01*
X117983714Y-181618000D01*
X118078952Y-181570380D01*
X118317047Y-181570380D01*
X118459904Y-181618000D01*
X118793238Y-181570380D02*
X119031333Y-182570380D01*
X119221809Y-181856095D01*
X119412285Y-182570380D01*
X119650380Y-181570380D01*
X119983714Y-181665619D02*
X120031333Y-181618000D01*
X120126571Y-181570380D01*
X120364666Y-181570380D01*
X120459904Y-181618000D01*
X120507523Y-181665619D01*
X120555142Y-181760857D01*
X120555142Y-181856095D01*
X120507523Y-181998952D01*
X119936095Y-182570380D01*
X120555142Y-182570380D01*
X121412285Y-181903714D02*
X121412285Y-182570380D01*
X121174190Y-181522761D02*
X120936095Y-182237047D01*
X121555142Y-182237047D01*
X98838476Y-182522761D02*
X98981333Y-182570380D01*
X99219428Y-182570380D01*
X99314666Y-182522761D01*
X99362285Y-182475142D01*
X99409904Y-182379904D01*
X99409904Y-182284666D01*
X99362285Y-182189428D01*
X99314666Y-182141809D01*
X99219428Y-182094190D01*
X99028952Y-182046571D01*
X98933714Y-181998952D01*
X98886095Y-181951333D01*
X98838476Y-181856095D01*
X98838476Y-181760857D01*
X98886095Y-181665619D01*
X98933714Y-181618000D01*
X99028952Y-181570380D01*
X99267047Y-181570380D01*
X99409904Y-181618000D01*
X99743238Y-181570380D02*
X99981333Y-182570380D01*
X100171809Y-181856095D01*
X100362285Y-182570380D01*
X100600380Y-181570380D01*
X100933714Y-181665619D02*
X100981333Y-181618000D01*
X101076571Y-181570380D01*
X101314666Y-181570380D01*
X101409904Y-181618000D01*
X101457523Y-181665619D01*
X101505142Y-181760857D01*
X101505142Y-181856095D01*
X101457523Y-181998952D01*
X100886095Y-182570380D01*
X101505142Y-182570380D01*
X101838476Y-181570380D02*
X102457523Y-181570380D01*
X102124190Y-181951333D01*
X102267047Y-181951333D01*
X102362285Y-181998952D01*
X102409904Y-182046571D01*
X102457523Y-182141809D01*
X102457523Y-182379904D01*
X102409904Y-182475142D01*
X102362285Y-182522761D01*
X102267047Y-182570380D01*
X101981333Y-182570380D01*
X101886095Y-182522761D01*
X101838476Y-182475142D01*
X79787976Y-182522761D02*
X79930833Y-182570380D01*
X80168928Y-182570380D01*
X80264166Y-182522761D01*
X80311785Y-182475142D01*
X80359404Y-182379904D01*
X80359404Y-182284666D01*
X80311785Y-182189428D01*
X80264166Y-182141809D01*
X80168928Y-182094190D01*
X79978452Y-182046571D01*
X79883214Y-181998952D01*
X79835595Y-181951333D01*
X79787976Y-181856095D01*
X79787976Y-181760857D01*
X79835595Y-181665619D01*
X79883214Y-181618000D01*
X79978452Y-181570380D01*
X80216547Y-181570380D01*
X80359404Y-181618000D01*
X80692738Y-181570380D02*
X80930833Y-182570380D01*
X81121309Y-181856095D01*
X81311785Y-182570380D01*
X81549880Y-181570380D01*
X81883214Y-181665619D02*
X81930833Y-181618000D01*
X82026071Y-181570380D01*
X82264166Y-181570380D01*
X82359404Y-181618000D01*
X82407023Y-181665619D01*
X82454642Y-181760857D01*
X82454642Y-181856095D01*
X82407023Y-181998952D01*
X81835595Y-182570380D01*
X82454642Y-182570380D01*
X82835595Y-181665619D02*
X82883214Y-181618000D01*
X82978452Y-181570380D01*
X83216547Y-181570380D01*
X83311785Y-181618000D01*
X83359404Y-181665619D01*
X83407023Y-181760857D01*
X83407023Y-181856095D01*
X83359404Y-181998952D01*
X82787976Y-182570380D01*
X83407023Y-182570380D01*
X60737976Y-182522761D02*
X60880833Y-182570380D01*
X61118928Y-182570380D01*
X61214166Y-182522761D01*
X61261785Y-182475142D01*
X61309404Y-182379904D01*
X61309404Y-182284666D01*
X61261785Y-182189428D01*
X61214166Y-182141809D01*
X61118928Y-182094190D01*
X60928452Y-182046571D01*
X60833214Y-181998952D01*
X60785595Y-181951333D01*
X60737976Y-181856095D01*
X60737976Y-181760857D01*
X60785595Y-181665619D01*
X60833214Y-181618000D01*
X60928452Y-181570380D01*
X61166547Y-181570380D01*
X61309404Y-181618000D01*
X61642738Y-181570380D02*
X61880833Y-182570380D01*
X62071309Y-181856095D01*
X62261785Y-182570380D01*
X62499880Y-181570380D01*
X62833214Y-181665619D02*
X62880833Y-181618000D01*
X62976071Y-181570380D01*
X63214166Y-181570380D01*
X63309404Y-181618000D01*
X63357023Y-181665619D01*
X63404642Y-181760857D01*
X63404642Y-181856095D01*
X63357023Y-181998952D01*
X62785595Y-182570380D01*
X63404642Y-182570380D01*
X64357023Y-182570380D02*
X63785595Y-182570380D01*
X64071309Y-182570380D02*
X64071309Y-181570380D01*
X63976071Y-181713238D01*
X63880833Y-181808476D01*
X63785595Y-181856095D01*
X132175476Y-163472761D02*
X132318333Y-163520380D01*
X132556428Y-163520380D01*
X132651666Y-163472761D01*
X132699285Y-163425142D01*
X132746904Y-163329904D01*
X132746904Y-163234666D01*
X132699285Y-163139428D01*
X132651666Y-163091809D01*
X132556428Y-163044190D01*
X132365952Y-162996571D01*
X132270714Y-162948952D01*
X132223095Y-162901333D01*
X132175476Y-162806095D01*
X132175476Y-162710857D01*
X132223095Y-162615619D01*
X132270714Y-162568000D01*
X132365952Y-162520380D01*
X132604047Y-162520380D01*
X132746904Y-162568000D01*
X133080238Y-162520380D02*
X133318333Y-163520380D01*
X133508809Y-162806095D01*
X133699285Y-163520380D01*
X133937380Y-162520380D01*
X134270714Y-162615619D02*
X134318333Y-162568000D01*
X134413571Y-162520380D01*
X134651666Y-162520380D01*
X134746904Y-162568000D01*
X134794523Y-162615619D01*
X134842142Y-162710857D01*
X134842142Y-162806095D01*
X134794523Y-162948952D01*
X134223095Y-163520380D01*
X134842142Y-163520380D01*
X135461190Y-162520380D02*
X135556428Y-162520380D01*
X135651666Y-162568000D01*
X135699285Y-162615619D01*
X135746904Y-162710857D01*
X135794523Y-162901333D01*
X135794523Y-163139428D01*
X135746904Y-163329904D01*
X135699285Y-163425142D01*
X135651666Y-163472761D01*
X135556428Y-163520380D01*
X135461190Y-163520380D01*
X135365952Y-163472761D01*
X135318333Y-163425142D01*
X135270714Y-163329904D01*
X135223095Y-163139428D01*
X135223095Y-162901333D01*
X135270714Y-162710857D01*
X135318333Y-162615619D01*
X135365952Y-162568000D01*
X135461190Y-162520380D01*
X113125476Y-163472761D02*
X113268333Y-163520380D01*
X113506428Y-163520380D01*
X113601666Y-163472761D01*
X113649285Y-163425142D01*
X113696904Y-163329904D01*
X113696904Y-163234666D01*
X113649285Y-163139428D01*
X113601666Y-163091809D01*
X113506428Y-163044190D01*
X113315952Y-162996571D01*
X113220714Y-162948952D01*
X113173095Y-162901333D01*
X113125476Y-162806095D01*
X113125476Y-162710857D01*
X113173095Y-162615619D01*
X113220714Y-162568000D01*
X113315952Y-162520380D01*
X113554047Y-162520380D01*
X113696904Y-162568000D01*
X114030238Y-162520380D02*
X114268333Y-163520380D01*
X114458809Y-162806095D01*
X114649285Y-163520380D01*
X114887380Y-162520380D01*
X115792142Y-163520380D02*
X115220714Y-163520380D01*
X115506428Y-163520380D02*
X115506428Y-162520380D01*
X115411190Y-162663238D01*
X115315952Y-162758476D01*
X115220714Y-162806095D01*
X116268333Y-163520380D02*
X116458809Y-163520380D01*
X116554047Y-163472761D01*
X116601666Y-163425142D01*
X116696904Y-163282285D01*
X116744523Y-163091809D01*
X116744523Y-162710857D01*
X116696904Y-162615619D01*
X116649285Y-162568000D01*
X116554047Y-162520380D01*
X116363571Y-162520380D01*
X116268333Y-162568000D01*
X116220714Y-162615619D01*
X116173095Y-162710857D01*
X116173095Y-162948952D01*
X116220714Y-163044190D01*
X116268333Y-163091809D01*
X116363571Y-163139428D01*
X116554047Y-163139428D01*
X116649285Y-163091809D01*
X116696904Y-163044190D01*
X116744523Y-162948952D01*
X94075476Y-163472761D02*
X94218333Y-163520380D01*
X94456428Y-163520380D01*
X94551666Y-163472761D01*
X94599285Y-163425142D01*
X94646904Y-163329904D01*
X94646904Y-163234666D01*
X94599285Y-163139428D01*
X94551666Y-163091809D01*
X94456428Y-163044190D01*
X94265952Y-162996571D01*
X94170714Y-162948952D01*
X94123095Y-162901333D01*
X94075476Y-162806095D01*
X94075476Y-162710857D01*
X94123095Y-162615619D01*
X94170714Y-162568000D01*
X94265952Y-162520380D01*
X94504047Y-162520380D01*
X94646904Y-162568000D01*
X94980238Y-162520380D02*
X95218333Y-163520380D01*
X95408809Y-162806095D01*
X95599285Y-163520380D01*
X95837380Y-162520380D01*
X96742142Y-163520380D02*
X96170714Y-163520380D01*
X96456428Y-163520380D02*
X96456428Y-162520380D01*
X96361190Y-162663238D01*
X96265952Y-162758476D01*
X96170714Y-162806095D01*
X97313571Y-162948952D02*
X97218333Y-162901333D01*
X97170714Y-162853714D01*
X97123095Y-162758476D01*
X97123095Y-162710857D01*
X97170714Y-162615619D01*
X97218333Y-162568000D01*
X97313571Y-162520380D01*
X97504047Y-162520380D01*
X97599285Y-162568000D01*
X97646904Y-162615619D01*
X97694523Y-162710857D01*
X97694523Y-162758476D01*
X97646904Y-162853714D01*
X97599285Y-162901333D01*
X97504047Y-162948952D01*
X97313571Y-162948952D01*
X97218333Y-162996571D01*
X97170714Y-163044190D01*
X97123095Y-163139428D01*
X97123095Y-163329904D01*
X97170714Y-163425142D01*
X97218333Y-163472761D01*
X97313571Y-163520380D01*
X97504047Y-163520380D01*
X97599285Y-163472761D01*
X97646904Y-163425142D01*
X97694523Y-163329904D01*
X97694523Y-163139428D01*
X97646904Y-163044190D01*
X97599285Y-162996571D01*
X97504047Y-162948952D01*
X75025476Y-163472761D02*
X75168333Y-163520380D01*
X75406428Y-163520380D01*
X75501666Y-163472761D01*
X75549285Y-163425142D01*
X75596904Y-163329904D01*
X75596904Y-163234666D01*
X75549285Y-163139428D01*
X75501666Y-163091809D01*
X75406428Y-163044190D01*
X75215952Y-162996571D01*
X75120714Y-162948952D01*
X75073095Y-162901333D01*
X75025476Y-162806095D01*
X75025476Y-162710857D01*
X75073095Y-162615619D01*
X75120714Y-162568000D01*
X75215952Y-162520380D01*
X75454047Y-162520380D01*
X75596904Y-162568000D01*
X75930238Y-162520380D02*
X76168333Y-163520380D01*
X76358809Y-162806095D01*
X76549285Y-163520380D01*
X76787380Y-162520380D01*
X77692142Y-163520380D02*
X77120714Y-163520380D01*
X77406428Y-163520380D02*
X77406428Y-162520380D01*
X77311190Y-162663238D01*
X77215952Y-162758476D01*
X77120714Y-162806095D01*
X78025476Y-162520380D02*
X78692142Y-162520380D01*
X78263571Y-163520380D01*
X55975476Y-163472761D02*
X56118333Y-163520380D01*
X56356428Y-163520380D01*
X56451666Y-163472761D01*
X56499285Y-163425142D01*
X56546904Y-163329904D01*
X56546904Y-163234666D01*
X56499285Y-163139428D01*
X56451666Y-163091809D01*
X56356428Y-163044190D01*
X56165952Y-162996571D01*
X56070714Y-162948952D01*
X56023095Y-162901333D01*
X55975476Y-162806095D01*
X55975476Y-162710857D01*
X56023095Y-162615619D01*
X56070714Y-162568000D01*
X56165952Y-162520380D01*
X56404047Y-162520380D01*
X56546904Y-162568000D01*
X56880238Y-162520380D02*
X57118333Y-163520380D01*
X57308809Y-162806095D01*
X57499285Y-163520380D01*
X57737380Y-162520380D01*
X58642142Y-163520380D02*
X58070714Y-163520380D01*
X58356428Y-163520380D02*
X58356428Y-162520380D01*
X58261190Y-162663238D01*
X58165952Y-162758476D01*
X58070714Y-162806095D01*
X59499285Y-162520380D02*
X59308809Y-162520380D01*
X59213571Y-162568000D01*
X59165952Y-162615619D01*
X59070714Y-162758476D01*
X59023095Y-162948952D01*
X59023095Y-163329904D01*
X59070714Y-163425142D01*
X59118333Y-163472761D01*
X59213571Y-163520380D01*
X59404047Y-163520380D01*
X59499285Y-163472761D01*
X59546904Y-163425142D01*
X59594523Y-163329904D01*
X59594523Y-163091809D01*
X59546904Y-162996571D01*
X59499285Y-162948952D01*
X59404047Y-162901333D01*
X59213571Y-162901333D01*
X59118333Y-162948952D01*
X59070714Y-162996571D01*
X59023095Y-163091809D01*
X122650476Y-144422761D02*
X122793333Y-144470380D01*
X123031428Y-144470380D01*
X123126666Y-144422761D01*
X123174285Y-144375142D01*
X123221904Y-144279904D01*
X123221904Y-144184666D01*
X123174285Y-144089428D01*
X123126666Y-144041809D01*
X123031428Y-143994190D01*
X122840952Y-143946571D01*
X122745714Y-143898952D01*
X122698095Y-143851333D01*
X122650476Y-143756095D01*
X122650476Y-143660857D01*
X122698095Y-143565619D01*
X122745714Y-143518000D01*
X122840952Y-143470380D01*
X123079047Y-143470380D01*
X123221904Y-143518000D01*
X123555238Y-143470380D02*
X123793333Y-144470380D01*
X123983809Y-143756095D01*
X124174285Y-144470380D01*
X124412380Y-143470380D01*
X125317142Y-144470380D02*
X124745714Y-144470380D01*
X125031428Y-144470380D02*
X125031428Y-143470380D01*
X124936190Y-143613238D01*
X124840952Y-143708476D01*
X124745714Y-143756095D01*
X126221904Y-143470380D02*
X125745714Y-143470380D01*
X125698095Y-143946571D01*
X125745714Y-143898952D01*
X125840952Y-143851333D01*
X126079047Y-143851333D01*
X126174285Y-143898952D01*
X126221904Y-143946571D01*
X126269523Y-144041809D01*
X126269523Y-144279904D01*
X126221904Y-144375142D01*
X126174285Y-144422761D01*
X126079047Y-144470380D01*
X125840952Y-144470380D01*
X125745714Y-144422761D01*
X125698095Y-144375142D01*
X103600476Y-144422761D02*
X103743333Y-144470380D01*
X103981428Y-144470380D01*
X104076666Y-144422761D01*
X104124285Y-144375142D01*
X104171904Y-144279904D01*
X104171904Y-144184666D01*
X104124285Y-144089428D01*
X104076666Y-144041809D01*
X103981428Y-143994190D01*
X103790952Y-143946571D01*
X103695714Y-143898952D01*
X103648095Y-143851333D01*
X103600476Y-143756095D01*
X103600476Y-143660857D01*
X103648095Y-143565619D01*
X103695714Y-143518000D01*
X103790952Y-143470380D01*
X104029047Y-143470380D01*
X104171904Y-143518000D01*
X104505238Y-143470380D02*
X104743333Y-144470380D01*
X104933809Y-143756095D01*
X105124285Y-144470380D01*
X105362380Y-143470380D01*
X106267142Y-144470380D02*
X105695714Y-144470380D01*
X105981428Y-144470380D02*
X105981428Y-143470380D01*
X105886190Y-143613238D01*
X105790952Y-143708476D01*
X105695714Y-143756095D01*
X107124285Y-143803714D02*
X107124285Y-144470380D01*
X106886190Y-143422761D02*
X106648095Y-144137047D01*
X107267142Y-144137047D01*
X84550476Y-144422761D02*
X84693333Y-144470380D01*
X84931428Y-144470380D01*
X85026666Y-144422761D01*
X85074285Y-144375142D01*
X85121904Y-144279904D01*
X85121904Y-144184666D01*
X85074285Y-144089428D01*
X85026666Y-144041809D01*
X84931428Y-143994190D01*
X84740952Y-143946571D01*
X84645714Y-143898952D01*
X84598095Y-143851333D01*
X84550476Y-143756095D01*
X84550476Y-143660857D01*
X84598095Y-143565619D01*
X84645714Y-143518000D01*
X84740952Y-143470380D01*
X84979047Y-143470380D01*
X85121904Y-143518000D01*
X85455238Y-143470380D02*
X85693333Y-144470380D01*
X85883809Y-143756095D01*
X86074285Y-144470380D01*
X86312380Y-143470380D01*
X87217142Y-144470380D02*
X86645714Y-144470380D01*
X86931428Y-144470380D02*
X86931428Y-143470380D01*
X86836190Y-143613238D01*
X86740952Y-143708476D01*
X86645714Y-143756095D01*
X87550476Y-143470380D02*
X88169523Y-143470380D01*
X87836190Y-143851333D01*
X87979047Y-143851333D01*
X88074285Y-143898952D01*
X88121904Y-143946571D01*
X88169523Y-144041809D01*
X88169523Y-144279904D01*
X88121904Y-144375142D01*
X88074285Y-144422761D01*
X87979047Y-144470380D01*
X87693333Y-144470380D01*
X87598095Y-144422761D01*
X87550476Y-144375142D01*
X65500476Y-144422761D02*
X65643333Y-144470380D01*
X65881428Y-144470380D01*
X65976666Y-144422761D01*
X66024285Y-144375142D01*
X66071904Y-144279904D01*
X66071904Y-144184666D01*
X66024285Y-144089428D01*
X65976666Y-144041809D01*
X65881428Y-143994190D01*
X65690952Y-143946571D01*
X65595714Y-143898952D01*
X65548095Y-143851333D01*
X65500476Y-143756095D01*
X65500476Y-143660857D01*
X65548095Y-143565619D01*
X65595714Y-143518000D01*
X65690952Y-143470380D01*
X65929047Y-143470380D01*
X66071904Y-143518000D01*
X66405238Y-143470380D02*
X66643333Y-144470380D01*
X66833809Y-143756095D01*
X67024285Y-144470380D01*
X67262380Y-143470380D01*
X68167142Y-144470380D02*
X67595714Y-144470380D01*
X67881428Y-144470380D02*
X67881428Y-143470380D01*
X67786190Y-143613238D01*
X67690952Y-143708476D01*
X67595714Y-143756095D01*
X68548095Y-143565619D02*
X68595714Y-143518000D01*
X68690952Y-143470380D01*
X68929047Y-143470380D01*
X69024285Y-143518000D01*
X69071904Y-143565619D01*
X69119523Y-143660857D01*
X69119523Y-143756095D01*
X69071904Y-143898952D01*
X68500476Y-144470380D01*
X69119523Y-144470380D01*
X46450476Y-144422761D02*
X46593333Y-144470380D01*
X46831428Y-144470380D01*
X46926666Y-144422761D01*
X46974285Y-144375142D01*
X47021904Y-144279904D01*
X47021904Y-144184666D01*
X46974285Y-144089428D01*
X46926666Y-144041809D01*
X46831428Y-143994190D01*
X46640952Y-143946571D01*
X46545714Y-143898952D01*
X46498095Y-143851333D01*
X46450476Y-143756095D01*
X46450476Y-143660857D01*
X46498095Y-143565619D01*
X46545714Y-143518000D01*
X46640952Y-143470380D01*
X46879047Y-143470380D01*
X47021904Y-143518000D01*
X47355238Y-143470380D02*
X47593333Y-144470380D01*
X47783809Y-143756095D01*
X47974285Y-144470380D01*
X48212380Y-143470380D01*
X49117142Y-144470380D02*
X48545714Y-144470380D01*
X48831428Y-144470380D02*
X48831428Y-143470380D01*
X48736190Y-143613238D01*
X48640952Y-143708476D01*
X48545714Y-143756095D01*
X50069523Y-144470380D02*
X49498095Y-144470380D01*
X49783809Y-144470380D02*
X49783809Y-143470380D01*
X49688571Y-143613238D01*
X49593333Y-143708476D01*
X49498095Y-143756095D01*
X27400476Y-144422761D02*
X27543333Y-144470380D01*
X27781428Y-144470380D01*
X27876666Y-144422761D01*
X27924285Y-144375142D01*
X27971904Y-144279904D01*
X27971904Y-144184666D01*
X27924285Y-144089428D01*
X27876666Y-144041809D01*
X27781428Y-143994190D01*
X27590952Y-143946571D01*
X27495714Y-143898952D01*
X27448095Y-143851333D01*
X27400476Y-143756095D01*
X27400476Y-143660857D01*
X27448095Y-143565619D01*
X27495714Y-143518000D01*
X27590952Y-143470380D01*
X27829047Y-143470380D01*
X27971904Y-143518000D01*
X28305238Y-143470380D02*
X28543333Y-144470380D01*
X28733809Y-143756095D01*
X28924285Y-144470380D01*
X29162380Y-143470380D01*
X30067142Y-144470380D02*
X29495714Y-144470380D01*
X29781428Y-144470380D02*
X29781428Y-143470380D01*
X29686190Y-143613238D01*
X29590952Y-143708476D01*
X29495714Y-143756095D01*
X30686190Y-143470380D02*
X30781428Y-143470380D01*
X30876666Y-143518000D01*
X30924285Y-143565619D01*
X30971904Y-143660857D01*
X31019523Y-143851333D01*
X31019523Y-144089428D01*
X30971904Y-144279904D01*
X30924285Y-144375142D01*
X30876666Y-144422761D01*
X30781428Y-144470380D01*
X30686190Y-144470380D01*
X30590952Y-144422761D01*
X30543333Y-144375142D01*
X30495714Y-144279904D01*
X30448095Y-144089428D01*
X30448095Y-143851333D01*
X30495714Y-143660857D01*
X30543333Y-143565619D01*
X30590952Y-143518000D01*
X30686190Y-143470380D01*
X123126666Y-120610761D02*
X123269523Y-120658380D01*
X123507619Y-120658380D01*
X123602857Y-120610761D01*
X123650476Y-120563142D01*
X123698095Y-120467904D01*
X123698095Y-120372666D01*
X123650476Y-120277428D01*
X123602857Y-120229809D01*
X123507619Y-120182190D01*
X123317142Y-120134571D01*
X123221904Y-120086952D01*
X123174285Y-120039333D01*
X123126666Y-119944095D01*
X123126666Y-119848857D01*
X123174285Y-119753619D01*
X123221904Y-119706000D01*
X123317142Y-119658380D01*
X123555238Y-119658380D01*
X123698095Y-119706000D01*
X124031428Y-119658380D02*
X124269523Y-120658380D01*
X124460000Y-119944095D01*
X124650476Y-120658380D01*
X124888571Y-119658380D01*
X125174285Y-119658380D02*
X125840952Y-119658380D01*
X125412380Y-120658380D01*
X104076666Y-120610761D02*
X104219523Y-120658380D01*
X104457619Y-120658380D01*
X104552857Y-120610761D01*
X104600476Y-120563142D01*
X104648095Y-120467904D01*
X104648095Y-120372666D01*
X104600476Y-120277428D01*
X104552857Y-120229809D01*
X104457619Y-120182190D01*
X104267142Y-120134571D01*
X104171904Y-120086952D01*
X104124285Y-120039333D01*
X104076666Y-119944095D01*
X104076666Y-119848857D01*
X104124285Y-119753619D01*
X104171904Y-119706000D01*
X104267142Y-119658380D01*
X104505238Y-119658380D01*
X104648095Y-119706000D01*
X104981428Y-119658380D02*
X105219523Y-120658380D01*
X105410000Y-119944095D01*
X105600476Y-120658380D01*
X105838571Y-119658380D01*
X106648095Y-119658380D02*
X106457619Y-119658380D01*
X106362380Y-119706000D01*
X106314761Y-119753619D01*
X106219523Y-119896476D01*
X106171904Y-120086952D01*
X106171904Y-120467904D01*
X106219523Y-120563142D01*
X106267142Y-120610761D01*
X106362380Y-120658380D01*
X106552857Y-120658380D01*
X106648095Y-120610761D01*
X106695714Y-120563142D01*
X106743333Y-120467904D01*
X106743333Y-120229809D01*
X106695714Y-120134571D01*
X106648095Y-120086952D01*
X106552857Y-120039333D01*
X106362380Y-120039333D01*
X106267142Y-120086952D01*
X106219523Y-120134571D01*
X106171904Y-120229809D01*
X85026666Y-120610761D02*
X85169523Y-120658380D01*
X85407619Y-120658380D01*
X85502857Y-120610761D01*
X85550476Y-120563142D01*
X85598095Y-120467904D01*
X85598095Y-120372666D01*
X85550476Y-120277428D01*
X85502857Y-120229809D01*
X85407619Y-120182190D01*
X85217142Y-120134571D01*
X85121904Y-120086952D01*
X85074285Y-120039333D01*
X85026666Y-119944095D01*
X85026666Y-119848857D01*
X85074285Y-119753619D01*
X85121904Y-119706000D01*
X85217142Y-119658380D01*
X85455238Y-119658380D01*
X85598095Y-119706000D01*
X85931428Y-119658380D02*
X86169523Y-120658380D01*
X86360000Y-119944095D01*
X86550476Y-120658380D01*
X86788571Y-119658380D01*
X87645714Y-119658380D02*
X87169523Y-119658380D01*
X87121904Y-120134571D01*
X87169523Y-120086952D01*
X87264761Y-120039333D01*
X87502857Y-120039333D01*
X87598095Y-120086952D01*
X87645714Y-120134571D01*
X87693333Y-120229809D01*
X87693333Y-120467904D01*
X87645714Y-120563142D01*
X87598095Y-120610761D01*
X87502857Y-120658380D01*
X87264761Y-120658380D01*
X87169523Y-120610761D01*
X87121904Y-120563142D01*
X65976666Y-120610761D02*
X66119523Y-120658380D01*
X66357619Y-120658380D01*
X66452857Y-120610761D01*
X66500476Y-120563142D01*
X66548095Y-120467904D01*
X66548095Y-120372666D01*
X66500476Y-120277428D01*
X66452857Y-120229809D01*
X66357619Y-120182190D01*
X66167142Y-120134571D01*
X66071904Y-120086952D01*
X66024285Y-120039333D01*
X65976666Y-119944095D01*
X65976666Y-119848857D01*
X66024285Y-119753619D01*
X66071904Y-119706000D01*
X66167142Y-119658380D01*
X66405238Y-119658380D01*
X66548095Y-119706000D01*
X66881428Y-119658380D02*
X67119523Y-120658380D01*
X67310000Y-119944095D01*
X67500476Y-120658380D01*
X67738571Y-119658380D01*
X68548095Y-119991714D02*
X68548095Y-120658380D01*
X68310000Y-119610761D02*
X68071904Y-120325047D01*
X68690952Y-120325047D01*
X27876666Y-120610761D02*
X28019523Y-120658380D01*
X28257619Y-120658380D01*
X28352857Y-120610761D01*
X28400476Y-120563142D01*
X28448095Y-120467904D01*
X28448095Y-120372666D01*
X28400476Y-120277428D01*
X28352857Y-120229809D01*
X28257619Y-120182190D01*
X28067142Y-120134571D01*
X27971904Y-120086952D01*
X27924285Y-120039333D01*
X27876666Y-119944095D01*
X27876666Y-119848857D01*
X27924285Y-119753619D01*
X27971904Y-119706000D01*
X28067142Y-119658380D01*
X28305238Y-119658380D01*
X28448095Y-119706000D01*
X28781428Y-119658380D02*
X29019523Y-120658380D01*
X29210000Y-119944095D01*
X29400476Y-120658380D01*
X29638571Y-119658380D01*
X29924285Y-119658380D02*
X30543333Y-119658380D01*
X30210000Y-120039333D01*
X30352857Y-120039333D01*
X30448095Y-120086952D01*
X30495714Y-120134571D01*
X30543333Y-120229809D01*
X30543333Y-120467904D01*
X30495714Y-120563142D01*
X30448095Y-120610761D01*
X30352857Y-120658380D01*
X30067142Y-120658380D01*
X29971904Y-120610761D01*
X29924285Y-120563142D01*
X143514533Y-116897695D02*
X143243600Y-116510647D01*
X143050076Y-116897695D02*
X143050076Y-116084895D01*
X143359714Y-116084895D01*
X143437123Y-116123600D01*
X143475828Y-116162304D01*
X143514533Y-116239714D01*
X143514533Y-116355828D01*
X143475828Y-116433238D01*
X143437123Y-116471942D01*
X143359714Y-116510647D01*
X143050076Y-116510647D01*
X143824171Y-116162304D02*
X143862876Y-116123600D01*
X143940285Y-116084895D01*
X144133809Y-116084895D01*
X144211219Y-116123600D01*
X144249923Y-116162304D01*
X144288628Y-116239714D01*
X144288628Y-116317123D01*
X144249923Y-116433238D01*
X143785466Y-116897695D01*
X144288628Y-116897695D01*
X143514533Y-121797695D02*
X143243600Y-121410647D01*
X143050076Y-121797695D02*
X143050076Y-120984895D01*
X143359714Y-120984895D01*
X143437123Y-121023600D01*
X143475828Y-121062304D01*
X143514533Y-121139714D01*
X143514533Y-121255828D01*
X143475828Y-121333238D01*
X143437123Y-121371942D01*
X143359714Y-121410647D01*
X143050076Y-121410647D01*
X144288628Y-121797695D02*
X143824171Y-121797695D01*
X144056400Y-121797695D02*
X144056400Y-120984895D01*
X143978990Y-121101009D01*
X143901580Y-121178419D01*
X143824171Y-121217123D01*
X142988095Y-101902380D02*
X143559523Y-101902380D01*
X143273809Y-102902380D02*
X143273809Y-101902380D01*
X144464285Y-102902380D02*
X144130952Y-102426190D01*
X143892857Y-102902380D02*
X143892857Y-101902380D01*
X144273809Y-101902380D01*
X144369047Y-101950000D01*
X144416666Y-101997619D01*
X144464285Y-102092857D01*
X144464285Y-102235714D01*
X144416666Y-102330952D01*
X144369047Y-102378571D01*
X144273809Y-102426190D01*
X143892857Y-102426190D01*
X145464285Y-102902380D02*
X145130952Y-102426190D01*
X144892857Y-102902380D02*
X144892857Y-101902380D01*
X145273809Y-101902380D01*
X145369047Y-101950000D01*
X145416666Y-101997619D01*
X145464285Y-102092857D01*
X145464285Y-102235714D01*
X145416666Y-102330952D01*
X145369047Y-102378571D01*
X145273809Y-102426190D01*
X144892857Y-102426190D01*
X145845238Y-102854761D02*
X145988095Y-102902380D01*
X146226190Y-102902380D01*
X146321428Y-102854761D01*
X146369047Y-102807142D01*
X146416666Y-102711904D01*
X146416666Y-102616666D01*
X146369047Y-102521428D01*
X146321428Y-102473809D01*
X146226190Y-102426190D01*
X146035714Y-102378571D01*
X145940476Y-102330952D01*
X145892857Y-102283333D01*
X145845238Y-102188095D01*
X145845238Y-102092857D01*
X145892857Y-101997619D01*
X145940476Y-101950000D01*
X146035714Y-101902380D01*
X146273809Y-101902380D01*
X146416666Y-101950000D01*
X47011904Y-111130476D02*
X46211904Y-111130476D01*
X46211904Y-110940000D01*
X46250000Y-110825714D01*
X46326190Y-110749523D01*
X46402380Y-110711428D01*
X46554761Y-110673333D01*
X46669047Y-110673333D01*
X46821428Y-110711428D01*
X46897619Y-110749523D01*
X46973809Y-110825714D01*
X47011904Y-110940000D01*
X47011904Y-111130476D01*
X46211904Y-109949523D02*
X46211904Y-110330476D01*
X46592857Y-110368571D01*
X46554761Y-110330476D01*
X46516666Y-110254285D01*
X46516666Y-110063809D01*
X46554761Y-109987619D01*
X46592857Y-109949523D01*
X46669047Y-109911428D01*
X46859523Y-109911428D01*
X46935714Y-109949523D01*
X46973809Y-109987619D01*
X47011904Y-110063809D01*
X47011904Y-110254285D01*
X46973809Y-110330476D01*
X46935714Y-110368571D01*
X46592857Y-105726666D02*
X46592857Y-105993333D01*
X47011904Y-105993333D02*
X46211904Y-105993333D01*
X46211904Y-105612380D01*
X47011904Y-104888571D02*
X47011904Y-105345714D01*
X47011904Y-105117142D02*
X46211904Y-105117142D01*
X46326190Y-105193333D01*
X46402380Y-105269523D01*
X46440476Y-105345714D01*
X46935714Y-108133333D02*
X46973809Y-108171428D01*
X47011904Y-108285714D01*
X47011904Y-108361904D01*
X46973809Y-108476190D01*
X46897619Y-108552380D01*
X46821428Y-108590476D01*
X46669047Y-108628571D01*
X46554761Y-108628571D01*
X46402380Y-108590476D01*
X46326190Y-108552380D01*
X46250000Y-108476190D01*
X46211904Y-108361904D01*
X46211904Y-108285714D01*
X46250000Y-108171428D01*
X46288095Y-108133333D01*
X46211904Y-107866666D02*
X46211904Y-107333333D01*
X47011904Y-107676190D01*
X47114991Y-101835702D02*
X47067851Y-101741421D01*
X47067851Y-101694280D01*
X47091421Y-101623570D01*
X47162132Y-101552859D01*
X47232842Y-101529289D01*
X47279983Y-101529289D01*
X47350693Y-101552859D01*
X47539255Y-101741421D01*
X47044280Y-102236396D01*
X46879289Y-102071404D01*
X46855719Y-102000693D01*
X46855719Y-101953553D01*
X46879289Y-101882842D01*
X46926429Y-101835702D01*
X46997140Y-101812132D01*
X47044280Y-101812132D01*
X47114991Y-101835702D01*
X47279983Y-102000693D01*
X46337174Y-101529289D02*
X46431455Y-101623570D01*
X46502165Y-101647140D01*
X46549306Y-101647140D01*
X46667157Y-101623570D01*
X46785008Y-101552859D01*
X46973570Y-101364297D01*
X46997140Y-101293587D01*
X46997140Y-101246446D01*
X46973570Y-101175735D01*
X46879289Y-101081455D01*
X46808578Y-101057884D01*
X46761438Y-101057884D01*
X46690727Y-101081455D01*
X46572876Y-101199306D01*
X46549306Y-101270016D01*
X46549306Y-101317157D01*
X46572876Y-101387867D01*
X46667157Y-101482148D01*
X46737867Y-101505719D01*
X46785008Y-101505719D01*
X46855719Y-101482148D01*
X46800000Y-103733333D02*
X46800000Y-103966666D01*
X47166666Y-103966666D02*
X46466666Y-103966666D01*
X46466666Y-103633333D01*
X46466666Y-103233333D02*
X46466666Y-103166666D01*
X46500000Y-103100000D01*
X46533333Y-103066666D01*
X46600000Y-103033333D01*
X46733333Y-103000000D01*
X46900000Y-103000000D01*
X47033333Y-103033333D01*
X47100000Y-103066666D01*
X47133333Y-103100000D01*
X47166666Y-103166666D01*
X47166666Y-103233333D01*
X47133333Y-103300000D01*
X47100000Y-103333333D01*
X47033333Y-103366666D01*
X46900000Y-103400000D01*
X46733333Y-103400000D01*
X46600000Y-103366666D01*
X46533333Y-103333333D01*
X46500000Y-103300000D01*
X46466666Y-103233333D01*
X46800000Y-112783333D02*
X46833333Y-112683333D01*
X46866666Y-112650000D01*
X46933333Y-112616666D01*
X47033333Y-112616666D01*
X47100000Y-112650000D01*
X47133333Y-112683333D01*
X47166666Y-112750000D01*
X47166666Y-113016666D01*
X46466666Y-113016666D01*
X46466666Y-112783333D01*
X46500000Y-112716666D01*
X46533333Y-112683333D01*
X46600000Y-112650000D01*
X46666666Y-112650000D01*
X46733333Y-112683333D01*
X46766666Y-112716666D01*
X46800000Y-112783333D01*
X46800000Y-113016666D01*
X46466666Y-112383333D02*
X46466666Y-111916666D01*
X47166666Y-112216666D01*
X19841904Y-113762348D02*
X19841904Y-113305205D01*
X20641904Y-113533776D02*
X19841904Y-113533776D01*
X19841904Y-113114729D02*
X20641904Y-112581395D01*
X19841904Y-112581395D02*
X20641904Y-113114729D01*
X19841904Y-112124252D02*
X19841904Y-112048062D01*
X19880000Y-111971872D01*
X19918095Y-111933776D01*
X19994285Y-111895681D01*
X20146666Y-111857586D01*
X20337142Y-111857586D01*
X20489523Y-111895681D01*
X20565714Y-111933776D01*
X20603809Y-111971872D01*
X20641904Y-112048062D01*
X20641904Y-112124252D01*
X20603809Y-112200443D01*
X20565714Y-112238538D01*
X20489523Y-112276633D01*
X20337142Y-112314729D01*
X20146666Y-112314729D01*
X19994285Y-112276633D01*
X19918095Y-112238538D01*
X19880000Y-112200443D01*
X19841904Y-112124252D01*
X19803809Y-110943300D02*
X20832380Y-111629014D01*
X20641904Y-110676633D02*
X19841904Y-110676633D01*
X19841904Y-110486157D01*
X19880000Y-110371872D01*
X19956190Y-110295681D01*
X20032380Y-110257586D01*
X20184761Y-110219491D01*
X20299047Y-110219491D01*
X20451428Y-110257586D01*
X20527619Y-110295681D01*
X20603809Y-110371872D01*
X20641904Y-110486157D01*
X20641904Y-110676633D01*
X19841904Y-109952824D02*
X19841904Y-109457586D01*
X20146666Y-109724252D01*
X20146666Y-109609967D01*
X20184761Y-109533776D01*
X20222857Y-109495681D01*
X20299047Y-109457586D01*
X20489523Y-109457586D01*
X20565714Y-109495681D01*
X20603809Y-109533776D01*
X20641904Y-109609967D01*
X20641904Y-109838538D01*
X20603809Y-109914729D01*
X20565714Y-109952824D01*
X23181904Y-114051476D02*
X22381904Y-114051476D01*
X22381904Y-113861000D01*
X22420000Y-113746714D01*
X22496190Y-113670523D01*
X22572380Y-113632428D01*
X22724761Y-113594333D01*
X22839047Y-113594333D01*
X22991428Y-113632428D01*
X23067619Y-113670523D01*
X23143809Y-113746714D01*
X23181904Y-113861000D01*
X23181904Y-114051476D01*
X22458095Y-113289571D02*
X22420000Y-113251476D01*
X22381904Y-113175285D01*
X22381904Y-112984809D01*
X22420000Y-112908619D01*
X22458095Y-112870523D01*
X22534285Y-112832428D01*
X22610476Y-112832428D01*
X22724761Y-112870523D01*
X23181904Y-113327666D01*
X23181904Y-112832428D01*
X33341904Y-114051476D02*
X32541904Y-114051476D01*
X32541904Y-113861000D01*
X32580000Y-113746714D01*
X32656190Y-113670523D01*
X32732380Y-113632428D01*
X32884761Y-113594333D01*
X32999047Y-113594333D01*
X33151428Y-113632428D01*
X33227619Y-113670523D01*
X33303809Y-113746714D01*
X33341904Y-113861000D01*
X33341904Y-114051476D01*
X32541904Y-113099095D02*
X32541904Y-113022904D01*
X32580000Y-112946714D01*
X32618095Y-112908619D01*
X32694285Y-112870523D01*
X32846666Y-112832428D01*
X33037142Y-112832428D01*
X33189523Y-112870523D01*
X33265714Y-112908619D01*
X33303809Y-112946714D01*
X33341904Y-113022904D01*
X33341904Y-113099095D01*
X33303809Y-113175285D01*
X33265714Y-113213380D01*
X33189523Y-113251476D01*
X33037142Y-113289571D01*
X32846666Y-113289571D01*
X32694285Y-113251476D01*
X32618095Y-113213380D01*
X32580000Y-113175285D01*
X32541904Y-113099095D01*
X30801904Y-114051476D02*
X30001904Y-114051476D01*
X30001904Y-113861000D01*
X30040000Y-113746714D01*
X30116190Y-113670523D01*
X30192380Y-113632428D01*
X30344761Y-113594333D01*
X30459047Y-113594333D01*
X30611428Y-113632428D01*
X30687619Y-113670523D01*
X30763809Y-113746714D01*
X30801904Y-113861000D01*
X30801904Y-114051476D01*
X30801904Y-112832428D02*
X30801904Y-113289571D01*
X30801904Y-113061000D02*
X30001904Y-113061000D01*
X30116190Y-113137190D01*
X30192380Y-113213380D01*
X30230476Y-113289571D01*
X27500000Y-114070523D02*
X27461904Y-114146714D01*
X27461904Y-114261000D01*
X27500000Y-114375285D01*
X27576190Y-114451476D01*
X27652380Y-114489571D01*
X27804761Y-114527666D01*
X27919047Y-114527666D01*
X28071428Y-114489571D01*
X28147619Y-114451476D01*
X28223809Y-114375285D01*
X28261904Y-114261000D01*
X28261904Y-114184809D01*
X28223809Y-114070523D01*
X28185714Y-114032428D01*
X27919047Y-114032428D01*
X27919047Y-114184809D01*
X28261904Y-113689571D02*
X27461904Y-113689571D01*
X28261904Y-113232428D01*
X27461904Y-113232428D01*
X28261904Y-112851476D02*
X27461904Y-112851476D01*
X27461904Y-112661000D01*
X27500000Y-112546714D01*
X27576190Y-112470523D01*
X27652380Y-112432428D01*
X27804761Y-112394333D01*
X27919047Y-112394333D01*
X28071428Y-112432428D01*
X28147619Y-112470523D01*
X28223809Y-112546714D01*
X28261904Y-112661000D01*
X28261904Y-112851476D01*
X24960000Y-114070523D02*
X24921904Y-114146714D01*
X24921904Y-114261000D01*
X24960000Y-114375285D01*
X25036190Y-114451476D01*
X25112380Y-114489571D01*
X25264761Y-114527666D01*
X25379047Y-114527666D01*
X25531428Y-114489571D01*
X25607619Y-114451476D01*
X25683809Y-114375285D01*
X25721904Y-114261000D01*
X25721904Y-114184809D01*
X25683809Y-114070523D01*
X25645714Y-114032428D01*
X25379047Y-114032428D01*
X25379047Y-114184809D01*
X25721904Y-113689571D02*
X24921904Y-113689571D01*
X25721904Y-113232428D01*
X24921904Y-113232428D01*
X25721904Y-112851476D02*
X24921904Y-112851476D01*
X24921904Y-112661000D01*
X24960000Y-112546714D01*
X25036190Y-112470523D01*
X25112380Y-112432428D01*
X25264761Y-112394333D01*
X25379047Y-112394333D01*
X25531428Y-112432428D01*
X25607619Y-112470523D01*
X25683809Y-112546714D01*
X25721904Y-112661000D01*
X25721904Y-112851476D01*
X35881904Y-114051476D02*
X35081904Y-114051476D01*
X35081904Y-113861000D01*
X35120000Y-113746714D01*
X35196190Y-113670523D01*
X35272380Y-113632428D01*
X35424761Y-113594333D01*
X35539047Y-113594333D01*
X35691428Y-113632428D01*
X35767619Y-113670523D01*
X35843809Y-113746714D01*
X35881904Y-113861000D01*
X35881904Y-114051476D01*
X35348571Y-112908619D02*
X35881904Y-112908619D01*
X35043809Y-113099095D02*
X35615238Y-113289571D01*
X35615238Y-112794333D01*
X38345714Y-113594333D02*
X38383809Y-113632428D01*
X38421904Y-113746714D01*
X38421904Y-113822904D01*
X38383809Y-113937190D01*
X38307619Y-114013380D01*
X38231428Y-114051476D01*
X38079047Y-114089571D01*
X37964761Y-114089571D01*
X37812380Y-114051476D01*
X37736190Y-114013380D01*
X37660000Y-113937190D01*
X37621904Y-113822904D01*
X37621904Y-113746714D01*
X37660000Y-113632428D01*
X37698095Y-113594333D01*
X37621904Y-112908619D02*
X37621904Y-113061000D01*
X37660000Y-113137190D01*
X37698095Y-113175285D01*
X37812380Y-113251476D01*
X37964761Y-113289571D01*
X38269523Y-113289571D01*
X38345714Y-113251476D01*
X38383809Y-113213380D01*
X38421904Y-113137190D01*
X38421904Y-112984809D01*
X38383809Y-112908619D01*
X38345714Y-112870523D01*
X38269523Y-112832428D01*
X38079047Y-112832428D01*
X38002857Y-112870523D01*
X37964761Y-112908619D01*
X37926666Y-112984809D01*
X37926666Y-113137190D01*
X37964761Y-113213380D01*
X38002857Y-113251476D01*
X38079047Y-113289571D01*
X40961904Y-114051476D02*
X40161904Y-114051476D01*
X40161904Y-113861000D01*
X40200000Y-113746714D01*
X40276190Y-113670523D01*
X40352380Y-113632428D01*
X40504761Y-113594333D01*
X40619047Y-113594333D01*
X40771428Y-113632428D01*
X40847619Y-113670523D01*
X40923809Y-113746714D01*
X40961904Y-113861000D01*
X40961904Y-114051476D01*
X40161904Y-113327666D02*
X40161904Y-112794333D01*
X40961904Y-113137190D01*
X43082857Y-114013380D02*
X43082857Y-113746714D01*
X43501904Y-113632428D02*
X43501904Y-114013380D01*
X42701904Y-114013380D01*
X42701904Y-113632428D01*
X42701904Y-112946714D02*
X42701904Y-113099095D01*
X42740000Y-113175285D01*
X42778095Y-113213380D01*
X42892380Y-113289571D01*
X43044761Y-113327666D01*
X43349523Y-113327666D01*
X43425714Y-113289571D01*
X43463809Y-113251476D01*
X43501904Y-113175285D01*
X43501904Y-113022904D01*
X43463809Y-112946714D01*
X43425714Y-112908619D01*
X43349523Y-112870523D01*
X43159047Y-112870523D01*
X43082857Y-112908619D01*
X43044761Y-112946714D01*
X43006666Y-113022904D01*
X43006666Y-113175285D01*
X43044761Y-113251476D01*
X43082857Y-113289571D01*
X43159047Y-113327666D01*
X45622857Y-113784809D02*
X45660952Y-113670523D01*
X45699047Y-113632428D01*
X45775238Y-113594333D01*
X45889523Y-113594333D01*
X45965714Y-113632428D01*
X46003809Y-113670523D01*
X46041904Y-113746714D01*
X46041904Y-114051476D01*
X45241904Y-114051476D01*
X45241904Y-113784809D01*
X45280000Y-113708619D01*
X45318095Y-113670523D01*
X45394285Y-113632428D01*
X45470476Y-113632428D01*
X45546666Y-113670523D01*
X45584761Y-113708619D01*
X45622857Y-113784809D01*
X45622857Y-114051476D01*
X45508571Y-112908619D02*
X46041904Y-112908619D01*
X45203809Y-113099095D02*
X45775238Y-113289571D01*
X45775238Y-112794333D01*
X46714297Y-114564991D02*
X46808578Y-114517851D01*
X46855719Y-114517851D01*
X46926429Y-114541421D01*
X46997140Y-114612132D01*
X47020710Y-114682842D01*
X47020710Y-114729983D01*
X46997140Y-114800693D01*
X46808578Y-114989255D01*
X46313603Y-114494280D01*
X46478595Y-114329289D01*
X46549306Y-114305719D01*
X46596446Y-114305719D01*
X46667157Y-114329289D01*
X46714297Y-114376429D01*
X46737867Y-114447140D01*
X46737867Y-114494280D01*
X46714297Y-114564991D01*
X46549306Y-114729983D01*
X47044280Y-113763603D02*
X46808578Y-113999306D01*
X47020710Y-114258578D01*
X47020710Y-114211438D01*
X47044280Y-114140727D01*
X47162132Y-114022876D01*
X47232842Y-113999306D01*
X47279983Y-113999306D01*
X47350693Y-114022876D01*
X47468544Y-114140727D01*
X47492115Y-114211438D01*
X47492115Y-114258578D01*
X47468544Y-114329289D01*
X47350693Y-114447140D01*
X47279983Y-114470710D01*
X47232842Y-114470710D01*
X43082857Y-102862809D02*
X43120952Y-102748523D01*
X43159047Y-102710428D01*
X43235238Y-102672333D01*
X43349523Y-102672333D01*
X43425714Y-102710428D01*
X43463809Y-102748523D01*
X43501904Y-102824714D01*
X43501904Y-103129476D01*
X42701904Y-103129476D01*
X42701904Y-102862809D01*
X42740000Y-102786619D01*
X42778095Y-102748523D01*
X42854285Y-102710428D01*
X42930476Y-102710428D01*
X43006666Y-102748523D01*
X43044761Y-102786619D01*
X43082857Y-102862809D01*
X43082857Y-103129476D01*
X42701904Y-102405666D02*
X42701904Y-101910428D01*
X43006666Y-102177095D01*
X43006666Y-102062809D01*
X43044761Y-101986619D01*
X43082857Y-101948523D01*
X43159047Y-101910428D01*
X43349523Y-101910428D01*
X43425714Y-101948523D01*
X43463809Y-101986619D01*
X43501904Y-102062809D01*
X43501904Y-102291380D01*
X43463809Y-102367571D01*
X43425714Y-102405666D01*
X40542857Y-102862809D02*
X40580952Y-102748523D01*
X40619047Y-102710428D01*
X40695238Y-102672333D01*
X40809523Y-102672333D01*
X40885714Y-102710428D01*
X40923809Y-102748523D01*
X40961904Y-102824714D01*
X40961904Y-103129476D01*
X40161904Y-103129476D01*
X40161904Y-102862809D01*
X40200000Y-102786619D01*
X40238095Y-102748523D01*
X40314285Y-102710428D01*
X40390476Y-102710428D01*
X40466666Y-102748523D01*
X40504761Y-102786619D01*
X40542857Y-102862809D01*
X40542857Y-103129476D01*
X40961904Y-101910428D02*
X40961904Y-102367571D01*
X40961904Y-102139000D02*
X40161904Y-102139000D01*
X40276190Y-102215190D01*
X40352380Y-102291380D01*
X40390476Y-102367571D01*
X30382857Y-102805666D02*
X30382857Y-103072333D01*
X30801904Y-103072333D02*
X30001904Y-103072333D01*
X30001904Y-102691380D01*
X30268571Y-102043761D02*
X30801904Y-102043761D01*
X29963809Y-102234238D02*
X30535238Y-102424714D01*
X30535238Y-101929476D01*
X27461904Y-103605666D02*
X28261904Y-103339000D01*
X27461904Y-103072333D01*
X28185714Y-102348523D02*
X28223809Y-102386619D01*
X28261904Y-102500904D01*
X28261904Y-102577095D01*
X28223809Y-102691380D01*
X28147619Y-102767571D01*
X28071428Y-102805666D01*
X27919047Y-102843761D01*
X27804761Y-102843761D01*
X27652380Y-102805666D01*
X27576190Y-102767571D01*
X27500000Y-102691380D01*
X27461904Y-102577095D01*
X27461904Y-102500904D01*
X27500000Y-102386619D01*
X27538095Y-102348523D01*
X28185714Y-101548523D02*
X28223809Y-101586619D01*
X28261904Y-101700904D01*
X28261904Y-101777095D01*
X28223809Y-101891380D01*
X28147619Y-101967571D01*
X28071428Y-102005666D01*
X27919047Y-102043761D01*
X27804761Y-102043761D01*
X27652380Y-102005666D01*
X27576190Y-101967571D01*
X27500000Y-101891380D01*
X27461904Y-101777095D01*
X27461904Y-101700904D01*
X27500000Y-101586619D01*
X27538095Y-101548523D01*
X25653809Y-102800213D02*
X25691904Y-102685927D01*
X25691904Y-102495451D01*
X25653809Y-102419260D01*
X25615714Y-102381165D01*
X25539523Y-102343070D01*
X25463333Y-102343070D01*
X25387142Y-102381165D01*
X25349047Y-102419260D01*
X25310952Y-102495451D01*
X25272857Y-102647832D01*
X25234761Y-102724022D01*
X25196666Y-102762118D01*
X25120476Y-102800213D01*
X25044285Y-102800213D01*
X24968095Y-102762118D01*
X24930000Y-102724022D01*
X24891904Y-102647832D01*
X24891904Y-102457356D01*
X24930000Y-102343070D01*
X24891904Y-102114499D02*
X24891904Y-101657356D01*
X25691904Y-101885927D02*
X24891904Y-101885927D01*
X22420000Y-103148523D02*
X22381904Y-103224714D01*
X22381904Y-103339000D01*
X22420000Y-103453285D01*
X22496190Y-103529476D01*
X22572380Y-103567571D01*
X22724761Y-103605666D01*
X22839047Y-103605666D01*
X22991428Y-103567571D01*
X23067619Y-103529476D01*
X23143809Y-103453285D01*
X23181904Y-103339000D01*
X23181904Y-103262809D01*
X23143809Y-103148523D01*
X23105714Y-103110428D01*
X22839047Y-103110428D01*
X22839047Y-103262809D01*
X23181904Y-102767571D02*
X22381904Y-102767571D01*
X23181904Y-102310428D01*
X22381904Y-102310428D01*
X23181904Y-101929476D02*
X22381904Y-101929476D01*
X22381904Y-101739000D01*
X22420000Y-101624714D01*
X22496190Y-101548523D01*
X22572380Y-101510428D01*
X22724761Y-101472333D01*
X22839047Y-101472333D01*
X22991428Y-101510428D01*
X23067619Y-101548523D01*
X23143809Y-101624714D01*
X23181904Y-101739000D01*
X23181904Y-101929476D01*
X20222857Y-102862809D02*
X20260952Y-102748523D01*
X20299047Y-102710428D01*
X20375238Y-102672333D01*
X20489523Y-102672333D01*
X20565714Y-102710428D01*
X20603809Y-102748523D01*
X20641904Y-102824714D01*
X20641904Y-103129476D01*
X19841904Y-103129476D01*
X19841904Y-102862809D01*
X19880000Y-102786619D01*
X19918095Y-102748523D01*
X19994285Y-102710428D01*
X20070476Y-102710428D01*
X20146666Y-102748523D01*
X20184761Y-102786619D01*
X20222857Y-102862809D01*
X20222857Y-103129476D01*
X19841904Y-102177095D02*
X19841904Y-102100904D01*
X19880000Y-102024714D01*
X19918095Y-101986619D01*
X19994285Y-101948523D01*
X20146666Y-101910428D01*
X20337142Y-101910428D01*
X20489523Y-101948523D01*
X20565714Y-101986619D01*
X20603809Y-102024714D01*
X20641904Y-102100904D01*
X20641904Y-102177095D01*
X20603809Y-102253285D01*
X20565714Y-102291380D01*
X20489523Y-102329476D01*
X20337142Y-102367571D01*
X20146666Y-102367571D01*
X19994285Y-102329476D01*
X19918095Y-102291380D01*
X19880000Y-102253285D01*
X19841904Y-102177095D01*
X32922857Y-102805666D02*
X32922857Y-103072333D01*
X33341904Y-103072333D02*
X32541904Y-103072333D01*
X32541904Y-102691380D01*
X32541904Y-102005666D02*
X32541904Y-102386619D01*
X32922857Y-102424714D01*
X32884761Y-102386619D01*
X32846666Y-102310428D01*
X32846666Y-102119952D01*
X32884761Y-102043761D01*
X32922857Y-102005666D01*
X32999047Y-101967571D01*
X33189523Y-101967571D01*
X33265714Y-102005666D01*
X33303809Y-102043761D01*
X33341904Y-102119952D01*
X33341904Y-102310428D01*
X33303809Y-102386619D01*
X33265714Y-102424714D01*
X35462857Y-102805666D02*
X35462857Y-103072333D01*
X35881904Y-103072333D02*
X35081904Y-103072333D01*
X35081904Y-102691380D01*
X35081904Y-102043761D02*
X35081904Y-102196142D01*
X35120000Y-102272333D01*
X35158095Y-102310428D01*
X35272380Y-102386619D01*
X35424761Y-102424714D01*
X35729523Y-102424714D01*
X35805714Y-102386619D01*
X35843809Y-102348523D01*
X35881904Y-102272333D01*
X35881904Y-102119952D01*
X35843809Y-102043761D01*
X35805714Y-102005666D01*
X35729523Y-101967571D01*
X35539047Y-101967571D01*
X35462857Y-102005666D01*
X35424761Y-102043761D01*
X35386666Y-102119952D01*
X35386666Y-102272333D01*
X35424761Y-102348523D01*
X35462857Y-102386619D01*
X35539047Y-102424714D01*
X38002857Y-102805666D02*
X38002857Y-103072333D01*
X38421904Y-103072333D02*
X37621904Y-103072333D01*
X37621904Y-102691380D01*
X37621904Y-102462809D02*
X37621904Y-101929476D01*
X38421904Y-102272333D01*
X45622857Y-102862809D02*
X45660952Y-102748523D01*
X45699047Y-102710428D01*
X45775238Y-102672333D01*
X45889523Y-102672333D01*
X45965714Y-102710428D01*
X46003809Y-102748523D01*
X46041904Y-102824714D01*
X46041904Y-103129476D01*
X45241904Y-103129476D01*
X45241904Y-102862809D01*
X45280000Y-102786619D01*
X45318095Y-102748523D01*
X45394285Y-102710428D01*
X45470476Y-102710428D01*
X45546666Y-102748523D01*
X45584761Y-102786619D01*
X45622857Y-102862809D01*
X45622857Y-103129476D01*
X45318095Y-102367571D02*
X45280000Y-102329476D01*
X45241904Y-102253285D01*
X45241904Y-102062809D01*
X45280000Y-101986619D01*
X45318095Y-101948523D01*
X45394285Y-101910428D01*
X45470476Y-101910428D01*
X45584761Y-101948523D01*
X46041904Y-102405666D01*
X46041904Y-101910428D01*
X25802380Y-109552380D02*
X25326190Y-109885714D01*
X25802380Y-110123809D02*
X24802380Y-110123809D01*
X24802380Y-109742857D01*
X24850000Y-109647619D01*
X24897619Y-109600000D01*
X24992857Y-109552380D01*
X25135714Y-109552380D01*
X25230952Y-109600000D01*
X25278571Y-109647619D01*
X25326190Y-109742857D01*
X25326190Y-110123809D01*
X25278571Y-109123809D02*
X25278571Y-108790476D01*
X25802380Y-108647619D02*
X25802380Y-109123809D01*
X24802380Y-109123809D01*
X24802380Y-108647619D01*
X25754761Y-108266666D02*
X25802380Y-108123809D01*
X25802380Y-107885714D01*
X25754761Y-107790476D01*
X25707142Y-107742857D01*
X25611904Y-107695238D01*
X25516666Y-107695238D01*
X25421428Y-107742857D01*
X25373809Y-107790476D01*
X25326190Y-107885714D01*
X25278571Y-108076190D01*
X25230952Y-108171428D01*
X25183333Y-108219047D01*
X25088095Y-108266666D01*
X24992857Y-108266666D01*
X24897619Y-108219047D01*
X24850000Y-108171428D01*
X24802380Y-108076190D01*
X24802380Y-107838095D01*
X24850000Y-107695238D01*
X25278571Y-107266666D02*
X25278571Y-106933333D01*
X25802380Y-106790476D02*
X25802380Y-107266666D01*
X24802380Y-107266666D01*
X24802380Y-106790476D01*
X24802380Y-106504761D02*
X24802380Y-105933333D01*
X25802380Y-106219047D02*
X24802380Y-106219047D01*
M02*
