M48
; DRILL file {KiCad (5.1.8)-1} date 12/06/20 03:25:54
; FORMAT={3:3/ absolute / metric / suppress trailing zeros}
; #@! TF.CreationDate,2020-12-06T03:25:54+09:00
; #@! TF.GenerationSoftware,Kicad,Pcbnew,(5.1.8)-1
; #@! TF.FileFunction,Plated,1,2,PTH
FMAT,2
METRIC,LZ
T1C0.813
T2C1.000
T3C1.092
T4C1.300
T5C1.500
%
G90
G05
T1
X03325Y-232
X03925Y-232
X031Y-17475
X037Y-17475
X13575Y-194
X14175Y-194
X1025Y-132
X1085Y-132
X02625Y-1565
X03225Y-1565
X05475Y-17475
X06075Y-17475
X12125Y-132
X12725Y-132
X12125Y-15575
X12725Y-15575
X045Y-15575
X051Y-15575
X03825Y-213
X04425Y-213
X081Y-23225
X087Y-23225
X06425Y-15575
X07025Y-15575
X026Y-132
X032Y-132
X1505Y-10046
X1505Y-10554
X11675Y-194
X12275Y-194
X11175Y-17475
X11775Y-17475
X0785Y-194
X0845Y-194
X0595Y-194
X0655Y-194
X069Y-213
X075Y-213
X064Y-132
X07Y-132
X09275Y-175
X09875Y-175
X12625Y-213
X13225Y-213
X07375Y-175
X07975Y-175
X1025Y-156
X1085Y-156
X13046Y-103
X13554Y-103
X08325Y-132
X08925Y-132
X0975Y-194
X1035Y-194
X03325Y-194
X03925Y-194
X131Y-17475
X137Y-17475
X10475Y-232
X11075Y-232
X0595Y-232
X0655Y-232
X13325Y-232
X13925Y-232
X08325Y-15575
X08925Y-15575
X088Y-213
X094Y-213
X10725Y-213
X11325Y-213
T3
X02028Y-10038
X02028Y-11562
X02282Y-10038
X02282Y-11562
X02536Y-10038
X02536Y-11562
X0279Y-10038
X0279Y-11562
X03044Y-10038
X03044Y-11562
X03298Y-10038
X03298Y-11562
X03552Y-10038
X03552Y-11562
X03806Y-10038
X03806Y-11562
X0406Y-10038
X0406Y-11562
X04314Y-10038
X04314Y-11562
X04568Y-10038
X04568Y-11562
X04822Y-10038
X04822Y-10292
X04822Y-10546
X04822Y-108
X04822Y-11054
X04822Y-11308
X04822Y-115391
T4
X02535Y-10485
X02535Y-11135
T5
X0635Y-149352
X06985Y-146812
X037381Y-206502
X043731Y-203962
X073025Y-168402
X079375Y-165862
X04445Y-149352
X0508Y-146812
X111125Y-168402
X117475Y-165862
X053975Y-168402
X060325Y-165862
X125412Y-206502
X131762Y-203962
X032544Y-225552
X038894Y-223012
X058738Y-225552
X065087Y-223012
X0635Y-12554
X06985Y-123
X08255Y-12554
X0889Y-123
X077788Y-187452
X084138Y-184912
X106362Y-206502
X112712Y-203962
X134938Y-187452
X141288Y-184912
X068263Y-206502
X074613Y-203962
X092075Y-168402
X098425Y-165862
X087313Y-206502
X093663Y-203962
X12065Y-149352
X127Y-146812
X12065Y-12554
X127Y-123
X0254Y-149352
X03175Y-146812
X1016Y-149352
X10795Y-146812
X1016Y-12554
X10795Y-123
X030163Y-168402
X036513Y-165862
X08255Y-149352
X0889Y-146812
X058738Y-187452
X065087Y-184912
X0254Y-12554
X03175Y-123
X032544Y-187452
X038894Y-184912
X130175Y-168402
X136525Y-165862
X132556Y-225552
X138906Y-223012
X080169Y-225552
X086519Y-223012
X103981Y-225552
X110331Y-223012
X096838Y-187452
X103188Y-184912
X115888Y-187452
X122238Y-184912
T2
G00X14165Y-09905
M15
G01X14165Y-09955
M16
G05
G00X14165Y-10205
M15
G01X14165Y-10255
M16
G05
G00X14165Y-10605
M15
G01X14165Y-10655
M16
G05
G00X1434Y-10755
M15
G01X1434Y-10805
M16
G05
G00X14585Y-10755
M15
G01X14585Y-10805
M16
G05
G00X1476Y-09905
M15
G01X1476Y-09955
M16
G05
G00X1476Y-10205
M15
G01X1476Y-10255
M16
G05
G00X1476Y-10605
M15
G01X1476Y-10655
M16
G05
T0
M30
