G04 #@! TF.GenerationSoftware,KiCad,Pcbnew,(5.1.8)-1*
G04 #@! TF.CreationDate,2020-12-06T03:25:52+09:00*
G04 #@! TF.ProjectId,keyboard-layouter-playground,6b657962-6f61-4726-942d-6c61796f7574,rev?*
G04 #@! TF.SameCoordinates,Original*
G04 #@! TF.FileFunction,Soldermask,Bot*
G04 #@! TF.FilePolarity,Negative*
%FSLAX46Y46*%
G04 Gerber Fmt 4.6, Leading zero omitted, Abs format (unit mm)*
G04 Created by KiCad (PCBNEW (5.1.8)-1) date 2020-12-06 03:25:52*
%MOMM*%
%LPD*%
G01*
G04 APERTURE LIST*
%ADD10C,1.397000*%
%ADD11C,4.000000*%
%ADD12C,2.200000*%
%ADD13O,1.778000X1.300000*%
%ADD14R,1.778000X1.300000*%
%ADD15O,1.700000X2.500000*%
%ADD16C,1.752600*%
%ADD17R,1.752600X1.752600*%
%ADD18C,2.000000*%
G04 APERTURE END LIST*
D10*
X150500000Y-100460000D03*
X150500000Y-105540000D03*
X130460000Y-103000000D03*
X135540000Y-103000000D03*
D11*
X119698000Y-189992000D03*
D12*
X115888000Y-187452000D03*
X122238000Y-184912000D03*
D13*
X44250000Y-213000000D03*
D14*
X38250000Y-213000000D03*
D13*
X139250000Y-232000000D03*
D14*
X133250000Y-232000000D03*
D13*
X39250000Y-232000000D03*
D14*
X33250000Y-232000000D03*
D13*
X39250000Y-194000000D03*
D14*
X33250000Y-194000000D03*
D13*
X37000000Y-174750000D03*
D14*
X31000000Y-174750000D03*
D13*
X110750000Y-232000000D03*
D14*
X104750000Y-232000000D03*
D13*
X87000000Y-232250000D03*
D14*
X81000000Y-232250000D03*
D13*
X65500000Y-232000000D03*
D14*
X59500000Y-232000000D03*
D13*
X132250000Y-213000000D03*
D14*
X126250000Y-213000000D03*
D13*
X113250000Y-213000000D03*
D14*
X107250000Y-213000000D03*
D13*
X94000000Y-213000000D03*
D14*
X88000000Y-213000000D03*
D13*
X75000000Y-213000000D03*
D14*
X69000000Y-213000000D03*
D13*
X141750000Y-194000000D03*
D14*
X135750000Y-194000000D03*
D13*
X122750000Y-194000000D03*
D14*
X116750000Y-194000000D03*
D13*
X103500000Y-194000000D03*
D14*
X97500000Y-194000000D03*
D13*
X84500000Y-194000000D03*
D14*
X78500000Y-194000000D03*
D13*
X65500000Y-194000000D03*
D14*
X59500000Y-194000000D03*
D13*
X137000000Y-174750000D03*
D14*
X131000000Y-174750000D03*
D13*
X117750000Y-174750000D03*
D14*
X111750000Y-174750000D03*
D13*
X98750000Y-175000000D03*
D14*
X92750000Y-175000000D03*
D13*
X79750000Y-175000000D03*
D14*
X73750000Y-175000000D03*
D13*
X60750000Y-174750000D03*
D14*
X54750000Y-174750000D03*
D13*
X127250000Y-155750000D03*
D14*
X121250000Y-155750000D03*
D13*
X108500000Y-156000000D03*
D14*
X102500000Y-156000000D03*
D13*
X89250000Y-155750000D03*
D14*
X83250000Y-155750000D03*
D13*
X70250000Y-155750000D03*
D14*
X64250000Y-155750000D03*
D13*
X51000000Y-155750000D03*
D14*
X45000000Y-155750000D03*
D13*
X32250000Y-156500000D03*
D14*
X26250000Y-156500000D03*
D13*
X127250000Y-132000000D03*
D14*
X121250000Y-132000000D03*
D13*
X108500000Y-132000000D03*
D14*
X102500000Y-132000000D03*
D13*
X89250000Y-132000000D03*
D14*
X83250000Y-132000000D03*
D13*
X70000000Y-132000000D03*
D14*
X64000000Y-132000000D03*
D13*
X32000000Y-132000000D03*
D14*
X26000000Y-132000000D03*
D15*
X141650000Y-106300000D03*
X145850000Y-107800000D03*
X141650000Y-99300000D03*
X141650000Y-102300000D03*
X147600000Y-99300000D03*
X147600000Y-102300000D03*
X147600000Y-106300000D03*
X143400000Y-107800000D03*
D11*
X36354000Y-228092000D03*
D12*
X32544000Y-225552000D03*
X38894000Y-223012000D03*
D16*
X48220000Y-113080000D03*
X48220000Y-110540000D03*
X48220000Y-108000000D03*
X48220000Y-105460000D03*
X48220000Y-102920000D03*
X20280000Y-100380000D03*
X48220000Y-115391400D03*
X22820000Y-100380000D03*
X25360000Y-100380000D03*
X27900000Y-100380000D03*
X30440000Y-100380000D03*
X32980000Y-100380000D03*
X35520000Y-100380000D03*
X38060000Y-100380000D03*
X40600000Y-100380000D03*
X43140000Y-100380000D03*
X45680000Y-100380000D03*
X48220000Y-100380000D03*
X45680000Y-115620000D03*
X43140000Y-115620000D03*
X40600000Y-115620000D03*
X38060000Y-115620000D03*
X35520000Y-115620000D03*
X32980000Y-115620000D03*
X30440000Y-115620000D03*
X27900000Y-115620000D03*
X25360000Y-115620000D03*
X22820000Y-115620000D03*
D17*
X20280000Y-115620000D03*
D18*
X25350000Y-104850000D03*
X25350000Y-111350000D03*
D11*
X41190600Y-209042000D03*
D12*
X37380600Y-206502000D03*
X43730600Y-203962000D03*
D11*
X136366000Y-228092000D03*
D12*
X132556000Y-225552000D03*
X138906000Y-223012000D03*
D11*
X33973000Y-170942000D03*
D12*
X30163000Y-168402000D03*
X36513000Y-165862000D03*
D11*
X36354000Y-189992000D03*
D12*
X32544000Y-187452000D03*
X38894000Y-184912000D03*
D11*
X107791000Y-228092000D03*
D12*
X103981000Y-225552000D03*
X110331000Y-223012000D03*
D11*
X83978500Y-228092000D03*
D12*
X80168500Y-225552000D03*
X86518500Y-223012000D03*
D11*
X62547500Y-228092000D03*
D12*
X58737500Y-225552000D03*
X65087500Y-223012000D03*
D11*
X138748000Y-189992000D03*
D12*
X134938000Y-187452000D03*
X141288000Y-184912000D03*
D11*
X129222000Y-209042000D03*
D12*
X125412000Y-206502000D03*
X131762000Y-203962000D03*
D11*
X110172000Y-209042000D03*
D12*
X106362000Y-206502000D03*
X112712000Y-203962000D03*
D11*
X86360000Y-151892000D03*
D12*
X82550000Y-149352000D03*
X88900000Y-146812000D03*
D11*
X95885000Y-170942000D03*
D12*
X92075000Y-168402000D03*
X98425000Y-165862000D03*
D11*
X67310000Y-128080000D03*
D12*
X63500000Y-125540000D03*
X69850000Y-123000000D03*
D11*
X72072500Y-209042000D03*
D12*
X68262500Y-206502000D03*
X74612500Y-203962000D03*
D11*
X57785000Y-170942000D03*
D12*
X53975000Y-168402000D03*
X60325000Y-165862000D03*
D11*
X100648000Y-189992000D03*
D12*
X96838000Y-187452000D03*
X103188000Y-184912000D03*
D11*
X124460000Y-151892000D03*
D12*
X120650000Y-149352000D03*
X127000000Y-146812000D03*
D11*
X133985000Y-170942000D03*
D12*
X130175000Y-168402000D03*
X136525000Y-165862000D03*
D11*
X114935000Y-170942000D03*
D12*
X111125000Y-168402000D03*
X117475000Y-165862000D03*
D11*
X76835000Y-170942000D03*
D12*
X73025000Y-168402000D03*
X79375000Y-165862000D03*
D11*
X67310000Y-151892000D03*
D12*
X63500000Y-149352000D03*
X69850000Y-146812000D03*
D11*
X105410000Y-128080000D03*
D12*
X101600000Y-125540000D03*
X107950000Y-123000000D03*
D11*
X86360000Y-128080000D03*
D12*
X82550000Y-125540000D03*
X88900000Y-123000000D03*
D11*
X29210000Y-128080000D03*
D12*
X25400000Y-125540000D03*
X31750000Y-123000000D03*
D11*
X29210000Y-151892000D03*
D12*
X25400000Y-149352000D03*
X31750000Y-146812000D03*
D11*
X81597500Y-189992000D03*
D12*
X77787500Y-187452000D03*
X84137500Y-184912000D03*
D11*
X62547500Y-189992000D03*
D12*
X58737500Y-187452000D03*
X65087500Y-184912000D03*
D11*
X105410000Y-151892000D03*
D12*
X101600000Y-149352000D03*
X107950000Y-146812000D03*
D11*
X124460000Y-128080000D03*
D12*
X120650000Y-125540000D03*
X127000000Y-123000000D03*
D11*
X48260000Y-151892000D03*
D12*
X44450000Y-149352000D03*
X50800000Y-146812000D03*
D11*
X91122500Y-209042000D03*
D12*
X87312500Y-206502000D03*
X93662500Y-203962000D03*
M02*
