M48
; DRILL file {KiCad (5.1.8)-1} date 12/13/20 11:08:32
; FORMAT={3:3/ absolute / metric / suppress trailing zeros}
; #@! TF.CreationDate,2020-12-13T11:08:32+09:00
; #@! TF.GenerationSoftware,Kicad,Pcbnew,(5.1.8)-1
FMAT,2
METRIC,LZ
T1C0.813
T2C1.000
T3C1.092
T4C1.300
T5C1.500
T6C4.000
%
G90
G05
T1
X071024Y-179212
X078644Y-179212
X023374Y-160212
X030994Y-160212
X134974Y-198212
X142594Y-198212
X115924Y-198212
X123544Y-198212
X14116Y-11645
X14624Y-11645
X099574Y-136212
X107194Y-136212
X101524Y-160212
X109144Y-160212
X082524Y-160212
X090144Y-160212
X090074Y-179212
X097694Y-179212
X068274Y-217212
X075894Y-217212
X030524Y-236212
X038144Y-236212
X14116Y-12135
X14624Y-12135
X120674Y-160212
X128294Y-160212
X056724Y-198212
X064344Y-198212
X087324Y-217212
X094944Y-217212
X101924Y-236212
X109544Y-236212
X118599Y-136212
X126219Y-136212
X023374Y-136462
X030994Y-136462
X096874Y-198212
X104494Y-198212
X056724Y-236212
X064344Y-236212
X109074Y-179212
X116694Y-179212
X035324Y-217212
X042944Y-217212
X042374Y-160212
X049994Y-160212
X125424Y-217212
X133044Y-217212
X078124Y-236212
X085744Y-236212
X028024Y-179212
X035644Y-179212
X061474Y-136312
X069094Y-136312
X063474Y-160212
X071094Y-160212
X077774Y-198212
X085394Y-198212
X030524Y-198212
X038144Y-198212
X130524Y-236212
X138144Y-236212
X080524Y-136212
X088144Y-136212
X051924Y-179212
X059544Y-179212
X106324Y-217212
X113944Y-217212
X128174Y-179212
X135794Y-179212
T3
X02028Y-10038
X02028Y-11562
X02282Y-10038
X02282Y-11562
X02536Y-10038
X02536Y-11562
X0279Y-10038
X0279Y-11562
X03044Y-10038
X03044Y-11562
X03298Y-10038
X03298Y-11562
X03552Y-10038
X03552Y-11562
X03806Y-10038
X03806Y-11562
X0406Y-10038
X0406Y-11562
X04314Y-10038
X04314Y-11562
X04568Y-10038
X04568Y-11562
X04822Y-10038
X04822Y-10292
X04822Y-10546
X04822Y-108
X04822Y-11054
X04822Y-11308
X04822Y-115391
T4
X02535Y-10485
X02535Y-11135
T5
X077788Y-187452
X084138Y-184912
X106362Y-206502
X112712Y-203962
X032544Y-225552
X038894Y-223012
X130175Y-168402
X136525Y-165862
X12065Y-149352
X127Y-146812
X0635Y-12554
X06985Y-123
X058738Y-225552
X065087Y-223012
X068263Y-206502
X074613Y-203962
X032544Y-187452
X038894Y-184912
X134938Y-187452
X141288Y-184912
X0254Y-12554
X03175Y-123
X053975Y-168402
X060325Y-165862
X12065Y-12554
X127Y-123
X125412Y-206502
X131762Y-203962
X087313Y-206502
X093663Y-203962
X073025Y-168402
X079375Y-165862
X058738Y-187452
X065087Y-184912
X1016Y-149352
X10795Y-146812
X037381Y-206502
X043731Y-203962
X092075Y-168402
X098425Y-165862
X1016Y-12554
X10795Y-123
X115888Y-187452
X122238Y-184912
X08255Y-149352
X0889Y-146812
X04445Y-149352
X0508Y-146812
X080169Y-225552
X086519Y-223012
X111125Y-168402
X117475Y-165862
X0635Y-149352
X06985Y-146812
X08255Y-12554
X0889Y-123
X103981Y-225552
X110331Y-223012
X096838Y-187452
X103188Y-184912
X0254Y-149352
X03175Y-146812
X132556Y-225552
X138906Y-223012
X030163Y-168402
X036513Y-165862
T6
X036354Y-189992
X138748Y-189992
X02921Y-12808
X057785Y-170942
X12446Y-12808
X129222Y-209042
X091123Y-209042
X076835Y-170942
X062548Y-189992
X10541Y-151892
X041191Y-209042
X095885Y-170942
X10541Y-12808
X119698Y-189992
X08636Y-151892
X04826Y-151892
X083979Y-228092
X114935Y-170942
X06731Y-151892
X08636Y-12808
X107791Y-228092
X100648Y-189992
X02921Y-151892
X136366Y-228092
X033973Y-170942
X081597Y-189992
X110172Y-209042
X036354Y-228092
X133985Y-170942
X12446Y-151892
X06731Y-12808
X062548Y-228092
X072072Y-209042
T2
G00X14165Y-09905
M15
G01X14165Y-09955
M16
G05
G00X14165Y-10205
M15
G01X14165Y-10255
M16
G05
G00X14165Y-10605
M15
G01X14165Y-10655
M16
G05
G00X1434Y-10755
M15
G01X1434Y-10805
M16
G05
G00X14585Y-10755
M15
G01X14585Y-10805
M16
G05
G00X1476Y-09905
M15
G01X1476Y-09955
M16
G05
G00X1476Y-10205
M15
G01X1476Y-10255
M16
G05
G00X1476Y-10605
M15
G01X1476Y-10655
M16
G05
T0
M30
