G04 #@! TF.GenerationSoftware,KiCad,Pcbnew,(5.1.8)-1*
G04 #@! TF.CreationDate,2020-12-06T03:25:52+09:00*
G04 #@! TF.ProjectId,keyboard-layouter-playground,6b657962-6f61-4726-942d-6c61796f7574,rev?*
G04 #@! TF.SameCoordinates,Original*
G04 #@! TF.FileFunction,Legend,Bot*
G04 #@! TF.FilePolarity,Positive*
%FSLAX46Y46*%
G04 Gerber Fmt 4.6, Leading zero omitted, Abs format (unit mm)*
G04 Created by KiCad (PCBNEW (5.1.8)-1) date 2020-12-06 03:25:52*
%MOMM*%
%LPD*%
G01*
G04 APERTURE LIST*
%ADD10C,0.150000*%
%ADD11C,0.381000*%
G04 APERTURE END LIST*
D10*
X149500000Y-104500000D02*
X149500000Y-101500000D01*
X149500000Y-101500000D02*
X151500000Y-101500000D01*
X151500000Y-101500000D02*
X151500000Y-104500000D01*
X151500000Y-104500000D02*
X149500000Y-104500000D01*
X134500000Y-104000000D02*
X131500000Y-104000000D01*
X131500000Y-104000000D02*
X131500000Y-102000000D01*
X131500000Y-102000000D02*
X134500000Y-102000000D01*
X134500000Y-102000000D02*
X134500000Y-104000000D01*
X140750000Y-96000000D02*
X146750000Y-96000000D01*
X146750000Y-96000000D02*
X146750000Y-108000000D01*
X146750000Y-108000000D02*
X140750000Y-108000000D01*
X140750000Y-108000000D02*
X140750000Y-96000000D01*
D11*
X21550000Y-114350000D02*
X21550000Y-116890000D01*
X19010000Y-114350000D02*
X21550000Y-114350000D01*
D10*
G36*
X25299030Y-101955365D02*
G01*
X25399030Y-101955365D01*
X25399030Y-101855365D01*
X25299030Y-101855365D01*
X25299030Y-101955365D01*
G37*
X25299030Y-101955365D02*
X25399030Y-101955365D01*
X25399030Y-101855365D01*
X25299030Y-101855365D01*
X25299030Y-101955365D01*
G36*
X24899030Y-101755365D02*
G01*
X25699030Y-101755365D01*
X25699030Y-101655365D01*
X24899030Y-101655365D01*
X24899030Y-101755365D01*
G37*
X24899030Y-101755365D02*
X25699030Y-101755365D01*
X25699030Y-101655365D01*
X24899030Y-101655365D01*
X24899030Y-101755365D01*
G36*
X25499030Y-102155365D02*
G01*
X25699030Y-102155365D01*
X25699030Y-102055365D01*
X25499030Y-102055365D01*
X25499030Y-102155365D01*
G37*
X25499030Y-102155365D02*
X25699030Y-102155365D01*
X25699030Y-102055365D01*
X25499030Y-102055365D01*
X25499030Y-102155365D01*
G36*
X24899030Y-102155365D02*
G01*
X25199030Y-102155365D01*
X25199030Y-102055365D01*
X24899030Y-102055365D01*
X24899030Y-102155365D01*
G37*
X24899030Y-102155365D02*
X25199030Y-102155365D01*
X25199030Y-102055365D01*
X24899030Y-102055365D01*
X24899030Y-102155365D01*
G36*
X24899030Y-102155365D02*
G01*
X24999030Y-102155365D01*
X24999030Y-101655365D01*
X24899030Y-101655365D01*
X24899030Y-102155365D01*
G37*
X24899030Y-102155365D02*
X24999030Y-102155365D01*
X24999030Y-101655365D01*
X24899030Y-101655365D01*
X24899030Y-102155365D01*
D11*
X49490000Y-99110000D02*
X16470000Y-99110000D01*
X49490000Y-116890000D02*
X49490000Y-99110000D01*
X16470000Y-116890000D02*
X49490000Y-116890000D01*
X16470000Y-99110000D02*
X16470000Y-116890000D01*
X19010000Y-114350000D02*
X19010000Y-116890000D01*
D10*
X23600000Y-105100000D02*
X23850000Y-105100000D01*
X23600000Y-111100000D02*
X23600000Y-105100000D01*
X23850000Y-111100000D02*
X23600000Y-111100000D01*
X27100000Y-111100000D02*
X26850000Y-111100000D01*
X27100000Y-105100000D02*
X27100000Y-111100000D01*
X26850000Y-105100000D02*
X27100000Y-105100000D01*
X149991395Y-102690361D02*
X150184919Y-102690361D01*
X150107509Y-102496838D02*
X150184919Y-102690361D01*
X150107509Y-102883885D01*
X150339738Y-102574247D02*
X150184919Y-102690361D01*
X150339738Y-102806476D01*
X149991395Y-103309638D02*
X150184919Y-103309638D01*
X150107509Y-103116114D02*
X150184919Y-103309638D01*
X150107509Y-103503161D01*
X150339738Y-103193523D02*
X150184919Y-103309638D01*
X150339738Y-103425752D01*
X133309638Y-102618395D02*
X133309638Y-102811919D01*
X133503161Y-102734509D02*
X133309638Y-102811919D01*
X133116114Y-102734509D01*
X133425752Y-102966738D02*
X133309638Y-102811919D01*
X133193523Y-102966738D01*
X132690361Y-102618395D02*
X132690361Y-102811919D01*
X132883885Y-102734509D02*
X132690361Y-102811919D01*
X132496838Y-102734509D01*
X132806476Y-102966738D02*
X132690361Y-102811919D01*
X132574247Y-102966738D01*
X146436404Y-101865880D02*
X145864976Y-101865880D01*
X146150690Y-102865880D02*
X146150690Y-101865880D01*
X144960214Y-102865880D02*
X145293547Y-102389690D01*
X145531642Y-102865880D02*
X145531642Y-101865880D01*
X145150690Y-101865880D01*
X145055452Y-101913500D01*
X145007833Y-101961119D01*
X144960214Y-102056357D01*
X144960214Y-102199214D01*
X145007833Y-102294452D01*
X145055452Y-102342071D01*
X145150690Y-102389690D01*
X145531642Y-102389690D01*
X143960214Y-102865880D02*
X144293547Y-102389690D01*
X144531642Y-102865880D02*
X144531642Y-101865880D01*
X144150690Y-101865880D01*
X144055452Y-101913500D01*
X144007833Y-101961119D01*
X143960214Y-102056357D01*
X143960214Y-102199214D01*
X144007833Y-102294452D01*
X144055452Y-102342071D01*
X144150690Y-102389690D01*
X144531642Y-102389690D01*
X143579261Y-102818261D02*
X143436404Y-102865880D01*
X143198309Y-102865880D01*
X143103071Y-102818261D01*
X143055452Y-102770642D01*
X143007833Y-102675404D01*
X143007833Y-102580166D01*
X143055452Y-102484928D01*
X143103071Y-102437309D01*
X143198309Y-102389690D01*
X143388785Y-102342071D01*
X143484023Y-102294452D01*
X143531642Y-102246833D01*
X143579261Y-102151595D01*
X143579261Y-102056357D01*
X143531642Y-101961119D01*
X143484023Y-101913500D01*
X143388785Y-101865880D01*
X143150690Y-101865880D01*
X143007833Y-101913500D01*
X47011904Y-109949523D02*
X46211904Y-109949523D01*
X46211904Y-110140000D01*
X46250000Y-110254285D01*
X46326190Y-110330476D01*
X46402380Y-110368571D01*
X46554761Y-110406666D01*
X46669047Y-110406666D01*
X46821428Y-110368571D01*
X46897619Y-110330476D01*
X46973809Y-110254285D01*
X47011904Y-110140000D01*
X47011904Y-109949523D01*
X46211904Y-111130476D02*
X46211904Y-110749523D01*
X46592857Y-110711428D01*
X46554761Y-110749523D01*
X46516666Y-110825714D01*
X46516666Y-111016190D01*
X46554761Y-111092380D01*
X46592857Y-111130476D01*
X46669047Y-111168571D01*
X46859523Y-111168571D01*
X46935714Y-111130476D01*
X46973809Y-111092380D01*
X47011904Y-111016190D01*
X47011904Y-110825714D01*
X46973809Y-110749523D01*
X46935714Y-110711428D01*
X46592857Y-105193333D02*
X46592857Y-104926666D01*
X47011904Y-104926666D02*
X46211904Y-104926666D01*
X46211904Y-105307619D01*
X47011904Y-106031428D02*
X47011904Y-105574285D01*
X47011904Y-105802857D02*
X46211904Y-105802857D01*
X46326190Y-105726666D01*
X46402380Y-105650476D01*
X46440476Y-105574285D01*
X46935714Y-107866666D02*
X46973809Y-107828571D01*
X47011904Y-107714285D01*
X47011904Y-107638095D01*
X46973809Y-107523809D01*
X46897619Y-107447619D01*
X46821428Y-107409523D01*
X46669047Y-107371428D01*
X46554761Y-107371428D01*
X46402380Y-107409523D01*
X46326190Y-107447619D01*
X46250000Y-107523809D01*
X46211904Y-107638095D01*
X46211904Y-107714285D01*
X46250000Y-107828571D01*
X46288095Y-107866666D01*
X46211904Y-108133333D02*
X46211904Y-108666666D01*
X47011904Y-108323809D01*
X46714297Y-101435008D02*
X46808578Y-101482148D01*
X46855719Y-101482148D01*
X46926429Y-101458578D01*
X46997140Y-101387867D01*
X47020710Y-101317157D01*
X47020710Y-101270016D01*
X46997140Y-101199306D01*
X46808578Y-101010744D01*
X46313603Y-101505719D01*
X46478595Y-101670710D01*
X46549306Y-101694280D01*
X46596446Y-101694280D01*
X46667157Y-101670710D01*
X46714297Y-101623570D01*
X46737867Y-101552859D01*
X46737867Y-101505719D01*
X46714297Y-101435008D01*
X46549306Y-101270016D01*
X47020710Y-102212825D02*
X46926429Y-102118544D01*
X46902859Y-102047834D01*
X46902859Y-102000693D01*
X46926429Y-101882842D01*
X46997140Y-101764991D01*
X47185702Y-101576429D01*
X47256412Y-101552859D01*
X47303553Y-101552859D01*
X47374264Y-101576429D01*
X47468544Y-101670710D01*
X47492115Y-101741421D01*
X47492115Y-101788561D01*
X47468544Y-101859272D01*
X47350693Y-101977123D01*
X47279983Y-102000693D01*
X47232842Y-102000693D01*
X47162132Y-101977123D01*
X47067851Y-101882842D01*
X47044280Y-101812132D01*
X47044280Y-101764991D01*
X47067851Y-101694280D01*
X46800000Y-103266666D02*
X46800000Y-103033333D01*
X47166666Y-103033333D02*
X46466666Y-103033333D01*
X46466666Y-103366666D01*
X46466666Y-103766666D02*
X46466666Y-103833333D01*
X46500000Y-103900000D01*
X46533333Y-103933333D01*
X46600000Y-103966666D01*
X46733333Y-104000000D01*
X46900000Y-104000000D01*
X47033333Y-103966666D01*
X47100000Y-103933333D01*
X47133333Y-103900000D01*
X47166666Y-103833333D01*
X47166666Y-103766666D01*
X47133333Y-103700000D01*
X47100000Y-103666666D01*
X47033333Y-103633333D01*
X46900000Y-103600000D01*
X46733333Y-103600000D01*
X46600000Y-103633333D01*
X46533333Y-103666666D01*
X46500000Y-103700000D01*
X46466666Y-103766666D01*
X46800000Y-112216666D02*
X46833333Y-112316666D01*
X46866666Y-112350000D01*
X46933333Y-112383333D01*
X47033333Y-112383333D01*
X47100000Y-112350000D01*
X47133333Y-112316666D01*
X47166666Y-112250000D01*
X47166666Y-111983333D01*
X46466666Y-111983333D01*
X46466666Y-112216666D01*
X46500000Y-112283333D01*
X46533333Y-112316666D01*
X46600000Y-112350000D01*
X46666666Y-112350000D01*
X46733333Y-112316666D01*
X46766666Y-112283333D01*
X46800000Y-112216666D01*
X46800000Y-111983333D01*
X46466666Y-112616666D02*
X46466666Y-113083333D01*
X47166666Y-112783333D01*
X25663809Y-102426666D02*
X25701904Y-102540952D01*
X25701904Y-102731428D01*
X25663809Y-102807619D01*
X25625714Y-102845714D01*
X25549523Y-102883809D01*
X25473333Y-102883809D01*
X25397142Y-102845714D01*
X25359047Y-102807619D01*
X25320952Y-102731428D01*
X25282857Y-102579047D01*
X25244761Y-102502857D01*
X25206666Y-102464761D01*
X25130476Y-102426666D01*
X25054285Y-102426666D01*
X24978095Y-102464761D01*
X24940000Y-102502857D01*
X24901904Y-102579047D01*
X24901904Y-102769523D01*
X24940000Y-102883809D01*
X24901904Y-103112380D02*
X24901904Y-103569523D01*
X25701904Y-103340952D02*
X24901904Y-103340952D01*
X19841904Y-109381395D02*
X19841904Y-109838538D01*
X20641904Y-109609967D02*
X19841904Y-109609967D01*
X19841904Y-110029014D02*
X20641904Y-110562348D01*
X19841904Y-110562348D02*
X20641904Y-110029014D01*
X19841904Y-111019491D02*
X19841904Y-111095681D01*
X19880000Y-111171872D01*
X19918095Y-111209967D01*
X19994285Y-111248062D01*
X20146666Y-111286157D01*
X20337142Y-111286157D01*
X20489523Y-111248062D01*
X20565714Y-111209967D01*
X20603809Y-111171872D01*
X20641904Y-111095681D01*
X20641904Y-111019491D01*
X20603809Y-110943300D01*
X20565714Y-110905205D01*
X20489523Y-110867110D01*
X20337142Y-110829014D01*
X20146666Y-110829014D01*
X19994285Y-110867110D01*
X19918095Y-110905205D01*
X19880000Y-110943300D01*
X19841904Y-111019491D01*
X19803809Y-112200443D02*
X20832380Y-111514729D01*
X20641904Y-112467110D02*
X19841904Y-112467110D01*
X19841904Y-112657586D01*
X19880000Y-112771872D01*
X19956190Y-112848062D01*
X20032380Y-112886157D01*
X20184761Y-112924252D01*
X20299047Y-112924252D01*
X20451428Y-112886157D01*
X20527619Y-112848062D01*
X20603809Y-112771872D01*
X20641904Y-112657586D01*
X20641904Y-112467110D01*
X19841904Y-113190919D02*
X19841904Y-113686157D01*
X20146666Y-113419491D01*
X20146666Y-113533776D01*
X20184761Y-113609967D01*
X20222857Y-113648062D01*
X20299047Y-113686157D01*
X20489523Y-113686157D01*
X20565714Y-113648062D01*
X20603809Y-113609967D01*
X20641904Y-113533776D01*
X20641904Y-113305205D01*
X20603809Y-113229014D01*
X20565714Y-113190919D01*
X45622857Y-102215190D02*
X45660952Y-102329476D01*
X45699047Y-102367571D01*
X45775238Y-102405666D01*
X45889523Y-102405666D01*
X45965714Y-102367571D01*
X46003809Y-102329476D01*
X46041904Y-102253285D01*
X46041904Y-101948523D01*
X45241904Y-101948523D01*
X45241904Y-102215190D01*
X45280000Y-102291380D01*
X45318095Y-102329476D01*
X45394285Y-102367571D01*
X45470476Y-102367571D01*
X45546666Y-102329476D01*
X45584761Y-102291380D01*
X45622857Y-102215190D01*
X45622857Y-101948523D01*
X45318095Y-102710428D02*
X45280000Y-102748523D01*
X45241904Y-102824714D01*
X45241904Y-103015190D01*
X45280000Y-103091380D01*
X45318095Y-103129476D01*
X45394285Y-103167571D01*
X45470476Y-103167571D01*
X45584761Y-103129476D01*
X46041904Y-102672333D01*
X46041904Y-103167571D01*
X38002857Y-102272333D02*
X38002857Y-102005666D01*
X38421904Y-102005666D02*
X37621904Y-102005666D01*
X37621904Y-102386619D01*
X37621904Y-102615190D02*
X37621904Y-103148523D01*
X38421904Y-102805666D01*
X35462857Y-102272333D02*
X35462857Y-102005666D01*
X35881904Y-102005666D02*
X35081904Y-102005666D01*
X35081904Y-102386619D01*
X35081904Y-103034238D02*
X35081904Y-102881857D01*
X35120000Y-102805666D01*
X35158095Y-102767571D01*
X35272380Y-102691380D01*
X35424761Y-102653285D01*
X35729523Y-102653285D01*
X35805714Y-102691380D01*
X35843809Y-102729476D01*
X35881904Y-102805666D01*
X35881904Y-102958047D01*
X35843809Y-103034238D01*
X35805714Y-103072333D01*
X35729523Y-103110428D01*
X35539047Y-103110428D01*
X35462857Y-103072333D01*
X35424761Y-103034238D01*
X35386666Y-102958047D01*
X35386666Y-102805666D01*
X35424761Y-102729476D01*
X35462857Y-102691380D01*
X35539047Y-102653285D01*
X32922857Y-102272333D02*
X32922857Y-102005666D01*
X33341904Y-102005666D02*
X32541904Y-102005666D01*
X32541904Y-102386619D01*
X32541904Y-103072333D02*
X32541904Y-102691380D01*
X32922857Y-102653285D01*
X32884761Y-102691380D01*
X32846666Y-102767571D01*
X32846666Y-102958047D01*
X32884761Y-103034238D01*
X32922857Y-103072333D01*
X32999047Y-103110428D01*
X33189523Y-103110428D01*
X33265714Y-103072333D01*
X33303809Y-103034238D01*
X33341904Y-102958047D01*
X33341904Y-102767571D01*
X33303809Y-102691380D01*
X33265714Y-102653285D01*
X20222857Y-102215190D02*
X20260952Y-102329476D01*
X20299047Y-102367571D01*
X20375238Y-102405666D01*
X20489523Y-102405666D01*
X20565714Y-102367571D01*
X20603809Y-102329476D01*
X20641904Y-102253285D01*
X20641904Y-101948523D01*
X19841904Y-101948523D01*
X19841904Y-102215190D01*
X19880000Y-102291380D01*
X19918095Y-102329476D01*
X19994285Y-102367571D01*
X20070476Y-102367571D01*
X20146666Y-102329476D01*
X20184761Y-102291380D01*
X20222857Y-102215190D01*
X20222857Y-101948523D01*
X19841904Y-102900904D02*
X19841904Y-102977095D01*
X19880000Y-103053285D01*
X19918095Y-103091380D01*
X19994285Y-103129476D01*
X20146666Y-103167571D01*
X20337142Y-103167571D01*
X20489523Y-103129476D01*
X20565714Y-103091380D01*
X20603809Y-103053285D01*
X20641904Y-102977095D01*
X20641904Y-102900904D01*
X20603809Y-102824714D01*
X20565714Y-102786619D01*
X20489523Y-102748523D01*
X20337142Y-102710428D01*
X20146666Y-102710428D01*
X19994285Y-102748523D01*
X19918095Y-102786619D01*
X19880000Y-102824714D01*
X19841904Y-102900904D01*
X22420000Y-101929476D02*
X22381904Y-101853285D01*
X22381904Y-101739000D01*
X22420000Y-101624714D01*
X22496190Y-101548523D01*
X22572380Y-101510428D01*
X22724761Y-101472333D01*
X22839047Y-101472333D01*
X22991428Y-101510428D01*
X23067619Y-101548523D01*
X23143809Y-101624714D01*
X23181904Y-101739000D01*
X23181904Y-101815190D01*
X23143809Y-101929476D01*
X23105714Y-101967571D01*
X22839047Y-101967571D01*
X22839047Y-101815190D01*
X23181904Y-102310428D02*
X22381904Y-102310428D01*
X23181904Y-102767571D01*
X22381904Y-102767571D01*
X23181904Y-103148523D02*
X22381904Y-103148523D01*
X22381904Y-103339000D01*
X22420000Y-103453285D01*
X22496190Y-103529476D01*
X22572380Y-103567571D01*
X22724761Y-103605666D01*
X22839047Y-103605666D01*
X22991428Y-103567571D01*
X23067619Y-103529476D01*
X23143809Y-103453285D01*
X23181904Y-103339000D01*
X23181904Y-103148523D01*
X27461904Y-101472333D02*
X28261904Y-101739000D01*
X27461904Y-102005666D01*
X28185714Y-102729476D02*
X28223809Y-102691380D01*
X28261904Y-102577095D01*
X28261904Y-102500904D01*
X28223809Y-102386619D01*
X28147619Y-102310428D01*
X28071428Y-102272333D01*
X27919047Y-102234238D01*
X27804761Y-102234238D01*
X27652380Y-102272333D01*
X27576190Y-102310428D01*
X27500000Y-102386619D01*
X27461904Y-102500904D01*
X27461904Y-102577095D01*
X27500000Y-102691380D01*
X27538095Y-102729476D01*
X28185714Y-103529476D02*
X28223809Y-103491380D01*
X28261904Y-103377095D01*
X28261904Y-103300904D01*
X28223809Y-103186619D01*
X28147619Y-103110428D01*
X28071428Y-103072333D01*
X27919047Y-103034238D01*
X27804761Y-103034238D01*
X27652380Y-103072333D01*
X27576190Y-103110428D01*
X27500000Y-103186619D01*
X27461904Y-103300904D01*
X27461904Y-103377095D01*
X27500000Y-103491380D01*
X27538095Y-103529476D01*
X30382857Y-102272333D02*
X30382857Y-102005666D01*
X30801904Y-102005666D02*
X30001904Y-102005666D01*
X30001904Y-102386619D01*
X30268571Y-103034238D02*
X30801904Y-103034238D01*
X29963809Y-102843761D02*
X30535238Y-102653285D01*
X30535238Y-103148523D01*
X40542857Y-102215190D02*
X40580952Y-102329476D01*
X40619047Y-102367571D01*
X40695238Y-102405666D01*
X40809523Y-102405666D01*
X40885714Y-102367571D01*
X40923809Y-102329476D01*
X40961904Y-102253285D01*
X40961904Y-101948523D01*
X40161904Y-101948523D01*
X40161904Y-102215190D01*
X40200000Y-102291380D01*
X40238095Y-102329476D01*
X40314285Y-102367571D01*
X40390476Y-102367571D01*
X40466666Y-102329476D01*
X40504761Y-102291380D01*
X40542857Y-102215190D01*
X40542857Y-101948523D01*
X40961904Y-103167571D02*
X40961904Y-102710428D01*
X40961904Y-102939000D02*
X40161904Y-102939000D01*
X40276190Y-102862809D01*
X40352380Y-102786619D01*
X40390476Y-102710428D01*
X43082857Y-102215190D02*
X43120952Y-102329476D01*
X43159047Y-102367571D01*
X43235238Y-102405666D01*
X43349523Y-102405666D01*
X43425714Y-102367571D01*
X43463809Y-102329476D01*
X43501904Y-102253285D01*
X43501904Y-101948523D01*
X42701904Y-101948523D01*
X42701904Y-102215190D01*
X42740000Y-102291380D01*
X42778095Y-102329476D01*
X42854285Y-102367571D01*
X42930476Y-102367571D01*
X43006666Y-102329476D01*
X43044761Y-102291380D01*
X43082857Y-102215190D01*
X43082857Y-101948523D01*
X42701904Y-102672333D02*
X42701904Y-103167571D01*
X43006666Y-102900904D01*
X43006666Y-103015190D01*
X43044761Y-103091380D01*
X43082857Y-103129476D01*
X43159047Y-103167571D01*
X43349523Y-103167571D01*
X43425714Y-103129476D01*
X43463809Y-103091380D01*
X43501904Y-103015190D01*
X43501904Y-102786619D01*
X43463809Y-102710428D01*
X43425714Y-102672333D01*
X47114991Y-114164297D02*
X47067851Y-114258578D01*
X47067851Y-114305719D01*
X47091421Y-114376429D01*
X47162132Y-114447140D01*
X47232842Y-114470710D01*
X47279983Y-114470710D01*
X47350693Y-114447140D01*
X47539255Y-114258578D01*
X47044280Y-113763603D01*
X46879289Y-113928595D01*
X46855719Y-113999306D01*
X46855719Y-114046446D01*
X46879289Y-114117157D01*
X46926429Y-114164297D01*
X46997140Y-114187867D01*
X47044280Y-114187867D01*
X47114991Y-114164297D01*
X47279983Y-113999306D01*
X46313603Y-114494280D02*
X46549306Y-114258578D01*
X46808578Y-114470710D01*
X46761438Y-114470710D01*
X46690727Y-114494280D01*
X46572876Y-114612132D01*
X46549306Y-114682842D01*
X46549306Y-114729983D01*
X46572876Y-114800693D01*
X46690727Y-114918544D01*
X46761438Y-114942115D01*
X46808578Y-114942115D01*
X46879289Y-114918544D01*
X46997140Y-114800693D01*
X47020710Y-114729983D01*
X47020710Y-114682842D01*
X45622857Y-113137190D02*
X45660952Y-113251476D01*
X45699047Y-113289571D01*
X45775238Y-113327666D01*
X45889523Y-113327666D01*
X45965714Y-113289571D01*
X46003809Y-113251476D01*
X46041904Y-113175285D01*
X46041904Y-112870523D01*
X45241904Y-112870523D01*
X45241904Y-113137190D01*
X45280000Y-113213380D01*
X45318095Y-113251476D01*
X45394285Y-113289571D01*
X45470476Y-113289571D01*
X45546666Y-113251476D01*
X45584761Y-113213380D01*
X45622857Y-113137190D01*
X45622857Y-112870523D01*
X45508571Y-114013380D02*
X46041904Y-114013380D01*
X45203809Y-113822904D02*
X45775238Y-113632428D01*
X45775238Y-114127666D01*
X43082857Y-112908619D02*
X43082857Y-113175285D01*
X43501904Y-113289571D02*
X43501904Y-112908619D01*
X42701904Y-112908619D01*
X42701904Y-113289571D01*
X42701904Y-113975285D02*
X42701904Y-113822904D01*
X42740000Y-113746714D01*
X42778095Y-113708619D01*
X42892380Y-113632428D01*
X43044761Y-113594333D01*
X43349523Y-113594333D01*
X43425714Y-113632428D01*
X43463809Y-113670523D01*
X43501904Y-113746714D01*
X43501904Y-113899095D01*
X43463809Y-113975285D01*
X43425714Y-114013380D01*
X43349523Y-114051476D01*
X43159047Y-114051476D01*
X43082857Y-114013380D01*
X43044761Y-113975285D01*
X43006666Y-113899095D01*
X43006666Y-113746714D01*
X43044761Y-113670523D01*
X43082857Y-113632428D01*
X43159047Y-113594333D01*
X40961904Y-112870523D02*
X40161904Y-112870523D01*
X40161904Y-113061000D01*
X40200000Y-113175285D01*
X40276190Y-113251476D01*
X40352380Y-113289571D01*
X40504761Y-113327666D01*
X40619047Y-113327666D01*
X40771428Y-113289571D01*
X40847619Y-113251476D01*
X40923809Y-113175285D01*
X40961904Y-113061000D01*
X40961904Y-112870523D01*
X40161904Y-113594333D02*
X40161904Y-114127666D01*
X40961904Y-113784809D01*
X38345714Y-113327666D02*
X38383809Y-113289571D01*
X38421904Y-113175285D01*
X38421904Y-113099095D01*
X38383809Y-112984809D01*
X38307619Y-112908619D01*
X38231428Y-112870523D01*
X38079047Y-112832428D01*
X37964761Y-112832428D01*
X37812380Y-112870523D01*
X37736190Y-112908619D01*
X37660000Y-112984809D01*
X37621904Y-113099095D01*
X37621904Y-113175285D01*
X37660000Y-113289571D01*
X37698095Y-113327666D01*
X37621904Y-114013380D02*
X37621904Y-113861000D01*
X37660000Y-113784809D01*
X37698095Y-113746714D01*
X37812380Y-113670523D01*
X37964761Y-113632428D01*
X38269523Y-113632428D01*
X38345714Y-113670523D01*
X38383809Y-113708619D01*
X38421904Y-113784809D01*
X38421904Y-113937190D01*
X38383809Y-114013380D01*
X38345714Y-114051476D01*
X38269523Y-114089571D01*
X38079047Y-114089571D01*
X38002857Y-114051476D01*
X37964761Y-114013380D01*
X37926666Y-113937190D01*
X37926666Y-113784809D01*
X37964761Y-113708619D01*
X38002857Y-113670523D01*
X38079047Y-113632428D01*
X35881904Y-112870523D02*
X35081904Y-112870523D01*
X35081904Y-113061000D01*
X35120000Y-113175285D01*
X35196190Y-113251476D01*
X35272380Y-113289571D01*
X35424761Y-113327666D01*
X35539047Y-113327666D01*
X35691428Y-113289571D01*
X35767619Y-113251476D01*
X35843809Y-113175285D01*
X35881904Y-113061000D01*
X35881904Y-112870523D01*
X35348571Y-114013380D02*
X35881904Y-114013380D01*
X35043809Y-113822904D02*
X35615238Y-113632428D01*
X35615238Y-114127666D01*
X24960000Y-112851476D02*
X24921904Y-112775285D01*
X24921904Y-112661000D01*
X24960000Y-112546714D01*
X25036190Y-112470523D01*
X25112380Y-112432428D01*
X25264761Y-112394333D01*
X25379047Y-112394333D01*
X25531428Y-112432428D01*
X25607619Y-112470523D01*
X25683809Y-112546714D01*
X25721904Y-112661000D01*
X25721904Y-112737190D01*
X25683809Y-112851476D01*
X25645714Y-112889571D01*
X25379047Y-112889571D01*
X25379047Y-112737190D01*
X25721904Y-113232428D02*
X24921904Y-113232428D01*
X25721904Y-113689571D01*
X24921904Y-113689571D01*
X25721904Y-114070523D02*
X24921904Y-114070523D01*
X24921904Y-114261000D01*
X24960000Y-114375285D01*
X25036190Y-114451476D01*
X25112380Y-114489571D01*
X25264761Y-114527666D01*
X25379047Y-114527666D01*
X25531428Y-114489571D01*
X25607619Y-114451476D01*
X25683809Y-114375285D01*
X25721904Y-114261000D01*
X25721904Y-114070523D01*
X27500000Y-112851476D02*
X27461904Y-112775285D01*
X27461904Y-112661000D01*
X27500000Y-112546714D01*
X27576190Y-112470523D01*
X27652380Y-112432428D01*
X27804761Y-112394333D01*
X27919047Y-112394333D01*
X28071428Y-112432428D01*
X28147619Y-112470523D01*
X28223809Y-112546714D01*
X28261904Y-112661000D01*
X28261904Y-112737190D01*
X28223809Y-112851476D01*
X28185714Y-112889571D01*
X27919047Y-112889571D01*
X27919047Y-112737190D01*
X28261904Y-113232428D02*
X27461904Y-113232428D01*
X28261904Y-113689571D01*
X27461904Y-113689571D01*
X28261904Y-114070523D02*
X27461904Y-114070523D01*
X27461904Y-114261000D01*
X27500000Y-114375285D01*
X27576190Y-114451476D01*
X27652380Y-114489571D01*
X27804761Y-114527666D01*
X27919047Y-114527666D01*
X28071428Y-114489571D01*
X28147619Y-114451476D01*
X28223809Y-114375285D01*
X28261904Y-114261000D01*
X28261904Y-114070523D01*
X30801904Y-112870523D02*
X30001904Y-112870523D01*
X30001904Y-113061000D01*
X30040000Y-113175285D01*
X30116190Y-113251476D01*
X30192380Y-113289571D01*
X30344761Y-113327666D01*
X30459047Y-113327666D01*
X30611428Y-113289571D01*
X30687619Y-113251476D01*
X30763809Y-113175285D01*
X30801904Y-113061000D01*
X30801904Y-112870523D01*
X30801904Y-114089571D02*
X30801904Y-113632428D01*
X30801904Y-113861000D02*
X30001904Y-113861000D01*
X30116190Y-113784809D01*
X30192380Y-113708619D01*
X30230476Y-113632428D01*
X33341904Y-112870523D02*
X32541904Y-112870523D01*
X32541904Y-113061000D01*
X32580000Y-113175285D01*
X32656190Y-113251476D01*
X32732380Y-113289571D01*
X32884761Y-113327666D01*
X32999047Y-113327666D01*
X33151428Y-113289571D01*
X33227619Y-113251476D01*
X33303809Y-113175285D01*
X33341904Y-113061000D01*
X33341904Y-112870523D01*
X32541904Y-113822904D02*
X32541904Y-113899095D01*
X32580000Y-113975285D01*
X32618095Y-114013380D01*
X32694285Y-114051476D01*
X32846666Y-114089571D01*
X33037142Y-114089571D01*
X33189523Y-114051476D01*
X33265714Y-114013380D01*
X33303809Y-113975285D01*
X33341904Y-113899095D01*
X33341904Y-113822904D01*
X33303809Y-113746714D01*
X33265714Y-113708619D01*
X33189523Y-113670523D01*
X33037142Y-113632428D01*
X32846666Y-113632428D01*
X32694285Y-113670523D01*
X32618095Y-113708619D01*
X32580000Y-113746714D01*
X32541904Y-113822904D01*
X23181904Y-112870523D02*
X22381904Y-112870523D01*
X22381904Y-113061000D01*
X22420000Y-113175285D01*
X22496190Y-113251476D01*
X22572380Y-113289571D01*
X22724761Y-113327666D01*
X22839047Y-113327666D01*
X22991428Y-113289571D01*
X23067619Y-113251476D01*
X23143809Y-113175285D01*
X23181904Y-113061000D01*
X23181904Y-112870523D01*
X22458095Y-113632428D02*
X22420000Y-113670523D01*
X22381904Y-113746714D01*
X22381904Y-113937190D01*
X22420000Y-114013380D01*
X22458095Y-114051476D01*
X22534285Y-114089571D01*
X22610476Y-114089571D01*
X22724761Y-114051476D01*
X23181904Y-113594333D01*
X23181904Y-114089571D01*
X25802380Y-106520619D02*
X25326190Y-106187285D01*
X25802380Y-105949190D02*
X24802380Y-105949190D01*
X24802380Y-106330142D01*
X24850000Y-106425380D01*
X24897619Y-106473000D01*
X24992857Y-106520619D01*
X25135714Y-106520619D01*
X25230952Y-106473000D01*
X25278571Y-106425380D01*
X25326190Y-106330142D01*
X25326190Y-105949190D01*
X25278571Y-106949190D02*
X25278571Y-107282523D01*
X25802380Y-107425380D02*
X25802380Y-106949190D01*
X24802380Y-106949190D01*
X24802380Y-107425380D01*
X25754761Y-107806333D02*
X25802380Y-107949190D01*
X25802380Y-108187285D01*
X25754761Y-108282523D01*
X25707142Y-108330142D01*
X25611904Y-108377761D01*
X25516666Y-108377761D01*
X25421428Y-108330142D01*
X25373809Y-108282523D01*
X25326190Y-108187285D01*
X25278571Y-107996809D01*
X25230952Y-107901571D01*
X25183333Y-107853952D01*
X25088095Y-107806333D01*
X24992857Y-107806333D01*
X24897619Y-107853952D01*
X24850000Y-107901571D01*
X24802380Y-107996809D01*
X24802380Y-108234904D01*
X24850000Y-108377761D01*
X25278571Y-108806333D02*
X25278571Y-109139666D01*
X25802380Y-109282523D02*
X25802380Y-108806333D01*
X24802380Y-108806333D01*
X24802380Y-109282523D01*
X24802380Y-109568238D02*
X24802380Y-110139666D01*
X25802380Y-109853952D02*
X24802380Y-109853952D01*
M02*
