M48
; DRILL file {KiCad (5.1.8)-1} date 12/12/20 14:40:14
; FORMAT={3:3/ absolute / metric / suppress trailing zeros}
; #@! TF.CreationDate,2020-12-12T14:40:14+09:00
; #@! TF.GenerationSoftware,Kicad,Pcbnew,(5.1.8)-1
; #@! TF.FileFunction,NonPlated,1,2,NPTH
FMAT,2
METRIC,LZ
T1C4.000
%
G90
G05
T1
X083979Y-228092
X033973Y-170942
X12446Y-12808
X110172Y-209042
X04826Y-151892
X10541Y-151892
X036354Y-228092
X06731Y-151892
X129222Y-209042
X08636Y-151892
X114935Y-170942
X095885Y-170942
X062548Y-228092
X062548Y-189992
X100648Y-189992
X136366Y-228092
X081597Y-189992
X036354Y-189992
X12446Y-151892
X02921Y-12808
X133985Y-170942
X041191Y-209042
X08636Y-12808
X057785Y-170942
X138748Y-189992
X119698Y-189992
X072072Y-209042
X10541Y-12808
X107791Y-228092
X076835Y-170942
X091123Y-209042
X02921Y-151892
X06731Y-12808
T0
M30
