M48
; DRILL file {KiCad (5.1.8)-1} date 12/18/21 13:29:56
; FORMAT={3:3/ absolute / metric / suppress trailing zeros}
; #@! TF.CreationDate,2021-12-18T13:29:56+09:00
; #@! TF.GenerationSoftware,Kicad,Pcbnew,(5.1.8)-1
; #@! TF.FileFunction,Plated,1,2,PTH
FMAT,2
METRIC,LZ
T1C0.813
T2C1.000
T3C1.300
T4C1.500
T5C2.200
%
G90
G05
T1
X064688Y-175254
X070688Y-175254
X046228Y-10204
X046228Y-11726
X048768Y-10204
X048768Y-11726
X051308Y-10204
X051308Y-11726
X053848Y-10204
X053848Y-11726
X056388Y-10204
X056388Y-11726
X058928Y-10204
X058928Y-11726
X061468Y-10204
X061468Y-11726
X064008Y-10204
X064008Y-11726
X066548Y-10204
X066548Y-11726
X069088Y-10204
X069088Y-11726
X071628Y-10204
X071628Y-11726
X074168Y-10204
X074168Y-11726
X045438Y-175504
X051438Y-175504
X026438Y-156254
X032438Y-156254
X045438Y-156254
X051438Y-156254
X026438Y-132504
X032438Y-132504
X064438Y-156254
X070438Y-156254
X026438Y-175254
X032438Y-175254
X045438Y-232504
X051438Y-232504
X026438Y-232504
X032438Y-232504
X045438Y-213504
X051438Y-213504
X064438Y-232504
X070438Y-232504
X035712Y-107086
X040792Y-107086
X064438Y-132504
X070438Y-132504
X045438Y-132504
X051438Y-132504
X035712Y-110109
X040792Y-110109
T3
X034977Y-114681
X041477Y-114681
T4
X025713Y-226056
X032063Y-223516
X044763Y-207006
X051113Y-204466
X044763Y-126044
X051113Y-123504
X025713Y-149856
X032063Y-147316
X044763Y-226056
X051113Y-223516
X025713Y-168906
X032063Y-166366
X063813Y-168906
X070163Y-166366
X044763Y-168906
X051113Y-166366
X025713Y-126044
X032063Y-123504
X063813Y-126044
X070163Y-123504
X044763Y-149856
X051113Y-147316
X063813Y-226056
X070163Y-223516
X063813Y-149856
X070163Y-147316
T5
X073965Y-259905
X073965Y-266573
X038176Y-252628
X019863Y-266598
X019863Y-259613
X019863Y-252628
X038176Y-266323
X049733Y-266848
X073965Y-253238
X049733Y-260043
X049733Y-253238
X038176Y-259476
T2
G00X026297Y-261247
M15
G01X026297Y-260747
M16
G05
G00X026297Y-265247
M15
G01X026297Y-264747
M16
G05
G00X026297Y-268247
M15
G01X026297Y-267747
M16
G05
G00X028047Y-259747
M15
G01X028047Y-259247
M16
G05
G00X030497Y-259747
M15
G01X030497Y-259247
M16
G05
G00X032247Y-261247
M15
G01X032247Y-260747
M16
G05
G00X032247Y-265247
M15
G01X032247Y-264747
M16
G05
G00X032247Y-268247
M15
G01X032247Y-267747
M16
G05
G00X058733Y-261273
M15
G01X058733Y-260773
M16
G05
G00X058733Y-265273
M15
G01X058733Y-264773
M16
G05
G00X058733Y-268273
M15
G01X058733Y-267773
M16
G05
G00X060483Y-259773
M15
G01X060483Y-259273
M16
G05
G00X062933Y-259773
M15
G01X062933Y-259273
M16
G05
G00X064683Y-261273
M15
G01X064683Y-260773
M16
G05
G00X064683Y-265273
M15
G01X064683Y-264773
M16
G05
G00X064683Y-268273
M15
G01X064683Y-267773
M16
G05
G00X018578Y-10126
M15
G01X018578Y-10176
M16
G05
G00X018578Y-10426
M15
G01X018578Y-10476
M16
G05
G00X018578Y-10826
M15
G01X018578Y-10876
M16
G05
G00X020328Y-10976
M15
G01X020328Y-11026
M16
G05
G00X022778Y-10976
M15
G01X022778Y-11026
M16
G05
G00X024528Y-10126
M15
G01X024528Y-10176
M16
G05
G00X024528Y-10426
M15
G01X024528Y-10476
M16
G05
G00X024528Y-10826
M15
G01X024528Y-10876
M16
G05
T0
M30
