G04 #@! TF.GenerationSoftware,KiCad,Pcbnew,(5.1.8)-1*
G04 #@! TF.CreationDate,2021-12-18T13:29:49+09:00*
G04 #@! TF.ProjectId,keyboard-layouter-playground,6b657962-6f61-4726-942d-6c61796f7574,rev?*
G04 #@! TF.SameCoordinates,Original*
G04 #@! TF.FileFunction,Profile,NP*
%FSLAX46Y46*%
G04 Gerber Fmt 4.6, Leading zero omitted, Abs format (unit mm)*
G04 Created by KiCad (PCBNEW (5.1.8)-1) date 2021-12-18 13:29:49*
%MOMM*%
%LPD*%
G01*
G04 APERTURE LIST*
G04 #@! TA.AperFunction,Profile*
%ADD10C,0.150000*%
G04 #@! TD*
G04 APERTURE END LIST*
D10*
X42087800Y-248056400D02*
X16002000Y-248056400D01*
X42087800Y-246659400D02*
X42087800Y-248056400D01*
X16002000Y-246659400D02*
X42087800Y-246659400D01*
X16002000Y-246634000D02*
X16002000Y-98069400D01*
X43535600Y-248843800D02*
X43535600Y-271333622D01*
X43535600Y-248843800D02*
X43535600Y-248843800D01*
X44856400Y-248843800D02*
X43535600Y-248843800D01*
X44856405Y-271334173D02*
X44856400Y-248843800D01*
X44856405Y-271334173D02*
X80441800Y-271348200D01*
X45567600Y-247980200D02*
X80441800Y-247980200D01*
X45567600Y-246634000D02*
X45567600Y-247980200D01*
X80441800Y-247980200D02*
X80441800Y-271348200D01*
X80441205Y-246634000D02*
X80441205Y-246634000D01*
X80441205Y-246634000D02*
X45567600Y-246634000D01*
X16002000Y-271322800D02*
X43535600Y-271333622D01*
X80441800Y-98094800D02*
X16002000Y-98069400D01*
X80438000Y-105754000D02*
X80441800Y-98094800D01*
X16002000Y-271322800D02*
X16002000Y-248056400D01*
X80438000Y-113504000D02*
X80441205Y-246634000D01*
X76438000Y-105754000D02*
X76438000Y-113504000D01*
X76438000Y-113504000D02*
X80438000Y-113504000D01*
X80438000Y-105754000D02*
X76438000Y-105754000D01*
M02*
