M48
; DRILL file {KiCad (5.1.8)-1} date 12/18/21 13:29:56
; FORMAT={3:3/ absolute / metric / suppress trailing zeros}
; #@! TF.CreationDate,2021-12-18T13:29:56+09:00
; #@! TF.GenerationSoftware,Kicad,Pcbnew,(5.1.8)-1
; #@! TF.FileFunction,NonPlated,1,2,NPTH
FMAT,2
METRIC,LZ
T1C1.200
T2C4.000
%
G90
G05
T1
X028397Y-262797
X028397Y-269797
X030147Y-262797
X030147Y-269797
X060833Y-262823
X060833Y-269823
X062583Y-262823
X062583Y-269823
T2
X067623Y-128584
X048573Y-152396
X067623Y-228596
X067623Y-152396
X029523Y-228596
X048573Y-209546
X048573Y-128584
X029523Y-152396
X048573Y-228596
X029523Y-171446
X067623Y-171446
X048573Y-171446
X029523Y-128584
T0
M30
