G04 #@! TF.GenerationSoftware,KiCad,Pcbnew,(5.1.8)-1*
G04 #@! TF.CreationDate,2021-12-18T13:29:49+09:00*
G04 #@! TF.ProjectId,keyboard-layouter-playground,6b657962-6f61-4726-942d-6c61796f7574,rev?*
G04 #@! TF.SameCoordinates,Original*
G04 #@! TF.FileFunction,Legend,Top*
G04 #@! TF.FilePolarity,Positive*
%FSLAX46Y46*%
G04 Gerber Fmt 4.6, Leading zero omitted, Abs format (unit mm)*
G04 Created by KiCad (PCBNEW (5.1.8)-1) date 2021-12-18 13:29:49*
%MOMM*%
%LPD*%
G01*
G04 APERTURE LIST*
%ADD10C,0.150000*%
%ADD11C,0.120000*%
G04 APERTURE END LIST*
D10*
X63833000Y-259322800D02*
X63833000Y-271322800D01*
X57833000Y-259322800D02*
X63833000Y-259322800D01*
X57833000Y-271322800D02*
X57833000Y-259322800D01*
X63833000Y-271322800D02*
X57833000Y-271322800D01*
X31397200Y-259297400D02*
X31397200Y-271297400D01*
X25397200Y-259297400D02*
X31397200Y-259297400D01*
X25397200Y-271297400D02*
X25397200Y-259297400D01*
X31397200Y-271297400D02*
X25397200Y-271297400D01*
D11*
X60638000Y-121599000D02*
X74608000Y-121599000D01*
X74608000Y-121599000D02*
X74608000Y-135569000D01*
X74608000Y-135569000D02*
X60638000Y-135569000D01*
X60638000Y-135569000D02*
X60638000Y-121599000D01*
D10*
X39753540Y-109108240D02*
X36751260Y-109108240D01*
X39753540Y-111109760D02*
X39753540Y-109108240D01*
X36751260Y-111109760D02*
X39753540Y-111109760D01*
X36751260Y-109108240D02*
X36751260Y-111109760D01*
X39753540Y-106085640D02*
X36751260Y-106085640D01*
X39753540Y-108087160D02*
X39753540Y-106085640D01*
X36751260Y-108087160D02*
X39753540Y-108087160D01*
X36751260Y-106085640D02*
X36751260Y-108087160D01*
X66938000Y-232004000D02*
X66938000Y-233004000D01*
X67938000Y-233004000D02*
X67038000Y-232504000D01*
X67938000Y-232004000D02*
X67938000Y-233004000D01*
X67038000Y-232504000D02*
X67938000Y-232004000D01*
X47938000Y-232004000D02*
X47938000Y-233004000D01*
X48938000Y-233004000D02*
X48038000Y-232504000D01*
X48938000Y-232004000D02*
X48938000Y-233004000D01*
X48038000Y-232504000D02*
X48938000Y-232004000D01*
X28938000Y-232004000D02*
X28938000Y-233004000D01*
X29938000Y-233004000D02*
X29038000Y-232504000D01*
X29938000Y-232004000D02*
X29938000Y-233004000D01*
X29038000Y-232504000D02*
X29938000Y-232004000D01*
X47938000Y-213004000D02*
X47938000Y-214004000D01*
X48938000Y-214004000D02*
X48038000Y-213504000D01*
X48938000Y-213004000D02*
X48938000Y-214004000D01*
X48038000Y-213504000D02*
X48938000Y-213004000D01*
X67188000Y-174754000D02*
X67188000Y-175754000D01*
X68188000Y-175754000D02*
X67288000Y-175254000D01*
X68188000Y-174754000D02*
X68188000Y-175754000D01*
X67288000Y-175254000D02*
X68188000Y-174754000D01*
X47938000Y-175004000D02*
X47938000Y-176004000D01*
X48938000Y-176004000D02*
X48038000Y-175504000D01*
X48938000Y-175004000D02*
X48938000Y-176004000D01*
X48038000Y-175504000D02*
X48938000Y-175004000D01*
X28938000Y-174754000D02*
X28938000Y-175754000D01*
X29938000Y-175754000D02*
X29038000Y-175254000D01*
X29938000Y-174754000D02*
X29938000Y-175754000D01*
X29038000Y-175254000D02*
X29938000Y-174754000D01*
X66938000Y-155754000D02*
X66938000Y-156754000D01*
X67938000Y-156754000D02*
X67038000Y-156254000D01*
X67938000Y-155754000D02*
X67938000Y-156754000D01*
X67038000Y-156254000D02*
X67938000Y-155754000D01*
X47938000Y-155754000D02*
X47938000Y-156754000D01*
X48938000Y-156754000D02*
X48038000Y-156254000D01*
X48938000Y-155754000D02*
X48938000Y-156754000D01*
X48038000Y-156254000D02*
X48938000Y-155754000D01*
X28938000Y-155754000D02*
X28938000Y-156754000D01*
X29938000Y-156754000D02*
X29038000Y-156254000D01*
X29938000Y-155754000D02*
X29938000Y-156754000D01*
X29038000Y-156254000D02*
X29938000Y-155754000D01*
X66938000Y-132004000D02*
X66938000Y-133004000D01*
X67938000Y-133004000D02*
X67038000Y-132504000D01*
X67938000Y-132004000D02*
X67938000Y-133004000D01*
X67038000Y-132504000D02*
X67938000Y-132004000D01*
X47938000Y-132004000D02*
X47938000Y-133004000D01*
X48938000Y-133004000D02*
X48038000Y-132504000D01*
X48938000Y-132004000D02*
X48938000Y-133004000D01*
X48038000Y-132504000D02*
X48938000Y-132004000D01*
X28938000Y-132004000D02*
X28938000Y-133004000D01*
X29938000Y-133004000D02*
X29038000Y-132504000D01*
X29938000Y-132004000D02*
X29938000Y-133004000D01*
X29038000Y-132504000D02*
X29938000Y-132004000D01*
X19427800Y-110209800D02*
X19427800Y-98209800D01*
X25427800Y-110209800D02*
X19427800Y-110209800D01*
X25427800Y-98209800D02*
X25427800Y-110209800D01*
X19427800Y-98209800D02*
X25427800Y-98209800D01*
X41227000Y-112931000D02*
X35227000Y-112931000D01*
X35227000Y-112931000D02*
X35227000Y-113181000D01*
X41227000Y-112931000D02*
X41227000Y-113181000D01*
X41227000Y-116431000D02*
X41227000Y-116181000D01*
X41227000Y-116431000D02*
X35227000Y-116431000D01*
X35227000Y-116431000D02*
X35227000Y-116181000D01*
D11*
X41588000Y-221611000D02*
X55558000Y-221611000D01*
X55558000Y-221611000D02*
X55558000Y-235581000D01*
X55558000Y-235581000D02*
X41588000Y-235581000D01*
X41588000Y-235581000D02*
X41588000Y-221611000D01*
X22538000Y-221611000D02*
X36508000Y-221611000D01*
X36508000Y-221611000D02*
X36508000Y-235581000D01*
X36508000Y-235581000D02*
X22538000Y-235581000D01*
X22538000Y-235581000D02*
X22538000Y-221611000D01*
X41588000Y-202561000D02*
X55558000Y-202561000D01*
X55558000Y-202561000D02*
X55558000Y-216531000D01*
X55558000Y-216531000D02*
X41588000Y-216531000D01*
X41588000Y-216531000D02*
X41588000Y-202561000D01*
X60638000Y-221611000D02*
X74608000Y-221611000D01*
X74608000Y-221611000D02*
X74608000Y-235581000D01*
X74608000Y-235581000D02*
X60638000Y-235581000D01*
X60638000Y-235581000D02*
X60638000Y-221611000D01*
X60638000Y-164461000D02*
X74608000Y-164461000D01*
X74608000Y-164461000D02*
X74608000Y-178431000D01*
X74608000Y-178431000D02*
X60638000Y-178431000D01*
X60638000Y-178431000D02*
X60638000Y-164461000D01*
X41588000Y-164461000D02*
X55558000Y-164461000D01*
X55558000Y-164461000D02*
X55558000Y-178431000D01*
X55558000Y-178431000D02*
X41588000Y-178431000D01*
X41588000Y-178431000D02*
X41588000Y-164461000D01*
X22538000Y-145411000D02*
X36508000Y-145411000D01*
X36508000Y-145411000D02*
X36508000Y-159381000D01*
X36508000Y-159381000D02*
X22538000Y-159381000D01*
X22538000Y-159381000D02*
X22538000Y-145411000D01*
X60638000Y-145411000D02*
X74608000Y-145411000D01*
X74608000Y-145411000D02*
X74608000Y-159381000D01*
X74608000Y-159381000D02*
X60638000Y-159381000D01*
X60638000Y-159381000D02*
X60638000Y-145411000D01*
X41588000Y-145411000D02*
X55558000Y-145411000D01*
X55558000Y-145411000D02*
X55558000Y-159381000D01*
X55558000Y-159381000D02*
X41588000Y-159381000D01*
X41588000Y-159381000D02*
X41588000Y-145411000D01*
X41588000Y-121599000D02*
X55558000Y-121599000D01*
X55558000Y-121599000D02*
X55558000Y-135569000D01*
X55558000Y-135569000D02*
X41588000Y-135569000D01*
X41588000Y-135569000D02*
X41588000Y-121599000D01*
X22538000Y-121599000D02*
X36508000Y-121599000D01*
X36508000Y-121599000D02*
X36508000Y-135569000D01*
X36508000Y-135569000D02*
X22538000Y-135569000D01*
X22538000Y-135569000D02*
X22538000Y-121599000D01*
X22538000Y-164461000D02*
X36508000Y-164461000D01*
X36508000Y-164461000D02*
X36508000Y-178431000D01*
X36508000Y-178431000D02*
X22538000Y-178431000D01*
X22538000Y-178431000D02*
X22538000Y-164461000D01*
D10*
X59821095Y-264325180D02*
X60392523Y-264325180D01*
X60106809Y-265325180D02*
X60106809Y-264325180D01*
X61297285Y-265325180D02*
X60963952Y-264848990D01*
X60725857Y-265325180D02*
X60725857Y-264325180D01*
X61106809Y-264325180D01*
X61202047Y-264372800D01*
X61249666Y-264420419D01*
X61297285Y-264515657D01*
X61297285Y-264658514D01*
X61249666Y-264753752D01*
X61202047Y-264801371D01*
X61106809Y-264848990D01*
X60725857Y-264848990D01*
X62297285Y-265325180D02*
X61963952Y-264848990D01*
X61725857Y-265325180D02*
X61725857Y-264325180D01*
X62106809Y-264325180D01*
X62202047Y-264372800D01*
X62249666Y-264420419D01*
X62297285Y-264515657D01*
X62297285Y-264658514D01*
X62249666Y-264753752D01*
X62202047Y-264801371D01*
X62106809Y-264848990D01*
X61725857Y-264848990D01*
X62678238Y-265277561D02*
X62821095Y-265325180D01*
X63059190Y-265325180D01*
X63154428Y-265277561D01*
X63202047Y-265229942D01*
X63249666Y-265134704D01*
X63249666Y-265039466D01*
X63202047Y-264944228D01*
X63154428Y-264896609D01*
X63059190Y-264848990D01*
X62868714Y-264801371D01*
X62773476Y-264753752D01*
X62725857Y-264706133D01*
X62678238Y-264610895D01*
X62678238Y-264515657D01*
X62725857Y-264420419D01*
X62773476Y-264372800D01*
X62868714Y-264325180D01*
X63106809Y-264325180D01*
X63249666Y-264372800D01*
X48495104Y-256590380D02*
X48495104Y-255590380D01*
X48495104Y-256066571D02*
X49066533Y-256066571D01*
X49066533Y-256590380D02*
X49066533Y-255590380D01*
X50066533Y-256590380D02*
X49495104Y-256590380D01*
X49780819Y-256590380D02*
X49780819Y-255590380D01*
X49685580Y-255733238D01*
X49590342Y-255828476D01*
X49495104Y-255876095D01*
X50971295Y-255590380D02*
X50495104Y-255590380D01*
X50447485Y-256066571D01*
X50495104Y-256018952D01*
X50590342Y-255971333D01*
X50828438Y-255971333D01*
X50923676Y-256018952D01*
X50971295Y-256066571D01*
X51018914Y-256161809D01*
X51018914Y-256399904D01*
X50971295Y-256495142D01*
X50923676Y-256542761D01*
X50828438Y-256590380D01*
X50590342Y-256590380D01*
X50495104Y-256542761D01*
X50447485Y-256495142D01*
X48495104Y-263395380D02*
X48495104Y-262395380D01*
X48495104Y-262871571D02*
X49066533Y-262871571D01*
X49066533Y-263395380D02*
X49066533Y-262395380D01*
X50066533Y-263395380D02*
X49495104Y-263395380D01*
X49780819Y-263395380D02*
X49780819Y-262395380D01*
X49685580Y-262538238D01*
X49590342Y-262633476D01*
X49495104Y-262681095D01*
X50923676Y-262728714D02*
X50923676Y-263395380D01*
X50685580Y-262347761D02*
X50447485Y-263062047D01*
X51066533Y-263062047D01*
X48495104Y-270200381D02*
X48495104Y-269200381D01*
X48495104Y-269676572D02*
X49066533Y-269676572D01*
X49066533Y-270200381D02*
X49066533Y-269200381D01*
X50066533Y-270200381D02*
X49495104Y-270200381D01*
X49780819Y-270200381D02*
X49780819Y-269200381D01*
X49685580Y-269343239D01*
X49590342Y-269438477D01*
X49495104Y-269486096D01*
X50399866Y-269200381D02*
X51018914Y-269200381D01*
X50685580Y-269581334D01*
X50828438Y-269581334D01*
X50923676Y-269628953D01*
X50971295Y-269676572D01*
X51018914Y-269771810D01*
X51018914Y-270009905D01*
X50971295Y-270105143D01*
X50923676Y-270152762D01*
X50828438Y-270200381D01*
X50542723Y-270200381D01*
X50447485Y-270152762D01*
X50399866Y-270105143D01*
X72726704Y-256590380D02*
X72726704Y-255590380D01*
X72726704Y-256066571D02*
X73298133Y-256066571D01*
X73298133Y-256590380D02*
X73298133Y-255590380D01*
X74298133Y-256590380D02*
X73726704Y-256590380D01*
X74012419Y-256590380D02*
X74012419Y-255590380D01*
X73917180Y-255733238D01*
X73821942Y-255828476D01*
X73726704Y-255876095D01*
X74679085Y-255685619D02*
X74726704Y-255638000D01*
X74821942Y-255590380D01*
X75060038Y-255590380D01*
X75155276Y-255638000D01*
X75202895Y-255685619D01*
X75250514Y-255780857D01*
X75250514Y-255876095D01*
X75202895Y-256018952D01*
X74631466Y-256590380D01*
X75250514Y-256590380D01*
X72726704Y-269925380D02*
X72726704Y-268925380D01*
X72726704Y-269401571D02*
X73298133Y-269401571D01*
X73298133Y-269925380D02*
X73298133Y-268925380D01*
X74298133Y-269925380D02*
X73726704Y-269925380D01*
X74012419Y-269925380D02*
X74012419Y-268925380D01*
X73917180Y-269068238D01*
X73821942Y-269163476D01*
X73726704Y-269211095D01*
X75250514Y-269925380D02*
X74679085Y-269925380D01*
X74964800Y-269925380D02*
X74964800Y-268925380D01*
X74869561Y-269068238D01*
X74774323Y-269163476D01*
X74679085Y-269211095D01*
X72726704Y-263257880D02*
X72726704Y-262257880D01*
X72726704Y-262734071D02*
X73298133Y-262734071D01*
X73298133Y-263257880D02*
X73298133Y-262257880D01*
X74298133Y-263257880D02*
X73726704Y-263257880D01*
X74012419Y-263257880D02*
X74012419Y-262257880D01*
X73917180Y-262400738D01*
X73821942Y-262495976D01*
X73726704Y-262543595D01*
X74917180Y-262257880D02*
X75012419Y-262257880D01*
X75107657Y-262305500D01*
X75155276Y-262353119D01*
X75202895Y-262448357D01*
X75250514Y-262638833D01*
X75250514Y-262876928D01*
X75202895Y-263067404D01*
X75155276Y-263162642D01*
X75107657Y-263210261D01*
X75012419Y-263257880D01*
X74917180Y-263257880D01*
X74821942Y-263210261D01*
X74774323Y-263162642D01*
X74726704Y-263067404D01*
X74679085Y-262876928D01*
X74679085Y-262638833D01*
X74726704Y-262448357D01*
X74774323Y-262353119D01*
X74821942Y-262305500D01*
X74917180Y-262257880D01*
X27385295Y-264299780D02*
X27956723Y-264299780D01*
X27671009Y-265299780D02*
X27671009Y-264299780D01*
X28861485Y-265299780D02*
X28528152Y-264823590D01*
X28290057Y-265299780D02*
X28290057Y-264299780D01*
X28671009Y-264299780D01*
X28766247Y-264347400D01*
X28813866Y-264395019D01*
X28861485Y-264490257D01*
X28861485Y-264633114D01*
X28813866Y-264728352D01*
X28766247Y-264775971D01*
X28671009Y-264823590D01*
X28290057Y-264823590D01*
X29861485Y-265299780D02*
X29528152Y-264823590D01*
X29290057Y-265299780D02*
X29290057Y-264299780D01*
X29671009Y-264299780D01*
X29766247Y-264347400D01*
X29813866Y-264395019D01*
X29861485Y-264490257D01*
X29861485Y-264633114D01*
X29813866Y-264728352D01*
X29766247Y-264775971D01*
X29671009Y-264823590D01*
X29290057Y-264823590D01*
X30242438Y-265252161D02*
X30385295Y-265299780D01*
X30623390Y-265299780D01*
X30718628Y-265252161D01*
X30766247Y-265204542D01*
X30813866Y-265109304D01*
X30813866Y-265014066D01*
X30766247Y-264918828D01*
X30718628Y-264871209D01*
X30623390Y-264823590D01*
X30432914Y-264775971D01*
X30337676Y-264728352D01*
X30290057Y-264680733D01*
X30242438Y-264585495D01*
X30242438Y-264490257D01*
X30290057Y-264395019D01*
X30337676Y-264347400D01*
X30432914Y-264299780D01*
X30671009Y-264299780D01*
X30813866Y-264347400D01*
X19100895Y-255980780D02*
X19100895Y-254980780D01*
X19100895Y-255456971D02*
X19672323Y-255456971D01*
X19672323Y-255980780D02*
X19672323Y-254980780D01*
X20624704Y-254980780D02*
X20148514Y-254980780D01*
X20100895Y-255456971D01*
X20148514Y-255409352D01*
X20243752Y-255361733D01*
X20481847Y-255361733D01*
X20577085Y-255409352D01*
X20624704Y-255456971D01*
X20672323Y-255552209D01*
X20672323Y-255790304D01*
X20624704Y-255885542D01*
X20577085Y-255933161D01*
X20481847Y-255980780D01*
X20243752Y-255980780D01*
X20148514Y-255933161D01*
X20100895Y-255885542D01*
X19100895Y-262965780D02*
X19100895Y-261965780D01*
X19100895Y-262441971D02*
X19672323Y-262441971D01*
X19672323Y-262965780D02*
X19672323Y-261965780D01*
X20577085Y-262299114D02*
X20577085Y-262965780D01*
X20338990Y-261918161D02*
X20100895Y-262632447D01*
X20719942Y-262632447D01*
X19100895Y-269950780D02*
X19100895Y-268950780D01*
X19100895Y-269426971D02*
X19672323Y-269426971D01*
X19672323Y-269950780D02*
X19672323Y-268950780D01*
X20053276Y-268950780D02*
X20672323Y-268950780D01*
X20338990Y-269331733D01*
X20481847Y-269331733D01*
X20577085Y-269379352D01*
X20624704Y-269426971D01*
X20672323Y-269522209D01*
X20672323Y-269760304D01*
X20624704Y-269855542D01*
X20577085Y-269903161D01*
X20481847Y-269950780D01*
X20196133Y-269950780D01*
X20100895Y-269903161D01*
X20053276Y-269855542D01*
X37414295Y-255980780D02*
X37414295Y-254980780D01*
X37414295Y-255456971D02*
X37985723Y-255456971D01*
X37985723Y-255980780D02*
X37985723Y-254980780D01*
X38414295Y-255076019D02*
X38461914Y-255028400D01*
X38557152Y-254980780D01*
X38795247Y-254980780D01*
X38890485Y-255028400D01*
X38938104Y-255076019D01*
X38985723Y-255171257D01*
X38985723Y-255266495D01*
X38938104Y-255409352D01*
X38366676Y-255980780D01*
X38985723Y-255980780D01*
X37414295Y-269675779D02*
X37414295Y-268675779D01*
X37414295Y-269151970D02*
X37985723Y-269151970D01*
X37985723Y-269675779D02*
X37985723Y-268675779D01*
X38985723Y-269675779D02*
X38414295Y-269675779D01*
X38700009Y-269675779D02*
X38700009Y-268675779D01*
X38604771Y-268818637D01*
X38509533Y-268913875D01*
X38414295Y-268961494D01*
X37414295Y-262828280D02*
X37414295Y-261828280D01*
X37414295Y-262304471D02*
X37985723Y-262304471D01*
X37985723Y-262828280D02*
X37985723Y-261828280D01*
X38652390Y-261828280D02*
X38747628Y-261828280D01*
X38842866Y-261875900D01*
X38890485Y-261923519D01*
X38938104Y-262018757D01*
X38985723Y-262209233D01*
X38985723Y-262447328D01*
X38938104Y-262637804D01*
X38890485Y-262733042D01*
X38842866Y-262780661D01*
X38747628Y-262828280D01*
X38652390Y-262828280D01*
X38557152Y-262780661D01*
X38509533Y-262733042D01*
X38461914Y-262637804D01*
X38414295Y-262447328D01*
X38414295Y-262209233D01*
X38461914Y-262018757D01*
X38509533Y-261923519D01*
X38557152Y-261875900D01*
X38652390Y-261828280D01*
X66289666Y-121114761D02*
X66432523Y-121162380D01*
X66670619Y-121162380D01*
X66765857Y-121114761D01*
X66813476Y-121067142D01*
X66861095Y-120971904D01*
X66861095Y-120876666D01*
X66813476Y-120781428D01*
X66765857Y-120733809D01*
X66670619Y-120686190D01*
X66480142Y-120638571D01*
X66384904Y-120590952D01*
X66337285Y-120543333D01*
X66289666Y-120448095D01*
X66289666Y-120352857D01*
X66337285Y-120257619D01*
X66384904Y-120210000D01*
X66480142Y-120162380D01*
X66718238Y-120162380D01*
X66861095Y-120210000D01*
X67194428Y-120162380D02*
X67432523Y-121162380D01*
X67623000Y-120448095D01*
X67813476Y-121162380D01*
X68051571Y-120162380D01*
X68337285Y-120162380D02*
X68956333Y-120162380D01*
X68623000Y-120543333D01*
X68765857Y-120543333D01*
X68861095Y-120590952D01*
X68908714Y-120638571D01*
X68956333Y-120733809D01*
X68956333Y-120971904D01*
X68908714Y-121067142D01*
X68861095Y-121114761D01*
X68765857Y-121162380D01*
X68480142Y-121162380D01*
X68384904Y-121114761D01*
X68337285Y-121067142D01*
X38166933Y-110396695D02*
X37896000Y-110009647D01*
X37702476Y-110396695D02*
X37702476Y-109583895D01*
X38012114Y-109583895D01*
X38089523Y-109622600D01*
X38128228Y-109661304D01*
X38166933Y-109738714D01*
X38166933Y-109854828D01*
X38128228Y-109932238D01*
X38089523Y-109970942D01*
X38012114Y-110009647D01*
X37702476Y-110009647D01*
X38476571Y-109661304D02*
X38515276Y-109622600D01*
X38592685Y-109583895D01*
X38786209Y-109583895D01*
X38863619Y-109622600D01*
X38902323Y-109661304D01*
X38941028Y-109738714D01*
X38941028Y-109816123D01*
X38902323Y-109932238D01*
X38437866Y-110396695D01*
X38941028Y-110396695D01*
X38166933Y-107374095D02*
X37896000Y-106987047D01*
X37702476Y-107374095D02*
X37702476Y-106561295D01*
X38012114Y-106561295D01*
X38089523Y-106600000D01*
X38128228Y-106638704D01*
X38166933Y-106716114D01*
X38166933Y-106832228D01*
X38128228Y-106909638D01*
X38089523Y-106948342D01*
X38012114Y-106987047D01*
X37702476Y-106987047D01*
X38941028Y-107374095D02*
X38476571Y-107374095D01*
X38708800Y-107374095D02*
X38708800Y-106561295D01*
X38631390Y-106677409D01*
X38553980Y-106754819D01*
X38476571Y-106793523D01*
X19915895Y-104112180D02*
X20487323Y-104112180D01*
X20201609Y-105112180D02*
X20201609Y-104112180D01*
X21392085Y-105112180D02*
X21058752Y-104635990D01*
X20820657Y-105112180D02*
X20820657Y-104112180D01*
X21201609Y-104112180D01*
X21296847Y-104159800D01*
X21344466Y-104207419D01*
X21392085Y-104302657D01*
X21392085Y-104445514D01*
X21344466Y-104540752D01*
X21296847Y-104588371D01*
X21201609Y-104635990D01*
X20820657Y-104635990D01*
X22392085Y-105112180D02*
X22058752Y-104635990D01*
X21820657Y-105112180D02*
X21820657Y-104112180D01*
X22201609Y-104112180D01*
X22296847Y-104159800D01*
X22344466Y-104207419D01*
X22392085Y-104302657D01*
X22392085Y-104445514D01*
X22344466Y-104540752D01*
X22296847Y-104588371D01*
X22201609Y-104635990D01*
X21820657Y-104635990D01*
X22773038Y-105064561D02*
X22915895Y-105112180D01*
X23153990Y-105112180D01*
X23249228Y-105064561D01*
X23296847Y-105016942D01*
X23344466Y-104921704D01*
X23344466Y-104826466D01*
X23296847Y-104731228D01*
X23249228Y-104683609D01*
X23153990Y-104635990D01*
X22963514Y-104588371D01*
X22868276Y-104540752D01*
X22820657Y-104493133D01*
X22773038Y-104397895D01*
X22773038Y-104302657D01*
X22820657Y-104207419D01*
X22868276Y-104159800D01*
X22963514Y-104112180D01*
X23201609Y-104112180D01*
X23344466Y-104159800D01*
X36774619Y-115133380D02*
X36441285Y-114657190D01*
X36203190Y-115133380D02*
X36203190Y-114133380D01*
X36584142Y-114133380D01*
X36679380Y-114181000D01*
X36727000Y-114228619D01*
X36774619Y-114323857D01*
X36774619Y-114466714D01*
X36727000Y-114561952D01*
X36679380Y-114609571D01*
X36584142Y-114657190D01*
X36203190Y-114657190D01*
X37203190Y-114609571D02*
X37536523Y-114609571D01*
X37679380Y-115133380D02*
X37203190Y-115133380D01*
X37203190Y-114133380D01*
X37679380Y-114133380D01*
X38060333Y-115085761D02*
X38203190Y-115133380D01*
X38441285Y-115133380D01*
X38536523Y-115085761D01*
X38584142Y-115038142D01*
X38631761Y-114942904D01*
X38631761Y-114847666D01*
X38584142Y-114752428D01*
X38536523Y-114704809D01*
X38441285Y-114657190D01*
X38250809Y-114609571D01*
X38155571Y-114561952D01*
X38107952Y-114514333D01*
X38060333Y-114419095D01*
X38060333Y-114323857D01*
X38107952Y-114228619D01*
X38155571Y-114181000D01*
X38250809Y-114133380D01*
X38488904Y-114133380D01*
X38631761Y-114181000D01*
X39060333Y-114609571D02*
X39393666Y-114609571D01*
X39536523Y-115133380D02*
X39060333Y-115133380D01*
X39060333Y-114133380D01*
X39536523Y-114133380D01*
X39822238Y-114133380D02*
X40393666Y-114133380D01*
X40107952Y-115133380D02*
X40107952Y-114133380D01*
X46763476Y-221126761D02*
X46906333Y-221174380D01*
X47144428Y-221174380D01*
X47239666Y-221126761D01*
X47287285Y-221079142D01*
X47334904Y-220983904D01*
X47334904Y-220888666D01*
X47287285Y-220793428D01*
X47239666Y-220745809D01*
X47144428Y-220698190D01*
X46953952Y-220650571D01*
X46858714Y-220602952D01*
X46811095Y-220555333D01*
X46763476Y-220460095D01*
X46763476Y-220364857D01*
X46811095Y-220269619D01*
X46858714Y-220222000D01*
X46953952Y-220174380D01*
X47192047Y-220174380D01*
X47334904Y-220222000D01*
X47668238Y-220174380D02*
X47906333Y-221174380D01*
X48096809Y-220460095D01*
X48287285Y-221174380D01*
X48525380Y-220174380D01*
X49430142Y-221174380D02*
X48858714Y-221174380D01*
X49144428Y-221174380D02*
X49144428Y-220174380D01*
X49049190Y-220317238D01*
X48953952Y-220412476D01*
X48858714Y-220460095D01*
X49811095Y-220269619D02*
X49858714Y-220222000D01*
X49953952Y-220174380D01*
X50192047Y-220174380D01*
X50287285Y-220222000D01*
X50334904Y-220269619D01*
X50382523Y-220364857D01*
X50382523Y-220460095D01*
X50334904Y-220602952D01*
X49763476Y-221174380D01*
X50382523Y-221174380D01*
X27713476Y-221126761D02*
X27856333Y-221174380D01*
X28094428Y-221174380D01*
X28189666Y-221126761D01*
X28237285Y-221079142D01*
X28284904Y-220983904D01*
X28284904Y-220888666D01*
X28237285Y-220793428D01*
X28189666Y-220745809D01*
X28094428Y-220698190D01*
X27903952Y-220650571D01*
X27808714Y-220602952D01*
X27761095Y-220555333D01*
X27713476Y-220460095D01*
X27713476Y-220364857D01*
X27761095Y-220269619D01*
X27808714Y-220222000D01*
X27903952Y-220174380D01*
X28142047Y-220174380D01*
X28284904Y-220222000D01*
X28618238Y-220174380D02*
X28856333Y-221174380D01*
X29046809Y-220460095D01*
X29237285Y-221174380D01*
X29475380Y-220174380D01*
X30380142Y-221174380D02*
X29808714Y-221174380D01*
X30094428Y-221174380D02*
X30094428Y-220174380D01*
X29999190Y-220317238D01*
X29903952Y-220412476D01*
X29808714Y-220460095D01*
X31332523Y-221174380D02*
X30761095Y-221174380D01*
X31046809Y-221174380D02*
X31046809Y-220174380D01*
X30951571Y-220317238D01*
X30856333Y-220412476D01*
X30761095Y-220460095D01*
X46763476Y-202076761D02*
X46906333Y-202124380D01*
X47144428Y-202124380D01*
X47239666Y-202076761D01*
X47287285Y-202029142D01*
X47334904Y-201933904D01*
X47334904Y-201838666D01*
X47287285Y-201743428D01*
X47239666Y-201695809D01*
X47144428Y-201648190D01*
X46953952Y-201600571D01*
X46858714Y-201552952D01*
X46811095Y-201505333D01*
X46763476Y-201410095D01*
X46763476Y-201314857D01*
X46811095Y-201219619D01*
X46858714Y-201172000D01*
X46953952Y-201124380D01*
X47192047Y-201124380D01*
X47334904Y-201172000D01*
X47668238Y-201124380D02*
X47906333Y-202124380D01*
X48096809Y-201410095D01*
X48287285Y-202124380D01*
X48525380Y-201124380D01*
X49430142Y-202124380D02*
X48858714Y-202124380D01*
X49144428Y-202124380D02*
X49144428Y-201124380D01*
X49049190Y-201267238D01*
X48953952Y-201362476D01*
X48858714Y-201410095D01*
X50049190Y-201124380D02*
X50144428Y-201124380D01*
X50239666Y-201172000D01*
X50287285Y-201219619D01*
X50334904Y-201314857D01*
X50382523Y-201505333D01*
X50382523Y-201743428D01*
X50334904Y-201933904D01*
X50287285Y-202029142D01*
X50239666Y-202076761D01*
X50144428Y-202124380D01*
X50049190Y-202124380D01*
X49953952Y-202076761D01*
X49906333Y-202029142D01*
X49858714Y-201933904D01*
X49811095Y-201743428D01*
X49811095Y-201505333D01*
X49858714Y-201314857D01*
X49906333Y-201219619D01*
X49953952Y-201172000D01*
X50049190Y-201124380D01*
X65813476Y-221126761D02*
X65956333Y-221174380D01*
X66194428Y-221174380D01*
X66289666Y-221126761D01*
X66337285Y-221079142D01*
X66384904Y-220983904D01*
X66384904Y-220888666D01*
X66337285Y-220793428D01*
X66289666Y-220745809D01*
X66194428Y-220698190D01*
X66003952Y-220650571D01*
X65908714Y-220602952D01*
X65861095Y-220555333D01*
X65813476Y-220460095D01*
X65813476Y-220364857D01*
X65861095Y-220269619D01*
X65908714Y-220222000D01*
X66003952Y-220174380D01*
X66242047Y-220174380D01*
X66384904Y-220222000D01*
X66718238Y-220174380D02*
X66956333Y-221174380D01*
X67146809Y-220460095D01*
X67337285Y-221174380D01*
X67575380Y-220174380D01*
X68480142Y-221174380D02*
X67908714Y-221174380D01*
X68194428Y-221174380D02*
X68194428Y-220174380D01*
X68099190Y-220317238D01*
X68003952Y-220412476D01*
X67908714Y-220460095D01*
X68813476Y-220174380D02*
X69432523Y-220174380D01*
X69099190Y-220555333D01*
X69242047Y-220555333D01*
X69337285Y-220602952D01*
X69384904Y-220650571D01*
X69432523Y-220745809D01*
X69432523Y-220983904D01*
X69384904Y-221079142D01*
X69337285Y-221126761D01*
X69242047Y-221174380D01*
X68956333Y-221174380D01*
X68861095Y-221126761D01*
X68813476Y-221079142D01*
X66289666Y-163976761D02*
X66432523Y-164024380D01*
X66670619Y-164024380D01*
X66765857Y-163976761D01*
X66813476Y-163929142D01*
X66861095Y-163833904D01*
X66861095Y-163738666D01*
X66813476Y-163643428D01*
X66765857Y-163595809D01*
X66670619Y-163548190D01*
X66480142Y-163500571D01*
X66384904Y-163452952D01*
X66337285Y-163405333D01*
X66289666Y-163310095D01*
X66289666Y-163214857D01*
X66337285Y-163119619D01*
X66384904Y-163072000D01*
X66480142Y-163024380D01*
X66718238Y-163024380D01*
X66861095Y-163072000D01*
X67194428Y-163024380D02*
X67432523Y-164024380D01*
X67623000Y-163310095D01*
X67813476Y-164024380D01*
X68051571Y-163024380D01*
X68480142Y-164024380D02*
X68670619Y-164024380D01*
X68765857Y-163976761D01*
X68813476Y-163929142D01*
X68908714Y-163786285D01*
X68956333Y-163595809D01*
X68956333Y-163214857D01*
X68908714Y-163119619D01*
X68861095Y-163072000D01*
X68765857Y-163024380D01*
X68575380Y-163024380D01*
X68480142Y-163072000D01*
X68432523Y-163119619D01*
X68384904Y-163214857D01*
X68384904Y-163452952D01*
X68432523Y-163548190D01*
X68480142Y-163595809D01*
X68575380Y-163643428D01*
X68765857Y-163643428D01*
X68861095Y-163595809D01*
X68908714Y-163548190D01*
X68956333Y-163452952D01*
X47239666Y-163976761D02*
X47382523Y-164024380D01*
X47620619Y-164024380D01*
X47715857Y-163976761D01*
X47763476Y-163929142D01*
X47811095Y-163833904D01*
X47811095Y-163738666D01*
X47763476Y-163643428D01*
X47715857Y-163595809D01*
X47620619Y-163548190D01*
X47430142Y-163500571D01*
X47334904Y-163452952D01*
X47287285Y-163405333D01*
X47239666Y-163310095D01*
X47239666Y-163214857D01*
X47287285Y-163119619D01*
X47334904Y-163072000D01*
X47430142Y-163024380D01*
X47668238Y-163024380D01*
X47811095Y-163072000D01*
X48144428Y-163024380D02*
X48382523Y-164024380D01*
X48573000Y-163310095D01*
X48763476Y-164024380D01*
X49001571Y-163024380D01*
X49525380Y-163452952D02*
X49430142Y-163405333D01*
X49382523Y-163357714D01*
X49334904Y-163262476D01*
X49334904Y-163214857D01*
X49382523Y-163119619D01*
X49430142Y-163072000D01*
X49525380Y-163024380D01*
X49715857Y-163024380D01*
X49811095Y-163072000D01*
X49858714Y-163119619D01*
X49906333Y-163214857D01*
X49906333Y-163262476D01*
X49858714Y-163357714D01*
X49811095Y-163405333D01*
X49715857Y-163452952D01*
X49525380Y-163452952D01*
X49430142Y-163500571D01*
X49382523Y-163548190D01*
X49334904Y-163643428D01*
X49334904Y-163833904D01*
X49382523Y-163929142D01*
X49430142Y-163976761D01*
X49525380Y-164024380D01*
X49715857Y-164024380D01*
X49811095Y-163976761D01*
X49858714Y-163929142D01*
X49906333Y-163833904D01*
X49906333Y-163643428D01*
X49858714Y-163548190D01*
X49811095Y-163500571D01*
X49715857Y-163452952D01*
X28189666Y-144926761D02*
X28332523Y-144974380D01*
X28570619Y-144974380D01*
X28665857Y-144926761D01*
X28713476Y-144879142D01*
X28761095Y-144783904D01*
X28761095Y-144688666D01*
X28713476Y-144593428D01*
X28665857Y-144545809D01*
X28570619Y-144498190D01*
X28380142Y-144450571D01*
X28284904Y-144402952D01*
X28237285Y-144355333D01*
X28189666Y-144260095D01*
X28189666Y-144164857D01*
X28237285Y-144069619D01*
X28284904Y-144022000D01*
X28380142Y-143974380D01*
X28618238Y-143974380D01*
X28761095Y-144022000D01*
X29094428Y-143974380D02*
X29332523Y-144974380D01*
X29523000Y-144260095D01*
X29713476Y-144974380D01*
X29951571Y-143974380D01*
X30761095Y-144307714D02*
X30761095Y-144974380D01*
X30523000Y-143926761D02*
X30284904Y-144641047D01*
X30903952Y-144641047D01*
X66289666Y-144926761D02*
X66432523Y-144974380D01*
X66670619Y-144974380D01*
X66765857Y-144926761D01*
X66813476Y-144879142D01*
X66861095Y-144783904D01*
X66861095Y-144688666D01*
X66813476Y-144593428D01*
X66765857Y-144545809D01*
X66670619Y-144498190D01*
X66480142Y-144450571D01*
X66384904Y-144402952D01*
X66337285Y-144355333D01*
X66289666Y-144260095D01*
X66289666Y-144164857D01*
X66337285Y-144069619D01*
X66384904Y-144022000D01*
X66480142Y-143974380D01*
X66718238Y-143974380D01*
X66861095Y-144022000D01*
X67194428Y-143974380D02*
X67432523Y-144974380D01*
X67623000Y-144260095D01*
X67813476Y-144974380D01*
X68051571Y-143974380D01*
X68861095Y-143974380D02*
X68670619Y-143974380D01*
X68575380Y-144022000D01*
X68527761Y-144069619D01*
X68432523Y-144212476D01*
X68384904Y-144402952D01*
X68384904Y-144783904D01*
X68432523Y-144879142D01*
X68480142Y-144926761D01*
X68575380Y-144974380D01*
X68765857Y-144974380D01*
X68861095Y-144926761D01*
X68908714Y-144879142D01*
X68956333Y-144783904D01*
X68956333Y-144545809D01*
X68908714Y-144450571D01*
X68861095Y-144402952D01*
X68765857Y-144355333D01*
X68575380Y-144355333D01*
X68480142Y-144402952D01*
X68432523Y-144450571D01*
X68384904Y-144545809D01*
X47239666Y-144926761D02*
X47382523Y-144974380D01*
X47620619Y-144974380D01*
X47715857Y-144926761D01*
X47763476Y-144879142D01*
X47811095Y-144783904D01*
X47811095Y-144688666D01*
X47763476Y-144593428D01*
X47715857Y-144545809D01*
X47620619Y-144498190D01*
X47430142Y-144450571D01*
X47334904Y-144402952D01*
X47287285Y-144355333D01*
X47239666Y-144260095D01*
X47239666Y-144164857D01*
X47287285Y-144069619D01*
X47334904Y-144022000D01*
X47430142Y-143974380D01*
X47668238Y-143974380D01*
X47811095Y-144022000D01*
X48144428Y-143974380D02*
X48382523Y-144974380D01*
X48573000Y-144260095D01*
X48763476Y-144974380D01*
X49001571Y-143974380D01*
X49858714Y-143974380D02*
X49382523Y-143974380D01*
X49334904Y-144450571D01*
X49382523Y-144402952D01*
X49477761Y-144355333D01*
X49715857Y-144355333D01*
X49811095Y-144402952D01*
X49858714Y-144450571D01*
X49906333Y-144545809D01*
X49906333Y-144783904D01*
X49858714Y-144879142D01*
X49811095Y-144926761D01*
X49715857Y-144974380D01*
X49477761Y-144974380D01*
X49382523Y-144926761D01*
X49334904Y-144879142D01*
X47239666Y-121114761D02*
X47382523Y-121162380D01*
X47620619Y-121162380D01*
X47715857Y-121114761D01*
X47763476Y-121067142D01*
X47811095Y-120971904D01*
X47811095Y-120876666D01*
X47763476Y-120781428D01*
X47715857Y-120733809D01*
X47620619Y-120686190D01*
X47430142Y-120638571D01*
X47334904Y-120590952D01*
X47287285Y-120543333D01*
X47239666Y-120448095D01*
X47239666Y-120352857D01*
X47287285Y-120257619D01*
X47334904Y-120210000D01*
X47430142Y-120162380D01*
X47668238Y-120162380D01*
X47811095Y-120210000D01*
X48144428Y-120162380D02*
X48382523Y-121162380D01*
X48573000Y-120448095D01*
X48763476Y-121162380D01*
X49001571Y-120162380D01*
X49334904Y-120257619D02*
X49382523Y-120210000D01*
X49477761Y-120162380D01*
X49715857Y-120162380D01*
X49811095Y-120210000D01*
X49858714Y-120257619D01*
X49906333Y-120352857D01*
X49906333Y-120448095D01*
X49858714Y-120590952D01*
X49287285Y-121162380D01*
X49906333Y-121162380D01*
X28189666Y-121114761D02*
X28332523Y-121162380D01*
X28570619Y-121162380D01*
X28665857Y-121114761D01*
X28713476Y-121067142D01*
X28761095Y-120971904D01*
X28761095Y-120876666D01*
X28713476Y-120781428D01*
X28665857Y-120733809D01*
X28570619Y-120686190D01*
X28380142Y-120638571D01*
X28284904Y-120590952D01*
X28237285Y-120543333D01*
X28189666Y-120448095D01*
X28189666Y-120352857D01*
X28237285Y-120257619D01*
X28284904Y-120210000D01*
X28380142Y-120162380D01*
X28618238Y-120162380D01*
X28761095Y-120210000D01*
X29094428Y-120162380D02*
X29332523Y-121162380D01*
X29523000Y-120448095D01*
X29713476Y-121162380D01*
X29951571Y-120162380D01*
X30856333Y-121162380D02*
X30284904Y-121162380D01*
X30570619Y-121162380D02*
X30570619Y-120162380D01*
X30475380Y-120305238D01*
X30380142Y-120400476D01*
X30284904Y-120448095D01*
X28189666Y-163976761D02*
X28332523Y-164024380D01*
X28570619Y-164024380D01*
X28665857Y-163976761D01*
X28713476Y-163929142D01*
X28761095Y-163833904D01*
X28761095Y-163738666D01*
X28713476Y-163643428D01*
X28665857Y-163595809D01*
X28570619Y-163548190D01*
X28380142Y-163500571D01*
X28284904Y-163452952D01*
X28237285Y-163405333D01*
X28189666Y-163310095D01*
X28189666Y-163214857D01*
X28237285Y-163119619D01*
X28284904Y-163072000D01*
X28380142Y-163024380D01*
X28618238Y-163024380D01*
X28761095Y-163072000D01*
X29094428Y-163024380D02*
X29332523Y-164024380D01*
X29523000Y-163310095D01*
X29713476Y-164024380D01*
X29951571Y-163024380D01*
X30237285Y-163024380D02*
X30903952Y-163024380D01*
X30475380Y-164024380D01*
M02*
