G04 #@! TF.GenerationSoftware,KiCad,Pcbnew,(5.1.8)-1*
G04 #@! TF.CreationDate,2020-12-08T19:37:40+09:00*
G04 #@! TF.ProjectId,keyboard-layouter-playground,6b657962-6f61-4726-942d-6c61796f7574,rev?*
G04 #@! TF.SameCoordinates,Original*
G04 #@! TF.FileFunction,Legend,Top*
G04 #@! TF.FilePolarity,Positive*
%FSLAX46Y46*%
G04 Gerber Fmt 4.6, Leading zero omitted, Abs format (unit mm)*
G04 Created by KiCad (PCBNEW (5.1.8)-1) date 2020-12-08 19:37:40*
%MOMM*%
%LPD*%
G01*
G04 APERTURE LIST*
%ADD10C,0.381000*%
%ADD11C,0.150000*%
%ADD12C,0.120000*%
G04 APERTURE END LIST*
D10*
X256240000Y-100610000D02*
X225760000Y-100610000D01*
X225760000Y-100610000D02*
X225760000Y-118390000D01*
X225760000Y-118390000D02*
X256240000Y-118390000D01*
X256240000Y-103150000D02*
X253700000Y-103150000D01*
X253700000Y-103150000D02*
X253700000Y-100610000D01*
D11*
G36*
X250360640Y-114431568D02*
G01*
X250060640Y-114431568D01*
X250060640Y-114331568D01*
X250360640Y-114331568D01*
X250360640Y-114431568D01*
G37*
X250360640Y-114431568D02*
X250060640Y-114431568D01*
X250060640Y-114331568D01*
X250360640Y-114331568D01*
X250360640Y-114431568D01*
G36*
X249960640Y-114231568D02*
G01*
X249860640Y-114231568D01*
X249860640Y-114131568D01*
X249960640Y-114131568D01*
X249960640Y-114231568D01*
G37*
X249960640Y-114231568D02*
X249860640Y-114231568D01*
X249860640Y-114131568D01*
X249960640Y-114131568D01*
X249960640Y-114231568D01*
G36*
X250360640Y-114431568D02*
G01*
X250260640Y-114431568D01*
X250260640Y-113931568D01*
X250360640Y-113931568D01*
X250360640Y-114431568D01*
G37*
X250360640Y-114431568D02*
X250260640Y-114431568D01*
X250260640Y-113931568D01*
X250360640Y-113931568D01*
X250360640Y-114431568D01*
G36*
X250360640Y-114031568D02*
G01*
X249560640Y-114031568D01*
X249560640Y-113931568D01*
X250360640Y-113931568D01*
X250360640Y-114031568D01*
G37*
X250360640Y-114031568D02*
X249560640Y-114031568D01*
X249560640Y-113931568D01*
X250360640Y-113931568D01*
X250360640Y-114031568D01*
G36*
X249760640Y-114431568D02*
G01*
X249560640Y-114431568D01*
X249560640Y-114331568D01*
X249760640Y-114331568D01*
X249760640Y-114431568D01*
G37*
X249760640Y-114431568D02*
X249560640Y-114431568D01*
X249560640Y-114331568D01*
X249760640Y-114331568D01*
X249760640Y-114431568D01*
D10*
X256240000Y-118390000D02*
X258780000Y-118390000D01*
X258780000Y-118390000D02*
X258780000Y-100610000D01*
X258780000Y-100610000D02*
X256240000Y-100610000D01*
X256240000Y-103150000D02*
X256240000Y-100610000D01*
D11*
X248250000Y-106000000D02*
X248250000Y-112000000D01*
X248250000Y-112000000D02*
X248500000Y-112000000D01*
X248250000Y-106000000D02*
X248500000Y-106000000D01*
X251750000Y-106000000D02*
X251500000Y-106000000D01*
X251750000Y-106000000D02*
X251750000Y-112000000D01*
X251750000Y-112000000D02*
X251500000Y-112000000D01*
D12*
X170143000Y-187703000D02*
X170143000Y-173733000D01*
X184113000Y-187703000D02*
X170143000Y-187703000D01*
X184113000Y-173733000D02*
X184113000Y-187703000D01*
X170143000Y-173733000D02*
X184113000Y-173733000D01*
X27225000Y-235315000D02*
X27225000Y-221345000D01*
X41195000Y-235315000D02*
X27225000Y-235315000D01*
X41195000Y-221345000D02*
X41195000Y-235315000D01*
X27225000Y-221345000D02*
X41195000Y-221345000D01*
X165381000Y-216277000D02*
X165381000Y-202307000D01*
X179351000Y-216277000D02*
X165381000Y-216277000D01*
X179351000Y-202307000D02*
X179351000Y-216277000D01*
X165381000Y-202307000D02*
X179351000Y-202307000D01*
X167763000Y-235327000D02*
X167763000Y-221357000D01*
X181733000Y-235327000D02*
X167763000Y-235327000D01*
X181733000Y-221357000D02*
X181733000Y-235327000D01*
X167763000Y-221357000D02*
X181733000Y-221357000D01*
X103469000Y-235327000D02*
X103469000Y-221357000D01*
X117439000Y-235327000D02*
X103469000Y-235327000D01*
X117439000Y-221357000D02*
X117439000Y-235327000D01*
X103469000Y-221357000D02*
X117439000Y-221357000D01*
X79656000Y-235327000D02*
X79656000Y-221357000D01*
X93626000Y-235327000D02*
X79656000Y-235327000D01*
X93626000Y-221357000D02*
X93626000Y-235327000D01*
X79656000Y-221357000D02*
X93626000Y-221357000D01*
X55843000Y-235327000D02*
X55843000Y-221357000D01*
X69813000Y-235327000D02*
X55843000Y-235327000D01*
X69813000Y-221357000D02*
X69813000Y-235327000D01*
X55843000Y-221357000D02*
X69813000Y-221357000D01*
X239200000Y-221357000D02*
X253170000Y-221357000D01*
X253170000Y-221357000D02*
X253170000Y-235327000D01*
X253170000Y-235327000D02*
X239200000Y-235327000D01*
X239200000Y-235327000D02*
X239200000Y-221357000D01*
X220150000Y-221357000D02*
X234120000Y-221357000D01*
X234120000Y-221357000D02*
X234120000Y-235327000D01*
X234120000Y-235327000D02*
X220150000Y-235327000D01*
X220150000Y-235327000D02*
X220150000Y-221357000D01*
X201100000Y-221357000D02*
X215070000Y-221357000D01*
X215070000Y-221357000D02*
X215070000Y-235327000D01*
X215070000Y-235327000D02*
X201100000Y-235327000D01*
X201100000Y-235327000D02*
X201100000Y-221357000D01*
X143950000Y-221357000D02*
X157920000Y-221357000D01*
X157920000Y-221357000D02*
X157920000Y-235327000D01*
X157920000Y-235327000D02*
X143950000Y-235327000D01*
X143950000Y-235327000D02*
X143950000Y-221357000D01*
X124900000Y-221357000D02*
X138870000Y-221357000D01*
X138870000Y-221357000D02*
X138870000Y-235327000D01*
X138870000Y-235327000D02*
X124900000Y-235327000D01*
X124900000Y-235327000D02*
X124900000Y-221357000D01*
X239200000Y-202307000D02*
X253170000Y-202307000D01*
X253170000Y-202307000D02*
X253170000Y-216277000D01*
X253170000Y-216277000D02*
X239200000Y-216277000D01*
X239200000Y-216277000D02*
X239200000Y-202307000D01*
X220150000Y-202307000D02*
X234120000Y-202307000D01*
X234120000Y-202307000D02*
X234120000Y-216277000D01*
X234120000Y-216277000D02*
X220150000Y-216277000D01*
X220150000Y-216277000D02*
X220150000Y-202307000D01*
X201100000Y-202307000D02*
X215070000Y-202307000D01*
X215070000Y-202307000D02*
X215070000Y-216277000D01*
X215070000Y-216277000D02*
X201100000Y-216277000D01*
X201100000Y-216277000D02*
X201100000Y-202307000D01*
X139187000Y-202307000D02*
X153157000Y-202307000D01*
X153157000Y-202307000D02*
X153157000Y-216277000D01*
X153157000Y-216277000D02*
X139187000Y-216277000D01*
X139187000Y-216277000D02*
X139187000Y-202307000D01*
X120137000Y-202307000D02*
X134107000Y-202307000D01*
X134107000Y-202307000D02*
X134107000Y-216277000D01*
X134107000Y-216277000D02*
X120137000Y-216277000D01*
X120137000Y-216277000D02*
X120137000Y-202307000D01*
X101087000Y-202307000D02*
X115057000Y-202307000D01*
X115057000Y-202307000D02*
X115057000Y-216277000D01*
X115057000Y-216277000D02*
X101087000Y-216277000D01*
X101087000Y-216277000D02*
X101087000Y-202307000D01*
X82037000Y-202307000D02*
X96007000Y-202307000D01*
X96007000Y-202307000D02*
X96007000Y-216277000D01*
X96007000Y-216277000D02*
X82037000Y-216277000D01*
X82037000Y-216277000D02*
X82037000Y-202307000D01*
X62987000Y-202307000D02*
X76957000Y-202307000D01*
X76957000Y-202307000D02*
X76957000Y-216277000D01*
X76957000Y-216277000D02*
X62987000Y-216277000D01*
X62987000Y-216277000D02*
X62987000Y-202307000D01*
X43937000Y-202307000D02*
X57907000Y-202307000D01*
X57907000Y-202307000D02*
X57907000Y-216277000D01*
X57907000Y-216277000D02*
X43937000Y-216277000D01*
X43937000Y-216277000D02*
X43937000Y-202307000D01*
X24887000Y-202307000D02*
X38857000Y-202307000D01*
X38857000Y-202307000D02*
X38857000Y-216277000D01*
X38857000Y-216277000D02*
X24887000Y-216277000D01*
X24887000Y-216277000D02*
X24887000Y-202307000D01*
X148713000Y-183257000D02*
X162683000Y-183257000D01*
X162683000Y-183257000D02*
X162683000Y-197227000D01*
X162683000Y-197227000D02*
X148713000Y-197227000D01*
X148713000Y-197227000D02*
X148713000Y-183257000D01*
X129663000Y-183257000D02*
X143633000Y-183257000D01*
X143633000Y-183257000D02*
X143633000Y-197227000D01*
X143633000Y-197227000D02*
X129663000Y-197227000D01*
X129663000Y-197227000D02*
X129663000Y-183257000D01*
X110613000Y-183257000D02*
X124583000Y-183257000D01*
X124583000Y-183257000D02*
X124583000Y-197227000D01*
X124583000Y-197227000D02*
X110613000Y-197227000D01*
X110613000Y-197227000D02*
X110613000Y-183257000D01*
X91563000Y-183257000D02*
X105533000Y-183257000D01*
X105533000Y-183257000D02*
X105533000Y-197227000D01*
X105533000Y-197227000D02*
X91563000Y-197227000D01*
X91563000Y-197227000D02*
X91563000Y-183257000D01*
X72513000Y-183257000D02*
X86483000Y-183257000D01*
X86483000Y-183257000D02*
X86483000Y-197227000D01*
X86483000Y-197227000D02*
X72513000Y-197227000D01*
X72513000Y-197227000D02*
X72513000Y-183257000D01*
X53463000Y-183257000D02*
X67433000Y-183257000D01*
X67433000Y-183257000D02*
X67433000Y-197227000D01*
X67433000Y-197227000D02*
X53463000Y-197227000D01*
X53463000Y-197227000D02*
X53463000Y-183257000D01*
X34413000Y-183257000D02*
X48383000Y-183257000D01*
X48383000Y-183257000D02*
X48383000Y-197227000D01*
X48383000Y-197227000D02*
X34413000Y-197227000D01*
X34413000Y-197227000D02*
X34413000Y-183257000D01*
X239200000Y-164207000D02*
X253170000Y-164207000D01*
X253170000Y-164207000D02*
X253170000Y-178177000D01*
X253170000Y-178177000D02*
X239200000Y-178177000D01*
X239200000Y-178177000D02*
X239200000Y-164207000D01*
X220150000Y-164207000D02*
X234120000Y-164207000D01*
X234120000Y-164207000D02*
X234120000Y-178177000D01*
X234120000Y-178177000D02*
X220150000Y-178177000D01*
X220150000Y-178177000D02*
X220150000Y-164207000D01*
X201100000Y-164207000D02*
X215070000Y-164207000D01*
X215070000Y-164207000D02*
X215070000Y-178177000D01*
X215070000Y-178177000D02*
X201100000Y-178177000D01*
X201100000Y-178177000D02*
X201100000Y-164207000D01*
X143950000Y-164207000D02*
X157920000Y-164207000D01*
X157920000Y-164207000D02*
X157920000Y-178177000D01*
X157920000Y-178177000D02*
X143950000Y-178177000D01*
X143950000Y-178177000D02*
X143950000Y-164207000D01*
X124900000Y-164207000D02*
X138870000Y-164207000D01*
X138870000Y-164207000D02*
X138870000Y-178177000D01*
X138870000Y-178177000D02*
X124900000Y-178177000D01*
X124900000Y-178177000D02*
X124900000Y-164207000D01*
X105850000Y-164207000D02*
X119820000Y-164207000D01*
X119820000Y-164207000D02*
X119820000Y-178177000D01*
X119820000Y-178177000D02*
X105850000Y-178177000D01*
X105850000Y-178177000D02*
X105850000Y-164207000D01*
X86800000Y-164207000D02*
X100770000Y-164207000D01*
X100770000Y-164207000D02*
X100770000Y-178177000D01*
X100770000Y-178177000D02*
X86800000Y-178177000D01*
X86800000Y-178177000D02*
X86800000Y-164207000D01*
X67750000Y-164207000D02*
X81720000Y-164207000D01*
X81720000Y-164207000D02*
X81720000Y-178177000D01*
X81720000Y-178177000D02*
X67750000Y-178177000D01*
X67750000Y-178177000D02*
X67750000Y-164207000D01*
X48700000Y-164207000D02*
X62670000Y-164207000D01*
X62670000Y-164207000D02*
X62670000Y-178177000D01*
X62670000Y-178177000D02*
X48700000Y-178177000D01*
X48700000Y-178177000D02*
X48700000Y-164207000D01*
X29650000Y-164207000D02*
X43620000Y-164207000D01*
X43620000Y-164207000D02*
X43620000Y-178177000D01*
X43620000Y-178177000D02*
X29650000Y-178177000D01*
X29650000Y-178177000D02*
X29650000Y-164207000D01*
X239200000Y-145157000D02*
X253170000Y-145157000D01*
X253170000Y-145157000D02*
X253170000Y-159127000D01*
X253170000Y-159127000D02*
X239200000Y-159127000D01*
X239200000Y-159127000D02*
X239200000Y-145157000D01*
X220150000Y-145157000D02*
X234120000Y-145157000D01*
X234120000Y-145157000D02*
X234120000Y-159127000D01*
X234120000Y-159127000D02*
X220150000Y-159127000D01*
X220150000Y-159127000D02*
X220150000Y-145157000D01*
X201100000Y-145157000D02*
X215070000Y-145157000D01*
X215070000Y-145157000D02*
X215070000Y-159127000D01*
X215070000Y-159127000D02*
X201100000Y-159127000D01*
X201100000Y-159127000D02*
X201100000Y-145157000D01*
X172525000Y-145157000D02*
X186495000Y-145157000D01*
X186495000Y-145157000D02*
X186495000Y-159127000D01*
X186495000Y-159127000D02*
X172525000Y-159127000D01*
X172525000Y-159127000D02*
X172525000Y-145157000D01*
X153475000Y-145157000D02*
X167445000Y-145157000D01*
X167445000Y-145157000D02*
X167445000Y-159127000D01*
X167445000Y-159127000D02*
X153475000Y-159127000D01*
X153475000Y-159127000D02*
X153475000Y-145157000D01*
X134425000Y-145157000D02*
X148395000Y-145157000D01*
X148395000Y-145157000D02*
X148395000Y-159127000D01*
X148395000Y-159127000D02*
X134425000Y-159127000D01*
X134425000Y-159127000D02*
X134425000Y-145157000D01*
X115375000Y-145157000D02*
X129345000Y-145157000D01*
X129345000Y-145157000D02*
X129345000Y-159127000D01*
X129345000Y-159127000D02*
X115375000Y-159127000D01*
X115375000Y-159127000D02*
X115375000Y-145157000D01*
X96325000Y-145157000D02*
X110295000Y-145157000D01*
X110295000Y-145157000D02*
X110295000Y-159127000D01*
X110295000Y-159127000D02*
X96325000Y-159127000D01*
X96325000Y-159127000D02*
X96325000Y-145157000D01*
X77275000Y-145157000D02*
X91245000Y-145157000D01*
X91245000Y-145157000D02*
X91245000Y-159127000D01*
X91245000Y-159127000D02*
X77275000Y-159127000D01*
X77275000Y-159127000D02*
X77275000Y-145157000D01*
X58225000Y-145157000D02*
X72195000Y-145157000D01*
X72195000Y-145157000D02*
X72195000Y-159127000D01*
X72195000Y-159127000D02*
X58225000Y-159127000D01*
X58225000Y-159127000D02*
X58225000Y-145157000D01*
X39175000Y-145157000D02*
X53145000Y-145157000D01*
X53145000Y-145157000D02*
X53145000Y-159127000D01*
X53145000Y-159127000D02*
X39175000Y-159127000D01*
X39175000Y-159127000D02*
X39175000Y-145157000D01*
X20125000Y-145157000D02*
X34095000Y-145157000D01*
X34095000Y-145157000D02*
X34095000Y-159127000D01*
X34095000Y-159127000D02*
X20125000Y-159127000D01*
X20125000Y-159127000D02*
X20125000Y-145157000D01*
X239200000Y-121345000D02*
X253170000Y-121345000D01*
X253170000Y-121345000D02*
X253170000Y-135315000D01*
X253170000Y-135315000D02*
X239200000Y-135315000D01*
X239200000Y-135315000D02*
X239200000Y-121345000D01*
X220150000Y-121345000D02*
X234120000Y-121345000D01*
X234120000Y-121345000D02*
X234120000Y-135315000D01*
X234120000Y-135315000D02*
X220150000Y-135315000D01*
X220150000Y-135315000D02*
X220150000Y-121345000D01*
X201100000Y-121345000D02*
X215070000Y-121345000D01*
X215070000Y-121345000D02*
X215070000Y-135315000D01*
X215070000Y-135315000D02*
X201100000Y-135315000D01*
X201100000Y-135315000D02*
X201100000Y-121345000D01*
X172525000Y-121345000D02*
X186495000Y-121345000D01*
X186495000Y-121345000D02*
X186495000Y-135315000D01*
X186495000Y-135315000D02*
X172525000Y-135315000D01*
X172525000Y-135315000D02*
X172525000Y-121345000D01*
X153475000Y-121345000D02*
X167445000Y-121345000D01*
X167445000Y-121345000D02*
X167445000Y-135315000D01*
X167445000Y-135315000D02*
X153475000Y-135315000D01*
X153475000Y-135315000D02*
X153475000Y-121345000D01*
X134425000Y-121345000D02*
X148395000Y-121345000D01*
X148395000Y-121345000D02*
X148395000Y-135315000D01*
X148395000Y-135315000D02*
X134425000Y-135315000D01*
X134425000Y-135315000D02*
X134425000Y-121345000D01*
X115375000Y-121345000D02*
X129345000Y-121345000D01*
X129345000Y-121345000D02*
X129345000Y-135315000D01*
X129345000Y-135315000D02*
X115375000Y-135315000D01*
X115375000Y-135315000D02*
X115375000Y-121345000D01*
X86800000Y-121345000D02*
X100770000Y-121345000D01*
X100770000Y-121345000D02*
X100770000Y-135315000D01*
X100770000Y-135315000D02*
X86800000Y-135315000D01*
X86800000Y-135315000D02*
X86800000Y-121345000D01*
X67750000Y-121345000D02*
X81720000Y-121345000D01*
X81720000Y-121345000D02*
X81720000Y-135315000D01*
X81720000Y-135315000D02*
X67750000Y-135315000D01*
X67750000Y-135315000D02*
X67750000Y-121345000D01*
X48700000Y-121345000D02*
X62670000Y-121345000D01*
X62670000Y-121345000D02*
X62670000Y-135315000D01*
X62670000Y-135315000D02*
X48700000Y-135315000D01*
X48700000Y-135315000D02*
X48700000Y-121345000D01*
X29650000Y-121345000D02*
X43620000Y-121345000D01*
X43620000Y-121345000D02*
X43620000Y-135315000D01*
X43620000Y-135315000D02*
X29650000Y-135315000D01*
X29650000Y-135315000D02*
X29650000Y-121345000D01*
D11*
X245750760Y-108288860D02*
X243749240Y-108288860D01*
X243749240Y-108288860D02*
X243749240Y-111291140D01*
X243749240Y-111291140D02*
X245750760Y-111291140D01*
X245750760Y-111291140D02*
X245750760Y-108288860D01*
X242000760Y-108248860D02*
X239999240Y-108248860D01*
X239999240Y-108248860D02*
X239999240Y-111251140D01*
X239999240Y-111251140D02*
X242000760Y-111251140D01*
X242000760Y-111251140D02*
X242000760Y-108248860D01*
X19250000Y-96000000D02*
X25250000Y-96000000D01*
X25250000Y-96000000D02*
X25250000Y-108000000D01*
X25250000Y-108000000D02*
X19250000Y-108000000D01*
X19250000Y-108000000D02*
X19250000Y-96000000D01*
X177617640Y-189569520D02*
X176717640Y-190069520D01*
X176717640Y-190069520D02*
X176717640Y-189069520D01*
X176717640Y-189069520D02*
X177617640Y-189569520D01*
X177634200Y-189072440D02*
X177634200Y-190072440D01*
X179833820Y-188811900D02*
X174433820Y-188811900D01*
X174433820Y-188811900D02*
X174433820Y-190311900D01*
X174433820Y-190311900D02*
X179833820Y-190311900D01*
X179833820Y-190311900D02*
X179833820Y-188811900D01*
X34667640Y-236569520D02*
X33767640Y-237069520D01*
X33767640Y-237069520D02*
X33767640Y-236069520D01*
X33767640Y-236069520D02*
X34667640Y-236569520D01*
X34684200Y-236072440D02*
X34684200Y-237072440D01*
X36883820Y-235811900D02*
X31483820Y-235811900D01*
X31483820Y-235811900D02*
X31483820Y-237311900D01*
X31483820Y-237311900D02*
X36883820Y-237311900D01*
X36883820Y-237311900D02*
X36883820Y-235811900D01*
X172867640Y-217569520D02*
X171967640Y-218069520D01*
X171967640Y-218069520D02*
X171967640Y-217069520D01*
X171967640Y-217069520D02*
X172867640Y-217569520D01*
X172884200Y-217072440D02*
X172884200Y-218072440D01*
X175083820Y-216811900D02*
X169683820Y-216811900D01*
X169683820Y-216811900D02*
X169683820Y-218311900D01*
X169683820Y-218311900D02*
X175083820Y-218311900D01*
X175083820Y-218311900D02*
X175083820Y-216811900D01*
X175217640Y-236569520D02*
X174317640Y-237069520D01*
X174317640Y-237069520D02*
X174317640Y-236069520D01*
X174317640Y-236069520D02*
X175217640Y-236569520D01*
X175234200Y-236072440D02*
X175234200Y-237072440D01*
X177433820Y-235811900D02*
X172033820Y-235811900D01*
X172033820Y-235811900D02*
X172033820Y-237311900D01*
X172033820Y-237311900D02*
X177433820Y-237311900D01*
X177433820Y-237311900D02*
X177433820Y-235811900D01*
X110917640Y-236569520D02*
X110017640Y-237069520D01*
X110017640Y-237069520D02*
X110017640Y-236069520D01*
X110017640Y-236069520D02*
X110917640Y-236569520D01*
X110934200Y-236072440D02*
X110934200Y-237072440D01*
X113133820Y-235811900D02*
X107733820Y-235811900D01*
X107733820Y-235811900D02*
X107733820Y-237311900D01*
X107733820Y-237311900D02*
X113133820Y-237311900D01*
X113133820Y-237311900D02*
X113133820Y-235811900D01*
X87117640Y-236569520D02*
X86217640Y-237069520D01*
X86217640Y-237069520D02*
X86217640Y-236069520D01*
X86217640Y-236069520D02*
X87117640Y-236569520D01*
X87134200Y-236072440D02*
X87134200Y-237072440D01*
X89333820Y-235811900D02*
X83933820Y-235811900D01*
X83933820Y-235811900D02*
X83933820Y-237311900D01*
X83933820Y-237311900D02*
X89333820Y-237311900D01*
X89333820Y-237311900D02*
X89333820Y-235811900D01*
X63267640Y-236569520D02*
X62367640Y-237069520D01*
X62367640Y-237069520D02*
X62367640Y-236069520D01*
X62367640Y-236069520D02*
X63267640Y-236569520D01*
X63284200Y-236072440D02*
X63284200Y-237072440D01*
X65483820Y-235811900D02*
X60083820Y-235811900D01*
X60083820Y-235811900D02*
X60083820Y-237311900D01*
X60083820Y-237311900D02*
X65483820Y-237311900D01*
X65483820Y-237311900D02*
X65483820Y-235811900D01*
X246667640Y-236569520D02*
X245767640Y-237069520D01*
X245767640Y-237069520D02*
X245767640Y-236069520D01*
X245767640Y-236069520D02*
X246667640Y-236569520D01*
X246684200Y-236072440D02*
X246684200Y-237072440D01*
X248883820Y-235811900D02*
X243483820Y-235811900D01*
X243483820Y-235811900D02*
X243483820Y-237311900D01*
X243483820Y-237311900D02*
X248883820Y-237311900D01*
X248883820Y-237311900D02*
X248883820Y-235811900D01*
X227567640Y-236569520D02*
X226667640Y-237069520D01*
X226667640Y-237069520D02*
X226667640Y-236069520D01*
X226667640Y-236069520D02*
X227567640Y-236569520D01*
X227584200Y-236072440D02*
X227584200Y-237072440D01*
X229783820Y-235811900D02*
X224383820Y-235811900D01*
X224383820Y-235811900D02*
X224383820Y-237311900D01*
X224383820Y-237311900D02*
X229783820Y-237311900D01*
X229783820Y-237311900D02*
X229783820Y-235811900D01*
X208567640Y-236569520D02*
X207667640Y-237069520D01*
X207667640Y-237069520D02*
X207667640Y-236069520D01*
X207667640Y-236069520D02*
X208567640Y-236569520D01*
X208584200Y-236072440D02*
X208584200Y-237072440D01*
X210783820Y-235811900D02*
X205383820Y-235811900D01*
X205383820Y-235811900D02*
X205383820Y-237311900D01*
X205383820Y-237311900D02*
X210783820Y-237311900D01*
X210783820Y-237311900D02*
X210783820Y-235811900D01*
X151417640Y-236569520D02*
X150517640Y-237069520D01*
X150517640Y-237069520D02*
X150517640Y-236069520D01*
X150517640Y-236069520D02*
X151417640Y-236569520D01*
X151434200Y-236072440D02*
X151434200Y-237072440D01*
X153633820Y-235811900D02*
X148233820Y-235811900D01*
X148233820Y-235811900D02*
X148233820Y-237311900D01*
X148233820Y-237311900D02*
X153633820Y-237311900D01*
X153633820Y-237311900D02*
X153633820Y-235811900D01*
X132367640Y-236569520D02*
X131467640Y-237069520D01*
X131467640Y-237069520D02*
X131467640Y-236069520D01*
X131467640Y-236069520D02*
X132367640Y-236569520D01*
X132384200Y-236072440D02*
X132384200Y-237072440D01*
X134583820Y-235811900D02*
X129183820Y-235811900D01*
X129183820Y-235811900D02*
X129183820Y-237311900D01*
X129183820Y-237311900D02*
X134583820Y-237311900D01*
X134583820Y-237311900D02*
X134583820Y-235811900D01*
X246667640Y-217569520D02*
X245767640Y-218069520D01*
X245767640Y-218069520D02*
X245767640Y-217069520D01*
X245767640Y-217069520D02*
X246667640Y-217569520D01*
X246684200Y-217072440D02*
X246684200Y-218072440D01*
X248883820Y-216811900D02*
X243483820Y-216811900D01*
X243483820Y-216811900D02*
X243483820Y-218311900D01*
X243483820Y-218311900D02*
X248883820Y-218311900D01*
X248883820Y-218311900D02*
X248883820Y-216811900D01*
X227617640Y-217619520D02*
X226717640Y-218119520D01*
X226717640Y-218119520D02*
X226717640Y-217119520D01*
X226717640Y-217119520D02*
X227617640Y-217619520D01*
X227634200Y-217122440D02*
X227634200Y-218122440D01*
X229833820Y-216861900D02*
X224433820Y-216861900D01*
X224433820Y-216861900D02*
X224433820Y-218361900D01*
X224433820Y-218361900D02*
X229833820Y-218361900D01*
X229833820Y-218361900D02*
X229833820Y-216861900D01*
X208567640Y-217569520D02*
X207667640Y-218069520D01*
X207667640Y-218069520D02*
X207667640Y-217069520D01*
X207667640Y-217069520D02*
X208567640Y-217569520D01*
X208584200Y-217072440D02*
X208584200Y-218072440D01*
X210783820Y-216811900D02*
X205383820Y-216811900D01*
X205383820Y-216811900D02*
X205383820Y-218311900D01*
X205383820Y-218311900D02*
X210783820Y-218311900D01*
X210783820Y-218311900D02*
X210783820Y-216811900D01*
X146667640Y-217569520D02*
X145767640Y-218069520D01*
X145767640Y-218069520D02*
X145767640Y-217069520D01*
X145767640Y-217069520D02*
X146667640Y-217569520D01*
X146684200Y-217072440D02*
X146684200Y-218072440D01*
X148883820Y-216811900D02*
X143483820Y-216811900D01*
X143483820Y-216811900D02*
X143483820Y-218311900D01*
X143483820Y-218311900D02*
X148883820Y-218311900D01*
X148883820Y-218311900D02*
X148883820Y-216811900D01*
X127617640Y-217569520D02*
X126717640Y-218069520D01*
X126717640Y-218069520D02*
X126717640Y-217069520D01*
X126717640Y-217069520D02*
X127617640Y-217569520D01*
X127634200Y-217072440D02*
X127634200Y-218072440D01*
X129833820Y-216811900D02*
X124433820Y-216811900D01*
X124433820Y-216811900D02*
X124433820Y-218311900D01*
X124433820Y-218311900D02*
X129833820Y-218311900D01*
X129833820Y-218311900D02*
X129833820Y-216811900D01*
X106517640Y-217569520D02*
X105617640Y-218069520D01*
X105617640Y-218069520D02*
X105617640Y-217069520D01*
X105617640Y-217069520D02*
X106517640Y-217569520D01*
X106534200Y-217072440D02*
X106534200Y-218072440D01*
X108733820Y-216811900D02*
X103333820Y-216811900D01*
X103333820Y-216811900D02*
X103333820Y-218311900D01*
X103333820Y-218311900D02*
X108733820Y-218311900D01*
X108733820Y-218311900D02*
X108733820Y-216811900D01*
X89517640Y-217569520D02*
X88617640Y-218069520D01*
X88617640Y-218069520D02*
X88617640Y-217069520D01*
X88617640Y-217069520D02*
X89517640Y-217569520D01*
X89534200Y-217072440D02*
X89534200Y-218072440D01*
X91733820Y-216811900D02*
X86333820Y-216811900D01*
X86333820Y-216811900D02*
X86333820Y-218311900D01*
X86333820Y-218311900D02*
X91733820Y-218311900D01*
X91733820Y-218311900D02*
X91733820Y-216811900D01*
X70417640Y-217569520D02*
X69517640Y-218069520D01*
X69517640Y-218069520D02*
X69517640Y-217069520D01*
X69517640Y-217069520D02*
X70417640Y-217569520D01*
X70434200Y-217072440D02*
X70434200Y-218072440D01*
X72633820Y-216811900D02*
X67233820Y-216811900D01*
X67233820Y-216811900D02*
X67233820Y-218311900D01*
X67233820Y-218311900D02*
X72633820Y-218311900D01*
X72633820Y-218311900D02*
X72633820Y-216811900D01*
X51417640Y-217569520D02*
X50517640Y-218069520D01*
X50517640Y-218069520D02*
X50517640Y-217069520D01*
X50517640Y-217069520D02*
X51417640Y-217569520D01*
X51434200Y-217072440D02*
X51434200Y-218072440D01*
X53633820Y-216811900D02*
X48233820Y-216811900D01*
X48233820Y-216811900D02*
X48233820Y-218311900D01*
X48233820Y-218311900D02*
X53633820Y-218311900D01*
X53633820Y-218311900D02*
X53633820Y-216811900D01*
X30317640Y-217569520D02*
X29417640Y-218069520D01*
X29417640Y-218069520D02*
X29417640Y-217069520D01*
X29417640Y-217069520D02*
X30317640Y-217569520D01*
X30334200Y-217072440D02*
X30334200Y-218072440D01*
X32533820Y-216811900D02*
X27133820Y-216811900D01*
X27133820Y-216811900D02*
X27133820Y-218311900D01*
X27133820Y-218311900D02*
X32533820Y-218311900D01*
X32533820Y-218311900D02*
X32533820Y-216811900D01*
X156217640Y-198469520D02*
X155317640Y-198969520D01*
X155317640Y-198969520D02*
X155317640Y-197969520D01*
X155317640Y-197969520D02*
X156217640Y-198469520D01*
X156234200Y-197972440D02*
X156234200Y-198972440D01*
X158433820Y-197711900D02*
X153033820Y-197711900D01*
X153033820Y-197711900D02*
X153033820Y-199211900D01*
X153033820Y-199211900D02*
X158433820Y-199211900D01*
X158433820Y-199211900D02*
X158433820Y-197711900D01*
X137117640Y-198469520D02*
X136217640Y-198969520D01*
X136217640Y-198969520D02*
X136217640Y-197969520D01*
X136217640Y-197969520D02*
X137117640Y-198469520D01*
X137134200Y-197972440D02*
X137134200Y-198972440D01*
X139333820Y-197711900D02*
X133933820Y-197711900D01*
X133933820Y-197711900D02*
X133933820Y-199211900D01*
X133933820Y-199211900D02*
X139333820Y-199211900D01*
X139333820Y-199211900D02*
X139333820Y-197711900D01*
X118067640Y-198469520D02*
X117167640Y-198969520D01*
X117167640Y-198969520D02*
X117167640Y-197969520D01*
X117167640Y-197969520D02*
X118067640Y-198469520D01*
X118084200Y-197972440D02*
X118084200Y-198972440D01*
X120283820Y-197711900D02*
X114883820Y-197711900D01*
X114883820Y-197711900D02*
X114883820Y-199211900D01*
X114883820Y-199211900D02*
X120283820Y-199211900D01*
X120283820Y-199211900D02*
X120283820Y-197711900D01*
X99017640Y-198469520D02*
X98117640Y-198969520D01*
X98117640Y-198969520D02*
X98117640Y-197969520D01*
X98117640Y-197969520D02*
X99017640Y-198469520D01*
X99034200Y-197972440D02*
X99034200Y-198972440D01*
X101233820Y-197711900D02*
X95833820Y-197711900D01*
X95833820Y-197711900D02*
X95833820Y-199211900D01*
X95833820Y-199211900D02*
X101233820Y-199211900D01*
X101233820Y-199211900D02*
X101233820Y-197711900D01*
X79967640Y-198469520D02*
X79067640Y-198969520D01*
X79067640Y-198969520D02*
X79067640Y-197969520D01*
X79067640Y-197969520D02*
X79967640Y-198469520D01*
X79984200Y-197972440D02*
X79984200Y-198972440D01*
X82183820Y-197711900D02*
X76783820Y-197711900D01*
X76783820Y-197711900D02*
X76783820Y-199211900D01*
X76783820Y-199211900D02*
X82183820Y-199211900D01*
X82183820Y-199211900D02*
X82183820Y-197711900D01*
X60917640Y-198469520D02*
X60017640Y-198969520D01*
X60017640Y-198969520D02*
X60017640Y-197969520D01*
X60017640Y-197969520D02*
X60917640Y-198469520D01*
X60934200Y-197972440D02*
X60934200Y-198972440D01*
X63133820Y-197711900D02*
X57733820Y-197711900D01*
X57733820Y-197711900D02*
X57733820Y-199211900D01*
X57733820Y-199211900D02*
X63133820Y-199211900D01*
X63133820Y-199211900D02*
X63133820Y-197711900D01*
X41867640Y-198469520D02*
X40967640Y-198969520D01*
X40967640Y-198969520D02*
X40967640Y-197969520D01*
X40967640Y-197969520D02*
X41867640Y-198469520D01*
X41884200Y-197972440D02*
X41884200Y-198972440D01*
X44083820Y-197711900D02*
X38683820Y-197711900D01*
X38683820Y-197711900D02*
X38683820Y-199211900D01*
X38683820Y-199211900D02*
X44083820Y-199211900D01*
X44083820Y-199211900D02*
X44083820Y-197711900D01*
X244567640Y-179419520D02*
X243667640Y-179919520D01*
X243667640Y-179919520D02*
X243667640Y-178919520D01*
X243667640Y-178919520D02*
X244567640Y-179419520D01*
X244584200Y-178922440D02*
X244584200Y-179922440D01*
X246783820Y-178661900D02*
X241383820Y-178661900D01*
X241383820Y-178661900D02*
X241383820Y-180161900D01*
X241383820Y-180161900D02*
X246783820Y-180161900D01*
X246783820Y-180161900D02*
X246783820Y-178661900D01*
X227617640Y-179469520D02*
X226717640Y-179969520D01*
X226717640Y-179969520D02*
X226717640Y-178969520D01*
X226717640Y-178969520D02*
X227617640Y-179469520D01*
X227634200Y-178972440D02*
X227634200Y-179972440D01*
X229833820Y-178711900D02*
X224433820Y-178711900D01*
X224433820Y-178711900D02*
X224433820Y-180211900D01*
X224433820Y-180211900D02*
X229833820Y-180211900D01*
X229833820Y-180211900D02*
X229833820Y-178711900D01*
X208567640Y-179419520D02*
X207667640Y-179919520D01*
X207667640Y-179919520D02*
X207667640Y-178919520D01*
X207667640Y-178919520D02*
X208567640Y-179419520D01*
X208584200Y-178922440D02*
X208584200Y-179922440D01*
X210783820Y-178661900D02*
X205383820Y-178661900D01*
X205383820Y-178661900D02*
X205383820Y-180161900D01*
X205383820Y-180161900D02*
X210783820Y-180161900D01*
X210783820Y-180161900D02*
X210783820Y-178661900D01*
X151417640Y-179519520D02*
X150517640Y-180019520D01*
X150517640Y-180019520D02*
X150517640Y-179019520D01*
X150517640Y-179019520D02*
X151417640Y-179519520D01*
X151434200Y-179022440D02*
X151434200Y-180022440D01*
X153633820Y-178761900D02*
X148233820Y-178761900D01*
X148233820Y-178761900D02*
X148233820Y-180261900D01*
X148233820Y-180261900D02*
X153633820Y-180261900D01*
X153633820Y-180261900D02*
X153633820Y-178761900D01*
X132367640Y-179419520D02*
X131467640Y-179919520D01*
X131467640Y-179919520D02*
X131467640Y-178919520D01*
X131467640Y-178919520D02*
X132367640Y-179419520D01*
X132384200Y-178922440D02*
X132384200Y-179922440D01*
X134583820Y-178661900D02*
X129183820Y-178661900D01*
X129183820Y-178661900D02*
X129183820Y-180161900D01*
X129183820Y-180161900D02*
X134583820Y-180161900D01*
X134583820Y-180161900D02*
X134583820Y-178661900D01*
X113317640Y-179419520D02*
X112417640Y-179919520D01*
X112417640Y-179919520D02*
X112417640Y-178919520D01*
X112417640Y-178919520D02*
X113317640Y-179419520D01*
X113334200Y-178922440D02*
X113334200Y-179922440D01*
X115533820Y-178661900D02*
X110133820Y-178661900D01*
X110133820Y-178661900D02*
X110133820Y-180161900D01*
X110133820Y-180161900D02*
X115533820Y-180161900D01*
X115533820Y-180161900D02*
X115533820Y-178661900D01*
X94267640Y-179419520D02*
X93367640Y-179919520D01*
X93367640Y-179919520D02*
X93367640Y-178919520D01*
X93367640Y-178919520D02*
X94267640Y-179419520D01*
X94284200Y-178922440D02*
X94284200Y-179922440D01*
X96483820Y-178661900D02*
X91083820Y-178661900D01*
X91083820Y-178661900D02*
X91083820Y-180161900D01*
X91083820Y-180161900D02*
X96483820Y-180161900D01*
X96483820Y-180161900D02*
X96483820Y-178661900D01*
X75217640Y-179319520D02*
X74317640Y-179819520D01*
X74317640Y-179819520D02*
X74317640Y-178819520D01*
X74317640Y-178819520D02*
X75217640Y-179319520D01*
X75234200Y-178822440D02*
X75234200Y-179822440D01*
X77433820Y-178561900D02*
X72033820Y-178561900D01*
X72033820Y-178561900D02*
X72033820Y-180061900D01*
X72033820Y-180061900D02*
X77433820Y-180061900D01*
X77433820Y-180061900D02*
X77433820Y-178561900D01*
X56167640Y-179369520D02*
X55267640Y-179869520D01*
X55267640Y-179869520D02*
X55267640Y-178869520D01*
X55267640Y-178869520D02*
X56167640Y-179369520D01*
X56184200Y-178872440D02*
X56184200Y-179872440D01*
X58383820Y-178611900D02*
X52983820Y-178611900D01*
X52983820Y-178611900D02*
X52983820Y-180111900D01*
X52983820Y-180111900D02*
X58383820Y-180111900D01*
X58383820Y-180111900D02*
X58383820Y-178611900D01*
X37117640Y-179369520D02*
X36217640Y-179869520D01*
X36217640Y-179869520D02*
X36217640Y-178869520D01*
X36217640Y-178869520D02*
X37117640Y-179369520D01*
X37134200Y-178872440D02*
X37134200Y-179872440D01*
X39333820Y-178611900D02*
X33933820Y-178611900D01*
X33933820Y-178611900D02*
X33933820Y-180111900D01*
X33933820Y-180111900D02*
X39333820Y-180111900D01*
X39333820Y-180111900D02*
X39333820Y-178611900D01*
X244667640Y-160419520D02*
X243767640Y-160919520D01*
X243767640Y-160919520D02*
X243767640Y-159919520D01*
X243767640Y-159919520D02*
X244667640Y-160419520D01*
X244684200Y-159922440D02*
X244684200Y-160922440D01*
X246883820Y-159661900D02*
X241483820Y-159661900D01*
X241483820Y-159661900D02*
X241483820Y-161161900D01*
X241483820Y-161161900D02*
X246883820Y-161161900D01*
X246883820Y-161161900D02*
X246883820Y-159661900D01*
X227617640Y-160469520D02*
X226717640Y-160969520D01*
X226717640Y-160969520D02*
X226717640Y-159969520D01*
X226717640Y-159969520D02*
X227617640Y-160469520D01*
X227634200Y-159972440D02*
X227634200Y-160972440D01*
X229833820Y-159711900D02*
X224433820Y-159711900D01*
X224433820Y-159711900D02*
X224433820Y-161211900D01*
X224433820Y-161211900D02*
X229833820Y-161211900D01*
X229833820Y-161211900D02*
X229833820Y-159711900D01*
X208567640Y-160469520D02*
X207667640Y-160969520D01*
X207667640Y-160969520D02*
X207667640Y-159969520D01*
X207667640Y-159969520D02*
X208567640Y-160469520D01*
X208584200Y-159972440D02*
X208584200Y-160972440D01*
X210783820Y-159711900D02*
X205383820Y-159711900D01*
X205383820Y-159711900D02*
X205383820Y-161211900D01*
X205383820Y-161211900D02*
X210783820Y-161211900D01*
X210783820Y-161211900D02*
X210783820Y-159711900D01*
X179967640Y-160469520D02*
X179067640Y-160969520D01*
X179067640Y-160969520D02*
X179067640Y-159969520D01*
X179067640Y-159969520D02*
X179967640Y-160469520D01*
X179984200Y-159972440D02*
X179984200Y-160972440D01*
X182183820Y-159711900D02*
X176783820Y-159711900D01*
X176783820Y-159711900D02*
X176783820Y-161211900D01*
X176783820Y-161211900D02*
X182183820Y-161211900D01*
X182183820Y-161211900D02*
X182183820Y-159711900D01*
X160967640Y-160469520D02*
X160067640Y-160969520D01*
X160067640Y-160969520D02*
X160067640Y-159969520D01*
X160067640Y-159969520D02*
X160967640Y-160469520D01*
X160984200Y-159972440D02*
X160984200Y-160972440D01*
X163183820Y-159711900D02*
X157783820Y-159711900D01*
X157783820Y-159711900D02*
X157783820Y-161211900D01*
X157783820Y-161211900D02*
X163183820Y-161211900D01*
X163183820Y-161211900D02*
X163183820Y-159711900D01*
X141867640Y-160419520D02*
X140967640Y-160919520D01*
X140967640Y-160919520D02*
X140967640Y-159919520D01*
X140967640Y-159919520D02*
X141867640Y-160419520D01*
X141884200Y-159922440D02*
X141884200Y-160922440D01*
X144083820Y-159661900D02*
X138683820Y-159661900D01*
X138683820Y-159661900D02*
X138683820Y-161161900D01*
X138683820Y-161161900D02*
X144083820Y-161161900D01*
X144083820Y-161161900D02*
X144083820Y-159661900D01*
X122867640Y-160419520D02*
X121967640Y-160919520D01*
X121967640Y-160919520D02*
X121967640Y-159919520D01*
X121967640Y-159919520D02*
X122867640Y-160419520D01*
X122884200Y-159922440D02*
X122884200Y-160922440D01*
X125083820Y-159661900D02*
X119683820Y-159661900D01*
X119683820Y-159661900D02*
X119683820Y-161161900D01*
X119683820Y-161161900D02*
X125083820Y-161161900D01*
X125083820Y-161161900D02*
X125083820Y-159661900D01*
X103867640Y-160419520D02*
X102967640Y-160919520D01*
X102967640Y-160919520D02*
X102967640Y-159919520D01*
X102967640Y-159919520D02*
X103867640Y-160419520D01*
X103884200Y-159922440D02*
X103884200Y-160922440D01*
X106083820Y-159661900D02*
X100683820Y-159661900D01*
X100683820Y-159661900D02*
X100683820Y-161161900D01*
X100683820Y-161161900D02*
X106083820Y-161161900D01*
X106083820Y-161161900D02*
X106083820Y-159661900D01*
X84767640Y-160419520D02*
X83867640Y-160919520D01*
X83867640Y-160919520D02*
X83867640Y-159919520D01*
X83867640Y-159919520D02*
X84767640Y-160419520D01*
X84784200Y-159922440D02*
X84784200Y-160922440D01*
X86983820Y-159661900D02*
X81583820Y-159661900D01*
X81583820Y-159661900D02*
X81583820Y-161161900D01*
X81583820Y-161161900D02*
X86983820Y-161161900D01*
X86983820Y-161161900D02*
X86983820Y-159661900D01*
X65917640Y-160469520D02*
X65017640Y-160969520D01*
X65017640Y-160969520D02*
X65017640Y-159969520D01*
X65017640Y-159969520D02*
X65917640Y-160469520D01*
X65934200Y-159972440D02*
X65934200Y-160972440D01*
X68133820Y-159711900D02*
X62733820Y-159711900D01*
X62733820Y-159711900D02*
X62733820Y-161211900D01*
X62733820Y-161211900D02*
X68133820Y-161211900D01*
X68133820Y-161211900D02*
X68133820Y-159711900D01*
X46667640Y-160469520D02*
X45767640Y-160969520D01*
X45767640Y-160969520D02*
X45767640Y-159969520D01*
X45767640Y-159969520D02*
X46667640Y-160469520D01*
X46684200Y-159972440D02*
X46684200Y-160972440D01*
X48883820Y-159711900D02*
X43483820Y-159711900D01*
X43483820Y-159711900D02*
X43483820Y-161211900D01*
X43483820Y-161211900D02*
X48883820Y-161211900D01*
X48883820Y-161211900D02*
X48883820Y-159711900D01*
X27667640Y-160469520D02*
X26767640Y-160969520D01*
X26767640Y-160969520D02*
X26767640Y-159969520D01*
X26767640Y-159969520D02*
X27667640Y-160469520D01*
X27684200Y-159972440D02*
X27684200Y-160972440D01*
X29883820Y-159711900D02*
X24483820Y-159711900D01*
X24483820Y-159711900D02*
X24483820Y-161211900D01*
X24483820Y-161211900D02*
X29883820Y-161211900D01*
X29883820Y-161211900D02*
X29883820Y-159711900D01*
X246933820Y-137261900D02*
X246933820Y-135761900D01*
X241533820Y-137261900D02*
X246933820Y-137261900D01*
X241533820Y-135761900D02*
X241533820Y-137261900D01*
X246933820Y-135761900D02*
X241533820Y-135761900D01*
X244734200Y-136022440D02*
X244734200Y-137022440D01*
X243817640Y-136019520D02*
X244717640Y-136519520D01*
X243817640Y-137019520D02*
X243817640Y-136019520D01*
X244717640Y-136519520D02*
X243817640Y-137019520D01*
X229783820Y-137211900D02*
X229783820Y-135711900D01*
X224383820Y-137211900D02*
X229783820Y-137211900D01*
X224383820Y-135711900D02*
X224383820Y-137211900D01*
X229783820Y-135711900D02*
X224383820Y-135711900D01*
X227584200Y-135972440D02*
X227584200Y-136972440D01*
X226667640Y-135969520D02*
X227567640Y-136469520D01*
X226667640Y-136969520D02*
X226667640Y-135969520D01*
X227567640Y-136469520D02*
X226667640Y-136969520D01*
X210783820Y-137211900D02*
X210783820Y-135711900D01*
X205383820Y-137211900D02*
X210783820Y-137211900D01*
X205383820Y-135711900D02*
X205383820Y-137211900D01*
X210783820Y-135711900D02*
X205383820Y-135711900D01*
X208584200Y-135972440D02*
X208584200Y-136972440D01*
X207667640Y-135969520D02*
X208567640Y-136469520D01*
X207667640Y-136969520D02*
X207667640Y-135969520D01*
X208567640Y-136469520D02*
X207667640Y-136969520D01*
X182183820Y-137261900D02*
X182183820Y-135761900D01*
X176783820Y-137261900D02*
X182183820Y-137261900D01*
X176783820Y-135761900D02*
X176783820Y-137261900D01*
X182183820Y-135761900D02*
X176783820Y-135761900D01*
X179984200Y-136022440D02*
X179984200Y-137022440D01*
X179067640Y-136019520D02*
X179967640Y-136519520D01*
X179067640Y-137019520D02*
X179067640Y-136019520D01*
X179967640Y-136519520D02*
X179067640Y-137019520D01*
X161133820Y-137261900D02*
X161133820Y-135761900D01*
X155733820Y-137261900D02*
X161133820Y-137261900D01*
X155733820Y-135761900D02*
X155733820Y-137261900D01*
X161133820Y-135761900D02*
X155733820Y-135761900D01*
X158934200Y-136022440D02*
X158934200Y-137022440D01*
X158017640Y-136019520D02*
X158917640Y-136519520D01*
X158017640Y-137019520D02*
X158017640Y-136019520D01*
X158917640Y-136519520D02*
X158017640Y-137019520D01*
X142083820Y-137211900D02*
X142083820Y-135711900D01*
X136683820Y-137211900D02*
X142083820Y-137211900D01*
X136683820Y-135711900D02*
X136683820Y-137211900D01*
X142083820Y-135711900D02*
X136683820Y-135711900D01*
X139884200Y-135972440D02*
X139884200Y-136972440D01*
X138967640Y-135969520D02*
X139867640Y-136469520D01*
X138967640Y-136969520D02*
X138967640Y-135969520D01*
X139867640Y-136469520D02*
X138967640Y-136969520D01*
X123033820Y-137211900D02*
X123033820Y-135711900D01*
X117633820Y-137211900D02*
X123033820Y-137211900D01*
X117633820Y-135711900D02*
X117633820Y-137211900D01*
X123033820Y-135711900D02*
X117633820Y-135711900D01*
X120834200Y-135972440D02*
X120834200Y-136972440D01*
X119917640Y-135969520D02*
X120817640Y-136469520D01*
X119917640Y-136969520D02*
X119917640Y-135969520D01*
X120817640Y-136469520D02*
X119917640Y-136969520D01*
X96483820Y-137211900D02*
X96483820Y-135711900D01*
X91083820Y-137211900D02*
X96483820Y-137211900D01*
X91083820Y-135711900D02*
X91083820Y-137211900D01*
X96483820Y-135711900D02*
X91083820Y-135711900D01*
X94284200Y-135972440D02*
X94284200Y-136972440D01*
X93367640Y-135969520D02*
X94267640Y-136469520D01*
X93367640Y-136969520D02*
X93367640Y-135969520D01*
X94267640Y-136469520D02*
X93367640Y-136969520D01*
X77433820Y-137211900D02*
X77433820Y-135711900D01*
X72033820Y-137211900D02*
X77433820Y-137211900D01*
X72033820Y-135711900D02*
X72033820Y-137211900D01*
X77433820Y-135711900D02*
X72033820Y-135711900D01*
X75234200Y-135972440D02*
X75234200Y-136972440D01*
X74317640Y-135969520D02*
X75217640Y-136469520D01*
X74317640Y-136969520D02*
X74317640Y-135969520D01*
X75217640Y-136469520D02*
X74317640Y-136969520D01*
X58383820Y-137211900D02*
X58383820Y-135711900D01*
X52983820Y-137211900D02*
X58383820Y-137211900D01*
X52983820Y-135711900D02*
X52983820Y-137211900D01*
X58383820Y-135711900D02*
X52983820Y-135711900D01*
X56184200Y-135972440D02*
X56184200Y-136972440D01*
X55267640Y-135969520D02*
X56167640Y-136469520D01*
X55267640Y-136969520D02*
X55267640Y-135969520D01*
X56167640Y-136469520D02*
X55267640Y-136969520D01*
X39333820Y-137211900D02*
X39333820Y-135711900D01*
X33933820Y-137211900D02*
X39333820Y-137211900D01*
X33933820Y-135711900D02*
X33933820Y-137211900D01*
X39333820Y-135711900D02*
X33933820Y-135711900D01*
X37134200Y-135972440D02*
X37134200Y-136972440D01*
X36217640Y-135969520D02*
X37117640Y-136469520D01*
X36217640Y-136969520D02*
X36217640Y-135969520D01*
X37117640Y-136469520D02*
X36217640Y-136969520D01*
X228961904Y-107550476D02*
X228161904Y-107550476D01*
X228161904Y-107360000D01*
X228200000Y-107245714D01*
X228276190Y-107169523D01*
X228352380Y-107131428D01*
X228504761Y-107093333D01*
X228619047Y-107093333D01*
X228771428Y-107131428D01*
X228847619Y-107169523D01*
X228923809Y-107245714D01*
X228961904Y-107360000D01*
X228961904Y-107550476D01*
X228161904Y-106369523D02*
X228161904Y-106750476D01*
X228542857Y-106788571D01*
X228504761Y-106750476D01*
X228466666Y-106674285D01*
X228466666Y-106483809D01*
X228504761Y-106407619D01*
X228542857Y-106369523D01*
X228619047Y-106331428D01*
X228809523Y-106331428D01*
X228885714Y-106369523D01*
X228923809Y-106407619D01*
X228961904Y-106483809D01*
X228961904Y-106674285D01*
X228923809Y-106750476D01*
X228885714Y-106788571D01*
X228542857Y-112306666D02*
X228542857Y-112573333D01*
X228961904Y-112573333D02*
X228161904Y-112573333D01*
X228161904Y-112192380D01*
X228961904Y-111468571D02*
X228961904Y-111925714D01*
X228961904Y-111697142D02*
X228161904Y-111697142D01*
X228276190Y-111773333D01*
X228352380Y-111849523D01*
X228390476Y-111925714D01*
X228885714Y-109633333D02*
X228923809Y-109671428D01*
X228961904Y-109785714D01*
X228961904Y-109861904D01*
X228923809Y-109976190D01*
X228847619Y-110052380D01*
X228771428Y-110090476D01*
X228619047Y-110128571D01*
X228504761Y-110128571D01*
X228352380Y-110090476D01*
X228276190Y-110052380D01*
X228200000Y-109976190D01*
X228161904Y-109861904D01*
X228161904Y-109785714D01*
X228200000Y-109671428D01*
X228238095Y-109633333D01*
X228161904Y-109366666D02*
X228161904Y-108833333D01*
X228961904Y-109176190D01*
X228135008Y-115664297D02*
X228182148Y-115758578D01*
X228182148Y-115805719D01*
X228158578Y-115876429D01*
X228087867Y-115947140D01*
X228017157Y-115970710D01*
X227970016Y-115970710D01*
X227899306Y-115947140D01*
X227710744Y-115758578D01*
X228205719Y-115263603D01*
X228370710Y-115428595D01*
X228394280Y-115499306D01*
X228394280Y-115546446D01*
X228370710Y-115617157D01*
X228323570Y-115664297D01*
X228252859Y-115687867D01*
X228205719Y-115687867D01*
X228135008Y-115664297D01*
X227970016Y-115499306D01*
X228912825Y-115970710D02*
X228818544Y-115876429D01*
X228747834Y-115852859D01*
X228700693Y-115852859D01*
X228582842Y-115876429D01*
X228464991Y-115947140D01*
X228276429Y-116135702D01*
X228252859Y-116206412D01*
X228252859Y-116253553D01*
X228276429Y-116324264D01*
X228370710Y-116418544D01*
X228441421Y-116442115D01*
X228488561Y-116442115D01*
X228559272Y-116418544D01*
X228677123Y-116300693D01*
X228700693Y-116229983D01*
X228700693Y-116182842D01*
X228677123Y-116112132D01*
X228582842Y-116017851D01*
X228512132Y-115994280D01*
X228464991Y-115994280D01*
X228394280Y-116017851D01*
X228350000Y-114233333D02*
X228350000Y-114466666D01*
X228716666Y-114466666D02*
X228016666Y-114466666D01*
X228016666Y-114133333D01*
X228016666Y-113733333D02*
X228016666Y-113666666D01*
X228050000Y-113600000D01*
X228083333Y-113566666D01*
X228150000Y-113533333D01*
X228283333Y-113500000D01*
X228450000Y-113500000D01*
X228583333Y-113533333D01*
X228650000Y-113566666D01*
X228683333Y-113600000D01*
X228716666Y-113666666D01*
X228716666Y-113733333D01*
X228683333Y-113800000D01*
X228650000Y-113833333D01*
X228583333Y-113866666D01*
X228450000Y-113900000D01*
X228283333Y-113900000D01*
X228150000Y-113866666D01*
X228083333Y-113833333D01*
X228050000Y-113800000D01*
X228016666Y-113733333D01*
X228350000Y-105283333D02*
X228383333Y-105183333D01*
X228416666Y-105150000D01*
X228483333Y-105116666D01*
X228583333Y-105116666D01*
X228650000Y-105150000D01*
X228683333Y-105183333D01*
X228716666Y-105250000D01*
X228716666Y-105516666D01*
X228016666Y-105516666D01*
X228016666Y-105283333D01*
X228050000Y-105216666D01*
X228083333Y-105183333D01*
X228150000Y-105150000D01*
X228216666Y-105150000D01*
X228283333Y-105183333D01*
X228316666Y-105216666D01*
X228350000Y-105283333D01*
X228350000Y-105516666D01*
X228016666Y-104883333D02*
X228016666Y-104416666D01*
X228716666Y-104716666D01*
X254531904Y-108118604D02*
X254531904Y-107661461D01*
X255331904Y-107890032D02*
X254531904Y-107890032D01*
X254531904Y-107470985D02*
X255331904Y-106937651D01*
X254531904Y-106937651D02*
X255331904Y-107470985D01*
X254531904Y-106480508D02*
X254531904Y-106404318D01*
X254570000Y-106328128D01*
X254608095Y-106290032D01*
X254684285Y-106251937D01*
X254836666Y-106213842D01*
X255027142Y-106213842D01*
X255179523Y-106251937D01*
X255255714Y-106290032D01*
X255293809Y-106328128D01*
X255331904Y-106404318D01*
X255331904Y-106480508D01*
X255293809Y-106556699D01*
X255255714Y-106594794D01*
X255179523Y-106632889D01*
X255027142Y-106670985D01*
X254836666Y-106670985D01*
X254684285Y-106632889D01*
X254608095Y-106594794D01*
X254570000Y-106556699D01*
X254531904Y-106480508D01*
X254493809Y-105299556D02*
X255522380Y-105985270D01*
X255331904Y-105032889D02*
X254531904Y-105032889D01*
X254531904Y-104842413D01*
X254570000Y-104728128D01*
X254646190Y-104651937D01*
X254722380Y-104613842D01*
X254874761Y-104575747D01*
X254989047Y-104575747D01*
X255141428Y-104613842D01*
X255217619Y-104651937D01*
X255293809Y-104728128D01*
X255331904Y-104842413D01*
X255331904Y-105032889D01*
X254531904Y-104309080D02*
X254531904Y-103813842D01*
X254836666Y-104080508D01*
X254836666Y-103966223D01*
X254874761Y-103890032D01*
X254912857Y-103851937D01*
X254989047Y-103813842D01*
X255179523Y-103813842D01*
X255255714Y-103851937D01*
X255293809Y-103890032D01*
X255331904Y-103966223D01*
X255331904Y-104194794D01*
X255293809Y-104270985D01*
X255255714Y-104309080D01*
X252791904Y-104629476D02*
X251991904Y-104629476D01*
X251991904Y-104439000D01*
X252030000Y-104324714D01*
X252106190Y-104248523D01*
X252182380Y-104210428D01*
X252334761Y-104172333D01*
X252449047Y-104172333D01*
X252601428Y-104210428D01*
X252677619Y-104248523D01*
X252753809Y-104324714D01*
X252791904Y-104439000D01*
X252791904Y-104629476D01*
X252068095Y-103867571D02*
X252030000Y-103829476D01*
X251991904Y-103753285D01*
X251991904Y-103562809D01*
X252030000Y-103486619D01*
X252068095Y-103448523D01*
X252144285Y-103410428D01*
X252220476Y-103410428D01*
X252334761Y-103448523D01*
X252791904Y-103905666D01*
X252791904Y-103410428D01*
X242631904Y-104629476D02*
X241831904Y-104629476D01*
X241831904Y-104439000D01*
X241870000Y-104324714D01*
X241946190Y-104248523D01*
X242022380Y-104210428D01*
X242174761Y-104172333D01*
X242289047Y-104172333D01*
X242441428Y-104210428D01*
X242517619Y-104248523D01*
X242593809Y-104324714D01*
X242631904Y-104439000D01*
X242631904Y-104629476D01*
X241831904Y-103677095D02*
X241831904Y-103600904D01*
X241870000Y-103524714D01*
X241908095Y-103486619D01*
X241984285Y-103448523D01*
X242136666Y-103410428D01*
X242327142Y-103410428D01*
X242479523Y-103448523D01*
X242555714Y-103486619D01*
X242593809Y-103524714D01*
X242631904Y-103600904D01*
X242631904Y-103677095D01*
X242593809Y-103753285D01*
X242555714Y-103791380D01*
X242479523Y-103829476D01*
X242327142Y-103867571D01*
X242136666Y-103867571D01*
X241984285Y-103829476D01*
X241908095Y-103791380D01*
X241870000Y-103753285D01*
X241831904Y-103677095D01*
X245171904Y-104629476D02*
X244371904Y-104629476D01*
X244371904Y-104439000D01*
X244410000Y-104324714D01*
X244486190Y-104248523D01*
X244562380Y-104210428D01*
X244714761Y-104172333D01*
X244829047Y-104172333D01*
X244981428Y-104210428D01*
X245057619Y-104248523D01*
X245133809Y-104324714D01*
X245171904Y-104439000D01*
X245171904Y-104629476D01*
X245171904Y-103410428D02*
X245171904Y-103867571D01*
X245171904Y-103639000D02*
X244371904Y-103639000D01*
X244486190Y-103715190D01*
X244562380Y-103791380D01*
X244600476Y-103867571D01*
X246950000Y-104648523D02*
X246911904Y-104724714D01*
X246911904Y-104839000D01*
X246950000Y-104953285D01*
X247026190Y-105029476D01*
X247102380Y-105067571D01*
X247254761Y-105105666D01*
X247369047Y-105105666D01*
X247521428Y-105067571D01*
X247597619Y-105029476D01*
X247673809Y-104953285D01*
X247711904Y-104839000D01*
X247711904Y-104762809D01*
X247673809Y-104648523D01*
X247635714Y-104610428D01*
X247369047Y-104610428D01*
X247369047Y-104762809D01*
X247711904Y-104267571D02*
X246911904Y-104267571D01*
X247711904Y-103810428D01*
X246911904Y-103810428D01*
X247711904Y-103429476D02*
X246911904Y-103429476D01*
X246911904Y-103239000D01*
X246950000Y-103124714D01*
X247026190Y-103048523D01*
X247102380Y-103010428D01*
X247254761Y-102972333D01*
X247369047Y-102972333D01*
X247521428Y-103010428D01*
X247597619Y-103048523D01*
X247673809Y-103124714D01*
X247711904Y-103239000D01*
X247711904Y-103429476D01*
X249490000Y-104648523D02*
X249451904Y-104724714D01*
X249451904Y-104839000D01*
X249490000Y-104953285D01*
X249566190Y-105029476D01*
X249642380Y-105067571D01*
X249794761Y-105105666D01*
X249909047Y-105105666D01*
X250061428Y-105067571D01*
X250137619Y-105029476D01*
X250213809Y-104953285D01*
X250251904Y-104839000D01*
X250251904Y-104762809D01*
X250213809Y-104648523D01*
X250175714Y-104610428D01*
X249909047Y-104610428D01*
X249909047Y-104762809D01*
X250251904Y-104267571D02*
X249451904Y-104267571D01*
X250251904Y-103810428D01*
X249451904Y-103810428D01*
X250251904Y-103429476D02*
X249451904Y-103429476D01*
X249451904Y-103239000D01*
X249490000Y-103124714D01*
X249566190Y-103048523D01*
X249642380Y-103010428D01*
X249794761Y-102972333D01*
X249909047Y-102972333D01*
X250061428Y-103010428D01*
X250137619Y-103048523D01*
X250213809Y-103124714D01*
X250251904Y-103239000D01*
X250251904Y-103429476D01*
X240091904Y-104629476D02*
X239291904Y-104629476D01*
X239291904Y-104439000D01*
X239330000Y-104324714D01*
X239406190Y-104248523D01*
X239482380Y-104210428D01*
X239634761Y-104172333D01*
X239749047Y-104172333D01*
X239901428Y-104210428D01*
X239977619Y-104248523D01*
X240053809Y-104324714D01*
X240091904Y-104439000D01*
X240091904Y-104629476D01*
X239558571Y-103486619D02*
X240091904Y-103486619D01*
X239253809Y-103677095D02*
X239825238Y-103867571D01*
X239825238Y-103372333D01*
X237475714Y-104172333D02*
X237513809Y-104210428D01*
X237551904Y-104324714D01*
X237551904Y-104400904D01*
X237513809Y-104515190D01*
X237437619Y-104591380D01*
X237361428Y-104629476D01*
X237209047Y-104667571D01*
X237094761Y-104667571D01*
X236942380Y-104629476D01*
X236866190Y-104591380D01*
X236790000Y-104515190D01*
X236751904Y-104400904D01*
X236751904Y-104324714D01*
X236790000Y-104210428D01*
X236828095Y-104172333D01*
X236751904Y-103486619D02*
X236751904Y-103639000D01*
X236790000Y-103715190D01*
X236828095Y-103753285D01*
X236942380Y-103829476D01*
X237094761Y-103867571D01*
X237399523Y-103867571D01*
X237475714Y-103829476D01*
X237513809Y-103791380D01*
X237551904Y-103715190D01*
X237551904Y-103562809D01*
X237513809Y-103486619D01*
X237475714Y-103448523D01*
X237399523Y-103410428D01*
X237209047Y-103410428D01*
X237132857Y-103448523D01*
X237094761Y-103486619D01*
X237056666Y-103562809D01*
X237056666Y-103715190D01*
X237094761Y-103791380D01*
X237132857Y-103829476D01*
X237209047Y-103867571D01*
X235011904Y-104629476D02*
X234211904Y-104629476D01*
X234211904Y-104439000D01*
X234250000Y-104324714D01*
X234326190Y-104248523D01*
X234402380Y-104210428D01*
X234554761Y-104172333D01*
X234669047Y-104172333D01*
X234821428Y-104210428D01*
X234897619Y-104248523D01*
X234973809Y-104324714D01*
X235011904Y-104439000D01*
X235011904Y-104629476D01*
X234211904Y-103905666D02*
X234211904Y-103372333D01*
X235011904Y-103715190D01*
X232052857Y-104591380D02*
X232052857Y-104324714D01*
X232471904Y-104210428D02*
X232471904Y-104591380D01*
X231671904Y-104591380D01*
X231671904Y-104210428D01*
X231671904Y-103524714D02*
X231671904Y-103677095D01*
X231710000Y-103753285D01*
X231748095Y-103791380D01*
X231862380Y-103867571D01*
X232014761Y-103905666D01*
X232319523Y-103905666D01*
X232395714Y-103867571D01*
X232433809Y-103829476D01*
X232471904Y-103753285D01*
X232471904Y-103600904D01*
X232433809Y-103524714D01*
X232395714Y-103486619D01*
X232319523Y-103448523D01*
X232129047Y-103448523D01*
X232052857Y-103486619D01*
X232014761Y-103524714D01*
X231976666Y-103600904D01*
X231976666Y-103753285D01*
X232014761Y-103829476D01*
X232052857Y-103867571D01*
X232129047Y-103905666D01*
X229512857Y-104362809D02*
X229550952Y-104248523D01*
X229589047Y-104210428D01*
X229665238Y-104172333D01*
X229779523Y-104172333D01*
X229855714Y-104210428D01*
X229893809Y-104248523D01*
X229931904Y-104324714D01*
X229931904Y-104629476D01*
X229131904Y-104629476D01*
X229131904Y-104362809D01*
X229170000Y-104286619D01*
X229208095Y-104248523D01*
X229284285Y-104210428D01*
X229360476Y-104210428D01*
X229436666Y-104248523D01*
X229474761Y-104286619D01*
X229512857Y-104362809D01*
X229512857Y-104629476D01*
X229398571Y-103486619D02*
X229931904Y-103486619D01*
X229093809Y-103677095D02*
X229665238Y-103867571D01*
X229665238Y-103372333D01*
X228064297Y-103264991D02*
X228158578Y-103217851D01*
X228205719Y-103217851D01*
X228276429Y-103241421D01*
X228347140Y-103312132D01*
X228370710Y-103382842D01*
X228370710Y-103429983D01*
X228347140Y-103500693D01*
X228158578Y-103689255D01*
X227663603Y-103194280D01*
X227828595Y-103029289D01*
X227899306Y-103005719D01*
X227946446Y-103005719D01*
X228017157Y-103029289D01*
X228064297Y-103076429D01*
X228087867Y-103147140D01*
X228087867Y-103194280D01*
X228064297Y-103264991D01*
X227899306Y-103429983D01*
X228394280Y-102463603D02*
X228158578Y-102699306D01*
X228370710Y-102958578D01*
X228370710Y-102911438D01*
X228394280Y-102840727D01*
X228512132Y-102722876D01*
X228582842Y-102699306D01*
X228629983Y-102699306D01*
X228700693Y-102722876D01*
X228818544Y-102840727D01*
X228842115Y-102911438D01*
X228842115Y-102958578D01*
X228818544Y-103029289D01*
X228700693Y-103147140D01*
X228629983Y-103170710D01*
X228582842Y-103170710D01*
X232052857Y-115284809D02*
X232090952Y-115170523D01*
X232129047Y-115132428D01*
X232205238Y-115094333D01*
X232319523Y-115094333D01*
X232395714Y-115132428D01*
X232433809Y-115170523D01*
X232471904Y-115246714D01*
X232471904Y-115551476D01*
X231671904Y-115551476D01*
X231671904Y-115284809D01*
X231710000Y-115208619D01*
X231748095Y-115170523D01*
X231824285Y-115132428D01*
X231900476Y-115132428D01*
X231976666Y-115170523D01*
X232014761Y-115208619D01*
X232052857Y-115284809D01*
X232052857Y-115551476D01*
X231671904Y-114827666D02*
X231671904Y-114332428D01*
X231976666Y-114599095D01*
X231976666Y-114484809D01*
X232014761Y-114408619D01*
X232052857Y-114370523D01*
X232129047Y-114332428D01*
X232319523Y-114332428D01*
X232395714Y-114370523D01*
X232433809Y-114408619D01*
X232471904Y-114484809D01*
X232471904Y-114713380D01*
X232433809Y-114789571D01*
X232395714Y-114827666D01*
X234592857Y-115284809D02*
X234630952Y-115170523D01*
X234669047Y-115132428D01*
X234745238Y-115094333D01*
X234859523Y-115094333D01*
X234935714Y-115132428D01*
X234973809Y-115170523D01*
X235011904Y-115246714D01*
X235011904Y-115551476D01*
X234211904Y-115551476D01*
X234211904Y-115284809D01*
X234250000Y-115208619D01*
X234288095Y-115170523D01*
X234364285Y-115132428D01*
X234440476Y-115132428D01*
X234516666Y-115170523D01*
X234554761Y-115208619D01*
X234592857Y-115284809D01*
X234592857Y-115551476D01*
X235011904Y-114332428D02*
X235011904Y-114789571D01*
X235011904Y-114561000D02*
X234211904Y-114561000D01*
X234326190Y-114637190D01*
X234402380Y-114713380D01*
X234440476Y-114789571D01*
X244752857Y-115227666D02*
X244752857Y-115494333D01*
X245171904Y-115494333D02*
X244371904Y-115494333D01*
X244371904Y-115113380D01*
X244638571Y-114465761D02*
X245171904Y-114465761D01*
X244333809Y-114656238D02*
X244905238Y-114846714D01*
X244905238Y-114351476D01*
X246911904Y-116027666D02*
X247711904Y-115761000D01*
X246911904Y-115494333D01*
X247635714Y-114770523D02*
X247673809Y-114808619D01*
X247711904Y-114922904D01*
X247711904Y-114999095D01*
X247673809Y-115113380D01*
X247597619Y-115189571D01*
X247521428Y-115227666D01*
X247369047Y-115265761D01*
X247254761Y-115265761D01*
X247102380Y-115227666D01*
X247026190Y-115189571D01*
X246950000Y-115113380D01*
X246911904Y-114999095D01*
X246911904Y-114922904D01*
X246950000Y-114808619D01*
X246988095Y-114770523D01*
X247635714Y-113970523D02*
X247673809Y-114008619D01*
X247711904Y-114122904D01*
X247711904Y-114199095D01*
X247673809Y-114313380D01*
X247597619Y-114389571D01*
X247521428Y-114427666D01*
X247369047Y-114465761D01*
X247254761Y-114465761D01*
X247102380Y-114427666D01*
X247026190Y-114389571D01*
X246950000Y-114313380D01*
X246911904Y-114199095D01*
X246911904Y-114122904D01*
X246950000Y-114008619D01*
X246988095Y-113970523D01*
X250243809Y-115766453D02*
X250281904Y-115652167D01*
X250281904Y-115461691D01*
X250243809Y-115385500D01*
X250205714Y-115347405D01*
X250129523Y-115309310D01*
X250053333Y-115309310D01*
X249977142Y-115347405D01*
X249939047Y-115385500D01*
X249900952Y-115461691D01*
X249862857Y-115614072D01*
X249824761Y-115690262D01*
X249786666Y-115728358D01*
X249710476Y-115766453D01*
X249634285Y-115766453D01*
X249558095Y-115728358D01*
X249520000Y-115690262D01*
X249481904Y-115614072D01*
X249481904Y-115423596D01*
X249520000Y-115309310D01*
X249481904Y-115080739D02*
X249481904Y-114623596D01*
X250281904Y-114852167D02*
X249481904Y-114852167D01*
X252030000Y-115570523D02*
X251991904Y-115646714D01*
X251991904Y-115761000D01*
X252030000Y-115875285D01*
X252106190Y-115951476D01*
X252182380Y-115989571D01*
X252334761Y-116027666D01*
X252449047Y-116027666D01*
X252601428Y-115989571D01*
X252677619Y-115951476D01*
X252753809Y-115875285D01*
X252791904Y-115761000D01*
X252791904Y-115684809D01*
X252753809Y-115570523D01*
X252715714Y-115532428D01*
X252449047Y-115532428D01*
X252449047Y-115684809D01*
X252791904Y-115189571D02*
X251991904Y-115189571D01*
X252791904Y-114732428D01*
X251991904Y-114732428D01*
X252791904Y-114351476D02*
X251991904Y-114351476D01*
X251991904Y-114161000D01*
X252030000Y-114046714D01*
X252106190Y-113970523D01*
X252182380Y-113932428D01*
X252334761Y-113894333D01*
X252449047Y-113894333D01*
X252601428Y-113932428D01*
X252677619Y-113970523D01*
X252753809Y-114046714D01*
X252791904Y-114161000D01*
X252791904Y-114351476D01*
X254912857Y-115284809D02*
X254950952Y-115170523D01*
X254989047Y-115132428D01*
X255065238Y-115094333D01*
X255179523Y-115094333D01*
X255255714Y-115132428D01*
X255293809Y-115170523D01*
X255331904Y-115246714D01*
X255331904Y-115551476D01*
X254531904Y-115551476D01*
X254531904Y-115284809D01*
X254570000Y-115208619D01*
X254608095Y-115170523D01*
X254684285Y-115132428D01*
X254760476Y-115132428D01*
X254836666Y-115170523D01*
X254874761Y-115208619D01*
X254912857Y-115284809D01*
X254912857Y-115551476D01*
X254531904Y-114599095D02*
X254531904Y-114522904D01*
X254570000Y-114446714D01*
X254608095Y-114408619D01*
X254684285Y-114370523D01*
X254836666Y-114332428D01*
X255027142Y-114332428D01*
X255179523Y-114370523D01*
X255255714Y-114408619D01*
X255293809Y-114446714D01*
X255331904Y-114522904D01*
X255331904Y-114599095D01*
X255293809Y-114675285D01*
X255255714Y-114713380D01*
X255179523Y-114751476D01*
X255027142Y-114789571D01*
X254836666Y-114789571D01*
X254684285Y-114751476D01*
X254608095Y-114713380D01*
X254570000Y-114675285D01*
X254531904Y-114599095D01*
X242212857Y-115227666D02*
X242212857Y-115494333D01*
X242631904Y-115494333D02*
X241831904Y-115494333D01*
X241831904Y-115113380D01*
X241831904Y-114427666D02*
X241831904Y-114808619D01*
X242212857Y-114846714D01*
X242174761Y-114808619D01*
X242136666Y-114732428D01*
X242136666Y-114541952D01*
X242174761Y-114465761D01*
X242212857Y-114427666D01*
X242289047Y-114389571D01*
X242479523Y-114389571D01*
X242555714Y-114427666D01*
X242593809Y-114465761D01*
X242631904Y-114541952D01*
X242631904Y-114732428D01*
X242593809Y-114808619D01*
X242555714Y-114846714D01*
X239672857Y-115227666D02*
X239672857Y-115494333D01*
X240091904Y-115494333D02*
X239291904Y-115494333D01*
X239291904Y-115113380D01*
X239291904Y-114465761D02*
X239291904Y-114618142D01*
X239330000Y-114694333D01*
X239368095Y-114732428D01*
X239482380Y-114808619D01*
X239634761Y-114846714D01*
X239939523Y-114846714D01*
X240015714Y-114808619D01*
X240053809Y-114770523D01*
X240091904Y-114694333D01*
X240091904Y-114541952D01*
X240053809Y-114465761D01*
X240015714Y-114427666D01*
X239939523Y-114389571D01*
X239749047Y-114389571D01*
X239672857Y-114427666D01*
X239634761Y-114465761D01*
X239596666Y-114541952D01*
X239596666Y-114694333D01*
X239634761Y-114770523D01*
X239672857Y-114808619D01*
X239749047Y-114846714D01*
X237132857Y-115227666D02*
X237132857Y-115494333D01*
X237551904Y-115494333D02*
X236751904Y-115494333D01*
X236751904Y-115113380D01*
X236751904Y-114884809D02*
X236751904Y-114351476D01*
X237551904Y-114694333D01*
X229512857Y-115284809D02*
X229550952Y-115170523D01*
X229589047Y-115132428D01*
X229665238Y-115094333D01*
X229779523Y-115094333D01*
X229855714Y-115132428D01*
X229893809Y-115170523D01*
X229931904Y-115246714D01*
X229931904Y-115551476D01*
X229131904Y-115551476D01*
X229131904Y-115284809D01*
X229170000Y-115208619D01*
X229208095Y-115170523D01*
X229284285Y-115132428D01*
X229360476Y-115132428D01*
X229436666Y-115170523D01*
X229474761Y-115208619D01*
X229512857Y-115284809D01*
X229512857Y-115551476D01*
X229208095Y-114789571D02*
X229170000Y-114751476D01*
X229131904Y-114675285D01*
X229131904Y-114484809D01*
X229170000Y-114408619D01*
X229208095Y-114370523D01*
X229284285Y-114332428D01*
X229360476Y-114332428D01*
X229474761Y-114370523D01*
X229931904Y-114827666D01*
X229931904Y-114332428D01*
X250452380Y-110452380D02*
X249976190Y-110785714D01*
X250452380Y-111023809D02*
X249452380Y-111023809D01*
X249452380Y-110642857D01*
X249500000Y-110547619D01*
X249547619Y-110500000D01*
X249642857Y-110452380D01*
X249785714Y-110452380D01*
X249880952Y-110500000D01*
X249928571Y-110547619D01*
X249976190Y-110642857D01*
X249976190Y-111023809D01*
X249928571Y-110023809D02*
X249928571Y-109690476D01*
X250452380Y-109547619D02*
X250452380Y-110023809D01*
X249452380Y-110023809D01*
X249452380Y-109547619D01*
X250404761Y-109166666D02*
X250452380Y-109023809D01*
X250452380Y-108785714D01*
X250404761Y-108690476D01*
X250357142Y-108642857D01*
X250261904Y-108595238D01*
X250166666Y-108595238D01*
X250071428Y-108642857D01*
X250023809Y-108690476D01*
X249976190Y-108785714D01*
X249928571Y-108976190D01*
X249880952Y-109071428D01*
X249833333Y-109119047D01*
X249738095Y-109166666D01*
X249642857Y-109166666D01*
X249547619Y-109119047D01*
X249500000Y-109071428D01*
X249452380Y-108976190D01*
X249452380Y-108738095D01*
X249500000Y-108595238D01*
X249928571Y-108166666D02*
X249928571Y-107833333D01*
X250452380Y-107690476D02*
X250452380Y-108166666D01*
X249452380Y-108166666D01*
X249452380Y-107690476D01*
X249452380Y-107404761D02*
X249452380Y-106833333D01*
X250452380Y-107119047D02*
X249452380Y-107119047D01*
X174842285Y-173248761D02*
X174985142Y-173296380D01*
X175223238Y-173296380D01*
X175318476Y-173248761D01*
X175366095Y-173201142D01*
X175413714Y-173105904D01*
X175413714Y-173010666D01*
X175366095Y-172915428D01*
X175318476Y-172867809D01*
X175223238Y-172820190D01*
X175032761Y-172772571D01*
X174937523Y-172724952D01*
X174889904Y-172677333D01*
X174842285Y-172582095D01*
X174842285Y-172486857D01*
X174889904Y-172391619D01*
X174937523Y-172344000D01*
X175032761Y-172296380D01*
X175270857Y-172296380D01*
X175413714Y-172344000D01*
X175747047Y-172296380D02*
X175985142Y-173296380D01*
X176175619Y-172582095D01*
X176366095Y-173296380D01*
X176604190Y-172296380D01*
X177032761Y-173296380D02*
X177223238Y-173296380D01*
X177318476Y-173248761D01*
X177366095Y-173201142D01*
X177461333Y-173058285D01*
X177508952Y-172867809D01*
X177508952Y-172486857D01*
X177461333Y-172391619D01*
X177413714Y-172344000D01*
X177318476Y-172296380D01*
X177128000Y-172296380D01*
X177032761Y-172344000D01*
X176985142Y-172391619D01*
X176937523Y-172486857D01*
X176937523Y-172724952D01*
X176985142Y-172820190D01*
X177032761Y-172867809D01*
X177128000Y-172915428D01*
X177318476Y-172915428D01*
X177413714Y-172867809D01*
X177461333Y-172820190D01*
X177508952Y-172724952D01*
X178128000Y-172296380D02*
X178223238Y-172296380D01*
X178318476Y-172344000D01*
X178366095Y-172391619D01*
X178413714Y-172486857D01*
X178461333Y-172677333D01*
X178461333Y-172915428D01*
X178413714Y-173105904D01*
X178366095Y-173201142D01*
X178318476Y-173248761D01*
X178223238Y-173296380D01*
X178128000Y-173296380D01*
X178032761Y-173248761D01*
X177985142Y-173201142D01*
X177937523Y-173105904D01*
X177889904Y-172915428D01*
X177889904Y-172677333D01*
X177937523Y-172486857D01*
X177985142Y-172391619D01*
X178032761Y-172344000D01*
X178128000Y-172296380D01*
X179413714Y-173296380D02*
X178842285Y-173296380D01*
X179128000Y-173296380D02*
X179128000Y-172296380D01*
X179032761Y-172439238D01*
X178937523Y-172534476D01*
X178842285Y-172582095D01*
X31924285Y-220860761D02*
X32067142Y-220908380D01*
X32305238Y-220908380D01*
X32400476Y-220860761D01*
X32448095Y-220813142D01*
X32495714Y-220717904D01*
X32495714Y-220622666D01*
X32448095Y-220527428D01*
X32400476Y-220479809D01*
X32305238Y-220432190D01*
X32114761Y-220384571D01*
X32019523Y-220336952D01*
X31971904Y-220289333D01*
X31924285Y-220194095D01*
X31924285Y-220098857D01*
X31971904Y-220003619D01*
X32019523Y-219956000D01*
X32114761Y-219908380D01*
X32352857Y-219908380D01*
X32495714Y-219956000D01*
X32829047Y-219908380D02*
X33067142Y-220908380D01*
X33257619Y-220194095D01*
X33448095Y-220908380D01*
X33686190Y-219908380D01*
X33971904Y-219908380D02*
X34590952Y-219908380D01*
X34257619Y-220289333D01*
X34400476Y-220289333D01*
X34495714Y-220336952D01*
X34543333Y-220384571D01*
X34590952Y-220479809D01*
X34590952Y-220717904D01*
X34543333Y-220813142D01*
X34495714Y-220860761D01*
X34400476Y-220908380D01*
X34114761Y-220908380D01*
X34019523Y-220860761D01*
X33971904Y-220813142D01*
X35210000Y-219908380D02*
X35305238Y-219908380D01*
X35400476Y-219956000D01*
X35448095Y-220003619D01*
X35495714Y-220098857D01*
X35543333Y-220289333D01*
X35543333Y-220527428D01*
X35495714Y-220717904D01*
X35448095Y-220813142D01*
X35400476Y-220860761D01*
X35305238Y-220908380D01*
X35210000Y-220908380D01*
X35114761Y-220860761D01*
X35067142Y-220813142D01*
X35019523Y-220717904D01*
X34971904Y-220527428D01*
X34971904Y-220289333D01*
X35019523Y-220098857D01*
X35067142Y-220003619D01*
X35114761Y-219956000D01*
X35210000Y-219908380D01*
X36448095Y-219908380D02*
X35971904Y-219908380D01*
X35924285Y-220384571D01*
X35971904Y-220336952D01*
X36067142Y-220289333D01*
X36305238Y-220289333D01*
X36400476Y-220336952D01*
X36448095Y-220384571D01*
X36495714Y-220479809D01*
X36495714Y-220717904D01*
X36448095Y-220813142D01*
X36400476Y-220860761D01*
X36305238Y-220908380D01*
X36067142Y-220908380D01*
X35971904Y-220860761D01*
X35924285Y-220813142D01*
X170080285Y-201822761D02*
X170223142Y-201870380D01*
X170461238Y-201870380D01*
X170556476Y-201822761D01*
X170604095Y-201775142D01*
X170651714Y-201679904D01*
X170651714Y-201584666D01*
X170604095Y-201489428D01*
X170556476Y-201441809D01*
X170461238Y-201394190D01*
X170270761Y-201346571D01*
X170175523Y-201298952D01*
X170127904Y-201251333D01*
X170080285Y-201156095D01*
X170080285Y-201060857D01*
X170127904Y-200965619D01*
X170175523Y-200918000D01*
X170270761Y-200870380D01*
X170508857Y-200870380D01*
X170651714Y-200918000D01*
X170985047Y-200870380D02*
X171223142Y-201870380D01*
X171413619Y-201156095D01*
X171604095Y-201870380D01*
X171842190Y-200870380D01*
X172127904Y-200870380D02*
X172746952Y-200870380D01*
X172413619Y-201251333D01*
X172556476Y-201251333D01*
X172651714Y-201298952D01*
X172699333Y-201346571D01*
X172746952Y-201441809D01*
X172746952Y-201679904D01*
X172699333Y-201775142D01*
X172651714Y-201822761D01*
X172556476Y-201870380D01*
X172270761Y-201870380D01*
X172175523Y-201822761D01*
X172127904Y-201775142D01*
X173366000Y-200870380D02*
X173461238Y-200870380D01*
X173556476Y-200918000D01*
X173604095Y-200965619D01*
X173651714Y-201060857D01*
X173699333Y-201251333D01*
X173699333Y-201489428D01*
X173651714Y-201679904D01*
X173604095Y-201775142D01*
X173556476Y-201822761D01*
X173461238Y-201870380D01*
X173366000Y-201870380D01*
X173270761Y-201822761D01*
X173223142Y-201775142D01*
X173175523Y-201679904D01*
X173127904Y-201489428D01*
X173127904Y-201251333D01*
X173175523Y-201060857D01*
X173223142Y-200965619D01*
X173270761Y-200918000D01*
X173366000Y-200870380D01*
X174032666Y-200870380D02*
X174651714Y-200870380D01*
X174318380Y-201251333D01*
X174461238Y-201251333D01*
X174556476Y-201298952D01*
X174604095Y-201346571D01*
X174651714Y-201441809D01*
X174651714Y-201679904D01*
X174604095Y-201775142D01*
X174556476Y-201822761D01*
X174461238Y-201870380D01*
X174175523Y-201870380D01*
X174080285Y-201822761D01*
X174032666Y-201775142D01*
X172462285Y-220872761D02*
X172605142Y-220920380D01*
X172843238Y-220920380D01*
X172938476Y-220872761D01*
X172986095Y-220825142D01*
X173033714Y-220729904D01*
X173033714Y-220634666D01*
X172986095Y-220539428D01*
X172938476Y-220491809D01*
X172843238Y-220444190D01*
X172652761Y-220396571D01*
X172557523Y-220348952D01*
X172509904Y-220301333D01*
X172462285Y-220206095D01*
X172462285Y-220110857D01*
X172509904Y-220015619D01*
X172557523Y-219968000D01*
X172652761Y-219920380D01*
X172890857Y-219920380D01*
X173033714Y-219968000D01*
X173367047Y-219920380D02*
X173605142Y-220920380D01*
X173795619Y-220206095D01*
X173986095Y-220920380D01*
X174224190Y-219920380D01*
X174557523Y-220015619D02*
X174605142Y-219968000D01*
X174700380Y-219920380D01*
X174938476Y-219920380D01*
X175033714Y-219968000D01*
X175081333Y-220015619D01*
X175128952Y-220110857D01*
X175128952Y-220206095D01*
X175081333Y-220348952D01*
X174509904Y-220920380D01*
X175128952Y-220920380D01*
X175748000Y-219920380D02*
X175843238Y-219920380D01*
X175938476Y-219968000D01*
X175986095Y-220015619D01*
X176033714Y-220110857D01*
X176081333Y-220301333D01*
X176081333Y-220539428D01*
X176033714Y-220729904D01*
X175986095Y-220825142D01*
X175938476Y-220872761D01*
X175843238Y-220920380D01*
X175748000Y-220920380D01*
X175652761Y-220872761D01*
X175605142Y-220825142D01*
X175557523Y-220729904D01*
X175509904Y-220539428D01*
X175509904Y-220301333D01*
X175557523Y-220110857D01*
X175605142Y-220015619D01*
X175652761Y-219968000D01*
X175748000Y-219920380D01*
X176462285Y-220015619D02*
X176509904Y-219968000D01*
X176605142Y-219920380D01*
X176843238Y-219920380D01*
X176938476Y-219968000D01*
X176986095Y-220015619D01*
X177033714Y-220110857D01*
X177033714Y-220206095D01*
X176986095Y-220348952D01*
X176414666Y-220920380D01*
X177033714Y-220920380D01*
X108168285Y-220872761D02*
X108311142Y-220920380D01*
X108549238Y-220920380D01*
X108644476Y-220872761D01*
X108692095Y-220825142D01*
X108739714Y-220729904D01*
X108739714Y-220634666D01*
X108692095Y-220539428D01*
X108644476Y-220491809D01*
X108549238Y-220444190D01*
X108358761Y-220396571D01*
X108263523Y-220348952D01*
X108215904Y-220301333D01*
X108168285Y-220206095D01*
X108168285Y-220110857D01*
X108215904Y-220015619D01*
X108263523Y-219968000D01*
X108358761Y-219920380D01*
X108596857Y-219920380D01*
X108739714Y-219968000D01*
X109073047Y-219920380D02*
X109311142Y-220920380D01*
X109501619Y-220206095D01*
X109692095Y-220920380D01*
X109930190Y-219920380D01*
X110834952Y-220920380D02*
X110263523Y-220920380D01*
X110549238Y-220920380D02*
X110549238Y-219920380D01*
X110454000Y-220063238D01*
X110358761Y-220158476D01*
X110263523Y-220206095D01*
X111454000Y-219920380D02*
X111549238Y-219920380D01*
X111644476Y-219968000D01*
X111692095Y-220015619D01*
X111739714Y-220110857D01*
X111787333Y-220301333D01*
X111787333Y-220539428D01*
X111739714Y-220729904D01*
X111692095Y-220825142D01*
X111644476Y-220872761D01*
X111549238Y-220920380D01*
X111454000Y-220920380D01*
X111358761Y-220872761D01*
X111311142Y-220825142D01*
X111263523Y-220729904D01*
X111215904Y-220539428D01*
X111215904Y-220301333D01*
X111263523Y-220110857D01*
X111311142Y-220015619D01*
X111358761Y-219968000D01*
X111454000Y-219920380D01*
X112692095Y-219920380D02*
X112215904Y-219920380D01*
X112168285Y-220396571D01*
X112215904Y-220348952D01*
X112311142Y-220301333D01*
X112549238Y-220301333D01*
X112644476Y-220348952D01*
X112692095Y-220396571D01*
X112739714Y-220491809D01*
X112739714Y-220729904D01*
X112692095Y-220825142D01*
X112644476Y-220872761D01*
X112549238Y-220920380D01*
X112311142Y-220920380D01*
X112215904Y-220872761D01*
X112168285Y-220825142D01*
X84355285Y-220872761D02*
X84498142Y-220920380D01*
X84736238Y-220920380D01*
X84831476Y-220872761D01*
X84879095Y-220825142D01*
X84926714Y-220729904D01*
X84926714Y-220634666D01*
X84879095Y-220539428D01*
X84831476Y-220491809D01*
X84736238Y-220444190D01*
X84545761Y-220396571D01*
X84450523Y-220348952D01*
X84402904Y-220301333D01*
X84355285Y-220206095D01*
X84355285Y-220110857D01*
X84402904Y-220015619D01*
X84450523Y-219968000D01*
X84545761Y-219920380D01*
X84783857Y-219920380D01*
X84926714Y-219968000D01*
X85260047Y-219920380D02*
X85498142Y-220920380D01*
X85688619Y-220206095D01*
X85879095Y-220920380D01*
X86117190Y-219920380D01*
X87021952Y-220920380D02*
X86450523Y-220920380D01*
X86736238Y-220920380D02*
X86736238Y-219920380D01*
X86641000Y-220063238D01*
X86545761Y-220158476D01*
X86450523Y-220206095D01*
X87641000Y-219920380D02*
X87736238Y-219920380D01*
X87831476Y-219968000D01*
X87879095Y-220015619D01*
X87926714Y-220110857D01*
X87974333Y-220301333D01*
X87974333Y-220539428D01*
X87926714Y-220729904D01*
X87879095Y-220825142D01*
X87831476Y-220872761D01*
X87736238Y-220920380D01*
X87641000Y-220920380D01*
X87545761Y-220872761D01*
X87498142Y-220825142D01*
X87450523Y-220729904D01*
X87402904Y-220539428D01*
X87402904Y-220301333D01*
X87450523Y-220110857D01*
X87498142Y-220015619D01*
X87545761Y-219968000D01*
X87641000Y-219920380D01*
X88831476Y-220253714D02*
X88831476Y-220920380D01*
X88593380Y-219872761D02*
X88355285Y-220587047D01*
X88974333Y-220587047D01*
X60542285Y-220872761D02*
X60685142Y-220920380D01*
X60923238Y-220920380D01*
X61018476Y-220872761D01*
X61066095Y-220825142D01*
X61113714Y-220729904D01*
X61113714Y-220634666D01*
X61066095Y-220539428D01*
X61018476Y-220491809D01*
X60923238Y-220444190D01*
X60732761Y-220396571D01*
X60637523Y-220348952D01*
X60589904Y-220301333D01*
X60542285Y-220206095D01*
X60542285Y-220110857D01*
X60589904Y-220015619D01*
X60637523Y-219968000D01*
X60732761Y-219920380D01*
X60970857Y-219920380D01*
X61113714Y-219968000D01*
X61447047Y-219920380D02*
X61685142Y-220920380D01*
X61875619Y-220206095D01*
X62066095Y-220920380D01*
X62304190Y-219920380D01*
X63208952Y-220920380D02*
X62637523Y-220920380D01*
X62923238Y-220920380D02*
X62923238Y-219920380D01*
X62828000Y-220063238D01*
X62732761Y-220158476D01*
X62637523Y-220206095D01*
X63828000Y-219920380D02*
X63923238Y-219920380D01*
X64018476Y-219968000D01*
X64066095Y-220015619D01*
X64113714Y-220110857D01*
X64161333Y-220301333D01*
X64161333Y-220539428D01*
X64113714Y-220729904D01*
X64066095Y-220825142D01*
X64018476Y-220872761D01*
X63923238Y-220920380D01*
X63828000Y-220920380D01*
X63732761Y-220872761D01*
X63685142Y-220825142D01*
X63637523Y-220729904D01*
X63589904Y-220539428D01*
X63589904Y-220301333D01*
X63637523Y-220110857D01*
X63685142Y-220015619D01*
X63732761Y-219968000D01*
X63828000Y-219920380D01*
X64494666Y-219920380D02*
X65113714Y-219920380D01*
X64780380Y-220301333D01*
X64923238Y-220301333D01*
X65018476Y-220348952D01*
X65066095Y-220396571D01*
X65113714Y-220491809D01*
X65113714Y-220729904D01*
X65066095Y-220825142D01*
X65018476Y-220872761D01*
X64923238Y-220920380D01*
X64637523Y-220920380D01*
X64542285Y-220872761D01*
X64494666Y-220825142D01*
X244375476Y-220872761D02*
X244518333Y-220920380D01*
X244756428Y-220920380D01*
X244851666Y-220872761D01*
X244899285Y-220825142D01*
X244946904Y-220729904D01*
X244946904Y-220634666D01*
X244899285Y-220539428D01*
X244851666Y-220491809D01*
X244756428Y-220444190D01*
X244565952Y-220396571D01*
X244470714Y-220348952D01*
X244423095Y-220301333D01*
X244375476Y-220206095D01*
X244375476Y-220110857D01*
X244423095Y-220015619D01*
X244470714Y-219968000D01*
X244565952Y-219920380D01*
X244804047Y-219920380D01*
X244946904Y-219968000D01*
X245280238Y-219920380D02*
X245518333Y-220920380D01*
X245708809Y-220206095D01*
X245899285Y-220920380D01*
X246137380Y-219920380D01*
X246661190Y-220348952D02*
X246565952Y-220301333D01*
X246518333Y-220253714D01*
X246470714Y-220158476D01*
X246470714Y-220110857D01*
X246518333Y-220015619D01*
X246565952Y-219968000D01*
X246661190Y-219920380D01*
X246851666Y-219920380D01*
X246946904Y-219968000D01*
X246994523Y-220015619D01*
X247042142Y-220110857D01*
X247042142Y-220158476D01*
X246994523Y-220253714D01*
X246946904Y-220301333D01*
X246851666Y-220348952D01*
X246661190Y-220348952D01*
X246565952Y-220396571D01*
X246518333Y-220444190D01*
X246470714Y-220539428D01*
X246470714Y-220729904D01*
X246518333Y-220825142D01*
X246565952Y-220872761D01*
X246661190Y-220920380D01*
X246851666Y-220920380D01*
X246946904Y-220872761D01*
X246994523Y-220825142D01*
X247042142Y-220729904D01*
X247042142Y-220539428D01*
X246994523Y-220444190D01*
X246946904Y-220396571D01*
X246851666Y-220348952D01*
X247946904Y-219920380D02*
X247470714Y-219920380D01*
X247423095Y-220396571D01*
X247470714Y-220348952D01*
X247565952Y-220301333D01*
X247804047Y-220301333D01*
X247899285Y-220348952D01*
X247946904Y-220396571D01*
X247994523Y-220491809D01*
X247994523Y-220729904D01*
X247946904Y-220825142D01*
X247899285Y-220872761D01*
X247804047Y-220920380D01*
X247565952Y-220920380D01*
X247470714Y-220872761D01*
X247423095Y-220825142D01*
X225325476Y-220872761D02*
X225468333Y-220920380D01*
X225706428Y-220920380D01*
X225801666Y-220872761D01*
X225849285Y-220825142D01*
X225896904Y-220729904D01*
X225896904Y-220634666D01*
X225849285Y-220539428D01*
X225801666Y-220491809D01*
X225706428Y-220444190D01*
X225515952Y-220396571D01*
X225420714Y-220348952D01*
X225373095Y-220301333D01*
X225325476Y-220206095D01*
X225325476Y-220110857D01*
X225373095Y-220015619D01*
X225420714Y-219968000D01*
X225515952Y-219920380D01*
X225754047Y-219920380D01*
X225896904Y-219968000D01*
X226230238Y-219920380D02*
X226468333Y-220920380D01*
X226658809Y-220206095D01*
X226849285Y-220920380D01*
X227087380Y-219920380D01*
X227611190Y-220348952D02*
X227515952Y-220301333D01*
X227468333Y-220253714D01*
X227420714Y-220158476D01*
X227420714Y-220110857D01*
X227468333Y-220015619D01*
X227515952Y-219968000D01*
X227611190Y-219920380D01*
X227801666Y-219920380D01*
X227896904Y-219968000D01*
X227944523Y-220015619D01*
X227992142Y-220110857D01*
X227992142Y-220158476D01*
X227944523Y-220253714D01*
X227896904Y-220301333D01*
X227801666Y-220348952D01*
X227611190Y-220348952D01*
X227515952Y-220396571D01*
X227468333Y-220444190D01*
X227420714Y-220539428D01*
X227420714Y-220729904D01*
X227468333Y-220825142D01*
X227515952Y-220872761D01*
X227611190Y-220920380D01*
X227801666Y-220920380D01*
X227896904Y-220872761D01*
X227944523Y-220825142D01*
X227992142Y-220729904D01*
X227992142Y-220539428D01*
X227944523Y-220444190D01*
X227896904Y-220396571D01*
X227801666Y-220348952D01*
X228849285Y-220253714D02*
X228849285Y-220920380D01*
X228611190Y-219872761D02*
X228373095Y-220587047D01*
X228992142Y-220587047D01*
X206275476Y-220872761D02*
X206418333Y-220920380D01*
X206656428Y-220920380D01*
X206751666Y-220872761D01*
X206799285Y-220825142D01*
X206846904Y-220729904D01*
X206846904Y-220634666D01*
X206799285Y-220539428D01*
X206751666Y-220491809D01*
X206656428Y-220444190D01*
X206465952Y-220396571D01*
X206370714Y-220348952D01*
X206323095Y-220301333D01*
X206275476Y-220206095D01*
X206275476Y-220110857D01*
X206323095Y-220015619D01*
X206370714Y-219968000D01*
X206465952Y-219920380D01*
X206704047Y-219920380D01*
X206846904Y-219968000D01*
X207180238Y-219920380D02*
X207418333Y-220920380D01*
X207608809Y-220206095D01*
X207799285Y-220920380D01*
X208037380Y-219920380D01*
X208561190Y-220348952D02*
X208465952Y-220301333D01*
X208418333Y-220253714D01*
X208370714Y-220158476D01*
X208370714Y-220110857D01*
X208418333Y-220015619D01*
X208465952Y-219968000D01*
X208561190Y-219920380D01*
X208751666Y-219920380D01*
X208846904Y-219968000D01*
X208894523Y-220015619D01*
X208942142Y-220110857D01*
X208942142Y-220158476D01*
X208894523Y-220253714D01*
X208846904Y-220301333D01*
X208751666Y-220348952D01*
X208561190Y-220348952D01*
X208465952Y-220396571D01*
X208418333Y-220444190D01*
X208370714Y-220539428D01*
X208370714Y-220729904D01*
X208418333Y-220825142D01*
X208465952Y-220872761D01*
X208561190Y-220920380D01*
X208751666Y-220920380D01*
X208846904Y-220872761D01*
X208894523Y-220825142D01*
X208942142Y-220729904D01*
X208942142Y-220539428D01*
X208894523Y-220444190D01*
X208846904Y-220396571D01*
X208751666Y-220348952D01*
X209275476Y-219920380D02*
X209894523Y-219920380D01*
X209561190Y-220301333D01*
X209704047Y-220301333D01*
X209799285Y-220348952D01*
X209846904Y-220396571D01*
X209894523Y-220491809D01*
X209894523Y-220729904D01*
X209846904Y-220825142D01*
X209799285Y-220872761D01*
X209704047Y-220920380D01*
X209418333Y-220920380D01*
X209323095Y-220872761D01*
X209275476Y-220825142D01*
X149125476Y-220872761D02*
X149268333Y-220920380D01*
X149506428Y-220920380D01*
X149601666Y-220872761D01*
X149649285Y-220825142D01*
X149696904Y-220729904D01*
X149696904Y-220634666D01*
X149649285Y-220539428D01*
X149601666Y-220491809D01*
X149506428Y-220444190D01*
X149315952Y-220396571D01*
X149220714Y-220348952D01*
X149173095Y-220301333D01*
X149125476Y-220206095D01*
X149125476Y-220110857D01*
X149173095Y-220015619D01*
X149220714Y-219968000D01*
X149315952Y-219920380D01*
X149554047Y-219920380D01*
X149696904Y-219968000D01*
X150030238Y-219920380D02*
X150268333Y-220920380D01*
X150458809Y-220206095D01*
X150649285Y-220920380D01*
X150887380Y-219920380D01*
X151411190Y-220348952D02*
X151315952Y-220301333D01*
X151268333Y-220253714D01*
X151220714Y-220158476D01*
X151220714Y-220110857D01*
X151268333Y-220015619D01*
X151315952Y-219968000D01*
X151411190Y-219920380D01*
X151601666Y-219920380D01*
X151696904Y-219968000D01*
X151744523Y-220015619D01*
X151792142Y-220110857D01*
X151792142Y-220158476D01*
X151744523Y-220253714D01*
X151696904Y-220301333D01*
X151601666Y-220348952D01*
X151411190Y-220348952D01*
X151315952Y-220396571D01*
X151268333Y-220444190D01*
X151220714Y-220539428D01*
X151220714Y-220729904D01*
X151268333Y-220825142D01*
X151315952Y-220872761D01*
X151411190Y-220920380D01*
X151601666Y-220920380D01*
X151696904Y-220872761D01*
X151744523Y-220825142D01*
X151792142Y-220729904D01*
X151792142Y-220539428D01*
X151744523Y-220444190D01*
X151696904Y-220396571D01*
X151601666Y-220348952D01*
X152173095Y-220015619D02*
X152220714Y-219968000D01*
X152315952Y-219920380D01*
X152554047Y-219920380D01*
X152649285Y-219968000D01*
X152696904Y-220015619D01*
X152744523Y-220110857D01*
X152744523Y-220206095D01*
X152696904Y-220348952D01*
X152125476Y-220920380D01*
X152744523Y-220920380D01*
X130075476Y-220872761D02*
X130218333Y-220920380D01*
X130456428Y-220920380D01*
X130551666Y-220872761D01*
X130599285Y-220825142D01*
X130646904Y-220729904D01*
X130646904Y-220634666D01*
X130599285Y-220539428D01*
X130551666Y-220491809D01*
X130456428Y-220444190D01*
X130265952Y-220396571D01*
X130170714Y-220348952D01*
X130123095Y-220301333D01*
X130075476Y-220206095D01*
X130075476Y-220110857D01*
X130123095Y-220015619D01*
X130170714Y-219968000D01*
X130265952Y-219920380D01*
X130504047Y-219920380D01*
X130646904Y-219968000D01*
X130980238Y-219920380D02*
X131218333Y-220920380D01*
X131408809Y-220206095D01*
X131599285Y-220920380D01*
X131837380Y-219920380D01*
X132361190Y-220348952D02*
X132265952Y-220301333D01*
X132218333Y-220253714D01*
X132170714Y-220158476D01*
X132170714Y-220110857D01*
X132218333Y-220015619D01*
X132265952Y-219968000D01*
X132361190Y-219920380D01*
X132551666Y-219920380D01*
X132646904Y-219968000D01*
X132694523Y-220015619D01*
X132742142Y-220110857D01*
X132742142Y-220158476D01*
X132694523Y-220253714D01*
X132646904Y-220301333D01*
X132551666Y-220348952D01*
X132361190Y-220348952D01*
X132265952Y-220396571D01*
X132218333Y-220444190D01*
X132170714Y-220539428D01*
X132170714Y-220729904D01*
X132218333Y-220825142D01*
X132265952Y-220872761D01*
X132361190Y-220920380D01*
X132551666Y-220920380D01*
X132646904Y-220872761D01*
X132694523Y-220825142D01*
X132742142Y-220729904D01*
X132742142Y-220539428D01*
X132694523Y-220444190D01*
X132646904Y-220396571D01*
X132551666Y-220348952D01*
X133694523Y-220920380D02*
X133123095Y-220920380D01*
X133408809Y-220920380D02*
X133408809Y-219920380D01*
X133313571Y-220063238D01*
X133218333Y-220158476D01*
X133123095Y-220206095D01*
X244375476Y-201822761D02*
X244518333Y-201870380D01*
X244756428Y-201870380D01*
X244851666Y-201822761D01*
X244899285Y-201775142D01*
X244946904Y-201679904D01*
X244946904Y-201584666D01*
X244899285Y-201489428D01*
X244851666Y-201441809D01*
X244756428Y-201394190D01*
X244565952Y-201346571D01*
X244470714Y-201298952D01*
X244423095Y-201251333D01*
X244375476Y-201156095D01*
X244375476Y-201060857D01*
X244423095Y-200965619D01*
X244470714Y-200918000D01*
X244565952Y-200870380D01*
X244804047Y-200870380D01*
X244946904Y-200918000D01*
X245280238Y-200870380D02*
X245518333Y-201870380D01*
X245708809Y-201156095D01*
X245899285Y-201870380D01*
X246137380Y-200870380D01*
X246661190Y-201298952D02*
X246565952Y-201251333D01*
X246518333Y-201203714D01*
X246470714Y-201108476D01*
X246470714Y-201060857D01*
X246518333Y-200965619D01*
X246565952Y-200918000D01*
X246661190Y-200870380D01*
X246851666Y-200870380D01*
X246946904Y-200918000D01*
X246994523Y-200965619D01*
X247042142Y-201060857D01*
X247042142Y-201108476D01*
X246994523Y-201203714D01*
X246946904Y-201251333D01*
X246851666Y-201298952D01*
X246661190Y-201298952D01*
X246565952Y-201346571D01*
X246518333Y-201394190D01*
X246470714Y-201489428D01*
X246470714Y-201679904D01*
X246518333Y-201775142D01*
X246565952Y-201822761D01*
X246661190Y-201870380D01*
X246851666Y-201870380D01*
X246946904Y-201822761D01*
X246994523Y-201775142D01*
X247042142Y-201679904D01*
X247042142Y-201489428D01*
X246994523Y-201394190D01*
X246946904Y-201346571D01*
X246851666Y-201298952D01*
X247661190Y-200870380D02*
X247756428Y-200870380D01*
X247851666Y-200918000D01*
X247899285Y-200965619D01*
X247946904Y-201060857D01*
X247994523Y-201251333D01*
X247994523Y-201489428D01*
X247946904Y-201679904D01*
X247899285Y-201775142D01*
X247851666Y-201822761D01*
X247756428Y-201870380D01*
X247661190Y-201870380D01*
X247565952Y-201822761D01*
X247518333Y-201775142D01*
X247470714Y-201679904D01*
X247423095Y-201489428D01*
X247423095Y-201251333D01*
X247470714Y-201060857D01*
X247518333Y-200965619D01*
X247565952Y-200918000D01*
X247661190Y-200870380D01*
X225325476Y-201822761D02*
X225468333Y-201870380D01*
X225706428Y-201870380D01*
X225801666Y-201822761D01*
X225849285Y-201775142D01*
X225896904Y-201679904D01*
X225896904Y-201584666D01*
X225849285Y-201489428D01*
X225801666Y-201441809D01*
X225706428Y-201394190D01*
X225515952Y-201346571D01*
X225420714Y-201298952D01*
X225373095Y-201251333D01*
X225325476Y-201156095D01*
X225325476Y-201060857D01*
X225373095Y-200965619D01*
X225420714Y-200918000D01*
X225515952Y-200870380D01*
X225754047Y-200870380D01*
X225896904Y-200918000D01*
X226230238Y-200870380D02*
X226468333Y-201870380D01*
X226658809Y-201156095D01*
X226849285Y-201870380D01*
X227087380Y-200870380D01*
X227373095Y-200870380D02*
X228039761Y-200870380D01*
X227611190Y-201870380D01*
X228468333Y-201870380D02*
X228658809Y-201870380D01*
X228754047Y-201822761D01*
X228801666Y-201775142D01*
X228896904Y-201632285D01*
X228944523Y-201441809D01*
X228944523Y-201060857D01*
X228896904Y-200965619D01*
X228849285Y-200918000D01*
X228754047Y-200870380D01*
X228563571Y-200870380D01*
X228468333Y-200918000D01*
X228420714Y-200965619D01*
X228373095Y-201060857D01*
X228373095Y-201298952D01*
X228420714Y-201394190D01*
X228468333Y-201441809D01*
X228563571Y-201489428D01*
X228754047Y-201489428D01*
X228849285Y-201441809D01*
X228896904Y-201394190D01*
X228944523Y-201298952D01*
X206275476Y-201822761D02*
X206418333Y-201870380D01*
X206656428Y-201870380D01*
X206751666Y-201822761D01*
X206799285Y-201775142D01*
X206846904Y-201679904D01*
X206846904Y-201584666D01*
X206799285Y-201489428D01*
X206751666Y-201441809D01*
X206656428Y-201394190D01*
X206465952Y-201346571D01*
X206370714Y-201298952D01*
X206323095Y-201251333D01*
X206275476Y-201156095D01*
X206275476Y-201060857D01*
X206323095Y-200965619D01*
X206370714Y-200918000D01*
X206465952Y-200870380D01*
X206704047Y-200870380D01*
X206846904Y-200918000D01*
X207180238Y-200870380D02*
X207418333Y-201870380D01*
X207608809Y-201156095D01*
X207799285Y-201870380D01*
X208037380Y-200870380D01*
X208323095Y-200870380D02*
X208989761Y-200870380D01*
X208561190Y-201870380D01*
X209513571Y-201298952D02*
X209418333Y-201251333D01*
X209370714Y-201203714D01*
X209323095Y-201108476D01*
X209323095Y-201060857D01*
X209370714Y-200965619D01*
X209418333Y-200918000D01*
X209513571Y-200870380D01*
X209704047Y-200870380D01*
X209799285Y-200918000D01*
X209846904Y-200965619D01*
X209894523Y-201060857D01*
X209894523Y-201108476D01*
X209846904Y-201203714D01*
X209799285Y-201251333D01*
X209704047Y-201298952D01*
X209513571Y-201298952D01*
X209418333Y-201346571D01*
X209370714Y-201394190D01*
X209323095Y-201489428D01*
X209323095Y-201679904D01*
X209370714Y-201775142D01*
X209418333Y-201822761D01*
X209513571Y-201870380D01*
X209704047Y-201870380D01*
X209799285Y-201822761D01*
X209846904Y-201775142D01*
X209894523Y-201679904D01*
X209894523Y-201489428D01*
X209846904Y-201394190D01*
X209799285Y-201346571D01*
X209704047Y-201298952D01*
X144362476Y-201822761D02*
X144505333Y-201870380D01*
X144743428Y-201870380D01*
X144838666Y-201822761D01*
X144886285Y-201775142D01*
X144933904Y-201679904D01*
X144933904Y-201584666D01*
X144886285Y-201489428D01*
X144838666Y-201441809D01*
X144743428Y-201394190D01*
X144552952Y-201346571D01*
X144457714Y-201298952D01*
X144410095Y-201251333D01*
X144362476Y-201156095D01*
X144362476Y-201060857D01*
X144410095Y-200965619D01*
X144457714Y-200918000D01*
X144552952Y-200870380D01*
X144791047Y-200870380D01*
X144933904Y-200918000D01*
X145267238Y-200870380D02*
X145505333Y-201870380D01*
X145695809Y-201156095D01*
X145886285Y-201870380D01*
X146124380Y-200870380D01*
X146410095Y-200870380D02*
X147076761Y-200870380D01*
X146648190Y-201870380D01*
X147362476Y-200870380D02*
X148029142Y-200870380D01*
X147600571Y-201870380D01*
X125312476Y-201822761D02*
X125455333Y-201870380D01*
X125693428Y-201870380D01*
X125788666Y-201822761D01*
X125836285Y-201775142D01*
X125883904Y-201679904D01*
X125883904Y-201584666D01*
X125836285Y-201489428D01*
X125788666Y-201441809D01*
X125693428Y-201394190D01*
X125502952Y-201346571D01*
X125407714Y-201298952D01*
X125360095Y-201251333D01*
X125312476Y-201156095D01*
X125312476Y-201060857D01*
X125360095Y-200965619D01*
X125407714Y-200918000D01*
X125502952Y-200870380D01*
X125741047Y-200870380D01*
X125883904Y-200918000D01*
X126217238Y-200870380D02*
X126455333Y-201870380D01*
X126645809Y-201156095D01*
X126836285Y-201870380D01*
X127074380Y-200870380D01*
X127360095Y-200870380D02*
X128026761Y-200870380D01*
X127598190Y-201870380D01*
X128836285Y-200870380D02*
X128645809Y-200870380D01*
X128550571Y-200918000D01*
X128502952Y-200965619D01*
X128407714Y-201108476D01*
X128360095Y-201298952D01*
X128360095Y-201679904D01*
X128407714Y-201775142D01*
X128455333Y-201822761D01*
X128550571Y-201870380D01*
X128741047Y-201870380D01*
X128836285Y-201822761D01*
X128883904Y-201775142D01*
X128931523Y-201679904D01*
X128931523Y-201441809D01*
X128883904Y-201346571D01*
X128836285Y-201298952D01*
X128741047Y-201251333D01*
X128550571Y-201251333D01*
X128455333Y-201298952D01*
X128407714Y-201346571D01*
X128360095Y-201441809D01*
X106262476Y-201822761D02*
X106405333Y-201870380D01*
X106643428Y-201870380D01*
X106738666Y-201822761D01*
X106786285Y-201775142D01*
X106833904Y-201679904D01*
X106833904Y-201584666D01*
X106786285Y-201489428D01*
X106738666Y-201441809D01*
X106643428Y-201394190D01*
X106452952Y-201346571D01*
X106357714Y-201298952D01*
X106310095Y-201251333D01*
X106262476Y-201156095D01*
X106262476Y-201060857D01*
X106310095Y-200965619D01*
X106357714Y-200918000D01*
X106452952Y-200870380D01*
X106691047Y-200870380D01*
X106833904Y-200918000D01*
X107167238Y-200870380D02*
X107405333Y-201870380D01*
X107595809Y-201156095D01*
X107786285Y-201870380D01*
X108024380Y-200870380D01*
X108310095Y-200870380D02*
X108976761Y-200870380D01*
X108548190Y-201870380D01*
X109833904Y-200870380D02*
X109357714Y-200870380D01*
X109310095Y-201346571D01*
X109357714Y-201298952D01*
X109452952Y-201251333D01*
X109691047Y-201251333D01*
X109786285Y-201298952D01*
X109833904Y-201346571D01*
X109881523Y-201441809D01*
X109881523Y-201679904D01*
X109833904Y-201775142D01*
X109786285Y-201822761D01*
X109691047Y-201870380D01*
X109452952Y-201870380D01*
X109357714Y-201822761D01*
X109310095Y-201775142D01*
X87212476Y-201822761D02*
X87355333Y-201870380D01*
X87593428Y-201870380D01*
X87688666Y-201822761D01*
X87736285Y-201775142D01*
X87783904Y-201679904D01*
X87783904Y-201584666D01*
X87736285Y-201489428D01*
X87688666Y-201441809D01*
X87593428Y-201394190D01*
X87402952Y-201346571D01*
X87307714Y-201298952D01*
X87260095Y-201251333D01*
X87212476Y-201156095D01*
X87212476Y-201060857D01*
X87260095Y-200965619D01*
X87307714Y-200918000D01*
X87402952Y-200870380D01*
X87641047Y-200870380D01*
X87783904Y-200918000D01*
X88117238Y-200870380D02*
X88355333Y-201870380D01*
X88545809Y-201156095D01*
X88736285Y-201870380D01*
X88974380Y-200870380D01*
X89260095Y-200870380D02*
X89926761Y-200870380D01*
X89498190Y-201870380D01*
X90736285Y-201203714D02*
X90736285Y-201870380D01*
X90498190Y-200822761D02*
X90260095Y-201537047D01*
X90879142Y-201537047D01*
X68162476Y-201822761D02*
X68305333Y-201870380D01*
X68543428Y-201870380D01*
X68638666Y-201822761D01*
X68686285Y-201775142D01*
X68733904Y-201679904D01*
X68733904Y-201584666D01*
X68686285Y-201489428D01*
X68638666Y-201441809D01*
X68543428Y-201394190D01*
X68352952Y-201346571D01*
X68257714Y-201298952D01*
X68210095Y-201251333D01*
X68162476Y-201156095D01*
X68162476Y-201060857D01*
X68210095Y-200965619D01*
X68257714Y-200918000D01*
X68352952Y-200870380D01*
X68591047Y-200870380D01*
X68733904Y-200918000D01*
X69067238Y-200870380D02*
X69305333Y-201870380D01*
X69495809Y-201156095D01*
X69686285Y-201870380D01*
X69924380Y-200870380D01*
X70210095Y-200870380D02*
X70876761Y-200870380D01*
X70448190Y-201870380D01*
X71162476Y-200870380D02*
X71781523Y-200870380D01*
X71448190Y-201251333D01*
X71591047Y-201251333D01*
X71686285Y-201298952D01*
X71733904Y-201346571D01*
X71781523Y-201441809D01*
X71781523Y-201679904D01*
X71733904Y-201775142D01*
X71686285Y-201822761D01*
X71591047Y-201870380D01*
X71305333Y-201870380D01*
X71210095Y-201822761D01*
X71162476Y-201775142D01*
X49112476Y-201822761D02*
X49255333Y-201870380D01*
X49493428Y-201870380D01*
X49588666Y-201822761D01*
X49636285Y-201775142D01*
X49683904Y-201679904D01*
X49683904Y-201584666D01*
X49636285Y-201489428D01*
X49588666Y-201441809D01*
X49493428Y-201394190D01*
X49302952Y-201346571D01*
X49207714Y-201298952D01*
X49160095Y-201251333D01*
X49112476Y-201156095D01*
X49112476Y-201060857D01*
X49160095Y-200965619D01*
X49207714Y-200918000D01*
X49302952Y-200870380D01*
X49541047Y-200870380D01*
X49683904Y-200918000D01*
X50017238Y-200870380D02*
X50255333Y-201870380D01*
X50445809Y-201156095D01*
X50636285Y-201870380D01*
X50874380Y-200870380D01*
X51160095Y-200870380D02*
X51826761Y-200870380D01*
X51398190Y-201870380D01*
X52160095Y-200965619D02*
X52207714Y-200918000D01*
X52302952Y-200870380D01*
X52541047Y-200870380D01*
X52636285Y-200918000D01*
X52683904Y-200965619D01*
X52731523Y-201060857D01*
X52731523Y-201156095D01*
X52683904Y-201298952D01*
X52112476Y-201870380D01*
X52731523Y-201870380D01*
X30062476Y-201822761D02*
X30205333Y-201870380D01*
X30443428Y-201870380D01*
X30538666Y-201822761D01*
X30586285Y-201775142D01*
X30633904Y-201679904D01*
X30633904Y-201584666D01*
X30586285Y-201489428D01*
X30538666Y-201441809D01*
X30443428Y-201394190D01*
X30252952Y-201346571D01*
X30157714Y-201298952D01*
X30110095Y-201251333D01*
X30062476Y-201156095D01*
X30062476Y-201060857D01*
X30110095Y-200965619D01*
X30157714Y-200918000D01*
X30252952Y-200870380D01*
X30491047Y-200870380D01*
X30633904Y-200918000D01*
X30967238Y-200870380D02*
X31205333Y-201870380D01*
X31395809Y-201156095D01*
X31586285Y-201870380D01*
X31824380Y-200870380D01*
X32110095Y-200870380D02*
X32776761Y-200870380D01*
X32348190Y-201870380D01*
X33681523Y-201870380D02*
X33110095Y-201870380D01*
X33395809Y-201870380D02*
X33395809Y-200870380D01*
X33300571Y-201013238D01*
X33205333Y-201108476D01*
X33110095Y-201156095D01*
X153888476Y-182772761D02*
X154031333Y-182820380D01*
X154269428Y-182820380D01*
X154364666Y-182772761D01*
X154412285Y-182725142D01*
X154459904Y-182629904D01*
X154459904Y-182534666D01*
X154412285Y-182439428D01*
X154364666Y-182391809D01*
X154269428Y-182344190D01*
X154078952Y-182296571D01*
X153983714Y-182248952D01*
X153936095Y-182201333D01*
X153888476Y-182106095D01*
X153888476Y-182010857D01*
X153936095Y-181915619D01*
X153983714Y-181868000D01*
X154078952Y-181820380D01*
X154317047Y-181820380D01*
X154459904Y-181868000D01*
X154793238Y-181820380D02*
X155031333Y-182820380D01*
X155221809Y-182106095D01*
X155412285Y-182820380D01*
X155650380Y-181820380D01*
X155936095Y-181820380D02*
X156602761Y-181820380D01*
X156174190Y-182820380D01*
X157174190Y-181820380D02*
X157269428Y-181820380D01*
X157364666Y-181868000D01*
X157412285Y-181915619D01*
X157459904Y-182010857D01*
X157507523Y-182201333D01*
X157507523Y-182439428D01*
X157459904Y-182629904D01*
X157412285Y-182725142D01*
X157364666Y-182772761D01*
X157269428Y-182820380D01*
X157174190Y-182820380D01*
X157078952Y-182772761D01*
X157031333Y-182725142D01*
X156983714Y-182629904D01*
X156936095Y-182439428D01*
X156936095Y-182201333D01*
X156983714Y-182010857D01*
X157031333Y-181915619D01*
X157078952Y-181868000D01*
X157174190Y-181820380D01*
X134838476Y-182772761D02*
X134981333Y-182820380D01*
X135219428Y-182820380D01*
X135314666Y-182772761D01*
X135362285Y-182725142D01*
X135409904Y-182629904D01*
X135409904Y-182534666D01*
X135362285Y-182439428D01*
X135314666Y-182391809D01*
X135219428Y-182344190D01*
X135028952Y-182296571D01*
X134933714Y-182248952D01*
X134886095Y-182201333D01*
X134838476Y-182106095D01*
X134838476Y-182010857D01*
X134886095Y-181915619D01*
X134933714Y-181868000D01*
X135028952Y-181820380D01*
X135267047Y-181820380D01*
X135409904Y-181868000D01*
X135743238Y-181820380D02*
X135981333Y-182820380D01*
X136171809Y-182106095D01*
X136362285Y-182820380D01*
X136600380Y-181820380D01*
X137409904Y-181820380D02*
X137219428Y-181820380D01*
X137124190Y-181868000D01*
X137076571Y-181915619D01*
X136981333Y-182058476D01*
X136933714Y-182248952D01*
X136933714Y-182629904D01*
X136981333Y-182725142D01*
X137028952Y-182772761D01*
X137124190Y-182820380D01*
X137314666Y-182820380D01*
X137409904Y-182772761D01*
X137457523Y-182725142D01*
X137505142Y-182629904D01*
X137505142Y-182391809D01*
X137457523Y-182296571D01*
X137409904Y-182248952D01*
X137314666Y-182201333D01*
X137124190Y-182201333D01*
X137028952Y-182248952D01*
X136981333Y-182296571D01*
X136933714Y-182391809D01*
X137981333Y-182820380D02*
X138171809Y-182820380D01*
X138267047Y-182772761D01*
X138314666Y-182725142D01*
X138409904Y-182582285D01*
X138457523Y-182391809D01*
X138457523Y-182010857D01*
X138409904Y-181915619D01*
X138362285Y-181868000D01*
X138267047Y-181820380D01*
X138076571Y-181820380D01*
X137981333Y-181868000D01*
X137933714Y-181915619D01*
X137886095Y-182010857D01*
X137886095Y-182248952D01*
X137933714Y-182344190D01*
X137981333Y-182391809D01*
X138076571Y-182439428D01*
X138267047Y-182439428D01*
X138362285Y-182391809D01*
X138409904Y-182344190D01*
X138457523Y-182248952D01*
X115788476Y-182772761D02*
X115931333Y-182820380D01*
X116169428Y-182820380D01*
X116264666Y-182772761D01*
X116312285Y-182725142D01*
X116359904Y-182629904D01*
X116359904Y-182534666D01*
X116312285Y-182439428D01*
X116264666Y-182391809D01*
X116169428Y-182344190D01*
X115978952Y-182296571D01*
X115883714Y-182248952D01*
X115836095Y-182201333D01*
X115788476Y-182106095D01*
X115788476Y-182010857D01*
X115836095Y-181915619D01*
X115883714Y-181868000D01*
X115978952Y-181820380D01*
X116217047Y-181820380D01*
X116359904Y-181868000D01*
X116693238Y-181820380D02*
X116931333Y-182820380D01*
X117121809Y-182106095D01*
X117312285Y-182820380D01*
X117550380Y-181820380D01*
X118359904Y-181820380D02*
X118169428Y-181820380D01*
X118074190Y-181868000D01*
X118026571Y-181915619D01*
X117931333Y-182058476D01*
X117883714Y-182248952D01*
X117883714Y-182629904D01*
X117931333Y-182725142D01*
X117978952Y-182772761D01*
X118074190Y-182820380D01*
X118264666Y-182820380D01*
X118359904Y-182772761D01*
X118407523Y-182725142D01*
X118455142Y-182629904D01*
X118455142Y-182391809D01*
X118407523Y-182296571D01*
X118359904Y-182248952D01*
X118264666Y-182201333D01*
X118074190Y-182201333D01*
X117978952Y-182248952D01*
X117931333Y-182296571D01*
X117883714Y-182391809D01*
X119026571Y-182248952D02*
X118931333Y-182201333D01*
X118883714Y-182153714D01*
X118836095Y-182058476D01*
X118836095Y-182010857D01*
X118883714Y-181915619D01*
X118931333Y-181868000D01*
X119026571Y-181820380D01*
X119217047Y-181820380D01*
X119312285Y-181868000D01*
X119359904Y-181915619D01*
X119407523Y-182010857D01*
X119407523Y-182058476D01*
X119359904Y-182153714D01*
X119312285Y-182201333D01*
X119217047Y-182248952D01*
X119026571Y-182248952D01*
X118931333Y-182296571D01*
X118883714Y-182344190D01*
X118836095Y-182439428D01*
X118836095Y-182629904D01*
X118883714Y-182725142D01*
X118931333Y-182772761D01*
X119026571Y-182820380D01*
X119217047Y-182820380D01*
X119312285Y-182772761D01*
X119359904Y-182725142D01*
X119407523Y-182629904D01*
X119407523Y-182439428D01*
X119359904Y-182344190D01*
X119312285Y-182296571D01*
X119217047Y-182248952D01*
X96738476Y-182772761D02*
X96881333Y-182820380D01*
X97119428Y-182820380D01*
X97214666Y-182772761D01*
X97262285Y-182725142D01*
X97309904Y-182629904D01*
X97309904Y-182534666D01*
X97262285Y-182439428D01*
X97214666Y-182391809D01*
X97119428Y-182344190D01*
X96928952Y-182296571D01*
X96833714Y-182248952D01*
X96786095Y-182201333D01*
X96738476Y-182106095D01*
X96738476Y-182010857D01*
X96786095Y-181915619D01*
X96833714Y-181868000D01*
X96928952Y-181820380D01*
X97167047Y-181820380D01*
X97309904Y-181868000D01*
X97643238Y-181820380D02*
X97881333Y-182820380D01*
X98071809Y-182106095D01*
X98262285Y-182820380D01*
X98500380Y-181820380D01*
X99309904Y-181820380D02*
X99119428Y-181820380D01*
X99024190Y-181868000D01*
X98976571Y-181915619D01*
X98881333Y-182058476D01*
X98833714Y-182248952D01*
X98833714Y-182629904D01*
X98881333Y-182725142D01*
X98928952Y-182772761D01*
X99024190Y-182820380D01*
X99214666Y-182820380D01*
X99309904Y-182772761D01*
X99357523Y-182725142D01*
X99405142Y-182629904D01*
X99405142Y-182391809D01*
X99357523Y-182296571D01*
X99309904Y-182248952D01*
X99214666Y-182201333D01*
X99024190Y-182201333D01*
X98928952Y-182248952D01*
X98881333Y-182296571D01*
X98833714Y-182391809D01*
X99738476Y-181820380D02*
X100405142Y-181820380D01*
X99976571Y-182820380D01*
X77688476Y-182772761D02*
X77831333Y-182820380D01*
X78069428Y-182820380D01*
X78164666Y-182772761D01*
X78212285Y-182725142D01*
X78259904Y-182629904D01*
X78259904Y-182534666D01*
X78212285Y-182439428D01*
X78164666Y-182391809D01*
X78069428Y-182344190D01*
X77878952Y-182296571D01*
X77783714Y-182248952D01*
X77736095Y-182201333D01*
X77688476Y-182106095D01*
X77688476Y-182010857D01*
X77736095Y-181915619D01*
X77783714Y-181868000D01*
X77878952Y-181820380D01*
X78117047Y-181820380D01*
X78259904Y-181868000D01*
X78593238Y-181820380D02*
X78831333Y-182820380D01*
X79021809Y-182106095D01*
X79212285Y-182820380D01*
X79450380Y-181820380D01*
X80259904Y-181820380D02*
X80069428Y-181820380D01*
X79974190Y-181868000D01*
X79926571Y-181915619D01*
X79831333Y-182058476D01*
X79783714Y-182248952D01*
X79783714Y-182629904D01*
X79831333Y-182725142D01*
X79878952Y-182772761D01*
X79974190Y-182820380D01*
X80164666Y-182820380D01*
X80259904Y-182772761D01*
X80307523Y-182725142D01*
X80355142Y-182629904D01*
X80355142Y-182391809D01*
X80307523Y-182296571D01*
X80259904Y-182248952D01*
X80164666Y-182201333D01*
X79974190Y-182201333D01*
X79878952Y-182248952D01*
X79831333Y-182296571D01*
X79783714Y-182391809D01*
X81212285Y-181820380D02*
X81021809Y-181820380D01*
X80926571Y-181868000D01*
X80878952Y-181915619D01*
X80783714Y-182058476D01*
X80736095Y-182248952D01*
X80736095Y-182629904D01*
X80783714Y-182725142D01*
X80831333Y-182772761D01*
X80926571Y-182820380D01*
X81117047Y-182820380D01*
X81212285Y-182772761D01*
X81259904Y-182725142D01*
X81307523Y-182629904D01*
X81307523Y-182391809D01*
X81259904Y-182296571D01*
X81212285Y-182248952D01*
X81117047Y-182201333D01*
X80926571Y-182201333D01*
X80831333Y-182248952D01*
X80783714Y-182296571D01*
X80736095Y-182391809D01*
X58638476Y-182772761D02*
X58781333Y-182820380D01*
X59019428Y-182820380D01*
X59114666Y-182772761D01*
X59162285Y-182725142D01*
X59209904Y-182629904D01*
X59209904Y-182534666D01*
X59162285Y-182439428D01*
X59114666Y-182391809D01*
X59019428Y-182344190D01*
X58828952Y-182296571D01*
X58733714Y-182248952D01*
X58686095Y-182201333D01*
X58638476Y-182106095D01*
X58638476Y-182010857D01*
X58686095Y-181915619D01*
X58733714Y-181868000D01*
X58828952Y-181820380D01*
X59067047Y-181820380D01*
X59209904Y-181868000D01*
X59543238Y-181820380D02*
X59781333Y-182820380D01*
X59971809Y-182106095D01*
X60162285Y-182820380D01*
X60400380Y-181820380D01*
X61209904Y-181820380D02*
X61019428Y-181820380D01*
X60924190Y-181868000D01*
X60876571Y-181915619D01*
X60781333Y-182058476D01*
X60733714Y-182248952D01*
X60733714Y-182629904D01*
X60781333Y-182725142D01*
X60828952Y-182772761D01*
X60924190Y-182820380D01*
X61114666Y-182820380D01*
X61209904Y-182772761D01*
X61257523Y-182725142D01*
X61305142Y-182629904D01*
X61305142Y-182391809D01*
X61257523Y-182296571D01*
X61209904Y-182248952D01*
X61114666Y-182201333D01*
X60924190Y-182201333D01*
X60828952Y-182248952D01*
X60781333Y-182296571D01*
X60733714Y-182391809D01*
X62209904Y-181820380D02*
X61733714Y-181820380D01*
X61686095Y-182296571D01*
X61733714Y-182248952D01*
X61828952Y-182201333D01*
X62067047Y-182201333D01*
X62162285Y-182248952D01*
X62209904Y-182296571D01*
X62257523Y-182391809D01*
X62257523Y-182629904D01*
X62209904Y-182725142D01*
X62162285Y-182772761D01*
X62067047Y-182820380D01*
X61828952Y-182820380D01*
X61733714Y-182772761D01*
X61686095Y-182725142D01*
X39588476Y-182772761D02*
X39731333Y-182820380D01*
X39969428Y-182820380D01*
X40064666Y-182772761D01*
X40112285Y-182725142D01*
X40159904Y-182629904D01*
X40159904Y-182534666D01*
X40112285Y-182439428D01*
X40064666Y-182391809D01*
X39969428Y-182344190D01*
X39778952Y-182296571D01*
X39683714Y-182248952D01*
X39636095Y-182201333D01*
X39588476Y-182106095D01*
X39588476Y-182010857D01*
X39636095Y-181915619D01*
X39683714Y-181868000D01*
X39778952Y-181820380D01*
X40017047Y-181820380D01*
X40159904Y-181868000D01*
X40493238Y-181820380D02*
X40731333Y-182820380D01*
X40921809Y-182106095D01*
X41112285Y-182820380D01*
X41350380Y-181820380D01*
X42159904Y-181820380D02*
X41969428Y-181820380D01*
X41874190Y-181868000D01*
X41826571Y-181915619D01*
X41731333Y-182058476D01*
X41683714Y-182248952D01*
X41683714Y-182629904D01*
X41731333Y-182725142D01*
X41778952Y-182772761D01*
X41874190Y-182820380D01*
X42064666Y-182820380D01*
X42159904Y-182772761D01*
X42207523Y-182725142D01*
X42255142Y-182629904D01*
X42255142Y-182391809D01*
X42207523Y-182296571D01*
X42159904Y-182248952D01*
X42064666Y-182201333D01*
X41874190Y-182201333D01*
X41778952Y-182248952D01*
X41731333Y-182296571D01*
X41683714Y-182391809D01*
X43112285Y-182153714D02*
X43112285Y-182820380D01*
X42874190Y-181772761D02*
X42636095Y-182487047D01*
X43255142Y-182487047D01*
X244375476Y-163722761D02*
X244518333Y-163770380D01*
X244756428Y-163770380D01*
X244851666Y-163722761D01*
X244899285Y-163675142D01*
X244946904Y-163579904D01*
X244946904Y-163484666D01*
X244899285Y-163389428D01*
X244851666Y-163341809D01*
X244756428Y-163294190D01*
X244565952Y-163246571D01*
X244470714Y-163198952D01*
X244423095Y-163151333D01*
X244375476Y-163056095D01*
X244375476Y-162960857D01*
X244423095Y-162865619D01*
X244470714Y-162818000D01*
X244565952Y-162770380D01*
X244804047Y-162770380D01*
X244946904Y-162818000D01*
X245280238Y-162770380D02*
X245518333Y-163770380D01*
X245708809Y-163056095D01*
X245899285Y-163770380D01*
X246137380Y-162770380D01*
X246946904Y-162770380D02*
X246756428Y-162770380D01*
X246661190Y-162818000D01*
X246613571Y-162865619D01*
X246518333Y-163008476D01*
X246470714Y-163198952D01*
X246470714Y-163579904D01*
X246518333Y-163675142D01*
X246565952Y-163722761D01*
X246661190Y-163770380D01*
X246851666Y-163770380D01*
X246946904Y-163722761D01*
X246994523Y-163675142D01*
X247042142Y-163579904D01*
X247042142Y-163341809D01*
X246994523Y-163246571D01*
X246946904Y-163198952D01*
X246851666Y-163151333D01*
X246661190Y-163151333D01*
X246565952Y-163198952D01*
X246518333Y-163246571D01*
X246470714Y-163341809D01*
X247375476Y-162770380D02*
X247994523Y-162770380D01*
X247661190Y-163151333D01*
X247804047Y-163151333D01*
X247899285Y-163198952D01*
X247946904Y-163246571D01*
X247994523Y-163341809D01*
X247994523Y-163579904D01*
X247946904Y-163675142D01*
X247899285Y-163722761D01*
X247804047Y-163770380D01*
X247518333Y-163770380D01*
X247423095Y-163722761D01*
X247375476Y-163675142D01*
X225325476Y-163722761D02*
X225468333Y-163770380D01*
X225706428Y-163770380D01*
X225801666Y-163722761D01*
X225849285Y-163675142D01*
X225896904Y-163579904D01*
X225896904Y-163484666D01*
X225849285Y-163389428D01*
X225801666Y-163341809D01*
X225706428Y-163294190D01*
X225515952Y-163246571D01*
X225420714Y-163198952D01*
X225373095Y-163151333D01*
X225325476Y-163056095D01*
X225325476Y-162960857D01*
X225373095Y-162865619D01*
X225420714Y-162818000D01*
X225515952Y-162770380D01*
X225754047Y-162770380D01*
X225896904Y-162818000D01*
X226230238Y-162770380D02*
X226468333Y-163770380D01*
X226658809Y-163056095D01*
X226849285Y-163770380D01*
X227087380Y-162770380D01*
X227896904Y-162770380D02*
X227706428Y-162770380D01*
X227611190Y-162818000D01*
X227563571Y-162865619D01*
X227468333Y-163008476D01*
X227420714Y-163198952D01*
X227420714Y-163579904D01*
X227468333Y-163675142D01*
X227515952Y-163722761D01*
X227611190Y-163770380D01*
X227801666Y-163770380D01*
X227896904Y-163722761D01*
X227944523Y-163675142D01*
X227992142Y-163579904D01*
X227992142Y-163341809D01*
X227944523Y-163246571D01*
X227896904Y-163198952D01*
X227801666Y-163151333D01*
X227611190Y-163151333D01*
X227515952Y-163198952D01*
X227468333Y-163246571D01*
X227420714Y-163341809D01*
X228373095Y-162865619D02*
X228420714Y-162818000D01*
X228515952Y-162770380D01*
X228754047Y-162770380D01*
X228849285Y-162818000D01*
X228896904Y-162865619D01*
X228944523Y-162960857D01*
X228944523Y-163056095D01*
X228896904Y-163198952D01*
X228325476Y-163770380D01*
X228944523Y-163770380D01*
X206275476Y-163722761D02*
X206418333Y-163770380D01*
X206656428Y-163770380D01*
X206751666Y-163722761D01*
X206799285Y-163675142D01*
X206846904Y-163579904D01*
X206846904Y-163484666D01*
X206799285Y-163389428D01*
X206751666Y-163341809D01*
X206656428Y-163294190D01*
X206465952Y-163246571D01*
X206370714Y-163198952D01*
X206323095Y-163151333D01*
X206275476Y-163056095D01*
X206275476Y-162960857D01*
X206323095Y-162865619D01*
X206370714Y-162818000D01*
X206465952Y-162770380D01*
X206704047Y-162770380D01*
X206846904Y-162818000D01*
X207180238Y-162770380D02*
X207418333Y-163770380D01*
X207608809Y-163056095D01*
X207799285Y-163770380D01*
X208037380Y-162770380D01*
X208846904Y-162770380D02*
X208656428Y-162770380D01*
X208561190Y-162818000D01*
X208513571Y-162865619D01*
X208418333Y-163008476D01*
X208370714Y-163198952D01*
X208370714Y-163579904D01*
X208418333Y-163675142D01*
X208465952Y-163722761D01*
X208561190Y-163770380D01*
X208751666Y-163770380D01*
X208846904Y-163722761D01*
X208894523Y-163675142D01*
X208942142Y-163579904D01*
X208942142Y-163341809D01*
X208894523Y-163246571D01*
X208846904Y-163198952D01*
X208751666Y-163151333D01*
X208561190Y-163151333D01*
X208465952Y-163198952D01*
X208418333Y-163246571D01*
X208370714Y-163341809D01*
X209894523Y-163770380D02*
X209323095Y-163770380D01*
X209608809Y-163770380D02*
X209608809Y-162770380D01*
X209513571Y-162913238D01*
X209418333Y-163008476D01*
X209323095Y-163056095D01*
X149125476Y-163722761D02*
X149268333Y-163770380D01*
X149506428Y-163770380D01*
X149601666Y-163722761D01*
X149649285Y-163675142D01*
X149696904Y-163579904D01*
X149696904Y-163484666D01*
X149649285Y-163389428D01*
X149601666Y-163341809D01*
X149506428Y-163294190D01*
X149315952Y-163246571D01*
X149220714Y-163198952D01*
X149173095Y-163151333D01*
X149125476Y-163056095D01*
X149125476Y-162960857D01*
X149173095Y-162865619D01*
X149220714Y-162818000D01*
X149315952Y-162770380D01*
X149554047Y-162770380D01*
X149696904Y-162818000D01*
X150030238Y-162770380D02*
X150268333Y-163770380D01*
X150458809Y-163056095D01*
X150649285Y-163770380D01*
X150887380Y-162770380D01*
X151696904Y-162770380D02*
X151506428Y-162770380D01*
X151411190Y-162818000D01*
X151363571Y-162865619D01*
X151268333Y-163008476D01*
X151220714Y-163198952D01*
X151220714Y-163579904D01*
X151268333Y-163675142D01*
X151315952Y-163722761D01*
X151411190Y-163770380D01*
X151601666Y-163770380D01*
X151696904Y-163722761D01*
X151744523Y-163675142D01*
X151792142Y-163579904D01*
X151792142Y-163341809D01*
X151744523Y-163246571D01*
X151696904Y-163198952D01*
X151601666Y-163151333D01*
X151411190Y-163151333D01*
X151315952Y-163198952D01*
X151268333Y-163246571D01*
X151220714Y-163341809D01*
X152411190Y-162770380D02*
X152506428Y-162770380D01*
X152601666Y-162818000D01*
X152649285Y-162865619D01*
X152696904Y-162960857D01*
X152744523Y-163151333D01*
X152744523Y-163389428D01*
X152696904Y-163579904D01*
X152649285Y-163675142D01*
X152601666Y-163722761D01*
X152506428Y-163770380D01*
X152411190Y-163770380D01*
X152315952Y-163722761D01*
X152268333Y-163675142D01*
X152220714Y-163579904D01*
X152173095Y-163389428D01*
X152173095Y-163151333D01*
X152220714Y-162960857D01*
X152268333Y-162865619D01*
X152315952Y-162818000D01*
X152411190Y-162770380D01*
X130075476Y-163722761D02*
X130218333Y-163770380D01*
X130456428Y-163770380D01*
X130551666Y-163722761D01*
X130599285Y-163675142D01*
X130646904Y-163579904D01*
X130646904Y-163484666D01*
X130599285Y-163389428D01*
X130551666Y-163341809D01*
X130456428Y-163294190D01*
X130265952Y-163246571D01*
X130170714Y-163198952D01*
X130123095Y-163151333D01*
X130075476Y-163056095D01*
X130075476Y-162960857D01*
X130123095Y-162865619D01*
X130170714Y-162818000D01*
X130265952Y-162770380D01*
X130504047Y-162770380D01*
X130646904Y-162818000D01*
X130980238Y-162770380D02*
X131218333Y-163770380D01*
X131408809Y-163056095D01*
X131599285Y-163770380D01*
X131837380Y-162770380D01*
X132694523Y-162770380D02*
X132218333Y-162770380D01*
X132170714Y-163246571D01*
X132218333Y-163198952D01*
X132313571Y-163151333D01*
X132551666Y-163151333D01*
X132646904Y-163198952D01*
X132694523Y-163246571D01*
X132742142Y-163341809D01*
X132742142Y-163579904D01*
X132694523Y-163675142D01*
X132646904Y-163722761D01*
X132551666Y-163770380D01*
X132313571Y-163770380D01*
X132218333Y-163722761D01*
X132170714Y-163675142D01*
X133218333Y-163770380D02*
X133408809Y-163770380D01*
X133504047Y-163722761D01*
X133551666Y-163675142D01*
X133646904Y-163532285D01*
X133694523Y-163341809D01*
X133694523Y-162960857D01*
X133646904Y-162865619D01*
X133599285Y-162818000D01*
X133504047Y-162770380D01*
X133313571Y-162770380D01*
X133218333Y-162818000D01*
X133170714Y-162865619D01*
X133123095Y-162960857D01*
X133123095Y-163198952D01*
X133170714Y-163294190D01*
X133218333Y-163341809D01*
X133313571Y-163389428D01*
X133504047Y-163389428D01*
X133599285Y-163341809D01*
X133646904Y-163294190D01*
X133694523Y-163198952D01*
X111025476Y-163722761D02*
X111168333Y-163770380D01*
X111406428Y-163770380D01*
X111501666Y-163722761D01*
X111549285Y-163675142D01*
X111596904Y-163579904D01*
X111596904Y-163484666D01*
X111549285Y-163389428D01*
X111501666Y-163341809D01*
X111406428Y-163294190D01*
X111215952Y-163246571D01*
X111120714Y-163198952D01*
X111073095Y-163151333D01*
X111025476Y-163056095D01*
X111025476Y-162960857D01*
X111073095Y-162865619D01*
X111120714Y-162818000D01*
X111215952Y-162770380D01*
X111454047Y-162770380D01*
X111596904Y-162818000D01*
X111930238Y-162770380D02*
X112168333Y-163770380D01*
X112358809Y-163056095D01*
X112549285Y-163770380D01*
X112787380Y-162770380D01*
X113644523Y-162770380D02*
X113168333Y-162770380D01*
X113120714Y-163246571D01*
X113168333Y-163198952D01*
X113263571Y-163151333D01*
X113501666Y-163151333D01*
X113596904Y-163198952D01*
X113644523Y-163246571D01*
X113692142Y-163341809D01*
X113692142Y-163579904D01*
X113644523Y-163675142D01*
X113596904Y-163722761D01*
X113501666Y-163770380D01*
X113263571Y-163770380D01*
X113168333Y-163722761D01*
X113120714Y-163675142D01*
X114263571Y-163198952D02*
X114168333Y-163151333D01*
X114120714Y-163103714D01*
X114073095Y-163008476D01*
X114073095Y-162960857D01*
X114120714Y-162865619D01*
X114168333Y-162818000D01*
X114263571Y-162770380D01*
X114454047Y-162770380D01*
X114549285Y-162818000D01*
X114596904Y-162865619D01*
X114644523Y-162960857D01*
X114644523Y-163008476D01*
X114596904Y-163103714D01*
X114549285Y-163151333D01*
X114454047Y-163198952D01*
X114263571Y-163198952D01*
X114168333Y-163246571D01*
X114120714Y-163294190D01*
X114073095Y-163389428D01*
X114073095Y-163579904D01*
X114120714Y-163675142D01*
X114168333Y-163722761D01*
X114263571Y-163770380D01*
X114454047Y-163770380D01*
X114549285Y-163722761D01*
X114596904Y-163675142D01*
X114644523Y-163579904D01*
X114644523Y-163389428D01*
X114596904Y-163294190D01*
X114549285Y-163246571D01*
X114454047Y-163198952D01*
X91975476Y-163722761D02*
X92118333Y-163770380D01*
X92356428Y-163770380D01*
X92451666Y-163722761D01*
X92499285Y-163675142D01*
X92546904Y-163579904D01*
X92546904Y-163484666D01*
X92499285Y-163389428D01*
X92451666Y-163341809D01*
X92356428Y-163294190D01*
X92165952Y-163246571D01*
X92070714Y-163198952D01*
X92023095Y-163151333D01*
X91975476Y-163056095D01*
X91975476Y-162960857D01*
X92023095Y-162865619D01*
X92070714Y-162818000D01*
X92165952Y-162770380D01*
X92404047Y-162770380D01*
X92546904Y-162818000D01*
X92880238Y-162770380D02*
X93118333Y-163770380D01*
X93308809Y-163056095D01*
X93499285Y-163770380D01*
X93737380Y-162770380D01*
X94594523Y-162770380D02*
X94118333Y-162770380D01*
X94070714Y-163246571D01*
X94118333Y-163198952D01*
X94213571Y-163151333D01*
X94451666Y-163151333D01*
X94546904Y-163198952D01*
X94594523Y-163246571D01*
X94642142Y-163341809D01*
X94642142Y-163579904D01*
X94594523Y-163675142D01*
X94546904Y-163722761D01*
X94451666Y-163770380D01*
X94213571Y-163770380D01*
X94118333Y-163722761D01*
X94070714Y-163675142D01*
X94975476Y-162770380D02*
X95642142Y-162770380D01*
X95213571Y-163770380D01*
X72925476Y-163722761D02*
X73068333Y-163770380D01*
X73306428Y-163770380D01*
X73401666Y-163722761D01*
X73449285Y-163675142D01*
X73496904Y-163579904D01*
X73496904Y-163484666D01*
X73449285Y-163389428D01*
X73401666Y-163341809D01*
X73306428Y-163294190D01*
X73115952Y-163246571D01*
X73020714Y-163198952D01*
X72973095Y-163151333D01*
X72925476Y-163056095D01*
X72925476Y-162960857D01*
X72973095Y-162865619D01*
X73020714Y-162818000D01*
X73115952Y-162770380D01*
X73354047Y-162770380D01*
X73496904Y-162818000D01*
X73830238Y-162770380D02*
X74068333Y-163770380D01*
X74258809Y-163056095D01*
X74449285Y-163770380D01*
X74687380Y-162770380D01*
X75544523Y-162770380D02*
X75068333Y-162770380D01*
X75020714Y-163246571D01*
X75068333Y-163198952D01*
X75163571Y-163151333D01*
X75401666Y-163151333D01*
X75496904Y-163198952D01*
X75544523Y-163246571D01*
X75592142Y-163341809D01*
X75592142Y-163579904D01*
X75544523Y-163675142D01*
X75496904Y-163722761D01*
X75401666Y-163770380D01*
X75163571Y-163770380D01*
X75068333Y-163722761D01*
X75020714Y-163675142D01*
X76449285Y-162770380D02*
X76258809Y-162770380D01*
X76163571Y-162818000D01*
X76115952Y-162865619D01*
X76020714Y-163008476D01*
X75973095Y-163198952D01*
X75973095Y-163579904D01*
X76020714Y-163675142D01*
X76068333Y-163722761D01*
X76163571Y-163770380D01*
X76354047Y-163770380D01*
X76449285Y-163722761D01*
X76496904Y-163675142D01*
X76544523Y-163579904D01*
X76544523Y-163341809D01*
X76496904Y-163246571D01*
X76449285Y-163198952D01*
X76354047Y-163151333D01*
X76163571Y-163151333D01*
X76068333Y-163198952D01*
X76020714Y-163246571D01*
X75973095Y-163341809D01*
X53875476Y-163722761D02*
X54018333Y-163770380D01*
X54256428Y-163770380D01*
X54351666Y-163722761D01*
X54399285Y-163675142D01*
X54446904Y-163579904D01*
X54446904Y-163484666D01*
X54399285Y-163389428D01*
X54351666Y-163341809D01*
X54256428Y-163294190D01*
X54065952Y-163246571D01*
X53970714Y-163198952D01*
X53923095Y-163151333D01*
X53875476Y-163056095D01*
X53875476Y-162960857D01*
X53923095Y-162865619D01*
X53970714Y-162818000D01*
X54065952Y-162770380D01*
X54304047Y-162770380D01*
X54446904Y-162818000D01*
X54780238Y-162770380D02*
X55018333Y-163770380D01*
X55208809Y-163056095D01*
X55399285Y-163770380D01*
X55637380Y-162770380D01*
X56494523Y-162770380D02*
X56018333Y-162770380D01*
X55970714Y-163246571D01*
X56018333Y-163198952D01*
X56113571Y-163151333D01*
X56351666Y-163151333D01*
X56446904Y-163198952D01*
X56494523Y-163246571D01*
X56542142Y-163341809D01*
X56542142Y-163579904D01*
X56494523Y-163675142D01*
X56446904Y-163722761D01*
X56351666Y-163770380D01*
X56113571Y-163770380D01*
X56018333Y-163722761D01*
X55970714Y-163675142D01*
X57446904Y-162770380D02*
X56970714Y-162770380D01*
X56923095Y-163246571D01*
X56970714Y-163198952D01*
X57065952Y-163151333D01*
X57304047Y-163151333D01*
X57399285Y-163198952D01*
X57446904Y-163246571D01*
X57494523Y-163341809D01*
X57494523Y-163579904D01*
X57446904Y-163675142D01*
X57399285Y-163722761D01*
X57304047Y-163770380D01*
X57065952Y-163770380D01*
X56970714Y-163722761D01*
X56923095Y-163675142D01*
X34825476Y-163722761D02*
X34968333Y-163770380D01*
X35206428Y-163770380D01*
X35301666Y-163722761D01*
X35349285Y-163675142D01*
X35396904Y-163579904D01*
X35396904Y-163484666D01*
X35349285Y-163389428D01*
X35301666Y-163341809D01*
X35206428Y-163294190D01*
X35015952Y-163246571D01*
X34920714Y-163198952D01*
X34873095Y-163151333D01*
X34825476Y-163056095D01*
X34825476Y-162960857D01*
X34873095Y-162865619D01*
X34920714Y-162818000D01*
X35015952Y-162770380D01*
X35254047Y-162770380D01*
X35396904Y-162818000D01*
X35730238Y-162770380D02*
X35968333Y-163770380D01*
X36158809Y-163056095D01*
X36349285Y-163770380D01*
X36587380Y-162770380D01*
X37444523Y-162770380D02*
X36968333Y-162770380D01*
X36920714Y-163246571D01*
X36968333Y-163198952D01*
X37063571Y-163151333D01*
X37301666Y-163151333D01*
X37396904Y-163198952D01*
X37444523Y-163246571D01*
X37492142Y-163341809D01*
X37492142Y-163579904D01*
X37444523Y-163675142D01*
X37396904Y-163722761D01*
X37301666Y-163770380D01*
X37063571Y-163770380D01*
X36968333Y-163722761D01*
X36920714Y-163675142D01*
X38349285Y-163103714D02*
X38349285Y-163770380D01*
X38111190Y-162722761D02*
X37873095Y-163437047D01*
X38492142Y-163437047D01*
X244375476Y-144672761D02*
X244518333Y-144720380D01*
X244756428Y-144720380D01*
X244851666Y-144672761D01*
X244899285Y-144625142D01*
X244946904Y-144529904D01*
X244946904Y-144434666D01*
X244899285Y-144339428D01*
X244851666Y-144291809D01*
X244756428Y-144244190D01*
X244565952Y-144196571D01*
X244470714Y-144148952D01*
X244423095Y-144101333D01*
X244375476Y-144006095D01*
X244375476Y-143910857D01*
X244423095Y-143815619D01*
X244470714Y-143768000D01*
X244565952Y-143720380D01*
X244804047Y-143720380D01*
X244946904Y-143768000D01*
X245280238Y-143720380D02*
X245518333Y-144720380D01*
X245708809Y-144006095D01*
X245899285Y-144720380D01*
X246137380Y-143720380D01*
X246994523Y-143720380D02*
X246518333Y-143720380D01*
X246470714Y-144196571D01*
X246518333Y-144148952D01*
X246613571Y-144101333D01*
X246851666Y-144101333D01*
X246946904Y-144148952D01*
X246994523Y-144196571D01*
X247042142Y-144291809D01*
X247042142Y-144529904D01*
X246994523Y-144625142D01*
X246946904Y-144672761D01*
X246851666Y-144720380D01*
X246613571Y-144720380D01*
X246518333Y-144672761D01*
X246470714Y-144625142D01*
X247375476Y-143720380D02*
X247994523Y-143720380D01*
X247661190Y-144101333D01*
X247804047Y-144101333D01*
X247899285Y-144148952D01*
X247946904Y-144196571D01*
X247994523Y-144291809D01*
X247994523Y-144529904D01*
X247946904Y-144625142D01*
X247899285Y-144672761D01*
X247804047Y-144720380D01*
X247518333Y-144720380D01*
X247423095Y-144672761D01*
X247375476Y-144625142D01*
X225325476Y-144672761D02*
X225468333Y-144720380D01*
X225706428Y-144720380D01*
X225801666Y-144672761D01*
X225849285Y-144625142D01*
X225896904Y-144529904D01*
X225896904Y-144434666D01*
X225849285Y-144339428D01*
X225801666Y-144291809D01*
X225706428Y-144244190D01*
X225515952Y-144196571D01*
X225420714Y-144148952D01*
X225373095Y-144101333D01*
X225325476Y-144006095D01*
X225325476Y-143910857D01*
X225373095Y-143815619D01*
X225420714Y-143768000D01*
X225515952Y-143720380D01*
X225754047Y-143720380D01*
X225896904Y-143768000D01*
X226230238Y-143720380D02*
X226468333Y-144720380D01*
X226658809Y-144006095D01*
X226849285Y-144720380D01*
X227087380Y-143720380D01*
X227944523Y-143720380D02*
X227468333Y-143720380D01*
X227420714Y-144196571D01*
X227468333Y-144148952D01*
X227563571Y-144101333D01*
X227801666Y-144101333D01*
X227896904Y-144148952D01*
X227944523Y-144196571D01*
X227992142Y-144291809D01*
X227992142Y-144529904D01*
X227944523Y-144625142D01*
X227896904Y-144672761D01*
X227801666Y-144720380D01*
X227563571Y-144720380D01*
X227468333Y-144672761D01*
X227420714Y-144625142D01*
X228373095Y-143815619D02*
X228420714Y-143768000D01*
X228515952Y-143720380D01*
X228754047Y-143720380D01*
X228849285Y-143768000D01*
X228896904Y-143815619D01*
X228944523Y-143910857D01*
X228944523Y-144006095D01*
X228896904Y-144148952D01*
X228325476Y-144720380D01*
X228944523Y-144720380D01*
X206275476Y-144672761D02*
X206418333Y-144720380D01*
X206656428Y-144720380D01*
X206751666Y-144672761D01*
X206799285Y-144625142D01*
X206846904Y-144529904D01*
X206846904Y-144434666D01*
X206799285Y-144339428D01*
X206751666Y-144291809D01*
X206656428Y-144244190D01*
X206465952Y-144196571D01*
X206370714Y-144148952D01*
X206323095Y-144101333D01*
X206275476Y-144006095D01*
X206275476Y-143910857D01*
X206323095Y-143815619D01*
X206370714Y-143768000D01*
X206465952Y-143720380D01*
X206704047Y-143720380D01*
X206846904Y-143768000D01*
X207180238Y-143720380D02*
X207418333Y-144720380D01*
X207608809Y-144006095D01*
X207799285Y-144720380D01*
X208037380Y-143720380D01*
X208894523Y-143720380D02*
X208418333Y-143720380D01*
X208370714Y-144196571D01*
X208418333Y-144148952D01*
X208513571Y-144101333D01*
X208751666Y-144101333D01*
X208846904Y-144148952D01*
X208894523Y-144196571D01*
X208942142Y-144291809D01*
X208942142Y-144529904D01*
X208894523Y-144625142D01*
X208846904Y-144672761D01*
X208751666Y-144720380D01*
X208513571Y-144720380D01*
X208418333Y-144672761D01*
X208370714Y-144625142D01*
X209894523Y-144720380D02*
X209323095Y-144720380D01*
X209608809Y-144720380D02*
X209608809Y-143720380D01*
X209513571Y-143863238D01*
X209418333Y-143958476D01*
X209323095Y-144006095D01*
X177700476Y-144672761D02*
X177843333Y-144720380D01*
X178081428Y-144720380D01*
X178176666Y-144672761D01*
X178224285Y-144625142D01*
X178271904Y-144529904D01*
X178271904Y-144434666D01*
X178224285Y-144339428D01*
X178176666Y-144291809D01*
X178081428Y-144244190D01*
X177890952Y-144196571D01*
X177795714Y-144148952D01*
X177748095Y-144101333D01*
X177700476Y-144006095D01*
X177700476Y-143910857D01*
X177748095Y-143815619D01*
X177795714Y-143768000D01*
X177890952Y-143720380D01*
X178129047Y-143720380D01*
X178271904Y-143768000D01*
X178605238Y-143720380D02*
X178843333Y-144720380D01*
X179033809Y-144006095D01*
X179224285Y-144720380D01*
X179462380Y-143720380D01*
X180319523Y-143720380D02*
X179843333Y-143720380D01*
X179795714Y-144196571D01*
X179843333Y-144148952D01*
X179938571Y-144101333D01*
X180176666Y-144101333D01*
X180271904Y-144148952D01*
X180319523Y-144196571D01*
X180367142Y-144291809D01*
X180367142Y-144529904D01*
X180319523Y-144625142D01*
X180271904Y-144672761D01*
X180176666Y-144720380D01*
X179938571Y-144720380D01*
X179843333Y-144672761D01*
X179795714Y-144625142D01*
X180986190Y-143720380D02*
X181081428Y-143720380D01*
X181176666Y-143768000D01*
X181224285Y-143815619D01*
X181271904Y-143910857D01*
X181319523Y-144101333D01*
X181319523Y-144339428D01*
X181271904Y-144529904D01*
X181224285Y-144625142D01*
X181176666Y-144672761D01*
X181081428Y-144720380D01*
X180986190Y-144720380D01*
X180890952Y-144672761D01*
X180843333Y-144625142D01*
X180795714Y-144529904D01*
X180748095Y-144339428D01*
X180748095Y-144101333D01*
X180795714Y-143910857D01*
X180843333Y-143815619D01*
X180890952Y-143768000D01*
X180986190Y-143720380D01*
X158650476Y-144672761D02*
X158793333Y-144720380D01*
X159031428Y-144720380D01*
X159126666Y-144672761D01*
X159174285Y-144625142D01*
X159221904Y-144529904D01*
X159221904Y-144434666D01*
X159174285Y-144339428D01*
X159126666Y-144291809D01*
X159031428Y-144244190D01*
X158840952Y-144196571D01*
X158745714Y-144148952D01*
X158698095Y-144101333D01*
X158650476Y-144006095D01*
X158650476Y-143910857D01*
X158698095Y-143815619D01*
X158745714Y-143768000D01*
X158840952Y-143720380D01*
X159079047Y-143720380D01*
X159221904Y-143768000D01*
X159555238Y-143720380D02*
X159793333Y-144720380D01*
X159983809Y-144006095D01*
X160174285Y-144720380D01*
X160412380Y-143720380D01*
X161221904Y-144053714D02*
X161221904Y-144720380D01*
X160983809Y-143672761D02*
X160745714Y-144387047D01*
X161364761Y-144387047D01*
X161793333Y-144720380D02*
X161983809Y-144720380D01*
X162079047Y-144672761D01*
X162126666Y-144625142D01*
X162221904Y-144482285D01*
X162269523Y-144291809D01*
X162269523Y-143910857D01*
X162221904Y-143815619D01*
X162174285Y-143768000D01*
X162079047Y-143720380D01*
X161888571Y-143720380D01*
X161793333Y-143768000D01*
X161745714Y-143815619D01*
X161698095Y-143910857D01*
X161698095Y-144148952D01*
X161745714Y-144244190D01*
X161793333Y-144291809D01*
X161888571Y-144339428D01*
X162079047Y-144339428D01*
X162174285Y-144291809D01*
X162221904Y-144244190D01*
X162269523Y-144148952D01*
X139600476Y-144672761D02*
X139743333Y-144720380D01*
X139981428Y-144720380D01*
X140076666Y-144672761D01*
X140124285Y-144625142D01*
X140171904Y-144529904D01*
X140171904Y-144434666D01*
X140124285Y-144339428D01*
X140076666Y-144291809D01*
X139981428Y-144244190D01*
X139790952Y-144196571D01*
X139695714Y-144148952D01*
X139648095Y-144101333D01*
X139600476Y-144006095D01*
X139600476Y-143910857D01*
X139648095Y-143815619D01*
X139695714Y-143768000D01*
X139790952Y-143720380D01*
X140029047Y-143720380D01*
X140171904Y-143768000D01*
X140505238Y-143720380D02*
X140743333Y-144720380D01*
X140933809Y-144006095D01*
X141124285Y-144720380D01*
X141362380Y-143720380D01*
X142171904Y-144053714D02*
X142171904Y-144720380D01*
X141933809Y-143672761D02*
X141695714Y-144387047D01*
X142314761Y-144387047D01*
X142838571Y-144148952D02*
X142743333Y-144101333D01*
X142695714Y-144053714D01*
X142648095Y-143958476D01*
X142648095Y-143910857D01*
X142695714Y-143815619D01*
X142743333Y-143768000D01*
X142838571Y-143720380D01*
X143029047Y-143720380D01*
X143124285Y-143768000D01*
X143171904Y-143815619D01*
X143219523Y-143910857D01*
X143219523Y-143958476D01*
X143171904Y-144053714D01*
X143124285Y-144101333D01*
X143029047Y-144148952D01*
X142838571Y-144148952D01*
X142743333Y-144196571D01*
X142695714Y-144244190D01*
X142648095Y-144339428D01*
X142648095Y-144529904D01*
X142695714Y-144625142D01*
X142743333Y-144672761D01*
X142838571Y-144720380D01*
X143029047Y-144720380D01*
X143124285Y-144672761D01*
X143171904Y-144625142D01*
X143219523Y-144529904D01*
X143219523Y-144339428D01*
X143171904Y-144244190D01*
X143124285Y-144196571D01*
X143029047Y-144148952D01*
X120550476Y-144672761D02*
X120693333Y-144720380D01*
X120931428Y-144720380D01*
X121026666Y-144672761D01*
X121074285Y-144625142D01*
X121121904Y-144529904D01*
X121121904Y-144434666D01*
X121074285Y-144339428D01*
X121026666Y-144291809D01*
X120931428Y-144244190D01*
X120740952Y-144196571D01*
X120645714Y-144148952D01*
X120598095Y-144101333D01*
X120550476Y-144006095D01*
X120550476Y-143910857D01*
X120598095Y-143815619D01*
X120645714Y-143768000D01*
X120740952Y-143720380D01*
X120979047Y-143720380D01*
X121121904Y-143768000D01*
X121455238Y-143720380D02*
X121693333Y-144720380D01*
X121883809Y-144006095D01*
X122074285Y-144720380D01*
X122312380Y-143720380D01*
X123121904Y-144053714D02*
X123121904Y-144720380D01*
X122883809Y-143672761D02*
X122645714Y-144387047D01*
X123264761Y-144387047D01*
X123550476Y-143720380D02*
X124217142Y-143720380D01*
X123788571Y-144720380D01*
X101500476Y-144672761D02*
X101643333Y-144720380D01*
X101881428Y-144720380D01*
X101976666Y-144672761D01*
X102024285Y-144625142D01*
X102071904Y-144529904D01*
X102071904Y-144434666D01*
X102024285Y-144339428D01*
X101976666Y-144291809D01*
X101881428Y-144244190D01*
X101690952Y-144196571D01*
X101595714Y-144148952D01*
X101548095Y-144101333D01*
X101500476Y-144006095D01*
X101500476Y-143910857D01*
X101548095Y-143815619D01*
X101595714Y-143768000D01*
X101690952Y-143720380D01*
X101929047Y-143720380D01*
X102071904Y-143768000D01*
X102405238Y-143720380D02*
X102643333Y-144720380D01*
X102833809Y-144006095D01*
X103024285Y-144720380D01*
X103262380Y-143720380D01*
X104071904Y-144053714D02*
X104071904Y-144720380D01*
X103833809Y-143672761D02*
X103595714Y-144387047D01*
X104214761Y-144387047D01*
X105024285Y-143720380D02*
X104833809Y-143720380D01*
X104738571Y-143768000D01*
X104690952Y-143815619D01*
X104595714Y-143958476D01*
X104548095Y-144148952D01*
X104548095Y-144529904D01*
X104595714Y-144625142D01*
X104643333Y-144672761D01*
X104738571Y-144720380D01*
X104929047Y-144720380D01*
X105024285Y-144672761D01*
X105071904Y-144625142D01*
X105119523Y-144529904D01*
X105119523Y-144291809D01*
X105071904Y-144196571D01*
X105024285Y-144148952D01*
X104929047Y-144101333D01*
X104738571Y-144101333D01*
X104643333Y-144148952D01*
X104595714Y-144196571D01*
X104548095Y-144291809D01*
X82450476Y-144672761D02*
X82593333Y-144720380D01*
X82831428Y-144720380D01*
X82926666Y-144672761D01*
X82974285Y-144625142D01*
X83021904Y-144529904D01*
X83021904Y-144434666D01*
X82974285Y-144339428D01*
X82926666Y-144291809D01*
X82831428Y-144244190D01*
X82640952Y-144196571D01*
X82545714Y-144148952D01*
X82498095Y-144101333D01*
X82450476Y-144006095D01*
X82450476Y-143910857D01*
X82498095Y-143815619D01*
X82545714Y-143768000D01*
X82640952Y-143720380D01*
X82879047Y-143720380D01*
X83021904Y-143768000D01*
X83355238Y-143720380D02*
X83593333Y-144720380D01*
X83783809Y-144006095D01*
X83974285Y-144720380D01*
X84212380Y-143720380D01*
X85021904Y-144053714D02*
X85021904Y-144720380D01*
X84783809Y-143672761D02*
X84545714Y-144387047D01*
X85164761Y-144387047D01*
X86021904Y-143720380D02*
X85545714Y-143720380D01*
X85498095Y-144196571D01*
X85545714Y-144148952D01*
X85640952Y-144101333D01*
X85879047Y-144101333D01*
X85974285Y-144148952D01*
X86021904Y-144196571D01*
X86069523Y-144291809D01*
X86069523Y-144529904D01*
X86021904Y-144625142D01*
X85974285Y-144672761D01*
X85879047Y-144720380D01*
X85640952Y-144720380D01*
X85545714Y-144672761D01*
X85498095Y-144625142D01*
X63400476Y-144672761D02*
X63543333Y-144720380D01*
X63781428Y-144720380D01*
X63876666Y-144672761D01*
X63924285Y-144625142D01*
X63971904Y-144529904D01*
X63971904Y-144434666D01*
X63924285Y-144339428D01*
X63876666Y-144291809D01*
X63781428Y-144244190D01*
X63590952Y-144196571D01*
X63495714Y-144148952D01*
X63448095Y-144101333D01*
X63400476Y-144006095D01*
X63400476Y-143910857D01*
X63448095Y-143815619D01*
X63495714Y-143768000D01*
X63590952Y-143720380D01*
X63829047Y-143720380D01*
X63971904Y-143768000D01*
X64305238Y-143720380D02*
X64543333Y-144720380D01*
X64733809Y-144006095D01*
X64924285Y-144720380D01*
X65162380Y-143720380D01*
X65971904Y-144053714D02*
X65971904Y-144720380D01*
X65733809Y-143672761D02*
X65495714Y-144387047D01*
X66114761Y-144387047D01*
X66924285Y-144053714D02*
X66924285Y-144720380D01*
X66686190Y-143672761D02*
X66448095Y-144387047D01*
X67067142Y-144387047D01*
X44350476Y-144672761D02*
X44493333Y-144720380D01*
X44731428Y-144720380D01*
X44826666Y-144672761D01*
X44874285Y-144625142D01*
X44921904Y-144529904D01*
X44921904Y-144434666D01*
X44874285Y-144339428D01*
X44826666Y-144291809D01*
X44731428Y-144244190D01*
X44540952Y-144196571D01*
X44445714Y-144148952D01*
X44398095Y-144101333D01*
X44350476Y-144006095D01*
X44350476Y-143910857D01*
X44398095Y-143815619D01*
X44445714Y-143768000D01*
X44540952Y-143720380D01*
X44779047Y-143720380D01*
X44921904Y-143768000D01*
X45255238Y-143720380D02*
X45493333Y-144720380D01*
X45683809Y-144006095D01*
X45874285Y-144720380D01*
X46112380Y-143720380D01*
X46921904Y-144053714D02*
X46921904Y-144720380D01*
X46683809Y-143672761D02*
X46445714Y-144387047D01*
X47064761Y-144387047D01*
X47350476Y-143720380D02*
X47969523Y-143720380D01*
X47636190Y-144101333D01*
X47779047Y-144101333D01*
X47874285Y-144148952D01*
X47921904Y-144196571D01*
X47969523Y-144291809D01*
X47969523Y-144529904D01*
X47921904Y-144625142D01*
X47874285Y-144672761D01*
X47779047Y-144720380D01*
X47493333Y-144720380D01*
X47398095Y-144672761D01*
X47350476Y-144625142D01*
X25300476Y-144672761D02*
X25443333Y-144720380D01*
X25681428Y-144720380D01*
X25776666Y-144672761D01*
X25824285Y-144625142D01*
X25871904Y-144529904D01*
X25871904Y-144434666D01*
X25824285Y-144339428D01*
X25776666Y-144291809D01*
X25681428Y-144244190D01*
X25490952Y-144196571D01*
X25395714Y-144148952D01*
X25348095Y-144101333D01*
X25300476Y-144006095D01*
X25300476Y-143910857D01*
X25348095Y-143815619D01*
X25395714Y-143768000D01*
X25490952Y-143720380D01*
X25729047Y-143720380D01*
X25871904Y-143768000D01*
X26205238Y-143720380D02*
X26443333Y-144720380D01*
X26633809Y-144006095D01*
X26824285Y-144720380D01*
X27062380Y-143720380D01*
X27871904Y-144053714D02*
X27871904Y-144720380D01*
X27633809Y-143672761D02*
X27395714Y-144387047D01*
X28014761Y-144387047D01*
X28348095Y-143815619D02*
X28395714Y-143768000D01*
X28490952Y-143720380D01*
X28729047Y-143720380D01*
X28824285Y-143768000D01*
X28871904Y-143815619D01*
X28919523Y-143910857D01*
X28919523Y-144006095D01*
X28871904Y-144148952D01*
X28300476Y-144720380D01*
X28919523Y-144720380D01*
X244375476Y-120860761D02*
X244518333Y-120908380D01*
X244756428Y-120908380D01*
X244851666Y-120860761D01*
X244899285Y-120813142D01*
X244946904Y-120717904D01*
X244946904Y-120622666D01*
X244899285Y-120527428D01*
X244851666Y-120479809D01*
X244756428Y-120432190D01*
X244565952Y-120384571D01*
X244470714Y-120336952D01*
X244423095Y-120289333D01*
X244375476Y-120194095D01*
X244375476Y-120098857D01*
X244423095Y-120003619D01*
X244470714Y-119956000D01*
X244565952Y-119908380D01*
X244804047Y-119908380D01*
X244946904Y-119956000D01*
X245280238Y-119908380D02*
X245518333Y-120908380D01*
X245708809Y-120194095D01*
X245899285Y-120908380D01*
X246137380Y-119908380D01*
X246946904Y-120241714D02*
X246946904Y-120908380D01*
X246708809Y-119860761D02*
X246470714Y-120575047D01*
X247089761Y-120575047D01*
X247994523Y-120908380D02*
X247423095Y-120908380D01*
X247708809Y-120908380D02*
X247708809Y-119908380D01*
X247613571Y-120051238D01*
X247518333Y-120146476D01*
X247423095Y-120194095D01*
X225325476Y-120860761D02*
X225468333Y-120908380D01*
X225706428Y-120908380D01*
X225801666Y-120860761D01*
X225849285Y-120813142D01*
X225896904Y-120717904D01*
X225896904Y-120622666D01*
X225849285Y-120527428D01*
X225801666Y-120479809D01*
X225706428Y-120432190D01*
X225515952Y-120384571D01*
X225420714Y-120336952D01*
X225373095Y-120289333D01*
X225325476Y-120194095D01*
X225325476Y-120098857D01*
X225373095Y-120003619D01*
X225420714Y-119956000D01*
X225515952Y-119908380D01*
X225754047Y-119908380D01*
X225896904Y-119956000D01*
X226230238Y-119908380D02*
X226468333Y-120908380D01*
X226658809Y-120194095D01*
X226849285Y-120908380D01*
X227087380Y-119908380D01*
X227896904Y-120241714D02*
X227896904Y-120908380D01*
X227658809Y-119860761D02*
X227420714Y-120575047D01*
X228039761Y-120575047D01*
X228611190Y-119908380D02*
X228706428Y-119908380D01*
X228801666Y-119956000D01*
X228849285Y-120003619D01*
X228896904Y-120098857D01*
X228944523Y-120289333D01*
X228944523Y-120527428D01*
X228896904Y-120717904D01*
X228849285Y-120813142D01*
X228801666Y-120860761D01*
X228706428Y-120908380D01*
X228611190Y-120908380D01*
X228515952Y-120860761D01*
X228468333Y-120813142D01*
X228420714Y-120717904D01*
X228373095Y-120527428D01*
X228373095Y-120289333D01*
X228420714Y-120098857D01*
X228468333Y-120003619D01*
X228515952Y-119956000D01*
X228611190Y-119908380D01*
X206275476Y-120860761D02*
X206418333Y-120908380D01*
X206656428Y-120908380D01*
X206751666Y-120860761D01*
X206799285Y-120813142D01*
X206846904Y-120717904D01*
X206846904Y-120622666D01*
X206799285Y-120527428D01*
X206751666Y-120479809D01*
X206656428Y-120432190D01*
X206465952Y-120384571D01*
X206370714Y-120336952D01*
X206323095Y-120289333D01*
X206275476Y-120194095D01*
X206275476Y-120098857D01*
X206323095Y-120003619D01*
X206370714Y-119956000D01*
X206465952Y-119908380D01*
X206704047Y-119908380D01*
X206846904Y-119956000D01*
X207180238Y-119908380D02*
X207418333Y-120908380D01*
X207608809Y-120194095D01*
X207799285Y-120908380D01*
X208037380Y-119908380D01*
X208323095Y-119908380D02*
X208942142Y-119908380D01*
X208608809Y-120289333D01*
X208751666Y-120289333D01*
X208846904Y-120336952D01*
X208894523Y-120384571D01*
X208942142Y-120479809D01*
X208942142Y-120717904D01*
X208894523Y-120813142D01*
X208846904Y-120860761D01*
X208751666Y-120908380D01*
X208465952Y-120908380D01*
X208370714Y-120860761D01*
X208323095Y-120813142D01*
X209418333Y-120908380D02*
X209608809Y-120908380D01*
X209704047Y-120860761D01*
X209751666Y-120813142D01*
X209846904Y-120670285D01*
X209894523Y-120479809D01*
X209894523Y-120098857D01*
X209846904Y-120003619D01*
X209799285Y-119956000D01*
X209704047Y-119908380D01*
X209513571Y-119908380D01*
X209418333Y-119956000D01*
X209370714Y-120003619D01*
X209323095Y-120098857D01*
X209323095Y-120336952D01*
X209370714Y-120432190D01*
X209418333Y-120479809D01*
X209513571Y-120527428D01*
X209704047Y-120527428D01*
X209799285Y-120479809D01*
X209846904Y-120432190D01*
X209894523Y-120336952D01*
X177700476Y-120860761D02*
X177843333Y-120908380D01*
X178081428Y-120908380D01*
X178176666Y-120860761D01*
X178224285Y-120813142D01*
X178271904Y-120717904D01*
X178271904Y-120622666D01*
X178224285Y-120527428D01*
X178176666Y-120479809D01*
X178081428Y-120432190D01*
X177890952Y-120384571D01*
X177795714Y-120336952D01*
X177748095Y-120289333D01*
X177700476Y-120194095D01*
X177700476Y-120098857D01*
X177748095Y-120003619D01*
X177795714Y-119956000D01*
X177890952Y-119908380D01*
X178129047Y-119908380D01*
X178271904Y-119956000D01*
X178605238Y-119908380D02*
X178843333Y-120908380D01*
X179033809Y-120194095D01*
X179224285Y-120908380D01*
X179462380Y-119908380D01*
X179748095Y-119908380D02*
X180367142Y-119908380D01*
X180033809Y-120289333D01*
X180176666Y-120289333D01*
X180271904Y-120336952D01*
X180319523Y-120384571D01*
X180367142Y-120479809D01*
X180367142Y-120717904D01*
X180319523Y-120813142D01*
X180271904Y-120860761D01*
X180176666Y-120908380D01*
X179890952Y-120908380D01*
X179795714Y-120860761D01*
X179748095Y-120813142D01*
X180938571Y-120336952D02*
X180843333Y-120289333D01*
X180795714Y-120241714D01*
X180748095Y-120146476D01*
X180748095Y-120098857D01*
X180795714Y-120003619D01*
X180843333Y-119956000D01*
X180938571Y-119908380D01*
X181129047Y-119908380D01*
X181224285Y-119956000D01*
X181271904Y-120003619D01*
X181319523Y-120098857D01*
X181319523Y-120146476D01*
X181271904Y-120241714D01*
X181224285Y-120289333D01*
X181129047Y-120336952D01*
X180938571Y-120336952D01*
X180843333Y-120384571D01*
X180795714Y-120432190D01*
X180748095Y-120527428D01*
X180748095Y-120717904D01*
X180795714Y-120813142D01*
X180843333Y-120860761D01*
X180938571Y-120908380D01*
X181129047Y-120908380D01*
X181224285Y-120860761D01*
X181271904Y-120813142D01*
X181319523Y-120717904D01*
X181319523Y-120527428D01*
X181271904Y-120432190D01*
X181224285Y-120384571D01*
X181129047Y-120336952D01*
X158650476Y-120860761D02*
X158793333Y-120908380D01*
X159031428Y-120908380D01*
X159126666Y-120860761D01*
X159174285Y-120813142D01*
X159221904Y-120717904D01*
X159221904Y-120622666D01*
X159174285Y-120527428D01*
X159126666Y-120479809D01*
X159031428Y-120432190D01*
X158840952Y-120384571D01*
X158745714Y-120336952D01*
X158698095Y-120289333D01*
X158650476Y-120194095D01*
X158650476Y-120098857D01*
X158698095Y-120003619D01*
X158745714Y-119956000D01*
X158840952Y-119908380D01*
X159079047Y-119908380D01*
X159221904Y-119956000D01*
X159555238Y-119908380D02*
X159793333Y-120908380D01*
X159983809Y-120194095D01*
X160174285Y-120908380D01*
X160412380Y-119908380D01*
X160698095Y-119908380D02*
X161317142Y-119908380D01*
X160983809Y-120289333D01*
X161126666Y-120289333D01*
X161221904Y-120336952D01*
X161269523Y-120384571D01*
X161317142Y-120479809D01*
X161317142Y-120717904D01*
X161269523Y-120813142D01*
X161221904Y-120860761D01*
X161126666Y-120908380D01*
X160840952Y-120908380D01*
X160745714Y-120860761D01*
X160698095Y-120813142D01*
X161650476Y-119908380D02*
X162317142Y-119908380D01*
X161888571Y-120908380D01*
X139600476Y-120860761D02*
X139743333Y-120908380D01*
X139981428Y-120908380D01*
X140076666Y-120860761D01*
X140124285Y-120813142D01*
X140171904Y-120717904D01*
X140171904Y-120622666D01*
X140124285Y-120527428D01*
X140076666Y-120479809D01*
X139981428Y-120432190D01*
X139790952Y-120384571D01*
X139695714Y-120336952D01*
X139648095Y-120289333D01*
X139600476Y-120194095D01*
X139600476Y-120098857D01*
X139648095Y-120003619D01*
X139695714Y-119956000D01*
X139790952Y-119908380D01*
X140029047Y-119908380D01*
X140171904Y-119956000D01*
X140505238Y-119908380D02*
X140743333Y-120908380D01*
X140933809Y-120194095D01*
X141124285Y-120908380D01*
X141362380Y-119908380D01*
X141648095Y-119908380D02*
X142267142Y-119908380D01*
X141933809Y-120289333D01*
X142076666Y-120289333D01*
X142171904Y-120336952D01*
X142219523Y-120384571D01*
X142267142Y-120479809D01*
X142267142Y-120717904D01*
X142219523Y-120813142D01*
X142171904Y-120860761D01*
X142076666Y-120908380D01*
X141790952Y-120908380D01*
X141695714Y-120860761D01*
X141648095Y-120813142D01*
X143124285Y-119908380D02*
X142933809Y-119908380D01*
X142838571Y-119956000D01*
X142790952Y-120003619D01*
X142695714Y-120146476D01*
X142648095Y-120336952D01*
X142648095Y-120717904D01*
X142695714Y-120813142D01*
X142743333Y-120860761D01*
X142838571Y-120908380D01*
X143029047Y-120908380D01*
X143124285Y-120860761D01*
X143171904Y-120813142D01*
X143219523Y-120717904D01*
X143219523Y-120479809D01*
X143171904Y-120384571D01*
X143124285Y-120336952D01*
X143029047Y-120289333D01*
X142838571Y-120289333D01*
X142743333Y-120336952D01*
X142695714Y-120384571D01*
X142648095Y-120479809D01*
X120550476Y-120860761D02*
X120693333Y-120908380D01*
X120931428Y-120908380D01*
X121026666Y-120860761D01*
X121074285Y-120813142D01*
X121121904Y-120717904D01*
X121121904Y-120622666D01*
X121074285Y-120527428D01*
X121026666Y-120479809D01*
X120931428Y-120432190D01*
X120740952Y-120384571D01*
X120645714Y-120336952D01*
X120598095Y-120289333D01*
X120550476Y-120194095D01*
X120550476Y-120098857D01*
X120598095Y-120003619D01*
X120645714Y-119956000D01*
X120740952Y-119908380D01*
X120979047Y-119908380D01*
X121121904Y-119956000D01*
X121455238Y-119908380D02*
X121693333Y-120908380D01*
X121883809Y-120194095D01*
X122074285Y-120908380D01*
X122312380Y-119908380D01*
X122598095Y-119908380D02*
X123217142Y-119908380D01*
X122883809Y-120289333D01*
X123026666Y-120289333D01*
X123121904Y-120336952D01*
X123169523Y-120384571D01*
X123217142Y-120479809D01*
X123217142Y-120717904D01*
X123169523Y-120813142D01*
X123121904Y-120860761D01*
X123026666Y-120908380D01*
X122740952Y-120908380D01*
X122645714Y-120860761D01*
X122598095Y-120813142D01*
X124121904Y-119908380D02*
X123645714Y-119908380D01*
X123598095Y-120384571D01*
X123645714Y-120336952D01*
X123740952Y-120289333D01*
X123979047Y-120289333D01*
X124074285Y-120336952D01*
X124121904Y-120384571D01*
X124169523Y-120479809D01*
X124169523Y-120717904D01*
X124121904Y-120813142D01*
X124074285Y-120860761D01*
X123979047Y-120908380D01*
X123740952Y-120908380D01*
X123645714Y-120860761D01*
X123598095Y-120813142D01*
X91975476Y-120860761D02*
X92118333Y-120908380D01*
X92356428Y-120908380D01*
X92451666Y-120860761D01*
X92499285Y-120813142D01*
X92546904Y-120717904D01*
X92546904Y-120622666D01*
X92499285Y-120527428D01*
X92451666Y-120479809D01*
X92356428Y-120432190D01*
X92165952Y-120384571D01*
X92070714Y-120336952D01*
X92023095Y-120289333D01*
X91975476Y-120194095D01*
X91975476Y-120098857D01*
X92023095Y-120003619D01*
X92070714Y-119956000D01*
X92165952Y-119908380D01*
X92404047Y-119908380D01*
X92546904Y-119956000D01*
X92880238Y-119908380D02*
X93118333Y-120908380D01*
X93308809Y-120194095D01*
X93499285Y-120908380D01*
X93737380Y-119908380D01*
X94023095Y-119908380D02*
X94642142Y-119908380D01*
X94308809Y-120289333D01*
X94451666Y-120289333D01*
X94546904Y-120336952D01*
X94594523Y-120384571D01*
X94642142Y-120479809D01*
X94642142Y-120717904D01*
X94594523Y-120813142D01*
X94546904Y-120860761D01*
X94451666Y-120908380D01*
X94165952Y-120908380D01*
X94070714Y-120860761D01*
X94023095Y-120813142D01*
X95499285Y-120241714D02*
X95499285Y-120908380D01*
X95261190Y-119860761D02*
X95023095Y-120575047D01*
X95642142Y-120575047D01*
X72925476Y-120860761D02*
X73068333Y-120908380D01*
X73306428Y-120908380D01*
X73401666Y-120860761D01*
X73449285Y-120813142D01*
X73496904Y-120717904D01*
X73496904Y-120622666D01*
X73449285Y-120527428D01*
X73401666Y-120479809D01*
X73306428Y-120432190D01*
X73115952Y-120384571D01*
X73020714Y-120336952D01*
X72973095Y-120289333D01*
X72925476Y-120194095D01*
X72925476Y-120098857D01*
X72973095Y-120003619D01*
X73020714Y-119956000D01*
X73115952Y-119908380D01*
X73354047Y-119908380D01*
X73496904Y-119956000D01*
X73830238Y-119908380D02*
X74068333Y-120908380D01*
X74258809Y-120194095D01*
X74449285Y-120908380D01*
X74687380Y-119908380D01*
X74973095Y-119908380D02*
X75592142Y-119908380D01*
X75258809Y-120289333D01*
X75401666Y-120289333D01*
X75496904Y-120336952D01*
X75544523Y-120384571D01*
X75592142Y-120479809D01*
X75592142Y-120717904D01*
X75544523Y-120813142D01*
X75496904Y-120860761D01*
X75401666Y-120908380D01*
X75115952Y-120908380D01*
X75020714Y-120860761D01*
X74973095Y-120813142D01*
X75925476Y-119908380D02*
X76544523Y-119908380D01*
X76211190Y-120289333D01*
X76354047Y-120289333D01*
X76449285Y-120336952D01*
X76496904Y-120384571D01*
X76544523Y-120479809D01*
X76544523Y-120717904D01*
X76496904Y-120813142D01*
X76449285Y-120860761D01*
X76354047Y-120908380D01*
X76068333Y-120908380D01*
X75973095Y-120860761D01*
X75925476Y-120813142D01*
X53875476Y-120860761D02*
X54018333Y-120908380D01*
X54256428Y-120908380D01*
X54351666Y-120860761D01*
X54399285Y-120813142D01*
X54446904Y-120717904D01*
X54446904Y-120622666D01*
X54399285Y-120527428D01*
X54351666Y-120479809D01*
X54256428Y-120432190D01*
X54065952Y-120384571D01*
X53970714Y-120336952D01*
X53923095Y-120289333D01*
X53875476Y-120194095D01*
X53875476Y-120098857D01*
X53923095Y-120003619D01*
X53970714Y-119956000D01*
X54065952Y-119908380D01*
X54304047Y-119908380D01*
X54446904Y-119956000D01*
X54780238Y-119908380D02*
X55018333Y-120908380D01*
X55208809Y-120194095D01*
X55399285Y-120908380D01*
X55637380Y-119908380D01*
X55923095Y-119908380D02*
X56542142Y-119908380D01*
X56208809Y-120289333D01*
X56351666Y-120289333D01*
X56446904Y-120336952D01*
X56494523Y-120384571D01*
X56542142Y-120479809D01*
X56542142Y-120717904D01*
X56494523Y-120813142D01*
X56446904Y-120860761D01*
X56351666Y-120908380D01*
X56065952Y-120908380D01*
X55970714Y-120860761D01*
X55923095Y-120813142D01*
X56923095Y-120003619D02*
X56970714Y-119956000D01*
X57065952Y-119908380D01*
X57304047Y-119908380D01*
X57399285Y-119956000D01*
X57446904Y-120003619D01*
X57494523Y-120098857D01*
X57494523Y-120194095D01*
X57446904Y-120336952D01*
X56875476Y-120908380D01*
X57494523Y-120908380D01*
X34825476Y-120860761D02*
X34968333Y-120908380D01*
X35206428Y-120908380D01*
X35301666Y-120860761D01*
X35349285Y-120813142D01*
X35396904Y-120717904D01*
X35396904Y-120622666D01*
X35349285Y-120527428D01*
X35301666Y-120479809D01*
X35206428Y-120432190D01*
X35015952Y-120384571D01*
X34920714Y-120336952D01*
X34873095Y-120289333D01*
X34825476Y-120194095D01*
X34825476Y-120098857D01*
X34873095Y-120003619D01*
X34920714Y-119956000D01*
X35015952Y-119908380D01*
X35254047Y-119908380D01*
X35396904Y-119956000D01*
X35730238Y-119908380D02*
X35968333Y-120908380D01*
X36158809Y-120194095D01*
X36349285Y-120908380D01*
X36587380Y-119908380D01*
X36873095Y-119908380D02*
X37492142Y-119908380D01*
X37158809Y-120289333D01*
X37301666Y-120289333D01*
X37396904Y-120336952D01*
X37444523Y-120384571D01*
X37492142Y-120479809D01*
X37492142Y-120717904D01*
X37444523Y-120813142D01*
X37396904Y-120860761D01*
X37301666Y-120908380D01*
X37015952Y-120908380D01*
X36920714Y-120860761D01*
X36873095Y-120813142D01*
X38444523Y-120908380D02*
X37873095Y-120908380D01*
X38158809Y-120908380D02*
X38158809Y-119908380D01*
X38063571Y-120051238D01*
X37968333Y-120146476D01*
X37873095Y-120194095D01*
X245197695Y-109975466D02*
X244810647Y-110246400D01*
X245197695Y-110439923D02*
X244384895Y-110439923D01*
X244384895Y-110130285D01*
X244423600Y-110052876D01*
X244462304Y-110014171D01*
X244539714Y-109975466D01*
X244655828Y-109975466D01*
X244733238Y-110014171D01*
X244771942Y-110052876D01*
X244810647Y-110130285D01*
X244810647Y-110439923D01*
X244462304Y-109665828D02*
X244423600Y-109627123D01*
X244384895Y-109549714D01*
X244384895Y-109356190D01*
X244423600Y-109278780D01*
X244462304Y-109240076D01*
X244539714Y-109201371D01*
X244617123Y-109201371D01*
X244733238Y-109240076D01*
X245197695Y-109704533D01*
X245197695Y-109201371D01*
X241447695Y-109935466D02*
X241060647Y-110206400D01*
X241447695Y-110399923D02*
X240634895Y-110399923D01*
X240634895Y-110090285D01*
X240673600Y-110012876D01*
X240712304Y-109974171D01*
X240789714Y-109935466D01*
X240905828Y-109935466D01*
X240983238Y-109974171D01*
X241021942Y-110012876D01*
X241060647Y-110090285D01*
X241060647Y-110399923D01*
X241447695Y-109161371D02*
X241447695Y-109625828D01*
X241447695Y-109393600D02*
X240634895Y-109393600D01*
X240751009Y-109471009D01*
X240828419Y-109548419D01*
X240867123Y-109625828D01*
X19738095Y-101902380D02*
X20309523Y-101902380D01*
X20023809Y-102902380D02*
X20023809Y-101902380D01*
X21214285Y-102902380D02*
X20880952Y-102426190D01*
X20642857Y-102902380D02*
X20642857Y-101902380D01*
X21023809Y-101902380D01*
X21119047Y-101950000D01*
X21166666Y-101997619D01*
X21214285Y-102092857D01*
X21214285Y-102235714D01*
X21166666Y-102330952D01*
X21119047Y-102378571D01*
X21023809Y-102426190D01*
X20642857Y-102426190D01*
X22214285Y-102902380D02*
X21880952Y-102426190D01*
X21642857Y-102902380D02*
X21642857Y-101902380D01*
X22023809Y-101902380D01*
X22119047Y-101950000D01*
X22166666Y-101997619D01*
X22214285Y-102092857D01*
X22214285Y-102235714D01*
X22166666Y-102330952D01*
X22119047Y-102378571D01*
X22023809Y-102426190D01*
X21642857Y-102426190D01*
X22595238Y-102854761D02*
X22738095Y-102902380D01*
X22976190Y-102902380D01*
X23071428Y-102854761D01*
X23119047Y-102807142D01*
X23166666Y-102711904D01*
X23166666Y-102616666D01*
X23119047Y-102521428D01*
X23071428Y-102473809D01*
X22976190Y-102426190D01*
X22785714Y-102378571D01*
X22690476Y-102330952D01*
X22642857Y-102283333D01*
X22595238Y-102188095D01*
X22595238Y-102092857D01*
X22642857Y-101997619D01*
X22690476Y-101950000D01*
X22785714Y-101902380D01*
X23023809Y-101902380D01*
X23166666Y-101950000D01*
M02*
