M48
; DRILL file {KiCad (5.1.8)-1} date 12/08/20 19:37:43
; FORMAT={3:3/ absolute / metric / suppress trailing zeros}
; #@! TF.CreationDate,2020-12-08T19:37:43+09:00
; #@! TF.GenerationSoftware,Kicad,Pcbnew,(5.1.8)-1
; #@! TF.FileFunction,Plated,1,2,PTH
FMAT,2
METRIC,LZ
T1C0.813
T2C1.000
T3C1.092
T4C1.300
T5C1.500
%
G90
G05
T1
X042374Y-160462
X049994Y-160462
X032824Y-179362
X040444Y-179362
X128074Y-179412
X135694Y-179412
X089974Y-179412
X097594Y-179412
X106624Y-236562
X114244Y-236562
X168574Y-217562
X176194Y-217562
X156674Y-160462
X164294Y-160462
X204274Y-136462
X211894Y-136462
X118574Y-160412
X126194Y-160412
X241Y-10721
X241Y-11229
X075674Y-198462
X083294Y-198462
X109024Y-179412
X116644Y-179412
X032824Y-136462
X040444Y-136462
X204274Y-179412
X211894Y-179412
X135574Y-136462
X143194Y-136462
X123324Y-217562
X130944Y-217562
X242374Y-236562
X249994Y-236562
X175674Y-160462
X183294Y-160462
X204274Y-160462
X211894Y-160462
X223324Y-160462
X230944Y-160462
X24475Y-10725
X24475Y-11233
X047124Y-217562
X054744Y-217562
X223324Y-179462
X230944Y-179462
X132824Y-198462
X140444Y-198462
X070924Y-136462
X078544Y-136462
X147124Y-236562
X154744Y-236562
X142374Y-217562
X149994Y-217562
X061624Y-160462
X069244Y-160462
X099574Y-160412
X107194Y-160412
X175674Y-136512
X183294Y-136512
X094724Y-198462
X102344Y-198462
X037574Y-198462
X045194Y-198462
X240274Y-179412
X247894Y-179412
X223324Y-217612
X230944Y-217612
X058974Y-236562
X066594Y-236562
X223274Y-236562
X230894Y-236562
X051874Y-179362
X059494Y-179362
X023374Y-160462
X030994Y-160462
X066124Y-217562
X073744Y-217562
X026024Y-217562
X033644Y-217562
X147124Y-179512
X154744Y-179512
X089974Y-136462
X097594Y-136462
X128074Y-236562
X135694Y-236562
X242374Y-217562
X249994Y-217562
X170924Y-236562
X178544Y-236562
X240374Y-160412
X247994Y-160412
X137574Y-160412
X145194Y-160412
X173324Y-189562
X180944Y-189562
X113774Y-198462
X121394Y-198462
X154624Y-136512
X162244Y-136512
X070924Y-179312
X078544Y-179312
X116524Y-136462
X124144Y-136462
X204274Y-236562
X211894Y-236562
X085224Y-217562
X092844Y-217562
X082824Y-236562
X090444Y-236562
X240424Y-136512
X248044Y-136512
X080474Y-160412
X088094Y-160412
X151924Y-198462
X159544Y-198462
X056624Y-198462
X064244Y-198462
X051874Y-136462
X059494Y-136462
X030374Y-236562
X037994Y-236562
X102224Y-217562
X109844Y-217562
X204274Y-217562
X211894Y-217562
X223274Y-136462
X230894Y-136462
T3
X22703Y-102109
X22703Y-10442
X22703Y-10696
X22703Y-1095
X22703Y-11204
X22703Y-11458
X22703Y-11712
X22957Y-10188
X22957Y-11712
X23211Y-10188
X23211Y-11712
X23465Y-10188
X23465Y-11712
X23719Y-10188
X23719Y-11712
X23973Y-10188
X23973Y-11712
X24227Y-10188
X24227Y-11712
X24481Y-10188
X24481Y-11712
X24735Y-10188
X24735Y-11712
X24989Y-10188
X24989Y-11712
X25243Y-10188
X25243Y-11712
X25497Y-10188
X25497Y-11712
T4
X25Y-10575
X25Y-11225
T5
X04235Y-149602
X0487Y-147062
X15665Y-12579
X163Y-12325
X242375Y-168652
X248725Y-166112
X113788Y-187702
X120138Y-185162
X085212Y-206752
X091562Y-204212
X089975Y-168652
X096325Y-166112
X109025Y-168652
X115375Y-166112
X242375Y-225802
X248725Y-223262
X1376Y-149602
X14395Y-147062
X170938Y-225802
X177288Y-223262
X147125Y-225802
X153475Y-223262
X089975Y-12579
X096325Y-12325
X032825Y-12579
X039175Y-12325
X070925Y-12579
X077275Y-12325
X028062Y-206752
X034412Y-204212
X104262Y-206752
X110612Y-204212
X242375Y-206752
X248725Y-204212
X1757Y-149602
X18205Y-147062
X0995Y-149602
X10585Y-147062
X15665Y-149602
X163Y-147062
X168556Y-206752
X174906Y-204212
X204275Y-225802
X210625Y-223262
X11855Y-12579
X1249Y-12325
X037588Y-187702
X043938Y-185162
X066162Y-206752
X072512Y-204212
X142362Y-206752
X148712Y-204212
X223325Y-149602
X229675Y-147062
X11855Y-149602
X1249Y-147062
X059018Y-225802
X065368Y-223262
X204275Y-168652
X210625Y-166112
X173318Y-178178
X179668Y-175638
X1376Y-12579
X14395Y-12325
X056638Y-187702
X062988Y-185162
X132838Y-187702
X139188Y-185162
X070925Y-168652
X077275Y-166112
X204275Y-149602
X210625Y-147062
X0304Y-22579
X03675Y-22325
X128075Y-168652
X134425Y-166112
X223325Y-12579
X229675Y-12325
X1757Y-12579
X18205Y-12325
X075688Y-187702
X082038Y-185162
X204275Y-206752
X210625Y-204212
X032825Y-168652
X039175Y-166112
X051875Y-168652
X058225Y-166112
X106644Y-225802
X112994Y-223262
X204275Y-12579
X210625Y-12325
X242375Y-12579
X248725Y-12325
X123312Y-206752
X129662Y-204212
X047112Y-206752
X053462Y-204212
X242375Y-149602
X248725Y-147062
X147125Y-168652
X153475Y-166112
X051875Y-12579
X058225Y-12325
X0233Y-149602
X02965Y-147062
X223325Y-206752
X229675Y-204212
X094738Y-187702
X101088Y-185162
X151888Y-187702
X158238Y-185162
X223325Y-168652
X229675Y-166112
X223325Y-225802
X229675Y-223262
X08045Y-149602
X0868Y-147062
X082831Y-225802
X089181Y-223262
X128075Y-225802
X134425Y-223262
X0614Y-149602
X06775Y-147062
T2
G00X0184Y-09905
M15
G01X0184Y-09955
M16
G05
G00X0184Y-10205
M15
G01X0184Y-10255
M16
G05
G00X0184Y-10605
M15
G01X0184Y-10655
M16
G05
G00X02015Y-10755
M15
G01X02015Y-10805
M16
G05
G00X0226Y-10755
M15
G01X0226Y-10805
M16
G05
G00X02435Y-09905
M15
G01X02435Y-09955
M16
G05
G00X02435Y-10205
M15
G01X02435Y-10255
M16
G05
G00X02435Y-10605
M15
G01X02435Y-10655
M16
G05
T0
M30
