G04 #@! TF.GenerationSoftware,KiCad,Pcbnew,(5.1.8)-1*
G04 #@! TF.CreationDate,2020-12-13T12:05:22+09:00*
G04 #@! TF.ProjectId,keyboard-layouter-playground,6b657962-6f61-4726-942d-6c61796f7574,rev?*
G04 #@! TF.SameCoordinates,Original*
G04 #@! TF.FileFunction,Soldermask,Bot*
G04 #@! TF.FilePolarity,Negative*
%FSLAX46Y46*%
G04 Gerber Fmt 4.6, Leading zero omitted, Abs format (unit mm)*
G04 Created by KiCad (PCBNEW (5.1.8)-1) date 2020-12-13 12:05:22*
%MOMM*%
%LPD*%
G01*
G04 APERTURE LIST*
%ADD10C,1.752600*%
%ADD11R,1.752600X1.752600*%
%ADD12C,2.000000*%
%ADD13C,4.000000*%
%ADD14C,2.200000*%
%ADD15C,1.397000*%
%ADD16O,1.700000X2.500000*%
%ADD17R,0.950000X1.300000*%
%ADD18R,1.397000X1.397000*%
%ADD19R,1.300000X0.950000*%
G04 APERTURE END LIST*
D10*
X227030000Y-104420000D03*
X227030000Y-106960000D03*
X227030000Y-109500000D03*
X227030000Y-112040000D03*
X227030000Y-114580000D03*
X254970000Y-117120000D03*
X227030000Y-102108600D03*
X252430000Y-117120000D03*
X249890000Y-117120000D03*
X247350000Y-117120000D03*
X244810000Y-117120000D03*
X242270000Y-117120000D03*
X239730000Y-117120000D03*
X237190000Y-117120000D03*
X234650000Y-117120000D03*
X232110000Y-117120000D03*
X229570000Y-117120000D03*
X227030000Y-117120000D03*
X229570000Y-101880000D03*
X232110000Y-101880000D03*
X234650000Y-101880000D03*
X237190000Y-101880000D03*
X239730000Y-101880000D03*
X242270000Y-101880000D03*
X244810000Y-101880000D03*
X247350000Y-101880000D03*
X249890000Y-101880000D03*
X252430000Y-101880000D03*
D11*
X254970000Y-101880000D03*
D12*
X250000000Y-105750000D03*
X250000000Y-112250000D03*
D13*
X177128000Y-180718000D03*
D14*
X173318000Y-178178000D03*
X179668000Y-175638000D03*
D13*
X34210000Y-228330000D03*
D14*
X30400000Y-225790000D03*
X36750000Y-223250000D03*
D13*
X172366000Y-209292000D03*
D14*
X168556000Y-206752000D03*
X174906000Y-204212000D03*
D13*
X174748000Y-228342000D03*
D14*
X170938000Y-225802000D03*
X177288000Y-223262000D03*
D13*
X110454000Y-228342000D03*
D14*
X106644000Y-225802000D03*
X112994000Y-223262000D03*
D13*
X86641000Y-228342000D03*
D14*
X82831000Y-225802000D03*
X89181000Y-223262000D03*
D13*
X62828000Y-228342000D03*
D14*
X59018000Y-225802000D03*
X65368000Y-223262000D03*
D13*
X246185000Y-228342000D03*
D14*
X242375000Y-225802000D03*
X248725000Y-223262000D03*
D13*
X227135000Y-228342000D03*
D14*
X223325000Y-225802000D03*
X229675000Y-223262000D03*
D13*
X208085000Y-228342000D03*
D14*
X204275000Y-225802000D03*
X210625000Y-223262000D03*
D13*
X150935000Y-228342000D03*
D14*
X147125000Y-225802000D03*
X153475000Y-223262000D03*
D13*
X131885000Y-228342000D03*
D14*
X128075000Y-225802000D03*
X134425000Y-223262000D03*
D13*
X246185000Y-209292000D03*
D14*
X242375000Y-206752000D03*
X248725000Y-204212000D03*
D13*
X227135000Y-209292000D03*
D14*
X223325000Y-206752000D03*
X229675000Y-204212000D03*
D13*
X208085000Y-209292000D03*
D14*
X204275000Y-206752000D03*
X210625000Y-204212000D03*
D13*
X146172000Y-209292000D03*
D14*
X142362000Y-206752000D03*
X148712000Y-204212000D03*
D13*
X127122000Y-209292000D03*
D14*
X123312000Y-206752000D03*
X129662000Y-204212000D03*
D13*
X108072000Y-209292000D03*
D14*
X104262000Y-206752000D03*
X110612000Y-204212000D03*
D13*
X89022000Y-209292000D03*
D14*
X85212000Y-206752000D03*
X91562000Y-204212000D03*
D13*
X69972000Y-209292000D03*
D14*
X66162000Y-206752000D03*
X72512000Y-204212000D03*
D13*
X50922000Y-209292000D03*
D14*
X47112000Y-206752000D03*
X53462000Y-204212000D03*
D13*
X31872000Y-209292000D03*
D14*
X28062000Y-206752000D03*
X34412000Y-204212000D03*
D13*
X155698000Y-190242000D03*
D14*
X151888000Y-187702000D03*
X158238000Y-185162000D03*
D13*
X136648000Y-190242000D03*
D14*
X132838000Y-187702000D03*
X139188000Y-185162000D03*
D13*
X117598000Y-190242000D03*
D14*
X113788000Y-187702000D03*
X120138000Y-185162000D03*
D13*
X98548000Y-190242000D03*
D14*
X94738000Y-187702000D03*
X101088000Y-185162000D03*
D13*
X79498000Y-190242000D03*
D14*
X75688000Y-187702000D03*
X82038000Y-185162000D03*
D13*
X60448000Y-190242000D03*
D14*
X56638000Y-187702000D03*
X62988000Y-185162000D03*
D13*
X41398000Y-190242000D03*
D14*
X37588000Y-187702000D03*
X43938000Y-185162000D03*
D13*
X246185000Y-171192000D03*
D14*
X242375000Y-168652000D03*
X248725000Y-166112000D03*
D13*
X227135000Y-171192000D03*
D14*
X223325000Y-168652000D03*
X229675000Y-166112000D03*
D13*
X208085000Y-171192000D03*
D14*
X204275000Y-168652000D03*
X210625000Y-166112000D03*
D13*
X150935000Y-171192000D03*
D14*
X147125000Y-168652000D03*
X153475000Y-166112000D03*
D13*
X131885000Y-171192000D03*
D14*
X128075000Y-168652000D03*
X134425000Y-166112000D03*
D13*
X112835000Y-171192000D03*
D14*
X109025000Y-168652000D03*
X115375000Y-166112000D03*
D13*
X93785000Y-171192000D03*
D14*
X89975000Y-168652000D03*
X96325000Y-166112000D03*
D13*
X74735000Y-171192000D03*
D14*
X70925000Y-168652000D03*
X77275000Y-166112000D03*
D13*
X55685000Y-171192000D03*
D14*
X51875000Y-168652000D03*
X58225000Y-166112000D03*
D13*
X36635000Y-171192000D03*
D14*
X32825000Y-168652000D03*
X39175000Y-166112000D03*
D13*
X246185000Y-152142000D03*
D14*
X242375000Y-149602000D03*
X248725000Y-147062000D03*
D13*
X227135000Y-152142000D03*
D14*
X223325000Y-149602000D03*
X229675000Y-147062000D03*
D13*
X208085000Y-152142000D03*
D14*
X204275000Y-149602000D03*
X210625000Y-147062000D03*
D13*
X179510000Y-152142000D03*
D14*
X175700000Y-149602000D03*
X182050000Y-147062000D03*
D13*
X160460000Y-152142000D03*
D14*
X156650000Y-149602000D03*
X163000000Y-147062000D03*
D13*
X141410000Y-152142000D03*
D14*
X137600000Y-149602000D03*
X143950000Y-147062000D03*
D13*
X122360000Y-152142000D03*
D14*
X118550000Y-149602000D03*
X124900000Y-147062000D03*
D13*
X103310000Y-152142000D03*
D14*
X99500000Y-149602000D03*
X105850000Y-147062000D03*
D13*
X84260000Y-152142000D03*
D14*
X80450000Y-149602000D03*
X86800000Y-147062000D03*
D13*
X65210000Y-152142000D03*
D14*
X61400000Y-149602000D03*
X67750000Y-147062000D03*
D13*
X46160000Y-152142000D03*
D14*
X42350000Y-149602000D03*
X48700000Y-147062000D03*
D13*
X27110000Y-152142000D03*
D14*
X23300000Y-149602000D03*
X29650000Y-147062000D03*
D13*
X246185000Y-128330000D03*
D14*
X242375000Y-125790000D03*
X248725000Y-123250000D03*
D13*
X227135000Y-128330000D03*
D14*
X223325000Y-125790000D03*
X229675000Y-123250000D03*
D13*
X208085000Y-128330000D03*
D14*
X204275000Y-125790000D03*
X210625000Y-123250000D03*
D13*
X179510000Y-128330000D03*
D14*
X175700000Y-125790000D03*
X182050000Y-123250000D03*
D13*
X160460000Y-128330000D03*
D14*
X156650000Y-125790000D03*
X163000000Y-123250000D03*
D13*
X141410000Y-128330000D03*
D14*
X137600000Y-125790000D03*
X143950000Y-123250000D03*
D13*
X122360000Y-128330000D03*
D14*
X118550000Y-125790000D03*
X124900000Y-123250000D03*
D13*
X93785000Y-128330000D03*
D14*
X89975000Y-125790000D03*
X96325000Y-123250000D03*
D13*
X74735000Y-128330000D03*
D14*
X70925000Y-125790000D03*
X77275000Y-123250000D03*
D13*
X55685000Y-128330000D03*
D14*
X51875000Y-125790000D03*
X58225000Y-123250000D03*
D13*
X36635000Y-128330000D03*
D14*
X32825000Y-125790000D03*
X39175000Y-123250000D03*
D15*
X244750000Y-112330000D03*
X244750000Y-107250000D03*
X241000000Y-112290000D03*
X241000000Y-107210000D03*
D16*
X18400000Y-106300000D03*
X22600000Y-107800000D03*
X18400000Y-99300000D03*
X18400000Y-102300000D03*
X24350000Y-99300000D03*
X24350000Y-102300000D03*
X24350000Y-106300000D03*
X20150000Y-107800000D03*
D17*
X186788100Y-191258820D03*
X186788100Y-187708820D03*
D15*
X186788100Y-185673820D03*
D18*
X186788100Y-193293820D03*
D19*
X35958820Y-236561900D03*
X32408820Y-236561900D03*
D15*
X30373820Y-236561900D03*
D18*
X37993820Y-236561900D03*
D19*
X174158820Y-217561900D03*
X170608820Y-217561900D03*
D15*
X168573820Y-217561900D03*
D18*
X176193820Y-217561900D03*
D19*
X176508820Y-236561900D03*
X172958820Y-236561900D03*
D15*
X170923820Y-236561900D03*
D18*
X178543820Y-236561900D03*
D19*
X112208820Y-236561900D03*
X108658820Y-236561900D03*
D15*
X106623820Y-236561900D03*
D18*
X114243820Y-236561900D03*
D19*
X88408820Y-236561900D03*
X84858820Y-236561900D03*
D15*
X82823820Y-236561900D03*
D18*
X90443820Y-236561900D03*
D19*
X64558820Y-236561900D03*
X61008820Y-236561900D03*
D15*
X58973820Y-236561900D03*
D18*
X66593820Y-236561900D03*
D19*
X247958820Y-236561900D03*
X244408820Y-236561900D03*
D15*
X242373820Y-236561900D03*
D18*
X249993820Y-236561900D03*
D19*
X228858820Y-236561900D03*
X225308820Y-236561900D03*
D15*
X223273820Y-236561900D03*
D18*
X230893820Y-236561900D03*
D19*
X209858820Y-236561900D03*
X206308820Y-236561900D03*
D15*
X204273820Y-236561900D03*
D18*
X211893820Y-236561900D03*
D19*
X152708820Y-236561900D03*
X149158820Y-236561900D03*
D15*
X147123820Y-236561900D03*
D18*
X154743820Y-236561900D03*
D19*
X133658820Y-236561900D03*
X130108820Y-236561900D03*
D15*
X128073820Y-236561900D03*
D18*
X135693820Y-236561900D03*
D19*
X247958820Y-217561900D03*
X244408820Y-217561900D03*
D15*
X242373820Y-217561900D03*
D18*
X249993820Y-217561900D03*
D19*
X228908820Y-217611900D03*
X225358820Y-217611900D03*
D15*
X223323820Y-217611900D03*
D18*
X230943820Y-217611900D03*
D19*
X209858820Y-217561900D03*
X206308820Y-217561900D03*
D15*
X204273820Y-217561900D03*
D18*
X211893820Y-217561900D03*
D19*
X147958820Y-217561900D03*
X144408820Y-217561900D03*
D15*
X142373820Y-217561900D03*
D18*
X149993820Y-217561900D03*
D19*
X128908820Y-217561900D03*
X125358820Y-217561900D03*
D15*
X123323820Y-217561900D03*
D18*
X130943820Y-217561900D03*
D19*
X107808820Y-217561900D03*
X104258820Y-217561900D03*
D15*
X102223820Y-217561900D03*
D18*
X109843820Y-217561900D03*
D19*
X90808820Y-217561900D03*
X87258820Y-217561900D03*
D15*
X85223820Y-217561900D03*
D18*
X92843820Y-217561900D03*
D19*
X71708820Y-217561900D03*
X68158820Y-217561900D03*
D15*
X66123820Y-217561900D03*
D18*
X73743820Y-217561900D03*
D19*
X52708820Y-217561900D03*
X49158820Y-217561900D03*
D15*
X47123820Y-217561900D03*
D18*
X54743820Y-217561900D03*
D19*
X31608820Y-217561900D03*
X28058820Y-217561900D03*
D15*
X26023820Y-217561900D03*
D18*
X33643820Y-217561900D03*
D19*
X157508820Y-198461900D03*
X153958820Y-198461900D03*
D15*
X151923820Y-198461900D03*
D18*
X159543820Y-198461900D03*
D19*
X138408820Y-198461900D03*
X134858820Y-198461900D03*
D15*
X132823820Y-198461900D03*
D18*
X140443820Y-198461900D03*
D19*
X119358820Y-198461900D03*
X115808820Y-198461900D03*
D15*
X113773820Y-198461900D03*
D18*
X121393820Y-198461900D03*
D19*
X100308820Y-198461900D03*
X96758820Y-198461900D03*
D15*
X94723820Y-198461900D03*
D18*
X102343820Y-198461900D03*
D19*
X81258820Y-198461900D03*
X77708820Y-198461900D03*
D15*
X75673820Y-198461900D03*
D18*
X83293820Y-198461900D03*
D19*
X62208820Y-198461900D03*
X58658820Y-198461900D03*
D15*
X56623820Y-198461900D03*
D18*
X64243820Y-198461900D03*
D19*
X43158820Y-198461900D03*
X39608820Y-198461900D03*
D15*
X37573820Y-198461900D03*
D18*
X45193820Y-198461900D03*
D19*
X245858820Y-179411900D03*
X242308820Y-179411900D03*
D15*
X240273820Y-179411900D03*
D18*
X247893820Y-179411900D03*
D19*
X228908820Y-179461900D03*
X225358820Y-179461900D03*
D15*
X223323820Y-179461900D03*
D18*
X230943820Y-179461900D03*
D19*
X209858820Y-179411900D03*
X206308820Y-179411900D03*
D15*
X204273820Y-179411900D03*
D18*
X211893820Y-179411900D03*
D19*
X152708820Y-179511900D03*
X149158820Y-179511900D03*
D15*
X147123820Y-179511900D03*
D18*
X154743820Y-179511900D03*
D19*
X133658820Y-179411900D03*
X130108820Y-179411900D03*
D15*
X128073820Y-179411900D03*
D18*
X135693820Y-179411900D03*
D19*
X114608820Y-179411900D03*
X111058820Y-179411900D03*
D15*
X109023820Y-179411900D03*
D18*
X116643820Y-179411900D03*
D19*
X95558820Y-179411900D03*
X92008820Y-179411900D03*
D15*
X89973820Y-179411900D03*
D18*
X97593820Y-179411900D03*
D19*
X76508820Y-179311900D03*
X72958820Y-179311900D03*
D15*
X70923820Y-179311900D03*
D18*
X78543820Y-179311900D03*
D19*
X57458820Y-179361900D03*
X53908820Y-179361900D03*
D15*
X51873820Y-179361900D03*
D18*
X59493820Y-179361900D03*
D19*
X38408820Y-179361900D03*
X34858820Y-179361900D03*
D15*
X32823820Y-179361900D03*
D18*
X40443820Y-179361900D03*
D19*
X245958820Y-160411900D03*
X242408820Y-160411900D03*
D15*
X240373820Y-160411900D03*
D18*
X247993820Y-160411900D03*
D19*
X228908820Y-160461900D03*
X225358820Y-160461900D03*
D15*
X223323820Y-160461900D03*
D18*
X230943820Y-160461900D03*
D19*
X209858820Y-160461900D03*
X206308820Y-160461900D03*
D15*
X204273820Y-160461900D03*
D18*
X211893820Y-160461900D03*
D19*
X181258820Y-160461900D03*
X177708820Y-160461900D03*
D15*
X175673820Y-160461900D03*
D18*
X183293820Y-160461900D03*
D19*
X162258820Y-160461900D03*
X158708820Y-160461900D03*
D15*
X156673820Y-160461900D03*
D18*
X164293820Y-160461900D03*
D19*
X143158820Y-160411900D03*
X139608820Y-160411900D03*
D15*
X137573820Y-160411900D03*
D18*
X145193820Y-160411900D03*
D19*
X124158820Y-160411900D03*
X120608820Y-160411900D03*
D15*
X118573820Y-160411900D03*
D18*
X126193820Y-160411900D03*
D19*
X105158820Y-160411900D03*
X101608820Y-160411900D03*
D15*
X99573820Y-160411900D03*
D18*
X107193820Y-160411900D03*
D19*
X86058820Y-160411900D03*
X82508820Y-160411900D03*
D15*
X80473820Y-160411900D03*
D18*
X88093820Y-160411900D03*
D19*
X67208820Y-160461900D03*
X63658820Y-160461900D03*
D15*
X61623820Y-160461900D03*
D18*
X69243820Y-160461900D03*
D19*
X47958820Y-160461900D03*
X44408820Y-160461900D03*
D15*
X42373820Y-160461900D03*
D18*
X49993820Y-160461900D03*
D19*
X28958820Y-160461900D03*
X25408820Y-160461900D03*
D15*
X23373820Y-160461900D03*
D18*
X30993820Y-160461900D03*
X248043820Y-136511900D03*
D15*
X240423820Y-136511900D03*
D19*
X242458820Y-136511900D03*
X246008820Y-136511900D03*
D18*
X230893820Y-136461900D03*
D15*
X223273820Y-136461900D03*
D19*
X225308820Y-136461900D03*
X228858820Y-136461900D03*
D18*
X211893820Y-136461900D03*
D15*
X204273820Y-136461900D03*
D19*
X206308820Y-136461900D03*
X209858820Y-136461900D03*
D18*
X183293820Y-136511900D03*
D15*
X175673820Y-136511900D03*
D19*
X177708820Y-136511900D03*
X181258820Y-136511900D03*
D18*
X162243820Y-136511900D03*
D15*
X154623820Y-136511900D03*
D19*
X156658820Y-136511900D03*
X160208820Y-136511900D03*
D18*
X143193820Y-136461900D03*
D15*
X135573820Y-136461900D03*
D19*
X137608820Y-136461900D03*
X141158820Y-136461900D03*
D18*
X124143820Y-136461900D03*
D15*
X116523820Y-136461900D03*
D19*
X118558820Y-136461900D03*
X122108820Y-136461900D03*
D18*
X97593820Y-136461900D03*
D15*
X89973820Y-136461900D03*
D19*
X92008820Y-136461900D03*
X95558820Y-136461900D03*
D18*
X78543820Y-136461900D03*
D15*
X70923820Y-136461900D03*
D19*
X72958820Y-136461900D03*
X76508820Y-136461900D03*
D18*
X59493820Y-136461900D03*
D15*
X51873820Y-136461900D03*
D19*
X53908820Y-136461900D03*
X57458820Y-136461900D03*
D18*
X40443820Y-136461900D03*
D15*
X32823820Y-136461900D03*
D19*
X34858820Y-136461900D03*
X38408820Y-136461900D03*
M02*
