M48
; DRILL file {KiCad (5.1.8)-1} date 12/12/20 14:34:55
; FORMAT={3:3/ absolute / metric / suppress trailing zeros}
; #@! TF.CreationDate,2020-12-12T14:34:55+09:00
; #@! TF.GenerationSoftware,Kicad,Pcbnew,(5.1.8)-1
; #@! TF.FileFunction,NonPlated,1,2,NPTH
FMAT,2
METRIC,LZ
T1C4.000
%
G90
G05
T1
X155698Y-190242
X150935Y-228342
X246185Y-152142
X17951Y-12833
X093785Y-171192
X227135Y-228342
X208085Y-152142
X174748Y-228342
X16046Y-12833
X041398Y-190242
X050922Y-209292
X208085Y-171192
X246185Y-12833
X14141Y-152142
X246185Y-228342
X17951Y-152142
X098548Y-190242
X208085Y-209292
X069972Y-209292
X055685Y-171192
X12236Y-12833
X246185Y-171192
X172366Y-209292
X127122Y-209292
X060448Y-190242
X146172Y-209292
X074735Y-171192
X208085Y-12833
X10331Y-152142
X036635Y-12833
X110454Y-228342
X131885Y-228342
X031872Y-209292
X089022Y-209292
X074735Y-12833
X131885Y-171192
X208085Y-228342
X227135Y-12833
X036635Y-171192
X055685Y-12833
X03421Y-22833
X227135Y-209292
X117598Y-190242
X079498Y-190242
X227135Y-152142
X04616Y-152142
X150935Y-171192
X02711Y-152142
X12236Y-152142
X062828Y-228342
X093785Y-12833
X246185Y-209292
X108072Y-209292
X112835Y-171192
X08426Y-152142
X227135Y-171192
X06521Y-152142
X16046Y-152142
X086641Y-228342
X14141Y-12833
X177128Y-180718
X136648Y-190242
T0
M30
