  0
SECTION
  2
HEADER
  9
$ACADVER
  1
AC1009
  9
$EXTMIN
 10
0.0
 20
0.0
 30
0.0
  9
$EXTMAX
 10
1000.0
 20
1000.0
 30
0.0
  9
$FILLMODE
 70
 0
  9
$SPLFRAME
 70
 1
  0
ENDSEC
  0
SECTION
  2
TABLES
  0
TABLE
  2
LAYER
 70
1
  0
LAYER
  2
0
 70
     0
 62
     7
  6
CONTINUOUS
  0
ENDTAB
  0
ENDSEC
  0
SECTION
  2
ENTITIES
  0
LINE
  8
0
 62
     0
 10
0.0950846
 20
154.774
 30
0.0
 11
403.821
 21
154.774
 31
0.0
  0
LINE
  8
0
 62
     0
 10
403.821
 20
154.774
 30
0.0
 11
403.821
 21
0.162609
 31
0.0
  0
LINE
  8
0
 62
     0
 10
403.821
 20
0.162609
 30
0.0
 11
0.0950846
 21
0.162609
 31
0.0
  0
LINE
  8
0
 62
     0
 10
0.0950846
 20
0.162609
 30
0.0
 11
0.0950846
 21
154.774
 31
0.0
  0
LINE
  8
0
 62
     0
 10
380.693
 20
29.7381
 30
0.0
 11
394.695
 21
29.7381
 31
0.0
  0
LINE
  8
0
 62
     0
 10
394.695
 20
29.7381
 30
0.0
 11
394.695
 21
15.7386
 31
0.0
  0
LINE
  8
0
 62
     0
 10
394.695
 20
15.7386
 30
0.0
 11
380.693
 21
15.7386
 31
0.0
  0
LINE
  8
0
 62
     0
 10
380.693
 20
15.7386
 30
0.0
 11
380.693
 21
29.7381
 31
0.0
  0
LINE
  8
0
 62
     0
 10
361.643
 20
29.7381
 30
0.0
 11
375.645
 21
29.7381
 31
0.0
  0
LINE
  8
0
 62
     0
 10
375.645
 20
29.7381
 30
0.0
 11
375.645
 21
15.7386
 31
0.0
  0
LINE
  8
0
 62
     0
 10
375.645
 20
15.7386
 30
0.0
 11
361.643
 21
15.7386
 31
0.0
  0
LINE
  8
0
 62
     0
 10
361.643
 20
15.7386
 30
0.0
 11
361.643
 21
29.7381
 31
0.0
  0
LINE
  8
0
 62
     0
 10
342.594
 20
29.7381
 30
0.0
 11
356.595
 21
29.7381
 31
0.0
  0
LINE
  8
0
 62
     0
 10
356.595
 20
29.7381
 30
0.0
 11
356.595
 21
15.7386
 31
0.0
  0
LINE
  8
0
 62
     0
 10
356.595
 20
15.7386
 30
0.0
 11
342.594
 21
15.7386
 31
0.0
  0
LINE
  8
0
 62
     0
 10
342.594
 20
15.7386
 30
0.0
 11
342.594
 21
29.7381
 31
0.0
  0
LINE
  8
0
 62
     0
 10
309.257
 20
29.7381
 30
0.0
 11
323.256
 21
29.7381
 31
0.0
  0
LINE
  8
0
 62
     0
 10
323.256
 20
29.7381
 30
0.0
 11
323.256
 21
15.7386
 31
0.0
  0
LINE
  8
0
 62
     0
 10
323.256
 20
15.7386
 30
0.0
 11
309.257
 21
15.7386
 31
0.0
  0
LINE
  8
0
 62
     0
 10
309.257
 20
15.7386
 30
0.0
 11
309.257
 21
29.7381
 31
0.0
  0
LINE
  8
0
 62
     0
 10
285.444
 20
29.7381
 30
0.0
 11
299.443
 21
29.7381
 31
0.0
  0
LINE
  8
0
 62
     0
 10
299.443
 20
29.7381
 30
0.0
 11
299.443
 21
15.7386
 31
0.0
  0
LINE
  8
0
 62
     0
 10
299.443
 20
15.7386
 30
0.0
 11
285.444
 21
15.7386
 31
0.0
  0
LINE
  8
0
 62
     0
 10
285.444
 20
15.7386
 30
0.0
 11
285.444
 21
29.7381
 31
0.0
  0
LINE
  8
0
 62
     0
 10
266.394
 20
29.7381
 30
0.0
 11
280.393
 21
29.7381
 31
0.0
  0
LINE
  8
0
 62
     0
 10
280.393
 20
29.7381
 30
0.0
 11
280.393
 21
15.7386
 31
0.0
  0
LINE
  8
0
 62
     0
 10
280.393
 20
15.7386
 30
0.0
 11
266.394
 21
15.7386
 31
0.0
  0
LINE
  8
0
 62
     0
 10
266.394
 20
15.7386
 30
0.0
 11
266.394
 21
29.7381
 31
0.0
  0
LINE
  8
0
 62
     0
 10
244.963
 20
29.7381
 30
0.0
 11
258.962
 21
29.7381
 31
0.0
  0
LINE
  8
0
 62
     0
 10
258.962
 20
29.7381
 30
0.0
 11
258.962
 21
15.7386
 31
0.0
  0
LINE
  8
0
 62
     0
 10
258.962
 20
15.7386
 30
0.0
 11
244.963
 21
15.7386
 31
0.0
  0
LINE
  8
0
 62
     0
 10
244.963
 20
15.7386
 30
0.0
 11
244.963
 21
29.7381
 31
0.0
  0
LINE
  8
0
 62
     0
 10
221.15
 20
29.7381
 30
0.0
 11
235.15
 21
29.7381
 31
0.0
  0
LINE
  8
0
 62
     0
 10
235.15
 20
29.7381
 30
0.0
 11
235.15
 21
15.7386
 31
0.0
  0
LINE
  8
0
 62
     0
 10
235.15
 20
15.7386
 30
0.0
 11
221.15
 21
15.7386
 31
0.0
  0
LINE
  8
0
 62
     0
 10
221.15
 20
15.7386
 30
0.0
 11
221.15
 21
29.7381
 31
0.0
  0
LINE
  8
0
 62
     0
 10
197.338
 20
29.7381
 30
0.0
 11
211.337
 21
29.7381
 31
0.0
  0
LINE
  8
0
 62
     0
 10
211.337
 20
29.7381
 30
0.0
 11
211.337
 21
15.7386
 31
0.0
  0
LINE
  8
0
 62
     0
 10
211.337
 20
15.7386
 30
0.0
 11
197.338
 21
15.7386
 31
0.0
  0
LINE
  8
0
 62
     0
 10
197.338
 20
15.7386
 30
0.0
 11
197.338
 21
29.7381
 31
0.0
  0
LINE
  8
0
 62
     0
 10
168.763
 20
29.7381
 30
0.0
 11
182.762
 21
29.7381
 31
0.0
  0
LINE
  8
0
 62
     0
 10
182.762
 20
29.7381
 30
0.0
 11
182.762
 21
15.7386
 31
0.0
  0
LINE
  8
0
 62
     0
 10
182.762
 20
15.7386
 30
0.0
 11
168.763
 21
15.7386
 31
0.0
  0
LINE
  8
0
 62
     0
 10
168.763
 20
15.7386
 30
0.0
 11
168.763
 21
29.7381
 31
0.0
  0
LINE
  8
0
 62
     0
 10
116.375
 20
29.7381
 30
0.0
 11
130.375
 21
29.7381
 31
0.0
  0
LINE
  8
0
 62
     0
 10
130.375
 20
29.7381
 30
0.0
 11
130.375
 21
15.7386
 31
0.0
  0
LINE
  8
0
 62
     0
 10
130.375
 20
15.7386
 30
0.0
 11
116.375
 21
15.7386
 31
0.0
  0
LINE
  8
0
 62
     0
 10
116.375
 20
15.7386
 30
0.0
 11
116.375
 21
29.7381
 31
0.0
  0
LINE
  8
0
 62
     0
 10
87.8004
 20
29.7381
 30
0.0
 11
101.8
 21
29.7381
 31
0.0
  0
LINE
  8
0
 62
     0
 10
101.8
 20
29.7381
 30
0.0
 11
101.8
 21
15.7386
 31
0.0
  0
LINE
  8
0
 62
     0
 10
101.8
 20
15.7386
 30
0.0
 11
87.8004
 21
15.7386
 31
0.0
  0
LINE
  8
0
 62
     0
 10
87.8004
 20
15.7386
 30
0.0
 11
87.8004
 21
29.7381
 31
0.0
  0
LINE
  8
0
 62
     0
 10
63.9879
 20
29.7381
 30
0.0
 11
77.9872
 21
29.7381
 31
0.0
  0
LINE
  8
0
 62
     0
 10
77.9872
 20
29.7381
 30
0.0
 11
77.9872
 21
15.7386
 31
0.0
  0
LINE
  8
0
 62
     0
 10
77.9872
 20
15.7386
 30
0.0
 11
63.9879
 21
15.7386
 31
0.0
  0
LINE
  8
0
 62
     0
 10
63.9879
 20
15.7386
 30
0.0
 11
63.9879
 21
29.7381
 31
0.0
  0
LINE
  8
0
 62
     0
 10
42.5566
 20
29.7381
 30
0.0
 11
56.5559
 21
29.7381
 31
0.0
  0
LINE
  8
0
 62
     0
 10
56.5559
 20
29.7381
 30
0.0
 11
56.5559
 21
15.7386
 31
0.0
  0
LINE
  8
0
 62
     0
 10
56.5559
 20
15.7386
 30
0.0
 11
42.5566
 21
15.7386
 31
0.0
  0
LINE
  8
0
 62
     0
 10
42.5566
 20
15.7386
 30
0.0
 11
42.5566
 21
29.7381
 31
0.0
  0
LINE
  8
0
 62
     0
 10
16.3628
 20
29.7381
 30
0.0
 11
30.3623
 21
29.7381
 31
0.0
  0
LINE
  8
0
 62
     0
 10
30.3623
 20
29.7381
 30
0.0
 11
30.3623
 21
15.7386
 31
0.0
  0
LINE
  8
0
 62
     0
 10
30.3623
 20
15.7386
 30
0.0
 11
16.3628
 21
15.7386
 31
0.0
  0
LINE
  8
0
 62
     0
 10
16.3628
 20
15.7386
 30
0.0
 11
16.3628
 21
29.7381
 31
0.0
  0
LINE
  8
0
 62
     0
 10
21.1253
 20
48.7881
 30
0.0
 11
21.1253
 21
44.0877
 31
0.0
  0
LINE
  8
0
 62
     0
 10
21.1253
 20
44.0877
 30
0.0
 11
19.5998
 21
44.0877
 31
0.0
  0
LINE
  8
0
 62
     0
 10
19.5998
 20
44.0877
 30
0.0
 11
19.5998
 21
47.3177
 31
0.0
  0
LINE
  8
0
 62
     0
 10
19.5998
 20
47.3177
 30
0.0
 11
12.8502
 21
47.3177
 31
0.0
  0
LINE
  8
0
 62
     0
 10
12.8502
 20
47.3177
 30
0.0
 11
12.8502
 21
44.0877
 31
0.0
  0
LINE
  8
0
 62
     0
 10
12.8502
 20
44.0877
 30
0.0
 11
12.0261
 21
44.0877
 31
0.0
  0
LINE
  8
0
 62
     0
 10
12.0261
 20
44.0877
 30
0.0
 11
12.0261
 21
41.2873
 31
0.0
  0
LINE
  8
0
 62
     0
 10
12.0261
 20
41.2873
 30
0.0
 11
12.8502
 21
41.2873
 31
0.0
  0
LINE
  8
0
 62
     0
 10
12.8502
 20
41.2873
 30
0.0
 11
12.8502
 21
35.0173
 31
0.0
  0
LINE
  8
0
 62
     0
 10
12.8502
 20
35.0173
 30
0.0
 11
14.5755
 21
35.0173
 31
0.0
  0
LINE
  8
0
 62
     0
 10
14.5755
 20
35.0173
 30
0.0
 11
14.5755
 21
33.8184
 31
0.0
  0
LINE
  8
0
 62
     0
 10
14.5755
 20
33.8184
 30
0.0
 11
17.8759
 21
33.8184
 31
0.0
  0
LINE
  8
0
 62
     0
 10
17.8759
 20
33.8184
 30
0.0
 11
17.8759
 21
35.0173
 31
0.0
  0
LINE
  8
0
 62
     0
 10
17.8759
 20
35.0173
 30
0.0
 11
19.5998
 21
35.0173
 31
0.0
  0
LINE
  8
0
 62
     0
 10
19.5998
 20
35.0173
 30
0.0
 11
19.5998
 21
39.4878
 31
0.0
  0
LINE
  8
0
 62
     0
 10
19.5998
 20
39.4878
 30
0.0
 11
21.1253
 21
39.4878
 31
0.0
  0
LINE
  8
0
 62
     0
 10
21.1253
 20
39.4878
 30
0.0
 11
21.1253
 21
34.7886
 31
0.0
  0
LINE
  8
0
 62
     0
 10
21.1253
 20
34.7886
 30
0.0
 11
35.1248
 21
34.7886
 31
0.0
  0
LINE
  8
0
 62
     0
 10
35.1248
 20
34.7886
 30
0.0
 11
35.1248
 21
39.4878
 31
0.0
  0
LINE
  8
0
 62
     0
 10
35.1248
 20
39.4878
 30
0.0
 11
36.6504
 21
39.4878
 31
0.0
  0
LINE
  8
0
 62
     0
 10
36.6504
 20
39.4878
 30
0.0
 11
36.6504
 21
35.0173
 31
0.0
  0
LINE
  8
0
 62
     0
 10
36.6504
 20
35.0173
 30
0.0
 11
38.3755
 21
35.0173
 31
0.0
  0
LINE
  8
0
 62
     0
 10
38.3755
 20
35.0173
 30
0.0
 11
38.3755
 21
33.8184
 31
0.0
  0
LINE
  8
0
 62
     0
 10
38.3755
 20
33.8184
 30
0.0
 11
41.6761
 21
33.8184
 31
0.0
  0
LINE
  8
0
 62
     0
 10
41.6761
 20
33.8184
 30
0.0
 11
41.6761
 21
35.0173
 31
0.0
  0
LINE
  8
0
 62
     0
 10
41.6761
 20
35.0173
 30
0.0
 11
43.3998
 21
35.0173
 31
0.0
  0
LINE
  8
0
 62
     0
 10
43.3998
 20
35.0173
 30
0.0
 11
43.3998
 21
41.2873
 31
0.0
  0
LINE
  8
0
 62
     0
 10
43.3998
 20
41.2873
 30
0.0
 11
44.2253
 21
41.2873
 31
0.0
  0
LINE
  8
0
 62
     0
 10
44.2253
 20
41.2873
 30
0.0
 11
44.2253
 21
44.0877
 31
0.0
  0
LINE
  8
0
 62
     0
 10
44.2253
 20
44.0877
 30
0.0
 11
43.3998
 21
44.0877
 31
0.0
  0
LINE
  8
0
 62
     0
 10
43.3998
 20
44.0877
 30
0.0
 11
43.3998
 21
47.3177
 31
0.0
  0
LINE
  8
0
 62
     0
 10
43.3998
 20
47.3177
 30
0.0
 11
36.6504
 21
47.3177
 31
0.0
  0
LINE
  8
0
 62
     0
 10
36.6504
 20
47.3177
 30
0.0
 11
36.6504
 21
44.0877
 31
0.0
  0
LINE
  8
0
 62
     0
 10
36.6504
 20
44.0877
 30
0.0
 11
35.1248
 21
44.0877
 31
0.0
  0
LINE
  8
0
 62
     0
 10
35.1248
 20
44.0877
 30
0.0
 11
35.1248
 21
48.7881
 31
0.0
  0
LINE
  8
0
 62
     0
 10
35.1248
 20
48.7881
 30
0.0
 11
21.1253
 21
48.7881
 31
0.0
  0
LINE
  8
0
 62
     0
 10
380.693
 20
48.7881
 30
0.0
 11
394.695
 21
48.7881
 31
0.0
  0
LINE
  8
0
 62
     0
 10
394.695
 20
48.7881
 30
0.0
 11
394.695
 21
34.7886
 31
0.0
  0
LINE
  8
0
 62
     0
 10
394.695
 20
34.7886
 30
0.0
 11
380.693
 21
34.7886
 31
0.0
  0
LINE
  8
0
 62
     0
 10
380.693
 20
34.7886
 30
0.0
 11
380.693
 21
48.7881
 31
0.0
  0
LINE
  8
0
 62
     0
 10
361.643
 20
48.7881
 30
0.0
 11
375.645
 21
48.7881
 31
0.0
  0
LINE
  8
0
 62
     0
 10
375.645
 20
48.7881
 30
0.0
 11
375.645
 21
34.7886
 31
0.0
  0
LINE
  8
0
 62
     0
 10
375.645
 20
34.7886
 30
0.0
 11
361.643
 21
34.7886
 31
0.0
  0
LINE
  8
0
 62
     0
 10
361.643
 20
34.7886
 30
0.0
 11
361.643
 21
48.7881
 31
0.0
  0
LINE
  8
0
 62
     0
 10
342.594
 20
48.7881
 30
0.0
 11
356.595
 21
48.7881
 31
0.0
  0
LINE
  8
0
 62
     0
 10
356.595
 20
48.7881
 30
0.0
 11
356.595
 21
34.7886
 31
0.0
  0
LINE
  8
0
 62
     0
 10
356.595
 20
34.7886
 30
0.0
 11
342.594
 21
34.7886
 31
0.0
  0
LINE
  8
0
 62
     0
 10
342.594
 20
34.7886
 30
0.0
 11
342.594
 21
48.7881
 31
0.0
  0
LINE
  8
0
 62
     0
 10
306.875
 20
48.7881
 30
0.0
 11
320.875
 21
48.7881
 31
0.0
  0
LINE
  8
0
 62
     0
 10
320.875
 20
48.7881
 30
0.0
 11
320.875
 21
34.7886
 31
0.0
  0
LINE
  8
0
 62
     0
 10
320.875
 20
34.7886
 30
0.0
 11
306.875
 21
34.7886
 31
0.0
  0
LINE
  8
0
 62
     0
 10
306.875
 20
34.7886
 30
0.0
 11
306.875
 21
48.7881
 31
0.0
  0
LINE
  8
0
 62
     0
 10
280.682
 20
48.7881
 30
0.0
 11
294.681
 21
48.7881
 31
0.0
  0
LINE
  8
0
 62
     0
 10
294.681
 20
48.7881
 30
0.0
 11
294.681
 21
34.7886
 31
0.0
  0
LINE
  8
0
 62
     0
 10
294.681
 20
34.7886
 30
0.0
 11
280.682
 21
34.7886
 31
0.0
  0
LINE
  8
0
 62
     0
 10
280.682
 20
34.7886
 30
0.0
 11
280.682
 21
48.7881
 31
0.0
  0
LINE
  8
0
 62
     0
 10
261.632
 20
48.7881
 30
0.0
 11
275.631
 21
48.7881
 31
0.0
  0
LINE
  8
0
 62
     0
 10
275.631
 20
48.7881
 30
0.0
 11
275.631
 21
34.7886
 31
0.0
  0
LINE
  8
0
 62
     0
 10
275.631
 20
34.7886
 30
0.0
 11
261.632
 21
34.7886
 31
0.0
  0
LINE
  8
0
 62
     0
 10
261.632
 20
34.7886
 30
0.0
 11
261.632
 21
48.7881
 31
0.0
  0
LINE
  8
0
 62
     0
 10
242.582
 20
48.7881
 30
0.0
 11
256.581
 21
48.7881
 31
0.0
  0
LINE
  8
0
 62
     0
 10
256.581
 20
48.7881
 30
0.0
 11
256.581
 21
34.7886
 31
0.0
  0
LINE
  8
0
 62
     0
 10
256.581
 20
34.7886
 30
0.0
 11
242.582
 21
34.7886
 31
0.0
  0
LINE
  8
0
 62
     0
 10
242.582
 20
34.7886
 30
0.0
 11
242.582
 21
48.7881
 31
0.0
  0
LINE
  8
0
 62
     0
 10
223.532
 20
48.7881
 30
0.0
 11
237.531
 21
48.7881
 31
0.0
  0
LINE
  8
0
 62
     0
 10
237.531
 20
48.7881
 30
0.0
 11
237.531
 21
34.7886
 31
0.0
  0
LINE
  8
0
 62
     0
 10
237.531
 20
34.7886
 30
0.0
 11
223.532
 21
34.7886
 31
0.0
  0
LINE
  8
0
 62
     0
 10
223.532
 20
34.7886
 30
0.0
 11
223.532
 21
48.7881
 31
0.0
  0
LINE
  8
0
 62
     0
 10
204.482
 20
48.7881
 30
0.0
 11
218.481
 21
48.7881
 31
0.0
  0
LINE
  8
0
 62
     0
 10
218.481
 20
48.7881
 30
0.0
 11
218.481
 21
34.7886
 31
0.0
  0
LINE
  8
0
 62
     0
 10
218.481
 20
34.7886
 30
0.0
 11
204.482
 21
34.7886
 31
0.0
  0
LINE
  8
0
 62
     0
 10
204.482
 20
34.7886
 30
0.0
 11
204.482
 21
48.7881
 31
0.0
  0
LINE
  8
0
 62
     0
 10
185.432
 20
48.7881
 30
0.0
 11
199.431
 21
48.7881
 31
0.0
  0
LINE
  8
0
 62
     0
 10
199.431
 20
48.7881
 30
0.0
 11
199.431
 21
34.7886
 31
0.0
  0
LINE
  8
0
 62
     0
 10
199.431
 20
34.7886
 30
0.0
 11
185.432
 21
34.7886
 31
0.0
  0
LINE
  8
0
 62
     0
 10
185.432
 20
34.7886
 30
0.0
 11
185.432
 21
48.7881
 31
0.0
  0
LINE
  8
0
 62
     0
 10
166.382
 20
48.7881
 30
0.0
 11
180.381
 21
48.7881
 31
0.0
  0
LINE
  8
0
 62
     0
 10
180.381
 20
48.7881
 30
0.0
 11
180.381
 21
34.7886
 31
0.0
  0
LINE
  8
0
 62
     0
 10
180.381
 20
34.7886
 30
0.0
 11
166.382
 21
34.7886
 31
0.0
  0
LINE
  8
0
 62
     0
 10
166.382
 20
34.7886
 30
0.0
 11
166.382
 21
48.7881
 31
0.0
  0
LINE
  8
0
 62
     0
 10
109.232
 20
48.7881
 30
0.0
 11
123.231
 21
48.7881
 31
0.0
  0
LINE
  8
0
 62
     0
 10
123.231
 20
48.7881
 30
0.0
 11
123.231
 21
34.7886
 31
0.0
  0
LINE
  8
0
 62
     0
 10
123.231
 20
34.7886
 30
0.0
 11
109.232
 21
34.7886
 31
0.0
  0
LINE
  8
0
 62
     0
 10
109.232
 20
34.7886
 30
0.0
 11
109.232
 21
48.7881
 31
0.0
  0
LINE
  8
0
 62
     0
 10
90.1816
 20
48.7881
 30
0.0
 11
104.181
 21
48.7881
 31
0.0
  0
LINE
  8
0
 62
     0
 10
104.181
 20
48.7881
 30
0.0
 11
104.181
 21
34.7886
 31
0.0
  0
LINE
  8
0
 62
     0
 10
104.181
 20
34.7886
 30
0.0
 11
90.1816
 21
34.7886
 31
0.0
  0
LINE
  8
0
 62
     0
 10
90.1816
 20
34.7886
 30
0.0
 11
90.1816
 21
48.7881
 31
0.0
  0
LINE
  8
0
 62
     0
 10
71.1316
 20
48.7881
 30
0.0
 11
85.1309
 21
48.7881
 31
0.0
  0
LINE
  8
0
 62
     0
 10
85.1309
 20
48.7881
 30
0.0
 11
85.1309
 21
34.7886
 31
0.0
  0
LINE
  8
0
 62
     0
 10
85.1309
 20
34.7886
 30
0.0
 11
71.1316
 21
34.7886
 31
0.0
  0
LINE
  8
0
 62
     0
 10
71.1316
 20
34.7886
 30
0.0
 11
71.1316
 21
48.7881
 31
0.0
  0
LINE
  8
0
 62
     0
 10
52.0816
 20
48.7881
 30
0.0
 11
66.0809
 21
48.7881
 31
0.0
  0
LINE
  8
0
 62
     0
 10
66.0809
 20
48.7881
 30
0.0
 11
66.0809
 21
34.7886
 31
0.0
  0
LINE
  8
0
 62
     0
 10
66.0809
 20
34.7886
 30
0.0
 11
52.0816
 21
34.7886
 31
0.0
  0
LINE
  8
0
 62
     0
 10
52.0816
 20
34.7886
 30
0.0
 11
52.0816
 21
48.7881
 31
0.0
  0
LINE
  8
0
 62
     0
 10
380.693
 20
67.8381
 30
0.0
 11
394.695
 21
67.8381
 31
0.0
  0
LINE
  8
0
 62
     0
 10
394.695
 20
67.8381
 30
0.0
 11
394.695
 21
53.8385
 31
0.0
  0
LINE
  8
0
 62
     0
 10
394.695
 20
53.8385
 30
0.0
 11
380.693
 21
53.8385
 31
0.0
  0
LINE
  8
0
 62
     0
 10
380.693
 20
53.8385
 30
0.0
 11
380.693
 21
67.8381
 31
0.0
  0
LINE
  8
0
 62
     0
 10
361.643
 20
67.8381
 30
0.0
 11
375.645
 21
67.8381
 31
0.0
  0
LINE
  8
0
 62
     0
 10
375.645
 20
67.8381
 30
0.0
 11
375.645
 21
53.8385
 31
0.0
  0
LINE
  8
0
 62
     0
 10
375.645
 20
53.8385
 30
0.0
 11
361.643
 21
53.8385
 31
0.0
  0
LINE
  8
0
 62
     0
 10
361.643
 20
53.8385
 30
0.0
 11
361.643
 21
67.8381
 31
0.0
  0
LINE
  8
0
 62
     0
 10
342.594
 20
67.8381
 30
0.0
 11
356.595
 21
67.8381
 31
0.0
  0
LINE
  8
0
 62
     0
 10
356.595
 20
67.8381
 30
0.0
 11
356.595
 21
53.8385
 31
0.0
  0
LINE
  8
0
 62
     0
 10
356.595
 20
53.8385
 30
0.0
 11
342.594
 21
53.8385
 31
0.0
  0
LINE
  8
0
 62
     0
 10
342.594
 20
53.8385
 30
0.0
 11
342.594
 21
67.8381
 31
0.0
  0
LINE
  8
0
 62
     0
 10
290.207
 20
67.8381
 30
0.0
 11
304.206
 21
67.8381
 31
0.0
  0
LINE
  8
0
 62
     0
 10
304.206
 20
67.8381
 30
0.0
 11
304.206
 21
53.8385
 31
0.0
  0
LINE
  8
0
 62
     0
 10
304.206
 20
53.8385
 30
0.0
 11
290.207
 21
53.8385
 31
0.0
  0
LINE
  8
0
 62
     0
 10
290.207
 20
53.8385
 30
0.0
 11
290.207
 21
67.8381
 31
0.0
  0
LINE
  8
0
 62
     0
 10
271.157
 20
67.8381
 30
0.0
 11
285.156
 21
67.8381
 31
0.0
  0
LINE
  8
0
 62
     0
 10
285.156
 20
67.8381
 30
0.0
 11
285.156
 21
53.8385
 31
0.0
  0
LINE
  8
0
 62
     0
 10
285.156
 20
53.8385
 30
0.0
 11
271.157
 21
53.8385
 31
0.0
  0
LINE
  8
0
 62
     0
 10
271.157
 20
53.8385
 30
0.0
 11
271.157
 21
67.8381
 31
0.0
  0
LINE
  8
0
 62
     0
 10
252.107
 20
67.8381
 30
0.0
 11
266.106
 21
67.8381
 31
0.0
  0
LINE
  8
0
 62
     0
 10
266.106
 20
67.8381
 30
0.0
 11
266.106
 21
53.8385
 31
0.0
  0
LINE
  8
0
 62
     0
 10
266.106
 20
53.8385
 30
0.0
 11
252.107
 21
53.8385
 31
0.0
  0
LINE
  8
0
 62
     0
 10
252.107
 20
53.8385
 30
0.0
 11
252.107
 21
67.8381
 31
0.0
  0
LINE
  8
0
 62
     0
 10
233.057
 20
67.8381
 30
0.0
 11
247.056
 21
67.8381
 31
0.0
  0
LINE
  8
0
 62
     0
 10
247.056
 20
67.8381
 30
0.0
 11
247.056
 21
53.8385
 31
0.0
  0
LINE
  8
0
 62
     0
 10
247.056
 20
53.8385
 30
0.0
 11
233.057
 21
53.8385
 31
0.0
  0
LINE
  8
0
 62
     0
 10
233.057
 20
53.8385
 30
0.0
 11
233.057
 21
67.8381
 31
0.0
  0
LINE
  8
0
 62
     0
 10
214.007
 20
67.8381
 30
0.0
 11
228.006
 21
67.8381
 31
0.0
  0
LINE
  8
0
 62
     0
 10
228.006
 20
67.8381
 30
0.0
 11
228.006
 21
53.8385
 31
0.0
  0
LINE
  8
0
 62
     0
 10
228.006
 20
53.8385
 30
0.0
 11
214.007
 21
53.8385
 31
0.0
  0
LINE
  8
0
 62
     0
 10
214.007
 20
53.8385
 30
0.0
 11
214.007
 21
67.8381
 31
0.0
  0
LINE
  8
0
 62
     0
 10
194.957
 20
67.8381
 30
0.0
 11
208.956
 21
67.8381
 31
0.0
  0
LINE
  8
0
 62
     0
 10
208.956
 20
67.8381
 30
0.0
 11
208.956
 21
53.8385
 31
0.0
  0
LINE
  8
0
 62
     0
 10
208.956
 20
53.8385
 30
0.0
 11
194.957
 21
53.8385
 31
0.0
  0
LINE
  8
0
 62
     0
 10
194.957
 20
53.8385
 30
0.0
 11
194.957
 21
67.8381
 31
0.0
  0
LINE
  8
0
 62
     0
 10
175.907
 20
67.8381
 30
0.0
 11
189.906
 21
67.8381
 31
0.0
  0
LINE
  8
0
 62
     0
 10
189.906
 20
67.8381
 30
0.0
 11
189.906
 21
53.8385
 31
0.0
  0
LINE
  8
0
 62
     0
 10
189.906
 20
53.8385
 30
0.0
 11
175.907
 21
53.8385
 31
0.0
  0
LINE
  8
0
 62
     0
 10
175.907
 20
53.8385
 30
0.0
 11
175.907
 21
67.8381
 31
0.0
  0
LINE
  8
0
 62
     0
 10
118.757
 20
67.8381
 30
0.0
 11
132.756
 21
67.8381
 31
0.0
  0
LINE
  8
0
 62
     0
 10
132.756
 20
67.8381
 30
0.0
 11
132.756
 21
53.8385
 31
0.0
  0
LINE
  8
0
 62
     0
 10
132.756
 20
53.8385
 30
0.0
 11
118.757
 21
53.8385
 31
0.0
  0
LINE
  8
0
 62
     0
 10
118.757
 20
53.8385
 30
0.0
 11
118.757
 21
67.8381
 31
0.0
  0
LINE
  8
0
 62
     0
 10
99.7066
 20
67.8381
 30
0.0
 11
113.706
 21
67.8381
 31
0.0
  0
LINE
  8
0
 62
     0
 10
113.706
 20
67.8381
 30
0.0
 11
113.706
 21
53.8385
 31
0.0
  0
LINE
  8
0
 62
     0
 10
113.706
 20
53.8385
 30
0.0
 11
99.7066
 21
53.8385
 31
0.0
  0
LINE
  8
0
 62
     0
 10
99.7066
 20
53.8385
 30
0.0
 11
99.7066
 21
67.8381
 31
0.0
  0
LINE
  8
0
 62
     0
 10
80.6566
 20
67.8381
 30
0.0
 11
94.6559
 21
67.8381
 31
0.0
  0
LINE
  8
0
 62
     0
 10
94.6559
 20
67.8381
 30
0.0
 11
94.6559
 21
53.8385
 31
0.0
  0
LINE
  8
0
 62
     0
 10
94.6559
 20
53.8385
 30
0.0
 11
80.6566
 21
53.8385
 31
0.0
  0
LINE
  8
0
 62
     0
 10
80.6566
 20
53.8385
 30
0.0
 11
80.6566
 21
67.8381
 31
0.0
  0
LINE
  8
0
 62
     0
 10
61.6066
 20
67.8381
 30
0.0
 11
75.6059
 21
67.8381
 31
0.0
  0
LINE
  8
0
 62
     0
 10
75.6059
 20
67.8381
 30
0.0
 11
75.6059
 21
53.8385
 31
0.0
  0
LINE
  8
0
 62
     0
 10
75.6059
 20
53.8385
 30
0.0
 11
61.6066
 21
53.8385
 31
0.0
  0
LINE
  8
0
 62
     0
 10
61.6066
 20
53.8385
 30
0.0
 11
61.6066
 21
67.8381
 31
0.0
  0
LINE
  8
0
 62
     0
 10
42.5566
 20
67.8381
 30
0.0
 11
56.5559
 21
67.8381
 31
0.0
  0
LINE
  8
0
 62
     0
 10
56.5559
 20
67.8381
 30
0.0
 11
56.5559
 21
53.8385
 31
0.0
  0
LINE
  8
0
 62
     0
 10
56.5559
 20
53.8385
 30
0.0
 11
42.5566
 21
53.8385
 31
0.0
  0
LINE
  8
0
 62
     0
 10
42.5566
 20
53.8385
 30
0.0
 11
42.5566
 21
67.8381
 31
0.0
  0
LINE
  8
0
 62
     0
 10
16.3628
 20
67.8381
 30
0.0
 11
30.3623
 21
67.8381
 31
0.0
  0
LINE
  8
0
 62
     0
 10
30.3623
 20
67.8381
 30
0.0
 11
30.3623
 21
53.8385
 31
0.0
  0
LINE
  8
0
 62
     0
 10
30.3623
 20
53.8385
 30
0.0
 11
16.3628
 21
53.8385
 31
0.0
  0
LINE
  8
0
 62
     0
 10
16.3628
 20
53.8385
 30
0.0
 11
16.3628
 21
67.8381
 31
0.0
  0
LINE
  8
0
 62
     0
 10
318.138
 20
86.4637
 30
0.0
 11
318.138
 21
85.6382
 31
0.0
  0
LINE
  8
0
 62
     0
 10
318.138
 20
85.6382
 30
0.0
 11
311.868
 21
85.6382
 31
0.0
  0
LINE
  8
0
 62
     0
 10
311.868
 20
85.6382
 30
0.0
 11
311.868
 21
83.9128
 31
0.0
  0
LINE
  8
0
 62
     0
 10
311.868
 20
83.9128
 30
0.0
 11
310.668
 21
83.9128
 31
0.0
  0
LINE
  8
0
 62
     0
 10
310.668
 20
83.9128
 30
0.0
 11
310.668
 21
80.6125
 31
0.0
  0
LINE
  8
0
 62
     0
 10
310.668
 20
80.6125
 30
0.0
 11
311.868
 21
80.6125
 31
0.0
  0
LINE
  8
0
 62
     0
 10
311.868
 20
80.6125
 30
0.0
 11
311.868
 21
78.8885
 31
0.0
  0
LINE
  8
0
 62
     0
 10
311.868
 20
78.8885
 30
0.0
 11
316.337
 21
78.8885
 31
0.0
  0
LINE
  8
0
 62
     0
 10
316.337
 20
78.8885
 30
0.0
 11
316.337
 21
77.3631
 31
0.0
  0
LINE
  8
0
 62
     0
 10
316.337
 20
77.3631
 30
0.0
 11
311.638
 21
77.3631
 31
0.0
  0
LINE
  8
0
 62
     0
 10
311.638
 20
77.3631
 30
0.0
 11
311.638
 21
63.3635
 31
0.0
  0
LINE
  8
0
 62
     0
 10
311.638
 20
63.3635
 30
0.0
 11
316.337
 21
63.3635
 31
0.0
  0
LINE
  8
0
 62
     0
 10
316.337
 20
63.3635
 30
0.0
 11
316.337
 21
61.8381
 31
0.0
  0
LINE
  8
0
 62
     0
 10
316.337
 20
61.8381
 30
0.0
 11
311.868
 21
61.8381
 31
0.0
  0
LINE
  8
0
 62
     0
 10
311.868
 20
61.8381
 30
0.0
 11
311.868
 21
60.1126
 31
0.0
  0
LINE
  8
0
 62
     0
 10
311.868
 20
60.1126
 30
0.0
 11
310.668
 21
60.1126
 31
0.0
  0
LINE
  8
0
 62
     0
 10
310.668
 20
60.1126
 30
0.0
 11
310.668
 21
56.8124
 31
0.0
  0
LINE
  8
0
 62
     0
 10
310.668
 20
56.8124
 30
0.0
 11
311.868
 21
56.8124
 31
0.0
  0
LINE
  8
0
 62
     0
 10
311.868
 20
56.8124
 30
0.0
 11
311.868
 21
55.0884
 31
0.0
  0
LINE
  8
0
 62
     0
 10
311.868
 20
55.0884
 30
0.0
 11
318.138
 21
55.0884
 31
0.0
  0
LINE
  8
0
 62
     0
 10
318.138
 20
55.0884
 30
0.0
 11
318.138
 21
54.2629
 31
0.0
  0
LINE
  8
0
 62
     0
 10
318.138
 20
54.2629
 30
0.0
 11
320.937
 21
54.2629
 31
0.0
  0
LINE
  8
0
 62
     0
 10
320.937
 20
54.2629
 30
0.0
 11
320.937
 21
55.0884
 31
0.0
  0
LINE
  8
0
 62
     0
 10
320.937
 20
55.0884
 30
0.0
 11
324.167
 21
55.0884
 31
0.0
  0
LINE
  8
0
 62
     0
 10
324.167
 20
55.0884
 30
0.0
 11
324.167
 21
61.8381
 31
0.0
  0
LINE
  8
0
 62
     0
 10
324.167
 20
61.8381
 30
0.0
 11
320.937
 21
61.8381
 31
0.0
  0
LINE
  8
0
 62
     0
 10
320.937
 20
61.8381
 30
0.0
 11
320.937
 21
63.3635
 31
0.0
  0
LINE
  8
0
 62
     0
 10
320.937
 20
63.3635
 30
0.0
 11
325.637
 21
63.3635
 31
0.0
  0
LINE
  8
0
 62
     0
 10
325.637
 20
63.3635
 30
0.0
 11
325.637
 21
77.3631
 31
0.0
  0
LINE
  8
0
 62
     0
 10
325.637
 20
77.3631
 30
0.0
 11
320.937
 21
77.3631
 31
0.0
  0
LINE
  8
0
 62
     0
 10
320.937
 20
77.3631
 30
0.0
 11
320.937
 21
78.8885
 31
0.0
  0
LINE
  8
0
 62
     0
 10
320.937
 20
78.8885
 30
0.0
 11
324.167
 21
78.8885
 31
0.0
  0
LINE
  8
0
 62
     0
 10
324.167
 20
78.8885
 30
0.0
 11
324.167
 21
85.6382
 31
0.0
  0
LINE
  8
0
 62
     0
 10
324.167
 20
85.6382
 30
0.0
 11
320.937
 21
85.6382
 31
0.0
  0
LINE
  8
0
 62
     0
 10
320.937
 20
85.6382
 30
0.0
 11
320.937
 21
86.4637
 31
0.0
  0
LINE
  8
0
 62
     0
 10
320.937
 20
86.4637
 30
0.0
 11
318.138
 21
86.4637
 31
0.0
  0
LINE
  8
0
 62
     0
 10
380.693
 20
86.8881
 30
0.0
 11
394.695
 21
86.8881
 31
0.0
  0
LINE
  8
0
 62
     0
 10
394.695
 20
86.8881
 30
0.0
 11
394.695
 21
72.8885
 31
0.0
  0
LINE
  8
0
 62
     0
 10
394.695
 20
72.8885
 30
0.0
 11
380.693
 21
72.8885
 31
0.0
  0
LINE
  8
0
 62
     0
 10
380.693
 20
72.8885
 30
0.0
 11
380.693
 21
86.8881
 31
0.0
  0
LINE
  8
0
 62
     0
 10
361.643
 20
86.8881
 30
0.0
 11
375.645
 21
86.8881
 31
0.0
  0
LINE
  8
0
 62
     0
 10
375.645
 20
86.8881
 30
0.0
 11
375.645
 21
72.8885
 31
0.0
  0
LINE
  8
0
 62
     0
 10
375.645
 20
72.8885
 30
0.0
 11
361.643
 21
72.8885
 31
0.0
  0
LINE
  8
0
 62
     0
 10
361.643
 20
72.8885
 30
0.0
 11
361.643
 21
86.8881
 31
0.0
  0
LINE
  8
0
 62
     0
 10
342.594
 20
86.8881
 30
0.0
 11
356.595
 21
86.8881
 31
0.0
  0
LINE
  8
0
 62
     0
 10
356.595
 20
86.8881
 30
0.0
 11
356.595
 21
72.8885
 31
0.0
  0
LINE
  8
0
 62
     0
 10
356.595
 20
72.8885
 30
0.0
 11
342.594
 21
72.8885
 31
0.0
  0
LINE
  8
0
 62
     0
 10
342.594
 20
72.8885
 30
0.0
 11
342.594
 21
86.8881
 31
0.0
  0
LINE
  8
0
 62
     0
 10
285.444
 20
86.8881
 30
0.0
 11
299.445
 21
86.8881
 31
0.0
  0
LINE
  8
0
 62
     0
 10
299.445
 20
86.8881
 30
0.0
 11
299.445
 21
72.8885
 31
0.0
  0
LINE
  8
0
 62
     0
 10
299.445
 20
72.8885
 30
0.0
 11
285.444
 21
72.8885
 31
0.0
  0
LINE
  8
0
 62
     0
 10
285.444
 20
72.8885
 30
0.0
 11
285.444
 21
86.8881
 31
0.0
  0
LINE
  8
0
 62
     0
 10
266.394
 20
86.8881
 30
0.0
 11
280.395
 21
86.8881
 31
0.0
  0
LINE
  8
0
 62
     0
 10
280.395
 20
86.8881
 30
0.0
 11
280.395
 21
72.8885
 31
0.0
  0
LINE
  8
0
 62
     0
 10
280.395
 20
72.8885
 30
0.0
 11
266.394
 21
72.8885
 31
0.0
  0
LINE
  8
0
 62
     0
 10
266.394
 20
72.8885
 30
0.0
 11
266.394
 21
86.8881
 31
0.0
  0
LINE
  8
0
 62
     0
 10
247.344
 20
86.8881
 30
0.0
 11
261.345
 21
86.8881
 31
0.0
  0
LINE
  8
0
 62
     0
 10
261.345
 20
86.8881
 30
0.0
 11
261.345
 21
72.8885
 31
0.0
  0
LINE
  8
0
 62
     0
 10
261.345
 20
72.8885
 30
0.0
 11
247.344
 21
72.8885
 31
0.0
  0
LINE
  8
0
 62
     0
 10
247.344
 20
72.8885
 30
0.0
 11
247.344
 21
86.8881
 31
0.0
  0
LINE
  8
0
 62
     0
 10
228.294
 20
86.8881
 30
0.0
 11
242.295
 21
86.8881
 31
0.0
  0
LINE
  8
0
 62
     0
 10
242.295
 20
86.8881
 30
0.0
 11
242.295
 21
72.8885
 31
0.0
  0
LINE
  8
0
 62
     0
 10
242.295
 20
72.8885
 30
0.0
 11
228.294
 21
72.8885
 31
0.0
  0
LINE
  8
0
 62
     0
 10
228.294
 20
72.8885
 30
0.0
 11
228.294
 21
86.8881
 31
0.0
  0
LINE
  8
0
 62
     0
 10
209.244
 20
86.8881
 30
0.0
 11
223.245
 21
86.8881
 31
0.0
  0
LINE
  8
0
 62
     0
 10
223.245
 20
86.8881
 30
0.0
 11
223.245
 21
72.8885
 31
0.0
  0
LINE
  8
0
 62
     0
 10
223.245
 20
72.8885
 30
0.0
 11
209.244
 21
72.8885
 31
0.0
  0
LINE
  8
0
 62
     0
 10
209.244
 20
72.8885
 30
0.0
 11
209.244
 21
86.8881
 31
0.0
  0
LINE
  8
0
 62
     0
 10
190.194
 20
86.8881
 30
0.0
 11
204.195
 21
86.8881
 31
0.0
  0
LINE
  8
0
 62
     0
 10
204.195
 20
86.8881
 30
0.0
 11
204.195
 21
72.8885
 31
0.0
  0
LINE
  8
0
 62
     0
 10
204.195
 20
72.8885
 30
0.0
 11
190.194
 21
72.8885
 31
0.0
  0
LINE
  8
0
 62
     0
 10
190.194
 20
72.8885
 30
0.0
 11
190.194
 21
86.8881
 31
0.0
  0
LINE
  8
0
 62
     0
 10
171.144
 20
86.8881
 30
0.0
 11
185.143
 21
86.8881
 31
0.0
  0
LINE
  8
0
 62
     0
 10
185.143
 20
86.8881
 30
0.0
 11
185.143
 21
72.8885
 31
0.0
  0
LINE
  8
0
 62
     0
 10
185.143
 20
72.8885
 30
0.0
 11
171.144
 21
72.8885
 31
0.0
  0
LINE
  8
0
 62
     0
 10
171.144
 20
72.8885
 30
0.0
 11
171.144
 21
86.8881
 31
0.0
  0
LINE
  8
0
 62
     0
 10
113.994
 20
86.8881
 30
0.0
 11
127.993
 21
86.8881
 31
0.0
  0
LINE
  8
0
 62
     0
 10
127.993
 20
86.8881
 30
0.0
 11
127.993
 21
72.8885
 31
0.0
  0
LINE
  8
0
 62
     0
 10
127.993
 20
72.8885
 30
0.0
 11
113.994
 21
72.8885
 31
0.0
  0
LINE
  8
0
 62
     0
 10
113.994
 20
72.8885
 30
0.0
 11
113.994
 21
86.8881
 31
0.0
  0
LINE
  8
0
 62
     0
 10
94.9441
 20
86.8881
 30
0.0
 11
108.945
 21
86.8881
 31
0.0
  0
LINE
  8
0
 62
     0
 10
108.945
 20
86.8881
 30
0.0
 11
108.945
 21
72.8885
 31
0.0
  0
LINE
  8
0
 62
     0
 10
108.945
 20
72.8885
 30
0.0
 11
94.9441
 21
72.8885
 31
0.0
  0
LINE
  8
0
 62
     0
 10
94.9441
 20
72.8885
 30
0.0
 11
94.9441
 21
86.8881
 31
0.0
  0
LINE
  8
0
 62
     0
 10
75.8941
 20
86.8881
 30
0.0
 11
89.8948
 21
86.8881
 31
0.0
  0
LINE
  8
0
 62
     0
 10
89.8948
 20
86.8881
 30
0.0
 11
89.8948
 21
72.8885
 31
0.0
  0
LINE
  8
0
 62
     0
 10
89.8948
 20
72.8885
 30
0.0
 11
75.8941
 21
72.8885
 31
0.0
  0
LINE
  8
0
 62
     0
 10
75.8941
 20
72.8885
 30
0.0
 11
75.8941
 21
86.8881
 31
0.0
  0
LINE
  8
0
 62
     0
 10
56.8441
 20
86.8881
 30
0.0
 11
70.8448
 21
86.8881
 31
0.0
  0
LINE
  8
0
 62
     0
 10
70.8448
 20
86.8881
 30
0.0
 11
70.8448
 21
72.8885
 31
0.0
  0
LINE
  8
0
 62
     0
 10
70.8448
 20
72.8885
 30
0.0
 11
56.8441
 21
72.8885
 31
0.0
  0
LINE
  8
0
 62
     0
 10
56.8441
 20
72.8885
 30
0.0
 11
56.8441
 21
86.8881
 31
0.0
  0
LINE
  8
0
 62
     0
 10
37.7941
 20
86.8881
 30
0.0
 11
51.7948
 21
86.8881
 31
0.0
  0
LINE
  8
0
 62
     0
 10
51.7948
 20
86.8881
 30
0.0
 11
51.7948
 21
72.8885
 31
0.0
  0
LINE
  8
0
 62
     0
 10
51.7948
 20
72.8885
 30
0.0
 11
37.7941
 21
72.8885
 31
0.0
  0
LINE
  8
0
 62
     0
 10
37.7941
 20
72.8885
 30
0.0
 11
37.7941
 21
86.8881
 31
0.0
  0
LINE
  8
0
 62
     0
 10
13.9816
 20
86.8881
 30
0.0
 11
27.9811
 21
86.8881
 31
0.0
  0
LINE
  8
0
 62
     0
 10
27.9811
 20
86.8881
 30
0.0
 11
27.9811
 21
72.8885
 31
0.0
  0
LINE
  8
0
 62
     0
 10
27.9811
 20
72.8885
 30
0.0
 11
13.9816
 21
72.8885
 31
0.0
  0
LINE
  8
0
 62
     0
 10
13.9816
 20
72.8885
 30
0.0
 11
13.9816
 21
86.8881
 31
0.0
  0
LINE
  8
0
 62
     0
 10
380.693
 20
105.938
 30
0.0
 11
394.695
 21
105.938
 31
0.0
  0
LINE
  8
0
 62
     0
 10
394.695
 20
105.938
 30
0.0
 11
394.695
 21
91.9385
 31
0.0
  0
LINE
  8
0
 62
     0
 10
394.695
 20
91.9385
 30
0.0
 11
380.693
 21
91.9385
 31
0.0
  0
LINE
  8
0
 62
     0
 10
380.693
 20
91.9385
 30
0.0
 11
380.693
 21
105.938
 31
0.0
  0
LINE
  8
0
 62
     0
 10
361.643
 20
105.938
 30
0.0
 11
375.645
 21
105.938
 31
0.0
  0
LINE
  8
0
 62
     0
 10
375.645
 20
105.938
 30
0.0
 11
375.645
 21
91.9385
 31
0.0
  0
LINE
  8
0
 62
     0
 10
375.645
 20
91.9385
 30
0.0
 11
361.643
 21
91.9385
 31
0.0
  0
LINE
  8
0
 62
     0
 10
361.643
 20
91.9385
 30
0.0
 11
361.643
 21
105.938
 31
0.0
  0
LINE
  8
0
 62
     0
 10
342.594
 20
105.938
 30
0.0
 11
356.595
 21
105.938
 31
0.0
  0
LINE
  8
0
 62
     0
 10
356.595
 20
105.938
 30
0.0
 11
356.595
 21
91.9385
 31
0.0
  0
LINE
  8
0
 62
     0
 10
356.595
 20
91.9385
 30
0.0
 11
342.594
 21
91.9385
 31
0.0
  0
LINE
  8
0
 62
     0
 10
342.594
 20
91.9385
 30
0.0
 11
342.594
 21
105.938
 31
0.0
  0
LINE
  8
0
 62
     0
 10
314.019
 20
105.938
 30
0.0
 11
328.02
 21
105.938
 31
0.0
  0
LINE
  8
0
 62
     0
 10
328.02
 20
105.938
 30
0.0
 11
328.02
 21
91.9385
 31
0.0
  0
LINE
  8
0
 62
     0
 10
328.02
 20
91.9385
 30
0.0
 11
314.019
 21
91.9385
 31
0.0
  0
LINE
  8
0
 62
     0
 10
314.019
 20
91.9385
 30
0.0
 11
314.019
 21
105.938
 31
0.0
  0
LINE
  8
0
 62
     0
 10
294.969
 20
105.938
 30
0.0
 11
308.97
 21
105.938
 31
0.0
  0
LINE
  8
0
 62
     0
 10
308.97
 20
105.938
 30
0.0
 11
308.97
 21
91.9385
 31
0.0
  0
LINE
  8
0
 62
     0
 10
308.97
 20
91.9385
 30
0.0
 11
294.969
 21
91.9385
 31
0.0
  0
LINE
  8
0
 62
     0
 10
294.969
 20
91.9385
 30
0.0
 11
294.969
 21
105.938
 31
0.0
  0
LINE
  8
0
 62
     0
 10
275.919
 20
105.938
 30
0.0
 11
289.92
 21
105.938
 31
0.0
  0
LINE
  8
0
 62
     0
 10
289.92
 20
105.938
 30
0.0
 11
289.92
 21
91.9385
 31
0.0
  0
LINE
  8
0
 62
     0
 10
289.92
 20
91.9385
 30
0.0
 11
275.919
 21
91.9385
 31
0.0
  0
LINE
  8
0
 62
     0
 10
275.919
 20
91.9385
 30
0.0
 11
275.919
 21
105.938
 31
0.0
  0
LINE
  8
0
 62
     0
 10
256.869
 20
105.938
 30
0.0
 11
270.87
 21
105.938
 31
0.0
  0
LINE
  8
0
 62
     0
 10
270.87
 20
105.938
 30
0.0
 11
270.87
 21
91.9385
 31
0.0
  0
LINE
  8
0
 62
     0
 10
270.87
 20
91.9385
 30
0.0
 11
256.869
 21
91.9385
 31
0.0
  0
LINE
  8
0
 62
     0
 10
256.869
 20
91.9385
 30
0.0
 11
256.869
 21
105.938
 31
0.0
  0
LINE
  8
0
 62
     0
 10
237.819
 20
105.938
 30
0.0
 11
251.82
 21
105.938
 31
0.0
  0
LINE
  8
0
 62
     0
 10
251.82
 20
105.938
 30
0.0
 11
251.82
 21
91.9385
 31
0.0
  0
LINE
  8
0
 62
     0
 10
251.82
 20
91.9385
 30
0.0
 11
237.819
 21
91.9385
 31
0.0
  0
LINE
  8
0
 62
     0
 10
237.819
 20
91.9385
 30
0.0
 11
237.819
 21
105.938
 31
0.0
  0
LINE
  8
0
 62
     0
 10
218.769
 20
105.938
 30
0.0
 11
232.77
 21
105.938
 31
0.0
  0
LINE
  8
0
 62
     0
 10
232.77
 20
105.938
 30
0.0
 11
232.77
 21
91.9385
 31
0.0
  0
LINE
  8
0
 62
     0
 10
232.77
 20
91.9385
 30
0.0
 11
218.769
 21
91.9385
 31
0.0
  0
LINE
  8
0
 62
     0
 10
218.769
 20
91.9385
 30
0.0
 11
218.769
 21
105.938
 31
0.0
  0
LINE
  8
0
 62
     0
 10
199.719
 20
105.938
 30
0.0
 11
213.72
 21
105.938
 31
0.0
  0
LINE
  8
0
 62
     0
 10
213.72
 20
105.938
 30
0.0
 11
213.72
 21
91.9385
 31
0.0
  0
LINE
  8
0
 62
     0
 10
213.72
 20
91.9385
 30
0.0
 11
199.719
 21
91.9385
 31
0.0
  0
LINE
  8
0
 62
     0
 10
199.719
 20
91.9385
 30
0.0
 11
199.719
 21
105.938
 31
0.0
  0
LINE
  8
0
 62
     0
 10
180.669
 20
105.938
 30
0.0
 11
194.67
 21
105.938
 31
0.0
  0
LINE
  8
0
 62
     0
 10
194.67
 20
105.938
 30
0.0
 11
194.67
 21
91.9385
 31
0.0
  0
LINE
  8
0
 62
     0
 10
194.67
 20
91.9385
 30
0.0
 11
180.669
 21
91.9385
 31
0.0
  0
LINE
  8
0
 62
     0
 10
180.669
 20
91.9385
 30
0.0
 11
180.669
 21
105.938
 31
0.0
  0
LINE
  8
0
 62
     0
 10
161.619
 20
105.938
 30
0.0
 11
175.618
 21
105.938
 31
0.0
  0
LINE
  8
0
 62
     0
 10
175.618
 20
105.938
 30
0.0
 11
175.618
 21
91.9385
 31
0.0
  0
LINE
  8
0
 62
     0
 10
175.618
 20
91.9385
 30
0.0
 11
161.619
 21
91.9385
 31
0.0
  0
LINE
  8
0
 62
     0
 10
161.619
 20
91.9385
 30
0.0
 11
161.619
 21
105.938
 31
0.0
  0
LINE
  8
0
 62
     0
 10
104.469
 20
105.938
 30
0.0
 11
118.468
 21
105.938
 31
0.0
  0
LINE
  8
0
 62
     0
 10
118.468
 20
105.938
 30
0.0
 11
118.468
 21
91.9385
 31
0.0
  0
LINE
  8
0
 62
     0
 10
118.468
 20
91.9385
 30
0.0
 11
104.469
 21
91.9385
 31
0.0
  0
LINE
  8
0
 62
     0
 10
104.469
 20
91.9385
 30
0.0
 11
104.469
 21
105.938
 31
0.0
  0
LINE
  8
0
 62
     0
 10
85.4191
 20
105.938
 30
0.0
 11
99.4184
 21
105.938
 31
0.0
  0
LINE
  8
0
 62
     0
 10
99.4184
 20
105.938
 30
0.0
 11
99.4184
 21
91.9385
 31
0.0
  0
LINE
  8
0
 62
     0
 10
99.4184
 20
91.9385
 30
0.0
 11
85.4191
 21
91.9385
 31
0.0
  0
LINE
  8
0
 62
     0
 10
85.4191
 20
91.9385
 30
0.0
 11
85.4191
 21
105.938
 31
0.0
  0
LINE
  8
0
 62
     0
 10
66.3691
 20
105.938
 30
0.0
 11
80.3684
 21
105.938
 31
0.0
  0
LINE
  8
0
 62
     0
 10
80.3684
 20
105.938
 30
0.0
 11
80.3684
 21
91.9385
 31
0.0
  0
LINE
  8
0
 62
     0
 10
80.3684
 20
91.9385
 30
0.0
 11
66.3691
 21
91.9385
 31
0.0
  0
LINE
  8
0
 62
     0
 10
66.3691
 20
91.9385
 30
0.0
 11
66.3691
 21
105.938
 31
0.0
  0
LINE
  8
0
 62
     0
 10
47.3191
 20
105.938
 30
0.0
 11
61.3198
 21
105.938
 31
0.0
  0
LINE
  8
0
 62
     0
 10
61.3198
 20
105.938
 30
0.0
 11
61.3198
 21
91.9385
 31
0.0
  0
LINE
  8
0
 62
     0
 10
61.3198
 20
91.9385
 30
0.0
 11
47.3191
 21
91.9385
 31
0.0
  0
LINE
  8
0
 62
     0
 10
47.3191
 20
91.9385
 30
0.0
 11
47.3191
 21
105.938
 31
0.0
  0
LINE
  8
0
 62
     0
 10
28.2691
 20
105.938
 30
0.0
 11
42.2698
 21
105.938
 31
0.0
  0
LINE
  8
0
 62
     0
 10
42.2698
 20
105.938
 30
0.0
 11
42.2698
 21
91.9385
 31
0.0
  0
LINE
  8
0
 62
     0
 10
42.2698
 20
91.9385
 30
0.0
 11
28.2691
 21
91.9385
 31
0.0
  0
LINE
  8
0
 62
     0
 10
28.2691
 20
91.9385
 30
0.0
 11
28.2691
 21
105.938
 31
0.0
  0
LINE
  8
0
 62
     0
 10
9.21907
 20
105.938
 30
0.0
 11
23.2199
 21
105.938
 31
0.0
  0
LINE
  8
0
 62
     0
 10
23.2199
 20
105.938
 30
0.0
 11
23.2199
 21
91.9385
 31
0.0
  0
LINE
  8
0
 62
     0
 10
23.2199
 20
91.9385
 30
0.0
 11
9.21907
 21
91.9385
 31
0.0
  0
LINE
  8
0
 62
     0
 10
9.21907
 20
91.9385
 30
0.0
 11
9.21907
 21
105.938
 31
0.0
  0
LINE
  8
0
 62
     0
 10
380.693
 20
129.751
 30
0.0
 11
394.695
 21
129.751
 31
0.0
  0
LINE
  8
0
 62
     0
 10
394.695
 20
129.751
 30
0.0
 11
394.695
 21
115.75
 31
0.0
  0
LINE
  8
0
 62
     0
 10
394.695
 20
115.75
 30
0.0
 11
380.693
 21
115.75
 31
0.0
  0
LINE
  8
0
 62
     0
 10
380.693
 20
115.75
 30
0.0
 11
380.693
 21
129.751
 31
0.0
  0
LINE
  8
0
 62
     0
 10
361.643
 20
129.751
 30
0.0
 11
375.645
 21
129.751
 31
0.0
  0
LINE
  8
0
 62
     0
 10
375.645
 20
129.751
 30
0.0
 11
375.645
 21
115.75
 31
0.0
  0
LINE
  8
0
 62
     0
 10
375.645
 20
115.75
 30
0.0
 11
361.643
 21
115.75
 31
0.0
  0
LINE
  8
0
 62
     0
 10
361.643
 20
115.75
 30
0.0
 11
361.643
 21
129.751
 31
0.0
  0
LINE
  8
0
 62
     0
 10
342.594
 20
129.751
 30
0.0
 11
356.595
 21
129.751
 31
0.0
  0
LINE
  8
0
 62
     0
 10
356.595
 20
129.751
 30
0.0
 11
356.595
 21
115.75
 31
0.0
  0
LINE
  8
0
 62
     0
 10
356.595
 20
115.75
 30
0.0
 11
342.594
 21
115.75
 31
0.0
  0
LINE
  8
0
 62
     0
 10
342.594
 20
115.75
 30
0.0
 11
342.594
 21
129.751
 31
0.0
  0
LINE
  8
0
 62
     0
 10
314.019
 20
129.751
 30
0.0
 11
328.02
 21
129.751
 31
0.0
  0
LINE
  8
0
 62
     0
 10
328.02
 20
129.751
 30
0.0
 11
328.02
 21
115.75
 31
0.0
  0
LINE
  8
0
 62
     0
 10
328.02
 20
115.75
 30
0.0
 11
314.019
 21
115.75
 31
0.0
  0
LINE
  8
0
 62
     0
 10
314.019
 20
115.75
 30
0.0
 11
314.019
 21
129.751
 31
0.0
  0
LINE
  8
0
 62
     0
 10
294.969
 20
129.751
 30
0.0
 11
308.97
 21
129.751
 31
0.0
  0
LINE
  8
0
 62
     0
 10
308.97
 20
129.751
 30
0.0
 11
308.97
 21
115.75
 31
0.0
  0
LINE
  8
0
 62
     0
 10
308.97
 20
115.75
 30
0.0
 11
294.969
 21
115.75
 31
0.0
  0
LINE
  8
0
 62
     0
 10
294.969
 20
115.75
 30
0.0
 11
294.969
 21
129.751
 31
0.0
  0
LINE
  8
0
 62
     0
 10
275.919
 20
129.751
 30
0.0
 11
289.92
 21
129.751
 31
0.0
  0
LINE
  8
0
 62
     0
 10
289.92
 20
129.751
 30
0.0
 11
289.92
 21
115.75
 31
0.0
  0
LINE
  8
0
 62
     0
 10
289.92
 20
115.75
 30
0.0
 11
275.919
 21
115.75
 31
0.0
  0
LINE
  8
0
 62
     0
 10
275.919
 20
115.75
 30
0.0
 11
275.919
 21
129.751
 31
0.0
  0
LINE
  8
0
 62
     0
 10
256.869
 20
129.751
 30
0.0
 11
270.87
 21
129.751
 31
0.0
  0
LINE
  8
0
 62
     0
 10
270.87
 20
129.751
 30
0.0
 11
270.87
 21
115.75
 31
0.0
  0
LINE
  8
0
 62
     0
 10
270.87
 20
115.75
 30
0.0
 11
256.869
 21
115.75
 31
0.0
  0
LINE
  8
0
 62
     0
 10
256.869
 20
115.75
 30
0.0
 11
256.869
 21
129.751
 31
0.0
  0
LINE
  8
0
 62
     0
 10
228.294
 20
129.751
 30
0.0
 11
242.295
 21
129.751
 31
0.0
  0
LINE
  8
0
 62
     0
 10
242.295
 20
129.751
 30
0.0
 11
242.295
 21
115.75
 31
0.0
  0
LINE
  8
0
 62
     0
 10
242.295
 20
115.75
 30
0.0
 11
228.294
 21
115.75
 31
0.0
  0
LINE
  8
0
 62
     0
 10
228.294
 20
115.75
 30
0.0
 11
228.294
 21
129.751
 31
0.0
  0
LINE
  8
0
 62
     0
 10
209.244
 20
129.751
 30
0.0
 11
223.245
 21
129.751
 31
0.0
  0
LINE
  8
0
 62
     0
 10
223.245
 20
129.751
 30
0.0
 11
223.245
 21
115.75
 31
0.0
  0
LINE
  8
0
 62
     0
 10
223.245
 20
115.75
 30
0.0
 11
209.244
 21
115.75
 31
0.0
  0
LINE
  8
0
 62
     0
 10
209.244
 20
115.75
 30
0.0
 11
209.244
 21
129.751
 31
0.0
  0
LINE
  8
0
 62
     0
 10
190.194
 20
129.751
 30
0.0
 11
204.195
 21
129.751
 31
0.0
  0
LINE
  8
0
 62
     0
 10
204.195
 20
129.751
 30
0.0
 11
204.195
 21
115.75
 31
0.0
  0
LINE
  8
0
 62
     0
 10
204.195
 20
115.75
 30
0.0
 11
190.194
 21
115.75
 31
0.0
  0
LINE
  8
0
 62
     0
 10
190.194
 20
115.75
 30
0.0
 11
190.194
 21
129.751
 31
0.0
  0
LINE
  8
0
 62
     0
 10
171.144
 20
129.751
 30
0.0
 11
185.145
 21
129.751
 31
0.0
  0
LINE
  8
0
 62
     0
 10
185.145
 20
129.751
 30
0.0
 11
185.145
 21
115.75
 31
0.0
  0
LINE
  8
0
 62
     0
 10
185.145
 20
115.75
 30
0.0
 11
171.144
 21
115.75
 31
0.0
  0
LINE
  8
0
 62
     0
 10
171.144
 20
115.75
 30
0.0
 11
171.144
 21
129.751
 31
0.0
  0
LINE
  8
0
 62
     0
 10
104.469
 20
129.751
 30
0.0
 11
118.47
 21
129.751
 31
0.0
  0
LINE
  8
0
 62
     0
 10
118.47
 20
129.751
 30
0.0
 11
118.47
 21
115.75
 31
0.0
  0
LINE
  8
0
 62
     0
 10
118.47
 20
115.75
 30
0.0
 11
104.469
 21
115.75
 31
0.0
  0
LINE
  8
0
 62
     0
 10
104.469
 20
115.75
 30
0.0
 11
104.469
 21
129.751
 31
0.0
  0
LINE
  8
0
 62
     0
 10
85.4191
 20
129.751
 30
0.0
 11
99.4198
 21
129.751
 31
0.0
  0
LINE
  8
0
 62
     0
 10
99.4198
 20
129.751
 30
0.0
 11
99.4198
 21
115.75
 31
0.0
  0
LINE
  8
0
 62
     0
 10
99.4198
 20
115.75
 30
0.0
 11
85.4191
 21
115.75
 31
0.0
  0
LINE
  8
0
 62
     0
 10
85.4191
 20
115.75
 30
0.0
 11
85.4191
 21
129.751
 31
0.0
  0
LINE
  8
0
 62
     0
 10
66.3691
 20
129.751
 30
0.0
 11
80.3698
 21
129.751
 31
0.0
  0
LINE
  8
0
 62
     0
 10
80.3698
 20
129.751
 30
0.0
 11
80.3698
 21
115.75
 31
0.0
  0
LINE
  8
0
 62
     0
 10
80.3698
 20
115.75
 30
0.0
 11
66.3691
 21
115.75
 31
0.0
  0
LINE
  8
0
 62
     0
 10
66.3691
 20
115.75
 30
0.0
 11
66.3691
 21
129.751
 31
0.0
  0
LINE
  8
0
 62
     0
 10
47.3191
 20
129.751
 30
0.0
 11
61.3198
 21
129.751
 31
0.0
  0
LINE
  8
0
 62
     0
 10
61.3198
 20
129.751
 30
0.0
 11
61.3198
 21
115.75
 31
0.0
  0
LINE
  8
0
 62
     0
 10
61.3198
 20
115.75
 30
0.0
 11
47.3191
 21
115.75
 31
0.0
  0
LINE
  8
0
 62
     0
 10
47.3191
 20
115.75
 30
0.0
 11
47.3191
 21
129.751
 31
0.0
  0
LINE
  8
0
 62
     0
 10
9.21907
 20
129.751
 30
0.0
 11
23.2199
 21
129.751
 31
0.0
  0
LINE
  8
0
 62
     0
 10
23.2199
 20
129.751
 30
0.0
 11
23.2199
 21
115.75
 31
0.0
  0
LINE
  8
0
 62
     0
 10
23.2199
 20
115.75
 30
0.0
 11
9.21907
 21
115.75
 31
0.0
  0
LINE
  8
0
 62
     0
 10
9.21907
 20
115.75
 30
0.0
 11
9.21907
 21
129.751
 31
0.0
  0
ENDSEC
  0
EOF
