0
SECTION
2
HEADER
9
$INSUNITS
70
4
9
$ACADVER
1
AC1014
9
$HANDSEED
5
FFFF
0
ENDSEC
0
SECTION
2
TABLES
0
TABLE
2
VPORT
5
8
100
AcDbSymbolTable
0
ENDTAB
0
TABLE
2
LTYPE
5
5
100
AcDbSymbolTable
0
LTYPE
5
14
100
AcDbSymbolTableRecord
100
AcDbLinetypeTableRecord
2
BYBLOCK
70
0
0
LTYPE
5
15
100
AcDbSymbolTableRecord
100
AcDbLinetypeTableRecord
2
BYLAYER
70
0
0
ENDTAB
0
TABLE
2
LAYER
5
2
100
AcDbSymbolTable
70
2
0
LAYER
5
50
100
AcDbSymbolTableRecord
100
AcDbLayerTableRecord
2
0
70
0
6
CONTINUOUS
0
ENDTAB
0
TABLE
2
STYLE
5
3
100
AcDbSymbolTable
70
1
0
STYLE
5
11
100
AcDbSymbolTableRecord
100
AcDbTextStyleTableRecord
2
STANDARD
70
0
0
ENDTAB
0
TABLE
2
VIEW
5
6
100
AcDbSymbolTable
70
0
0
ENDTAB
0
TABLE
2
UCS
5
7
100
AcDbSymbolTable
70
0
0
ENDTAB
0
TABLE
2
APPID
5
9
100
AcDbSymbolTable
70
2
0
APPID
5
12
100
AcDbSymbolTableRecord
100
AcDbRegAppTableRecord
2
ACAD
70
0
0
ENDTAB
0
TABLE
2
DIMSTYLE
5
A
100
AcDbSymbolTable
70
1
0
ENDTAB
0
TABLE
2
BLOCK_RECORD
5
1
100
AcDbSymbolTable
70
1
0
BLOCK_RECORD
5
1F
100
AcDbSymbolTableRecord
100
AcDbBlockTableRecord
2
*MODEL_SPACE
0
BLOCK_RECORD
5
1B
100
AcDbSymbolTableRecord
100
AcDbBlockTableRecord
2
*PAPER_SPACE
0
ENDTAB
0
ENDSEC
0
SECTION
2
BLOCKS
0
BLOCK
5
20
100
AcDbEntity
100
AcDbBlockBegin
2
*MODEL_SPACE
0
ENDBLK
5
21
100
AcDbEntity
100
AcDbBlockEnd
0
BLOCK
5
1C
100
AcDbEntity
100
AcDbBlockBegin
2
*PAPER_SPACE
0
ENDBLK
5
1D
100
AcDbEntity
100
AcDbBlockEnd
0
ENDSEC
0
SECTION
2
ENTITIES
0
LWPOLYLINE
5
100
100
AcDbEntity
8
0
100
AcDbPolyline
90
4
70
1
43
0.0
10
87.439028929309487
20
12.546248421942234
10
101.43802892930944
20
12.546248421942234
10
101.43802892930944
20
26.545748421942204
10
87.439028929309487
20
26.545748421942204
0
LWPOLYLINE
5
101
100
AcDbEntity
8
0
100
AcDbPolyline
90
4
70
1
43
0.0
10
11.239028929309658
20
26.545748421942204
10
11.239028929309658
20
12.546248421942234
10
25.238028929309611
20
12.546248421942234
10
25.238028929309611
20
26.545748421942204
0
LWPOLYLINE
5
102
100
AcDbEntity
8
0
100
AcDbPolyline
90
4
70
1
43
0.0
10
237.1710289293091
20
26.5457484219422
10
223.16902892930921
20
26.5457484219422
10
223.16902892930921
20
12.546248421942234
10
237.1710289293091
20
12.546248421942234
0
LWPOLYLINE
5
103
100
AcDbEntity
8
0
100
AcDbPolyline
90
4
70
1
43
0.0
10
151.73302892930931
20
12.546248421942234
10
165.73202892930931
20
12.546248421942234
10
165.73202892930931
20
26.5457484219422
10
151.73302892930931
20
26.545748421942204
0
LWPOLYLINE
5
104
100
AcDbEntity
8
0
100
AcDbPolyline
90
4
70
1
43
0.0
10
122.86902892930934
20
26.545748421942204
10
108.87002892930943
20
26.545748421942204
10
108.87002892930943
20
12.546248421942234
10
122.86902892930934
20
12.546248421942234
0
LWPOLYLINE
5
105
100
AcDbEntity
8
0
100
AcDbPolyline
90
4
70
1
43
0.0
10
127.9200289293094
20
12.546248421942234
10
141.91902892930932
20
12.546248421942234
10
141.91902892930932
20
26.545748421942204
10
127.9200289293094
20
26.545748421942204
0
LWPOLYLINE
5
106
100
AcDbEntity
8
0
100
AcDbPolyline
90
4
70
1
43
0.0
10
63.626028929309527
20
12.546248421942234
10
77.626028929309484
20
12.546248421942234
10
77.626028929309484
20
26.545748421942204
10
63.626028929309527
20
26.545748421942204
0
LWPOLYLINE
5
107
100
AcDbEntity
8
0
100
AcDbPolyline
90
4
70
1
43
0.0
10
53.813028929309596
20
26.545748421942204
10
39.8140289293096
20
26.545748421942204
10
39.8140289293096
20
12.546248421942234
10
53.813028929309596
20
12.546248421942234
0
LWPOLYLINE
5
108
100
AcDbEntity
8
0
100
AcDbPolyline
90
4
70
1
43
0.0
10
218.12102892930915
20
12.546248421942234
10
218.12102892930915
20
26.5457484219422
10
204.1190289293092
20
26.5457484219422
10
204.1190289293092
20
12.546248421942234
0
LWPOLYLINE
5
109
100
AcDbEntity
8
0
100
AcDbPolyline
90
4
70
1
43
0.0
10
199.07102892930922
20
12.546248421942234
10
199.07102892930922
20
26.5457484219422
10
185.07002892930922
20
26.5457484219422
10
185.07002892930922
20
12.546248421942234
0
LWPOLYLINE
5
110
100
AcDbEntity
8
0
100
AcDbPolyline
90
4
70
1
43
0.0
10
199.07102892930922
20
31.596248421942185
10
199.07102892930922
20
45.595748421942154
10
185.07002892930922
20
45.595748421942154
10
185.07002892930922
20
31.596248421942185
0
LWPOLYLINE
5
111
100
AcDbEntity
8
0
100
AcDbPolyline
90
4
70
1
43
0.0
10
163.35102892930928
20
45.595748421942154
10
149.35102892930931
20
45.595748421942154
10
149.35102892930931
20
31.596248421942189
10
163.35102892930928
20
31.596248421942185
0
LWPOLYLINE
5
112
100
AcDbEntity
8
0
100
AcDbPolyline
90
4
70
1
43
0.0
10
137.15702892930932
20
45.595748421942154
10
123.15802892930941
20
45.595748421942154
10
123.15802892930941
20
31.596248421942189
10
137.15702892930932
20
31.596248421942189
0
LWPOLYLINE
5
113
100
AcDbEntity
8
0
100
AcDbPolyline
90
4
70
1
43
0.0
10
223.16902892930921
20
31.596248421942185
10
237.1710289293091
20
31.596248421942185
10
237.1710289293091
20
45.595748421942154
10
223.16902892930921
20
45.595748421942154
0
LWPOLYLINE
5
114
100
AcDbEntity
8
0
100
AcDbPolyline
90
4
70
1
43
0.0
10
204.1190289293092
20
31.596248421942185
10
218.12102892930915
20
31.596248421942185
10
218.12102892930915
20
45.595748421942154
10
204.1190289293092
20
45.595748421942154
0
LWPOLYLINE
5
115
100
AcDbEntity
8
0
100
AcDbPolyline
90
4
70
1
43
0.0
10
85.058028929309501
20
45.595748421942154
10
85.058028929309501
20
31.596248421942189
10
99.057028929309411
20
31.596248421942189
10
99.057028929309411
20
45.595748421942154
0
LWPOLYLINE
5
116
100
AcDbEntity
8
0
100
AcDbPolyline
90
4
70
1
43
0.0
10
146.68202892930927
20
50.646148421942144
10
146.68202892930927
20
64.645748421942102
10
132.68302892930936
20
64.645748421942102
10
132.68302892930936
20
50.646148421942144
0
LWPOLYLINE
5
117
100
AcDbEntity
8
0
100
AcDbPolyline
90
4
70
1
43
0.0
10
60.957028929309573
20
31.596248421942189
10
60.957028929309573
20
45.595748421942154
10
46.958028929309577
20
45.595748421942154
10
46.958028929309577
20
31.596248421942189
0
LWPOLYLINE
5
118
100
AcDbEntity
8
0
100
AcDbPolyline
90
4
70
1
43
0.0
10
27.908028929309641
20
45.595748421942154
10
27.908028929309641
20
31.596248421942189
10
41.90702892930959
20
31.596248421942189
10
41.90702892930959
20
45.595748421942154
0
LWPOLYLINE
5
119
100
AcDbEntity
8
0
100
AcDbPolyline
90
4
70
1
43
0.0
10
22.857028929309582
20
31.596248421942189
10
22.857028929309582
20
45.595748421942154
10
8.8580289293097003
20
45.595748421942154
10
8.8580289293097003
20
31.596248421942189
0
LWPOLYLINE
5
120
100
AcDbEntity
8
0
100
AcDbPolyline
90
4
70
1
43
0.0
10
113.6330289293094
20
50.646148421942144
10
127.6320289293094
20
50.646148421942144
10
127.6320289293094
20
64.645748421942102
10
113.6330289293094
20
64.645748421942102
0
LWPOLYLINE
5
121
100
AcDbEntity
8
0
100
AcDbPolyline
90
4
70
1
43
0.0
10
104.10802892930944
20
31.596248421942189
10
118.10702892930935
20
31.596248421942189
10
118.10702892930935
20
45.595748421942154
10
104.10802892930944
20
45.595748421942154
0
LWPOLYLINE
5
122
100
AcDbEntity
8
0
100
AcDbPolyline
90
4
70
1
43
0.0
10
80.00702892930947
20
45.595748421942154
10
66.008028929309518
20
45.595748421942154
10
66.008028929309518
20
31.596248421942189
10
80.00702892930947
20
31.596248421942189
0
LWPOLYLINE
5
123
100
AcDbEntity
8
0
100
AcDbPolyline
90
4
70
1
43
0.0
10
108.58202892930942
20
64.645748421942102
10
94.583028929309464
20
64.645748421942102
10
94.583028929309464
20
50.646148421942144
10
108.58202892930942
20
50.646148421942144
0
LWPOLYLINE
5
124
100
AcDbEntity
8
0
100
AcDbPolyline
90
36
70
1
43
0.0
10
154.3440289293093
20
53.62004842194213
10
153.14402892930931
20
53.62004842194213
10
153.14402892930931
20
56.920248421942119
10
154.3440289293093
20
56.920248421942119
10
154.3440289293093
20
58.645748421942116
10
158.81302892930927
20
58.645748421942116
10
158.81302892930927
20
60.171148421942114
10
154.11402892930928
20
60.171148421942114
10
154.11402892930928
20
74.170748421942079
10
158.81302892930927
20
74.170748421942079
10
158.81302892930927
20
75.69614842194207
10
154.3440289293093
20
75.69614842194207
10
154.3440289293093
20
77.420148421942073
10
153.14402892930931
20
77.420148421942073
10
153.14402892930931
20
80.720448421942052
10
154.3440289293093
20
80.720448421942052
10
154.3440289293093
20
82.44584842194206
10
160.61402892930928
20
82.44584842194206
10
160.61402892930928
20
83.271348421942065
10
163.41302892930935
20
83.271348421942065
10
163.41302892930935
20
82.44584842194206
10
166.64302892930934
20
82.44584842194206
10
166.64302892930934
20
75.69614842194207
10
163.41302892930935
20
75.69614842194207
10
163.41302892930935
20
74.170748421942079
10
168.11302892930934
20
74.170748421942079
10
168.11302892930934
20
60.171148421942114
10
163.41302892930935
20
60.171148421942114
10
163.41302892930935
20
58.645748421942116
10
166.64302892930934
20
58.645748421942116
10
166.64302892930934
20
51.89604842194214
10
163.41302892930935
20
51.89604842194214
10
163.41302892930935
20
51.070548421942149
10
160.61402892930928
20
51.070548421942149
10
160.61402892930928
20
51.89604842194214
10
154.3440289293093
20
51.89604842194214
0
LWPOLYLINE
5
125
100
AcDbEntity
8
0
100
AcDbPolyline
90
4
70
1
43
0.0
10
32.382028929309584
20
64.645748421942102
10
18.38302892930967
20
64.645748421942102
10
18.38302892930967
20
50.646148421942144
10
32.382028929309584
20
50.646148421942144
0
LWPOLYLINE
5
126
100
AcDbEntity
8
0
100
AcDbPolyline
90
4
70
1
43
0.0
10
75.533028929309523
20
64.645748421942102
10
75.533028929309523
20
50.646148421942144
10
89.532028929309448
20
50.646148421942144
10
89.532028929309448
20
64.645748421942102
0
LWPOLYLINE
5
127
100
AcDbEntity
8
0
100
AcDbPolyline
90
4
70
1
43
0.0
10
56.483028929309555
20
50.646148421942144
10
70.482028929309507
20
50.646148421942144
10
70.482028929309507
20
64.645748421942102
10
56.483028929309555
20
64.645748421942102
0
LWPOLYLINE
5
128
100
AcDbEntity
8
0
100
AcDbPolyline
90
4
70
1
43
0.0
10
37.433028929309572
20
64.645748421942102
10
37.433028929309572
20
50.646148421942144
10
51.432028929309567
20
50.646148421942144
10
51.432028929309567
20
64.645748421942102
0
LWPOLYLINE
5
129
100
AcDbEntity
8
0
100
AcDbPolyline
90
4
70
1
43
0.0
10
70.770028929309547
20
69.696148421942084
10
84.771028929309495
20
69.696148421942084
10
84.771028929309495
20
83.695748421942056
10
70.770028929309547
20
83.695748421942056
0
LWPOLYLINE
5
130
100
AcDbEntity
8
0
100
AcDbPolyline
90
4
70
1
43
0.0
10
13.620028929309651
20
83.695748421942056
10
13.620028929309651
20
69.696148421942084
10
27.619028929309639
20
69.696148421942084
10
27.619028929309639
20
83.695748421942056
0
LWPOLYLINE
5
131
100
AcDbEntity
8
0
100
AcDbPolyline
90
4
70
1
43
0.0
10
237.1710289293091
20
83.695748421942056
10
223.16902892930921
20
83.695748421942056
10
223.16902892930921
20
69.696148421942084
10
237.1710289293091
20
69.696148421942084
0
LWPOLYLINE
5
132
100
AcDbEntity
8
0
100
AcDbPolyline
90
4
70
1
43
0.0
10
103.82102892930943
20
83.695748421942056
10
89.820028929309487
20
83.695748421942056
10
89.820028929309487
20
69.696148421942084
10
103.82102892930943
20
69.696148421942084
0
LWPOLYLINE
5
133
100
AcDbEntity
8
0
100
AcDbPolyline
90
4
70
1
43
0.0
10
127.9200289293094
20
69.696148421942084
10
141.92102892930936
20
69.696148421942084
10
141.92102892930936
20
83.695748421942056
10
127.9200289293094
20
83.695748421942056
0
LWPOLYLINE
5
134
100
AcDbEntity
8
0
100
AcDbPolyline
90
4
70
1
43
0.0
10
51.720028929309606
20
69.696148421942084
10
65.721028929309512
20
69.696148421942084
10
65.721028929309512
20
83.695748421942056
10
51.720028929309606
20
83.695748421942056
0
LWPOLYLINE
5
135
100
AcDbEntity
8
0
100
AcDbPolyline
90
4
70
1
43
0.0
10
46.671028929309571
20
83.695748421942056
10
32.670028929309623
20
83.695748421942056
10
32.670028929309623
20
69.696148421942084
10
46.671028929309571
20
69.696148421942084
0
LWPOLYLINE
5
136
100
AcDbEntity
8
0
100
AcDbPolyline
90
4
70
1
43
0.0
10
108.87002892930943
20
69.696148421942084
10
122.87102892930938
20
69.696148421942084
10
122.87102892930938
20
83.695748421942056
10
108.87002892930943
20
83.695748421942056
0
LWPOLYLINE
5
137
100
AcDbEntity
8
0
100
AcDbPolyline
90
4
70
1
43
0.0
10
218.12102892930915
20
69.696148421942084
10
218.12102892930915
20
83.695748421942056
10
204.1190289293092
20
83.695748421942056
10
204.1190289293092
20
69.696148421942084
0
LWPOLYLINE
5
138
100
AcDbEntity
8
0
100
AcDbPolyline
90
4
70
1
43
0.0
10
199.07102892930922
20
69.696148421942084
10
199.07102892930922
20
83.695748421942056
10
185.07002892930922
20
83.695748421942056
10
185.07002892930922
20
69.696148421942084
0
LWPOLYLINE
5
139
100
AcDbEntity
8
0
100
AcDbPolyline
90
4
70
1
43
0.0
10
237.1710289293091
20
102.74564842194201
10
223.16902892930921
20
102.74564842194201
10
223.16902892930921
20
88.746148421942053
10
237.1710289293091
20
88.746148421942053
0
LWPOLYLINE
5
140
100
AcDbEntity
8
0
100
AcDbPolyline
90
4
70
1
43
0.0
10
218.12102892930915
20
102.74564842194201
10
204.1190289293092
20
102.74564842194201
10
204.1190289293092
20
88.746148421942053
10
218.12102892930915
20
88.746148421942053
0
LWPOLYLINE
5
141
100
AcDbEntity
8
0
100
AcDbPolyline
90
4
70
1
43
0.0
10
199.07102892930922
20
88.746148421942053
10
199.07102892930922
20
102.74564842194201
10
185.07002892930922
20
102.74564842194201
10
185.07002892930922
20
88.746148421942053
0
LWPOLYLINE
5
142
100
AcDbEntity
8
0
100
AcDbPolyline
90
4
70
1
43
0.0
10
118.39502892930943
20
102.74564842194201
10
118.39502892930943
20
88.746148421942053
10
132.39602892930938
20
88.746148421942053
10
132.39602892930938
20
102.74564842194201
0
LWPOLYLINE
5
143
100
AcDbEntity
8
0
100
AcDbPolyline
90
4
70
1
43
0.0
10
113.34602892930944
20
88.746148421942053
10
113.34602892930944
20
102.74564842194201
10
99.345028929309493
20
102.74564842194201
10
99.345028929309493
20
88.746148421942053
0
LWPOLYLINE
5
144
100
AcDbEntity
8
0
100
AcDbPolyline
90
4
70
1
43
0.0
10
170.49602892930926
20
88.746148421942053
10
170.49602892930926
20
102.74564842194201
10
156.49502892930929
20
102.74564842194201
10
156.49502892930929
20
88.746148421942053
0
LWPOLYLINE
5
145
100
AcDbEntity
8
0
100
AcDbPolyline
90
4
70
1
43
0.0
10
151.44602892930936
20
102.74564842194201
10
137.44502892930933
20
102.74564842194201
10
137.44502892930933
20
88.746148421942053
10
151.44602892930936
20
88.746148421942053
0
LWPOLYLINE
5
146
100
AcDbEntity
8
0
100
AcDbPolyline
90
4
70
1
43
0.0
10
185.07002892930922
20
112.55764842194199
10
199.07102892930922
20
112.55764842194199
10
199.07102892930922
20
126.55864842194197
10
185.07002892930922
20
126.55864842194197
0
LWPOLYLINE
5
147
100
AcDbEntity
8
0
100
AcDbPolyline
90
4
70
1
43
0.0
10
170.49602892930926
20
126.55864842194197
10
156.49502892930929
20
126.55864842194197
10
156.49502892930929
20
112.55764842194199
10
170.49602892930926
20
112.55764842194199
0
LWPOLYLINE
5
148
100
AcDbEntity
8
0
100
AcDbPolyline
90
4
70
1
43
0.0
10
204.1190289293092
20
112.55764842194199
10
218.12102892930915
20
112.55764842194199
10
218.12102892930915
20
126.55864842194197
10
204.1190289293092
20
126.55864842194197
0
LWPOLYLINE
5
149
100
AcDbEntity
8
0
100
AcDbPolyline
90
4
70
1
43
0.0
10
80.29502892930951
20
102.74564842194201
10
80.29502892930951
20
88.746148421942053
10
94.296028929309458
20
88.746148421942053
10
94.296028929309458
20
102.74564842194201
0
LWPOLYLINE
5
150
100
AcDbEntity
8
0
100
AcDbPolyline
90
4
70
1
43
0.0
10
237.1710289293091
20
126.55864842194197
10
223.16902892930921
20
126.55864842194197
10
223.16902892930921
20
112.55764842194199
10
237.1710289293091
20
112.55764842194199
0
LWPOLYLINE
5
151
100
AcDbEntity
8
0
100
AcDbPolyline
90
4
70
1
43
0.0
10
151.44602892930936
20
112.55764842194199
10
151.44602892930936
20
126.55864842194197
10
137.44502892930933
20
126.55864842194197
10
137.44502892930933
20
112.55764842194199
0
LWPOLYLINE
5
152
100
AcDbEntity
8
0
100
AcDbPolyline
90
4
70
1
43
0.0
10
61.245028929309569
20
88.746148421942053
10
75.246028929309517
20
88.746148421942053
10
75.246028929309517
20
102.74564842194201
10
61.245028929309569
20
102.74564842194201
0
LWPOLYLINE
5
153
100
AcDbEntity
8
0
100
AcDbPolyline
90
4
70
1
43
0.0
10
42.195028929309629
20
88.746148421942053
10
56.196028929309549
20
88.746148421942053
10
56.196028929309549
20
102.74564842194201
10
42.195028929309629
20
102.74564842194201
0
LWPOLYLINE
5
154
100
AcDbEntity
8
0
100
AcDbPolyline
90
4
70
1
43
0.0
10
23.145028929309621
20
88.746148421942053
10
37.146028929309566
20
88.746148421942053
10
37.146028929309566
20
102.74564842194201
10
23.145028929309621
20
102.74564842194201
0
LWPOLYLINE
5
155
100
AcDbEntity
8
0
100
AcDbPolyline
90
4
70
1
43
0.0
10
4.0950289293096809
20
88.746148421942053
10
18.094028929309669
20
88.746148421942053
10
18.094028929309669
20
102.74564842194201
10
4.0950289293096809
20
102.74564842194201
0
LWPOLYLINE
5
156
100
AcDbEntity
8
0
100
AcDbPolyline
90
4
70
1
43
0.0
10
65.721028929309512
20
112.55764842194199
10
65.721028929309512
20
126.55864842194197
10
51.720028929309606
20
126.55864842194197
10
51.720028929309606
20
112.55764842194199
0
LWPOLYLINE
5
157
100
AcDbEntity
8
0
100
AcDbPolyline
90
4
70
1
43
0.0
10
32.670028929309623
20
126.55864842194197
10
32.670028929309623
20
112.55764842194199
10
46.671028929309571
20
112.55764842194199
10
46.671028929309571
20
126.55864842194197
0
LWPOLYLINE
5
158
100
AcDbEntity
8
0
100
AcDbPolyline
90
4
70
1
43
0.0
10
84.771028929309495
20
112.55764842194199
10
84.771028929309495
20
126.55864842194197
10
70.770028929309547
20
126.55864842194197
10
70.770028929309547
20
112.55764842194199
0
LWPOLYLINE
5
159
100
AcDbEntity
8
0
100
AcDbPolyline
90
4
70
1
43
0.0
10
118.39502892930943
20
112.55764842194199
10
132.39602892930938
20
112.55764842194199
10
132.39602892930938
20
126.55864842194197
10
118.39502892930943
20
126.55864842194197
0
LWPOLYLINE
5
160
100
AcDbEntity
8
0
100
AcDbPolyline
90
4
70
1
43
0.0
10
113.34602892930944
20
126.55864842194197
10
99.345028929309493
20
126.55864842194197
10
99.345028929309493
20
112.55764842194199
10
113.34602892930944
20
112.55764842194199
0
LWPOLYLINE
5
161
100
AcDbEntity
8
0
100
AcDbPolyline
90
4
70
1
43
0.0
10
27.621028929309634
20
126.55864842194197
10
13.620028929309651
20
126.55864842194197
10
13.620028929309651
20
112.55764842194199
10
27.621028929309634
20
112.55764842194199
0
LWPOLYLINE
5
162
100
AcDbEntity
8
0
100
AcDbPolyline
90
22
70
1
43
0.0
10
0
20
107.0144648589897
10
0
20
151.75
10
41.096502665362031
20
151.75
10
41.096502665362031
20
156.75
10
203.08937245419114
20
156.75
10
203.08937245419114
20
151.75
10
206.74510144671044
20
151.75
10
206.74510144671044
20
128.39999713003635
10
243
20
128.39999713003635
10
243
20
107.0144648589897
10
247.99999999999997
20
107.0144648589897
10
247.99999445676804
20
26.5457484219422
10
243
20
26.5457484219422
10
243
20
0
10
205.69999540224671
20
0
10
205.69999540224671
20
-4.9999999999999476
10
20.199999548494816
20
-4.9999999999999938
10
20.199999548494816
20
0
10
0
20
0
10
0
20
21.718635104516668
10
-4.9999999999999636
20
21.718635104516668
10
-4.9999999999999485
20
107.0144648589897
0
CIRCLE
5
163
100
AcDbEntity
8
0
100
AcDbCircle
10
174.99999944120646
20
154.39999654889107
30
0
40
1.5000000000000002
210
0
220
0
230
1
0
CIRCLE
5
164
100
AcDbEntity
8
0
100
AcDbCircle
10
174.99999944120646
20
154.39999654889107
30
0
40
1.5000000000000002
210
0
220
0
230
1
0
CIRCLE
5
165
100
AcDbEntity
8
0
100
AcDbCircle
10
114.99999944120646
20
154.39999654889107
30
0
40
1.5000000000000002
210
0
220
0
230
1
0
CIRCLE
5
166
100
AcDbEntity
8
0
100
AcDbCircle
10
59.999999441206455
20
154.39999654889107
30
0
40
1.5000000000000002
210
0
220
0
230
1
0
CIRCLE
5
167
100
AcDbEntity
8
0
100
AcDbCircle
10
59.999999441206455
20
154.39999654889107
30
0
40
1.5000000000000002
210
0
220
0
230
1
0
CIRCLE
5
168
100
AcDbEntity
8
0
100
AcDbCircle
10
114.99999944120646
20
154.39999654889107
30
0
40
1.5000000000000002
210
0
220
0
230
1
0
CIRCLE
5
169
100
AcDbEntity
8
0
100
AcDbCircle
10
-2.4999999441206455
20
67.699998486787081
30
0
40
1.4999999999999971
210
0
220
0
230
1
0
CIRCLE
5
170
100
AcDbEntity
8
0
100
AcDbCircle
10
114.99999944120646
20
-2.6000034511089432
30
0
40
1.5000000000000002
210
0
220
0
230
1
0
CIRCLE
5
171
100
AcDbEntity
8
0
100
AcDbCircle
10
59.999999441206455
20
-2.6000034511089432
30
0
40
1.5000000000000002
210
0
220
0
230
1
0
CIRCLE
5
172
100
AcDbEntity
8
0
100
AcDbCircle
10
175.99999944120646
20
-2.6000034511089432
30
0
40
1.5000000000000002
210
0
220
0
230
1
0
CIRCLE
5
173
100
AcDbEntity
8
0
100
AcDbCircle
10
245.50000005587935
20
67.699998486787081
30
0
40
1.4999999999999971
210
0
220
0
230
1
0
ENDSEC
0
SECTION
2
OBJECTS
0
DICTIONARY
5
C
100
AcDbDictionary
3
ACAD_GROUP
350
D
3
ACAD_MLINESTYLE
350
17
0
DICTIONARY
5
D
100
AcDbDictionary
0
DICTIONARY
5
1A
330
C
100
AcDbDictionary
0
DICTIONARY
5
17
100
AcDbDictionary
0
ENDSEC
0
EOF
