0
SECTION
2
HEADER
9
$INSUNITS
70
4
9
$ACADVER
1
AC1014
9
$HANDSEED
5
FFFF
0
ENDSEC
0
SECTION
2
TABLES
0
TABLE
2
VPORT
5
8
100
AcDbSymbolTable
0
ENDTAB
0
TABLE
2
LTYPE
5
5
100
AcDbSymbolTable
0
LTYPE
5
14
100
AcDbSymbolTableRecord
100
AcDbLinetypeTableRecord
2
BYBLOCK
70
0
0
LTYPE
5
15
100
AcDbSymbolTableRecord
100
AcDbLinetypeTableRecord
2
BYLAYER
70
0
0
ENDTAB
0
TABLE
2
LAYER
5
2
100
AcDbSymbolTable
70
2
0
LAYER
5
50
100
AcDbSymbolTableRecord
100
AcDbLayerTableRecord
2
0
70
0
6
CONTINUOUS
0
ENDTAB
0
TABLE
2
STYLE
5
3
100
AcDbSymbolTable
70
1
0
STYLE
5
11
100
AcDbSymbolTableRecord
100
AcDbTextStyleTableRecord
2
STANDARD
70
0
0
ENDTAB
0
TABLE
2
VIEW
5
6
100
AcDbSymbolTable
70
0
0
ENDTAB
0
TABLE
2
UCS
5
7
100
AcDbSymbolTable
70
0
0
ENDTAB
0
TABLE
2
APPID
5
9
100
AcDbSymbolTable
70
2
0
APPID
5
12
100
AcDbSymbolTableRecord
100
AcDbRegAppTableRecord
2
ACAD
70
0
0
ENDTAB
0
TABLE
2
DIMSTYLE
5
A
100
AcDbSymbolTable
70
1
0
ENDTAB
0
TABLE
2
BLOCK_RECORD
5
1
100
AcDbSymbolTable
70
1
0
BLOCK_RECORD
5
1F
100
AcDbSymbolTableRecord
100
AcDbBlockTableRecord
2
*MODEL_SPACE
0
BLOCK_RECORD
5
1B
100
AcDbSymbolTableRecord
100
AcDbBlockTableRecord
2
*PAPER_SPACE
0
ENDTAB
0
ENDSEC
0
SECTION
2
BLOCKS
0
BLOCK
5
20
100
AcDbEntity
100
AcDbBlockBegin
2
*MODEL_SPACE
0
ENDBLK
5
21
100
AcDbEntity
100
AcDbBlockEnd
0
BLOCK
5
1C
100
AcDbEntity
100
AcDbBlockBegin
2
*PAPER_SPACE
0
ENDBLK
5
1D
100
AcDbEntity
100
AcDbBlockEnd
0
ENDSEC
0
SECTION
2
ENTITIES
0
LWPOLYLINE
5
100
100
AcDbEntity
8
0
100
AcDbPolyline
90
4
70
1
43
0.0
10
78.663362049181728
20
68.301585686865707
10
64.662362049181738
20
68.301585686865707
10
64.662362049181738
20
54.300585686865702
10
78.663362049181728
20
54.300585686865702
0
LWPOLYLINE
5
101
100
AcDbEntity
8
0
100
AcDbPolyline
90
4
70
1
43
0.0
10
67.041962049181748
20
16.202085686865708
10
81.042962049181739
20
16.202085686865708
10
81.042962049181739
20
30.203085686865705
10
67.041962049181748
20
30.203085686865705
0
LWPOLYLINE
5
102
100
AcDbEntity
8
0
100
AcDbPolyline
90
36
70
1
43
0.0
10
47.281062049181735
20
44.551185686865708
10
47.281062049181735
20
41.750785686865711
10
46.455562049181736
20
41.750785686865711
10
46.455562049181729
20
35.480785686865715
10
44.731862049181728
20
35.480785686865715
10
44.731862049181728
20
34.281885686865714
10
41.43126204918174
20
34.281885686865714
10
41.43126204918174
20
35.480785686865715
10
39.706162049181735
20
35.480785686865715
10
39.706162049181735
20
39.951285686865717
10
38.180562049181731
20
39.951285686865717
10
38.180562049181731
20
35.252085686865719
10
24.179562049181733
20
35.252085686865719
10
24.179562049181733
20
39.951285686865717
10
22.655562049181739
20
39.951285686865717
10
22.655562049181739
20
35.480785686865715
10
20.931662049181739
20
35.480785686865715
10
20.931662049181739
20
34.281885686865714
10
17.631262049181739
20
34.281885686865714
10
17.631262049181743
20
35.480785686865715
10
15.905962049181742
20
35.480785686865715
10
15.905962049181742
20
41.750785686865711
10
15.081862049181741
20
41.750785686865711
10
15.081862049181741
20
44.551185686865708
10
15.905962049181742
20
44.551185686865708
10
15.905962049181742
20
47.781185686865719
10
22.655562049181739
20
47.781185686865719
10
22.655562049181739
20
44.551185686865708
10
24.179562049181733
20
44.551185686865708
10
24.179562049181733
20
49.253085686865717
10
38.180562049181731
20
49.253085686865717
10
38.180562049181731
20
44.551185686865708
10
39.706162049181735
20
44.551185686865708
10
39.706162049181735
20
47.781185686865719
10
46.455562049181736
20
47.781185686865719
10
46.455562049181729
20
44.551185686865708
0
LWPOLYLINE
5
103
100
AcDbEntity
8
0
100
AcDbPolyline
90
4
70
1
43
0.0
10
19.418562049181741
20
68.302985686865711
10
19.418562049181741
20
54.301985686865706
10
33.419562049181749
20
54.301985686865706
10
33.419562049181749
20
68.302985686865711
0
LWPOLYLINE
5
104
100
AcDbEntity
8
0
100
AcDbPolyline
90
4
70
1
43
0.0
10
54.850562049181733
20
87.351585686865718
10
40.849562049181728
20
87.351585686865718
10
40.849562049181728
20
73.350585686865713
10
54.850562049181733
20
73.350585686865713
0
LWPOLYLINE
5
105
100
AcDbEntity
8
0
100
AcDbPolyline
90
4
70
1
43
0.0
10
102.47416204918173
20
92.400485686865693
10
102.47416204918173
20
106.4014856868657
10
88.473162049181724
20
106.4014856868657
10
88.473162049181724
20
92.400485686865693
0
LWPOLYLINE
5
106
100
AcDbEntity
8
0
100
AcDbPolyline
90
4
70
1
43
0.0
10
131.0487620491817
20
73.351985686865717
10
131.0487620491817
20
87.352985686865708
10
117.0477620491817
20
87.352985686865708
10
117.0477620491817
20
73.351985686865703
0
LWPOLYLINE
5
107
100
AcDbEntity
8
0
100
AcDbPolyline
90
4
70
1
43
0.0
10
31.324862049181739
20
106.4014856868657
10
31.324862049181739
20
92.400485686865693
10
45.325562049181734
20
92.400485686865693
10
45.325562049181734
20
106.4014856868657
0
LWPOLYLINE
5
108
100
AcDbEntity
8
0
100
AcDbPolyline
90
4
70
1
43
0.0
10
26.275662049181744
20
92.401985686865729
10
26.275662049181744
20
106.40298568686573
10
12.274832049181743
20
106.40298568686573
10
12.274832049181743
20
92.401985686865729
0
LWPOLYLINE
5
109
100
AcDbEntity
8
0
100
AcDbPolyline
90
4
70
1
43
0.0
10
102.76236204918175
20
54.301985686865706
10
116.76336204918174
20
54.301985686865706
10
116.76336204918174
20
68.302985686865711
10
102.76236204918175
20
68.302985686865711
0
LWPOLYLINE
5
110
100
AcDbEntity
8
0
100
AcDbPolyline
90
4
70
1
43
0.0
10
50.374862049181729
20
106.4014856868657
10
50.374862049181729
20
92.400485686865693
10
64.375562049181738
20
92.400485686865693
10
64.375562049181724
20
106.4014856868657
0
LWPOLYLINE
5
111
100
AcDbEntity
8
0
100
AcDbPolyline
90
4
70
1
43
0.0
10
121.52576204918169
20
116.21348568686571
10
121.52576204918169
20
130.21448568686571
10
107.52476204918169
20
130.21448568686571
10
107.52476204918169
20
116.21348568686571
0
LWPOLYLINE
5
112
100
AcDbEntity
8
0
100
AcDbPolyline
90
4
70
1
43
0.0
10
97.71166204918174
20
54.300585686865702
10
97.71166204918174
20
68.301585686865707
10
83.710662049181735
20
68.301585686865707
10
83.710662049181735
20
54.300585686865702
0
LWPOLYLINE
5
113
100
AcDbEntity
8
0
100
AcDbPolyline
90
4
70
1
43
0.0
10
121.52576204918169
20
106.4014856868657
10
107.52476204918169
20
106.4014856868657
10
107.52476204918169
20
92.400485686865693
10
121.52576204918169
20
92.400485686865693
0
LWPOLYLINE
5
114
100
AcDbEntity
8
0
100
AcDbPolyline
90
4
70
1
43
0.0
10
121.8127620491817
20
68.302985686865711
10
121.8127620491817
20
54.301985686865706
10
135.81376204918169
20
54.301985686865706
10
135.81376204918169
20
68.302985686865711
0
LWPOLYLINE
5
115
100
AcDbEntity
8
0
100
AcDbPolyline
90
4
70
1
43
0.0
10
88.474862049181752
20
116.21348568686571
10
102.47556204918172
20
116.21348568686571
10
102.47556204918172
20
130.21448568686571
10
88.474862049181752
20
130.21448568686571
0
LWPOLYLINE
5
116
100
AcDbEntity
8
0
100
AcDbPolyline
90
4
70
1
43
0.0
10
59.899862049181735
20
87.352985686865708
10
59.899862049181735
20
73.351985686865703
10
73.90086204918174
20
73.351985686865703
10
73.90086204918174
20
87.352985686865708
0
LWPOLYLINE
5
117
100
AcDbEntity
8
0
100
AcDbPolyline
90
4
70
1
43
0.0
10
97.999862049181758
20
87.351585686865718
10
97.999862049181758
20
73.350585686865713
10
112.00086204918176
20
73.350585686865713
10
112.00086204918176
20
87.351585686865718
0
LWPOLYLINE
5
118
100
AcDbEntity
8
0
100
AcDbPolyline
90
4
70
1
43
0.0
10
12.274832049181743
20
116.21348568686571
10
26.275662049181744
20
116.21348568686571
10
26.275662049181744
20
130.21448568686571
10
12.274832049181743
20
130.21448568686571
0
LWPOLYLINE
5
119
100
AcDbEntity
8
0
100
AcDbPolyline
90
4
70
1
43
0.0
10
92.950562049181755
20
87.351585686865718
10
78.949562049181736
20
87.351585686865718
10
78.949562049181736
20
73.350585686865713
10
92.950562049181741
20
73.350585686865713
0
LWPOLYLINE
5
120
100
AcDbEntity
8
0
100
AcDbPolyline
90
4
70
1
43
0.0
10
45.612362049181741
20
68.302985686865711
10
45.612362049181741
20
54.301985686865706
10
59.613362049181731
20
54.301985686865706
10
59.613362049181745
20
68.302985686865711
0
LWPOLYLINE
5
121
100
AcDbEntity
8
0
100
AcDbPolyline
90
4
70
1
43
0.0
10
83.42586204918176
20
106.4014856868657
10
69.424862049181755
20
106.4014856868657
10
69.424862049181755
20
92.400485686865693
10
83.42586204918176
20
92.400485686865693
0
LWPOLYLINE
5
122
100
AcDbEntity
8
0
100
AcDbPolyline
90
4
70
1
43
0.0
10
31.038362049181742
20
87.351585686865718
10
17.037362049181741
20
87.351585686865718
10
17.037362049181741
20
73.350585686865713
10
31.038362049181742
20
73.350585686865713
0
LWPOLYLINE
5
123
100
AcDbEntity
8
0
100
AcDbPolyline
90
4
70
1
43
0.0
10
50.374862049181729
20
130.21448568686571
10
50.374862049181729
20
116.21348568686571
10
64.375562049181738
20
116.21348568686571
10
64.375562049181724
20
130.21448568686571
0
LWPOLYLINE
5
124
100
AcDbEntity
8
0
100
AcDbPolyline
90
4
70
1
43
0.0
10
69.424862049181755
20
130.21448568686571
10
69.424862049181755
20
116.21348568686571
10
83.425562049181735
20
116.21348568686571
10
83.425562049181735
20
130.21448568686571
0
LWPOLYLINE
5
125
100
AcDbEntity
8
0
100
AcDbPolyline
90
21
70
1
43
0.0
10
144.06098908413111
20
120.9000019845401
10
144.06098908413111
20
155.79591273825841
10
112.4053748232373
20
155.79591273825841
10
112.4053748232373
20
160.50264740182499
10
40.320783848366432
20
160.50264740182499
10
40.320783848366432
20
155.79591273825841
10
40.320783848366432
20
134.2999969981619
10
5.8999998681247598
20
134.2999969981619
10
5.9500005161888092
20
120.89678672281562
10
6.0000005150712221
20
40.100003790560876
10
6.0000005150712221
20
4.0673796994001341
10
10.306234056515095
20
4.0673796994001341
10
10.306234056515095
20
-0.99735259817503252
10
27.800000023332899
20
-0.99735259817503252
10
27.800000023332903
20
4.0673796994001341
10
111.22711226893578
20
4.0673796994001341
10
111.22711226893578
20
-0.99735259817503252
10
127.30000254907971
20
-0.99735259817503252
10
127.30000254907971
20
4.0673796994001341
10
144.06098908413111
20
4.0673796994001332
10
144.06098908413111
20
40.167058440559686
0
CIRCLE
5
126
100
AcDbEntity
8
0
100
AcDbCircle
10
103.79787414117226
20
158.36129804170588
30
1.1413092693146609e-12
40
1.5700000000000001
210
0
220
0
230
1
0
LWPOLYLINE
5
127
100
AcDbEntity
8
0
100
AcDbPolyline
90
4
70
1
43
0.0
10
69.136662049181737
20
35.250585686865705
10
69.136662049181737
20
49.251585686865702
10
55.13566204918174
20
49.251585686865702
10
55.13566204918174
20
35.250585686865705
0
LWPOLYLINE
5
128
100
AcDbEntity
8
0
100
AcDbPolyline
90
4
70
1
43
0.0
10
88.188362049181734
20
49.251585686865702
10
74.187362049181743
20
49.251585686865702
10
74.187362049181743
20
35.250585686865705
10
88.188362049181734
20
35.250585686865705
0
LWPOLYLINE
5
129
100
AcDbEntity
8
0
100
AcDbPolyline
90
4
70
1
43
0.0
10
93.237362049181755
20
35.252085686865719
10
107.23836204918175
20
35.252085686865719
10
107.23836204918175
20
49.25308568686571
10
93.237362049181755
20
49.253085686865717
0
LWPOLYLINE
5
130
100
AcDbEntity
8
0
100
AcDbPolyline
90
4
70
1
43
0.0
10
126.2867620491817
20
35.252085686865712
10
126.2867620491817
20
49.25308568686571
10
112.2857620491817
20
49.253085686865717
10
112.2857620491817
20
35.252085686865719
0
LWPOLYLINE
5
131
100
AcDbEntity
8
0
100
AcDbPolyline
90
4
70
1
43
0.0
10
59.611662049181746
20
30.20158568686572
10
45.610662049181734
20
30.20158568686572
10
45.610662049181734
20
16.200585686865704
10
59.611662049181732
20
16.200585686865718
0
LWPOLYLINE
5
132
100
AcDbEntity
8
0
100
AcDbPolyline
90
4
70
1
43
0.0
10
133.43076204918168
20
16.202085686865722
10
133.43076204918168
20
30.203085686865705
10
119.42976204918169
20
30.203085686865705
10
119.42976204918169
20
16.202085686865708
0
LWPOLYLINE
5
133
100
AcDbEntity
8
0
100
AcDbPolyline
90
4
70
1
43
0.0
10
33.418062049181735
20
16.202085686865722
10
33.418062049181735
20
30.203085686865705
10
19.417062049181734
20
30.203085686865705
10
19.417062049181734
20
16.202085686865708
0
LWPOLYLINE
5
134
100
AcDbEntity
8
0
100
AcDbPolyline
90
4
70
1
43
0.0
10
104.85576204918175
20
16.200585686865718
10
104.85576204918175
20
30.20158568686572
10
90.854762049181744
20
30.20158568686572
10
90.854762049181744
20
16.200585686865704
0
CIRCLE
5
135
100
AcDbEntity
8
0
100
AcDbCircle
10
18.549918935298081
20
1.6107700713254947
30
1.1413092693146609e-12
40
1.5700000000000001
210
0
220
0
230
1
0
CIRCLE
5
136
100
AcDbEntity
8
0
100
AcDbCircle
10
119.42837769451
20
1.5950267851886568
30
1.1413092693146609e-12
40
1.5700000000000001
210
0
220
0
230
1
0
CIRCLE
5
137
100
AcDbEntity
8
0
100
AcDbCircle
10
50.797874141172258
20
158.36129804170588
30
1.1413092693146609e-12
40
1.5700000000000001
210
0
220
0
230
1
0
ENDSEC
0
SECTION
2
OBJECTS
0
DICTIONARY
5
C
100
AcDbDictionary
3
ACAD_GROUP
350
D
3
ACAD_MLINESTYLE
350
17
0
DICTIONARY
5
D
100
AcDbDictionary
0
DICTIONARY
5
1A
330
C
100
AcDbDictionary
0
DICTIONARY
5
17
100
AcDbDictionary
0
ENDSEC
0
EOF
