0
SECTION
2
HEADER
9
$INSUNITS
70
4
9
$ACADVER
1
AC1014
9
$HANDSEED
5
FFFF
0
ENDSEC
0
SECTION
2
TABLES
0
TABLE
2
VPORT
5
8
100
AcDbSymbolTable
0
ENDTAB
0
TABLE
2
LTYPE
5
5
100
AcDbSymbolTable
0
LTYPE
5
14
100
AcDbSymbolTableRecord
100
AcDbLinetypeTableRecord
2
BYBLOCK
70
0
0
LTYPE
5
15
100
AcDbSymbolTableRecord
100
AcDbLinetypeTableRecord
2
BYLAYER
70
0
0
ENDTAB
0
TABLE
2
LAYER
5
2
100
AcDbSymbolTable
70
2
0
LAYER
5
50
100
AcDbSymbolTableRecord
100
AcDbLayerTableRecord
2
0
70
0
6
CONTINUOUS
0
ENDTAB
0
TABLE
2
STYLE
5
3
100
AcDbSymbolTable
70
1
0
STYLE
5
11
100
AcDbSymbolTableRecord
100
AcDbTextStyleTableRecord
2
STANDARD
70
0
0
ENDTAB
0
TABLE
2
VIEW
5
6
100
AcDbSymbolTable
70
0
0
ENDTAB
0
TABLE
2
UCS
5
7
100
AcDbSymbolTable
70
0
0
ENDTAB
0
TABLE
2
APPID
5
9
100
AcDbSymbolTable
70
2
0
APPID
5
12
100
AcDbSymbolTableRecord
100
AcDbRegAppTableRecord
2
ACAD
70
0
0
ENDTAB
0
TABLE
2
DIMSTYLE
5
A
100
AcDbSymbolTable
70
1
0
ENDTAB
0
TABLE
2
BLOCK_RECORD
5
1
100
AcDbSymbolTable
70
1
0
BLOCK_RECORD
5
1F
100
AcDbSymbolTableRecord
100
AcDbBlockTableRecord
2
*MODEL_SPACE
0
BLOCK_RECORD
5
1B
100
AcDbSymbolTableRecord
100
AcDbBlockTableRecord
2
*PAPER_SPACE
0
ENDTAB
0
ENDSEC
0
SECTION
2
BLOCKS
0
BLOCK
5
20
100
AcDbEntity
100
AcDbBlockBegin
2
*MODEL_SPACE
0
ENDBLK
5
21
100
AcDbEntity
100
AcDbBlockEnd
0
BLOCK
5
1C
100
AcDbEntity
100
AcDbBlockBegin
2
*PAPER_SPACE
0
ENDBLK
5
1D
100
AcDbEntity
100
AcDbBlockEnd
0
ENDSEC
0
SECTION
2
ENTITIES
0
LWPOLYLINE
5
100
100
AcDbEntity
8
0
100
AcDbPolyline
90
4
70
1
43
0.0
10
78.661662049181743
20
68.301585686865707
10
64.662362049181738
20
68.301585686865707
10
64.662362049181738
20
54.301985686865706
10
78.661662049181743
20
54.301985686865706
0
LWPOLYLINE
5
101
100
AcDbEntity
8
0
100
AcDbPolyline
90
4
70
1
43
0.0
10
67.043662049181734
20
16.202085686865708
10
81.042962049181739
20
16.202085686865708
10
81.042962049181739
20
30.20158568686572
10
67.043662049181734
20
30.20158568686572
0
LWPOLYLINE
5
102
100
AcDbEntity
8
0
100
AcDbPolyline
90
36
70
1
43
0.0
10
47.281062049181735
20
44.551185686865708
10
47.281062049181735
20
41.750785686865711
10
46.455562049181736
20
41.750785686865711
10
46.455562049181729
20
35.480785686865715
10
44.731862049181728
20
35.480785686865715
10
44.731862049181728
20
34.281885686865714
10
41.43126204918174
20
34.281885686865714
10
41.43126204918174
20
35.480785686865715
10
39.706162049181735
20
35.480785686865715
10
39.706162049181735
20
39.951285686865717
10
38.180562049181731
20
39.951285686865717
10
38.180562049181731
20
35.252085686865719
10
24.18106204918174
20
35.252085686865719
10
24.18106204918174
20
39.951285686865717
10
22.655562049181739
20
39.951285686865717
10
22.655562049181739
20
35.480785686865715
10
20.931662049181739
20
35.480785686865715
10
20.931662049181739
20
34.281885686865714
10
17.631262049181739
20
34.281885686865714
10
17.631262049181743
20
35.480785686865715
10
15.905962049181742
20
35.480785686865715
10
15.905962049181742
20
41.750785686865711
10
15.081862049181741
20
41.750785686865711
10
15.081862049181741
20
44.551185686865708
10
15.905962049181742
20
44.551185686865708
10
15.905962049181742
20
47.781185686865719
10
22.655562049181739
20
47.781185686865719
10
22.655562049181739
20
44.551185686865708
10
24.18106204918174
20
44.551185686865708
10
24.18106204918174
20
49.251585686865702
10
38.180562049181731
20
49.251585686865702
10
38.180562049181731
20
44.551185686865708
10
39.706162049181735
20
44.551185686865708
10
39.706162049181735
20
47.781185686865719
10
46.455562049181736
20
47.781185686865719
10
46.455562049181729
20
44.551185686865708
0
LWPOLYLINE
5
103
100
AcDbEntity
8
0
100
AcDbPolyline
90
4
70
1
43
0.0
10
19.418562049181741
20
68.301585686865707
10
19.418562049181741
20
54.301985686865706
10
33.418062049181735
20
54.301985686865706
10
33.418062049181735
20
68.301585686865707
0
LWPOLYLINE
5
104
100
AcDbEntity
8
0
100
AcDbPolyline
90
4
70
1
43
0.0
10
54.850562049181733
20
87.351585686865718
10
40.849862049181738
20
87.351585686865718
10
40.849862049181738
20
73.351985686865703
10
54.850562049181733
20
73.351985686865703
0
LWPOLYLINE
5
105
100
AcDbEntity
8
0
100
AcDbPolyline
90
4
70
1
43
0.0
10
102.47416204918173
20
92.401985686865729
10
102.47416204918173
20
106.4014856868657
10
88.474862049181752
20
106.4014856868657
10
88.474862049181752
20
92.401985686865729
0
LWPOLYLINE
5
106
100
AcDbEntity
8
0
100
AcDbPolyline
90
4
70
1
43
0.0
10
131.0487620491817
20
73.351985686865717
10
131.0487620491817
20
87.351585686865718
10
117.04976204918169
20
87.351585686865718
10
117.04976204918169
20
73.351985686865703
0
LWPOLYLINE
5
107
100
AcDbEntity
8
0
100
AcDbPolyline
90
4
70
1
43
0.0
10
31.324862049181739
20
106.4014856868657
10
31.324862049181739
20
92.401985686865729
10
45.325562049181734
20
92.401985686865729
10
45.325562049181734
20
106.4014856868657
0
LWPOLYLINE
5
108
100
AcDbEntity
8
0
100
AcDbPolyline
90
4
70
1
43
0.0
10
26.275662049181744
20
92.401985686865729
10
26.275662049181744
20
106.4014856868657
10
12.274832049181743
20
106.4014856868657
10
12.274832049181743
20
92.401985686865729
0
LWPOLYLINE
5
109
100
AcDbEntity
8
0
100
AcDbPolyline
90
4
70
1
43
0.0
10
102.76236204918175
20
54.301985686865706
10
116.7617620491817
20
54.301985686865706
10
116.7617620491817
20
68.301585686865707
10
102.76236204918175
20
68.301585686865707
0
LWPOLYLINE
5
110
100
AcDbEntity
8
0
100
AcDbPolyline
90
4
70
1
43
0.0
10
50.374862049181729
20
106.4014856868657
10
50.374862049181729
20
92.401985686865729
10
64.375562049181738
20
92.401985686865729
10
64.375562049181724
20
106.4014856868657
0
LWPOLYLINE
5
111
100
AcDbEntity
8
0
100
AcDbPolyline
90
4
70
1
43
0.0
10
121.52576204918169
20
116.21348568686571
10
121.52576204918169
20
130.21448568686571
10
107.52476204918169
20
130.21448568686571
10
107.52476204918169
20
116.21348568686571
0
LWPOLYLINE
5
112
100
AcDbEntity
8
0
100
AcDbPolyline
90
4
70
1
43
0.0
10
97.71166204918174
20
54.301985686865706
10
97.71166204918174
20
68.301585686865707
10
83.712362049181735
20
68.301585686865707
10
83.712362049181735
20
54.301985686865706
0
LWPOLYLINE
5
113
100
AcDbEntity
8
0
100
AcDbPolyline
90
4
70
1
43
0.0
10
121.5237620491817
20
106.4014856868657
10
107.52476204918169
20
106.4014856868657
10
107.52476204918169
20
92.401985686865729
10
121.5237620491817
20
92.401985686865729
0
LWPOLYLINE
5
114
100
AcDbEntity
8
0
100
AcDbPolyline
90
4
70
1
43
0.0
10
121.8127620491817
20
68.301585686865707
10
121.8127620491817
20
54.301985686865706
10
135.81176204918168
20
54.301985686865706
10
135.81176204918168
20
68.301585686865707
0
LWPOLYLINE
5
115
100
AcDbEntity
8
0
100
AcDbPolyline
90
4
70
1
43
0.0
10
88.474862049181752
20
116.21348568686571
10
102.47556204918172
20
116.21348568686571
10
102.47556204918172
20
130.21448568686571
10
88.474862049181752
20
130.21448568686571
0
LWPOLYLINE
5
116
100
AcDbEntity
8
0
100
AcDbPolyline
90
4
70
1
43
0.0
10
59.899862049181735
20
87.351585686865718
10
59.899862049181735
20
73.351985686865703
10
73.900562049181744
20
73.351985686865703
10
73.90056204918173
20
87.351585686865718
0
LWPOLYLINE
5
117
100
AcDbEntity
8
0
100
AcDbPolyline
90
4
70
1
43
0.0
10
97.999862049181758
20
87.351585686865718
10
97.999862049181758
20
73.351985686865703
10
112.00076204918169
20
73.351985686865703
10
112.00076204918169
20
87.351585686865718
0
LWPOLYLINE
5
118
100
AcDbEntity
8
0
100
AcDbPolyline
90
4
70
1
43
0.0
10
12.274832049181743
20
116.21348568686571
10
26.275662049181744
20
116.21348568686571
10
26.275662049181744
20
130.21448568686571
10
12.274832049181743
20
130.21448568686571
0
LWPOLYLINE
5
119
100
AcDbEntity
8
0
100
AcDbPolyline
90
4
70
1
43
0.0
10
92.950562049181755
20
87.351585686865718
10
78.949862049181718
20
87.351585686865718
10
78.949862049181718
20
73.351985686865703
10
92.950562049181741
20
73.351985686865717
0
LWPOLYLINE
5
120
100
AcDbEntity
8
0
100
AcDbPolyline
90
4
70
1
43
0.0
10
45.612362049181741
20
68.301585686865707
10
45.612362049181741
20
54.301985686865706
10
59.611662049181732
20
54.301985686865706
10
59.611662049181746
20
68.301585686865707
0
LWPOLYLINE
5
121
100
AcDbEntity
8
0
100
AcDbPolyline
90
4
70
1
43
0.0
10
83.424162049181732
20
106.4014856868657
10
69.424862049181755
20
106.4014856868657
10
69.424862049181755
20
92.401985686865729
10
83.424162049181732
20
92.401985686865729
0
LWPOLYLINE
5
122
100
AcDbEntity
8
0
100
AcDbPolyline
90
4
70
1
43
0.0
10
31.036862049181735
20
87.351585686865718
10
17.037362049181741
20
87.351585686865718
10
17.037362049181741
20
73.351985686865703
10
31.036862049181735
20
73.351985686865717
0
LWPOLYLINE
5
123
100
AcDbEntity
8
0
100
AcDbPolyline
90
4
70
1
43
0.0
10
50.374862049181729
20
130.21448568686571
10
50.374862049181729
20
116.21348568686571
10
64.375562049181738
20
116.21348568686571
10
64.375562049181724
20
130.21448568686571
0
LWPOLYLINE
5
124
100
AcDbEntity
8
0
100
AcDbPolyline
90
26
70
1
43
0.0
10
149.08201901343369
20
120.9000019845401
10
144.06098908413111
20
120.9000019845401
10
144.06098908413111
20
155.79591273825841
10
112.60537482323728
20
155.79591273825841
10
112.60537482323728
20
160.50264740182499
10
40.120783848366429
20
160.50264740182499
10
40.120783848366429
20
155.79591273825841
10
40.120783848366429
20
134.2999969981619
10
5.8999998681247598
20
134.2999969981619
10
5.9500005161888092
20
120.89678672281562
10
1.0820190134337744
20
120.89678672281562
10
1.0820190134337744
20
40.100003790560869
10
4.0000005597747066
20
40.100003790560869
10
6.0000005150712221
20
40.100003790560876
10
6.0000005150712221
20
4.0673796994001341
10
10.106234056515095
20
4.0673796994001341
10
10.106234056515095
20
-0.99735259817503252
10
28.000000023332898
20
-0.99735259817503252
10
28.000000023332898
20
4.0673796994001341
10
111.02711226893578
20
4.0673796994001341
10
111.02711226893578
20
-0.99735259817503252
10
127.50000254907971
20
-0.99735259817503252
10
127.50000254907971
20
4.0673796994001341
10
144.06098908413111
20
4.0673796994001332
10
144.06098908413111
20
40.167058440559686
10
149.08201901343369
20
40.167058440559686
0
LWPOLYLINE
5
125
100
AcDbEntity
8
0
100
AcDbPolyline
90
4
70
1
43
0.0
10
69.424862049181755
20
130.21448568686571
10
69.424862049181755
20
116.21348568686571
10
83.425562049181735
20
116.21348568686571
10
83.425562049181735
20
130.21448568686571
0
LINE
5
126
100
AcDbEntity
8
0
100
AcDbLine
10
1.0820190134337744
20
120.89678672281562
30
1.1413092693146609e-12
11
1.0820190134337744
21
40.100003790560869
31
1.1413092693146609e-12
0
CIRCLE
5
127
100
AcDbEntity
8
0
100
AcDbCircle
10
103.79787414117226
20
158.36129804170588
30
1.1413092693146609e-12
40
1.5700000000000001
210
0
220
0
230
1
0
LWPOLYLINE
5
128
100
AcDbEntity
8
0
100
AcDbPolyline
90
4
70
1
43
0.0
10
69.136662049181737
20
35.252085686865712
10
69.136662049181737
20
49.251585686865702
10
55.137362049181746
20
49.251585686865702
10
55.137362049181746
20
35.252085686865719
0
LWPOLYLINE
5
129
100
AcDbEntity
8
0
100
AcDbPolyline
90
4
70
1
43
0.0
10
88.18666204918172
20
49.251585686865702
10
74.187362049181743
20
49.251585686865702
10
74.187362049181743
20
35.252085686865719
10
88.18666204918172
20
35.252085686865719
0
LWPOLYLINE
5
130
100
AcDbEntity
8
0
100
AcDbPolyline
90
4
70
1
43
0.0
10
93.237362049181755
20
35.252085686865719
10
107.23676204918169
20
35.252085686865719
10
107.23676204918169
20
49.251585686865702
10
93.237362049181755
20
49.25158568686571
0
LWPOLYLINE
5
131
100
AcDbEntity
8
0
100
AcDbPolyline
90
4
70
1
43
0.0
10
126.2867620491817
20
35.252085686865712
10
126.2867620491817
20
49.251585686865702
10
112.28776204918169
20
49.25158568686571
10
112.28776204918169
20
35.252085686865719
0
LWPOLYLINE
5
132
100
AcDbEntity
8
0
100
AcDbPolyline
90
4
70
1
43
0.0
10
59.611662049181746
20
30.20158568686572
10
45.612362049181741
20
30.20158568686572
10
45.612362049181741
20
16.202085686865708
10
59.611662049181732
20
16.202085686865722
0
LWPOLYLINE
5
133
100
AcDbEntity
8
0
100
AcDbPolyline
90
4
70
1
43
0.0
10
133.43076204918168
20
16.202085686865722
10
133.43076204918168
20
30.20158568686572
10
119.43076204918169
20
30.20158568686572
10
119.43076204918169
20
16.202085686865708
0
LWPOLYLINE
5
134
100
AcDbEntity
8
0
100
AcDbPolyline
90
4
70
1
43
0.0
10
33.418062049181735
20
16.202085686865722
10
33.418062049181735
20
30.20158568686572
10
19.418562049181741
20
30.20158568686572
10
19.418562049181741
20
16.202085686865708
0
LWPOLYLINE
5
135
100
AcDbEntity
8
0
100
AcDbPolyline
90
4
70
1
43
0.0
10
104.85576204918175
20
16.202085686865722
10
104.85576204918175
20
30.20158568686572
10
90.856162049181705
20
30.20158568686572
10
90.856162049181705
20
16.202085686865708
0
CIRCLE
5
136
100
AcDbEntity
8
0
100
AcDbCircle
10
18.549918935298081
20
1.6107700713254947
30
1.1413092693146609e-12
40
1.5700000000000001
210
0
220
0
230
1
0
CIRCLE
5
137
100
AcDbEntity
8
0
100
AcDbCircle
10
119.42837769451
20
1.5950267851886568
30
1.1413092693146609e-12
40
1.5700000000000001
210
0
220
0
230
1
0
CIRCLE
5
138
100
AcDbEntity
8
0
100
AcDbCircle
10
50.797874141172258
20
158.36129804170588
30
1.1413092693146609e-12
40
1.5700000000000001
210
0
220
0
230
1
0
ENDSEC
0
SECTION
2
OBJECTS
0
DICTIONARY
5
C
100
AcDbDictionary
3
ACAD_GROUP
350
D
3
ACAD_MLINESTYLE
350
17
0
DICTIONARY
5
D
100
AcDbDictionary
0
DICTIONARY
5
1A
330
C
100
AcDbDictionary
0
DICTIONARY
5
17
100
AcDbDictionary
0
ENDSEC
0
EOF
